G04 DesignSpark PCB Gerber Version 9.0 Build 5115 *
G04 #@! TF.Part,Single*
%FSLAX35Y35*%
%MOIN*%
%ADD10C,0.00394*%
%ADD70C,0.01181*%
X0Y0D02*
D02*
D10*
X11543Y293504D02*
Y301378D01*
X23748*
Y293504*
X11543*
X12331Y423819D02*
Y431693D01*
X23748*
Y423819*
X12331*
X13118Y142913D02*
Y150787D01*
X23945*
Y142913*
X13118*
X27488Y293504D02*
Y301378D01*
X43236*
Y293504*
X27488*
X27685Y142717D02*
Y150591D01*
X43433*
Y142717*
X27685*
X27882Y423819D02*
Y431693D01*
X43630*
Y423819*
X27882*
X47370Y293504D02*
Y301378D01*
X63118*
Y293504*
X47370*
X47567Y423622D02*
Y431496D01*
X63315*
Y423622*
X47567*
X48157Y142717D02*
Y150591D01*
X63118*
Y142717*
X48157*
X53276Y321260D02*
X61150D01*
Y305512*
X53276*
Y321260*
Y340945D02*
X61150D01*
Y325197*
X53276*
Y340945*
Y360630D02*
X61150D01*
Y344882*
X53276*
Y360630*
Y380315D02*
X61150D01*
Y364567*
X53276*
Y380315*
Y400000D02*
X61150D01*
Y384252*
X53276*
Y400000*
Y419685D02*
X61150D01*
Y403937*
X53276*
Y419685*
X55244Y451378D02*
X63118D01*
Y435630*
X55244*
Y451378*
Y471063D02*
X63118D01*
Y455315*
X55244*
Y471063*
Y490748D02*
X63118D01*
Y475000*
X55244*
Y490748*
Y510433D02*
X63118D01*
Y494685*
X55244*
Y510433*
Y530118D02*
X63118D01*
Y514370*
X55244*
Y530118*
Y549803D02*
X63118D01*
Y534055*
X55244*
Y549803*
X66858Y142717D02*
Y150591D01*
X82606*
Y142717*
X66858*
X67055Y293504D02*
Y301378D01*
X82803*
Y293504*
X67055*
Y423819D02*
Y431693D01*
X82803*
Y423819*
X67055*
X86740Y142717D02*
Y150591D01*
X102488*
Y142717*
X86740*
Y293504D02*
Y301378D01*
X102488*
Y293504*
X86740*
X86937Y423819D02*
Y431693D01*
X102685*
Y423819*
X86937*
X106228Y293504D02*
Y301378D01*
X121976*
Y293504*
X106228*
X106425Y142717D02*
Y150591D01*
X122173*
Y142717*
X106425*
Y423819D02*
Y431693D01*
X122173*
Y423819*
X106425*
X126110Y293504D02*
Y301378D01*
X141858*
Y293504*
X126110*
Y423819D02*
Y431693D01*
X141858*
Y423819*
X126110*
X126307Y142717D02*
Y150591D01*
X142055*
Y142717*
X126307*
X145795D02*
Y150591D01*
X160756*
Y142717*
X145795*
Y293504D02*
Y301378D01*
X161543*
Y293504*
X145795*
Y423819D02*
Y431693D01*
X161543*
Y423819*
X145795*
X150520Y172047D02*
X158394D01*
Y156299*
X150520*
Y172047*
Y191732D02*
X158394D01*
Y175984*
X150520*
Y191732*
Y211417D02*
X158394D01*
Y195669*
X150520*
Y211417*
Y231102D02*
X158394D01*
Y215354*
X150520*
Y231102*
Y250787D02*
X158394D01*
Y235039*
X150520*
Y250787*
Y270472D02*
X158394D01*
Y254724*
X150520*
Y270472*
Y290354D02*
X158394D01*
Y274606*
X150520*
Y290354*
X150717Y99213D02*
X158591D01*
Y83465*
X150717*
Y99213*
Y118898D02*
X158591D01*
Y103150*
X150717*
Y118898*
Y138583D02*
X158591D01*
Y122835*
X150717*
Y138583*
X150913Y40157D02*
X158787D01*
Y24409*
X150913*
Y40157*
Y59843D02*
X158787D01*
Y44094*
X150913*
Y59843*
Y79528D02*
X158787D01*
Y63780*
X150913*
Y79528*
X165480Y142717D02*
Y150591D01*
X181228*
Y142717*
X165480*
Y293504D02*
Y301378D01*
X181228*
Y293504*
X165480*
X165677Y423819D02*
Y431693D01*
X181425*
Y423819*
X165677*
X185165Y142717D02*
Y150591D01*
X200913*
Y142717*
X185165*
Y293504D02*
Y301378D01*
X200913*
Y293504*
X185165*
X185362Y423819D02*
Y431693D01*
X201110*
Y423819*
X185362*
X204850Y142717D02*
Y150591D01*
X220598*
Y142717*
X204850*
Y423819D02*
Y431693D01*
X220598*
Y423819*
X204850*
X205047Y293504D02*
Y301378D01*
X220795*
Y293504*
X205047*
X208787Y305512D02*
X200913D01*
Y321260*
X208787*
Y305512*
Y325197D02*
X200913D01*
Y340945*
X208787*
Y325197*
Y344882D02*
X200913D01*
Y360630*
X208787*
Y344882*
Y364567D02*
X200913D01*
Y380315*
X208787*
Y364567*
Y384252D02*
X200913D01*
Y400000*
X208787*
Y384252*
Y403937D02*
X200913D01*
Y419685*
X208787*
Y403937*
X210756Y435630D02*
X202882D01*
Y451378*
X210756*
Y435630*
Y455315D02*
X202882D01*
Y471063*
X210756*
Y455315*
Y475000D02*
X202882D01*
Y490748*
X210756*
Y475000*
Y494685D02*
X202882D01*
Y510433*
X210756*
Y494685*
Y514370D02*
X202882D01*
Y530118*
X210756*
Y514370*
Y534055D02*
X202882D01*
Y549803*
X210756*
Y534055*
X224535Y142717D02*
Y150591D01*
X240283*
Y142717*
X224535*
Y293504D02*
Y301378D01*
X240283*
Y293504*
X224535*
Y423819D02*
Y431693D01*
X240283*
Y423819*
X224535*
X244220Y142717D02*
Y150591D01*
X259969*
Y142717*
X244220*
Y293504D02*
Y301378D01*
X259969*
Y293504*
X244220*
Y423819D02*
Y431693D01*
X259969*
Y423819*
X244220*
X256031Y475000D02*
X263906D01*
Y459252*
X256031*
Y475000*
Y553740D02*
X263906D01*
Y537992*
X256031*
Y553740*
X256228Y321457D02*
X264102D01*
Y307087*
X256228*
Y321457*
Y341339D02*
X264102D01*
Y325591*
X256228*
Y341339*
Y361024D02*
X264102D01*
Y345276*
X256228*
Y361024*
Y380906D02*
X264102D01*
Y365157*
X256228*
Y380906*
Y400591D02*
X264102D01*
Y384843*
X256228*
Y400591*
Y420079D02*
X264102D01*
Y404331*
X256228*
Y420079*
Y455512D02*
X264102D01*
Y439764*
X256228*
Y455512*
Y494882D02*
X264102D01*
Y479134*
X256228*
Y494882*
Y514567D02*
X264102D01*
Y498819*
X256228*
Y514567*
Y534449D02*
X264102D01*
Y518701*
X256228*
Y534449*
X263906Y142717D02*
Y150591D01*
X279654*
Y142717*
X263906*
X264102Y293504D02*
Y301378D01*
X279850*
Y293504*
X264102*
Y423819D02*
Y431693D01*
X279850*
Y423819*
X264102*
X283591Y142717D02*
Y150591D01*
X299339*
Y142717*
X283591*
Y423819D02*
Y431693D01*
X299339*
Y423819*
X283591*
X283787Y293504D02*
Y301378D01*
X299535*
Y293504*
X283787*
X303276Y142717D02*
Y150591D01*
X319024*
Y142717*
X303276*
Y293504D02*
Y301378D01*
X319024*
Y293504*
X303276*
X303472Y423819D02*
Y431693D01*
X319220*
Y423819*
X303472*
X311346Y321260D02*
X319220D01*
Y305512*
X311346*
Y321260*
Y340945D02*
X319220D01*
Y325197*
X311346*
Y340945*
Y360630D02*
X319220D01*
Y344882*
X311346*
Y360630*
Y380315D02*
X319220D01*
Y364567*
X311346*
Y380315*
Y400000D02*
X319220D01*
Y384252*
X311346*
Y400000*
Y419685D02*
X319220D01*
Y403937*
X311346*
Y419685*
Y451378D02*
X319220D01*
Y435630*
X311346*
Y451378*
Y471063D02*
X319220D01*
Y455315*
X311346*
Y471063*
Y490748D02*
X319220D01*
Y475000*
X311346*
Y490748*
Y510433D02*
X319220D01*
Y494685*
X311346*
Y510433*
Y530118D02*
X319220D01*
Y514370*
X311346*
Y530118*
Y549803D02*
X319220D01*
Y534055*
X311346*
Y549803*
X322961Y142717D02*
Y150591D01*
X338709*
Y142717*
X322961*
Y293504D02*
Y301378D01*
X338709*
Y293504*
X322961*
Y423819D02*
Y431693D01*
X338709*
Y423819*
X322961*
X342646Y142717D02*
Y150591D01*
X358394*
Y142717*
X342646*
Y293504D02*
Y301378D01*
X358394*
Y293504*
X342646*
Y423819D02*
Y431693D01*
X358394*
Y423819*
X342646*
X362331Y142717D02*
Y150591D01*
X378079*
Y142717*
X362331*
Y293504D02*
Y301378D01*
X378079*
Y293504*
X362331*
Y423819D02*
Y431693D01*
X378079*
Y423819*
X362331*
X381819D02*
Y431693D01*
X397567*
Y423819*
X381819*
X382016Y142717D02*
Y150591D01*
X397764*
Y142717*
X382016*
Y293504D02*
Y301378D01*
X397764*
Y293504*
X382016*
X401701D02*
Y301378D01*
X417449*
Y293504*
X401701*
Y423819D02*
Y431693D01*
X417449*
Y423819*
X401701*
X403472Y14764D02*
X411346D01*
Y2165*
X403472*
Y14764*
Y290157D02*
X411346D01*
Y274409*
X403472*
Y290157*
X403669Y34252D02*
X411543D01*
Y18504*
X403669*
Y34252*
Y53937D02*
X411543D01*
Y38189*
X403669*
Y53937*
Y73622D02*
X411543D01*
Y57874*
X403669*
Y73622*
Y93504D02*
X411543D01*
Y77756*
X403669*
Y93504*
Y112992D02*
X411543D01*
Y97244*
X403669*
Y112992*
Y132677D02*
X411543D01*
Y116929*
X403669*
Y132677*
Y152362D02*
X411543D01*
Y136614*
X403669*
Y152362*
Y172047D02*
X411543D01*
Y156299*
X403669*
Y172047*
Y191929D02*
X411543D01*
Y176181*
X403669*
Y191929*
Y211417D02*
X411543D01*
Y195669*
X403669*
Y211417*
Y231102D02*
X411543D01*
Y215354*
X403669*
Y231102*
Y250787D02*
X411543D01*
Y235039*
X403669*
Y250787*
Y270472D02*
X411543D01*
Y254724*
X403669*
Y270472*
X415480Y89173D02*
Y97047D01*
X431228*
Y89173*
X415480*
X421189Y423819D02*
Y431693D01*
X436937*
Y423819*
X421189*
X421386Y293504D02*
Y301378D01*
X437134*
Y293504*
X421386*
X435165Y89173D02*
Y97047D01*
X450913*
Y89173*
X435165*
X441071Y293504D02*
Y301378D01*
X456819*
Y293504*
X441071*
Y423819D02*
Y431693D01*
X456819*
Y423819*
X441071*
X454850Y89173D02*
Y97047D01*
X470598*
Y89173*
X454850*
X460559Y423819D02*
Y431693D01*
X476307*
Y423819*
X460559*
X460756Y293504D02*
Y301378D01*
X476504*
Y293504*
X460756*
X466858Y435630D02*
X458984D01*
Y451378*
X466858*
Y435630*
Y455315D02*
X458984D01*
Y471063*
X466858*
Y455315*
Y475000D02*
X458984D01*
Y490748*
X466858*
Y475000*
Y494685D02*
X458984D01*
Y510433*
X466858*
Y494685*
Y514370D02*
X458984D01*
Y530118*
X466858*
Y514370*
Y534055D02*
X458984D01*
Y549803*
X466858*
Y534055*
X474535Y89173D02*
Y97047D01*
X490283*
Y89173*
X474535*
X480441Y293504D02*
Y301378D01*
X501307*
Y293504*
X480441*
Y423819D02*
Y431693D01*
X502882*
Y423819*
X480441*
X494220Y89173D02*
Y97047D01*
X509969*
Y89173*
X494220*
X502488Y112992D02*
X510362D01*
Y97244*
X502488*
Y112992*
Y132677D02*
X510362D01*
Y116929*
X502488*
Y132677*
Y152362D02*
X510362D01*
Y136614*
X502488*
Y152362*
Y172047D02*
X510362D01*
Y156299*
X502488*
Y172047*
Y191732D02*
X510362D01*
Y175984*
X502488*
Y191732*
Y211417D02*
X510362D01*
Y195669*
X502488*
Y211417*
X513906Y89173D02*
Y97047D01*
X529654*
Y89173*
X513906*
X533591D02*
Y97047D01*
X549339*
Y89173*
X533591*
X553276D02*
Y97047D01*
X569024*
Y89173*
X553276*
D02*
D70*
X513906Y553740D02*
X8000D01*
Y20669*
X158787*
Y591*
X569024*
Y213189*
X507606*
Y432087*
X513906*
Y553740*
X0Y0D02*
M02*
