G04 DesignSpark PCB Gerber Version 9.0 Build 5115 *
G04 #@! TF.Part,Single*
G04 #@! TF.FileFunction,Copper,L2,Bot *
G04 #@! TF.FilePolarity,Positive *
%FSLAX35Y35*%
%MOIN*%
G04 #@! TA.AperFunction,ComponentPad*
%ADD73O,0.06000X0.11000*%
%ADD80R,0.06000X0.06000*%
G04 #@! TD.AperFunction*
%ADD10C,0.00394*%
%ADD12C,0.01000*%
%ADD14C,0.01969*%
%ADD15C,0.02953*%
G04 #@! TA.AperFunction,ViaPad*
%ADD17C,0.03346*%
G04 #@! TD.AperFunction*
%ADD16C,0.03937*%
G04 #@! TA.AperFunction,ViaPad*
%ADD18C,0.04000*%
G04 #@! TA.AperFunction,ComponentPad*
%ADD26C,0.07874*%
%ADD82O,0.11000X0.06000*%
%ADD25C,0.17717*%
X0Y0D02*
D02*
D10*
X9772Y293504D02*
Y139961D01*
X149603*
G75*
G02X150717Y140354I1113J-1378*
G01*
X158591*
G75*
G02X159704Y139961J-1772*
G01*
X160756*
Y140945*
X145795*
G75*
G02X144024Y142717J1772*
G01*
Y150591*
G75*
G02X145795Y152362I1772*
G01*
X160756*
Y291732*
X159507*
G75*
G02X160165Y290354I-1113J-1378*
G01*
Y274606*
G75*
G02X158394Y272835I-1772*
G01*
X150520*
G75*
G02X148748Y274606J1772*
G01*
Y290354*
G75*
G02X149406Y291732I1772*
G01*
X145795*
G75*
G02X144024Y293504J1772*
G01*
Y301378*
G75*
G02X145795Y303150I1772*
G01*
X160756*
Y303740*
X9772*
Y301378*
G75*
G02X11543Y303150I1772*
G01*
X23748*
G75*
G02X25520Y301378J-1772*
G01*
Y293504*
G75*
G02X23748Y291732I-1772*
G01*
X11543*
G75*
G02X9772Y293504J1772*
G01*
X43236Y303150D02*
G75*
G02X45008Y301378J-1772D01*
G01*
Y293504*
G75*
G02X43236Y291732I-1772*
G01*
X27488*
G75*
G02X25717Y293504J1772*
G01*
Y301378*
G75*
G02X27488Y303150I1772*
G01*
X43236*
X43433Y152362D02*
G75*
G02X45205Y150591J-1772D01*
G01*
Y142717*
G75*
G02X43433Y140945I-1772*
G01*
X27685*
G75*
G02X25913Y142717J1772*
G01*
Y150591*
G75*
G02X27685Y152362I1772*
G01*
X43433*
X63118Y303150D02*
G75*
G02X64890Y301378J-1772D01*
G01*
Y293504*
G75*
G02X63118Y291732I-1772*
G01*
X47370*
G75*
G02X45598Y293504J1772*
G01*
Y301378*
G75*
G02X47370Y303150I1772*
G01*
X63118*
X123580Y218949D02*
G75*
G02X124104Y217323I-2264J-1626D01*
G01*
G75*
G02X118529I-2787*
G01*
G75*
G02X119052Y218949I2787*
G01*
Y220982*
X116638Y223397*
G75*
G02X115972Y225000I1599J1603*
G01*
Y236464*
X110606Y241831*
X107606*
G75*
G02X106003Y242496J2264*
G01*
X104791Y243709*
X103248*
G75*
G02X99996I-1626J2264*
G01*
X98414*
X96611Y241906*
G75*
G02X95008Y241240I-1603J1599*
G01*
X66071*
G75*
G02X64470Y241903J2264*
G01*
X62504Y243869*
G75*
G02X61839Y245472I1599J1603*
G01*
Y263629*
X58685Y266783*
G75*
G02X58020Y268386I1599J1603*
G01*
Y271787*
G75*
G02X56496Y274823I2264J3036*
G01*
Y279823*
G75*
G02X64071I3787*
G01*
Y274823*
G75*
G02X62547Y271787I-3787*
G01*
Y269324*
X65701Y266170*
G75*
G02X66366Y264567I-1599J-1603*
G01*
Y246410*
X67009Y245768*
X94070*
X95873Y247571*
G75*
G02X97476Y248236I1603J-1599*
G01*
X99996*
G75*
G02X103248I1626J-2264*
G01*
X105728*
G75*
G02X107331Y247571J-2264*
G01*
X108544Y246358*
X111543*
G75*
G02X113146Y245693J-2264*
G01*
X119835Y239005*
G75*
G02X120500Y237402I-1599J-1603*
G01*
Y225938*
X122915Y223523*
G75*
G02X123580Y221920I-1599J-1603*
G01*
Y218949*
X122173Y152362D02*
G75*
G02X123945Y150591J-1772D01*
G01*
Y142717*
G75*
G02X122173Y140945I-1772*
G01*
X106425*
G75*
G02X104654Y142717J1772*
G01*
Y150591*
G75*
G02X106425Y152362I1772*
G01*
X122173*
X102488D02*
G75*
G02X104260Y150591J-1772D01*
G01*
Y142717*
G75*
G02X102488Y140945I-1772*
G01*
X86740*
G75*
G02X84969Y142717J1772*
G01*
Y150591*
G75*
G02X86740Y152362I1772*
G01*
X102488*
X82606D02*
G75*
G02X84378Y150591J-1772D01*
G01*
Y142717*
G75*
G02X82606Y140945I-1772*
G01*
X66858*
G75*
G02X65087Y142717J1772*
G01*
Y150591*
G75*
G02X66858Y152362I1772*
G01*
X82606*
X63118D02*
G75*
G02X64890Y150591J-1772D01*
G01*
Y142717*
G75*
G02X63118Y140945I-1772*
G01*
X48157*
G75*
G02X46386Y142717J1772*
G01*
Y150591*
G75*
G02X48157Y152362I1772*
G01*
X63118*
X82803Y303150D02*
G75*
G02X84575Y301378J-1772D01*
G01*
Y293504*
G75*
G02X82803Y291732I-1772*
G01*
X67055*
G75*
G02X65283Y293504J1772*
G01*
Y301378*
G75*
G02X67055Y303150I1772*
G01*
X82803*
X76496Y279823D02*
G75*
G02X84071I3787D01*
G01*
Y274823*
G75*
G02X76496I-3787*
G01*
Y279823*
X66496D02*
G75*
G02X74071I3787D01*
G01*
Y274823*
G75*
G02X66496I-3787*
G01*
Y279823*
X102488Y303150D02*
G75*
G02X104260Y301378J-1772D01*
G01*
Y293504*
G75*
G02X102488Y291732I-1772*
G01*
X86740*
G75*
G02X84969Y293504J1772*
G01*
Y301378*
G75*
G02X86740Y303150I1772*
G01*
X102488*
X96496Y279823D02*
G75*
G02X104071I3787D01*
G01*
Y274823*
G75*
G02X96496I-3787*
G01*
Y279823*
X86496D02*
G75*
G02X94071I3787D01*
G01*
Y274823*
G75*
G02X86496I-3787*
G01*
Y279823*
X121976Y303150D02*
G75*
G02X123748Y301378J-1772D01*
G01*
Y293504*
G75*
G02X121976Y291732I-1772*
G01*
X106228*
G75*
G02X104457Y293504J1772*
G01*
Y301378*
G75*
G02X106228Y303150I1772*
G01*
X121976*
X141858D02*
G75*
G02X143630Y301378J-1772D01*
G01*
Y293504*
G75*
G02X141858Y291732I-1772*
G01*
X126110*
G75*
G02X124339Y293504J1772*
G01*
Y301378*
G75*
G02X126110Y303150I1772*
G01*
X141858*
X142055Y152362D02*
G75*
G02X143827Y150591J-1772D01*
G01*
Y142717*
G75*
G02X142055Y140945I-1772*
G01*
X126307*
G75*
G02X124535Y142717J1772*
G01*
Y150591*
G75*
G02X126307Y152362I1772*
G01*
X142055*
X23945Y152559D02*
G75*
G02X25717Y150787J-1772D01*
G01*
Y142913*
G75*
G02X23945Y141142I-1772*
G01*
X13118*
G75*
G02X11346Y142913J1772*
G01*
Y150787*
G75*
G02X13118Y152559I1772*
G01*
X23945*
X158394Y173819D02*
G75*
G02X160165Y172047J-1772D01*
G01*
Y156299*
G75*
G02X158394Y154528I-1772*
G01*
X150520*
G75*
G02X148748Y156299J1772*
G01*
Y172047*
G75*
G02X150520Y173819I1772*
G01*
X158394*
Y193504D02*
G75*
G02X160165Y191732J-1772D01*
G01*
Y175984*
G75*
G02X158394Y174213I-1772*
G01*
X150520*
G75*
G02X148748Y175984J1772*
G01*
Y191732*
G75*
G02X150520Y193504I1772*
G01*
X158394*
Y213189D02*
G75*
G02X160165Y211417J-1772D01*
G01*
Y195669*
G75*
G02X158394Y193898I-1772*
G01*
X150520*
G75*
G02X148748Y195669J1772*
G01*
Y211417*
G75*
G02X150520Y213189I1772*
G01*
X158394*
Y232874D02*
G75*
G02X160165Y231102J-1772D01*
G01*
Y215354*
G75*
G02X158394Y213583I-1772*
G01*
X150520*
G75*
G02X148748Y215354J1772*
G01*
Y231102*
G75*
G02X150520Y232874I1772*
G01*
X158394*
Y252559D02*
G75*
G02X160165Y250787J-1772D01*
G01*
Y235039*
G75*
G02X158394Y233268I-1772*
G01*
X150520*
G75*
G02X148748Y235039J1772*
G01*
Y250787*
G75*
G02X150520Y252559I1772*
G01*
X158394*
Y272244D02*
G75*
G02X160165Y270472J-1772D01*
G01*
Y254724*
G75*
G02X158394Y252953I-1772*
G01*
X150520*
G75*
G02X148748Y254724J1772*
G01*
Y270472*
G75*
G02X150520Y272244I1772*
G01*
X158394*
X9969Y146654D02*
G36*
Y140157D01*
X149956*
X150126Y140253*
X150717Y140354*
X158591*
X159181Y140253*
X159352Y140157*
X160559*
Y140945*
X145795*
X145117Y141080*
X144543Y141464*
X144159Y142039*
X144024Y142717*
Y146654*
X143827*
Y142717*
G75*
G02X142055Y140945I-1772*
G01*
X126307*
G75*
G02X124535Y142717J1772*
G01*
Y146654*
X123945*
Y142717*
G75*
G02X122173Y140945I-1772*
G01*
X106425*
G75*
G02X104654Y142717J1772*
G01*
Y146654*
X104260*
Y142717*
G75*
G02X102488Y140945I-1772*
G01*
X86740*
G75*
G02X84969Y142717J1772*
G01*
Y146654*
X84378*
Y142717*
G75*
G02X82606Y140945I-1772*
G01*
X66858*
G75*
G02X65087Y142717J1772*
G01*
Y146654*
X64890*
Y142717*
G75*
G02X63118Y140945I-1772*
G01*
X48157*
G75*
G02X46386Y142717J1772*
G01*
Y146654*
X45205*
Y142717*
G75*
G02X43433Y140945I-1772*
G01*
X27685*
G75*
G02X25913Y142717J1772*
G01*
Y146654*
X25717*
Y142913*
G75*
G02X23945Y141142I-1772*
G01*
X13118*
G75*
G02X11346Y142913J1772*
G01*
Y146654*
X9969*
G37*
Y164173D02*
G36*
Y146654D01*
X11346*
Y150787*
G75*
G02X13118Y152559I1772*
G01*
X23945*
G75*
G02X25717Y150787J-1772*
G01*
Y146654*
X25913*
Y150591*
G75*
G02X27685Y152362I1772*
G01*
X43433*
G75*
G02X45205Y150591J-1772*
G01*
Y146654*
X46386*
Y150591*
G75*
G02X48157Y152362I1772*
G01*
X63118*
G75*
G02X64890Y150591J-1772*
G01*
Y146654*
X65087*
Y150591*
G75*
G02X66858Y152362I1772*
G01*
X82606*
G75*
G02X84378Y150591J-1772*
G01*
Y146654*
X84969*
Y150591*
G75*
G02X86740Y152362I1772*
G01*
X102488*
G75*
G02X104260Y150591J-1772*
G01*
Y146654*
X104654*
Y150591*
G75*
G02X106425Y152362I1772*
G01*
X122173*
G75*
G02X123945Y150591J-1772*
G01*
Y146654*
X124535*
Y150591*
G75*
G02X126307Y152362I1772*
G01*
X142055*
G75*
G02X143827Y150591J-1772*
G01*
Y146654*
X144024*
Y150591*
X144159Y151269*
X144543Y151843*
X145117Y152227*
X145795Y152362*
X160559*
Y164173*
X160165*
Y156299*
G75*
G02X158394Y154528I-1772*
G01*
X150520*
G75*
G02X148748Y156299J1772*
G01*
Y164173*
X9969*
G37*
Y183858D02*
G36*
Y164173D01*
X148748*
Y172047*
G75*
G02X150520Y173819I1772*
G01*
X158394*
G75*
G02X160165Y172047J-1772*
G01*
Y164173*
X160559*
Y183858*
X160165*
Y175984*
G75*
G02X158394Y174213I-1772*
G01*
X150520*
G75*
G02X148748Y175984J1772*
G01*
Y183858*
X9969*
G37*
Y203543D02*
G36*
Y183858D01*
X148748*
Y191732*
G75*
G02X150520Y193504I1772*
G01*
X158394*
G75*
G02X160165Y191732J-1772*
G01*
Y183858*
X160559*
Y203543*
X160165*
Y195669*
G75*
G02X158394Y193898I-1772*
G01*
X150520*
G75*
G02X148748Y195669J1772*
G01*
Y203543*
X9969*
G37*
Y223228D02*
G36*
Y203543D01*
X148748*
Y211417*
G75*
G02X150520Y213189I1772*
G01*
X158394*
G75*
G02X160165Y211417J-1772*
G01*
Y203543*
X160559*
Y223228*
X160165*
Y215354*
G75*
G02X158394Y213583I-1772*
G01*
X150520*
G75*
G02X148748Y215354J1772*
G01*
Y223228*
X123164*
G75*
G02X123580Y221920I-1847J-1308*
G01*
Y221920*
Y218949*
G75*
G02X124104Y217323I-2266J-1627*
G01*
G75*
G02X118529I-2787*
G01*
G75*
G02X119052Y218949I2790J-1*
G01*
Y220982*
X116806Y223228*
X9969*
G37*
Y249073D02*
G36*
Y223228D01*
X116806*
X116638Y223397*
G75*
G02X115972Y225000I1598J1603*
G01*
Y225000*
Y236464*
X110606Y241831*
X107606*
G75*
G02X106003Y242496I0J2263*
G01*
X104791Y243709*
X103248*
G75*
G02X99996I-1626J2264*
G01*
X98414*
X96611Y241906*
G75*
G02X95008Y241240I-1603J1598*
G01*
X66071*
G75*
G02X64470Y241903I1J2267*
G01*
X62504Y243869*
G75*
G02X61839Y245472I1598J1603*
G01*
Y245472*
Y249073*
X9969*
G37*
X66366D02*
G36*
Y246410D01*
X67009Y245768*
X94070*
X95873Y247571*
G75*
G02X97476Y248236I1603J-1598*
G01*
X99996*
G75*
G02X103248I1626J-2264*
G01*
X105728*
G75*
G02X107331Y247571I0J-2263*
G01*
X108544Y246358*
X111543*
G75*
G02X113146Y245693I0J-2263*
G01*
X119835Y239005*
G75*
G02X120500Y237402I-1598J-1603*
G01*
Y237402*
Y225938*
X122915Y223523*
G75*
G02X123164Y223228I-1598J-1604*
G01*
X148748*
Y231102*
G75*
G02X150520Y232874I1772*
G01*
X158394*
G75*
G02X160165Y231102J-1772*
G01*
Y223228*
X160559*
Y249073*
X160165*
Y235039*
G75*
G02X158394Y233268I-1772*
G01*
X150520*
G75*
G02X148748Y235039J1772*
G01*
Y249073*
X66366*
G37*
X9969Y262598D02*
G36*
Y249073D01*
X61839*
Y262598*
X9969*
G37*
X66366D02*
G36*
Y249073D01*
X148748*
Y250787*
G75*
G02X150520Y252559I1772*
G01*
X158394*
G75*
G02X160165Y250787J-1772*
G01*
Y249073*
X160559*
Y262598*
X160165*
Y254724*
G75*
G02X158394Y252953I-1772*
G01*
X150520*
G75*
G02X148748Y254724J1772*
G01*
Y262598*
X66366*
G37*
X9969Y277323D02*
G36*
Y262598D01*
X61839*
Y263629*
X58685Y266783*
G75*
G02X58020Y268385I1598J1603*
G01*
Y268386*
Y271787*
G75*
G02X56496Y274823I2265J3037*
G01*
Y277323*
X9969*
G37*
X62547Y271787D02*
G36*
Y269324D01*
X65701Y266170*
G75*
G02X66366Y264567I-1598J-1603*
G01*
Y264567*
Y262598*
X148748*
Y270472*
G75*
G02X150520Y272244I1772*
G01*
X158394*
G75*
G02X160165Y270472J-1772*
G01*
Y262598*
X160559*
Y277323*
X160165*
Y274606*
X160030Y273928*
X159646Y273354*
X159072Y272970*
X158394Y272835*
X150520*
X149842Y272970*
X149267Y273354*
X148883Y273928*
X148748Y274606*
Y277323*
X104071*
Y274823*
G75*
G02X96496I-3787*
G01*
Y277323*
X94071*
Y274823*
G75*
G02X86496I-3787*
G01*
Y277323*
X84071*
Y274823*
G75*
G02X76496I-3787*
G01*
Y277323*
X74071*
Y274823*
G75*
G02X66496I-3787*
G01*
Y277323*
X64071*
Y274823*
G75*
G02X62547Y271787I-3788J0*
G01*
G37*
X9969Y292733D02*
G36*
Y277323D01*
X56496*
Y279823*
G75*
G02X64071I3787*
G01*
Y277323*
X66496*
Y279823*
G75*
G02X74071I3787*
G01*
Y277323*
X76496*
Y279823*
G75*
G02X84071I3787*
G01*
Y277323*
X86496*
Y279823*
G75*
G02X94071I3787*
G01*
Y277323*
X96496*
Y279823*
G75*
G02X104071I3787*
G01*
Y277323*
X148748*
Y290354*
X148826Y290873*
X149052Y291346*
X149406Y291732*
X145795*
X145117Y291867*
X144543Y292251*
X144159Y292826*
X144024Y293504*
Y297441*
X143630*
Y293504*
G75*
G02X141858Y291732I-1772*
G01*
X126110*
G75*
G02X124339Y293504J1772*
G01*
Y297441*
X123748*
Y293504*
G75*
G02X121976Y291732I-1772*
G01*
X106228*
G75*
G02X104457Y293504J1772*
G01*
Y297441*
X104260*
Y293504*
G75*
G02X102488Y291732I-1772*
G01*
X86740*
G75*
G02X84969Y293504J1772*
G01*
Y297441*
X84575*
Y293504*
G75*
G02X82803Y291732I-1772*
G01*
X67055*
G75*
G02X65283Y293504J1772*
G01*
Y297441*
X64890*
Y293504*
G75*
G02X63118Y291732I-1772*
G01*
X47370*
G75*
G02X45598Y293504J1772*
G01*
Y297441*
X45008*
Y293504*
G75*
G02X43236Y291732I-1772*
G01*
X27488*
G75*
G02X25717Y293504J1772*
G01*
Y297441*
X25520*
Y293504*
X25385Y292826*
X25001Y292251*
X24426Y291867*
X23748Y291732*
X11543*
X10865Y291867*
X10291Y292251*
X9969Y292733*
G37*
X159507Y291732D02*
G36*
X159862Y291346D01*
X160088Y290873*
X160165Y290354*
Y277323*
X160559*
Y291732*
X159507*
G37*
X9969Y303543D02*
G36*
Y302148D01*
X10291Y302631*
X10865Y303015*
X11543Y303150*
X23748*
X24426Y303015*
X25001Y302631*
X25385Y302056*
X25520Y301378*
Y297441*
X25717*
Y301378*
G75*
G02X27488Y303150I1772*
G01*
X43236*
G75*
G02X45008Y301378J-1772*
G01*
Y297441*
X45598*
Y301378*
G75*
G02X47370Y303150I1772*
G01*
X63118*
G75*
G02X64890Y301378J-1772*
G01*
Y297441*
X65283*
Y301378*
G75*
G02X67055Y303150I1772*
G01*
X82803*
G75*
G02X84575Y301378J-1772*
G01*
Y297441*
X84969*
Y301378*
G75*
G02X86740Y303150I1772*
G01*
X102488*
G75*
G02X104260Y301378J-1772*
G01*
Y297441*
X104457*
Y301378*
G75*
G02X106228Y303150I1772*
G01*
X121976*
G75*
G02X123748Y301378J-1772*
G01*
Y297441*
X124339*
Y301378*
G75*
G02X126110Y303150I1772*
G01*
X141858*
G75*
G02X143630Y301378J-1772*
G01*
Y297441*
X144024*
Y301378*
X144159Y302056*
X144543Y302631*
X145117Y303015*
X145795Y303150*
X160559*
Y303543*
X9969*
G37*
X9772Y350787D02*
Y303543D01*
X63118*
Y421654*
X9772*
Y374409*
X39496*
Y350787*
X9772*
X61150Y323031D02*
G75*
G02X62921Y321260J-1772D01*
G01*
Y305512*
G75*
G02X61150Y303740I-1772*
G01*
X53276*
G75*
G02X51504Y305512J1772*
G01*
Y321260*
G75*
G02X53276Y323031I1772*
G01*
X61150*
Y342717D02*
G75*
G02X62921Y340945J-1772D01*
G01*
Y325197*
G75*
G02X61150Y323425I-1772*
G01*
X53276*
G75*
G02X51504Y325197J1772*
G01*
Y340945*
G75*
G02X53276Y342717I1772*
G01*
X61150*
Y362402D02*
G75*
G02X62921Y360630J-1772D01*
G01*
Y344882*
G75*
G02X61150Y343110I-1772*
G01*
X53276*
G75*
G02X51504Y344882J1772*
G01*
Y360630*
G75*
G02X53276Y362402I1772*
G01*
X61150*
Y382087D02*
G75*
G02X62921Y380315J-1772D01*
G01*
Y364567*
G75*
G02X61150Y362795I-1772*
G01*
X53276*
G75*
G02X51504Y364567J1772*
G01*
Y380315*
G75*
G02X53276Y382087I1772*
G01*
X61150*
Y401772D02*
G75*
G02X62921Y400000J-1772D01*
G01*
Y384252*
G75*
G02X61150Y382480I-1772*
G01*
X53276*
G75*
G02X51504Y384252J1772*
G01*
Y400000*
G75*
G02X53276Y401772I1772*
G01*
X61150*
Y421457D02*
G75*
G02X62921Y419685J-1772D01*
G01*
Y403937*
G75*
G02X61150Y402165I-1772*
G01*
X53276*
G75*
G02X51504Y403937J1772*
G01*
Y419685*
G75*
G02X53276Y421457I1772*
G01*
X61150*
X9969Y313386D02*
G36*
Y303740D01*
X53276*
G75*
G02X51504Y305512J1772*
G01*
Y313386*
X9969*
G37*
X61150Y303740D02*
G36*
X62921D01*
Y305512*
G75*
G02X61150Y303740I-1772*
G01*
G37*
X9969Y333071D02*
G36*
Y313386D01*
X51504*
Y321260*
G75*
G02X53276Y323031I1772*
G01*
X61150*
G75*
G02X62921Y321260J-1772*
G01*
Y325197*
G75*
G02X61150Y323425I-1772*
G01*
X53276*
G75*
G02X51504Y325197J1772*
G01*
Y333071*
X9969*
G37*
Y350787D02*
G36*
Y333071D01*
X51504*
Y340945*
G75*
G02X53276Y342717I1772*
G01*
X61150*
G75*
G02X62921Y340945J-1772*
G01*
Y344882*
G75*
G02X61150Y343110I-1772*
G01*
X53276*
G75*
G02X51504Y344882J1772*
G01*
Y352756*
X39496*
Y350787*
X9969*
G37*
X39496Y372441D02*
G36*
Y352756D01*
X51504*
Y360630*
G75*
G02X53276Y362402I1772*
G01*
X61150*
G75*
G02X62921Y360630J-1772*
G01*
Y364567*
G75*
G02X61150Y362795I-1772*
G01*
X53276*
G75*
G02X51504Y364567J1772*
G01*
Y372441*
X39496*
G37*
X9969Y392126D02*
G36*
Y374409D01*
X39496*
Y372441*
X51504*
Y380315*
G75*
G02X53276Y382087I1772*
G01*
X61150*
G75*
G02X62921Y380315J-1772*
G01*
Y384252*
G75*
G02X61150Y382480I-1772*
G01*
X53276*
G75*
G02X51504Y384252J1772*
G01*
Y392126*
X9969*
G37*
Y411811D02*
G36*
Y392126D01*
X51504*
Y400000*
G75*
G02X53276Y401772I1772*
G01*
X61150*
G75*
G02X62921Y400000J-1772*
G01*
Y403937*
G75*
G02X61150Y402165I-1772*
G01*
X53276*
G75*
G02X51504Y403937J1772*
G01*
Y411811*
X9969*
G37*
Y421457D02*
G36*
Y411811D01*
X51504*
Y419685*
G75*
G02X53276Y421457I1772*
G01*
X9969*
G37*
X61150D02*
G36*
G75*
G02X62921Y419685J-1772D01*
G01*
Y421457*
X61150*
G37*
X9969Y434449D02*
Y421457D01*
X255115*
G75*
G02X256228Y421850I1113J-1378*
G01*
X264102*
G75*
G02X265216Y421457J-1772*
G01*
X505835*
Y432087*
G75*
G02X506425Y433407I1772*
G01*
Y434449*
X468179*
G75*
G02X466858Y433858I-1320J1181*
G01*
X458984*
G75*
G02X457664Y434449J1772*
G01*
X320541*
G75*
G02X319220Y433858I-1320J1181*
G01*
X311346*
G75*
G02X310026Y434449J1772*
G01*
X212076*
G75*
G02X210756Y433858I-1320J1181*
G01*
X202882*
G75*
G02X201561Y434449J1772*
G01*
X64439*
G75*
G02X63118Y433858I-1320J1181*
G01*
X55244*
G75*
G02X53924Y434449J1772*
G01*
X9969*
X502882Y433465D02*
G75*
G02X504654Y431693J-1772D01*
G01*
Y423819*
G75*
G02X502882Y422047I-1772*
G01*
X480441*
G75*
G02X478669Y423819J1772*
G01*
Y431693*
G75*
G02X480441Y433465I1772*
G01*
X502882*
X476307D02*
G75*
G02X478079Y431693J-1772D01*
G01*
Y423819*
G75*
G02X476307Y422047I-1772*
G01*
X460559*
G75*
G02X458787Y423819J1772*
G01*
Y431693*
G75*
G02X460559Y433465I1772*
G01*
X476307*
X338709D02*
G75*
G02X340480Y431693J-1772D01*
G01*
Y423819*
G75*
G02X338709Y422047I-1772*
G01*
X322961*
G75*
G02X321189Y423819J1772*
G01*
Y431693*
G75*
G02X322961Y433465I1772*
G01*
X338709*
X358394D02*
G75*
G02X360165Y431693J-1772D01*
G01*
Y423819*
G75*
G02X358394Y422047I-1772*
G01*
X342646*
G75*
G02X340874Y423819J1772*
G01*
Y431693*
G75*
G02X342646Y433465I1772*
G01*
X358394*
X378079D02*
G75*
G02X379850Y431693J-1772D01*
G01*
Y423819*
G75*
G02X378079Y422047I-1772*
G01*
X362331*
G75*
G02X360559Y423819J1772*
G01*
Y431693*
G75*
G02X362331Y433465I1772*
G01*
X378079*
X397567D02*
G75*
G02X399339Y431693J-1772D01*
G01*
Y423819*
G75*
G02X397567Y422047I-1772*
G01*
X381819*
G75*
G02X380047Y423819J1772*
G01*
Y431693*
G75*
G02X381819Y433465I1772*
G01*
X397567*
X417449D02*
G75*
G02X419220Y431693J-1772D01*
G01*
Y423819*
G75*
G02X417449Y422047I-1772*
G01*
X401701*
G75*
G02X399929Y423819J1772*
G01*
Y431693*
G75*
G02X401701Y433465I1772*
G01*
X417449*
X436937D02*
G75*
G02X438709Y431693J-1772D01*
G01*
Y423819*
G75*
G02X436937Y422047I-1772*
G01*
X421189*
G75*
G02X419417Y423819J1772*
G01*
Y431693*
G75*
G02X421189Y433465I1772*
G01*
X436937*
X456819D02*
G75*
G02X458591Y431693J-1772D01*
G01*
Y423819*
G75*
G02X456819Y422047I-1772*
G01*
X441071*
G75*
G02X439299Y423819J1772*
G01*
Y431693*
G75*
G02X441071Y433465I1772*
G01*
X456819*
X240283D02*
G75*
G02X242055Y431693J-1772D01*
G01*
Y423819*
G75*
G02X240283Y422047I-1772*
G01*
X224535*
G75*
G02X222764Y423819J1772*
G01*
Y431693*
G75*
G02X224535Y433465I1772*
G01*
X240283*
X259969D02*
G75*
G02X261740Y431693J-1772D01*
G01*
Y423819*
G75*
G02X259969Y422047I-1772*
G01*
X244220*
G75*
G02X242449Y423819J1772*
G01*
Y431693*
G75*
G02X244220Y433465I1772*
G01*
X259969*
X279850D02*
G75*
G02X281622Y431693J-1772D01*
G01*
Y423819*
G75*
G02X279850Y422047I-1772*
G01*
X264102*
G75*
G02X262331Y423819J1772*
G01*
Y431693*
G75*
G02X264102Y433465I1772*
G01*
X279850*
X299339D02*
G75*
G02X301110Y431693J-1772D01*
G01*
Y423819*
G75*
G02X299339Y422047I-1772*
G01*
X283591*
G75*
G02X281819Y423819J1772*
G01*
Y431693*
G75*
G02X283591Y433465I1772*
G01*
X299339*
X319220D02*
G75*
G02X320992Y431693J-1772D01*
G01*
Y423819*
G75*
G02X319220Y422047I-1772*
G01*
X303472*
G75*
G02X301701Y423819J1772*
G01*
Y431693*
G75*
G02X303472Y433465I1772*
G01*
X319220*
X220598D02*
G75*
G02X222370Y431693J-1772D01*
G01*
Y423819*
G75*
G02X220598Y422047I-1772*
G01*
X204850*
G75*
G02X203079Y423819J1772*
G01*
Y431693*
G75*
G02X204850Y433465I1772*
G01*
X220598*
X82803D02*
G75*
G02X84575Y431693J-1772D01*
G01*
Y423819*
G75*
G02X82803Y422047I-1772*
G01*
X67055*
G75*
G02X65283Y423819J1772*
G01*
Y431693*
G75*
G02X67055Y433465I1772*
G01*
X82803*
X102685D02*
G75*
G02X104457Y431693J-1772D01*
G01*
Y423819*
G75*
G02X102685Y422047I-1772*
G01*
X86937*
G75*
G02X85165Y423819J1772*
G01*
Y431693*
G75*
G02X86937Y433465I1772*
G01*
X102685*
X122173D02*
G75*
G02X123945Y431693J-1772D01*
G01*
Y423819*
G75*
G02X122173Y422047I-1772*
G01*
X106425*
G75*
G02X104654Y423819J1772*
G01*
Y431693*
G75*
G02X106425Y433465I1772*
G01*
X122173*
X141858D02*
G75*
G02X143630Y431693J-1772D01*
G01*
Y423819*
G75*
G02X141858Y422047I-1772*
G01*
X126110*
G75*
G02X124339Y423819J1772*
G01*
Y431693*
G75*
G02X126110Y433465I1772*
G01*
X141858*
X161543D02*
G75*
G02X163315Y431693J-1772D01*
G01*
Y423819*
G75*
G02X161543Y422047I-1772*
G01*
X145795*
G75*
G02X144024Y423819J1772*
G01*
Y431693*
G75*
G02X145795Y433465I1772*
G01*
X161543*
X181425D02*
G75*
G02X183197Y431693J-1772D01*
G01*
Y423819*
G75*
G02X181425Y422047I-1772*
G01*
X165677*
G75*
G02X163906Y423819J1772*
G01*
Y431693*
G75*
G02X165677Y433465I1772*
G01*
X181425*
X201110D02*
G75*
G02X202882Y431693J-1772D01*
G01*
Y423819*
G75*
G02X201110Y422047I-1772*
G01*
X185362*
G75*
G02X183591Y423819J1772*
G01*
Y431693*
G75*
G02X185362Y433465I1772*
G01*
X201110*
X23748D02*
G75*
G02X25520Y431693J-1772D01*
G01*
Y423819*
G75*
G02X23748Y422047I-1772*
G01*
X12331*
G75*
G02X10559Y423819J1772*
G01*
Y431693*
G75*
G02X12331Y433465I1772*
G01*
X23748*
X43630D02*
G75*
G02X45402Y431693J-1772D01*
G01*
Y423819*
G75*
G02X43630Y422047I-1772*
G01*
X27882*
G75*
G02X26110Y423819J1772*
G01*
Y431693*
G75*
G02X27882Y433465I1772*
G01*
X43630*
X63315Y433268D02*
G75*
G02X65087Y431496J-1772D01*
G01*
Y423622*
G75*
G02X63315Y421850I-1772*
G01*
X47567*
G75*
G02X45795Y423622J1772*
G01*
Y431496*
G75*
G02X47567Y433268I1772*
G01*
X63315*
X10165Y427756D02*
G36*
Y421654D01*
X255417*
G75*
G02X256228Y421850I811J-1572*
G01*
X264102*
G75*
G02X264914Y421654I1J-1769*
G01*
X505835*
Y427756*
X504654*
Y423819*
G75*
G02X502882Y422047I-1772*
G01*
X480441*
G75*
G02X478669Y423819J1772*
G01*
Y427756*
X478079*
Y423819*
G75*
G02X476307Y422047I-1772*
G01*
X460559*
G75*
G02X458787Y423819J1772*
G01*
Y427756*
X458591*
Y423819*
G75*
G02X456819Y422047I-1772*
G01*
X441071*
G75*
G02X439299Y423819J1772*
G01*
Y427756*
X438709*
Y423819*
G75*
G02X436937Y422047I-1772*
G01*
X421189*
G75*
G02X419417Y423819J1772*
G01*
Y427756*
X419220*
Y423819*
G75*
G02X417449Y422047I-1772*
G01*
X401701*
G75*
G02X399929Y423819J1772*
G01*
Y427756*
X399339*
Y423819*
G75*
G02X397567Y422047I-1772*
G01*
X381819*
G75*
G02X380047Y423819J1772*
G01*
Y427756*
X379850*
Y423819*
G75*
G02X378079Y422047I-1772*
G01*
X362331*
G75*
G02X360559Y423819J1772*
G01*
Y427756*
X360165*
Y423819*
G75*
G02X358394Y422047I-1772*
G01*
X342646*
G75*
G02X340874Y423819J1772*
G01*
Y427756*
X340480*
Y423819*
G75*
G02X338709Y422047I-1772*
G01*
X322961*
G75*
G02X321189Y423819J1772*
G01*
Y427756*
X320992*
Y423819*
G75*
G02X319220Y422047I-1772*
G01*
X303472*
G75*
G02X301701Y423819J1772*
G01*
Y427756*
X301110*
Y423819*
G75*
G02X299339Y422047I-1772*
G01*
X283591*
G75*
G02X281819Y423819J1772*
G01*
Y427756*
X281622*
Y423819*
G75*
G02X279850Y422047I-1772*
G01*
X264102*
G75*
G02X262331Y423819J1772*
G01*
Y427756*
X261740*
Y423819*
G75*
G02X259969Y422047I-1772*
G01*
X244220*
G75*
G02X242449Y423819J1772*
G01*
Y427756*
X242055*
Y423819*
G75*
G02X240283Y422047I-1772*
G01*
X224535*
G75*
G02X222764Y423819J1772*
G01*
Y427756*
X222370*
Y423819*
G75*
G02X220598Y422047I-1772*
G01*
X204850*
G75*
G02X203079Y423819J1772*
G01*
Y427756*
X202882*
Y423819*
G75*
G02X201110Y422047I-1772*
G01*
X185362*
G75*
G02X183591Y423819J1772*
G01*
Y427756*
X183197*
Y423819*
G75*
G02X181425Y422047I-1772*
G01*
X165677*
G75*
G02X163906Y423819J1772*
G01*
Y427756*
X163315*
Y423819*
G75*
G02X161543Y422047I-1772*
G01*
X145795*
G75*
G02X144024Y423819J1772*
G01*
Y427756*
X143630*
Y423819*
G75*
G02X141858Y422047I-1772*
G01*
X126110*
G75*
G02X124339Y423819J1772*
G01*
Y427756*
X123945*
Y423819*
G75*
G02X122173Y422047I-1772*
G01*
X106425*
G75*
G02X104654Y423819J1772*
G01*
Y427756*
X104457*
Y423819*
G75*
G02X102685Y422047I-1772*
G01*
X86937*
G75*
G02X85165Y423819J1772*
G01*
Y427756*
X84575*
Y423819*
G75*
G02X82803Y422047I-1772*
G01*
X67055*
G75*
G02X65283Y423819J1772*
G01*
Y427756*
X65087*
Y423622*
G75*
G02X63315Y421850I-1772*
G01*
X47567*
G75*
G02X45795Y423622J1772*
G01*
Y427756*
X45402*
Y423819*
G75*
G02X43630Y422047I-1772*
G01*
X27882*
G75*
G02X26110Y423819J1772*
G01*
Y427756*
X25520*
Y423819*
G75*
G02X23748Y422047I-1772*
G01*
X12331*
G75*
G02X10559Y423819J1772*
G01*
Y427756*
X10165*
G37*
Y434252D02*
G36*
Y427756D01*
X10559*
Y431693*
G75*
G02X12331Y433465I1772*
G01*
X23748*
G75*
G02X25520Y431693J-1772*
G01*
Y427756*
X26110*
Y431693*
G75*
G02X27882Y433465I1772*
G01*
X43630*
G75*
G02X45402Y431693J-1772*
G01*
Y427756*
X45795*
Y431496*
G75*
G02X47567Y433268I1772*
G01*
X63315*
G75*
G02X65087Y431496J-1772*
G01*
Y427756*
X65283*
Y431693*
G75*
G02X67055Y433465I1772*
G01*
X82803*
G75*
G02X84575Y431693J-1772*
G01*
Y427756*
X85165*
Y431693*
G75*
G02X86937Y433465I1772*
G01*
X102685*
G75*
G02X104457Y431693J-1772*
G01*
Y427756*
X104654*
Y431693*
G75*
G02X106425Y433465I1772*
G01*
X122173*
G75*
G02X123945Y431693J-1772*
G01*
Y427756*
X124339*
Y431693*
G75*
G02X126110Y433465I1772*
G01*
X141858*
G75*
G02X143630Y431693J-1772*
G01*
Y427756*
X144024*
Y431693*
G75*
G02X145795Y433465I1772*
G01*
X161543*
G75*
G02X163315Y431693J-1772*
G01*
Y427756*
X163906*
Y431693*
G75*
G02X165677Y433465I1772*
G01*
X181425*
G75*
G02X183197Y431693J-1772*
G01*
Y427756*
X183591*
Y431693*
G75*
G02X185362Y433465I1772*
G01*
X201110*
G75*
G02X202882Y431693J-1772*
G01*
Y427756*
X203079*
Y431693*
G75*
G02X204850Y433465I1772*
G01*
X220598*
G75*
G02X222370Y431693J-1772*
G01*
Y427756*
X222764*
Y431693*
G75*
G02X224535Y433465I1772*
G01*
X240283*
G75*
G02X242055Y431693J-1772*
G01*
Y427756*
X242449*
Y431693*
G75*
G02X244220Y433465I1772*
G01*
X259969*
G75*
G02X261740Y431693J-1772*
G01*
Y427756*
X262331*
Y431693*
G75*
G02X264102Y433465I1772*
G01*
X279850*
G75*
G02X281622Y431693J-1772*
G01*
Y427756*
X281819*
Y431693*
G75*
G02X283591Y433465I1772*
G01*
X299339*
G75*
G02X301110Y431693J-1772*
G01*
Y427756*
X301701*
Y431693*
G75*
G02X303472Y433465I1772*
G01*
X319220*
G75*
G02X320992Y431693J-1772*
G01*
Y427756*
X321189*
Y431693*
G75*
G02X322961Y433465I1772*
G01*
X338709*
G75*
G02X340480Y431693J-1772*
G01*
Y427756*
X340874*
Y431693*
G75*
G02X342646Y433465I1772*
G01*
X358394*
G75*
G02X360165Y431693J-1772*
G01*
Y427756*
X360559*
Y431693*
G75*
G02X362331Y433465I1772*
G01*
X378079*
G75*
G02X379850Y431693J-1772*
G01*
Y427756*
X380047*
Y431693*
G75*
G02X381819Y433465I1772*
G01*
X397567*
G75*
G02X399339Y431693J-1772*
G01*
Y427756*
X399929*
Y431693*
G75*
G02X401701Y433465I1772*
G01*
X417449*
G75*
G02X419220Y431693J-1772*
G01*
Y427756*
X419417*
Y431693*
G75*
G02X421189Y433465I1772*
G01*
X436937*
G75*
G02X438709Y431693J-1772*
G01*
Y427756*
X439299*
Y431693*
G75*
G02X441071Y433465I1772*
G01*
X456819*
G75*
G02X458591Y431693J-1772*
G01*
Y427756*
X458787*
Y431693*
G75*
G02X460559Y433465I1772*
G01*
X476307*
G75*
G02X478079Y431693J-1772*
G01*
Y427756*
X478669*
Y431693*
G75*
G02X480441Y433465I1772*
G01*
X502882*
G75*
G02X504654Y431693J-1772*
G01*
Y427756*
X505835*
Y432087*
G75*
G02X506228Y433200I1771*
G01*
Y434252*
X467972*
G75*
G02X466858Y433858I-1113J1378*
G01*
X458984*
G75*
G02X457871Y434252J1771*
G01*
X320334*
G75*
G02X319220Y433858I-1113J1378*
G01*
X311346*
G75*
G02X310233Y434252J1771*
G01*
X211869*
G75*
G02X210756Y433858I-1113J1378*
G01*
X202882*
G75*
G02X201769Y434252J1771*
G01*
X64231*
G75*
G02X63118Y433858I-1113J1378*
G01*
X55244*
G75*
G02X54131Y434252J1771*
G01*
X10165*
G37*
X9969Y480906D02*
Y433661D01*
X65087*
Y551772*
X9969*
Y504528*
X41465*
Y480906*
X9969*
X63118Y453150D02*
G75*
G02X64890Y451378J-1772D01*
G01*
Y435630*
G75*
G02X63118Y433858I-1772*
G01*
X55244*
G75*
G02X53472Y435630J1772*
G01*
Y451378*
G75*
G02X55244Y453150I1772*
G01*
X63118*
Y472835D02*
G75*
G02X64890Y471063J-1772D01*
G01*
Y455315*
G75*
G02X63118Y453543I-1772*
G01*
X55244*
G75*
G02X53472Y455315J1772*
G01*
Y471063*
G75*
G02X55244Y472835I1772*
G01*
X63118*
Y492520D02*
G75*
G02X64890Y490748J-1772D01*
G01*
Y475000*
G75*
G02X63118Y473228I-1772*
G01*
X55244*
G75*
G02X53472Y475000J1772*
G01*
Y490748*
G75*
G02X55244Y492520I1772*
G01*
X63118*
Y512205D02*
G75*
G02X64890Y510433J-1772D01*
G01*
Y494685*
G75*
G02X63118Y492913I-1772*
G01*
X55244*
G75*
G02X53472Y494685J1772*
G01*
Y510433*
G75*
G02X55244Y512205I1772*
G01*
X63118*
Y531890D02*
G75*
G02X64890Y530118J-1772D01*
G01*
Y514370*
G75*
G02X63118Y512598I-1772*
G01*
X55244*
G75*
G02X53472Y514370J1772*
G01*
Y530118*
G75*
G02X55244Y531890I1772*
G01*
X63118*
Y551575D02*
G75*
G02X64890Y549803J-1772D01*
G01*
Y534055*
G75*
G02X63118Y532283I-1772*
G01*
X55244*
G75*
G02X53472Y534055J1772*
G01*
Y549803*
G75*
G02X55244Y551575I1772*
G01*
X63118*
X10165Y443504D02*
G36*
Y433858D01*
X55244*
G75*
G02X53472Y435630J1772*
G01*
Y443504*
X10165*
G37*
X63118Y433858D02*
G36*
X64890D01*
Y435630*
G75*
G02X63118Y433858I-1772*
G01*
G37*
X10165Y463189D02*
G36*
Y443504D01*
X53472*
Y451378*
G75*
G02X55244Y453150I1772*
G01*
X63118*
G75*
G02X64890Y451378J-1772*
G01*
Y455315*
G75*
G02X63118Y453543I-1772*
G01*
X55244*
G75*
G02X53472Y455315J1772*
G01*
Y463189*
X10165*
G37*
Y480906D02*
G36*
Y463189D01*
X53472*
Y471063*
G75*
G02X55244Y472835I1772*
G01*
X63118*
G75*
G02X64890Y471063J-1772*
G01*
Y475000*
G75*
G02X63118Y473228I-1772*
G01*
X55244*
G75*
G02X53472Y475000J1772*
G01*
Y482874*
X41465*
Y480906*
X10165*
G37*
X41465Y502559D02*
G36*
Y482874D01*
X53472*
Y490748*
G75*
G02X55244Y492520I1772*
G01*
X63118*
G75*
G02X64890Y490748J-1772*
G01*
Y494685*
G75*
G02X63118Y492913I-1772*
G01*
X55244*
G75*
G02X53472Y494685J1772*
G01*
Y502559*
X41465*
G37*
X10165Y522244D02*
G36*
Y504528D01*
X41465*
Y502559*
X53472*
Y510433*
G75*
G02X55244Y512205I1772*
G01*
X63118*
G75*
G02X64890Y510433J-1772*
G01*
Y514370*
G75*
G02X63118Y512598I-1772*
G01*
X55244*
G75*
G02X53472Y514370J1772*
G01*
Y522244*
X10165*
G37*
Y541929D02*
G36*
Y522244D01*
X53472*
Y530118*
G75*
G02X55244Y531890I1772*
G01*
X63118*
G75*
G02X64890Y530118J-1772*
G01*
Y534055*
G75*
G02X63118Y532283I-1772*
G01*
X55244*
G75*
G02X53472Y534055J1772*
G01*
Y541929*
X10165*
G37*
Y551575D02*
G36*
Y541929D01*
X53472*
Y549803*
G75*
G02X55244Y551575I1772*
G01*
X10165*
G37*
X63118D02*
G36*
G75*
G02X64890Y549803J-1772D01*
G01*
Y551575*
X63118*
G37*
X11346Y139961D02*
Y22441D01*
X62528*
Y53346*
X99929*
Y22441*
X158787*
G75*
G02X160108Y21850J-1772*
G01*
X160362*
Y23598*
G75*
G02X158787Y22638I-1575J812*
G01*
X150913*
G75*
G02X149142Y24409J1772*
G01*
Y40157*
G75*
G02X150913Y41929I1772*
G01*
X158787*
G75*
G02X160362Y40969J-1772*
G01*
Y43283*
G75*
G02X158787Y42323I-1575J812*
G01*
X150913*
G75*
G02X149142Y44094J1772*
G01*
Y59843*
G75*
G02X150913Y61614I1772*
G01*
X158787*
G75*
G02X160362Y60654J-1772*
G01*
Y62968*
G75*
G02X158787Y62008I-1575J812*
G01*
X150913*
G75*
G02X149142Y63780J1772*
G01*
Y79528*
G75*
G02X150913Y81299I1772*
G01*
X158787*
G75*
G02X160362Y80339J-1772*
G01*
Y83465*
G75*
G02X158591Y81693I-1772*
G01*
X150717*
G75*
G02X148945Y83465J1772*
G01*
Y99213*
G75*
G02X150717Y100984I1772*
G01*
X158591*
G75*
G02X160362Y99213J-1772*
G01*
Y103150*
G75*
G02X158591Y101378I-1772*
G01*
X150717*
G75*
G02X148945Y103150J1772*
G01*
Y118898*
G75*
G02X150717Y120669I1772*
G01*
X158591*
G75*
G02X160362Y118898J-1772*
G01*
Y122835*
G75*
G02X158591Y121063I-1772*
G01*
X150717*
G75*
G02X148945Y122835J1772*
G01*
Y138583*
G75*
G02X149603Y139961I1772*
G01*
X101898*
Y108465*
X62528*
Y139961*
X11346*
G36*
Y22441*
X62528*
Y53346*
X99929*
Y22441*
X158787*
G75*
G02X160108Y21850J-1772*
G01*
X160362*
Y23598*
G75*
G02X158787Y22638I-1575J812*
G01*
X150913*
G75*
G02X149142Y24409J1772*
G01*
Y40157*
G75*
G02X150913Y41929I1772*
G01*
X158787*
G75*
G02X160362Y40969J-1772*
G01*
Y43283*
G75*
G02X158787Y42323I-1575J812*
G01*
X150913*
G75*
G02X149142Y44094J1772*
G01*
Y59843*
G75*
G02X150913Y61614I1772*
G01*
X158787*
G75*
G02X160362Y60654J-1772*
G01*
Y62968*
G75*
G02X158787Y62008I-1575J812*
G01*
X150913*
G75*
G02X149142Y63780J1772*
G01*
Y79528*
G75*
G02X150913Y81299I1772*
G01*
X158787*
G75*
G02X160362Y80339J-1772*
G01*
Y83465*
G75*
G02X158591Y81693I-1772*
G01*
X150717*
G75*
G02X148945Y83465J1772*
G01*
Y99213*
G75*
G02X150717Y100984I1772*
G01*
X158591*
G75*
G02X160362Y99213J-1772*
G01*
Y103150*
G75*
G02X158591Y101378I-1772*
G01*
X150717*
G75*
G02X148945Y103150J1772*
G01*
Y118898*
G75*
G02X150717Y120669I1772*
G01*
X158591*
G75*
G02X160362Y118898J-1772*
G01*
Y122835*
G75*
G02X158591Y121063I-1772*
G01*
X150717*
G75*
G02X148945Y122835J1772*
G01*
Y138583*
G75*
G02X149603Y139961I1772*
G01*
X101898*
Y108465*
X62528*
Y139961*
X11346*
G37*
X64890Y551772D02*
Y433661D01*
X112331*
Y551772*
X64890*
X76898Y504528D02*
X100520D01*
Y480906*
X76898*
Y504528*
X65087Y492717D02*
G36*
Y433858D01*
X112134*
Y492717*
X100520*
Y480906*
X76898*
Y492717*
X65087*
G37*
Y551575D02*
G36*
Y492717D01*
X76898*
Y504528*
X100520*
Y492717*
X112134*
Y551575*
X65087*
G37*
X151701Y390157D02*
X109181D01*
Y421654*
X63118*
Y303543*
X109181*
Y335039*
X151701*
Y390157*
X75323Y374606D02*
X98945D01*
Y350984*
X75323*
Y374606*
X63315Y362795D02*
G36*
Y303740D01*
X109181*
Y335039*
X151504*
Y362795*
X98945*
Y350984*
X75323*
Y362795*
X63315*
G37*
Y421457D02*
G36*
Y362795D01*
X75323*
Y374606*
X98945*
Y362795*
X151504*
Y390157*
X109181*
Y421457*
X63315*
G37*
X151701Y421654D02*
Y303543D01*
X198945*
Y421654*
X151701*
X163906Y374606D02*
X187528D01*
Y350984*
X187134*
Y350591*
X163512*
Y374213*
X163906*
Y374606*
X151898Y362598D02*
G36*
Y303740D01*
X198748*
Y362598*
X187528*
Y350984*
X187134*
Y350591*
X163512*
Y362598*
X151898*
G37*
Y421457D02*
G36*
Y362598D01*
X163512*
Y374213*
X163906*
Y374606*
X187528*
Y362598*
X198748*
Y421457*
X151898*
G37*
X153669Y465157D02*
Y433661D01*
X200913*
Y551772*
X153669*
Y520276*
X112528*
Y465157*
X153669*
X165480Y504528D02*
X189102D01*
Y480906*
X165480*
Y504528*
X112724Y492717D02*
G36*
Y465157D01*
X153669*
Y433858*
X200717*
Y492717*
X189102*
Y480906*
X165480*
Y492717*
X112724*
G37*
Y520276D02*
G36*
Y492717D01*
X165480*
Y504528*
X189102*
Y492717*
X200717*
Y551575*
X153669*
Y520276*
X112724*
G37*
X160131Y23255D02*
X160131Y21824D01*
G75*
G02X160559Y20669I-1344J-1155*
G01*
Y2362*
X401898*
Y152559*
X160165*
Y152362*
X160756*
G75*
G02X162528Y150591J-1772*
G01*
Y142717*
G75*
G02X160756Y140945I-1772*
G01*
X160162*
X160146Y80664*
G75*
G02X160559Y79528I-1359J-1137*
G01*
Y63780*
G75*
G02X160142Y62637I-1772*
G01*
X160141Y60985*
G75*
G02X160559Y59843I-1354J-1143*
G01*
Y44094*
G75*
G02X160137Y42946I-1772*
G01*
X160136Y41306*
G75*
G02X160559Y40157I-1349J-1149*
G01*
Y24409*
G75*
G02X160131Y23255I-1772*
G01*
X181228Y152362D02*
G75*
G02X183000Y150591J-1772D01*
G01*
Y142717*
G75*
G02X181228Y140945I-1772*
G01*
X165480*
G75*
G02X163709Y142717J1772*
G01*
Y150591*
G75*
G02X165480Y152362I1772*
G01*
X181228*
X200913D02*
G75*
G02X202685Y150591J-1772D01*
G01*
Y142717*
G75*
G02X200913Y140945I-1772*
G01*
X185165*
G75*
G02X183394Y142717J1772*
G01*
Y150591*
G75*
G02X185165Y152362I1772*
G01*
X200913*
X220598D02*
G75*
G02X222370Y150591J-1772D01*
G01*
Y142717*
G75*
G02X220598Y140945I-1772*
G01*
X204850*
G75*
G02X203079Y142717J1772*
G01*
Y150591*
G75*
G02X204850Y152362I1772*
G01*
X220598*
X240283D02*
G75*
G02X242055Y150591J-1772D01*
G01*
Y142717*
G75*
G02X240283Y140945I-1772*
G01*
X224535*
G75*
G02X222764Y142717J1772*
G01*
Y150591*
G75*
G02X224535Y152362I1772*
G01*
X240283*
X259969D02*
G75*
G02X261740Y150591J-1772D01*
G01*
Y142717*
G75*
G02X259969Y140945I-1772*
G01*
X244220*
G75*
G02X242449Y142717J1772*
G01*
Y150591*
G75*
G02X244220Y152362I1772*
G01*
X259969*
X279654D02*
G75*
G02X281425Y150591J-1772D01*
G01*
Y142717*
G75*
G02X279654Y140945I-1772*
G01*
X263906*
G75*
G02X262134Y142717J1772*
G01*
Y150591*
G75*
G02X263906Y152362I1772*
G01*
X279654*
X299339D02*
G75*
G02X301110Y150591J-1772D01*
G01*
Y142717*
G75*
G02X299339Y140945I-1772*
G01*
X283591*
G75*
G02X281819Y142717J1772*
G01*
Y150591*
G75*
G02X283591Y152362I1772*
G01*
X299339*
X319024D02*
G75*
G02X320795Y150591J-1772D01*
G01*
Y142717*
G75*
G02X319024Y140945I-1772*
G01*
X303276*
G75*
G02X301504Y142717J1772*
G01*
Y150591*
G75*
G02X303276Y152362I1772*
G01*
X319024*
X338709D02*
G75*
G02X340480Y150591J-1772D01*
G01*
Y142717*
G75*
G02X338709Y140945I-1772*
G01*
X322961*
G75*
G02X321189Y142717J1772*
G01*
Y150591*
G75*
G02X322961Y152362I1772*
G01*
X338709*
X358394D02*
G75*
G02X360165Y150591J-1772D01*
G01*
Y142717*
G75*
G02X358394Y140945I-1772*
G01*
X342646*
G75*
G02X340874Y142717J1772*
G01*
Y150591*
G75*
G02X342646Y152362I1772*
G01*
X358394*
X378079D02*
G75*
G02X379850Y150591J-1772D01*
G01*
Y142717*
G75*
G02X378079Y140945I-1772*
G01*
X362331*
G75*
G02X360559Y142717J1772*
G01*
Y150591*
G75*
G02X362331Y152362I1772*
G01*
X378079*
X397764D02*
G75*
G02X399535Y150591J-1772D01*
G01*
Y142717*
G75*
G02X397764Y140945I-1772*
G01*
X382016*
G75*
G02X380244Y142717J1772*
G01*
Y150591*
G75*
G02X382016Y152362I1772*
G01*
X397764*
X160328Y23534D02*
G36*
Y21544D01*
G75*
G02X160559Y20670I-1537J-874*
G01*
G75*
G02Y20669I-2051J0*
G01*
Y2559*
X401701*
Y146654*
X399535*
Y142717*
G75*
G02X397764Y140945I-1772*
G01*
X382016*
G75*
G02X380244Y142717J1772*
G01*
Y146654*
X379850*
Y142717*
G75*
G02X378079Y140945I-1772*
G01*
X362331*
G75*
G02X360559Y142717J1772*
G01*
Y146654*
X360165*
Y142717*
G75*
G02X358394Y140945I-1772*
G01*
X342646*
G75*
G02X340874Y142717J1772*
G01*
Y146654*
X340480*
Y142717*
G75*
G02X338709Y140945I-1772*
G01*
X322961*
G75*
G02X321189Y142717J1772*
G01*
Y146654*
X320795*
Y142717*
G75*
G02X319024Y140945I-1772*
G01*
X303276*
G75*
G02X301504Y142717J1772*
G01*
Y146654*
X301110*
Y142717*
G75*
G02X299339Y140945I-1772*
G01*
X283591*
G75*
G02X281819Y142717J1772*
G01*
Y146654*
X281425*
Y142717*
G75*
G02X279654Y140945I-1772*
G01*
X263906*
G75*
G02X262134Y142717J1772*
G01*
Y146654*
X261740*
Y142717*
G75*
G02X259969Y140945I-1772*
G01*
X244220*
G75*
G02X242449Y142717J1772*
G01*
Y146654*
X242055*
Y142717*
G75*
G02X240283Y140945I-1772*
G01*
X224535*
G75*
G02X222764Y142717J1772*
G01*
Y146654*
X222370*
Y142717*
G75*
G02X220598Y140945I-1772*
G01*
X204850*
G75*
G02X203079Y142717J1772*
G01*
Y146654*
X202685*
Y142717*
G75*
G02X200913Y140945I-1772*
G01*
X185165*
G75*
G02X183394Y142717J1772*
G01*
Y146654*
X183000*
Y142717*
G75*
G02X181228Y140945I-1772*
G01*
X165480*
G75*
G02X163709Y142717J1772*
G01*
Y146654*
X162528*
Y142717*
G75*
G02X160756Y140945I-1772*
G01*
X160328*
Y80403*
G75*
G02X160559Y79528I-1540J-875*
G01*
Y79528*
Y63780*
Y63779*
G75*
G02X160328Y62905I-1770*
G01*
Y60717*
G75*
G02X160559Y59843I-1542J-875*
G01*
Y44094*
G75*
G02X160328Y43220I-1772*
G01*
Y41033*
G75*
G02X160559Y40158I-1540J-875*
G01*
Y40157*
Y24409*
Y24409*
G75*
G02X160328Y23534I-1771*
G01*
G37*
X162528Y150591D02*
G36*
Y146654D01*
X163709*
Y150591*
G75*
G02X165480Y152362I1772*
G01*
X160756*
G75*
G02X162528Y150591J-1772*
G01*
G37*
X183000D02*
G36*
Y146654D01*
X183394*
Y150591*
G75*
G02X185165Y152362I1772*
G01*
X181228*
G75*
G02X183000Y150591J-1772*
G01*
G37*
X202685D02*
G36*
Y146654D01*
X203079*
Y150591*
G75*
G02X204850Y152362I1772*
G01*
X200913*
G75*
G02X202685Y150591J-1772*
G01*
G37*
X222370D02*
G36*
Y146654D01*
X222764*
Y150591*
G75*
G02X224535Y152362I1772*
G01*
X220598*
G75*
G02X222370Y150591J-1772*
G01*
G37*
X242055D02*
G36*
Y146654D01*
X242449*
Y150591*
G75*
G02X244220Y152362I1772*
G01*
X240283*
G75*
G02X242055Y150591J-1772*
G01*
G37*
X261740D02*
G36*
Y146654D01*
X262134*
Y150591*
G75*
G02X263906Y152362I1772*
G01*
X259969*
G75*
G02X261740Y150591J-1772*
G01*
G37*
X281425D02*
G36*
Y146654D01*
X281819*
Y150591*
G75*
G02X283591Y152362I1772*
G01*
X279654*
G75*
G02X281425Y150591J-1772*
G01*
G37*
X301110D02*
G36*
Y146654D01*
X301504*
Y150591*
G75*
G02X303276Y152362I1772*
G01*
X299339*
G75*
G02X301110Y150591J-1772*
G01*
G37*
X320795D02*
G36*
Y146654D01*
X321189*
Y150591*
G75*
G02X322961Y152362I1772*
G01*
X319024*
G75*
G02X320795Y150591J-1772*
G01*
G37*
X340480D02*
G36*
Y146654D01*
X340874*
Y150591*
G75*
G02X342646Y152362I1772*
G01*
X338709*
G75*
G02X340480Y150591J-1772*
G01*
G37*
X360165D02*
G36*
Y146654D01*
X360559*
Y150591*
G75*
G02X362331Y152362I1772*
G01*
X358394*
G75*
G02X360165Y150591J-1772*
G01*
G37*
X379850D02*
G36*
Y146654D01*
X380244*
Y150591*
G75*
G02X382016Y152362I1772*
G01*
X378079*
G75*
G02X379850Y150591J-1772*
G01*
G37*
X399535D02*
G36*
Y146654D01*
X401701*
Y152362*
X397764*
G75*
G02X399535Y150591J-1772*
G01*
G37*
X161150Y291732D02*
Y152362D01*
X401898*
G75*
G02X402488Y153683I1772*
G01*
Y154979*
G75*
G02X401898Y156299I1181J1320*
G01*
Y172047*
G75*
G02X402488Y173368I1772*
G01*
Y174861*
G75*
G02X401898Y176181I1181J1320*
G01*
Y191929*
G75*
G02X402488Y193250I1772*
G01*
Y194349*
G75*
G02X401898Y195669I1181J1320*
G01*
Y211417*
G75*
G02X402488Y212738I1772*
G01*
Y214034*
G75*
G02X401898Y215354I1181J1320*
G01*
Y231102*
G75*
G02X402488Y232423I1772*
G01*
Y233719*
G75*
G02X401898Y235039I1181J1320*
G01*
Y250787*
G75*
G02X402488Y252108I1772*
G01*
Y253404*
G75*
G02X401898Y254724I1181J1320*
G01*
Y270472*
G75*
G02X402488Y271793I1772*
G01*
Y272936*
G75*
G02X401701Y274409I984J1473*
G01*
Y290157*
G75*
G02X402488Y291631I1772*
G01*
Y291732*
X401701*
G75*
G02X399929Y293504J1772*
G01*
Y301378*
G75*
G02X401701Y303150I1772*
G01*
X402488*
Y303740*
X161150*
Y303150*
X161543*
G75*
G02X163315Y301378J-1772*
G01*
Y293504*
G75*
G02X161543Y291732I-1772*
G01*
X161150*
X181228Y303150D02*
G75*
G02X183000Y301378J-1772D01*
G01*
Y293504*
G75*
G02X181228Y291732I-1772*
G01*
X165480*
G75*
G02X163709Y293504J1772*
G01*
Y301378*
G75*
G02X165480Y303150I1772*
G01*
X181228*
X200913D02*
G75*
G02X202685Y301378J-1772D01*
G01*
Y293504*
G75*
G02X200913Y291732I-1772*
G01*
X185165*
G75*
G02X183394Y293504J1772*
G01*
Y301378*
G75*
G02X185165Y303150I1772*
G01*
X200913*
X220795D02*
G75*
G02X222567Y301378J-1772D01*
G01*
Y293504*
G75*
G02X220795Y291732I-1772*
G01*
X205047*
G75*
G02X203276Y293504J1772*
G01*
Y301378*
G75*
G02X205047Y303150I1772*
G01*
X220795*
X208425Y281228D02*
X216000D01*
Y273654*
X208425*
Y281228*
X240283Y303150D02*
G75*
G02X242055Y301378J-1772D01*
G01*
Y293504*
G75*
G02X240283Y291732I-1772*
G01*
X224535*
G75*
G02X222764Y293504J1772*
G01*
Y301378*
G75*
G02X224535Y303150I1772*
G01*
X240283*
X228425Y281228D02*
X236000D01*
Y273654*
X228425*
Y281228*
X259969Y303150D02*
G75*
G02X261740Y301378J-1772D01*
G01*
Y293504*
G75*
G02X259969Y291732I-1772*
G01*
X244220*
G75*
G02X242449Y293504J1772*
G01*
Y301378*
G75*
G02X244220Y303150I1772*
G01*
X259969*
X279850D02*
G75*
G02X281622Y301378J-1772D01*
G01*
Y293504*
G75*
G02X279850Y291732I-1772*
G01*
X264102*
G75*
G02X262331Y293504J1772*
G01*
Y301378*
G75*
G02X264102Y303150I1772*
G01*
X279850*
X299535D02*
G75*
G02X301307Y301378J-1772D01*
G01*
Y293504*
G75*
G02X299535Y291732I-1772*
G01*
X283787*
G75*
G02X282016Y293504J1772*
G01*
Y301378*
G75*
G02X283787Y303150I1772*
G01*
X299535*
X319024D02*
G75*
G02X320795Y301378J-1772D01*
G01*
Y293504*
G75*
G02X319024Y291732I-1772*
G01*
X303276*
G75*
G02X301504Y293504J1772*
G01*
Y301378*
G75*
G02X303276Y303150I1772*
G01*
X319024*
X338709D02*
G75*
G02X340480Y301378J-1772D01*
G01*
Y293504*
G75*
G02X338709Y291732I-1772*
G01*
X322961*
G75*
G02X321189Y293504J1772*
G01*
Y301378*
G75*
G02X322961Y303150I1772*
G01*
X338709*
X358394D02*
G75*
G02X360165Y301378J-1772D01*
G01*
Y293504*
G75*
G02X358394Y291732I-1772*
G01*
X342646*
G75*
G02X340874Y293504J1772*
G01*
Y301378*
G75*
G02X342646Y303150I1772*
G01*
X358394*
X378079D02*
G75*
G02X379850Y301378J-1772D01*
G01*
Y293504*
G75*
G02X378079Y291732I-1772*
G01*
X362331*
G75*
G02X360559Y293504J1772*
G01*
Y301378*
G75*
G02X362331Y303150I1772*
G01*
X378079*
X397764D02*
G75*
G02X399535Y301378J-1772D01*
G01*
Y293504*
G75*
G02X397764Y291732I-1772*
G01*
X382016*
G75*
G02X380244Y293504J1772*
G01*
Y301378*
G75*
G02X382016Y303150I1772*
G01*
X397764*
X161346Y277441D02*
G36*
Y152559D01*
X401909*
G75*
G02X402291Y153476I1760J-197*
G01*
Y155186*
G75*
G02X401898Y156299I1378J1113*
G01*
Y172047*
G75*
G02X402291Y173161I1771*
G01*
Y175068*
G75*
G02X401898Y176181I1378J1113*
G01*
Y191929*
G75*
G02X402291Y193043I1771*
G01*
Y194556*
G75*
G02X401898Y195669I1378J1113*
G01*
Y211417*
G75*
G02X402291Y212531I1771*
G01*
Y214241*
G75*
G02X401898Y215354I1378J1113*
G01*
Y231102*
G75*
G02X402291Y232216I1771*
G01*
Y233926*
G75*
G02X401898Y235039I1378J1113*
G01*
Y250787*
G75*
G02X402291Y251901I1771*
G01*
Y253611*
G75*
G02X401898Y254724I1378J1113*
G01*
Y270472*
G75*
G02X402291Y271586I1771*
G01*
Y273089*
G75*
G02X401701Y274409I1181J1320*
G01*
Y277441*
X236000*
Y273654*
X228425*
Y277441*
X216000*
Y273654*
X208425*
Y277441*
X161346*
G37*
Y291732D02*
G36*
Y277441D01*
X208425*
Y281228*
X216000*
Y277441*
X228425*
Y281228*
X236000*
Y277441*
X401701*
Y290157*
G75*
G02X402291Y291478I1772*
G01*
Y291732*
X401701*
G75*
G02X399929Y293504J1772*
G01*
Y297441*
X399535*
Y293504*
G75*
G02X397764Y291732I-1772*
G01*
X382016*
G75*
G02X380244Y293504J1772*
G01*
Y297441*
X379850*
Y293504*
G75*
G02X378079Y291732I-1772*
G01*
X362331*
G75*
G02X360559Y293504J1772*
G01*
Y297441*
X360165*
Y293504*
G75*
G02X358394Y291732I-1772*
G01*
X342646*
G75*
G02X340874Y293504J1772*
G01*
Y297441*
X340480*
Y293504*
G75*
G02X338709Y291732I-1772*
G01*
X322961*
G75*
G02X321189Y293504J1772*
G01*
Y297441*
X320795*
Y293504*
G75*
G02X319024Y291732I-1772*
G01*
X303276*
G75*
G02X301504Y293504J1772*
G01*
Y297441*
X301307*
Y293504*
G75*
G02X299535Y291732I-1772*
G01*
X283787*
G75*
G02X282016Y293504J1772*
G01*
Y297441*
X281622*
Y293504*
G75*
G02X279850Y291732I-1772*
G01*
X264102*
G75*
G02X262331Y293504J1772*
G01*
Y297441*
X261740*
Y293504*
G75*
G02X259969Y291732I-1772*
G01*
X244220*
G75*
G02X242449Y293504J1772*
G01*
Y297441*
X242055*
Y293504*
G75*
G02X240283Y291732I-1772*
G01*
X224535*
G75*
G02X222764Y293504J1772*
G01*
Y297441*
X222567*
Y293504*
G75*
G02X220795Y291732I-1772*
G01*
X205047*
G75*
G02X203276Y293504J1772*
G01*
Y297441*
X202685*
Y293504*
G75*
G02X200913Y291732I-1772*
G01*
X185165*
G75*
G02X183394Y293504J1772*
G01*
Y297441*
X183000*
Y293504*
G75*
G02X181228Y291732I-1772*
G01*
X165480*
G75*
G02X163709Y293504J1772*
G01*
Y297441*
X163315*
Y293504*
G75*
G02X161543Y291732I-1772*
G01*
X161346*
G37*
Y303543D02*
G36*
Y303150D01*
X161543*
G75*
G02X163315Y301378J-1772*
G01*
Y297441*
X163709*
Y301378*
G75*
G02X165480Y303150I1772*
G01*
X181228*
G75*
G02X183000Y301378J-1772*
G01*
Y297441*
X183394*
Y301378*
G75*
G02X185165Y303150I1772*
G01*
X200913*
G75*
G02X202685Y301378J-1772*
G01*
Y297441*
X203276*
Y301378*
G75*
G02X205047Y303150I1772*
G01*
X220795*
G75*
G02X222567Y301378J-1772*
G01*
Y297441*
X222764*
Y301378*
G75*
G02X224535Y303150I1772*
G01*
X240283*
G75*
G02X242055Y301378J-1772*
G01*
Y297441*
X242449*
Y301378*
G75*
G02X244220Y303150I1772*
G01*
X259969*
G75*
G02X261740Y301378J-1772*
G01*
Y297441*
X262331*
Y301378*
G75*
G02X264102Y303150I1772*
G01*
X279850*
G75*
G02X281622Y301378J-1772*
G01*
Y297441*
X282016*
Y301378*
G75*
G02X283787Y303150I1772*
G01*
X299535*
G75*
G02X301307Y301378J-1772*
G01*
Y297441*
X301504*
Y301378*
G75*
G02X303276Y303150I1772*
G01*
X319024*
G75*
G02X320795Y301378J-1772*
G01*
Y297441*
X321189*
Y301378*
G75*
G02X322961Y303150I1772*
G01*
X338709*
G75*
G02X340480Y301378J-1772*
G01*
Y297441*
X340874*
Y301378*
G75*
G02X342646Y303150I1772*
G01*
X358394*
G75*
G02X360165Y301378J-1772*
G01*
Y297441*
X360559*
Y301378*
G75*
G02X362331Y303150I1772*
G01*
X378079*
G75*
G02X379850Y301378J-1772*
G01*
Y297441*
X380244*
Y301378*
G75*
G02X382016Y303150I1772*
G01*
X397764*
G75*
G02X399535Y301378J-1772*
G01*
Y297441*
X399929*
Y301378*
G75*
G02X401701Y303150I1772*
G01*
X402291*
Y303543*
X161346*
G37*
X196583Y421654D02*
Y303543D01*
X268236*
Y350787*
X265874*
Y345276*
G75*
G02X264102Y343504I-1772*
G01*
X256228*
G75*
G02X254457Y345276J1772*
G01*
Y350787*
X222567*
Y374409*
X254457*
Y380906*
G75*
G02X256228Y382677I1772*
G01*
X264102*
G75*
G02X265874Y380906J-1772*
G01*
Y374409*
X268236*
Y421654*
X264914*
G75*
G02X265874Y420079I-812J-1575*
G01*
Y404331*
G75*
G02X264102Y402559I-1772*
G01*
X256228*
G75*
G02X254457Y404331J1772*
G01*
Y420079*
G75*
G02X255417Y421654I1772*
G01*
X196583*
X208787Y323031D02*
G75*
G02X210559Y321260J-1772D01*
G01*
Y305512*
G75*
G02X208787Y303740I-1772*
G01*
X200913*
G75*
G02X199142Y305512J1772*
G01*
Y321260*
G75*
G02X200913Y323031I1772*
G01*
X208787*
Y342717D02*
G75*
G02X210559Y340945J-1772D01*
G01*
Y325197*
G75*
G02X208787Y323425I-1772*
G01*
X200913*
G75*
G02X199142Y325197J1772*
G01*
Y340945*
G75*
G02X200913Y342717I1772*
G01*
X208787*
Y362402D02*
G75*
G02X210559Y360630J-1772D01*
G01*
Y344882*
G75*
G02X208787Y343110I-1772*
G01*
X200913*
G75*
G02X199142Y344882J1772*
G01*
Y360630*
G75*
G02X200913Y362402I1772*
G01*
X208787*
Y382087D02*
G75*
G02X210559Y380315J-1772D01*
G01*
Y364567*
G75*
G02X208787Y362795I-1772*
G01*
X200913*
G75*
G02X199142Y364567J1772*
G01*
Y380315*
G75*
G02X200913Y382087I1772*
G01*
X208787*
Y401772D02*
G75*
G02X210559Y400000J-1772D01*
G01*
Y384252*
G75*
G02X208787Y382480I-1772*
G01*
X200913*
G75*
G02X199142Y384252J1772*
G01*
Y400000*
G75*
G02X200913Y401772I1772*
G01*
X208787*
Y421457D02*
G75*
G02X210559Y419685J-1772D01*
G01*
Y403937*
G75*
G02X208787Y402165I-1772*
G01*
X200913*
G75*
G02X199142Y403937J1772*
G01*
Y419685*
G75*
G02X200913Y421457I1772*
G01*
X208787*
X264102Y402362D02*
G75*
G02X265874Y400591J-1772D01*
G01*
Y384843*
G75*
G02X264102Y383071I-1772*
G01*
X256228*
G75*
G02X254457Y384843J1772*
G01*
Y400591*
G75*
G02X256228Y402362I1772*
G01*
X264102*
Y323228D02*
G75*
G02X265874Y321457J-1772D01*
G01*
Y307087*
G75*
G02X264102Y305315I-1772*
G01*
X256228*
G75*
G02X254457Y307087J1772*
G01*
Y321457*
G75*
G02X256228Y323228I1772*
G01*
X264102*
Y343110D02*
G75*
G02X265874Y341339J-1772D01*
G01*
Y325591*
G75*
G02X264102Y323819I-1772*
G01*
X256228*
G75*
G02X254457Y325591J1772*
G01*
Y341339*
G75*
G02X256228Y343110I1772*
G01*
X264102*
X196780Y313386D02*
G36*
Y303740D01*
X200913*
G75*
G02X199142Y305512J1772*
G01*
Y313386*
X196780*
G37*
X210559D02*
G36*
Y305512D01*
G75*
G02X208787Y303740I-1772*
G01*
X268039*
Y313386*
X265874*
Y307087*
G75*
G02X264102Y305315I-1772*
G01*
X256228*
G75*
G02X254457Y307087J1772*
G01*
Y313386*
X210559*
G37*
X196780Y333071D02*
G36*
Y313386D01*
X199142*
Y321260*
G75*
G02X200913Y323031I1772*
G01*
X208787*
G75*
G02X210559Y321260J-1772*
G01*
Y313386*
X254457*
Y321457*
G75*
G02X256228Y323228I1772*
G01*
X264102*
G75*
G02X265874Y321457J-1772*
G01*
Y313386*
X268039*
Y333071*
X265874*
Y325591*
G75*
G02X264102Y323819I-1772*
G01*
X256228*
G75*
G02X254457Y325591J1772*
G01*
Y333071*
X210559*
Y325197*
G75*
G02X208787Y323425I-1772*
G01*
X200913*
G75*
G02X199142Y325197J1772*
G01*
Y333071*
X196780*
G37*
Y352756D02*
G36*
Y333071D01*
X199142*
Y340945*
G75*
G02X200913Y342717I1772*
G01*
X208787*
G75*
G02X210559Y340945J-1772*
G01*
Y333071*
X254457*
Y341339*
G75*
G02X256228Y343110I1772*
G01*
X264102*
G75*
G02X265874Y341339J-1772*
G01*
Y333071*
X268039*
Y350787*
X265874*
Y345276*
G75*
G02X264102Y343504I-1772*
G01*
X256228*
G75*
G02X254457Y345276J1772*
G01*
Y350787*
X222567*
Y352756*
X210559*
Y344882*
G75*
G02X208787Y343110I-1772*
G01*
X200913*
G75*
G02X199142Y344882J1772*
G01*
Y352756*
X196780*
G37*
Y372441D02*
G36*
Y352756D01*
X199142*
Y360630*
G75*
G02X200913Y362402I1772*
G01*
X208787*
G75*
G02X210559Y360630J-1772*
G01*
Y352756*
X222567*
Y372441*
X210559*
Y364567*
G75*
G02X208787Y362795I-1772*
G01*
X200913*
G75*
G02X199142Y364567J1772*
G01*
Y372441*
X196780*
G37*
Y392126D02*
G36*
Y372441D01*
X199142*
Y380315*
G75*
G02X200913Y382087I1772*
G01*
X208787*
G75*
G02X210559Y380315J-1772*
G01*
Y372441*
X222567*
Y374409*
X254457*
Y380906*
G75*
G02X256228Y382677I1772*
G01*
X264102*
G75*
G02X265874Y380906J-1772*
G01*
Y374409*
X268039*
Y392126*
X265874*
Y384843*
G75*
G02X264102Y383071I-1772*
G01*
X256228*
G75*
G02X254457Y384843J1772*
G01*
Y392126*
X210559*
Y384252*
G75*
G02X208787Y382480I-1772*
G01*
X200913*
G75*
G02X199142Y384252J1772*
G01*
Y392126*
X196780*
G37*
Y411811D02*
G36*
Y392126D01*
X199142*
Y400000*
G75*
G02X200913Y401772I1772*
G01*
X208787*
G75*
G02X210559Y400000J-1772*
G01*
Y392126*
X254457*
Y400591*
G75*
G02X256228Y402362I1772*
G01*
X264102*
G75*
G02X265874Y400591J-1772*
G01*
Y392126*
X268039*
Y411811*
X265874*
Y404331*
G75*
G02X264102Y402559I-1772*
G01*
X256228*
G75*
G02X254457Y404331J1772*
G01*
Y411811*
X210559*
Y403937*
G75*
G02X208787Y402165I-1772*
G01*
X200913*
G75*
G02X199142Y403937J1772*
G01*
Y411811*
X196780*
G37*
Y421457D02*
G36*
Y411811D01*
X199142*
Y419685*
G75*
G02X200913Y421457I1772*
G01*
X196780*
G37*
X210559Y419685D02*
G36*
Y411811D01*
X254457*
Y420079*
Y420079*
G75*
G02X255115Y421457I1771*
G01*
X208787*
G75*
G02X210559Y419685J-1772*
G01*
G37*
X265874Y420079D02*
G36*
Y411811D01*
X268039*
Y421457*
X265216*
G75*
G02X265874Y420079I-1113J-1378*
G01*
Y420079*
G37*
X200913Y551772D02*
Y433661D01*
X268236*
Y480906*
X265874*
Y479134*
G75*
G02X264102Y477362I-1772*
G01*
X256228*
G75*
G02X254457Y479134J1772*
G01*
Y480906*
X224535*
Y504528*
X254457*
Y514567*
G75*
G02X256228Y516339I1772*
G01*
X264102*
G75*
G02X265874Y514567J-1772*
G01*
Y504528*
X268236*
Y551772*
X265677*
Y537992*
G75*
G02X263906Y536220I-1772*
G01*
X264102*
G75*
G02X265874Y534449J-1772*
G01*
Y518701*
G75*
G02X264102Y516929I-1772*
G01*
X256228*
G75*
G02X254457Y518701J1772*
G01*
Y534449*
G75*
G02X256228Y536220I1772*
G01*
X256031*
G75*
G02X254260Y537992J1772*
G01*
Y551772*
X200913*
X210756Y453150D02*
G75*
G02X212528Y451378J-1772D01*
G01*
Y435630*
G75*
G02X210756Y433858I-1772*
G01*
X202882*
G75*
G02X201110Y435630J1772*
G01*
Y451378*
G75*
G02X202882Y453150I1772*
G01*
X210756*
Y472835D02*
G75*
G02X212528Y471063J-1772D01*
G01*
Y455315*
G75*
G02X210756Y453543I-1772*
G01*
X202882*
G75*
G02X201110Y455315J1772*
G01*
Y471063*
G75*
G02X202882Y472835I1772*
G01*
X210756*
Y492520D02*
G75*
G02X212528Y490748J-1772D01*
G01*
Y475000*
G75*
G02X210756Y473228I-1772*
G01*
X202882*
G75*
G02X201110Y475000J1772*
G01*
Y490748*
G75*
G02X202882Y492520I1772*
G01*
X210756*
Y512205D02*
G75*
G02X212528Y510433J-1772D01*
G01*
Y494685*
G75*
G02X210756Y492913I-1772*
G01*
X202882*
G75*
G02X201110Y494685J1772*
G01*
Y510433*
G75*
G02X202882Y512205I1772*
G01*
X210756*
Y531890D02*
G75*
G02X212528Y530118J-1772D01*
G01*
Y514370*
G75*
G02X210756Y512598I-1772*
G01*
X202882*
G75*
G02X201110Y514370J1772*
G01*
Y530118*
G75*
G02X202882Y531890I1772*
G01*
X210756*
Y551575D02*
G75*
G02X212528Y549803J-1772D01*
G01*
Y534055*
G75*
G02X210756Y532283I-1772*
G01*
X202882*
G75*
G02X201110Y534055J1772*
G01*
Y549803*
G75*
G02X202882Y551575I1772*
G01*
X210756*
X263906Y476772D02*
G75*
G02X265677Y475000J-1772D01*
G01*
Y459252*
G75*
G02X263906Y457480I-1772*
G01*
X256031*
G75*
G02X254260Y459252J1772*
G01*
Y475000*
G75*
G02X256031Y476772I1772*
G01*
X263906*
X264102Y457283D02*
G75*
G02X265874Y455512J-1772D01*
G01*
Y439764*
G75*
G02X264102Y437992I-1772*
G01*
X256228*
G75*
G02X254457Y439764J1772*
G01*
Y455512*
G75*
G02X256228Y457283I1772*
G01*
X264102*
X201110Y435630D02*
G36*
Y433858D01*
X202882*
G75*
G02X201110Y435630J1772*
G01*
G37*
X212528Y443504D02*
G36*
Y435630D01*
G75*
G02X210756Y433858I-1772*
G01*
X268039*
Y443504*
X265874*
Y439764*
G75*
G02X264102Y437992I-1772*
G01*
X256228*
G75*
G02X254457Y439764J1772*
G01*
Y443504*
X212528*
G37*
X201110Y455315D02*
G36*
Y451378D01*
G75*
G02X202882Y453150I1772*
G01*
X210756*
G75*
G02X212528Y451378J-1772*
G01*
Y443504*
X254457*
Y455512*
G75*
G02X256228Y457283I1772*
G01*
X264102*
G75*
G02X265874Y455512J-1772*
G01*
Y443504*
X268039*
Y463189*
X265677*
Y459252*
G75*
G02X263906Y457480I-1772*
G01*
X256031*
G75*
G02X254260Y459252J1772*
G01*
Y463189*
X212528*
Y455315*
G75*
G02X210756Y453543I-1772*
G01*
X202882*
G75*
G02X201110Y455315J1772*
G01*
G37*
Y475000D02*
G36*
Y471063D01*
G75*
G02X202882Y472835I1772*
G01*
X210756*
G75*
G02X212528Y471063J-1772*
G01*
Y463189*
X254260*
Y475000*
G75*
G02X256031Y476772I1772*
G01*
X263906*
G75*
G02X265677Y475000J-1772*
G01*
Y463189*
X268039*
Y480906*
X265874*
Y479134*
X265739Y478456*
X265355Y477881*
X264780Y477497*
X264102Y477362*
X256228*
X255550Y477497*
X254976Y477881*
X254592Y478456*
X254457Y479134*
Y480906*
X224535*
Y482874*
X212528*
Y475000*
G75*
G02X210756Y473228I-1772*
G01*
X202882*
G75*
G02X201110Y475000J1772*
G01*
G37*
Y494685D02*
G36*
Y490748D01*
G75*
G02X202882Y492520I1772*
G01*
X210756*
G75*
G02X212528Y490748J-1772*
G01*
Y482874*
X224535*
Y502559*
X212528*
Y494685*
G75*
G02X210756Y492913I-1772*
G01*
X202882*
G75*
G02X201110Y494685J1772*
G01*
G37*
Y514370D02*
G36*
Y510433D01*
G75*
G02X202882Y512205I1772*
G01*
X210756*
G75*
G02X212528Y510433J-1772*
G01*
Y502559*
X224535*
Y504528*
X254457*
Y514567*
X254592Y515245*
X254976Y515820*
X255550Y516204*
X256228Y516339*
X264102*
X264780Y516204*
X265355Y515820*
X265739Y515245*
X265874Y514567*
Y504528*
X268039*
Y522244*
X265874*
Y518701*
X265739Y518023*
X265355Y517448*
X264780Y517064*
X264102Y516929*
X256228*
X255550Y517064*
X254976Y517448*
X254592Y518023*
X254457Y518701*
Y522244*
X212528*
Y514370*
G75*
G02X210756Y512598I-1772*
G01*
X202882*
G75*
G02X201110Y514370J1772*
G01*
G37*
Y534055D02*
G36*
Y530118D01*
G75*
G02X202882Y531890I1772*
G01*
X210756*
G75*
G02X212528Y530118J-1772*
G01*
Y522244*
X254457*
Y534449*
X254592Y535127*
X254976Y535702*
X255550Y536085*
X256228Y536220*
X256031*
X255354Y536356*
X254779Y536739*
X254395Y537314*
X254260Y537992*
Y541929*
X212528*
Y534055*
G75*
G02X210756Y532283I-1772*
G01*
X202882*
G75*
G02X201110Y534055J1772*
G01*
G37*
X263906Y536220D02*
G36*
X264102D01*
X264780Y536085*
X265355Y535702*
X265739Y535127*
X265874Y534449*
Y522244*
X268039*
Y541929*
X265677*
Y537992*
X265542Y537314*
X265158Y536739*
X264583Y536356*
X263906Y536220*
G37*
X201110Y551575D02*
G36*
Y549803D01*
G75*
G02X202882Y551575I1772*
G01*
X201110*
G37*
X212528Y549803D02*
G36*
Y541929D01*
X254260*
Y551575*
X210756*
G75*
G02X212528Y549803J-1772*
G01*
G37*
X265677Y551575D02*
G36*
Y541929D01*
X268039*
Y551575*
X265677*
G37*
X266071Y350787D02*
Y303543D01*
X321189*
Y421654*
X266071*
Y374409*
X297567*
Y350787*
X266071*
X319220Y323031D02*
G75*
G02X320992Y321260J-1772D01*
G01*
Y305512*
G75*
G02X319220Y303740I-1772*
G01*
X311346*
G75*
G02X309575Y305512J1772*
G01*
Y321260*
G75*
G02X311346Y323031I1772*
G01*
X319220*
Y342717D02*
G75*
G02X320992Y340945J-1772D01*
G01*
Y325197*
G75*
G02X319220Y323425I-1772*
G01*
X311346*
G75*
G02X309575Y325197J1772*
G01*
Y340945*
G75*
G02X311346Y342717I1772*
G01*
X319220*
Y362402D02*
G75*
G02X320992Y360630J-1772D01*
G01*
Y344882*
G75*
G02X319220Y343110I-1772*
G01*
X311346*
G75*
G02X309575Y344882J1772*
G01*
Y360630*
G75*
G02X311346Y362402I1772*
G01*
X319220*
Y382087D02*
G75*
G02X320992Y380315J-1772D01*
G01*
Y364567*
G75*
G02X319220Y362795I-1772*
G01*
X311346*
G75*
G02X309575Y364567J1772*
G01*
Y380315*
G75*
G02X311346Y382087I1772*
G01*
X319220*
Y401772D02*
G75*
G02X320992Y400000J-1772D01*
G01*
Y384252*
G75*
G02X319220Y382480I-1772*
G01*
X311346*
G75*
G02X309575Y384252J1772*
G01*
Y400000*
G75*
G02X311346Y401772I1772*
G01*
X319220*
Y421457D02*
G75*
G02X320992Y419685J-1772D01*
G01*
Y403937*
G75*
G02X319220Y402165I-1772*
G01*
X311346*
G75*
G02X309575Y403937J1772*
G01*
Y419685*
G75*
G02X311346Y421457I1772*
G01*
X319220*
X266268Y313386D02*
G36*
Y303740D01*
X311346*
G75*
G02X309575Y305512J1772*
G01*
Y313386*
X266268*
G37*
X319220Y303740D02*
G36*
X320992D01*
Y305512*
G75*
G02X319220Y303740I-1772*
G01*
G37*
X266268Y333071D02*
G36*
Y313386D01*
X309575*
Y321260*
G75*
G02X311346Y323031I1772*
G01*
X319220*
G75*
G02X320992Y321260J-1772*
G01*
Y325197*
G75*
G02X319220Y323425I-1772*
G01*
X311346*
G75*
G02X309575Y325197J1772*
G01*
Y333071*
X266268*
G37*
Y350787D02*
G36*
Y333071D01*
X309575*
Y340945*
G75*
G02X311346Y342717I1772*
G01*
X319220*
G75*
G02X320992Y340945J-1772*
G01*
Y344882*
G75*
G02X319220Y343110I-1772*
G01*
X311346*
G75*
G02X309575Y344882J1772*
G01*
Y352756*
X297567*
Y350787*
X266268*
G37*
X297567Y372441D02*
G36*
Y352756D01*
X309575*
Y360630*
G75*
G02X311346Y362402I1772*
G01*
X319220*
G75*
G02X320992Y360630J-1772*
G01*
Y364567*
G75*
G02X319220Y362795I-1772*
G01*
X311346*
G75*
G02X309575Y364567J1772*
G01*
Y372441*
X297567*
G37*
X266268Y392126D02*
G36*
Y374409D01*
X297567*
Y372441*
X309575*
Y380315*
G75*
G02X311346Y382087I1772*
G01*
X319220*
G75*
G02X320992Y380315J-1772*
G01*
Y384252*
G75*
G02X319220Y382480I-1772*
G01*
X311346*
G75*
G02X309575Y384252J1772*
G01*
Y392126*
X266268*
G37*
Y411811D02*
G36*
Y392126D01*
X309575*
Y400000*
G75*
G02X311346Y401772I1772*
G01*
X319220*
G75*
G02X320992Y400000J-1772*
G01*
Y403937*
G75*
G02X319220Y402165I-1772*
G01*
X311346*
G75*
G02X309575Y403937J1772*
G01*
Y411811*
X266268*
G37*
Y421457D02*
G36*
Y411811D01*
X309575*
Y419685*
G75*
G02X311346Y421457I1772*
G01*
X266268*
G37*
X319220D02*
G36*
G75*
G02X320992Y419685J-1772D01*
G01*
Y421457*
X319220*
G37*
X266071Y480906D02*
Y433661D01*
X321189*
Y551772*
X266071*
Y504528*
X297567*
Y480906*
X266071*
X319220Y453150D02*
G75*
G02X320992Y451378J-1772D01*
G01*
Y435630*
G75*
G02X319220Y433858I-1772*
G01*
X311346*
G75*
G02X309575Y435630J1772*
G01*
Y451378*
G75*
G02X311346Y453150I1772*
G01*
X319220*
Y472835D02*
G75*
G02X320992Y471063J-1772D01*
G01*
Y455315*
G75*
G02X319220Y453543I-1772*
G01*
X311346*
G75*
G02X309575Y455315J1772*
G01*
Y471063*
G75*
G02X311346Y472835I1772*
G01*
X319220*
Y492520D02*
G75*
G02X320992Y490748J-1772D01*
G01*
Y475000*
G75*
G02X319220Y473228I-1772*
G01*
X311346*
G75*
G02X309575Y475000J1772*
G01*
Y490748*
G75*
G02X311346Y492520I1772*
G01*
X319220*
Y512205D02*
G75*
G02X320992Y510433J-1772D01*
G01*
Y494685*
G75*
G02X319220Y492913I-1772*
G01*
X311346*
G75*
G02X309575Y494685J1772*
G01*
Y510433*
G75*
G02X311346Y512205I1772*
G01*
X319220*
Y531890D02*
G75*
G02X320992Y530118J-1772D01*
G01*
Y514370*
G75*
G02X319220Y512598I-1772*
G01*
X311346*
G75*
G02X309575Y514370J1772*
G01*
Y530118*
G75*
G02X311346Y531890I1772*
G01*
X319220*
Y551575D02*
G75*
G02X320992Y549803J-1772D01*
G01*
Y534055*
G75*
G02X319220Y532283I-1772*
G01*
X311346*
G75*
G02X309575Y534055J1772*
G01*
Y549803*
G75*
G02X311346Y551575I1772*
G01*
X319220*
X266268Y443504D02*
G36*
Y433858D01*
X311346*
G75*
G02X309575Y435630J1772*
G01*
Y443504*
X266268*
G37*
X319220Y433858D02*
G36*
X320992D01*
Y435630*
G75*
G02X319220Y433858I-1772*
G01*
G37*
X266268Y463189D02*
G36*
Y443504D01*
X309575*
Y451378*
G75*
G02X311346Y453150I1772*
G01*
X319220*
G75*
G02X320992Y451378J-1772*
G01*
Y455315*
G75*
G02X319220Y453543I-1772*
G01*
X311346*
G75*
G02X309575Y455315J1772*
G01*
Y463189*
X266268*
G37*
Y480906D02*
G36*
Y463189D01*
X309575*
Y471063*
G75*
G02X311346Y472835I1772*
G01*
X319220*
G75*
G02X320992Y471063J-1772*
G01*
Y475000*
G75*
G02X319220Y473228I-1772*
G01*
X311346*
G75*
G02X309575Y475000J1772*
G01*
Y482874*
X297567*
Y480906*
X266268*
G37*
X297567Y502559D02*
G36*
Y482874D01*
X309575*
Y490748*
G75*
G02X311346Y492520I1772*
G01*
X319220*
G75*
G02X320992Y490748J-1772*
G01*
Y494685*
G75*
G02X319220Y492913I-1772*
G01*
X311346*
G75*
G02X309575Y494685J1772*
G01*
Y502559*
X297567*
G37*
X266268Y522244D02*
G36*
Y504528D01*
X297567*
Y502559*
X309575*
Y510433*
G75*
G02X311346Y512205I1772*
G01*
X319220*
G75*
G02X320992Y510433J-1772*
G01*
Y514370*
G75*
G02X319220Y512598I-1772*
G01*
X311346*
G75*
G02X309575Y514370J1772*
G01*
Y522244*
X266268*
G37*
Y541929D02*
G36*
Y522244D01*
X309575*
Y530118*
G75*
G02X311346Y531890I1772*
G01*
X319220*
G75*
G02X320992Y530118J-1772*
G01*
Y534055*
G75*
G02X319220Y532283I-1772*
G01*
X311346*
G75*
G02X309575Y534055J1772*
G01*
Y541929*
X266268*
G37*
Y551575D02*
G36*
Y541929D01*
X309575*
Y549803*
G75*
G02X311346Y551575I1772*
G01*
X266268*
G37*
X319220D02*
G36*
G75*
G02X320992Y549803J-1772D01*
G01*
Y551575*
X319220*
G37*
X321189Y551772D02*
Y433661D01*
X368433*
Y551772*
X321189*
X333197Y504528D02*
X356819D01*
Y480906*
X333197*
Y504528*
X321386Y492717D02*
G36*
Y433858D01*
X368236*
Y492717*
X356819*
Y480906*
X333197*
Y492717*
X321386*
G37*
Y551575D02*
G36*
Y492717D01*
X333197*
Y504528*
X356819*
Y492717*
X368236*
Y551575*
X321386*
G37*
X409772Y465157D02*
Y433661D01*
X457016*
Y551772*
X409772*
Y520276*
X368433*
Y465157*
X409772*
X421780Y504528D02*
X445402D01*
Y480906*
X421780*
Y504528*
X368630Y492717D02*
G36*
Y465157D01*
X409772*
Y433858*
X456819*
Y492717*
X445402*
Y480906*
X421780*
Y492717*
X368630*
G37*
Y520276D02*
G36*
Y492717D01*
X421780*
Y504528*
X445402*
Y492717*
X456819*
Y551575*
X409772*
Y520276*
X368630*
G37*
X413906Y291142D02*
Y98228D01*
X414160*
G75*
G02X415480Y98819I1320J-1181*
G01*
X431228*
G75*
G02X432549Y98228J-1772*
G01*
X433845*
G75*
G02X435165Y98819I1320J-1181*
G01*
X450913*
G75*
G02X452234Y98228J-1772*
G01*
X453530*
G75*
G02X454850Y98819I1320J-1181*
G01*
X470598*
G75*
G02X471919Y98228J-1772*
G01*
X473215*
G75*
G02X474535Y98819I1320J-1181*
G01*
X490283*
G75*
G02X491604Y98228J-1772*
G01*
X492900*
G75*
G02X494220Y98819I1320J-1181*
G01*
X500520*
Y291142*
X413906*
X428425Y110571D02*
G75*
G02X436000I3787D01*
G01*
Y105571*
G75*
G02X428425I-3787*
G01*
Y110571*
Y283799D02*
G75*
G02X436000I3787D01*
G01*
Y278799*
G75*
G02X428425I-3787*
G01*
Y283799*
X447961Y199148D02*
G75*
G02X448650Y197441I-1772J-1707D01*
G01*
G75*
G02X443728I-2461*
G01*
G75*
G02X444417Y199148I2461*
G01*
Y201431*
X438270Y207579*
G75*
G02X435854Y210039I45J2460*
G01*
G75*
G02X440775Y210085I2461*
G01*
X447441Y203419*
G75*
G02X447961Y202165I-1252J-1254*
G01*
Y199148*
X438425Y110571D02*
G75*
G02X446000I3787D01*
G01*
Y105571*
G75*
G02X438425I-3787*
G01*
Y110571*
Y283799D02*
G75*
G02X446000I3787D01*
G01*
Y278799*
G75*
G02X438425I-3787*
G01*
Y283799*
X455031Y202559D02*
G75*
G02X459394I2181D01*
G01*
G75*
G02X455031I-2181*
G01*
Y210433D02*
G75*
G02X459394I2181D01*
G01*
G75*
G02X455031I-2181*
G01*
X458969Y206496D02*
G75*
G02X463331I2181D01*
G01*
G75*
G02X458969I-2181*
G01*
X462906Y202559D02*
G75*
G02X467268I2181D01*
G01*
G75*
G02X462906I-2181*
G01*
Y210433D02*
G75*
G02X467268I2181D01*
G01*
G75*
G02X462906I-2181*
G01*
X475520Y222967D02*
G75*
G02X476209Y221260I-1772J-1707D01*
G01*
G75*
G02X471287I-2461*
G01*
G75*
G02X471976Y222967I2461*
G01*
Y244345*
X468978Y247343*
G75*
G02X466563Y249803I45J2460*
G01*
G75*
G02X471484Y249848I2461*
G01*
X475000Y246332*
G75*
G02X475520Y245079I-1252J-1254*
G01*
Y222967*
X468425Y110571D02*
G75*
G02X476000I3787D01*
G01*
Y105571*
G75*
G02X468425I-3787*
G01*
Y110571*
Y283799D02*
G75*
G02X476000I3787D01*
G01*
Y278799*
G75*
G02X468425I-3787*
G01*
Y283799*
X481583Y227906D02*
G75*
G02X482114Y226378I-1929J-1528D01*
G01*
G75*
G02X477193I-2461*
G01*
G75*
G02X477724Y227906I2461*
G01*
Y248181*
G75*
G02X477114Y249803I1850J1622*
G01*
G75*
G02X482035I2461*
G01*
G75*
G02X481583Y248381I-2461*
G01*
Y227906*
X478425Y110571D02*
G75*
G02X486000I3787D01*
G01*
Y105571*
G75*
G02X478425I-3787*
G01*
Y110571*
Y283799D02*
G75*
G02X486000I3787D01*
G01*
Y278799*
G75*
G02X478425I-3787*
G01*
Y283799*
X490236Y201772D02*
G75*
G02X496630I3197D01*
G01*
G75*
G02X490236I-3197*
G01*
X490894Y250197D02*
G75*
G02X495815I2461D01*
G01*
G75*
G02X495126Y248489I-2461*
G01*
Y218440*
G75*
G02X495815Y216732I-1772J-1707*
G01*
G75*
G02X490894I-2461*
G01*
G75*
G02X491583Y218440I2461*
G01*
Y248489*
G75*
G02X490894Y250197I1772J1707*
G01*
X414102Y108071D02*
G36*
Y98425D01*
X414367*
G75*
G02X415480Y98819I1113J-1378*
G01*
X431228*
G75*
G02X432342Y98425J-1771*
G01*
X434052*
G75*
G02X435165Y98819I1113J-1378*
G01*
X450913*
G75*
G02X452027Y98425J-1771*
G01*
X453737*
G75*
G02X454850Y98819I1113J-1378*
G01*
X470598*
G75*
G02X471712Y98425J-1771*
G01*
X473422*
G75*
G02X474535Y98819I1113J-1378*
G01*
X490283*
G75*
G02X491397Y98425J-1771*
G01*
X493107*
G75*
G02X494220Y98819I1113J-1378*
G01*
X500323*
Y108071*
X486000*
Y105571*
G75*
G02X478425I-3787*
G01*
Y108071*
X476000*
Y105571*
G75*
G02X468425I-3787*
G01*
Y108071*
X446000*
Y105571*
G75*
G02X438425I-3787*
G01*
Y108071*
X436000*
Y105571*
G75*
G02X428425I-3787*
G01*
Y108071*
X414102*
G37*
Y203740D02*
G36*
Y108071D01*
X428425*
Y110571*
G75*
G02X436000I3787*
G01*
Y108071*
X438425*
Y110571*
G75*
G02X446000I3787*
G01*
Y108071*
X468425*
Y110571*
G75*
G02X476000I3787*
G01*
Y108071*
X478425*
Y110571*
G75*
G02X486000I3787*
G01*
Y108071*
X500323*
Y203740*
X495952*
G75*
G02X496630Y201772I-2519J-1969*
G01*
G75*
G02X490236I-3197*
G01*
G75*
G02X490914Y203740I3197*
G01*
X466920*
G75*
G02X467268Y202559I-1833J-1181*
G01*
G75*
G02X462906I-2181*
G01*
G75*
G02X463253Y203740I2181J0*
G01*
X459046*
G75*
G02X459394Y202559I-1833J-1181*
G01*
G75*
G02X455031I-2181*
G01*
G75*
G02X455379Y203740I2181J0*
G01*
X447120*
X447441Y203419*
G75*
G02X447961Y202165I-1252J-1254*
G01*
Y199148*
G75*
G02X448650Y197441I-1772J-1708*
G01*
G75*
G02X443728I-2461*
G01*
G75*
G02X444417Y199148I2461J0*
G01*
Y201431*
X442109Y203740*
X414102*
G37*
Y206496D02*
G36*
Y203740D01*
X442109*
X439353Y206496*
X414102*
G37*
X444364D02*
G36*
X447120Y203740D01*
X455379*
G75*
G02X459046I1833J-1181*
G01*
X463253*
G75*
G02X466920I1833J-1181*
G01*
X490914*
G75*
G02X495952I2519J-1969*
G01*
X500323*
Y206496*
X463331*
G75*
G02X458969I-2181*
G01*
X444364*
G37*
X414102Y210433D02*
G36*
Y206496D01*
X439353*
X438270Y207579*
G75*
G02X435854Y210039I45J2460*
G01*
Y210039*
G75*
G02X435886Y210433I2461J1*
G01*
X414102*
G37*
X440744D02*
G36*
G75*
G02X440775Y210085I-2429J-393D01*
G01*
X444364Y206496*
X458969*
G75*
G02X463331I2181*
G01*
X500323*
Y210433*
X467268*
G75*
G02X462906I-2181*
G01*
X459394*
G75*
G02X455031I-2181*
G01*
X440744*
G37*
X414102Y235531D02*
G36*
Y210433D01*
X435886*
G75*
G02X440744I2429J-394*
G01*
X455031*
G75*
G02X459394I2181*
G01*
X462906*
G75*
G02X467268I2181*
G01*
X500323*
Y235531*
X495126*
Y218440*
G75*
G02X495815Y216732I-1772J-1708*
G01*
G75*
G02X490894I-2461*
G01*
G75*
G02X491583Y218440I2461J0*
G01*
Y235531*
X481583*
Y227906*
G75*
G02X482114Y226378I-1928J-1527*
G01*
Y226378*
G75*
G02X477193I-2461*
G01*
Y226378*
G75*
G02X477724Y227906I2460*
G01*
Y235531*
X475520*
Y222967*
G75*
G02X476209Y221260I-1772J-1708*
G01*
G75*
G02X471287I-2461*
G01*
G75*
G02X471976Y222967I2461J0*
G01*
Y235531*
X414102*
G37*
Y281299D02*
G36*
Y235531D01*
X471976*
Y244345*
X468978Y247343*
G75*
G02X466563Y249803I45J2460*
G01*
Y249803*
G75*
G02X471484Y249848I2461*
G01*
X475000Y246332*
G75*
G02X475520Y245079I-1252J-1254*
G01*
Y235531*
X477724*
Y248181*
G75*
G02X477114Y249802I1849J1621*
G01*
G75*
G02Y249803I3007J0*
G01*
G75*
G02X482035I2461*
G01*
G75*
G02Y249802I-2506J0*
G01*
G75*
G02X481583Y248381I-2457*
G01*
Y235531*
X491583*
Y248489*
G75*
G02X490894Y250197I1772J1708*
G01*
G75*
G02X495815I2461*
G01*
G75*
G02X495126Y248489I-2461J0*
G01*
Y235531*
X500323*
Y281299*
X486000*
Y278799*
G75*
G02X478425I-3787*
G01*
Y281299*
X476000*
Y278799*
G75*
G02X468425I-3787*
G01*
Y281299*
X446000*
Y278799*
G75*
G02X438425I-3787*
G01*
Y281299*
X436000*
Y278799*
G75*
G02X428425I-3787*
G01*
Y281299*
X414102*
G37*
Y290945D02*
G36*
Y281299D01*
X428425*
Y283799*
G75*
G02X436000I3787*
G01*
Y281299*
X438425*
Y283799*
G75*
G02X446000I3787*
G01*
Y281299*
X468425*
Y283799*
G75*
G02X476000I3787*
G01*
Y281299*
X478425*
Y283799*
G75*
G02X486000I3787*
G01*
Y281299*
X500323*
Y290945*
X414102*
G37*
X457016Y551772D02*
Y433661D01*
X506794*
G75*
G02X507606Y433858I812J-1575*
G01*
X512134*
Y480906*
X480638*
Y504528*
X512134*
Y551772*
X457016*
X466858Y453150D02*
G75*
G02X468630Y451378J-1772D01*
G01*
Y435630*
G75*
G02X466858Y433858I-1772*
G01*
X458984*
G75*
G02X457213Y435630J1772*
G01*
Y451378*
G75*
G02X458984Y453150I1772*
G01*
X466858*
Y472835D02*
G75*
G02X468630Y471063J-1772D01*
G01*
Y455315*
G75*
G02X466858Y453543I-1772*
G01*
X458984*
G75*
G02X457213Y455315J1772*
G01*
Y471063*
G75*
G02X458984Y472835I1772*
G01*
X466858*
Y492520D02*
G75*
G02X468630Y490748J-1772D01*
G01*
Y475000*
G75*
G02X466858Y473228I-1772*
G01*
X458984*
G75*
G02X457213Y475000J1772*
G01*
Y490748*
G75*
G02X458984Y492520I1772*
G01*
X466858*
Y512205D02*
G75*
G02X468630Y510433J-1772D01*
G01*
Y494685*
G75*
G02X466858Y492913I-1772*
G01*
X458984*
G75*
G02X457213Y494685J1772*
G01*
Y510433*
G75*
G02X458984Y512205I1772*
G01*
X466858*
Y531890D02*
G75*
G02X468630Y530118J-1772D01*
G01*
Y514370*
G75*
G02X466858Y512598I-1772*
G01*
X458984*
G75*
G02X457213Y514370J1772*
G01*
Y530118*
G75*
G02X458984Y531890I1772*
G01*
X466858*
Y551575D02*
G75*
G02X468630Y549803J-1772D01*
G01*
Y534055*
G75*
G02X466858Y532283I-1772*
G01*
X458984*
G75*
G02X457213Y534055J1772*
G01*
Y549803*
G75*
G02X458984Y551575I1772*
G01*
X466858*
X457213Y435630D02*
G36*
Y433858D01*
X458984*
G75*
G02X457213Y435630J1772*
G01*
G37*
X468630Y443504D02*
G36*
Y435630D01*
G75*
G02X466858Y433858I-1772*
G01*
X507606*
X511937*
Y443504*
X468630*
G37*
X457213Y455315D02*
G36*
Y451378D01*
G75*
G02X458984Y453150I1772*
G01*
X466858*
G75*
G02X468630Y451378J-1772*
G01*
Y443504*
X511937*
Y463189*
X468630*
Y455315*
G75*
G02X466858Y453543I-1772*
G01*
X458984*
G75*
G02X457213Y455315J1772*
G01*
G37*
Y475000D02*
G36*
Y471063D01*
G75*
G02X458984Y472835I1772*
G01*
X466858*
G75*
G02X468630Y471063J-1772*
G01*
Y463189*
X511937*
Y480906*
X480638*
Y482874*
X468630*
Y475000*
G75*
G02X466858Y473228I-1772*
G01*
X458984*
G75*
G02X457213Y475000J1772*
G01*
G37*
Y494685D02*
G36*
Y490748D01*
G75*
G02X458984Y492520I1772*
G01*
X466858*
G75*
G02X468630Y490748J-1772*
G01*
Y482874*
X480638*
Y502559*
X468630*
Y494685*
G75*
G02X466858Y492913I-1772*
G01*
X458984*
G75*
G02X457213Y494685J1772*
G01*
G37*
Y514370D02*
G36*
Y510433D01*
G75*
G02X458984Y512205I1772*
G01*
X466858*
G75*
G02X468630Y510433J-1772*
G01*
Y502559*
X480638*
Y504528*
X511937*
Y522244*
X468630*
Y514370*
G75*
G02X466858Y512598I-1772*
G01*
X458984*
G75*
G02X457213Y514370J1772*
G01*
G37*
Y534055D02*
G36*
Y530118D01*
G75*
G02X458984Y531890I1772*
G01*
X466858*
G75*
G02X468630Y530118J-1772*
G01*
Y522244*
X511937*
Y541929*
X468630*
Y534055*
G75*
G02X466858Y532283I-1772*
G01*
X458984*
G75*
G02X457213Y534055J1772*
G01*
G37*
Y551575D02*
G36*
Y549803D01*
G75*
G02X458984Y551575I1772*
G01*
X457213*
G37*
X468630Y549803D02*
G36*
Y541929D01*
X511937*
Y551575*
X466858*
G75*
G02X468630Y549803J-1772*
G01*
G37*
X458984Y335039D02*
Y303543D01*
X505835*
Y421654*
X458984*
Y390157*
X368433*
Y421654*
X321189*
Y303543*
X368433*
Y335039*
X458984*
X333197Y374606D02*
X356819D01*
Y350984*
X333197*
Y374606*
X321386Y362795D02*
G36*
Y303740D01*
X368433*
Y335039*
X458984*
Y303740*
X505638*
Y362795*
X356819*
Y350984*
X333197*
Y362795*
X321386*
G37*
Y421457D02*
G36*
Y362795D01*
X333197*
Y374606*
X356819*
Y362795*
X505638*
Y421457*
X458984*
Y390157*
X368433*
Y421457*
X321386*
G37*
D02*
D12*
X456728Y202559D02*
X454728D01*
X456728Y210433D02*
X454728D01*
X457213Y202075D02*
Y200075D01*
Y203043D02*
Y205043D01*
Y209949D02*
Y207949D01*
Y210917D02*
Y212917D01*
X457697Y202559D02*
X459697D01*
X457697Y210433D02*
X459697D01*
X460665Y206496D02*
X458665D01*
X461150Y206012D02*
Y204012D01*
Y206980D02*
Y208980D01*
X461634Y206496D02*
X463634D01*
X464602Y202559D02*
X462602D01*
X464602Y210433D02*
X462602D01*
X465087Y202075D02*
Y200075D01*
Y203043D02*
Y205043D01*
Y209949D02*
Y207949D01*
Y210917D02*
Y212917D01*
X465571Y202559D02*
X467571D01*
X465571Y210433D02*
X467571D01*
X491933Y201772D02*
X489933D01*
X493433Y200272D02*
Y198272D01*
Y203272D02*
Y205272D01*
X494933Y201772D02*
X496933D01*
D02*
D14*
X109575Y225748D03*
X109890Y220236D03*
X109969Y200197D03*
X113118Y373425D03*
X124929Y380118D03*
X126504Y212402D03*
X130047Y380118D03*
X141071Y367913D03*
Y373425D03*
X147370D03*
X165480Y39685D03*
Y49528D03*
Y59370D03*
Y66260D03*
Y73150D03*
Y82992D03*
Y92835D03*
Y102677D03*
X167016Y190748D03*
Y200591D03*
Y210433D03*
Y217323D03*
Y224213D03*
Y234055D03*
Y243898D03*
Y253740D03*
X170717Y44843D03*
Y97638D03*
X172252Y195906D03*
Y248701D03*
X175323Y39685D03*
Y49528D03*
Y92835D03*
Y102677D03*
X176858Y190748D03*
Y200591D03*
Y243898D03*
Y253740D03*
X180874Y44843D03*
Y97638D03*
X182409Y195906D03*
Y248701D03*
X185165Y39685D03*
Y49528D03*
Y92835D03*
Y102677D03*
X186701Y190748D03*
Y200591D03*
Y243898D03*
Y253740D03*
X190362Y44843D03*
Y97638D03*
X191898Y195906D03*
Y248701D03*
X195008Y39685D03*
Y49528D03*
Y92835D03*
Y102677D03*
X196543Y190748D03*
Y200591D03*
Y243898D03*
Y253740D03*
X200165Y44843D03*
Y97638D03*
X201701Y195906D03*
Y248701D03*
X204850Y39685D03*
Y49528D03*
Y59370D03*
Y82992D03*
Y92835D03*
Y102677D03*
X206386Y190748D03*
Y200591D03*
Y210433D03*
Y234055D03*
Y243898D03*
Y253740D03*
X214693Y39685D03*
Y49528D03*
Y59370D03*
Y82992D03*
Y92835D03*
Y102677D03*
X216228Y190748D03*
Y200591D03*
Y210433D03*
Y234055D03*
Y243898D03*
Y253740D03*
X224535Y39685D03*
Y49528D03*
Y59370D03*
Y82992D03*
Y92835D03*
Y102677D03*
X226071Y190748D03*
Y200591D03*
Y210433D03*
Y234055D03*
Y243898D03*
Y253740D03*
X234378Y39685D03*
Y49528D03*
Y59370D03*
Y82992D03*
Y92835D03*
Y102677D03*
X235913Y190748D03*
Y200591D03*
Y210433D03*
Y234055D03*
Y243898D03*
Y253740D03*
X242646Y59370D03*
X244220Y39685D03*
Y49528D03*
Y82992D03*
Y92835D03*
Y102677D03*
X245756Y190748D03*
Y200591D03*
Y210433D03*
Y234055D03*
Y243898D03*
Y253740D03*
X249614Y44173D03*
Y49370D03*
X254063Y82992D03*
Y92835D03*
Y102677D03*
X254378Y200591D03*
Y210433D03*
X254614Y39685D03*
Y49528D03*
X254811Y190748D03*
X255598Y234055D03*
Y243898D03*
Y253740D03*
X256425Y59370D03*
X259811Y186654D03*
X263236Y39685D03*
Y49528D03*
Y59370D03*
X263669Y82992D03*
Y92835D03*
Y102677D03*
X265441Y234055D03*
Y243898D03*
Y253740D03*
X265953Y186654D03*
X270323Y190748D03*
X270638Y230512D03*
X270756Y200591D03*
Y210433D03*
X271346Y234055D03*
X273079Y39685D03*
Y49528D03*
Y59370D03*
X273512Y82992D03*
Y92835D03*
Y102677D03*
X274575Y230512D03*
X275283Y234055D03*
Y243898D03*
Y253740D03*
X275520Y225984D03*
X278512Y230551D03*
X279378Y190748D03*
Y200591D03*
Y210433D03*
X279535Y224606D03*
X280559Y218701D03*
X282803Y215000D03*
X282921Y39685D03*
Y49528D03*
Y59370D03*
X283354Y82992D03*
Y92835D03*
Y102677D03*
X283787Y223228D03*
X284496Y218701D03*
X286307Y192992D03*
Y202835D03*
Y212677D03*
X286583Y216142D03*
X288433Y218740D03*
X289496Y82992D03*
X289969Y92835D03*
X292764Y39685D03*
Y49528D03*
Y59370D03*
X292843Y195709D03*
Y205551D03*
Y215394D03*
X293197Y102677D03*
X295913Y92677D03*
Y97520D03*
X302606Y39685D03*
Y49528D03*
Y59370D03*
X302685Y195709D03*
Y205551D03*
Y215394D03*
X302764Y239016D03*
Y248071D03*
X302843Y82795D03*
Y92638D03*
Y102480D03*
X312094Y214843D03*
X312213Y39685D03*
Y49528D03*
Y59370D03*
X312449Y82795D03*
Y92638D03*
Y102480D03*
X312528Y195709D03*
Y205551D03*
X312606Y239016D03*
Y248071D03*
X321189Y194134D03*
Y203976D03*
X322055Y39685D03*
Y49528D03*
Y59370D03*
X322291Y82795D03*
Y92638D03*
Y102480D03*
X324339Y234488D03*
Y243937D03*
X329339Y82795D03*
Y92638D03*
Y102480D03*
X329929Y39488D03*
Y49331D03*
Y59173D03*
X329969Y190787D03*
Y200630D03*
Y210472D03*
X332213Y234094D03*
Y243937D03*
X338236Y39488D03*
X339102Y44882D03*
Y48976D03*
X339181Y82795D03*
Y92638D03*
Y102480D03*
X339811Y190787D03*
Y200630D03*
Y210472D03*
X340756Y234291D03*
Y243937D03*
Y253780D03*
X347055Y39488D03*
Y49331D03*
Y59252D03*
X348630Y190787D03*
Y200630D03*
X349024Y82795D03*
Y92638D03*
Y102480D03*
X350598Y234094D03*
Y243937D03*
Y253780D03*
X352724Y54724D03*
X354299Y206024D03*
X355638Y59252D03*
X356898Y39488D03*
Y49331D03*
X358472Y190787D03*
Y200630D03*
X358866Y92638D03*
Y102480D03*
X360441Y243937D03*
Y253780D03*
X361858Y44724D03*
X363433Y196024D03*
X363906Y97402D03*
X365480Y248701D03*
X366740Y39488D03*
Y49331D03*
X368315Y190787D03*
Y200630D03*
X368709Y92638D03*
Y102480D03*
X370283Y243937D03*
Y253780D03*
X372016Y44724D03*
X373591Y196024D03*
X374063Y97402D03*
X375638Y248701D03*
X376583Y39488D03*
Y49331D03*
X378157Y190787D03*
Y200630D03*
X378551Y92638D03*
Y102480D03*
X380126Y243937D03*
Y253780D03*
X381504Y44724D03*
X383079Y196024D03*
X383551Y97402D03*
X385126Y248701D03*
X386425Y39488D03*
Y49331D03*
X388000Y190787D03*
Y200630D03*
X388394Y92638D03*
Y102480D03*
X389969Y243937D03*
Y253780D03*
X391307Y44724D03*
X392882Y196024D03*
X393354Y97402D03*
X394929Y248701D03*
X396268Y39488D03*
Y49331D03*
Y59173D03*
Y66063D03*
Y72953D03*
Y82795D03*
Y92638D03*
Y102480D03*
X397843Y190787D03*
Y200630D03*
Y210472D03*
Y217362D03*
Y224252D03*
Y234094D03*
Y243937D03*
Y253780D03*
X417252Y204331D03*
X446189Y197441D02*
Y202165D01*
X438315Y210039*
X446583Y209252D03*
X447370Y213386D03*
X457213Y202559D03*
Y210433D03*
X461150Y206496D03*
X465087Y202559D03*
Y210433D03*
X473748Y221260D02*
Y245079D01*
X469024Y249803*
X479654Y226378D02*
Y249724D01*
X479575Y249803*
X493354Y216732D02*
Y250197D01*
D02*
D15*
X60283Y277323D02*
Y268386D01*
X64102Y264567*
Y245472*
X66071Y243504*
X95008*
X97476Y245972*
X101622*
X121316Y217323D02*
Y221920D01*
X118236Y225000*
Y237402*
X111543Y244094*
X107606*
X105728Y245972*
X101622*
D02*
D16*
X426504Y43031D02*
Y24409D01*
X431622Y19291*
X529654*
X538315Y27953*
X523748Y120866D02*
Y113780D01*
X528079Y109449*
X538394*
X541858Y112913*
Y134567*
X547370Y140079*
X555165*
X555638Y139606*
X523748Y130866D02*
X520047D01*
X515087Y125906*
Y104646*
X518157Y101575*
X548157*
X555638Y109055*
Y119606*
X523748Y190866D02*
Y198819D01*
X528472Y203543*
X548945*
X556425Y196063*
Y170394*
X555638Y169606*
D02*
D17*
X13906Y307480D03*
Y327165D03*
Y338976D03*
Y386220D03*
Y398031D03*
Y417717D03*
X15402Y156850D03*
Y167087D03*
Y174961D03*
Y186772D03*
Y198583D03*
Y222205D03*
Y245827D03*
Y257638D03*
Y269449D03*
Y277323D03*
Y286772D03*
X15874Y437598D03*
Y457283D03*
Y469094D03*
Y516339D03*
Y528150D03*
Y547835D03*
X16189Y210394D03*
Y234016D03*
X17173Y25787D03*
Y33661D03*
Y45472D03*
Y57283D03*
Y69094D03*
Y80906D03*
Y92717D03*
Y104528D03*
Y116339D03*
Y128150D03*
Y136024D03*
X22882Y210000D03*
X23276Y234409D03*
X24417Y70551D03*
Y94173D03*
X25244Y156850D03*
Y165118D03*
Y186772D03*
Y198583D03*
Y245827D03*
Y257638D03*
Y277323D03*
Y286772D03*
X25717Y327165D03*
Y338976D03*
Y386220D03*
Y398031D03*
X27685Y457283D03*
Y469094D03*
Y516339D03*
Y528150D03*
X30953Y45472D03*
Y57283D03*
Y104528D03*
Y116339D03*
X32724Y204488D03*
X36661Y237953D03*
X37055Y156850D03*
Y198583D03*
Y245827D03*
Y255669D03*
Y286772D03*
X37528Y307480D03*
Y327165D03*
Y338976D03*
Y386220D03*
Y398031D03*
Y417717D03*
X38630Y188740D03*
X39496Y437598D03*
Y457283D03*
Y469094D03*
Y516339D03*
Y528150D03*
Y547835D03*
X42764Y45472D03*
Y57283D03*
Y104528D03*
Y116339D03*
X46504Y234016D03*
X46898Y210394D03*
X47370Y307480D03*
Y315354D03*
Y327165D03*
Y338976D03*
Y350787D03*
Y362598D03*
Y374409D03*
Y386220D03*
Y398031D03*
Y409843D03*
Y417717D03*
X48039Y70551D03*
Y94173D03*
X48866Y156850D03*
Y167087D03*
Y186772D03*
Y198583D03*
Y245827D03*
Y257638D03*
Y277323D03*
Y286772D03*
X49339Y437598D03*
Y445472D03*
Y457283D03*
Y469094D03*
Y480906D03*
Y492717D03*
Y504528D03*
Y516339D03*
Y528150D03*
Y539961D03*
Y547835D03*
X56543Y25787D03*
Y33661D03*
Y45472D03*
Y57283D03*
Y69094D03*
Y92717D03*
Y104528D03*
Y116339D03*
Y128150D03*
Y136024D03*
X58315Y204488D03*
Y237953D03*
Y245827D03*
Y253701D03*
Y261575D03*
X62252Y196614D03*
Y212362D03*
Y232047D03*
Y287165D03*
X67055Y307480D03*
Y315354D03*
Y327165D03*
Y338976D03*
Y350787D03*
Y362598D03*
Y374409D03*
Y386220D03*
Y398031D03*
Y409843D03*
Y417717D03*
X68157Y204488D03*
X68354Y57283D03*
Y69094D03*
Y92717D03*
Y104528D03*
X69024Y437598D03*
Y445472D03*
Y457283D03*
Y469094D03*
Y480906D03*
Y492717D03*
Y504528D03*
Y516339D03*
Y528150D03*
Y539961D03*
Y547835D03*
X69732Y261575D03*
X70126Y212362D03*
Y253701D03*
X72094Y232047D03*
Y237953D03*
X72488Y247795D03*
X74063Y196614D03*
Y287165D03*
X78000Y204488D03*
Y212362D03*
X80362Y237953D03*
X80835Y327165D03*
Y338976D03*
Y386220D03*
Y398031D03*
X82134Y57283D03*
Y69094D03*
Y92717D03*
Y104528D03*
X82803Y457283D03*
Y469094D03*
Y516339D03*
Y528150D03*
X83906Y196614D03*
X85874Y287165D03*
X87843Y204488D03*
Y212362D03*
Y232047D03*
X89811Y263543D03*
X91780Y196614D03*
X92646Y327165D03*
Y338976D03*
Y386220D03*
Y398031D03*
X93945Y57283D03*
Y69094D03*
Y92717D03*
Y104528D03*
X94614Y457283D03*
Y469094D03*
Y516339D03*
Y528150D03*
X95323Y230079D03*
X97685Y204094D03*
Y287165D03*
X101622Y196614D03*
X104378Y204094D03*
X105559Y234016D03*
X105756Y25787D03*
Y33661D03*
Y45472D03*
Y57283D03*
Y69094D03*
Y92717D03*
Y104528D03*
Y116339D03*
Y128150D03*
Y136024D03*
X106425Y307480D03*
Y315354D03*
Y327165D03*
Y338976D03*
Y350787D03*
Y374409D03*
Y386220D03*
Y398031D03*
Y409843D03*
Y417717D03*
X107528Y263543D03*
X108394Y437598D03*
Y445472D03*
Y457283D03*
Y469094D03*
Y480906D03*
Y504528D03*
Y516339D03*
Y528150D03*
Y539961D03*
Y547835D03*
X109496Y157244D03*
Y167087D03*
Y178898D03*
Y188740D03*
Y230079D03*
Y237953D03*
Y249764D03*
Y287165D03*
X113709Y69094D03*
X114496Y92717D03*
X117370Y259606D03*
X118236Y338976D03*
Y350787D03*
Y386220D03*
Y469094D03*
Y480906D03*
X119339Y287165D03*
X119535Y45472D03*
Y57283D03*
Y104528D03*
Y116339D03*
X120205Y504528D03*
Y516339D03*
X121307Y157244D03*
X123079Y195433D03*
X123276Y228110D03*
Y239921D03*
Y253701D03*
X127685Y359449D03*
X129181Y287165D03*
X131346Y45472D03*
Y57283D03*
Y104528D03*
Y116339D03*
X132016Y338976D03*
Y350787D03*
Y386220D03*
Y469094D03*
Y480906D03*
Y504528D03*
Y516339D03*
X133118Y157244D03*
X135087Y186772D03*
Y194646D03*
Y204488D03*
Y216299D03*
Y228110D03*
Y239921D03*
Y253701D03*
X137331Y69094D03*
Y92717D03*
X139024Y287165D03*
X143827Y338976D03*
Y350787D03*
X144929Y157244D03*
Y167087D03*
Y178898D03*
Y188740D03*
Y198583D03*
Y210394D03*
Y222205D03*
Y234016D03*
Y245827D03*
Y257638D03*
Y271417D03*
Y283228D03*
X145126Y25787D03*
Y33661D03*
Y45472D03*
Y57283D03*
Y69094D03*
Y80906D03*
Y92717D03*
Y104528D03*
Y116339D03*
Y128150D03*
Y136024D03*
X145795Y386220D03*
Y469094D03*
Y480906D03*
Y504528D03*
Y516339D03*
X147370Y377953D03*
X155638Y307480D03*
Y315354D03*
Y327165D03*
Y338976D03*
Y350787D03*
Y374409D03*
Y386220D03*
Y398031D03*
Y409843D03*
Y417717D03*
X157606Y437598D03*
Y445472D03*
Y457283D03*
Y469094D03*
Y480906D03*
Y504528D03*
Y516339D03*
Y528150D03*
Y539961D03*
Y547835D03*
X164929Y6614D03*
Y18425D03*
Y30236D03*
X167016Y157520D03*
Y169331D03*
Y181142D03*
Y261850D03*
Y273661D03*
Y285472D03*
X168866Y110945D03*
Y122756D03*
Y134567D03*
X169417Y327165D03*
Y338976D03*
Y386220D03*
Y398031D03*
X171386Y457283D03*
Y469094D03*
Y516339D03*
Y528150D03*
X174614Y6614D03*
X174732Y210630D03*
Y234252D03*
X174969Y58819D03*
Y82441D03*
X176701Y157520D03*
X180638Y285472D03*
X181228Y327165D03*
Y338976D03*
Y386220D03*
Y398031D03*
X183197Y457283D03*
Y469094D03*
Y516339D03*
Y528150D03*
X186425Y6614D03*
Y134567D03*
X188512Y157520D03*
X195008Y307480D03*
Y315354D03*
Y327165D03*
Y338976D03*
Y350787D03*
Y362598D03*
Y374409D03*
Y386220D03*
Y398031D03*
Y409843D03*
Y417717D03*
X196976Y437598D03*
Y445472D03*
Y457283D03*
Y469094D03*
Y480906D03*
Y492717D03*
Y504528D03*
Y516339D03*
Y528150D03*
Y539961D03*
Y547835D03*
X198354Y234252D03*
X198591Y58819D03*
Y82835D03*
X198748Y210630D03*
X200047Y6614D03*
Y18425D03*
Y30236D03*
X200323Y261850D03*
Y273661D03*
Y285472D03*
X202134Y157520D03*
Y169331D03*
Y181142D03*
X202173Y110945D03*
Y122756D03*
Y134567D03*
X214693Y307480D03*
Y315354D03*
Y327165D03*
Y338976D03*
Y350787D03*
Y362598D03*
Y374409D03*
Y386220D03*
Y398031D03*
Y409843D03*
Y417717D03*
X215953Y6614D03*
Y18425D03*
Y30236D03*
Y110945D03*
Y122756D03*
Y134567D03*
X216071Y285472D03*
X216661Y437598D03*
Y445472D03*
Y457283D03*
Y469094D03*
Y480906D03*
Y492717D03*
Y504528D03*
Y516339D03*
Y528150D03*
Y539961D03*
Y547835D03*
X218039Y157520D03*
X224535Y307480D03*
Y327165D03*
Y338976D03*
Y386220D03*
Y398031D03*
Y417717D03*
X226504Y437598D03*
Y457283D03*
Y469094D03*
Y516339D03*
Y528150D03*
Y547835D03*
X231701Y6614D03*
Y18425D03*
Y30236D03*
Y110945D03*
Y122756D03*
Y134567D03*
X231819Y285472D03*
X233787Y157520D03*
X236346Y327165D03*
Y338976D03*
Y386220D03*
Y398031D03*
X238315Y457283D03*
Y469094D03*
Y516339D03*
Y528150D03*
X247449Y6614D03*
Y18425D03*
Y30236D03*
Y110945D03*
Y122756D03*
Y134567D03*
X247567Y275630D03*
Y285472D03*
X248157Y307480D03*
Y327165D03*
Y338976D03*
Y386220D03*
Y398031D03*
Y417717D03*
X249535Y157520D03*
X250126Y437598D03*
Y457283D03*
Y469094D03*
Y516339D03*
Y528150D03*
Y547835D03*
X262921Y194882D03*
X263197Y6614D03*
Y18425D03*
Y30236D03*
Y110945D03*
Y122756D03*
Y134567D03*
X263315Y285472D03*
X265283Y157520D03*
X271976Y307480D03*
Y327165D03*
Y338976D03*
Y386220D03*
Y398031D03*
Y417717D03*
Y437598D03*
Y457283D03*
Y469094D03*
Y516339D03*
Y528150D03*
Y547835D03*
X275126Y263819D03*
X278945Y6614D03*
Y18425D03*
Y30236D03*
Y110945D03*
Y122756D03*
Y134567D03*
X279063Y285472D03*
X281031Y157520D03*
X283787Y327165D03*
Y338976D03*
Y386220D03*
Y398031D03*
Y457283D03*
Y469094D03*
Y516339D03*
Y528150D03*
X284575Y244488D03*
Y255118D03*
X293630Y275984D03*
X294693Y6614D03*
Y18425D03*
Y30236D03*
Y110945D03*
Y122756D03*
Y134567D03*
X294811Y285472D03*
X295598Y307480D03*
Y327165D03*
Y338976D03*
Y386220D03*
Y398031D03*
Y417717D03*
Y437598D03*
Y457283D03*
Y469094D03*
Y516339D03*
Y528150D03*
Y547835D03*
X296780Y157520D03*
X300717Y275630D03*
X305441Y307480D03*
Y315354D03*
Y327165D03*
Y338976D03*
Y350787D03*
Y362598D03*
Y374409D03*
Y386220D03*
Y398031D03*
Y409843D03*
Y417717D03*
Y437598D03*
Y445472D03*
Y457283D03*
Y469094D03*
Y480906D03*
Y492717D03*
Y504528D03*
Y516339D03*
Y528150D03*
Y539961D03*
Y547835D03*
X310441Y6614D03*
Y18425D03*
Y30236D03*
Y110945D03*
Y122756D03*
Y134567D03*
X310559Y261850D03*
Y273661D03*
Y285472D03*
X312528Y157520D03*
X320008Y213386D03*
X325126Y307480D03*
Y315354D03*
Y327165D03*
Y338976D03*
Y350787D03*
Y362598D03*
Y374409D03*
Y386220D03*
Y398031D03*
Y409843D03*
Y417717D03*
Y437598D03*
Y445472D03*
Y457283D03*
Y469094D03*
Y480906D03*
Y492717D03*
Y504528D03*
Y516339D03*
Y528150D03*
Y539961D03*
Y547835D03*
X326189Y6614D03*
Y18425D03*
Y30236D03*
Y110945D03*
Y122756D03*
Y134567D03*
X326307Y261850D03*
Y273661D03*
Y285472D03*
X328276Y157520D03*
X338906Y327165D03*
Y338976D03*
Y386220D03*
Y398031D03*
Y457283D03*
Y469094D03*
Y516339D03*
Y528150D03*
X341937Y6614D03*
Y18425D03*
Y30236D03*
Y110945D03*
Y122756D03*
Y134567D03*
X342055Y261850D03*
Y273661D03*
Y285472D03*
X344024Y157520D03*
X347961Y212992D03*
X350717Y327165D03*
Y338976D03*
Y386220D03*
Y398031D03*
Y457283D03*
Y469094D03*
Y516339D03*
Y528150D03*
X357685Y110945D03*
Y122756D03*
Y134567D03*
X357803Y261850D03*
Y273661D03*
Y285472D03*
X359654Y6614D03*
X359811Y18425D03*
Y30236D03*
X361740Y157520D03*
X361898Y169331D03*
Y181142D03*
X363709Y234252D03*
X363945Y58425D03*
Y82835D03*
X364102Y210630D03*
X364496Y307480D03*
Y315354D03*
Y327165D03*
Y338976D03*
Y350787D03*
Y374409D03*
Y386220D03*
Y398031D03*
Y409843D03*
Y417717D03*
Y437598D03*
Y445472D03*
Y457283D03*
Y469094D03*
Y480906D03*
Y504528D03*
Y516339D03*
Y528150D03*
Y539961D03*
Y547835D03*
X369496Y6614D03*
X371583Y157520D03*
X372370Y338976D03*
Y384252D03*
X373433Y134567D03*
X373551Y285472D03*
X374339Y469094D03*
Y480906D03*
X376307Y504528D03*
Y516339D03*
X378276Y350787D03*
Y374409D03*
X381307Y6614D03*
X383394Y157520D03*
X384181Y338976D03*
Y384252D03*
X387173Y58819D03*
Y82835D03*
X387331Y210630D03*
X387724Y234646D03*
X388118Y469094D03*
Y480906D03*
Y504528D03*
Y516339D03*
X389181Y134567D03*
X389299Y285472D03*
X390087Y350787D03*
Y374409D03*
X394929Y6614D03*
Y18425D03*
Y30236D03*
X395992Y338976D03*
Y384252D03*
X397016Y157520D03*
Y169331D03*
Y181142D03*
X397055Y110945D03*
Y122756D03*
X397173Y261850D03*
Y273661D03*
X401898Y350787D03*
Y374409D03*
Y469094D03*
Y480906D03*
Y504528D03*
Y516339D03*
X407803Y338976D03*
Y384252D03*
X413709Y350787D03*
Y374409D03*
Y437598D03*
Y445472D03*
Y457283D03*
Y469094D03*
Y480906D03*
Y504528D03*
Y516339D03*
Y528150D03*
Y539961D03*
Y547835D03*
X417843Y159252D03*
Y176969D03*
Y190748D03*
Y212402D03*
Y222244D03*
Y237992D03*
Y253740D03*
Y267520D03*
X419614Y338976D03*
Y384252D03*
X419811Y104134D03*
Y112008D03*
Y277362D03*
Y285236D03*
X425520Y350787D03*
Y374409D03*
X427488Y457283D03*
Y469094D03*
Y516339D03*
Y528150D03*
X427685Y119882D03*
Y135630D03*
Y151378D03*
X431425Y338976D03*
Y384252D03*
X437331Y350787D03*
Y374409D03*
X438315Y210039D03*
X439299Y457283D03*
Y469094D03*
Y516339D03*
Y528150D03*
X439496Y188386D03*
X443236Y338976D03*
Y384252D03*
X446189Y197441D03*
X447370Y222244D03*
Y230118D03*
X449142Y350787D03*
Y374409D03*
X450126Y189961D03*
X451307Y257677D03*
X452094Y249803D03*
X453079Y437598D03*
Y445472D03*
Y457283D03*
Y469094D03*
Y480906D03*
Y492717D03*
Y504528D03*
Y516339D03*
Y528150D03*
Y539961D03*
Y547835D03*
X455047Y338976D03*
Y384252D03*
X456425Y120276D03*
Y135630D03*
Y151378D03*
Y167126D03*
Y182874D03*
X457213Y265551D03*
X459181Y230118D03*
X461150Y223425D03*
Y257677D03*
X462921Y307480D03*
Y315354D03*
Y327165D03*
Y338976D03*
Y350787D03*
Y374409D03*
Y386220D03*
Y398031D03*
Y409843D03*
Y417717D03*
X463118Y189961D03*
X469024Y249803D03*
X470598Y350787D03*
Y374409D03*
X472764Y437598D03*
Y445472D03*
Y457283D03*
Y469094D03*
Y480906D03*
Y492717D03*
Y504528D03*
Y516339D03*
Y528150D03*
Y539961D03*
Y547835D03*
X472961Y191929D03*
X473748Y221260D03*
X476701Y327165D03*
Y338976D03*
Y386220D03*
Y398031D03*
X477291Y135630D03*
Y151378D03*
Y167126D03*
Y182874D03*
X478866Y123819D03*
X479575Y249803D03*
X479654Y226378D03*
X482606Y437598D03*
Y457283D03*
Y469094D03*
Y516339D03*
Y528150D03*
Y547835D03*
X488512Y327165D03*
Y338976D03*
Y386220D03*
Y398031D03*
X488709Y257677D03*
X492646Y112008D03*
Y127756D03*
Y143504D03*
Y159252D03*
Y175000D03*
Y190748D03*
Y265551D03*
X493354Y216732D03*
Y250197D03*
X494220Y374409D03*
X494417Y350984D03*
Y457283D03*
Y469094D03*
Y516339D03*
Y528150D03*
X494614Y104134D03*
Y277362D03*
Y285236D03*
X502291Y307480D03*
Y315354D03*
Y327165D03*
Y338976D03*
Y350787D03*
Y362598D03*
Y374409D03*
Y386220D03*
Y398031D03*
Y409843D03*
Y417717D03*
X506228Y437598D03*
Y457283D03*
Y469094D03*
Y516339D03*
Y528150D03*
Y547835D03*
D02*
D18*
X101622Y245972D03*
D03*
X121316Y217323D03*
X426504Y43031D03*
X432311Y33031D03*
Y43031D03*
Y53031D03*
Y63031D03*
X493433Y201772D03*
X529260Y33071D03*
X529555Y43031D03*
Y53031D03*
Y63031D03*
X538315Y27953D03*
D02*
D25*
X27606Y409921D03*
X27685Y315433D03*
X29575Y540039D03*
X29654Y445551D03*
X34693Y269449D03*
X34772Y174961D03*
X36780Y128228D03*
X36858Y33740D03*
X86661Y409921D03*
X86740Y315433D03*
X88630Y540039D03*
X88709Y445551D03*
X125362Y128228D03*
X125441Y33740D03*
X129181Y269291D03*
X129260Y174803D03*
X175323Y409764D03*
X175402Y315276D03*
X177213Y539961D03*
X177291Y445472D03*
X186465Y118110D03*
X186543Y23622D03*
X186622Y269567D03*
X186701Y175079D03*
X234378Y409764D03*
X234457Y315276D03*
X236268Y539961D03*
X236346Y445472D03*
X285677Y409921D03*
X285756Y315433D03*
X285874Y540039D03*
X285953Y445551D03*
X344732Y409921D03*
X344811Y315433D03*
X344929Y540039D03*
X345008Y445551D03*
X375520Y117953D03*
X375598Y23465D03*
Y269488D03*
X375677Y175000D03*
X433512Y540039D03*
X433591Y445551D03*
X482449Y409921D03*
X482528Y315433D03*
X492567Y540039D03*
X492646Y445551D03*
D02*
D26*
X15874Y350787D03*
Y374409D03*
X17843Y480906D03*
Y504528D03*
X27685Y362598D03*
X29654Y492717D03*
X39496Y350787D03*
Y374409D03*
X41465Y480906D03*
Y504528D03*
X74929Y350787D03*
Y374409D03*
X76898Y480906D03*
Y504528D03*
X86740Y362598D03*
X88709Y492717D03*
X98551Y350787D03*
Y374409D03*
X100520Y480906D03*
Y504528D03*
X163512Y350787D03*
Y374409D03*
X165402Y480984D03*
Y504606D03*
X175323Y362598D03*
X177213Y492795D03*
X187134Y350787D03*
Y374409D03*
X189024Y480984D03*
Y504606D03*
X222567Y350787D03*
Y374409D03*
X224457Y480984D03*
Y504606D03*
X234378Y362598D03*
X236268Y492795D03*
X246189Y350787D03*
Y374409D03*
X248079Y480984D03*
Y504606D03*
X273945Y350787D03*
Y374409D03*
X274142Y480906D03*
Y504528D03*
X285756Y362598D03*
X285953Y492717D03*
X297567Y350787D03*
Y374409D03*
X297764Y480906D03*
Y504528D03*
X333000Y350787D03*
Y374409D03*
X333197Y480906D03*
Y504528D03*
X344811Y362598D03*
X345008Y492717D03*
X356622Y350787D03*
Y374409D03*
X356819Y480906D03*
Y504528D03*
X421780Y480906D03*
Y504528D03*
X433591Y492717D03*
X445402Y480906D03*
Y504528D03*
X480835Y480906D03*
Y504528D03*
X492646Y492717D03*
X504457Y480906D03*
Y504528D03*
D02*
D73*
X60283Y277323D03*
X70283D03*
X80283D03*
X90283D03*
X100283D03*
X110283D03*
X432213Y108071D03*
Y281299D03*
X442213Y108071D03*
Y281299D03*
X452213Y108071D03*
Y281299D03*
X462213Y108071D03*
Y281299D03*
X472213Y108071D03*
Y281299D03*
X482213Y108071D03*
Y281299D03*
D02*
D80*
X212213Y277441D03*
X222213D03*
X232213D03*
X523748Y120866D03*
Y130866D03*
Y140866D03*
Y150866D03*
Y160866D03*
Y170866D03*
Y180866D03*
Y190866D03*
X533748Y120866D03*
Y130866D03*
Y140866D03*
Y150866D03*
Y160866D03*
Y170866D03*
Y180866D03*
Y190866D03*
D02*
D82*
X551307Y23622D03*
Y33622D03*
Y43622D03*
Y53622D03*
Y63622D03*
Y73622D03*
X555638Y119606D03*
Y129606D03*
Y139606D03*
Y149606D03*
Y159606D03*
Y169606D03*
X0Y0D02*
M02*
