G05
M48
INCH,TZ
FMAT,2
T1C000.01181
T2C000.01969
T3C000.02400
T4C000.03200
T5C000.03500
T6C000.06693
T7C000.11811
%
T001
X1.09575Y2.25748
X1.09890Y2.20236
X1.09969Y2.00197
X1.13118Y3.73425
X1.24929Y3.80118
X1.26504Y2.12402
X1.30047Y3.80118
X1.41071Y3.67913
X1.41071Y3.73425
X1.47370Y3.73425
X1.65480Y0.39685
X1.65480Y0.49528
X1.65480Y0.59370
X1.65480Y0.66260
X1.65480Y0.73150
X1.65480Y0.82992
X1.65480Y0.92835
X1.65480Y1.02677
X1.67016Y1.90748
X1.67016Y2.00591
X1.67016Y2.10433
X1.67016Y2.17323
X1.67016Y2.24213
X1.67016Y2.34055
X1.67016Y2.43898
X1.67016Y2.53740
X1.70717Y0.44843
X1.70717Y0.97638
X1.72252Y1.95906
X1.72252Y2.48701
X1.75323Y0.39685
X1.75323Y0.49528
X1.75323Y0.92835
X1.75323Y1.02677
X1.76858Y1.90748
X1.76858Y2.00591
X1.76858Y2.43898
X1.76858Y2.53740
X1.80874Y0.44843
X1.80874Y0.97638
X1.82409Y1.95906
X1.82409Y2.48701
X1.85165Y0.39685
X1.85165Y0.49528
X1.85165Y0.92835
X1.85165Y1.02677
X1.86701Y1.90748
X1.86701Y2.00591
X1.86701Y2.43898
X1.86701Y2.53740
X1.90362Y0.44843
X1.90362Y0.97638
X1.91898Y1.95906
X1.91898Y2.48701
X1.95008Y0.39685
X1.95008Y0.49528
X1.95008Y0.92835
X1.95008Y1.02677
X1.96543Y1.90748
X1.96543Y2.00591
X1.96543Y2.43898
X1.96543Y2.53740
X2.00165Y0.44843
X2.00165Y0.97638
X2.01701Y1.95906
X2.01701Y2.48701
X2.04850Y0.39685
X2.04850Y0.49528
X2.04850Y0.59370
X2.04850Y0.82992
X2.04850Y0.92835
X2.04850Y1.02677
X2.06386Y1.90748
X2.06386Y2.00591
X2.06386Y2.10433
X2.06386Y2.34055
X2.06386Y2.43898
X2.06386Y2.53740
X2.14693Y0.39685
X2.14693Y0.49528
X2.14693Y0.59370
X2.14693Y0.82992
X2.14693Y0.92835
X2.14693Y1.02677
X2.16228Y1.90748
X2.16228Y2.00591
X2.16228Y2.10433
X2.16228Y2.34055
X2.16228Y2.43898
X2.16228Y2.53740
X2.24535Y0.39685
X2.24535Y0.49528
X2.24535Y0.59370
X2.24535Y0.82992
X2.24535Y0.92835
X2.24535Y1.02677
X2.26071Y1.90748
X2.26071Y2.00591
X2.26071Y2.10433
X2.26071Y2.34055
X2.26071Y2.43898
X2.26071Y2.53740
X2.34378Y0.39685
X2.34378Y0.49528
X2.34378Y0.59370
X2.34378Y0.82992
X2.34378Y0.92835
X2.34378Y1.02677
X2.35913Y1.90748
X2.35913Y2.00591
X2.35913Y2.10433
X2.35913Y2.34055
X2.35913Y2.43898
X2.35913Y2.53740
X2.42646Y0.59370
X2.44220Y0.39685
X2.44220Y0.49528
X2.44220Y0.82992
X2.44220Y0.92835
X2.44220Y1.02677
X2.45756Y1.90748
X2.45756Y2.00591
X2.45756Y2.10433
X2.45756Y2.34055
X2.45756Y2.43898
X2.45756Y2.53740
X2.49614Y0.44173
X2.49614Y0.49370
X2.54063Y0.82992
X2.54063Y0.92835
X2.54063Y1.02677
X2.54378Y2.00591
X2.54378Y2.10433
X2.54614Y0.39685
X2.54614Y0.49528
X2.54811Y1.90748
X2.55598Y2.34055
X2.55598Y2.43898
X2.55598Y2.53740
X2.56425Y0.59370
X2.59811Y1.86654
X2.63236Y0.39685
X2.63236Y0.49528
X2.63236Y0.59370
X2.63669Y0.82992
X2.63669Y0.92835
X2.63669Y1.02677
X2.65441Y2.34055
X2.65441Y2.43898
X2.65441Y2.53740
X2.65953Y1.86654
X2.70323Y1.90748
X2.70638Y2.30512
X2.70756Y2.00591
X2.70756Y2.10433
X2.71346Y2.34055
X2.73079Y0.39685
X2.73079Y0.49528
X2.73079Y0.59370
X2.73512Y0.82992
X2.73512Y0.92835
X2.73512Y1.02677
X2.74575Y2.30512
X2.75283Y2.34055
X2.75283Y2.43898
X2.75283Y2.53740
X2.75520Y2.25984
X2.78512Y2.30551
X2.79378Y1.90748
X2.79378Y2.00591
X2.79378Y2.10433
X2.79535Y2.24606
X2.80559Y2.18701
X2.82803Y2.15000
X2.82921Y0.39685
X2.82921Y0.49528
X2.82921Y0.59370
X2.83354Y0.82992
X2.83354Y0.92835
X2.83354Y1.02677
X2.83787Y2.23228
X2.84496Y2.18701
X2.86307Y1.92992
X2.86307Y2.02835
X2.86307Y2.12677
X2.86583Y2.16142
X2.88433Y2.18740
X2.89496Y0.82992
X2.89969Y0.92835
X2.92764Y0.39685
X2.92764Y0.49528
X2.92764Y0.59370
X2.92843Y1.95709
X2.92843Y2.05551
X2.92843Y2.15394
X2.93197Y1.02677
X2.95913Y0.92677
X2.95913Y0.97520
X3.02606Y0.39685
X3.02606Y0.49528
X3.02606Y0.59370
X3.02685Y1.95709
X3.02685Y2.05551
X3.02685Y2.15394
X3.02764Y2.39016
X3.02764Y2.48071
X3.02843Y0.82795
X3.02843Y0.92638
X3.02843Y1.02480
X3.12094Y2.14843
X3.12213Y0.39685
X3.12213Y0.49528
X3.12213Y0.59370
X3.12449Y0.82795
X3.12449Y0.92638
X3.12449Y1.02480
X3.12528Y1.95709
X3.12528Y2.05551
X3.12606Y2.39016
X3.12606Y2.48071
X3.21189Y1.94134
X3.21189Y2.03976
X3.22055Y0.39685
X3.22055Y0.49528
X3.22055Y0.59370
X3.22291Y0.82795
X3.22291Y0.92638
X3.22291Y1.02480
X3.24339Y2.34488
X3.24339Y2.43937
X3.29339Y0.82795
X3.29339Y0.92638
X3.29339Y1.02480
X3.29929Y0.39488
X3.29929Y0.49331
X3.29929Y0.59173
X3.29969Y1.90787
X3.29969Y2.00630
X3.29969Y2.10472
X3.32213Y2.34094
X3.32213Y2.43937
X3.38236Y0.39488
X3.39102Y0.44882
X3.39102Y0.48976
X3.39181Y0.82795
X3.39181Y0.92638
X3.39181Y1.02480
X3.39811Y1.90787
X3.39811Y2.00630
X3.39811Y2.10472
X3.40756Y2.34291
X3.40756Y2.43937
X3.40756Y2.53780
X3.47055Y0.39488
X3.47055Y0.49331
X3.47055Y0.59252
X3.48630Y1.90787
X3.48630Y2.00630
X3.49024Y0.82795
X3.49024Y0.92638
X3.49024Y1.02480
X3.50598Y2.34094
X3.50598Y2.43937
X3.50598Y2.53780
X3.52724Y0.54724
X3.54299Y2.06024
X3.55638Y0.59252
X3.56898Y0.39488
X3.56898Y0.49331
X3.58472Y1.90787
X3.58472Y2.00630
X3.58866Y0.92638
X3.58866Y1.02480
X3.60441Y2.43937
X3.60441Y2.53780
X3.61858Y0.44724
X3.63433Y1.96024
X3.63906Y0.97402
X3.65480Y2.48701
X3.66740Y0.39488
X3.66740Y0.49331
X3.68315Y1.90787
X3.68315Y2.00630
X3.68709Y0.92638
X3.68709Y1.02480
X3.70283Y2.43937
X3.70283Y2.53780
X3.72016Y0.44724
X3.73591Y1.96024
X3.74063Y0.97402
X3.75638Y2.48701
X3.76583Y0.39488
X3.76583Y0.49331
X3.78157Y1.90787
X3.78157Y2.00630
X3.78551Y0.92638
X3.78551Y1.02480
X3.80126Y2.43937
X3.80126Y2.53780
X3.81504Y0.44724
X3.83079Y1.96024
X3.83551Y0.97402
X3.85126Y2.48701
X3.86425Y0.39488
X3.86425Y0.49331
X3.88000Y1.90787
X3.88000Y2.00630
X3.88394Y0.92638
X3.88394Y1.02480
X3.89969Y2.43937
X3.89969Y2.53780
X3.91307Y0.44724
X3.92882Y1.96024
X3.93354Y0.97402
X3.94929Y2.48701
X3.96268Y0.39488
X3.96268Y0.49331
X3.96268Y0.59173
X3.96268Y0.66063
X3.96268Y0.72953
X3.96268Y0.82795
X3.96268Y0.92638
X3.96268Y1.02480
X3.97843Y1.90787
X3.97843Y2.00630
X3.97843Y2.10472
X3.97843Y2.17362
X3.97843Y2.24252
X3.97843Y2.34094
X3.97843Y2.43937
X3.97843Y2.53780
X4.17252Y2.04331
X4.46583Y2.09252
X4.47370Y2.13386
X4.57213Y2.02559
X4.57213Y2.10433
X4.61150Y2.06496
X4.65087Y2.02559
X4.65087Y2.10433
T002
X0.13906Y3.07480
X0.13906Y3.27165
X0.13906Y3.38976
X0.13906Y3.86220
X0.13906Y3.98031
X0.13906Y4.17717
X0.15402Y1.56850
X0.15402Y1.67087
X0.15402Y1.74961
X0.15402Y1.86772
X0.15402Y1.98583
X0.15402Y2.22205
X0.15402Y2.45827
X0.15402Y2.57638
X0.15402Y2.69449
X0.15402Y2.77323
X0.15402Y2.86772
X0.15874Y4.37598
X0.15874Y4.57283
X0.15874Y4.69094
X0.15874Y5.16339
X0.15874Y5.28150
X0.15874Y5.47835
X0.16189Y2.10394
X0.16189Y2.34016
X0.17173Y0.25787
X0.17173Y0.33661
X0.17173Y0.45472
X0.17173Y0.57283
X0.17173Y0.69094
X0.17173Y0.80906
X0.17173Y0.92717
X0.17173Y1.04528
X0.17173Y1.16339
X0.17173Y1.28150
X0.17173Y1.36024
X0.22882Y2.10000
X0.23276Y2.34409
X0.24417Y0.70551
X0.24417Y0.94173
X0.25244Y1.56850
X0.25244Y1.65118
X0.25244Y1.86772
X0.25244Y1.98583
X0.25244Y2.45827
X0.25244Y2.57638
X0.25244Y2.77323
X0.25244Y2.86772
X0.25717Y3.27165
X0.25717Y3.38976
X0.25717Y3.86220
X0.25717Y3.98031
X0.27685Y4.57283
X0.27685Y4.69094
X0.27685Y5.16339
X0.27685Y5.28150
X0.30953Y0.45472
X0.30953Y0.57283
X0.30953Y1.04528
X0.30953Y1.16339
X0.32724Y2.04488
X0.36661Y2.37953
X0.37055Y1.56850
X0.37055Y1.98583
X0.37055Y2.45827
X0.37055Y2.55669
X0.37055Y2.86772
X0.37528Y3.07480
X0.37528Y3.27165
X0.37528Y3.38976
X0.37528Y3.86220
X0.37528Y3.98031
X0.37528Y4.17717
X0.38630Y1.88740
X0.39496Y4.37598
X0.39496Y4.57283
X0.39496Y4.69094
X0.39496Y5.16339
X0.39496Y5.28150
X0.39496Y5.47835
X0.42764Y0.45472
X0.42764Y0.57283
X0.42764Y1.04528
X0.42764Y1.16339
X0.46504Y2.34016
X0.46898Y2.10394
X0.47370Y3.07480
X0.47370Y3.15354
X0.47370Y3.27165
X0.47370Y3.38976
X0.47370Y3.50787
X0.47370Y3.62598
X0.47370Y3.74409
X0.47370Y3.86220
X0.47370Y3.98031
X0.47370Y4.09843
X0.47370Y4.17717
X0.48039Y0.70551
X0.48039Y0.94173
X0.48866Y1.56850
X0.48866Y1.67087
X0.48866Y1.86772
X0.48866Y1.98583
X0.48866Y2.45827
X0.48866Y2.57638
X0.48866Y2.77323
X0.48866Y2.86772
X0.49339Y4.37598
X0.49339Y4.45472
X0.49339Y4.57283
X0.49339Y4.69094
X0.49339Y4.80906
X0.49339Y4.92717
X0.49339Y5.04528
X0.49339Y5.16339
X0.49339Y5.28150
X0.49339Y5.39961
X0.49339Y5.47835
X0.56543Y0.25787
X0.56543Y0.33661
X0.56543Y0.45472
X0.56543Y0.57283
X0.56543Y0.69094
X0.56543Y0.92717
X0.56543Y1.04528
X0.56543Y1.16339
X0.56543Y1.28150
X0.56543Y1.36024
X0.58315Y2.04488
X0.58315Y2.37953
X0.58315Y2.45827
X0.58315Y2.53701
X0.58315Y2.61575
X0.62252Y1.96614
X0.62252Y2.12362
X0.62252Y2.32047
X0.62252Y2.87165
X0.67055Y3.07480
X0.67055Y3.15354
X0.67055Y3.27165
X0.67055Y3.38976
X0.67055Y3.50787
X0.67055Y3.62598
X0.67055Y3.74409
X0.67055Y3.86220
X0.67055Y3.98031
X0.67055Y4.09843
X0.67055Y4.17717
X0.68157Y2.04488
X0.68354Y0.57283
X0.68354Y0.69094
X0.68354Y0.92717
X0.68354Y1.04528
X0.69024Y4.37598
X0.69024Y4.45472
X0.69024Y4.57283
X0.69024Y4.69094
X0.69024Y4.80906
X0.69024Y4.92717
X0.69024Y5.04528
X0.69024Y5.16339
X0.69024Y5.28150
X0.69024Y5.39961
X0.69024Y5.47835
X0.69732Y2.61575
X0.70126Y2.12362
X0.70126Y2.53701
X0.72094Y2.32047
X0.72094Y2.37953
X0.72488Y2.47795
X0.74063Y1.96614
X0.74063Y2.87165
X0.78000Y2.04488
X0.78000Y2.12362
X0.80362Y2.37953
X0.80835Y3.27165
X0.80835Y3.38976
X0.80835Y3.86220
X0.80835Y3.98031
X0.82134Y0.57283
X0.82134Y0.69094
X0.82134Y0.92717
X0.82134Y1.04528
X0.82803Y4.57283
X0.82803Y4.69094
X0.82803Y5.16339
X0.82803Y5.28150
X0.83906Y1.96614
X0.85874Y2.87165
X0.87843Y2.04488
X0.87843Y2.12362
X0.87843Y2.32047
X0.89811Y2.63543
X0.91780Y1.96614
X0.92646Y3.27165
X0.92646Y3.38976
X0.92646Y3.86220
X0.92646Y3.98031
X0.93945Y0.57283
X0.93945Y0.69094
X0.93945Y0.92717
X0.93945Y1.04528
X0.94614Y4.57283
X0.94614Y4.69094
X0.94614Y5.16339
X0.94614Y5.28150
X0.95323Y2.30079
X0.97685Y2.04094
X0.97685Y2.87165
X1.01622Y1.96614
X1.04378Y2.04094
X1.05559Y2.34016
X1.05756Y0.25787
X1.05756Y0.33661
X1.05756Y0.45472
X1.05756Y0.57283
X1.05756Y0.69094
X1.05756Y0.92717
X1.05756Y1.04528
X1.05756Y1.16339
X1.05756Y1.28150
X1.05756Y1.36024
X1.06425Y3.07480
X1.06425Y3.15354
X1.06425Y3.27165
X1.06425Y3.38976
X1.06425Y3.50787
X1.06425Y3.74409
X1.06425Y3.86220
X1.06425Y3.98031
X1.06425Y4.09843
X1.06425Y4.17717
X1.07528Y2.63543
X1.08394Y4.37598
X1.08394Y4.45472
X1.08394Y4.57283
X1.08394Y4.69094
X1.08394Y4.80906
X1.08394Y5.04528
X1.08394Y5.16339
X1.08394Y5.28150
X1.08394Y5.39961
X1.08394Y5.47835
X1.09496Y1.57244
X1.09496Y1.67087
X1.09496Y1.78898
X1.09496Y1.88740
X1.09496Y2.30079
X1.09496Y2.37953
X1.09496Y2.49764
X1.09496Y2.87165
X1.13709Y0.69094
X1.14496Y0.92717
X1.17370Y2.59606
X1.18236Y3.38976
X1.18236Y3.50787
X1.18236Y3.86220
X1.18236Y4.69094
X1.18236Y4.80906
X1.19339Y2.87165
X1.19535Y0.45472
X1.19535Y0.57283
X1.19535Y1.04528
X1.19535Y1.16339
X1.20205Y5.04528
X1.20205Y5.16339
X1.21307Y1.57244
X1.23079Y1.95433
X1.23276Y2.28110
X1.23276Y2.39921
X1.23276Y2.53701
X1.27685Y3.59449
X1.29181Y2.87165
X1.31346Y0.45472
X1.31346Y0.57283
X1.31346Y1.04528
X1.31346Y1.16339
X1.32016Y3.38976
X1.32016Y3.50787
X1.32016Y3.86220
X1.32016Y4.69094
X1.32016Y4.80906
X1.32016Y5.04528
X1.32016Y5.16339
X1.33118Y1.57244
X1.35087Y1.86772
X1.35087Y1.94646
X1.35087Y2.04488
X1.35087Y2.16299
X1.35087Y2.28110
X1.35087Y2.39921
X1.35087Y2.53701
X1.37331Y0.69094
X1.37331Y0.92717
X1.39024Y2.87165
X1.43827Y3.38976
X1.43827Y3.50787
X1.44929Y1.57244
X1.44929Y1.67087
X1.44929Y1.78898
X1.44929Y1.88740
X1.44929Y1.98583
X1.44929Y2.10394
X1.44929Y2.22205
X1.44929Y2.34016
X1.44929Y2.45827
X1.44929Y2.57638
X1.44929Y2.71417
X1.44929Y2.83228
X1.45126Y0.25787
X1.45126Y0.33661
X1.45126Y0.45472
X1.45126Y0.57283
X1.45126Y0.69094
X1.45126Y0.80906
X1.45126Y0.92717
X1.45126Y1.04528
X1.45126Y1.16339
X1.45126Y1.28150
X1.45126Y1.36024
X1.45795Y3.86220
X1.45795Y4.69094
X1.45795Y4.80906
X1.45795Y5.04528
X1.45795Y5.16339
X1.47370Y3.77953
X1.55638Y3.07480
X1.55638Y3.15354
X1.55638Y3.27165
X1.55638Y3.38976
X1.55638Y3.50787
X1.55638Y3.74409
X1.55638Y3.86220
X1.55638Y3.98031
X1.55638Y4.09843
X1.55638Y4.17717
X1.57606Y4.37598
X1.57606Y4.45472
X1.57606Y4.57283
X1.57606Y4.69094
X1.57606Y4.80906
X1.57606Y5.04528
X1.57606Y5.16339
X1.57606Y5.28150
X1.57606Y5.39961
X1.57606Y5.47835
X1.64929Y0.06614
X1.64929Y0.18425
X1.64929Y0.30236
X1.67016Y1.57520
X1.67016Y1.69331
X1.67016Y1.81142
X1.67016Y2.61850
X1.67016Y2.73661
X1.67016Y2.85472
X1.68866Y1.10945
X1.68866Y1.22756
X1.68866Y1.34567
X1.69417Y3.27165
X1.69417Y3.38976
X1.69417Y3.86220
X1.69417Y3.98031
X1.71386Y4.57283
X1.71386Y4.69094
X1.71386Y5.16339
X1.71386Y5.28150
X1.74614Y0.06614
X1.74732Y2.10630
X1.74732Y2.34252
X1.74969Y0.58819
X1.74969Y0.82441
X1.76701Y1.57520
X1.80638Y2.85472
X1.81228Y3.27165
X1.81228Y3.38976
X1.81228Y3.86220
X1.81228Y3.98031
X1.83197Y4.57283
X1.83197Y4.69094
X1.83197Y5.16339
X1.83197Y5.28150
X1.86425Y0.06614
X1.86425Y1.34567
X1.88512Y1.57520
X1.95008Y3.07480
X1.95008Y3.15354
X1.95008Y3.27165
X1.95008Y3.38976
X1.95008Y3.50787
X1.95008Y3.62598
X1.95008Y3.74409
X1.95008Y3.86220
X1.95008Y3.98031
X1.95008Y4.09843
X1.95008Y4.17717
X1.96976Y4.37598
X1.96976Y4.45472
X1.96976Y4.57283
X1.96976Y4.69094
X1.96976Y4.80906
X1.96976Y4.92717
X1.96976Y5.04528
X1.96976Y5.16339
X1.96976Y5.28150
X1.96976Y5.39961
X1.96976Y5.47835
X1.98354Y2.34252
X1.98591Y0.58819
X1.98591Y0.82835
X1.98748Y2.10630
X2.00047Y0.06614
X2.00047Y0.18425
X2.00047Y0.30236
X2.00323Y2.61850
X2.00323Y2.73661
X2.00323Y2.85472
X2.02134Y1.57520
X2.02134Y1.69331
X2.02134Y1.81142
X2.02173Y1.10945
X2.02173Y1.22756
X2.02173Y1.34567
X2.14693Y3.07480
X2.14693Y3.15354
X2.14693Y3.27165
X2.14693Y3.38976
X2.14693Y3.50787
X2.14693Y3.62598
X2.14693Y3.74409
X2.14693Y3.86220
X2.14693Y3.98031
X2.14693Y4.09843
X2.14693Y4.17717
X2.15953Y0.06614
X2.15953Y0.18425
X2.15953Y0.30236
X2.15953Y1.10945
X2.15953Y1.22756
X2.15953Y1.34567
X2.16071Y2.85472
X2.16661Y4.37598
X2.16661Y4.45472
X2.16661Y4.57283
X2.16661Y4.69094
X2.16661Y4.80906
X2.16661Y4.92717
X2.16661Y5.04528
X2.16661Y5.16339
X2.16661Y5.28150
X2.16661Y5.39961
X2.16661Y5.47835
X2.18039Y1.57520
X2.24535Y3.07480
X2.24535Y3.27165
X2.24535Y3.38976
X2.24535Y3.86220
X2.24535Y3.98031
X2.24535Y4.17717
X2.26504Y4.37598
X2.26504Y4.57283
X2.26504Y4.69094
X2.26504Y5.16339
X2.26504Y5.28150
X2.26504Y5.47835
X2.31701Y0.06614
X2.31701Y0.18425
X2.31701Y0.30236
X2.31701Y1.10945
X2.31701Y1.22756
X2.31701Y1.34567
X2.31819Y2.85472
X2.33787Y1.57520
X2.36346Y3.27165
X2.36346Y3.38976
X2.36346Y3.86220
X2.36346Y3.98031
X2.38315Y4.57283
X2.38315Y4.69094
X2.38315Y5.16339
X2.38315Y5.28150
X2.47449Y0.06614
X2.47449Y0.18425
X2.47449Y0.30236
X2.47449Y1.10945
X2.47449Y1.22756
X2.47449Y1.34567
X2.47567Y2.75630
X2.47567Y2.85472
X2.48157Y3.07480
X2.48157Y3.27165
X2.48157Y3.38976
X2.48157Y3.86220
X2.48157Y3.98031
X2.48157Y4.17717
X2.49535Y1.57520
X2.50126Y4.37598
X2.50126Y4.57283
X2.50126Y4.69094
X2.50126Y5.16339
X2.50126Y5.28150
X2.50126Y5.47835
X2.62921Y1.94882
X2.63197Y0.06614
X2.63197Y0.18425
X2.63197Y0.30236
X2.63197Y1.10945
X2.63197Y1.22756
X2.63197Y1.34567
X2.63315Y2.85472
X2.65283Y1.57520
X2.71976Y3.07480
X2.71976Y3.27165
X2.71976Y3.38976
X2.71976Y3.86220
X2.71976Y3.98031
X2.71976Y4.17717
X2.71976Y4.37598
X2.71976Y4.57283
X2.71976Y4.69094
X2.71976Y5.16339
X2.71976Y5.28150
X2.71976Y5.47835
X2.75126Y2.63819
X2.78945Y0.06614
X2.78945Y0.18425
X2.78945Y0.30236
X2.78945Y1.10945
X2.78945Y1.22756
X2.78945Y1.34567
X2.79063Y2.85472
X2.81031Y1.57520
X2.83787Y3.27165
X2.83787Y3.38976
X2.83787Y3.86220
X2.83787Y3.98031
X2.83787Y4.57283
X2.83787Y4.69094
X2.83787Y5.16339
X2.83787Y5.28150
X2.84575Y2.44488
X2.84575Y2.55118
X2.93630Y2.75984
X2.94693Y0.06614
X2.94693Y0.18425
X2.94693Y0.30236
X2.94693Y1.10945
X2.94693Y1.22756
X2.94693Y1.34567
X2.94811Y2.85472
X2.95598Y3.07480
X2.95598Y3.27165
X2.95598Y3.38976
X2.95598Y3.86220
X2.95598Y3.98031
X2.95598Y4.17717
X2.95598Y4.37598
X2.95598Y4.57283
X2.95598Y4.69094
X2.95598Y5.16339
X2.95598Y5.28150
X2.95598Y5.47835
X2.96780Y1.57520
X3.00717Y2.75630
X3.05441Y3.07480
X3.05441Y3.15354
X3.05441Y3.27165
X3.05441Y3.38976
X3.05441Y3.50787
X3.05441Y3.62598
X3.05441Y3.74409
X3.05441Y3.86220
X3.05441Y3.98031
X3.05441Y4.09843
X3.05441Y4.17717
X3.05441Y4.37598
X3.05441Y4.45472
X3.05441Y4.57283
X3.05441Y4.69094
X3.05441Y4.80906
X3.05441Y4.92717
X3.05441Y5.04528
X3.05441Y5.16339
X3.05441Y5.28150
X3.05441Y5.39961
X3.05441Y5.47835
X3.10441Y0.06614
X3.10441Y0.18425
X3.10441Y0.30236
X3.10441Y1.10945
X3.10441Y1.22756
X3.10441Y1.34567
X3.10559Y2.61850
X3.10559Y2.73661
X3.10559Y2.85472
X3.12528Y1.57520
X3.20008Y2.13386
X3.25126Y3.07480
X3.25126Y3.15354
X3.25126Y3.27165
X3.25126Y3.38976
X3.25126Y3.50787
X3.25126Y3.62598
X3.25126Y3.74409
X3.25126Y3.86220
X3.25126Y3.98031
X3.25126Y4.09843
X3.25126Y4.17717
X3.25126Y4.37598
X3.25126Y4.45472
X3.25126Y4.57283
X3.25126Y4.69094
X3.25126Y4.80906
X3.25126Y4.92717
X3.25126Y5.04528
X3.25126Y5.16339
X3.25126Y5.28150
X3.25126Y5.39961
X3.25126Y5.47835
X3.26189Y0.06614
X3.26189Y0.18425
X3.26189Y0.30236
X3.26189Y1.10945
X3.26189Y1.22756
X3.26189Y1.34567
X3.26307Y2.61850
X3.26307Y2.73661
X3.26307Y2.85472
X3.28276Y1.57520
X3.38906Y3.27165
X3.38906Y3.38976
X3.38906Y3.86220
X3.38906Y3.98031
X3.38906Y4.57283
X3.38906Y4.69094
X3.38906Y5.16339
X3.38906Y5.28150
X3.41937Y0.06614
X3.41937Y0.18425
X3.41937Y0.30236
X3.41937Y1.10945
X3.41937Y1.22756
X3.41937Y1.34567
X3.42055Y2.61850
X3.42055Y2.73661
X3.42055Y2.85472
X3.44024Y1.57520
X3.47961Y2.12992
X3.50717Y3.27165
X3.50717Y3.38976
X3.50717Y3.86220
X3.50717Y3.98031
X3.50717Y4.57283
X3.50717Y4.69094
X3.50717Y5.16339
X3.50717Y5.28150
X3.57685Y1.10945
X3.57685Y1.22756
X3.57685Y1.34567
X3.57803Y2.61850
X3.57803Y2.73661
X3.57803Y2.85472
X3.59654Y0.06614
X3.59811Y0.18425
X3.59811Y0.30236
X3.61740Y1.57520
X3.61898Y1.69331
X3.61898Y1.81142
X3.63709Y2.34252
X3.63945Y0.58425
X3.63945Y0.82835
X3.64102Y2.10630
X3.64496Y3.07480
X3.64496Y3.15354
X3.64496Y3.27165
X3.64496Y3.38976
X3.64496Y3.50787
X3.64496Y3.74409
X3.64496Y3.86220
X3.64496Y3.98031
X3.64496Y4.09843
X3.64496Y4.17717
X3.64496Y4.37598
X3.64496Y4.45472
X3.64496Y4.57283
X3.64496Y4.69094
X3.64496Y4.80906
X3.64496Y5.04528
X3.64496Y5.16339
X3.64496Y5.28150
X3.64496Y5.39961
X3.64496Y5.47835
X3.69496Y0.06614
X3.71583Y1.57520
X3.72370Y3.38976
X3.72370Y3.84252
X3.73433Y1.34567
X3.73551Y2.85472
X3.74339Y4.69094
X3.74339Y4.80906
X3.76307Y5.04528
X3.76307Y5.16339
X3.78276Y3.50787
X3.78276Y3.74409
X3.81307Y0.06614
X3.83394Y1.57520
X3.84181Y3.38976
X3.84181Y3.84252
X3.87173Y0.58819
X3.87173Y0.82835
X3.87331Y2.10630
X3.87724Y2.34646
X3.88118Y4.69094
X3.88118Y4.80906
X3.88118Y5.04528
X3.88118Y5.16339
X3.89181Y1.34567
X3.89299Y2.85472
X3.90087Y3.50787
X3.90087Y3.74409
X3.94929Y0.06614
X3.94929Y0.18425
X3.94929Y0.30236
X3.95992Y3.38976
X3.95992Y3.84252
X3.97016Y1.57520
X3.97016Y1.69331
X3.97016Y1.81142
X3.97055Y1.10945
X3.97055Y1.22756
X3.97173Y2.61850
X3.97173Y2.73661
X4.01898Y3.50787
X4.01898Y3.74409
X4.01898Y4.69094
X4.01898Y4.80906
X4.01898Y5.04528
X4.01898Y5.16339
X4.07803Y3.38976
X4.07803Y3.84252
X4.13709Y3.50787
X4.13709Y3.74409
X4.13709Y4.37598
X4.13709Y4.45472
X4.13709Y4.57283
X4.13709Y4.69094
X4.13709Y4.80906
X4.13709Y5.04528
X4.13709Y5.16339
X4.13709Y5.28150
X4.13709Y5.39961
X4.13709Y5.47835
X4.17843Y1.59252
X4.17843Y1.76969
X4.17843Y1.90748
X4.17843Y2.12402
X4.17843Y2.22244
X4.17843Y2.37992
X4.17843Y2.53740
X4.17843Y2.67520
X4.19614Y3.38976
X4.19614Y3.84252
X4.19811Y1.04134
X4.19811Y1.12008
X4.19811Y2.77362
X4.19811Y2.85236
X4.25520Y3.50787
X4.25520Y3.74409
X4.27488Y4.57283
X4.27488Y4.69094
X4.27488Y5.16339
X4.27488Y5.28150
X4.27685Y1.19882
X4.27685Y1.35630
X4.27685Y1.51378
X4.31425Y3.38976
X4.31425Y3.84252
X4.37331Y3.50787
X4.37331Y3.74409
X4.38315Y2.10039
X4.39299Y4.57283
X4.39299Y4.69094
X4.39299Y5.16339
X4.39299Y5.28150
X4.39496Y1.88386
X4.43236Y3.38976
X4.43236Y3.84252
X4.46189Y1.97441
X4.47370Y2.22244
X4.47370Y2.30118
X4.49142Y3.50787
X4.49142Y3.74409
X4.50126Y1.89961
X4.51307Y2.57677
X4.52094Y2.49803
X4.53079Y4.37598
X4.53079Y4.45472
X4.53079Y4.57283
X4.53079Y4.69094
X4.53079Y4.80906
X4.53079Y4.92717
X4.53079Y5.04528
X4.53079Y5.16339
X4.53079Y5.28150
X4.53079Y5.39961
X4.53079Y5.47835
X4.55047Y3.38976
X4.55047Y3.84252
X4.56425Y1.20276
X4.56425Y1.35630
X4.56425Y1.51378
X4.56425Y1.67126
X4.56425Y1.82874
X4.57213Y2.65551
X4.59181Y2.30118
X4.61150Y2.23425
X4.61150Y2.57677
X4.62921Y3.07480
X4.62921Y3.15354
X4.62921Y3.27165
X4.62921Y3.38976
X4.62921Y3.50787
X4.62921Y3.74409
X4.62921Y3.86220
X4.62921Y3.98031
X4.62921Y4.09843
X4.62921Y4.17717
X4.63118Y1.89961
X4.69024Y2.49803
X4.70598Y3.50787
X4.70598Y3.74409
X4.72764Y4.37598
X4.72764Y4.45472
X4.72764Y4.57283
X4.72764Y4.69094
X4.72764Y4.80906
X4.72764Y4.92717
X4.72764Y5.04528
X4.72764Y5.16339
X4.72764Y5.28150
X4.72764Y5.39961
X4.72764Y5.47835
X4.72961Y1.91929
X4.73748Y2.21260
X4.76701Y3.27165
X4.76701Y3.38976
X4.76701Y3.86220
X4.76701Y3.98031
X4.77291Y1.35630
X4.77291Y1.51378
X4.77291Y1.67126
X4.77291Y1.82874
X4.78866Y1.23819
X4.79575Y2.49803
X4.79654Y2.26378
X4.82606Y4.37598
X4.82606Y4.57283
X4.82606Y4.69094
X4.82606Y5.16339
X4.82606Y5.28150
X4.82606Y5.47835
X4.88512Y3.27165
X4.88512Y3.38976
X4.88512Y3.86220
X4.88512Y3.98031
X4.88709Y2.57677
X4.92646Y1.12008
X4.92646Y1.27756
X4.92646Y1.43504
X4.92646Y1.59252
X4.92646Y1.75000
X4.92646Y1.90748
X4.92646Y2.65551
X4.93354Y2.16732
X4.93354Y2.50197
X4.94220Y3.74409
X4.94417Y3.50984
X4.94417Y4.57283
X4.94417Y4.69094
X4.94417Y5.16339
X4.94417Y5.28150
X4.94614Y1.04134
X4.94614Y2.77362
X4.94614Y2.85236
X5.02291Y3.07480
X5.02291Y3.15354
X5.02291Y3.27165
X5.02291Y3.38976
X5.02291Y3.50787
X5.02291Y3.62598
X5.02291Y3.74409
X5.02291Y3.86220
X5.02291Y3.98031
X5.02291Y4.09843
X5.02291Y4.17717
X5.06228Y4.37598
X5.06228Y4.57283
X5.06228Y4.69094
X5.06228Y5.16339
X5.06228Y5.28150
X5.06228Y5.47835
T003
X1.01622Y2.45972
X1.01622Y2.45972
X1.21316Y2.17323
X4.26504Y0.43031
X4.32311Y0.33031
X4.32311Y0.43031
X4.32311Y0.53031
X4.32311Y0.63031
X4.93433Y2.01772
X5.29260Y0.33071
X5.29555Y0.43031
X5.29555Y0.53031
X5.29555Y0.63031
X5.38315Y0.27953
T004
X0.60283Y2.77323
X0.70283Y2.77323
X0.80283Y2.77323
X0.90283Y2.77323
X1.00283Y2.77323
X1.10283Y2.77323
X4.32213Y1.08071
X4.32213Y2.81299
X4.42213Y1.08071
X4.42213Y2.81299
X4.52213Y1.08071
X4.52213Y2.81299
X4.62213Y1.08071
X4.62213Y2.81299
X4.72213Y1.08071
X4.72213Y2.81299
X4.82213Y1.08071
X4.82213Y2.81299
X5.51307Y0.23622
X5.51307Y0.33622
X5.51307Y0.43622
X5.51307Y0.53622
X5.51307Y0.63622
X5.51307Y0.73622
X5.55638Y1.19606
X5.55638Y1.29606
X5.55638Y1.39606
X5.55638Y1.49606
X5.55638Y1.59606
X5.55638Y1.69606
T005
X2.12213Y2.77441
X2.22213Y2.77441
X2.32213Y2.77441
X5.23748Y1.20866
X5.23748Y1.30866
X5.23748Y1.40866
X5.23748Y1.50866
X5.23748Y1.60866
X5.23748Y1.70866
X5.23748Y1.80866
X5.23748Y1.90866
X5.33748Y1.20866
X5.33748Y1.30866
X5.33748Y1.40866
X5.33748Y1.50866
X5.33748Y1.60866
X5.33748Y1.70866
X5.33748Y1.80866
X5.33748Y1.90866
T006
X0.15874Y3.50787
X0.15874Y3.74409
X0.17843Y4.80906
X0.17843Y5.04528
X0.27685Y3.62598
X0.29654Y4.92717
X0.39496Y3.50787
X0.39496Y3.74409
X0.41465Y4.80906
X0.41465Y5.04528
X0.74929Y3.50787
X0.74929Y3.74409
X0.76898Y4.80906
X0.76898Y5.04528
X0.86740Y3.62598
X0.88709Y4.92717
X0.98551Y3.50787
X0.98551Y3.74409
X1.00520Y4.80906
X1.00520Y5.04528
X1.63512Y3.50787
X1.63512Y3.74409
X1.65402Y4.80984
X1.65402Y5.04606
X1.75323Y3.62598
X1.77213Y4.92795
X1.87134Y3.50787
X1.87134Y3.74409
X1.89024Y4.80984
X1.89024Y5.04606
X2.22567Y3.50787
X2.22567Y3.74409
X2.24457Y4.80984
X2.24457Y5.04606
X2.34378Y3.62598
X2.36268Y4.92795
X2.46189Y3.50787
X2.46189Y3.74409
X2.48079Y4.80984
X2.48079Y5.04606
X2.73945Y3.50787
X2.73945Y3.74409
X2.74142Y4.80906
X2.74142Y5.04528
X2.85756Y3.62598
X2.85953Y4.92717
X2.97567Y3.50787
X2.97567Y3.74409
X2.97764Y4.80906
X2.97764Y5.04528
X3.33000Y3.50787
X3.33000Y3.74409
X3.33197Y4.80906
X3.33197Y5.04528
X3.44811Y3.62598
X3.45008Y4.92717
X3.56622Y3.50787
X3.56622Y3.74409
X3.56819Y4.80906
X3.56819Y5.04528
X4.21780Y4.80906
X4.21780Y5.04528
X4.33591Y4.92717
X4.45402Y4.80906
X4.45402Y5.04528
X4.80835Y4.80906
X4.80835Y5.04528
X4.92646Y4.92717
X5.04457Y4.80906
X5.04457Y5.04528
T007
X0.27606Y4.09921
X0.27685Y3.15433
X0.29575Y5.40039
X0.29654Y4.45551
X0.34693Y2.69449
X0.34772Y1.74961
X0.36780Y1.28228
X0.36858Y0.33740
X0.86661Y4.09921
X0.86740Y3.15433
X0.88630Y5.40039
X0.88709Y4.45551
X1.25362Y1.28228
X1.25441Y0.33740
X1.29181Y2.69291
X1.29260Y1.74803
X1.75323Y4.09764
X1.75402Y3.15276
X1.77213Y5.39961
X1.77291Y4.45472
X1.86465Y1.18110
X1.86543Y0.23622
X1.86622Y2.69567
X1.86701Y1.75079
X2.34378Y4.09764
X2.34457Y3.15276
X2.36268Y5.39961
X2.36346Y4.45472
X2.85677Y4.09921
X2.85756Y3.15433
X2.85874Y5.40039
X2.85953Y4.45551
X3.44732Y4.09921
X3.44811Y3.15433
X3.44929Y5.40039
X3.45008Y4.45551
X3.75520Y1.17953
X3.75598Y0.23465
X3.75598Y2.69488
X3.75677Y1.75000
X4.33512Y5.40039
X4.33591Y4.45551
X4.82449Y4.09921
X4.82528Y3.15433
X4.92567Y5.40039
X4.92646Y4.45551
M30
