G04 DesignSpark PCB Gerber Version 9.0 Build 5115 *
G04 #@! TF.Part,Single*
G04 #@! TF.FileFunction,Legend,Top *
G04 #@! TF.FilePolarity,Positive *
%FSLAX35Y35*%
%MOIN*%
%ADD10C,0.00394*%
%ADD22C,0.00500*%
%ADD106C,0.00512*%
%ADD105C,0.00787*%
%ADD107C,0.00984*%
%ADD12C,0.01000*%
%ADD104C,0.01575*%
X0Y0D02*
D02*
D10*
X13906Y359646D02*
Y365551D01*
X15874Y489764D02*
Y495669D01*
X20992Y219173D02*
Y225079D01*
X23079Y77953D02*
Y83858D01*
X41465Y359646D02*
Y365551D01*
X43433Y489764D02*
Y495669D01*
X47291Y303622D02*
Y421732D01*
X7921*
Y303622*
X47291*
X48551Y219173D02*
Y225079D01*
X49260Y433740D02*
Y551850D01*
X9890*
Y433740*
X49260*
X50638Y77953D02*
Y83858D01*
X54378Y163150D02*
Y281260D01*
X15008*
Y163150*
X54378*
X56465Y21929D02*
Y140039D01*
X17094*
Y21929*
X56465*
X72961Y359646D02*
Y365551D01*
X74929Y489764D02*
Y495669D01*
X100520Y359646D02*
Y365551D01*
X102488Y489764D02*
Y495669D01*
X106346Y303622D02*
Y421732D01*
X66976*
Y303622*
X106346*
X108315Y433740D02*
Y551850D01*
X68945*
Y433740*
X108315*
X109575Y281102D02*
Y162992D01*
X148945*
Y281102*
X109575*
X111661Y77953D02*
Y83858D01*
X139220Y77953D02*
Y83858D01*
X145047Y21929D02*
Y140039D01*
X105677*
Y21929*
X145047*
X155717Y421575D02*
Y303465D01*
X195087*
Y421575*
X155717*
X157606Y551772D02*
Y433661D01*
X196976*
Y551772*
X157606*
X161543Y365551D02*
Y359646D01*
X163433Y495748D02*
Y489843D01*
X172764Y67835D02*
Y73740D01*
X172921Y219291D02*
Y225197D01*
X189102Y365551D02*
Y359646D01*
X190992Y495748D02*
Y489843D01*
X200323Y67835D02*
Y73740D01*
X200480Y219291D02*
Y225197D01*
X206150Y11811D02*
Y129921D01*
X166780*
Y11811*
X206150*
X206307Y163268D02*
Y281378D01*
X166937*
Y163268*
X206307*
X214772Y421575D02*
Y303465D01*
X254142*
Y421575*
X214772*
X216661Y551772D02*
Y433661D01*
X256031*
Y551772*
X216661*
X220598Y365551D02*
Y359646D01*
X222488Y495748D02*
Y489843D01*
X248157Y365551D02*
Y359646D01*
X250047Y495748D02*
Y489843D01*
X271976Y359646D02*
Y365551D01*
X272173Y489764D02*
Y495669D01*
X299535Y359646D02*
Y365551D01*
X299732Y489764D02*
Y495669D01*
X305362Y303622D02*
Y421732D01*
X265992*
Y303622*
X305362*
X305559Y433740D02*
Y551850D01*
X266189*
Y433740*
X305559*
X331031Y359646D02*
Y365551D01*
X331228Y489764D02*
Y495669D01*
X355913Y129764D02*
Y11654D01*
X395283*
Y129764*
X355913*
X355992Y281299D02*
Y163189D01*
X395362*
Y281299*
X355992*
X358591Y359646D02*
Y365551D01*
X358787Y489764D02*
Y495669D01*
X361740Y73740D02*
Y67835D01*
X361819Y225276D02*
Y219370D01*
X364417Y303622D02*
Y421732D01*
X325047*
Y303622*
X364417*
X364614Y433740D02*
Y551850D01*
X325244*
Y433740*
X364614*
X389299Y73740D02*
Y67835D01*
X389378Y225276D02*
Y219370D01*
X419811Y489764D02*
Y495669D01*
X429063Y142323D02*
X431031Y144291D01*
X429063Y142323D02*
X431031Y140354D01*
X445205Y142323D02*
X429457D01*
X445205D02*
Y158071D01*
X447173Y156102*
X445205Y158071D02*
X443236Y156102D01*
X447370Y489764D02*
Y495669D01*
X449142Y138937D02*
G75*
G03Y145709J3386D01*
G01*
G75*
G03Y138937J-3386*
G01*
Y140906D02*
G75*
G03Y143740J1417D01*
G01*
G75*
G03Y140906J-1417*
G01*
G36*
G75*
G03Y143740J1417*
G01*
G75*
G03Y140906J-1417*
G01*
G37*
X453197Y433740D02*
Y551850D01*
X413827*
Y433740*
X453197*
X468748Y359646D02*
Y365551D01*
X478866Y489764D02*
Y495669D01*
X496307Y359646D02*
Y365551D01*
X502134Y303622D02*
Y421732D01*
X462764*
Y303622*
X502134*
X506425Y489764D02*
Y495669D01*
X512252Y433740D02*
Y551850D01*
X472882*
Y433740*
X512252*
X532311Y28031D02*
Y14173D01*
X415579*
Y81890*
X532311*
Y68031*
D02*
D12*
X207213Y272441D02*
X237213D01*
Y282441*
X207213*
Y272441*
X518748Y195866D02*
Y115866D01*
X538748*
Y195866*
X518748*
D02*
D22*
X30756Y250748D02*
X30559Y250551D01*
X30165Y250354*
X29575*
X29181Y250551*
X28984Y250748*
X28787Y251142*
Y251929*
X28984Y252323*
X29181Y252520*
X29575Y252717*
X30165*
X30559Y252520*
X30756Y252323*
X31937Y251142D02*
Y251929D01*
X32134Y252323*
X32331Y252520*
X32724Y252717*
X33118*
X33512Y252520*
X33709Y252323*
X33906Y251929*
Y251142*
X33709Y250748*
X33512Y250551*
X33118Y250354*
X32724*
X32331Y250551*
X32134Y250748*
X31937Y251142*
X35087Y250354D02*
Y252717D01*
X37055Y250354*
Y252717*
X38236Y250354D02*
Y252717D01*
X40205Y250354*
Y252717*
X41780Y250354D02*
X42567D01*
X42173D02*
Y252717D01*
X41780Y252323*
X44929Y250354D02*
X45717D01*
X45323D02*
Y252717D01*
X44929Y252323*
X28005Y371014D02*
X28177Y370842D01*
X28349Y370497*
Y369980*
X28177Y369636*
X28005Y369464*
X27660Y369291*
X26971*
X26627Y369464*
X26455Y369636*
X26282Y369980*
Y370497*
X26455Y370842*
X26627Y371014*
X27660Y372047D02*
X26971D01*
X26627Y372220*
X26455Y372392*
X26282Y372736*
Y373081*
X26455Y373425*
X26627Y373598*
X26971Y373770*
X27660*
X28005Y373598*
X28177Y373425*
X28349Y373081*
Y372736*
X28177Y372392*
X28005Y372220*
X27660Y372047*
X28349Y374803D02*
X26282D01*
X28349Y376526*
X26282*
X28349Y377559D02*
X26282D01*
X28349Y379281*
X26282*
X28349Y380832D02*
X28177Y381176D01*
X27833Y381521*
X27316Y381693*
X26799*
X26455Y381521*
X26282Y381176*
Y380832*
X26455Y380487*
X26799Y380315*
X27144Y380487*
X27316Y380832*
Y381176*
X27144Y381521*
X26799Y381693*
X33517Y500344D02*
X33689Y500172D01*
X33861Y499828*
Y499311*
X33689Y498967*
X33517Y498794*
X33172Y498622*
X32483*
X32139Y498794*
X31967Y498967*
X31794Y499311*
Y499828*
X31967Y500172*
X32139Y500344*
X33172Y501378D02*
X32483D01*
X32139Y501550*
X31967Y501722*
X31794Y502067*
Y502411*
X31967Y502756*
X32139Y502928*
X32483Y503100*
X33172*
X33517Y502928*
X33689Y502756*
X33861Y502411*
Y502067*
X33689Y501722*
X33517Y501550*
X33172Y501378*
X33861Y504134D02*
X31794D01*
X33861Y505856*
X31794*
X33861Y506890D02*
X31794D01*
X33861Y508612*
X31794*
X33861Y509990D02*
Y510679D01*
Y510335D02*
X31794D01*
X32139Y509990*
X33689Y512574D02*
X33861Y512919D01*
Y513263*
X33689Y513607*
X33344Y513780*
X33000Y513607*
X32828Y513263*
Y512919*
Y513263D02*
X32656Y513607D01*
X32311Y513780*
X31967Y513607*
X31794Y513263*
Y512919*
X31967Y512574*
X36556Y75369D02*
X36868Y75057D01*
X37181Y74431*
Y73494*
X36868Y72869*
X36556Y72557*
X35931Y72244*
X34681*
X34056Y72557*
X33743Y72869*
X33431Y73494*
Y74431*
X33743Y75057*
X34056Y75369*
X35931Y77244D02*
X34681D01*
X34056Y77557*
X33743Y77869*
X33431Y78494*
Y79119*
X33743Y79744*
X34056Y80057*
X34681Y80369*
X35931*
X36556Y80057*
X36868Y79744*
X37181Y79119*
Y78494*
X36868Y77869*
X36556Y77557*
X35931Y77244*
X37181Y82244D02*
X33431D01*
X37181Y85369*
X33431*
X37181Y87244D02*
X33431D01*
X37181Y90369*
X33431*
X37181Y92869D02*
Y94119D01*
Y93494D02*
X33431D01*
X34056Y92869*
X57921Y268268D02*
X58315Y268071D01*
X58906*
X59299Y268268*
X59496Y268661*
Y268858*
X59299Y269252*
X58906Y269449*
X57921*
Y270433*
X59496*
X61071D02*
X62055Y268071D01*
X63039Y270433*
X64614Y189884D02*
Y186134D01*
X67739*
X71177D02*
Y189884D01*
X69614D02*
X72739D01*
X77739Y186759D02*
X77427Y186447D01*
X76802Y186134*
X75864*
X75239Y186447*
X74927Y186759*
X74614Y187384*
Y188634*
X74927Y189259*
X75239Y189572*
X75864Y189884*
X76802*
X77427Y189572*
X77739Y189259*
X79614Y186447D02*
X80239Y186134D01*
X81177*
X81802Y186447*
X82114Y187072*
Y187384*
X81802Y188009*
X81177Y188322*
X79614*
Y189884*
X82114*
X84614Y186447D02*
X85239Y186134D01*
X86177*
X86802Y186447*
X87114Y187072*
Y187384*
X86802Y188009*
X86177Y188322*
X84614*
Y189884*
X87114*
X89927Y186447D02*
X90552Y186134D01*
X91177*
X91802Y186447*
X92114Y187072*
Y188947*
X91802Y189572*
X91177Y189884*
X90552*
X89927Y189572*
X89614Y188947*
Y187072*
X89927Y186447*
X91802Y189572*
X94614Y186134D02*
X97114Y189884D01*
X94614*
X67980Y121607D02*
X65480D01*
X67668Y123794*
X67980Y124419*
X67668Y125044*
X67043Y125357*
X66106*
X65480Y125044*
X77668Y123482D02*
X78293Y123169D01*
X78606Y122544*
X78293Y121919*
X77668Y121607*
X75480*
Y125357*
X77668*
X78293Y125044*
X78606Y124419*
X78293Y123794*
X77668Y123482*
X75480*
X80480Y122544D02*
X80793Y121919D01*
X81418Y121607*
X82043*
X82668Y121919*
X82980Y122544*
Y123169*
X82668Y123794*
X82043Y124107*
X81418*
X80793Y123794*
X80480Y123169*
Y122544*
X85480Y123794D02*
X86106Y124107D01*
X87043*
X87668Y123794*
X87980Y123169*
Y122232*
X87668Y121919*
X87043Y121607*
X86418*
X85793Y121919*
X85480Y122232*
Y122544*
X85793Y122857*
X86418Y123169*
X87043*
X87668Y122857*
X87980Y122544*
Y122232D02*
Y121607D01*
X90480D02*
Y124107D01*
Y123169D02*
X90793Y123794D01*
X91418Y124107*
X92043*
X92668Y123794*
X97980Y123169D02*
X97668Y123794D01*
X97043Y124107*
X96418*
X95793Y123794*
X95480Y123169*
Y122544*
X95793Y121919*
X96418Y121607*
X97043*
X97668Y121919*
X97980Y122544*
Y121607D02*
Y125357D01*
X67222Y180669D02*
X67715Y180423D01*
X68207*
X68699Y180669*
X68945Y181161*
Y182638*
X68699Y183130*
X68207Y183376*
X67715*
X67222Y183130*
X66976Y182638*
Y181161*
X67222Y180669*
X68699Y183130*
X71159Y180423D02*
X71406Y180669D01*
X71159Y180915*
X70913Y180669*
X71159Y180423*
X75343D02*
X76327D01*
X75835D02*
Y183376D01*
X75343Y182884*
X78787Y181407D02*
X80756D01*
X83217Y180423D02*
X84201D01*
X83709D02*
Y183376D01*
X83217Y182884*
X88384Y181654D02*
X89122D01*
Y181407*
X88876Y180915*
X88630Y180669*
X88138Y180423*
X87646*
X87154Y180669*
X86907Y180915*
X86661Y181407*
Y182392*
X86907Y182884*
X87154Y183130*
X87646Y183376*
X88138*
X88630Y183130*
X88876Y182884*
X89122Y182392*
X90598Y180423D02*
Y183376D01*
Y181900D02*
X93059D01*
Y180423D02*
Y183376D01*
X94535Y182392D02*
X96504D01*
X94535Y180423*
X96504*
X68354Y230472D02*
X65992D01*
Y231850*
X66189Y232244*
X66583Y232441*
X66976Y232244*
X67173Y231850*
Y230472*
Y231850D02*
X68354Y232441D01*
Y234016D02*
Y234803D01*
Y234409D02*
X65992D01*
X66386Y234016*
X68157Y236969D02*
X68354Y237362D01*
Y237756*
X68157Y238150*
X67764Y238346*
X66583*
X66189Y238150*
X65992Y237756*
Y237362*
X66189Y236969*
X66583Y236772*
X67764*
X68157Y236969*
X66189Y238150*
X71211Y132143D02*
X71836Y131831D01*
X72149Y131206*
X71836Y130581*
X71211Y130268*
X69024*
Y134018*
X71211*
X71836Y133706*
X72149Y133081*
X71836Y132456*
X71211Y132143*
X69024*
X74024Y130268D02*
Y132768D01*
Y131831D02*
X74336Y132456D01*
X74961Y132768*
X75586*
X76211Y132456*
X80274Y130268D02*
Y132768D01*
Y133706D02*
X86524Y131831*
X86211Y132456D01*
X85586Y132768*
X84961*
X84336Y132456*
X84024Y131831*
Y131206*
X84336Y130581*
X84961Y130268*
X85586*
X86211Y130581*
X86524Y131206*
Y130268D02*
Y134018D01*
X91524Y131831D02*
X91211Y132456D01*
X90586Y132768*
X89961*
X89336Y132456*
X89024Y131831*
Y131518*
X89336Y130893*
X89961Y130581*
X90586*
X91211Y130893*
X91524Y131518*
Y132768D02*
Y130268D01*
X91211Y129643*
X90586Y129331*
X89649*
X89024Y129643*
X96524Y130581D02*
X96211Y130268D01*
X95586*
X94961*
X94336Y130581*
X94024Y131206*
Y132143*
X94336Y132456*
X94961Y132768*
X95586*
X96211Y132456*
X96524Y132143*
Y131831*
X96211Y131518*
X95586Y131206*
X94961*
X94336Y131518*
X94024Y131831*
X74063Y260591D02*
X73866Y260394D01*
X73472Y260197*
X72882*
X72488Y260394*
X72291Y260591*
X72094Y260984*
Y261772*
X72291Y262165*
X72488Y262362*
X72882Y262559*
X73472*
X73866Y262362*
X74063Y262165*
X76819Y260197D02*
X75244D01*
X76622Y261575*
X76819Y261969*
X76622Y262362*
X76228Y262559*
X75638*
X75244Y262362*
X79969Y260197D02*
X78394D01*
X79772Y261575*
X79969Y261969*
X79772Y262362*
X79378Y262559*
X78787*
X78394Y262362*
X72693Y225547D02*
X56693D01*
Y218547*
X72693*
Y225547*
X74500Y258472D02*
Y242472D01*
X81500*
Y258472*
X74500*
X76819Y269252D02*
Y270039D01*
X77016Y270433*
X77213Y270630*
X77606Y270827*
X78000*
X78394Y270630*
X78591Y270433*
X78787Y270039*
Y269252*
X78591Y268858*
X78394Y268661*
X78000Y268465*
X77606*
X77213Y268661*
X77016Y268858*
X76819Y269252*
X79969Y270039D02*
Y269055D01*
X80165Y268661*
X80559Y268465*
X80953*
X81346Y268661*
X81543Y269055*
Y270039D02*
Y268465D01*
X83446Y270039D02*
X84365D01*
X83906Y270433D02*
Y268661D01*
X84102Y268465*
X84299*
X84496Y268661*
X77483Y230866D02*
X75416D01*
Y232072*
X75589Y232417*
X75933Y232589*
X76278Y232417*
X76450Y232072*
Y230866*
Y232072D02*
X77483Y232589D01*
Y233967D02*
Y234656D01*
Y234311D02*
X75416D01*
X75761Y233967*
X77483Y236722D02*
Y237411D01*
Y237067D02*
X75416D01*
X75761Y236722*
X81972Y209323D02*
Y225323D01*
X74972*
Y209323*
X81972*
X84028Y234378D02*
Y218378D01*
X91028*
Y234378*
X84028*
X85480Y236181D02*
Y238543D01*
X86858*
X87252Y238346*
X87449Y237953*
X87252Y237559*
X86858Y237362*
X85480*
X86858D02*
X87449Y236181D01*
X89024D02*
X89811D01*
X89417D02*
Y238543D01*
X89024Y238150*
X93354Y236181D02*
X91780D01*
X93157Y237559*
X93354Y237953*
X93157Y238346*
X92764Y238543*
X92173*
X91780Y238346*
X86311Y258472D02*
Y242472D01*
X93311*
Y258472*
X86311*
X86346Y259572D02*
Y261639D01*
X87552*
X87897Y261467*
X88069Y261122*
X87897Y260778*
X87552Y260606*
X86346*
X87552D02*
X88069Y259572D01*
X89619D02*
X89964Y259744D01*
X90308Y260089*
X90480Y260606*
Y261122*
X90308Y261467*
X89964Y261639*
X89619*
X89275Y261467*
X89102Y261122*
X89275Y260778*
X89619Y260606*
X89964*
X90308Y260778*
X90480Y261122*
X87060Y371014D02*
X87232Y370842D01*
X87404Y370497*
Y369980*
X87232Y369636*
X87060Y369464*
X86715Y369291*
X86026*
X85682Y369464*
X85510Y369636*
X85337Y369980*
Y370497*
X85510Y370842*
X85682Y371014*
X86715Y372047D02*
X86026D01*
X85682Y372220*
X85510Y372392*
X85337Y372736*
Y373081*
X85510Y373425*
X85682Y373598*
X86026Y373770*
X86715*
X87060Y373598*
X87232Y373425*
X87404Y373081*
Y372736*
X87232Y372392*
X87060Y372220*
X86715Y372047*
X87404Y374803D02*
X85337D01*
X87404Y376526*
X85337*
X87404Y377559D02*
X85337D01*
X87404Y379281*
X85337*
X87404Y380832D02*
X87232Y381176D01*
X86888Y381521*
X86371Y381693*
X85854*
X85510Y381521*
X85337Y381176*
Y380832*
X85510Y380487*
X85854Y380315*
X86199Y380487*
X86371Y380832*
Y381176*
X86199Y381521*
X85854Y381693*
X89816Y500738D02*
X89988Y500566D01*
X90160Y500222*
Y499705*
X89988Y499360*
X89816Y499188*
X89471Y499016*
X88782*
X88438Y499188*
X88266Y499360*
X88093Y499705*
Y500222*
X88266Y500566*
X88438Y500738*
X89471Y501772D02*
X88782D01*
X88438Y501944*
X88266Y502116*
X88093Y502461*
Y502805*
X88266Y503150*
X88438Y503322*
X88782Y503494*
X89471*
X89816Y503322*
X89988Y503150*
X90160Y502805*
Y502461*
X89988Y502116*
X89816Y501944*
X89471Y501772*
X90160Y504528D02*
X88093D01*
X90160Y506250*
X88093*
X90160Y507283D02*
X88093D01*
X90160Y509006*
X88093*
X90160Y510384D02*
Y511073D01*
Y510728D02*
X88093D01*
X88438Y510384*
X89988Y512968D02*
X90160Y513312D01*
Y513657*
X89988Y514001*
X89644Y514173*
X89299Y514001*
X89127Y513657*
Y513312*
Y513657D02*
X88955Y514001D01*
X88610Y514173*
X88266Y514001*
X88093Y513657*
Y513312*
X88266Y512968*
X95323Y233031D02*
X95126Y232835D01*
X94732Y232638*
X94142*
X93748Y232835*
X93551Y233031*
X93354Y233425*
Y234213*
X93551Y234606*
X93748Y234803*
X94142Y235000*
X94732*
X95126Y234803*
X95323Y234606*
X96898Y232638D02*
X97685D01*
X97291D02*
Y235000D01*
X96898Y234606*
X100244Y233819D02*
X100638D01*
X101031Y234016*
X101228Y234409*
X101031Y234803*
X100638Y235000*
X100244*
X99850Y234803*
X99654Y234409*
X99850Y234016*
X100244Y233819*
X99850Y233622*
X99654Y233228*
X99850Y232835*
X100244Y232638*
X100638*
X101031Y232835*
X101228Y233228*
X101031Y233622*
X100638Y233819*
X95283Y267323D02*
X55283D01*
Y287323*
X115283*
Y267323*
X95283*
X96504Y269055D02*
X96701Y268661D01*
X97094Y268465*
X97882*
X98276Y268661*
X98472Y269055*
X98276Y269449*
X97882Y269646*
X97094*
X96701Y269843*
X96504Y270236*
X96701Y270630*
X97094Y270827*
X97882*
X98276Y270630*
X98472Y270236*
X99654Y268465D02*
Y270827D01*
X100835*
X101228Y270630*
X101425Y270433*
X101622Y270039*
Y269252*
X101425Y268858*
X101228Y268661*
X100835Y268465*
X99654*
X102803D02*
Y270827D01*
X104772Y268465*
Y270827*
X97685Y260039D02*
Y262402D01*
X99063*
X99457Y262205*
X99654Y261811*
X99457Y261417*
X99063Y261220*
X97685*
X99063D02*
X99654Y260039D01*
X101425Y261220D02*
X101819D01*
X102213Y261417*
X102409Y261811*
X102213Y262205*
X101819Y262402*
X101425*
X101031Y262205*
X100835Y261811*
X101031Y261417*
X101425Y261220*
X101031Y261024*
X100835Y260630*
X101031Y260236*
X101425Y260039*
X101819*
X102213Y260236*
X102409Y260630*
X102213Y261024*
X101819Y261220*
X98122Y258472D02*
Y242472D01*
X105122*
Y258472*
X98122*
X99689Y209323D02*
Y225323D01*
X92689*
Y209323*
X99689*
X103841Y360236D02*
X105908D01*
Y361959*
X104875Y363509D02*
Y363854D01*
X104703Y364198*
X104358Y364370*
X104014Y364198*
X103841Y363854*
Y363509*
X104014Y363165*
X104358Y362992*
X104703Y363165*
X104875Y363509*
X105047Y363165*
X105392Y362992*
X105736Y363165*
X105908Y363509*
Y363854*
X105736Y364198*
X105392Y364370*
X105047Y364198*
X104875Y363854*
X106223Y194646D02*
X104156D01*
Y195852*
X104329Y196196*
X104673Y196368*
X105018Y196196*
X105190Y195852*
Y194646*
Y195852D02*
X106223Y196368D01*
Y197746D02*
Y198435D01*
Y198091D02*
X104156D01*
X104501Y197746*
X106051Y200330D02*
X106223Y200674D01*
Y201019*
X106051Y201363*
X105707Y201535*
X105362Y201363*
X105190Y201019*
Y200674*
Y201019D02*
X105018Y201363D01*
X104673Y201535*
X104329Y201363*
X104156Y201019*
Y200674*
X104329Y200330*
X108043Y202891D02*
Y206691D01*
X117643*
Y202891*
X108043*
X108187Y207556D02*
X111987D01*
Y197956*
X108187*
Y207556*
X107803Y376772D02*
X110165D01*
Y378740*
Y380315D02*
Y381102D01*
Y380709D02*
X107803D01*
X108197Y380315*
X110165Y383465D02*
Y384252D01*
Y383858D02*
X107803D01*
X108197Y383465*
X111218Y381178D02*
X115018D01*
Y371578*
X111218*
Y381178*
X115950Y364498D02*
Y360698D01*
X106350*
Y364498*
X115950*
X117646Y219488D02*
X118433D01*
X118039D02*
Y221850D01*
X117646D02*
X118433D01*
X122173Y219882D02*
X121976Y219685D01*
X121583Y219488*
X120992*
X120598Y219685*
X120402Y219882*
X120205Y220276*
Y221063*
X120402Y221457*
X120598Y221654*
X120992Y221850*
X121583*
X121976Y221654*
X122173Y221457*
X124929Y219488D02*
X123354D01*
X124732Y220866*
X124929Y221260*
X124732Y221654*
X124339Y221850*
X123748*
X123354Y221654*
X117124Y370154D02*
X120924D01*
Y360554*
X117124*
Y370154*
X117370Y281924D02*
Y284582D01*
X118920*
X119363Y284360*
X119585Y283917*
X119363Y283474*
X118920Y283253*
X117370*
X120913Y284582D02*
Y281924D01*
X123128*
X126228D02*
X124457D01*
X126007Y283474*
X126228Y283917*
X126007Y284360*
X125564Y284582*
X124900*
X124457Y284360*
X116780Y196220D02*
X116976Y196024D01*
X117173Y195630*
Y195039*
X116976Y194646*
X116780Y194449*
X116386Y194252*
X115598*
X115205Y194449*
X115008Y194646*
X114811Y195039*
Y195630*
X115008Y196024*
X115205Y196220*
X117173Y197795D02*
Y198583D01*
Y198189D02*
X114811D01*
X115205Y197795*
X117173Y201142D02*
X116976Y201535D01*
X116583Y201929*
X115992Y202126*
X115402*
X115008Y201929*
X114811Y201535*
Y201142*
X115008Y200748*
X115402Y200551*
X115795Y200748*
X115992Y201142*
Y201535*
X115795Y201929*
X115402Y202126*
X117843Y402709D02*
Y406459D01*
X120968*
X120343Y404584D02*
X117843D01*
X124093Y402709D02*
Y405209D01*
Y406147D02*
X129405Y402709*
X129093D01*
Y406459*
X133363Y405209D02*
X134822D01*
X134093Y405834D02*
Y403022D01*
X134405Y402709*
X134718*
X135030Y403022*
X140343D02*
X140030Y402709D01*
X139405*
X138780*
X138155Y403022*
X137843Y403647*
Y404584*
X138155Y404897*
X138780Y405209*
X139405*
X140030Y404897*
X140343Y404584*
Y404272*
X140030Y403959*
X139405Y403647*
X138780*
X138155Y403959*
X137843Y404272*
X142843Y402709D02*
Y405209D01*
Y404272D02*
X143155Y404897D01*
X143780Y405209*
X144405*
X145030Y404897*
X120030Y413246D02*
X120655Y412933D01*
X120968Y412308*
X120655Y411683*
X120030Y411370*
X117843*
Y415120*
X120030*
X120655Y414808*
X120968Y414183*
X120655Y413558*
X120030Y413246*
X117843*
X122843Y411370D02*
Y413870D01*
Y412933D02*
X123155Y413558D01*
X123780Y413870*
X124405*
X125030Y413558*
X129093Y411370D02*
Y413870D01*
Y414808D02*
X135343Y412933*
X135030Y413558D01*
X134405Y413870*
X133780*
X133155Y413558*
X132843Y412933*
Y412308*
X133155Y411683*
X133780Y411370*
X134405*
X135030Y411683*
X135343Y412308*
Y411370D02*
Y415120D01*
X140343Y412933D02*
X140030Y413558D01*
X139405Y413870*
X138780*
X138155Y413558*
X137843Y412933*
Y412620*
X138155Y411996*
X138780Y411683*
X139405*
X140030Y411996*
X140343Y412620*
Y413870D02*
Y411370D01*
X140030Y410746*
X139405Y410433*
X138468*
X137843Y410746*
X145343Y411683D02*
X145030Y411370D01*
X144405*
X143780*
X143155Y411683*
X142843Y412308*
Y413246*
X143155Y413558*
X143780Y413870*
X144405*
X145030Y413558*
X145343Y413246*
Y412933*
X145030Y412620*
X144405Y412308*
X143780*
X143155Y412620*
X142843Y412933*
X119066Y210372D02*
Y214172D01*
X128666*
Y210372*
X119066*
X118950Y354872D02*
X119122Y354700D01*
X119294Y354356*
Y353839*
X119122Y353494*
X118950Y353322*
X118605Y353150*
X117916*
X117572Y353322*
X117400Y353494*
X117227Y353839*
Y354356*
X117400Y354700*
X117572Y354872*
X119294Y356250D02*
Y356939D01*
Y356594D02*
X117227D01*
X117572Y356250*
X119122Y358661D02*
X119294Y359006D01*
Y359523*
X119122Y359867*
X118778Y360039*
X118605*
X118261Y359867*
X118089Y359523*
Y358661*
X117227*
Y360039*
X122392Y540017D02*
X123017Y539705D01*
X123330Y539080*
X123017Y538455*
X122392Y538142*
X120205*
Y541892*
X122392*
X123017Y541580*
X123330Y540955*
X123017Y540330*
X122392Y540017*
X120205*
X125205Y538142D02*
Y540642D01*
Y539705D02*
X125517Y540330D01*
X126142Y540642*
X126767*
X127392Y540330*
X131455Y538142D02*
Y540642D01*
Y541580D02*
X137705Y539705*
X137392Y540330D01*
X136767Y540642*
X136142*
X135517Y540330*
X135205Y539705*
Y539080*
X135517Y538455*
X136142Y538142*
X136767*
X137392Y538455*
X137705Y539080*
Y538142D02*
Y541892D01*
X142705Y539705D02*
X142392Y540330D01*
X141767Y540642*
X141142*
X140517Y540330*
X140205Y539705*
Y539392*
X140517Y538767*
X141142Y538455*
X141767*
X142392Y538767*
X142705Y539392*
Y540642D02*
Y538142D01*
X142392Y537517*
X141767Y537205*
X140830*
X140205Y537517*
X147705Y538455D02*
X147392Y538142D01*
X146767*
X146142*
X145517Y538455*
X145205Y539080*
Y540017*
X145517Y540330*
X146142Y540642*
X146767*
X147392Y540330*
X147705Y540017*
Y539705*
X147392Y539392*
X146767Y539080*
X146142*
X145517Y539392*
X145205Y539705*
X122882Y246811D02*
X122685Y246614D01*
X122291Y246417*
X121701*
X121307Y246614*
X121110Y246811*
X120913Y247205*
Y247992*
X121110Y248386*
X121307Y248583*
X121701Y248780*
X122291*
X122685Y248583*
X122882Y248386*
X124063Y247205D02*
Y247992D01*
X124260Y248386*
X124457Y248583*
X124850Y248780*
X125244*
X125638Y248583*
X125835Y248386*
X126031Y247992*
Y247205*
X125835Y246811*
X125638Y246614*
X125244Y246417*
X124850*
X124457Y246614*
X124260Y246811*
X124063Y247205*
X127213Y246417D02*
Y248780D01*
X129181Y246417*
Y248780*
X130362Y246417D02*
Y248780D01*
X132331Y246417*
Y248780*
X133906Y246417D02*
X134693D01*
X134299D02*
Y248780D01*
X133906Y248386*
X138236Y246417D02*
X136661D01*
X138039Y247795*
X138236Y248189*
X138039Y248583*
X137646Y248780*
X137055*
X136661Y248583*
X120924Y371578D02*
X117124D01*
Y381178*
X120924*
Y371578*
X124326Y90772D02*
X124014Y91085D01*
X123701Y91710*
Y92648*
X124014Y93272*
X124326Y93585*
X124951Y93898*
X126201*
X126826Y93585*
X127139Y93272*
X127451Y92648*
Y91710*
X127139Y91085*
X126826Y90772*
X124951Y88898D02*
X126201D01*
X126826Y88585*
X127139Y88272*
X127451Y87648*
Y87022*
X127139Y86398*
X126826Y86085*
X126201Y85772*
X124951*
X124326Y86085*
X124014Y86398*
X123701Y87022*
Y87648*
X124014Y88272*
X124326Y88585*
X124951Y88898*
X123701Y83898D02*
X127451D01*
X123701Y80772*
X127451*
X123701Y78898D02*
X127451D01*
X123701Y75772*
X127451*
X124014Y73585D02*
X123701Y72960D01*
Y72335*
X124014Y71710*
X124639Y71398*
X125264Y71710*
X125576Y72335*
Y72960*
Y72335D02*
X125889Y71710D01*
X126514Y71398*
X127139Y71710*
X127451Y72335*
Y72960*
X127139Y73585*
X122222Y383760D02*
X122370Y383612D01*
X122518Y383317*
Y382874*
X122370Y382579*
X122222Y382431*
X121927Y382283*
X121337*
X121041Y382431*
X120894Y382579*
X120746Y382874*
Y383317*
X120894Y383612*
X121041Y383760*
X122518Y384941D02*
Y385531D01*
Y385236D02*
X120746D01*
X121041Y384941*
X122518Y388189D02*
Y387008D01*
X121484Y388041*
X121189Y388189*
X120894Y388041*
X120746Y387746*
Y387303*
X120894Y387008*
X126435Y366066D02*
X122635D01*
Y375666*
X126435*
Y366066*
X123551Y376772D02*
X125913D01*
Y378740*
Y380512D02*
X125717Y380906D01*
X125323Y381299*
X124732Y381496*
X124142*
X123748Y381299*
X123551Y380906*
Y380512*
X123748Y380118*
X124142Y379921*
X124535Y380118*
X124732Y380512*
Y380906*
X124535Y381299*
X124142Y381496*
X126579Y192067D02*
Y208067D01*
X119579*
Y192067*
X126579*
X128147Y375666D02*
X131947D01*
Y366066*
X128147*
Y375666*
X130608Y198903D02*
X130387Y198681D01*
X129944Y198460*
X129280*
X128837Y198681*
X128615Y198903*
X128394Y199346*
Y200231*
X128615Y200674*
X128837Y200896*
X129280Y201117*
X129944*
X130387Y200896*
X130608Y200674*
X133709Y198460D02*
X131937D01*
X133487Y200010*
X133709Y200453*
X133487Y200896*
X133044Y201117*
X132380*
X131937Y200896*
X135702Y198681D02*
X136145Y198460D01*
X136588*
X137031Y198681*
X137252Y199124*
Y200453*
X137031Y200896*
X136588Y201117*
X136145*
X135702Y200896*
X135480Y200453*
Y199124*
X135702Y198681*
X137031Y200896*
X134230Y209533D02*
X134009Y209311D01*
X133566Y209090*
X132902*
X132459Y209311*
X132237Y209533*
X132016Y209976*
Y210861*
X132237Y211304*
X132459Y211526*
X132902Y211747*
X133566*
X134009Y211526*
X134230Y211304*
X137331Y209090D02*
X135559D01*
X137109Y210640*
X137331Y211083*
X137109Y211526*
X136667Y211747*
X136002*
X135559Y211526*
X139545Y209090D02*
X140431D01*
X139988D02*
Y211747D01*
X139545Y211304*
X131154Y378100D02*
X131327Y377928D01*
X131499Y377584*
Y377067*
X131327Y376722*
X131154Y376550*
X130810Y376378*
X130121*
X129776Y376550*
X129604Y376722*
X129432Y377067*
Y377584*
X129604Y377928*
X129776Y378100*
X131499Y379478D02*
Y380167D01*
Y379823D02*
X129432D01*
X129776Y379478*
X130982Y381890D02*
X130638Y382062D01*
X130465Y382407*
Y382751*
X130638Y383096*
X130982Y383268*
X131327Y383096*
X131499Y382751*
Y382407*
X131327Y382062*
X130982Y381890*
X130465*
X129949Y382062*
X129604Y382407*
X129432Y382751*
X134944Y351969D02*
X137011D01*
Y353691*
Y355069D02*
Y355758D01*
Y355413D02*
X134944D01*
X135288Y355069*
X136839Y357653D02*
X137011Y357997D01*
Y358342*
X136839Y358686*
X136494Y358858*
X135461*
X135116Y358686*
X134944Y358342*
Y357997*
X135116Y357653*
X135461Y357480*
X136494*
X136839Y357653*
X135116Y358686*
X136543Y383858D02*
X136740Y383661D01*
X136937Y383268*
Y382677*
X136740Y382283*
X136543Y382087*
X136150Y381890*
X135362*
X134969Y382087*
X134772Y382283*
X134575Y382677*
Y383268*
X134772Y383661*
X134969Y383858*
X136937Y385433D02*
Y386220D01*
Y385827D02*
X134575D01*
X134969Y385433*
X136740Y388386D02*
X136937Y388780D01*
Y389173*
X136740Y389567*
X136346Y389764*
X135953Y389567*
X135756Y389173*
Y388780*
Y389173D02*
X135559Y389567D01*
X135165Y389764*
X134772Y389567*
X134575Y389173*
Y388780*
X134772Y388386*
X137853Y360554D02*
X134053D01*
Y370154*
X137853*
Y360554*
Y371578D02*
X134053D01*
Y381178*
X137853*
Y371578*
X139171Y381178D02*
X142971D01*
Y371578*
X139171*
Y381178*
X140062Y382283D02*
X142129D01*
Y384006*
Y385384D02*
Y386073D01*
Y385728D02*
X140062D01*
X140406Y385384*
X142129Y389173D02*
Y387795D01*
X140923Y389001*
X140579Y389173*
X140234Y389001*
X140062Y388657*
Y388140*
X140234Y387795*
X145328Y354478D02*
X145500Y354306D01*
X145672Y353962*
Y353445*
X145500Y353100*
X145328Y352928*
X144983Y352756*
X144294*
X143950Y352928*
X143778Y353100*
X143605Y353445*
Y353962*
X143778Y354306*
X143950Y354478*
X145672Y355856D02*
Y356545D01*
Y356201D02*
X143605D01*
X143950Y355856*
X145672Y358268D02*
X143605Y359646D01*
Y358268*
X149270Y366066D02*
X145470D01*
Y375666*
X149270*
Y366066*
X149414Y364498D02*
Y360698D01*
X139814*
Y364498*
X149414*
X150298Y374016D02*
X152365D01*
Y375738*
Y377116D02*
Y377805D01*
Y377461D02*
X150298D01*
X150643Y377116*
X152193Y379700D02*
X152365Y380044D01*
Y380389*
X152193Y380733*
X151848Y380906*
X151504Y380733*
X151331Y380389*
Y380044*
Y380389D02*
X151159Y380733D01*
X150815Y380906*
X150470Y380733*
X150298Y380389*
Y380044*
X150470Y379700*
X153595Y354478D02*
X153768Y354306D01*
X153940Y353962*
Y353445*
X153768Y353100*
X153595Y352928*
X153251Y352756*
X152562*
X152217Y352928*
X152045Y353100*
X151873Y353445*
Y353962*
X152045Y354306*
X152217Y354478*
X153940Y355856D02*
Y356545D01*
Y356201D02*
X151873D01*
X152217Y355856*
X153940Y359129D02*
X151873D01*
X153251Y358268*
Y359646*
X154782Y360554D02*
X150982D01*
Y370154*
X154782*
Y360554*
X174216Y354577D02*
X174043Y354749D01*
X173871Y355093*
Y355610*
X174043Y355955*
X174216Y356127*
X174560Y356299*
X175249*
X175594Y356127*
X175766Y355955*
X175938Y355610*
Y355093*
X175766Y354749*
X175594Y354577*
X174560Y353543D02*
X175249D01*
X175594Y353371*
X175766Y353199*
X175938Y352854*
Y352510*
X175766Y352165*
X175594Y351993*
X175249Y351821*
X174560*
X174216Y351993*
X174043Y352165*
X173871Y352510*
Y352854*
X174043Y353199*
X174216Y353371*
X174560Y353543*
X173871Y350787D02*
X175938D01*
X173871Y349065*
X175938*
X173871Y348031D02*
X175938D01*
X173871Y346309*
X175938*
X173871Y344931D02*
Y344242D01*
Y344587D02*
X175938D01*
X175594Y344931*
X174043Y342347D02*
X173871Y342003D01*
Y341658*
X174043Y341314*
X174388Y341142*
X175421*
X175766Y341314*
X175938Y341658*
Y342003*
X175766Y342347*
X175421Y342520*
X174388*
X174043Y342347*
X175766Y341314*
X176972Y511467D02*
X176799Y511639D01*
X176627Y511983*
Y512500*
X176799Y512844*
X176972Y513017*
X177316Y513189*
X178005*
X178350Y513017*
X178522Y512844*
X178694Y512500*
Y511983*
X178522Y511639*
X178350Y511467*
X177316Y510433D02*
X178005D01*
X178350Y510261*
X178522Y510089*
X178694Y509744*
Y509400*
X178522Y509055*
X178350Y508883*
X178005Y508711*
X177316*
X176972Y508883*
X176799Y509055*
X176627Y509400*
Y509744*
X176799Y510089*
X176972Y510261*
X177316Y510433*
X176627Y507677D02*
X178694D01*
X176627Y505955*
X178694*
X176627Y504921D02*
X178694D01*
X176627Y503199*
X178694*
X176627Y501821D02*
Y501132D01*
Y501476D02*
X178694D01*
X178350Y501821*
X176627Y498548D02*
X178694D01*
X177316Y499409*
Y498031*
X179511Y253531D02*
X179198Y253219D01*
X178573Y252906*
X177636*
X177011Y253219*
X176698Y253531*
X176386Y254156*
Y255406*
X176698Y256031*
X177011Y256344*
X177636Y256656*
X178573*
X179198Y256344*
X179511Y256031*
X181386Y254156D02*
Y255406D01*
X181698Y256031*
X182011Y256344*
X182636Y256656*
X183261*
X183886Y256344*
X184198Y256031*
X184511Y255406*
Y254156*
X184198Y253531*
X183886Y253219*
X183261Y252906*
X182636*
X182011Y253219*
X181698Y253531*
X181386Y254156*
X186386Y252906D02*
Y256656D01*
X189511Y252906*
Y256656*
X191386Y252906D02*
Y256656D01*
X194511Y252906*
Y256656*
X196386Y253219D02*
X197011Y252906D01*
X197948*
X198573Y253219*
X198886Y253844*
Y254156*
X198573Y254781*
X197948Y255094*
X196386*
Y256656*
X198886*
X186398Y62731D02*
X186711Y62419D01*
X187023Y61794*
Y60856*
X186711Y60231*
X186398Y59919*
X185773Y59606*
X184523*
X183898Y59919*
X183585Y60231*
X183273Y60856*
Y61794*
X183585Y62419*
X183898Y62731*
X185773Y64606D02*
X184523D01*
X183898Y64919*
X183585Y65231*
X183273Y65856*
Y66481*
X183585Y67106*
X183898Y67419*
X184523Y67731*
X185773*
X186398Y67419*
X186711Y67106*
X187023Y66481*
Y65856*
X186711Y65231*
X186398Y64919*
X185773Y64606*
X187023Y69606D02*
X183273D01*
X187023Y72731*
X183273*
X187023Y74606D02*
X183273D01*
X187023Y77731*
X183273*
X187023Y79606D02*
X183273Y82106D01*
Y79606*
X209922Y236764D02*
X211172D01*
X210547D02*
Y240514D01*
X209922D02*
X211172D01*
X213984Y236764D02*
Y240514D01*
X217109Y236764*
Y240514*
X211583Y78073D02*
Y74323D01*
X214708*
X219083D02*
X216583D01*
X218770Y76511*
X219083Y77136*
X218770Y77761*
X218145Y78073*
X217208*
X216583Y77761*
X213640Y262598D02*
X213952Y263224D01*
Y264161*
X213640Y264786*
X213015Y265098*
X212702*
X212077Y264786*
X211765Y264161*
Y262598*
X210202*
Y265098*
Y267598D02*
X213952Y269161D01*
X210202Y270724*
X216575Y218744D02*
X232575D01*
Y225744*
X216575*
Y218744*
X221976Y230071D02*
Y233821D01*
X224164*
X224789Y233509*
X225102Y232884*
X224789Y232259*
X224164Y231946*
X221976*
X224164D02*
X225102Y230071D01*
X229476D02*
X226976D01*
X229164Y232259*
X229476Y232884*
X229164Y233509*
X228539Y233821*
X227602*
X226976Y233509*
X222406Y72687D02*
Y68887D01*
X212806*
Y72687*
X222406*
X222626Y260849D02*
Y261787D01*
X222939*
X223563Y261474*
X223876Y261161*
X224189Y260537*
Y259911*
X223876Y259287*
X223563Y258974*
X222939Y258661*
X221689*
X221063Y258974*
X220751Y259287*
X220439Y259911*
Y260537*
X220751Y261161*
X221063Y261474*
X221689Y261787*
X224189Y263661D02*
X220439D01*
X224189Y266787*
X220439*
X224189Y268661D02*
X220439D01*
Y270537*
X220751Y271161*
X221063Y271474*
X221689Y271787*
X222939*
X223563Y271474*
X223876Y271161*
X224189Y270537*
Y268661*
X225394Y67287D02*
X241394D01*
Y74287*
X225394*
Y67287*
X232424Y76917D02*
X232112Y76604D01*
X231487Y76292*
X230549*
X229924Y76604*
X229612Y76917*
X229299Y77542*
Y78792*
X229612Y79417*
X229924Y79730*
X230549Y80042*
X231487*
X232112Y79730*
X232424Y79417*
X235237Y76292D02*
X235862Y76604D01*
X236487Y77230*
X236799Y78167*
Y79104*
X236487Y79730*
X235862Y80042*
X235237*
X234612Y79730*
X234299Y79104*
X234612Y78480*
X235237Y78167*
X235862*
X236487Y78480*
X236799Y79104*
X230244Y165551D02*
Y167913D01*
X232213Y165551*
Y167913*
X233394Y165551D02*
Y167913D01*
X235362*
X234969Y166732D02*
X233394D01*
X236543Y165945D02*
X238118D01*
Y166732D02*
X236543D01*
X239890Y165748D02*
X240283Y165551D01*
X240677*
X241071Y165748*
X241268Y166142*
X241071Y166535*
X240677Y166732*
X240283*
X240677D02*
X241071Y166929D01*
X241268Y167323*
X241071Y167717*
X240677Y167913*
X240283*
X239890Y167717*
X244417Y166535D02*
X244220Y166929D01*
X243827Y167126*
X243433*
X243039Y166929*
X242843Y166535*
Y166142*
X243039Y165748*
X243433Y165551*
X243827*
X244220Y165748*
X244417Y166142*
Y165551D02*
Y167913D01*
X247370Y166732D02*
X247764Y166535D01*
X247961Y166142*
X247764Y165748*
X247370Y165551*
X245992*
Y167913*
X247370*
X247764Y167717*
X247961Y167323*
X247764Y166929*
X247370Y166732*
X245992*
X232483Y354183D02*
X232311Y354355D01*
X232139Y354700*
Y355217*
X232311Y355561*
X232483Y355733*
X232828Y355906*
X233517*
X233861Y355733*
X234033Y355561*
X234206Y355217*
Y354700*
X234033Y354355*
X233861Y354183*
X232828Y353150D02*
X233517D01*
X233861Y352977*
X234033Y352805*
X234206Y352461*
Y352116*
X234033Y351772*
X233861Y351599*
X233517Y351427*
X232828*
X232483Y351599*
X232311Y351772*
X232139Y352116*
Y352461*
X232311Y352805*
X232483Y352977*
X232828Y353150*
X232139Y350394D02*
X234206D01*
X232139Y348671*
X234206*
X232139Y347638D02*
X234206D01*
X232139Y345915*
X234206*
X232139Y344537D02*
Y343848D01*
Y344193D02*
X234206D01*
X233861Y344537*
X232311Y341954D02*
X232139Y341609D01*
Y341265*
X232311Y340920*
X232656Y340748*
X233689*
X234033Y340920*
X234206Y341265*
Y341609*
X234033Y341954*
X233689Y342126*
X232656*
X232311Y341954*
X234033Y340920*
X234452Y511467D02*
X234280Y511639D01*
X234107Y511983*
Y512500*
X234280Y512844*
X234452Y513017*
X234796Y513189*
X235485*
X235830Y513017*
X236002Y512844*
X236174Y512500*
Y511983*
X236002Y511639*
X235830Y511467*
X234796Y510433D02*
X235485D01*
X235830Y510261*
X236002Y510089*
X236174Y509744*
Y509400*
X236002Y509055*
X235830Y508883*
X235485Y508711*
X234796*
X234452Y508883*
X234280Y509055*
X234107Y509400*
Y509744*
X234280Y510089*
X234452Y510261*
X234796Y510433*
X234107Y507677D02*
X236174D01*
X234107Y505955*
X236174*
X234107Y504921D02*
X236174D01*
X234107Y503199*
X236174*
X234107Y501821D02*
Y501132D01*
Y501476D02*
X236174D01*
X235830Y501821*
X234107Y498548D02*
X236174D01*
X234796Y499409*
Y498031*
X234425Y262598D02*
X230675D01*
X234425Y265724*
X230675*
X233800Y270724D02*
X234112Y270411D01*
X234425Y269786*
Y268848*
X234112Y268224*
X233800Y267911*
X233175Y267598*
X231925*
X231300Y267911*
X230987Y268224*
X230675Y268848*
Y269786*
X230987Y270411*
X231300Y270724*
X238346Y218744D02*
X254346D01*
Y225744*
X238346*
Y218744*
X244787Y230696D02*
X244474Y230384D01*
X243849Y230071*
X242911*
X242287Y230384*
X241974Y230696*
X241661Y231321*
Y232571*
X241974Y233196*
X242287Y233509*
X242911Y233821*
X243849*
X244474Y233509*
X244787Y233196*
X246974Y230384D02*
X247599Y230071D01*
X248224*
X248849Y230384*
X249161Y231009*
X248849Y231634*
X248224Y231946*
X247599*
X248224D02*
X248849Y232259D01*
X249161Y232884*
X248849Y233509*
X248224Y233821*
X247599*
X246974Y233509*
X244713Y278496D02*
Y282246D01*
X246900*
X247525Y281934*
X247838Y281309*
X247525Y280684*
X246900Y280372*
X244713*
X249713Y282246D02*
Y278496D01*
X252838*
X255338D02*
X256588D01*
X255963D02*
Y282246D01*
X255338Y281622*
X248172Y76917D02*
X247860Y76604D01*
X247235Y76292*
X246297*
X245672Y76604*
X245360Y76917*
X245047Y77542*
Y78792*
X245360Y79417*
X245672Y79730*
X246297Y80042*
X247235*
X247860Y79730*
X248172Y79417*
X250047Y77230D02*
X250360Y77854D01*
X250985Y78167*
X251610*
X252235Y77854*
X252547Y77230*
X252235Y76604*
X251610Y76292*
X250985*
X250360Y76604*
X250047Y77230*
Y78167*
X250360Y79104*
X250985Y79730*
X251610Y80042*
X247714Y56572D02*
X251514D01*
Y46972*
X247714*
Y56572*
X252921Y56420D02*
Y52670D01*
X256046*
X257921Y52982D02*
X258546Y52670D01*
X259484*
X260109Y52982*
X260421Y53607*
Y53920*
X260109Y54545*
X259484Y54857*
X257921*
Y56420*
X260421*
X253114Y58299D02*
Y74299D01*
X246114*
Y58299*
X253114*
X258827Y78073D02*
Y74323D01*
X261952*
X264139Y74636D02*
X264764Y74323D01*
X265389*
X266014Y74636*
X266327Y75261*
X266014Y75886*
X265389Y76198*
X264764*
X265389D02*
X266014Y76511D01*
X266327Y77136*
X266014Y77761*
X265389Y78073*
X264764*
X264139Y77761*
X260559Y171358D02*
Y174902D01*
X262331*
X262921Y174606*
X263217Y174311*
X263512Y173720*
Y172539*
X263217Y171949*
X262921Y171654*
X262331Y171358*
X260559*
X268236Y171949D02*
X267941Y171654D01*
X267350Y171358*
X266465*
X265874Y171654*
X265579Y171949*
X265283Y172539*
Y173720*
X265579Y174311*
X265874Y174606*
X266465Y174902*
X267350*
X267941Y174606*
X268236Y174311*
X270008Y172539D02*
X272370D01*
X274732Y172244D02*
X275028Y172835D01*
X275618Y173130*
X276209*
X276799Y172835*
X277094Y172244*
X276799Y171654*
X276209Y171358*
X275618*
X275028Y171654*
X274732Y172244*
Y173130*
X275028Y174016*
X275618Y174606*
X276209Y174902*
X281524Y172835D02*
X282409D01*
Y172539*
X282114Y171949*
X281819Y171654*
X281228Y171358*
X280638*
X280047Y171654*
X279752Y171949*
X279457Y172539*
Y173720*
X279752Y174311*
X280047Y174606*
X280638Y174902*
X281228*
X281819Y174606*
X282114Y174311*
X282409Y173720*
X284181Y171358D02*
Y174902D01*
Y173130D02*
X287134D01*
Y171358D02*
Y174902D01*
X288906Y173720D02*
X291268D01*
X288906Y171358*
X291268*
X314890D02*
X312528D01*
X314594Y173425*
X314890Y174016*
X314594Y174606*
X314004Y174902*
X313118*
X312528Y174606*
X317547Y171654D02*
X318138Y171358D01*
X318728*
X319319Y171654*
X319614Y172244*
Y174016*
X319319Y174606*
X318728Y174902*
X318138*
X317547Y174606*
X317252Y174016*
Y172244*
X317547Y171654*
X319319Y174606*
X324339Y172835D02*
X324043Y173425D01*
X323453Y173720*
X322862*
X322272Y173425*
X321976Y172835*
Y172244*
X322272Y171654*
X322862Y171358*
X323453*
X324043Y171654*
X324339Y172244*
Y171358D02*
Y174902D01*
X328768Y173130D02*
X329358Y172835D01*
X329654Y172244*
X329358Y171654*
X328768Y171358*
X326701*
Y174902*
X328768*
X329358Y174606*
X329654Y174016*
X329358Y173425*
X328768Y173130*
X326701*
X263709Y165551D02*
Y167913D01*
X265087*
X265480Y167717*
X265677Y167323*
X265480Y166929*
X265087Y166732*
X263709*
X267252Y165551D02*
X268039D01*
X267646D02*
Y167913D01*
X267252Y167520*
X270008Y165945D02*
X271583D01*
Y166732D02*
X270008D01*
X273551Y165551D02*
X274339D01*
X273945D02*
Y167913D01*
X273551Y167520*
X277291Y165551D02*
Y167913D01*
X276307Y166339*
X277882*
X281031Y166535D02*
X280835Y166929D01*
X280441Y167126*
X280047*
X279654Y166929*
X279457Y166535*
Y166142*
X279654Y165748*
X280047Y165551*
X280441*
X280835Y165748*
X281031Y166142*
Y165551D02*
Y167913D01*
X283984Y166732D02*
X284378Y166535D01*
X284575Y166142*
X284378Y165748*
X283984Y165551*
X282606*
Y167913*
X283984*
X284378Y167717*
X284575Y167323*
X284378Y166929*
X283984Y166732*
X282606*
X285756Y165551D02*
Y167126D01*
Y166929D02*
X285953Y167126D01*
X286346*
X286543Y166929*
Y166339*
Y166929D02*
X286740Y167126D01*
X287134*
X287331Y166929*
Y165551*
X265433Y236764D02*
X266683D01*
X266059D02*
Y240514D01*
X265433D02*
X266683D01*
X272621Y237389D02*
X272309Y237077D01*
X271683Y236764*
X270746*
X270121Y237077*
X269809Y237389*
X269496Y238014*
Y239264*
X269809Y239889*
X270121Y240202*
X270746Y240514*
X271683*
X272309Y240202*
X272621Y239889*
X275121Y236764D02*
X276371D01*
X275746D02*
Y240514D01*
X275121Y239889*
X266067Y191291D02*
Y207291D01*
X259067*
Y191291*
X266067*
Y209677D02*
Y225677D01*
X259067*
Y209677*
X266067*
X267564Y72687D02*
Y68887D01*
X257964*
Y72687*
X267564*
X270402Y213930D02*
Y217680D01*
X272589*
X273214Y217367*
X273527Y216742*
X273214Y216117*
X272589Y215805*
X270402*
X272589D02*
X273527Y213930D01*
X276964D02*
Y217680D01*
X275402Y215180*
X277902*
X270748Y67287D02*
X286748D01*
Y74287*
X270748*
Y67287*
X271583Y195032D02*
Y198782D01*
X273770*
X274395Y198470*
X274708Y197844*
X274395Y197220*
X273770Y196907*
X271583*
X273770D02*
X274708Y195032D01*
X276583D02*
X279083Y198782D01*
X276583*
X275731Y76917D02*
X275419Y76604D01*
X274794Y76292*
X273856*
X273231Y76604*
X272919Y76917*
X272606Y77542*
Y78792*
X272919Y79417*
X273231Y79730*
X273856Y80042*
X274794*
X275419Y79730*
X275731Y79417*
X278231Y76292D02*
X279481D01*
X278856D02*
Y80042D01*
X278231Y79417*
X282919Y76604D02*
X283544Y76292D01*
X284169*
X284794Y76604*
X285106Y77230*
Y79104*
X284794Y79730*
X284169Y80042*
X283544*
X282919Y79730*
X282606Y79104*
Y77230*
X282919Y76604*
X284794Y79730*
X274929Y127119D02*
Y130869D01*
X278054*
X277429Y128994D02*
X274929D01*
X280867Y127119D02*
X282117D01*
X281492D02*
Y130869D01*
X280867D02*
X282117D01*
X284929D02*
Y127119D01*
X288054*
X291492D02*
Y130869D01*
X289929D02*
X293054D01*
X294929Y127119D02*
Y130869D01*
X298054*
X297429Y128994D02*
X294929D01*
Y127119D02*
X298054D01*
X299929D02*
Y130869D01*
X302117*
X302742Y130556*
X303054Y129931*
X302742Y129306*
X302117Y128994*
X299929*
X302117D02*
X303054Y127119D01*
X281024Y241146D02*
X297024D01*
Y248146*
X281024*
Y241146*
X281063Y251500D02*
X297063D01*
Y258500*
X281063*
Y251500*
X281425Y238546D02*
Y234796D01*
X284550*
X287050D02*
X288300D01*
X287675D02*
Y238546D01*
X287050Y237921*
X282606Y178103D02*
X284169Y181853D01*
X285731Y178103*
X283231Y179665D02*
X285106D01*
X289794D02*
X290731D01*
Y179353*
X290419Y178728*
X290106Y178415*
X289481Y178103*
X288856*
X288231Y178415*
X287919Y178728*
X287606Y179353*
Y180603*
X287919Y181228*
X288231Y181541*
X288856Y181853*
X289481*
X290106Y181541*
X290419Y181228*
X290731Y180603*
X292919Y178415D02*
X293544Y178103D01*
X294169*
X294794Y178415*
X295106Y179041*
X294794Y179665*
X294169Y179978*
X293544*
X294169D02*
X294794Y180291D01*
X295106Y180915*
X294794Y181541*
X294169Y181853*
X293544*
X292919Y181541*
X297919Y178415D02*
X298544Y178103D01*
X299169*
X299794Y178415*
X300106Y179041*
Y180915*
X299794Y181541*
X299169Y181853*
X298544*
X297919Y181541*
X297606Y180915*
Y179041*
X297919Y178415*
X299794Y181541*
X302919Y178415D02*
X303544Y178103D01*
X304169*
X304794Y178415*
X305106Y179041*
X304794Y179665*
X304169Y179978*
X303544*
X304169D02*
X304794Y180291D01*
X305106Y180915*
X304794Y181541*
X304169Y181853*
X303544*
X302919Y181541*
X284417Y89884D02*
Y86134D01*
X287543*
X289417Y87072D02*
X289730Y87697D01*
X290355Y88009*
X290980*
X291605Y87697*
X291917Y87072*
X291605Y86447*
X290980Y86134*
X290355*
X289730Y86447*
X289417Y87072*
Y88009*
X289730Y88947*
X290355Y89572*
X290980Y89884*
X284894Y371801D02*
X285067Y371629D01*
X285239Y371285*
Y370768*
X285067Y370423*
X284894Y370251*
X284550Y370079*
X283861*
X283517Y370251*
X283344Y370423*
X283172Y370768*
Y371285*
X283344Y371629*
X283517Y371801*
X284550Y372835D02*
X283861D01*
X283517Y373007*
X283344Y373179*
X283172Y373524*
Y373868*
X283344Y374213*
X283517Y374385*
X283861Y374557*
X284550*
X284894Y374385*
X285067Y374213*
X285239Y373868*
Y373524*
X285067Y373179*
X284894Y373007*
X284550Y372835*
X285239Y375591D02*
X283172D01*
X285239Y377313*
X283172*
X285239Y378346D02*
X283172D01*
X285239Y380069*
X283172*
X285239Y382480D02*
Y381102D01*
X284033Y382308*
X283689Y382480*
X283344Y382308*
X283172Y381964*
Y381447*
X283344Y381102*
X284390Y495842D02*
X284703Y495529D01*
X285015Y494904*
Y493967*
X284703Y493342*
X284390Y493029*
X283765Y492717*
X282515*
X281890Y493029*
X281578Y493342*
X281265Y493967*
Y494904*
X281578Y495529*
X281890Y495842*
X283765Y497717D02*
X282515D01*
X281890Y498029*
X281578Y498342*
X281265Y498967*
Y499592*
X281578Y500217*
X281890Y500529*
X282515Y500842*
X283765*
X284390Y500529*
X284703Y500217*
X285015Y499592*
Y498967*
X284703Y498342*
X284390Y498029*
X283765Y497717*
X285015Y502717D02*
X281265D01*
X285015Y505842*
X281265*
X285015Y507717D02*
X281265D01*
X285015Y510842*
X281265*
X285015Y513342D02*
Y514592D01*
Y513967D02*
X281265D01*
X281890Y513342*
X284078Y517717D02*
X283453Y518029D01*
X283140Y518654*
Y519279*
X283453Y519904*
X284078Y520217*
X284703Y519904*
X285015Y519279*
Y518654*
X284703Y518029*
X284078Y517717*
X283140*
X282203Y518029*
X281578Y518654*
X281265Y519279*
X295417Y62338D02*
X295104Y62026D01*
X294479Y61713*
X293541*
X292917Y62026*
X292604Y62338*
X292291Y62963*
Y64213*
X292604Y64838*
X292917Y65151*
X293541Y65463*
X294479*
X295104Y65151*
X295417Y64838*
X297291Y61713D02*
X299791Y65463D01*
X297291*
X292413Y83276D02*
Y67276D01*
X299413*
Y83276*
X292413*
X296906Y269287D02*
X280906D01*
Y262287*
X296906*
Y269287*
Y279130D02*
X280906D01*
Y272130*
X296906*
Y279130*
X297091Y223693D02*
Y239693D01*
X290091*
Y223693*
X297091*
X297813Y85003D02*
X294013D01*
Y94603*
X297813*
Y85003*
X299016Y223705D02*
X315016D01*
Y230705*
X299016*
Y223705*
X300520Y165748D02*
X300913Y165551D01*
X301307*
X301701Y165748*
X301898Y166142*
X301701Y166535*
X301307Y166732*
X300913*
X301307D02*
X301701Y166929D01*
X301898Y167323*
X301701Y167717*
X301307Y167913*
X300913*
X300520Y167717*
X303472Y165748D02*
X303866Y165551D01*
X304457*
X304850Y165748*
X305047Y166142*
Y166339*
X304850Y166732*
X304457Y166929*
X303472*
Y167913*
X305047*
X306622Y165551D02*
Y167126D01*
Y166929D02*
X306819Y167126D01*
X307213*
X307409Y166929*
Y166339*
Y166929D02*
X307606Y167126D01*
X308000*
X308197Y166929*
Y165551*
X309772D02*
X310756Y167913D01*
X311740Y165551*
X310165Y166535D02*
X311346D01*
X317843Y165748D02*
X317449Y165551D01*
X316661*
X316268Y165748*
X316071Y166142*
Y167323*
X316268Y167717*
X316661Y167913*
X317252*
X317646Y167717*
X317843Y167323*
Y166339*
X317646Y166142*
X317449Y166339*
Y167126*
X317252Y167323*
X316661*
X316465Y167126*
Y166339*
X316661Y166142*
X317252*
X317449Y166339*
X322370Y165748D02*
X322764Y165551D01*
X323354*
X323748Y165748*
X323945Y166142*
Y166339*
X323748Y166732*
X323354Y166929*
X322370*
Y167913*
X323945*
X325520D02*
X326504Y165551D01*
X327488Y167913*
X303842Y279909D02*
X303529Y279596D01*
X302904Y279284*
X301967*
X301342Y279596*
X301029Y279909*
X300717Y280534*
Y281784*
X301029Y282409*
X301342Y282722*
X301967Y283034*
X302904*
X303529Y282722*
X303842Y282409*
X305717Y279596D02*
X306342Y279284D01*
X307279*
X307904Y279596*
X308217Y280222*
Y280534*
X307904Y281159*
X307279Y281472*
X305717*
Y283034*
X308217*
X304235Y243177D02*
X303923Y242864D01*
X303298Y242552*
X302360*
X301735Y242864*
X301423Y243177*
X301110Y243802*
Y245052*
X301423Y245677*
X301735Y245989*
X302360Y246302*
X303298*
X303923Y245989*
X304235Y245677*
X306735Y242552D02*
X307985D01*
X307360D02*
Y246302D01*
X306735Y245677*
X301504Y264756D02*
Y268506D01*
X303691*
X304317Y268194*
X304629Y267569*
X304317Y266944*
X303691Y266631*
X301504*
X303691D02*
X304629Y264756D01*
X307129D02*
X308379D01*
X307754D02*
Y268506D01*
X307129Y267881*
X305023Y253807D02*
X304710Y253494D01*
X304085Y253181*
X303148*
X302523Y253494*
X302210Y253807*
X301898Y254431*
Y255681*
X302210Y256307*
X302523Y256619*
X303148Y256931*
X304085*
X304710Y256619*
X305023Y256307*
X309398Y253181D02*
X306898D01*
X309085Y255369*
X309398Y255994*
X309085Y256619*
X308460Y256931*
X307523*
X306898Y256619*
X304102Y79375D02*
Y75625D01*
X307228*
X310665D02*
Y79375D01*
X309102Y76875*
X311602*
X307779Y235027D02*
X307466Y234715D01*
X306841Y234402*
X305904*
X305279Y234715*
X304966Y235027*
X304654Y235652*
Y236902*
X304966Y237527*
X305279Y237840*
X305904Y238152*
X306841*
X307466Y237840*
X307779Y237527*
X311216Y234402D02*
Y238152D01*
X309654Y235652*
X312154*
X305441Y208024D02*
Y211774D01*
X307628*
X308254Y211462*
X308566Y210837*
X308254Y210212*
X307628Y209899*
X305441*
X307628D02*
X308566Y208024D01*
X310441Y208337D02*
X311066Y208024D01*
X312004*
X312628Y208337*
X312941Y208962*
Y209274*
X312628Y209899*
X312004Y210212*
X310441*
Y211774*
X312941*
X312721Y72687D02*
Y68887D01*
X303121*
Y72687*
X312721*
X315827Y67287D02*
X331827D01*
Y74287*
X315827*
Y67287*
X321007Y76917D02*
X320694Y76604D01*
X320069Y76292*
X319132*
X318507Y76604*
X318194Y76917*
X317882Y77542*
Y78792*
X318194Y79417*
X318507Y79730*
X319132Y80042*
X320069*
X320694Y79730*
X321007Y79417*
X323507Y76292D02*
X324757D01*
X324132D02*
Y80042D01*
X323507Y79417*
X328507Y76292D02*
X329757D01*
X329132D02*
Y80042D01*
X328507Y79417*
X323075Y209795D02*
Y225795D01*
X316075*
Y209795*
X323075*
X325433Y218783D02*
X341433D01*
Y225783*
X325433*
Y218783*
X327724Y55793D02*
Y52544D01*
X330431*
X332055D02*
X334220Y55793D01*
X332055*
X328276Y230071D02*
Y233821D01*
X330463*
X331088Y233509*
X331401Y232884*
X331088Y232259*
X330463Y231946*
X328276*
X330463D02*
X331401Y230071D01*
X333588Y230384D02*
X334213Y230071D01*
X334838*
X335463Y230384*
X335776Y231009*
X335463Y231634*
X334838Y231946*
X334213*
X334838D02*
X335463Y232259D01*
X335776Y232884*
X335463Y233509*
X334838Y233821*
X334213*
X333588Y233509*
X338724Y76917D02*
X338411Y76604D01*
X337786Y76292*
X336848*
X336224Y76604*
X335911Y76917*
X335598Y77542*
Y78792*
X335911Y79417*
X336224Y79730*
X336848Y80042*
X337786*
X338411Y79730*
X338724Y79417*
X341536Y78167D02*
X342161D01*
X342786Y78480*
X343098Y79104*
X342786Y79730*
X342161Y80042*
X341536*
X340911Y79730*
X340598Y79104*
X340911Y78480*
X341536Y78167*
X340911Y77854*
X340598Y77230*
X340911Y76604*
X341536Y76292*
X342161*
X342786Y76604*
X343098Y77230*
X342786Y77854*
X342161Y78167*
X337242Y56572D02*
X341042D01*
Y46972*
X337242*
Y56572*
X340480Y238014D02*
Y239264D01*
X340793Y239889*
X341106Y240202*
X341730Y240514*
X342356*
X342980Y240202*
X343293Y239889*
X343606Y239264*
Y238014*
X343293Y237389*
X342980Y237077*
X342356Y236764*
X341730*
X341106Y237077*
X340793Y237389*
X340480Y238014*
X345480Y240514D02*
Y237702D01*
X345793Y237077*
X346418Y236764*
X347668*
X348293Y237077*
X348606Y237702*
Y240514*
X352043Y236764D02*
Y240514D01*
X350480D02*
X353606D01*
X342449Y204087D02*
Y207837D01*
X344636*
X345261Y207525*
X345574Y206900*
X345261Y206275*
X344636Y205962*
X342449*
X344636D02*
X345574Y204087D01*
X347449Y205025D02*
X347761Y205650D01*
X348386Y205962*
X349011*
X349636Y205650*
X349949Y205025*
X349636Y204400*
X349011Y204087*
X348386*
X347761Y204400*
X347449Y205025*
Y205962*
X347761Y206900*
X348386Y207525*
X349011Y207837*
X342642Y58299D02*
Y74299D01*
X335642*
Y58299*
X342642*
X343445Y495842D02*
X343758Y495529D01*
X344070Y494904*
Y493967*
X343758Y493342*
X343445Y493029*
X342820Y492717*
X341570*
X340945Y493029*
X340633Y493342*
X340320Y493967*
Y494904*
X340633Y495529*
X340945Y495842*
X342820Y497717D02*
X341570D01*
X340945Y498029*
X340633Y498342*
X340320Y498967*
Y499592*
X340633Y500217*
X340945Y500529*
X341570Y500842*
X342820*
X343445Y500529*
X343758Y500217*
X344070Y499592*
Y498967*
X343758Y498342*
X343445Y498029*
X342820Y497717*
X344070Y502717D02*
X340320D01*
X344070Y505842*
X340320*
X344070Y507717D02*
X340320D01*
X344070Y510842*
X340320*
X344070Y513342D02*
Y514592D01*
Y513967D02*
X340320D01*
X340945Y513342*
X343133Y517717D02*
X342508Y518029D01*
X342195Y518654*
Y519279*
X342508Y519904*
X343133Y520217*
X343758Y519904*
X344070Y519279*
Y518654*
X343758Y518029*
X343133Y517717*
X342195*
X341258Y518029*
X340633Y518654*
X340320Y519279*
X344737Y372589D02*
X344909Y372417D01*
X345081Y372072*
Y371555*
X344909Y371211*
X344737Y371039*
X344393Y370866*
X343704*
X343359Y371039*
X343187Y371211*
X343015Y371555*
Y372072*
X343187Y372417*
X343359Y372589*
X344393Y373622D02*
X343704D01*
X343359Y373794*
X343187Y373967*
X343015Y374311*
Y374656*
X343187Y375000*
X343359Y375172*
X343704Y375344*
X344393*
X344737Y375172*
X344909Y375000*
X345081Y374656*
Y374311*
X344909Y373967*
X344737Y373794*
X344393Y373622*
X345081Y376378D02*
X343015D01*
X345081Y378100*
X343015*
X345081Y379134D02*
X343015D01*
X345081Y380856*
X343015*
X345081Y383268D02*
Y381890D01*
X343876Y383096*
X343531Y383268*
X343187Y383096*
X343015Y382751*
Y382234*
X343187Y381890*
X351461Y209835D02*
Y225835D01*
X344461*
Y209835*
X351461*
X368487Y253137D02*
X368175Y252825D01*
X367550Y252512*
X366612*
X365987Y252825*
X365675Y253137*
X365362Y253762*
Y255012*
X365675Y255637*
X365987Y255950*
X366612Y256262*
X367550*
X368175Y255950*
X368487Y255637*
X370362Y253762D02*
Y255012D01*
X370675Y255637*
X370987Y255950*
X371612Y256262*
X372237*
X372862Y255950*
X373175Y255637*
X373487Y255012*
Y253762*
X373175Y253137*
X372862Y252825*
X372237Y252512*
X371612*
X370987Y252825*
X370675Y253137*
X370362Y253762*
X375362Y252512D02*
Y256262D01*
X378487Y252512*
Y256262*
X380362Y252512D02*
Y256262D01*
X383487Y252512*
Y256262*
X385362Y253450D02*
X385675Y254075D01*
X386300Y254387*
X386925*
X387550Y254075*
X387862Y253450*
X387550Y252825*
X386925Y252512*
X386300*
X385675Y252825*
X385362Y253450*
Y254387*
X385675Y255325*
X386300Y255950*
X386925Y256262*
X374563Y80103D02*
X374250Y80416D01*
X373937Y81041*
Y81978*
X374250Y82603*
X374563Y82916*
X375187Y83228*
X376437*
X377063Y82916*
X377375Y82603*
X377687Y81978*
Y81041*
X377375Y80416*
X377063Y80103*
X375187Y78228D02*
X376437D01*
X377063Y77916*
X377375Y77603*
X377687Y76978*
Y76353*
X377375Y75728*
X377063Y75416*
X376437Y75103*
X375187*
X374563Y75416*
X374250Y75728*
X373937Y76353*
Y76978*
X374250Y77603*
X374563Y77916*
X375187Y78228*
X373937Y73228D02*
X377687D01*
X373937Y70103*
X377687*
X373937Y68228D02*
X377687D01*
X373937Y65103*
X377687*
X375813Y62291D02*
Y61666D01*
X376125Y61041*
X376750Y60728*
X377375Y61041*
X377687Y61666*
Y62291*
X377375Y62916*
X376750Y63228*
X376125Y62916*
X375813Y62291*
X375500Y62916*
X374875Y63228*
X374250Y62916*
X373937Y62291*
Y61666*
X374250Y61041*
X374875Y60728*
X375500Y61041*
X375813Y61666*
X377904Y540017D02*
X378529Y539705D01*
X378842Y539080*
X378529Y538455*
X377904Y538142*
X375717*
Y541892*
X377904*
X378529Y541580*
X378842Y540955*
X378529Y540330*
X377904Y540017*
X375717*
X380717Y538142D02*
Y540642D01*
Y539705D02*
X381029Y540330D01*
X381654Y540642*
X382279*
X382904Y540330*
X386967Y538142D02*
Y540642D01*
Y541580D02*
X393217Y539705*
X392904Y540330D01*
X392279Y540642*
X391654*
X391029Y540330*
X390717Y539705*
Y539080*
X391029Y538455*
X391654Y538142*
X392279*
X392904Y538455*
X393217Y539080*
Y538142D02*
Y541892D01*
X398217Y539705D02*
X397904Y540330D01*
X397279Y540642*
X396654*
X396029Y540330*
X395717Y539705*
Y539392*
X396029Y538767*
X396654Y538455*
X397279*
X397904Y538767*
X398217Y539392*
Y540642D02*
Y538142D01*
X397904Y537517*
X397279Y537205*
X396342*
X395717Y537517*
X403217Y538455D02*
X402904Y538142D01*
X402279*
X401654*
X401029Y538455*
X400717Y539080*
Y540017*
X401029Y540330*
X401654Y540642*
X402279*
X402904Y540330*
X403217Y540017*
Y539705*
X402904Y539392*
X402279Y539080*
X401654*
X401029Y539392*
X400717Y539705*
X383022Y409309D02*
X383647Y408996D01*
X383960Y408371*
X383647Y407746*
X383022Y407433*
X380835*
Y411183*
X383022*
X383647Y410871*
X383960Y410246*
X383647Y409621*
X383022Y409309*
X380835*
X385835Y407433D02*
Y409933D01*
Y408996D02*
X386147Y409621D01*
X386772Y409933*
X387397*
X388022Y409621*
X392085Y407433D02*
Y409933D01*
Y410871D02*
X398335Y408996*
X398022Y409621D01*
X397397Y409933*
X396772*
X396147Y409621*
X395835Y408996*
Y408371*
X396147Y407746*
X396772Y407433*
X397397*
X398022Y407746*
X398335Y408371*
Y407433D02*
Y411183D01*
X403335Y408996D02*
X403022Y409621D01*
X402397Y409933*
X401772*
X401147Y409621*
X400835Y408996*
Y408683*
X401147Y408059*
X401772Y407746*
X402397*
X403022Y408059*
X403335Y408683*
Y409933D02*
Y407433D01*
X403022Y406809*
X402397Y406496*
X401460*
X400835Y406809*
X408335Y407746D02*
X408022Y407433D01*
X407397*
X406772*
X406147Y407746*
X405835Y408371*
Y409309*
X406147Y409621*
X406772Y409933*
X407397*
X408022Y409621*
X408335Y409309*
Y408996*
X408022Y408683*
X407397Y408371*
X406772*
X406147Y408683*
X405835Y408996*
X418335Y407433D02*
X415835D01*
X418022Y409621*
X418335Y410246*
X418022Y410871*
X417397Y411183*
X416460*
X415835Y410871*
X428022Y409309D02*
X428647Y408996D01*
X428960Y408371*
X428647Y407746*
X428022Y407433*
X425835*
Y411183*
X428022*
X428647Y410871*
X428960Y410246*
X428647Y409621*
X428022Y409309*
X425835*
X430835Y408371D02*
X431147Y407746D01*
X431772Y407433*
X432397*
X433022Y407746*
X433335Y408371*
Y408996*
X433022Y409621*
X432397Y409933*
X431772*
X431147Y409621*
X430835Y408996*
Y408371*
X435835Y409621D02*
X436460Y409933D01*
X437397*
X438022Y409621*
X438335Y408996*
Y408059*
X438022Y407746*
X437397Y407433*
X436772*
X436147Y407746*
X435835Y408059*
Y408371*
X436147Y408683*
X436772Y408996*
X437397*
X438022Y408683*
X438335Y408371*
Y408059D02*
Y407433D01*
X440835D02*
Y409933D01*
Y408996D02*
X441147Y409621D01*
X441772Y409933*
X442397*
X443022Y409621*
X448335Y408996D02*
X448022Y409621D01*
X447397Y409933*
X446772*
X446147Y409621*
X445835Y408996*
Y408371*
X446147Y407746*
X446772Y407433*
X447397*
X448022Y407746*
X448335Y408371*
Y407433D02*
Y411183D01*
X413780Y201028D02*
X429780D01*
Y208028*
X413780*
Y201028*
X424361Y71398D02*
X425298D01*
Y71085*
X424986Y70460*
X424673Y70148*
X424048Y69835*
X423423*
X422798Y70148*
X422486Y70460*
X422173Y71085*
Y72335*
X422486Y72960*
X422798Y73273*
X423423Y73585*
X424048*
X424673Y73273*
X424986Y72960*
X425298Y72335*
X427173Y69835D02*
Y73585D01*
X430298Y69835*
Y73585*
X432173Y69835D02*
Y73585D01*
X434048*
X434673Y73273*
X434986Y72960*
X435298Y72335*
Y71085*
X434986Y70460*
X434673Y70148*
X434048Y69835*
X432173*
X423748Y101969D02*
Y99606D01*
X422370*
X421976Y99803*
X421780Y100197*
X421976Y100591*
X422370Y100787*
X423748*
X420598Y99606D02*
Y101969D01*
X418630*
X416465D02*
Y99606D01*
X417449Y101181*
X415874*
X425323Y274409D02*
Y272047D01*
X423945*
X423551Y272244*
X423354Y272638*
X423551Y273031*
X423945Y273228*
X425323*
X422173Y272047D02*
Y274409D01*
X420205*
X418827Y274213D02*
X418433Y274409D01*
X418039*
X417646Y274213*
X417449Y273819*
X417646Y273425*
X418039Y273228*
X418433*
X418039D02*
X417646Y273031D01*
X417449Y272638*
X417646Y272244*
X418039Y272047*
X418433*
X418827Y272244*
X425618Y144193D02*
Y142421D01*
X427094Y140650*
X425618Y142421D02*
X424142Y140650D01*
X426504Y199606D02*
X426701Y199803D01*
X427094Y200000*
X427685*
X428079Y199803*
X428276Y199606*
X428472Y199213*
Y198425*
X428276Y198031*
X428079Y197835*
X427685Y197638*
X427094*
X426701Y197835*
X426504Y198031*
X423748Y200000D02*
X425323D01*
X423945Y198622*
X423748Y198228*
X423945Y197835*
X424339Y197638*
X424929*
X425323Y197835*
X422173Y199803D02*
X421780Y200000D01*
X421189*
X420795Y199803*
X420598Y199409*
Y199213*
X420795Y198819*
X421189Y198622*
X422173*
Y197638*
X420598*
X433000Y213583D02*
X430638D01*
Y214961*
X430835Y215354*
X431228Y215551*
X431622Y215354*
X431819Y214961*
Y213583*
Y214961D02*
X433000Y215551D01*
Y217126D02*
Y217913D01*
Y217520D02*
X430638D01*
X431031Y217126*
X433000Y220472D02*
X432803Y220866D01*
X432409Y221260*
X431819Y221457*
X431228*
X430835Y221260*
X430638Y220866*
Y220472*
X430835Y220079*
X431228Y219882*
X431622Y220079*
X431819Y220472*
Y220866*
X431622Y221260*
X431228Y221457*
X433000Y234449D02*
X430638D01*
Y235827*
X430835Y236220*
X431228Y236417*
X431622Y236220*
X431819Y235827*
Y234449*
Y235827D02*
X433000Y236417D01*
Y237992D02*
Y238780D01*
Y238386D02*
X430638D01*
X431031Y237992*
X433000Y241732D02*
X430638D01*
X432213Y240748*
Y242323*
X432028Y495842D02*
X432341Y495529D01*
X432653Y494904*
Y493967*
X432341Y493342*
X432028Y493029*
X431403Y492717*
X430153*
X429528Y493029*
X429215Y493342*
X428903Y493967*
Y494904*
X429215Y495529*
X429528Y495842*
X431403Y497717D02*
X430153D01*
X429528Y498029*
X429215Y498342*
X428903Y498967*
Y499592*
X429215Y500217*
X429528Y500529*
X430153Y500842*
X431403*
X432028Y500529*
X432341Y500217*
X432653Y499592*
Y498967*
X432341Y498342*
X432028Y498029*
X431403Y497717*
X432653Y502717D02*
X428903D01*
X432653Y505842*
X428903*
X432653Y507717D02*
X428903D01*
X432653Y510842*
X428903*
X432653Y513342D02*
Y514592D01*
Y513967D02*
X428903D01*
X429528Y513342*
X432341Y517717D02*
X432653Y518342D01*
Y519279*
X432341Y519904*
X431715Y520217*
X431403*
X430778Y519904*
X430465Y519279*
Y517717*
X428903*
Y520217*
X432803Y191142D02*
X433000Y190945D01*
X433197Y190551*
Y189961*
X433000Y189567*
X432803Y189370*
X432409Y189173*
X431622*
X431228Y189370*
X431031Y189567*
X430835Y189961*
Y190551*
X431031Y190945*
X431228Y191142*
X433197Y193898D02*
Y192323D01*
X431819Y193701*
X431425Y193898*
X431031Y193701*
X430835Y193307*
Y192717*
X431031Y192323*
X433000Y195669D02*
X433197Y196063D01*
Y196457*
X433000Y196850*
X432606Y197047*
X432213Y196850*
X432016Y196457*
Y196063*
Y196457D02*
X431819Y196850D01*
X431425Y197047*
X431031Y196850*
X430835Y196457*
Y196063*
X431031Y195669*
X434736Y248039D02*
Y232039D01*
X441736*
Y248039*
X434736*
X439646Y41489D02*
X440896D01*
X440271D02*
Y45239D01*
X439646D02*
X440896D01*
X443709Y42739D02*
Y43989D01*
X444021Y44614*
X444334Y44926*
X444959Y45239*
X445584*
X446209Y44926*
X446521Y44614*
X446834Y43989*
Y42739*
X446521Y42114*
X446209Y41801*
X445584Y41489*
X444959*
X444334Y41801*
X444021Y42114*
X443709Y42739*
X441815Y212276D02*
Y228276D01*
X434815*
Y212276*
X441815*
X443236Y120276D02*
X443433Y120669D01*
Y121063*
X443236Y121457*
X442843Y121654*
X442449Y121457*
X442252Y121063*
Y120669*
Y121063D02*
X442055Y121457D01*
X441661Y121654*
X441268Y121457*
X441071Y121063*
Y120669*
X441268Y120276*
X441071Y123228D02*
X443433Y124213D01*
X441071Y125197*
X443236Y126575D02*
X443433Y126969D01*
Y127362*
X443236Y127756*
X442843Y127953*
X442449Y127756*
X442252Y127362*
Y126969*
Y127362D02*
X442055Y127756D01*
X441661Y127953*
X441268Y127756*
X441071Y127362*
Y126969*
X441268Y126575*
X443827Y261614D02*
X444024Y262008D01*
Y262402*
X443827Y262795*
X443433Y262992*
X443039Y262795*
X442843Y262402*
Y262008*
Y262402D02*
X442646Y262795D01*
X442252Y262992*
X441858Y262795*
X441661Y262402*
Y262008*
X441858Y261614*
X441661Y264567D02*
X444024Y265551D01*
X441661Y266535*
X443827Y267913D02*
X444024Y268307D01*
Y268701*
X443827Y269094*
X443433Y269291*
X443039Y269094*
X442843Y268701*
Y268307*
Y268701D02*
X442646Y269094D01*
X442252Y269291*
X441858Y269094*
X441661Y268701*
Y268307*
X441858Y267913*
X446780Y163878D02*
X443827Y160335D01*
X446780D02*
X443827Y163878D01*
X445992Y238386D02*
X446189Y238189D01*
X446386Y237795*
Y237205*
X446189Y236811*
X445992Y236614*
X445598Y236417*
X444811*
X444417Y236614*
X444220Y236811*
X444024Y237205*
Y237795*
X444220Y238189*
X444417Y238386*
X446386Y241142D02*
Y239567D01*
X445008Y240945*
X444614Y241142*
X444220Y240945*
X444024Y240551*
Y239961*
X444220Y239567*
X446386Y243701D02*
X444024D01*
X445598Y242717*
Y244291*
X450717Y172933D02*
X449240Y169390D01*
X447764Y172933*
X450126Y171457D02*
X448354D01*
X445992Y172933D02*
Y169390D01*
X444220*
X443630Y169685*
X443335Y169980*
X443039Y170571*
Y171752*
X443335Y172343*
X443630Y172638*
X444220Y172933*
X445992*
X441268D02*
X438315Y169390D01*
X441268D02*
X438315Y172933D01*
X436543Y169390D02*
Y172933D01*
X433591*
X431524Y172638D02*
X430933Y172933D01*
X430343*
X429752Y172638*
X429457Y172047*
X429752Y171457*
X430343Y171161*
X430933*
X430343D02*
X429752Y170866D01*
X429457Y170276*
X429752Y169685*
X430343Y169390*
X430933*
X431524Y169685*
X426504Y172933D02*
X425323D01*
X425913D02*
Y169390D01*
X426504Y169980*
X422075Y172638D02*
X421484Y172933D01*
X420894*
X420303Y172638*
X420008Y172047*
X420303Y171457*
X420894Y171161*
X421484*
X420894D02*
X420303Y170866D01*
X420008Y170276*
X420303Y169685*
X420894Y169390*
X421484*
X422075Y169685*
X451110Y183071D02*
X450323D01*
X450717D02*
Y180709D01*
X451110Y181102*
X448157Y182874D02*
X447764Y183071D01*
X447370*
X446976Y182874*
X446780Y182480*
Y181299*
X446976Y180906*
X447370Y180709*
X447764*
X448157Y180906*
X448354Y181299*
Y182480*
X448157Y182874*
X446976Y180906*
X445205Y182480D02*
X445008Y182874D01*
X444614Y183071*
X444220*
X443827Y182874*
X443630Y182480*
Y182087*
X443827Y181693*
X444220Y181496*
X444614*
X445008Y181693*
X445205Y182087*
Y183071D02*
Y180709D01*
X438906Y182283D02*
X437331D01*
X438118Y183071D02*
Y181496D01*
X435756Y183071D02*
X433787Y180709D01*
X432606Y182283D02*
X431031D01*
X429260Y182874D02*
X428866Y183071D01*
X428472*
X428079Y182874*
X427882Y182480*
Y181299*
X428079Y180906*
X428472Y180709*
X428866*
X429260Y180906*
X429457Y181299*
Y182480*
X429260Y182874*
X428079Y180906*
X426110Y183071D02*
X425913Y182874D01*
X426110Y182677*
X426307Y182874*
X426110Y183071*
X423157Y182874D02*
X422764Y183071D01*
X422173*
X421780Y182874*
X421583Y182480*
Y182283*
X421780Y181890*
X422173Y181693*
X423157*
Y180709*
X421583*
X418433Y182087D02*
X418630Y181693D01*
X419024Y181496*
X419417*
X419811Y181693*
X420008Y182087*
Y182283*
X419811Y182677*
X419417Y182874*
X419024*
X418630Y182677*
X418433Y182283*
Y181496D02*
Y183071D01*
X418630Y183465*
X419024Y183661*
X419614*
X420008Y183465*
X455516Y232236D02*
Y248236D01*
X448516*
Y232236*
X455516*
X457409Y140650D02*
X454457D01*
X457409Y144193*
X454457*
X457213Y222638D02*
X456425D01*
X456819D02*
Y220276D01*
X457213D02*
X456425D01*
X452685Y222244D02*
X452882Y222441D01*
X453276Y222638*
X453866*
X454260Y222441*
X454457Y222244*
X454654Y221850*
Y221063*
X454457Y220669*
X454260Y220472*
X453866Y220276*
X453276*
X452882Y220472*
X452685Y220669*
X451307Y222441D02*
X450913Y222638D01*
X450520*
X450126Y222441*
X449929Y222047*
X450126Y221654*
X450520Y221457*
X450913*
X450520D02*
X450126Y221260D01*
X449929Y220866*
X450126Y220472*
X450520Y220276*
X450913*
X451307Y220472*
X460165Y235630D02*
X457803D01*
Y237008*
X458000Y237402*
X458394Y237598*
X458787Y237402*
X458984Y237008*
Y235630*
Y237008D02*
X460165Y237598D01*
Y239173D02*
Y239961D01*
Y239567D02*
X457803D01*
X458197Y239173*
X460165Y241929D02*
X457803Y243504D01*
Y241929*
X462295Y248039D02*
Y232039D01*
X469295*
Y248039*
X462295*
X464142Y169488D02*
X461780D01*
Y170866*
X461976Y171260*
X462370Y171457*
X462764Y171260*
X462961Y170866*
Y169488*
Y170866D02*
X464142Y171457D01*
Y174213D02*
Y172638D01*
X462764Y174016*
X462370Y174213*
X461976Y174016*
X461780Y173622*
Y173031*
X461976Y172638*
X464142Y177362D02*
Y175787D01*
X462764Y177165*
X462370Y177362*
X461976Y177165*
X461780Y176772*
Y176181*
X461976Y175787*
X464890Y254921D02*
X464693Y255315D01*
X464299Y255512*
X463512*
X463118Y255315*
X462921Y254921*
X463118Y254528*
X463512Y254331*
X464299*
X464693Y254134*
X464890Y253740*
X464693Y253346*
X464299Y253150*
X463512*
X463118Y253346*
X462921Y253740*
X461740Y255512D02*
Y253150D01*
X460559*
X460165Y253346*
X459969Y253543*
X459772Y253937*
Y254724*
X459969Y255118*
X460165Y255315*
X460559Y255512*
X461740*
X458591D02*
X457606Y253150D01*
X456622Y255512*
X458197Y254528D02*
X457016D01*
X465283Y260433D02*
X462921D01*
Y261811*
X463118Y262205*
X463512Y262402*
X463906Y262205*
X464102Y261811*
Y260433*
Y261811D02*
X465283Y262402D01*
Y265157D02*
Y263583D01*
X463906Y264961*
X463512Y265157*
X463118Y264961*
X462921Y264567*
Y263976*
X463118Y263583*
X465283Y267126D02*
Y267913D01*
Y267520D02*
X462921D01*
X463315Y267126*
X466232Y185047D02*
Y169047D01*
X473232*
Y185047*
X466232*
X467213Y98071D02*
X427213D01*
Y118071*
X487213*
Y98071*
X467213*
Y271299D02*
X427213D01*
Y291299*
X487213*
Y271299*
X467213*
X472567Y119685D02*
Y120472D01*
Y120079D02*
X470205D01*
Y119685D02*
Y120472D01*
X472567Y122244D02*
X470205D01*
X472567Y124213*
X470205*
X472567Y126378D02*
X470205D01*
Y125394D02*
Y127362D01*
X472567Y128937D02*
Y129724D01*
Y129331D02*
X470205D01*
X470598Y128937*
X473157Y274803D02*
Y272441D01*
X471976*
X471583Y272638*
X471386Y272835*
X471189Y273228*
Y274016*
X471386Y274409*
X471583Y274606*
X471976Y274803*
X473157*
X473232Y251724D02*
Y267724D01*
X466232*
Y251724*
X473232*
X474929Y49594D02*
X475242Y49281D01*
X475867Y48969*
X476492Y49281*
X476804Y49594*
Y52719*
X477429*
X476804D02*
X475554D01*
X480554Y48969D02*
X481804D01*
X481179D02*
Y52719D01*
X480554Y52094*
X474339Y235630D02*
X471976D01*
Y237008*
X472173Y237402*
X472567Y237598*
X472961Y237402*
X473157Y237008*
Y235630*
Y237008D02*
X474339Y237598D01*
Y239173D02*
Y239961D01*
Y239567D02*
X471976D01*
X472370Y239173*
X473157Y242520D02*
Y242913D01*
X472961Y243307*
X472567Y243504*
X472173Y243307*
X471976Y242913*
Y242520*
X472173Y242126*
X472567Y241929*
X472961Y242126*
X473157Y242520*
X473354Y242126*
X473748Y241929*
X474142Y242126*
X474339Y242520*
Y242913*
X474142Y243307*
X473748Y243504*
X473354Y243307*
X473157Y242913*
X476075Y248039D02*
Y232039D01*
X483075*
Y248039*
X476075*
X481893Y380167D02*
X481720Y380339D01*
X481548Y380684*
Y381201*
X481720Y381545*
X481893Y381717*
X482237Y381890*
X482926*
X483271Y381717*
X483443Y381545*
X483615Y381201*
Y380684*
X483443Y380339*
X483271Y380167*
X482237Y379134D02*
X482926D01*
X483271Y378961*
X483443Y378789*
X483615Y378445*
Y378100*
X483443Y377756*
X483271Y377583*
X482926Y377411*
X482237*
X481893Y377583*
X481720Y377756*
X481548Y378100*
Y378445*
X481720Y378789*
X481893Y378961*
X482237Y379134*
X481548Y376378D02*
X483615D01*
X481548Y374656*
X483615*
X481548Y373622D02*
X483615D01*
X481548Y371900*
X483615*
X481548Y370005D02*
X483615D01*
X482237Y370866*
Y369488*
X481031Y169882D02*
X478669D01*
Y171260*
X478866Y171654*
X479260Y171850*
X479654Y171654*
X479850Y171260*
Y169882*
Y171260D02*
X481031Y171850D01*
Y174606D02*
Y173031D01*
X479654Y174409*
X479260Y174606*
X478866Y174409*
X478669Y174016*
Y173425*
X478866Y173031*
X480835Y176378D02*
X481031Y176772D01*
Y177165*
X480835Y177559*
X480441Y177756*
X480047Y177559*
X479850Y177165*
Y176772*
Y177165D02*
X479654Y177559D01*
X479260Y177756*
X478866Y177559*
X478669Y177165*
Y176772*
X478866Y176378*
X481980Y185047D02*
Y169047D01*
X488980*
Y185047*
X481980*
X481031Y274409D02*
X481228Y274606D01*
X481622Y274803*
X482213*
X482606Y274606*
X482803Y274409*
X483000Y274016*
Y273228*
X482803Y272835*
X482606Y272638*
X482213Y272441*
X481622*
X481228Y272638*
X481031Y272835*
X483075Y251724D02*
Y267724D01*
X476075*
Y251724*
X483075*
X484181Y266732D02*
X486543D01*
Y265354*
X486346Y264961*
X485953Y264764*
X485559Y264961*
X485362Y265354*
Y266732*
Y265354D02*
X484181Y264764D01*
Y262008D02*
Y263583D01*
X485559Y262205*
X485953Y262008*
X486346Y262205*
X486543Y262598*
Y263189*
X486346Y263583*
X484378Y260236D02*
X484181Y259843D01*
Y259449*
X484378Y259055*
X484772Y258858*
X485953*
X486346Y259055*
X486543Y259449*
Y259843*
X486346Y260236*
X485953Y260433*
X484772*
X484378Y260236*
X486346Y259055*
X484772Y118898D02*
Y119685D01*
Y119291D02*
X482409D01*
Y118898D02*
Y119685D01*
X484772Y121457D02*
X482409D01*
X484772Y123425*
X482409*
X484772Y125591D02*
X482409D01*
Y124606D02*
Y126575D01*
X484772Y129331D02*
Y127756D01*
X483394Y129134*
X483000Y129331*
X482606Y129134*
X482409Y128740*
Y128150*
X482606Y127756*
X488118Y200197D02*
X485756D01*
Y201575*
X485953Y201969*
X486346Y202165*
X486740Y201969*
X486937Y201575*
Y200197*
Y201575D02*
X488118Y202165D01*
Y203740D02*
Y204528D01*
Y204134D02*
X485756D01*
X486150Y203740*
X487528Y206496D02*
X487134Y206693D01*
X486937Y207087*
Y207480*
X487134Y207874*
X487528Y208071*
X487921Y207874*
X488118Y207480*
Y207087*
X487921Y206693*
X487528Y206496*
X486937*
X486346Y206693*
X485953Y207087*
X485756Y207480*
X488906Y236417D02*
X486543D01*
Y237795*
X486740Y238189*
X487134Y238386*
X487528Y238189*
X487724Y237795*
Y236417*
Y237795D02*
X488906Y238386D01*
Y239961D02*
Y240748D01*
Y240354D02*
X486543D01*
X486937Y239961*
X488709Y242717D02*
X488906Y243110D01*
Y243701*
X488709Y244094*
X488315Y244291*
X488118*
X487724Y244094*
X487528Y243701*
Y242717*
X486543*
Y244291*
X489854Y248039D02*
Y232039D01*
X496854*
Y248039*
X489854*
X491083Y495842D02*
X491396Y495529D01*
X491708Y494904*
Y493967*
X491396Y493342*
X491083Y493029*
X490458Y492717*
X489208*
X488583Y493029*
X488270Y493342*
X487958Y493967*
Y494904*
X488270Y495529*
X488583Y495842*
X490458Y497717D02*
X489208D01*
X488583Y498029*
X488270Y498342*
X487958Y498967*
Y499592*
X488270Y500217*
X488583Y500529*
X489208Y500842*
X490458*
X491083Y500529*
X491396Y500217*
X491708Y499592*
Y498967*
X491396Y498342*
X491083Y498029*
X490458Y497717*
X491708Y502717D02*
X487958D01*
X491708Y505842*
X487958*
X491708Y507717D02*
X487958D01*
X491708Y510842*
X487958*
X491708Y513342D02*
Y514592D01*
Y513967D02*
X487958D01*
X488583Y513342*
X491396Y517717D02*
X491708Y518342D01*
Y519279*
X491396Y519904*
X490770Y520217*
X490458*
X489833Y519904*
X489520Y519279*
Y517717*
X487958*
Y520217*
X491268Y254724D02*
X491465Y254921D01*
X491858Y255118*
X492449*
X492843Y254921*
X493039Y254724*
X493236Y254331*
Y253543*
X493039Y253150*
X492843Y252953*
X492449Y252756*
X491858*
X491465Y252953*
X491268Y253150*
X490087Y252756D02*
Y255118D01*
X488118*
X486937D02*
Y252756D01*
Y253937D02*
X486346D01*
X484969Y252756*
X486346Y253937D02*
X484969Y255118D01*
X496854Y198575D02*
Y214575D01*
X489854*
Y198575*
X496854*
X510731Y41326D02*
X510419Y41014D01*
X509794Y40701*
X508856*
X508231Y41014*
X507919Y41326*
X507606Y41951*
Y43201*
X507919Y43826*
X508231Y44139*
X508856Y44451*
X509794*
X510419Y44139*
X510731Y43826*
X512606Y44451D02*
Y40701D01*
X515731*
X517606D02*
Y44451D01*
Y42576D02*
X518544D01*
X520731Y44451*
X518544Y42576D02*
X520731Y40701D01*
X507606Y60780D02*
Y64530D01*
X509794*
X510419Y64218*
X510731Y63593*
X510419Y62968*
X509794Y62655*
X507606*
X512606Y64530D02*
X512919Y60780D01*
X514169Y62655*
X515419Y60780*
X515731Y64530*
X517606Y60780D02*
Y64530D01*
X519794*
X520419Y64218*
X520731Y63593*
X520419Y62968*
X519794Y62655*
X517606*
X519794D02*
X520731Y60780D01*
X508000Y51331D02*
Y55081D01*
X510187*
X510813Y54769*
X511125Y54144*
X510813Y53519*
X510187Y53206*
X508000*
X510187D02*
X511125Y51331D01*
X513000Y52269D02*
X513313Y51644D01*
X513937Y51331*
X515187*
X515813Y51644*
X516125Y52269*
X515813Y52894*
X515187Y53206*
X513937*
X513313Y53519*
X513000Y54144*
X513313Y54769*
X513937Y55081*
X515187*
X515813Y54769*
X516125Y54144*
X519563Y51331D02*
Y55081D01*
X518000D02*
X521125D01*
X518748Y109304D02*
Y113054D01*
X520935*
X521561Y112741*
X521873Y112116*
X521561Y111491*
X520935Y111179*
X518748*
X523748Y113054D02*
Y109304D01*
X526873*
X531248D02*
X528748D01*
X530935Y111491*
X531248Y112116*
X530935Y112741*
X530311Y113054*
X529373*
X528748Y112741*
X534061Y109616D02*
X534685Y109304D01*
X535311*
X535935Y109616*
X536248Y110241*
Y112116*
X535935Y112741*
X535311Y113054*
X534685*
X534061Y112741*
X533748Y112116*
Y110241*
X534061Y109616*
X535935Y112741*
X524142Y201378D02*
Y201969D01*
X524339*
X524732Y201772*
X524929Y201575*
X525126Y201181*
Y200787*
X524929Y200394*
X524732Y200197*
X524339Y200000*
X523551*
X523157Y200197*
X522961Y200394*
X522764Y200787*
Y201181*
X522961Y201575*
X523157Y201772*
X523551Y201969*
X525126Y203150D02*
X522764D01*
X525126Y205118*
X522764*
X525126Y206299D02*
X522764D01*
Y207480*
X522961Y207874*
X523157Y208071*
X523551Y208268*
X524339*
X524732Y208071*
X524929Y207874*
X525126Y207480*
Y206299*
X532409Y203925D02*
X532722Y203612D01*
X533347Y203300*
X533972Y203612*
X534285Y203925*
Y207050*
X534909*
X534285D02*
X533035D01*
X538035Y203300D02*
X539285D01*
X538659D02*
Y207050D01*
X538035Y206425*
X542722Y203612D02*
X543347Y203300D01*
X543972*
X544597Y203612*
X544909Y204237*
Y206112*
X544597Y206737*
X543972Y207050*
X543347*
X542722Y206737*
X542409Y206112*
Y204237*
X542722Y203612*
X544597Y206737*
X548035Y203300D02*
X549285D01*
X548659D02*
Y207050D01*
X548035Y206425*
X541307Y38622D02*
Y78622D01*
X561307*
Y18622*
X541307*
Y38622*
X543807Y7059D02*
Y10809D01*
X545994*
X546620Y10497*
X546932Y9872*
X546620Y9247*
X545994Y8935*
X543807*
X548807Y10809D02*
Y7059D01*
X551932*
X553807Y7372D02*
X554432Y7059D01*
X555370*
X555994Y7372*
X556307Y7997*
Y8309*
X555994Y8935*
X555370Y9247*
X553807*
Y10809*
X556307*
X544024Y150984D02*
Y151772D01*
Y151378D02*
X541661D01*
Y150984D02*
Y151772D01*
X543236Y153543D02*
X542449D01*
X542055Y153740*
X541858Y153937*
X541661Y154331*
Y154724*
X541858Y155118*
X542055Y155315*
X542449Y155512*
X543236*
X543630Y155315*
X543827Y155118*
X544024Y154724*
Y154331*
X543827Y153937*
X543630Y153740*
X543236Y153543*
X563138Y186169D02*
Y182419D01*
X560950*
X560325Y182731*
X560013Y183356*
X560325Y183981*
X560950Y184294*
X563138*
X558138Y182419D02*
Y186169D01*
X555013*
X553138Y185231D02*
X552825Y184606D01*
X552200Y184294*
X551575*
X550950Y184606*
X550638Y185231*
X550950Y185856*
X551575Y186169*
X552200*
X552825Y185856*
X553138Y185231*
Y184294*
X552825Y183356*
X552200Y182731*
X551575Y182419*
X562724Y178543D02*
Y179134D01*
X562921*
X563315Y178937*
X563512Y178740*
X563709Y178346*
Y177953*
X563512Y177559*
X563315Y177362*
X562921Y177165*
X562134*
X561740Y177362*
X561543Y177559*
X561346Y177953*
Y178346*
X561543Y178740*
X561740Y178937*
X562134Y179134*
X563709Y180315D02*
X561346D01*
X563709Y182283*
X561346*
X563709Y183465D02*
X561346D01*
Y184646*
X561543Y185039*
X561740Y185236*
X562134Y185433*
X562921*
X563315Y185236*
X563512Y185039*
X563709Y184646*
Y183465*
X565638Y154606D02*
Y114606D01*
X545638*
Y174606*
X565638*
Y154606*
X565480Y22638D02*
Y23228D01*
X565677*
X566071Y23031*
X566268Y22835*
X566465Y22441*
Y22047*
X566268Y21654*
X566071Y21457*
X565677Y21260*
X564890*
X564496Y21457*
X564299Y21654*
X564102Y22047*
Y22441*
X564299Y22835*
X564496Y23031*
X564890Y23228*
X566465Y24409D02*
X564102D01*
X566465Y26378*
X564102*
X566465Y27559D02*
X564102D01*
Y28740*
X564299Y29134*
X564496Y29331*
X564890Y29528*
X565677*
X566071Y29331*
X566268Y29134*
X566465Y28740*
Y27559*
Y39567D02*
Y40354D01*
Y39961D02*
X564102D01*
Y39567D02*
Y40354D01*
X565677Y42126D02*
X564890D01*
X564496Y42323*
X564299Y42520*
X564102Y42913*
Y43307*
X564299Y43701*
X564496Y43898*
X564890Y44094*
X565677*
X566071Y43898*
X566268Y43701*
X566465Y43307*
Y42913*
X566268Y42520*
X566071Y42323*
X565677Y42126*
D02*
D104*
X559575Y182677D02*
Y203150D01*
X556425Y200000*
X562724*
X559575Y203150*
D02*
D105*
X115402Y219063D02*
Y215717D01*
X103984*
Y219063*
X115402*
X115894Y224575D02*
Y220441D01*
X273728Y229331D02*
X277469D01*
X278846Y228543D02*
X280224D01*
Y220669*
X278846*
Y228543*
X444024Y189370D02*
Y207874D01*
X434969*
Y189370*
X444024*
X533886Y62598D02*
G75*
G02Y63386J394D01*
G01*
Y62598D02*
G75*
G03Y63386J394D01*
G01*
D02*
D106*
X448846Y218799D02*
X473453D01*
Y194193*
X448846*
Y218799*
D02*
D107*
X450323Y216339D02*
G75*
G02X449339I-492D01*
G01*
X450323D02*
G75*
G02X449339I-492D01*
G01*
G75*
G02X450323I492*
G01*
X0Y0D02*
M02*
