G04 DesignSpark PCB Gerber Version 9.0 Build 5115 *
G04 #@! TF.Part,Single*
G04 #@! TF.FileFunction,Copper,L1,Top *
G04 #@! TF.FilePolarity,Positive *
%FSLAX35Y35*%
%MOIN*%
G04 #@! TA.AperFunction,ComponentPad*
%ADD73O,0.06000X0.11000*%
G04 #@! TA.AperFunction,SMDPad,CuDef*
%ADD77R,0.01181X0.03346*%
%ADD75R,0.02165X0.04134*%
%ADD27R,0.02800X0.03500*%
%ADD29R,0.05500X0.06000*%
G04 #@! TA.AperFunction,ComponentPad*
%ADD80R,0.06000X0.06000*%
G04 #@! TA.AperFunction,SMDPad,CuDef*
%ADD78R,0.11024X0.11024*%
G04 #@! TD.AperFunction*
%ADD11C,0.00197*%
%ADD10C,0.00394*%
%ADD22C,0.00500*%
%ADD12C,0.01000*%
%ADD70C,0.01181*%
%ADD14C,0.01969*%
%ADD15C,0.02953*%
%ADD21C,0.03150*%
G04 #@! TA.AperFunction,ViaPad*
%ADD17C,0.03346*%
G04 #@! TD.AperFunction*
%ADD16C,0.03937*%
G04 #@! TA.AperFunction,ViaPad*
%ADD18C,0.04000*%
G04 #@! TD.AperFunction*
%ADD71C,0.04331*%
%ADD20C,0.05512*%
%ADD19C,0.05906*%
%ADD13C,0.07480*%
G04 #@! TA.AperFunction,ComponentPad*
%ADD26C,0.07874*%
G04 #@! TA.AperFunction,SMDPad,CuDef*
%ADD23C,0.08071*%
G04 #@! TA.AperFunction,ComponentPad*
%ADD82O,0.11000X0.06000*%
G04 #@! TA.AperFunction,SMDPad,CuDef*
%ADD76R,0.03346X0.01181*%
%ADD79R,0.03740X0.01575*%
%ADD28R,0.03500X0.02800*%
%ADD74R,0.07087X0.04528*%
%ADD81R,0.05906X0.05118*%
%ADD72R,0.06000X0.05500*%
%ADD24R,0.09843X0.09843*%
G04 #@! TA.AperFunction,ComponentPad*
%ADD25C,0.17717*%
X0Y0D02*
D02*
D10*
X9969Y139961D02*
Y22638D01*
X62449*
Y53346*
X99850*
Y22638*
X150056*
G75*
G02X148945Y24409I858J1772*
G01*
Y40157*
G75*
G02X150913Y42126I1969*
G01*
G75*
G02X148945Y44094J1969*
G01*
Y59843*
G75*
G02X150913Y61811I1969*
G01*
G75*
G02X148945Y63780J1969*
G01*
Y79528*
G75*
G02X150913Y81496I1969*
G01*
X150717*
G75*
G02X148748Y83465J1969*
G01*
Y99213*
G75*
G02X150717Y101181I1969*
G01*
G75*
G02X148748Y103150J1969*
G01*
Y118898*
G75*
G02X150717Y120866I1969*
G01*
G75*
G02X148748Y122835J1969*
G01*
Y138583*
G75*
G02X149311Y139961I1969*
G01*
X101819*
Y108465*
X62449*
Y139961*
X9969*
X113630Y92717D02*
X137252D01*
Y69094*
X113630*
Y74016*
X48669*
Y69094*
X25047*
Y92717*
X48669*
Y87795*
X113630*
Y92717*
X10165Y80906D02*
G36*
Y22835D01*
X62449*
Y53346*
X99850*
Y22835*
X149732*
G75*
G02X148945Y24409I1181J1575*
G01*
Y40157*
G75*
G02X150717Y42116I1969*
G01*
Y42136*
G75*
G02X148945Y44094I197J1959*
G01*
Y59843*
G75*
G02X150717Y61801I1969*
G01*
Y61821*
G75*
G02X148945Y63780I197J1959*
G01*
Y79528*
G75*
G02X149507Y80906I1969*
G01*
X137252*
Y69094*
X113630*
Y74016*
X48669*
Y69094*
X25047*
Y80906*
X10165*
G37*
Y139764D02*
G36*
Y80906D01*
X25047*
Y92717*
X48669*
Y87795*
X113630*
Y92717*
X137252*
Y80906*
X149507*
G75*
G02X150717Y81486I1406J-1378*
G01*
Y81496*
G75*
G02X148748Y83465J1969*
G01*
Y99213*
G75*
G02X150717Y101181I1969*
G01*
G75*
G02X148748Y103150J1969*
G01*
Y118898*
G75*
G02X150717Y120866I1969*
G01*
G75*
G02X148748Y122835J1969*
G01*
Y138583*
G75*
G02X149142Y139764I1969J0*
G01*
X101819*
Y108465*
X62449*
Y139764*
X10165*
G37*
X9969Y153346D02*
Y140354D01*
X401701*
Y152362*
G75*
G02X401965Y153346I1969*
G01*
X9969*
X43433Y152559D02*
G75*
G02X45402Y150591J-1969D01*
G01*
Y142717*
G75*
G02X43433Y140748I-1969*
G01*
X27685*
G75*
G02X25783Y142209J1969*
G01*
G75*
G02X23945Y140945I-1838J704*
G01*
X13118*
G75*
G02X11150Y142913J1969*
G01*
Y150787*
G75*
G02X13118Y152756I1969*
G01*
X23945*
G75*
G02X25847Y151295J-1969*
G01*
G75*
G02X27685Y152559I1838J-704*
G01*
X43433*
X82606D02*
G75*
G02X84575Y150591J-1969D01*
G01*
Y142717*
G75*
G02X82606Y140748I-1969*
G01*
X66858*
G75*
G02X64988Y142102J1969*
G01*
G75*
G02X63118Y140748I-1870J615*
G01*
X48157*
G75*
G02X46189Y142717J1969*
G01*
Y150591*
G75*
G02X48157Y152559I1969*
G01*
X63118*
G75*
G02X64988Y151205J-1969*
G01*
G75*
G02X66858Y152559I1870J-615*
G01*
X82606*
X122173D02*
G75*
G02X124142Y150591J-1969D01*
G01*
Y142717*
G75*
G02X122173Y140748I-1969*
G01*
X106425*
G75*
G02X104457Y142717J1969*
G01*
G75*
G02X102488Y140748I-1969*
G01*
X86740*
G75*
G02X84772Y142717J1969*
G01*
Y150591*
G75*
G02X86740Y152559I1969*
G01*
X102488*
G75*
G02X104457Y150591J-1969*
G01*
G75*
G02X106425Y152559I1969*
G01*
X122173*
X160756D02*
G75*
G02X162724Y150591J-1969D01*
G01*
Y142717*
G75*
G02X160756Y140748I-1969*
G01*
X145795*
G75*
G02X143925Y142102J1969*
G01*
G75*
G02X142055Y140748I-1870J615*
G01*
X126307*
G75*
G02X124339Y142717J1969*
G01*
Y150591*
G75*
G02X126307Y152559I1969*
G01*
X142055*
G75*
G02X143925Y151205J-1969*
G01*
G75*
G02X145795Y152559I1870J-615*
G01*
X160756*
X397764D02*
G75*
G02X399732Y150591J-1969D01*
G01*
Y142717*
G75*
G02X397764Y140748I-1969*
G01*
X382016*
G75*
G02X380047Y142717J1969*
G01*
G75*
G02X378079Y140748I-1969*
G01*
X362331*
G75*
G02X360362Y142717J1969*
G01*
G75*
G02X358394Y140748I-1969*
G01*
X342646*
G75*
G02X340677Y142717J1969*
G01*
G75*
G02X338709Y140748I-1969*
G01*
X322961*
G75*
G02X320992Y142717J1969*
G01*
G75*
G02X319024Y140748I-1969*
G01*
X303276*
G75*
G02X301307Y142717J1969*
G01*
G75*
G02X299339Y140748I-1969*
G01*
X283591*
G75*
G02X281622Y142717J1969*
G01*
G75*
G02X279654Y140748I-1969*
G01*
X263906*
G75*
G02X261937Y142717J1969*
G01*
G75*
G02X259969Y140748I-1969*
G01*
X244220*
G75*
G02X242252Y142717J1969*
G01*
G75*
G02X240283Y140748I-1969*
G01*
X224535*
G75*
G02X222567Y142717J1969*
G01*
G75*
G02X220598Y140748I-1969*
G01*
X204850*
G75*
G02X202882Y142717J1969*
G01*
G75*
G02X200913Y140748I-1969*
G01*
X185165*
G75*
G02X183197Y142717J1969*
G01*
G75*
G02X181228Y140748I-1969*
G01*
X165480*
G75*
G02X163512Y142717J1969*
G01*
Y150591*
G75*
G02X165480Y152559I1969*
G01*
X181228*
G75*
G02X183197Y150591J-1969*
G01*
G75*
G02X185165Y152559I1969*
G01*
X200913*
G75*
G02X202882Y150591J-1969*
G01*
G75*
G02X204850Y152559I1969*
G01*
X220598*
G75*
G02X222567Y150591J-1969*
G01*
G75*
G02X224535Y152559I1969*
G01*
X240283*
G75*
G02X242252Y150591J-1969*
G01*
G75*
G02X244220Y152559I1969*
G01*
X259969*
G75*
G02X261937Y150591J-1969*
G01*
G75*
G02X263906Y152559I1969*
G01*
X279654*
G75*
G02X281622Y150591J-1969*
G01*
G75*
G02X283591Y152559I1969*
G01*
X299339*
G75*
G02X301307Y150591J-1969*
G01*
G75*
G02X303276Y152559I1969*
G01*
X319024*
G75*
G02X320992Y150591J-1969*
G01*
G75*
G02X322961Y152559I1969*
G01*
X338709*
G75*
G02X340677Y150591J-1969*
G01*
G75*
G02X342646Y152559I1969*
G01*
X358394*
G75*
G02X360362Y150591J-1969*
G01*
G75*
G02X362331Y152559I1969*
G01*
X378079*
G75*
G02X380047Y150591J-1969*
G01*
G75*
G02X382016Y152559I1969*
G01*
X397764*
X10165Y146752D02*
G36*
Y140551D01*
X401701*
Y146752*
X399732*
Y142717*
G75*
G02X397764Y140748I-1969*
G01*
X382016*
G75*
G02X380047Y142717J1969*
G01*
G75*
G02X378079Y140748I-1969*
G01*
X362331*
G75*
G02X360362Y142717J1969*
G01*
G75*
G02X358394Y140748I-1969*
G01*
X342646*
G75*
G02X340677Y142717J1969*
G01*
G75*
G02X338709Y140748I-1969*
G01*
X322961*
G75*
G02X320992Y142717J1969*
G01*
G75*
G02X319024Y140748I-1969*
G01*
X303276*
G75*
G02X301307Y142717J1969*
G01*
G75*
G02X299339Y140748I-1969*
G01*
X283591*
G75*
G02X281622Y142717J1969*
G01*
G75*
G02X279654Y140748I-1969*
G01*
X263906*
G75*
G02X261937Y142717J1969*
G01*
G75*
G02X259969Y140748I-1969*
G01*
X244220*
G75*
G02X242252Y142717J1969*
G01*
G75*
G02X240283Y140748I-1969*
G01*
X224535*
G75*
G02X222567Y142717J1969*
G01*
G75*
G02X220598Y140748I-1969*
G01*
X204850*
G75*
G02X202882Y142717J1969*
G01*
G75*
G02X200913Y140748I-1969*
G01*
X185165*
G75*
G02X183197Y142717J1969*
G01*
G75*
G02X181228Y140748I-1969*
G01*
X165480*
G75*
G02X163512Y142717J1969*
G01*
Y146752*
X162724*
Y142717*
G75*
G02X160756Y140748I-1969*
G01*
X145795*
G75*
G02X143925Y142102J1969*
G01*
G75*
G02X142055Y140748I-1870J615*
G01*
X126307*
G75*
G02X124339Y142717J1969*
G01*
Y146752*
X124142*
Y142717*
G75*
G02X122173Y140748I-1969*
G01*
X106425*
G75*
G02X104457Y142717J1969*
G01*
G75*
G02X102488Y140748I-1969*
G01*
X86740*
G75*
G02X84772Y142717J1969*
G01*
Y146752*
X84575*
Y142717*
G75*
G02X82606Y140748I-1969*
G01*
X66858*
G75*
G02X64988Y142102J1969*
G01*
G75*
G02X63118Y140748I-1870J615*
G01*
X48157*
G75*
G02X46189Y142717J1969*
G01*
Y146752*
X45402*
Y142717*
G75*
G02X43433Y140748I-1969*
G01*
X27685*
G75*
G02X25783Y142209J1969*
G01*
G75*
G02X23945Y140945I-1838J704*
G01*
X13118*
G75*
G02X11150Y142913J1969*
G01*
Y146752*
X10165*
G37*
Y153150D02*
G36*
Y146752D01*
X11150*
Y150787*
G75*
G02X13118Y152756I1969*
G01*
X23945*
G75*
G02X25847Y151295J-1969*
G01*
G75*
G02X27685Y152559I1838J-704*
G01*
X43433*
G75*
G02X45402Y150591J-1969*
G01*
Y146752*
X46189*
Y150591*
G75*
G02X48157Y152559I1969*
G01*
X63118*
G75*
G02X64988Y151205J-1969*
G01*
G75*
G02X66858Y152559I1870J-615*
G01*
X82606*
G75*
G02X84575Y150591J-1969*
G01*
Y146752*
X84772*
Y150591*
G75*
G02X86740Y152559I1969*
G01*
X102488*
G75*
G02X104457Y150591J-1969*
G01*
G75*
G02X106425Y152559I1969*
G01*
X122173*
G75*
G02X124142Y150591J-1969*
G01*
Y146752*
X124339*
Y150591*
G75*
G02X126307Y152559I1969*
G01*
X142055*
G75*
G02X143925Y151205J-1969*
G01*
G75*
G02X145795Y152559I1870J-615*
G01*
X160756*
G75*
G02X162724Y150591J-1969*
G01*
Y146752*
X163512*
Y150591*
G75*
G02X165480Y152559I1969*
G01*
X181228*
G75*
G02X183197Y150591J-1969*
G01*
G75*
G02X185165Y152559I1969*
G01*
X200913*
G75*
G02X202882Y150591J-1969*
G01*
G75*
G02X204850Y152559I1969*
G01*
X220598*
G75*
G02X222567Y150591J-1969*
G01*
G75*
G02X224535Y152559I1969*
G01*
X240283*
G75*
G02X242252Y150591J-1969*
G01*
G75*
G02X244220Y152559I1969*
G01*
X259969*
G75*
G02X261937Y150591J-1969*
G01*
G75*
G02X263906Y152559I1969*
G01*
X279654*
G75*
G02X281622Y150591J-1969*
G01*
G75*
G02X283591Y152559I1969*
G01*
X299339*
G75*
G02X301307Y150591J-1969*
G01*
G75*
G02X303276Y152559I1969*
G01*
X319024*
G75*
G02X320992Y150591J-1969*
G01*
G75*
G02X322961Y152559I1969*
G01*
X338709*
G75*
G02X340677Y150591J-1969*
G01*
G75*
G02X342646Y152559I1969*
G01*
X358394*
G75*
G02X360362Y150591J-1969*
G01*
G75*
G02X362331Y152559I1969*
G01*
X378079*
G75*
G02X380047Y150591J-1969*
G01*
G75*
G02X382016Y152559I1969*
G01*
X397764*
G75*
G02X399732Y150591J-1969*
G01*
Y146752*
X401701*
Y152362*
G75*
G02Y152363I2183J1*
G01*
G75*
G02X401768Y152872I1964*
G01*
Y153150*
X10165*
G37*
X9969Y291890D02*
Y152756D01*
X23945*
G75*
G02X25388Y152126J-1969*
G01*
X26453*
G75*
G02X27685Y152559I1232J-1535*
G01*
X43433*
G75*
G02X44665Y152126J-1969*
G01*
X46138*
G75*
G02X47370Y152559I1232J-1535*
G01*
X55598*
X60283Y157244*
Y186772*
X64220Y190709*
X97685*
X101622Y186772*
Y156063*
X105409Y152276*
G75*
G02X106425Y152559I1017J-1686*
G01*
X122173*
G75*
G02X123405Y152126J-1969*
G01*
X125075*
G75*
G02X126307Y152559I1232J-1535*
G01*
X142055*
G75*
G02X143287Y152126J-1969*
G01*
X144563*
G75*
G02X145795Y152559I1232J-1535*
G01*
X161543*
Y291890*
X159626*
G75*
G02X160362Y290354I-1232J-1535*
G01*
Y274606*
G75*
G02X158394Y272638I-1969*
G01*
X150520*
G75*
G02X148551Y274606J1969*
G01*
Y290354*
G75*
G02X149288Y291890I1969*
G01*
X9969*
X123580Y214870D02*
X129362D01*
Y209673*
X123469*
Y210083*
X123088*
Y208354*
X126616*
Y200780*
X119541*
Y203020*
X117929*
Y202602*
X112854*
Y206980*
X117929*
Y206563*
X119541*
Y208354*
X119544*
Y210083*
X118780*
Y210500*
X115402*
Y209213*
X111071*
Y207843*
X112276*
Y206980*
X112831*
Y202602*
X112685*
Y197260*
X107488*
Y203154*
X107756*
Y206980*
X107898*
Y207843*
X108315*
Y209213*
X107921*
Y209417*
X107732*
X105559Y207244*
X91780*
X90205Y208819*
Y214331*
X89024Y215512*
X46504*
Y210394*
X22882*
Y234409*
X46504*
Y229291*
X84693*
Y227717*
X99260*
X102016Y224961*
Y217480*
X103197Y216299*
X107921*
Y215906*
X115402*
Y214043*
X118780*
Y214461*
X119052*
Y215696*
G75*
G02X118529Y217323I2264J1626*
G01*
G75*
G02X124104I2787*
G01*
G75*
G02X123580Y215696I-2787*
G01*
Y214870*
X119132Y199764D02*
X127026D01*
Y191370*
X119132*
Y199764*
X56496Y279823D02*
G75*
G02X64071I3787D01*
G01*
Y274823*
G75*
G02X56496I-3787*
G01*
Y279823*
X66496D02*
G75*
G02X74071I3787D01*
G01*
Y274823*
G75*
G02X66496I-3787*
G01*
Y279823*
X74053Y250169D02*
X81947D01*
Y241776*
X74053*
Y250169*
X86274Y258760D02*
X93348D01*
Y251185*
X86274*
Y253201*
X81537*
Y251185*
X74463*
Y258760*
X78512*
Y271475*
G75*
G02X76496Y274823I1772J3348*
G01*
Y279823*
G75*
G02X84071I3787*
G01*
Y274823*
G75*
G02X82055Y271475I-3787*
G01*
Y257256*
G75*
G02X81980Y256744I-1772*
G01*
X86274*
Y258760*
X116764Y254122D02*
G75*
G02X117331Y252756I-1363J-1366D01*
G01*
Y228898*
G75*
G02X116764Y227531I-1930*
G01*
X115362Y226130*
Y225748*
X115402*
Y219449*
X111972*
Y219244*
X111268*
Y219055*
G75*
G02X111071Y218858I-197*
G01*
X108315*
G75*
G02X108118Y219055J197*
G01*
Y219244*
X107413*
Y219449*
X103984*
Y221714*
G75*
G02Y223483I1890J885*
G01*
Y225748*
X104024*
Y226130*
X94681Y235472*
X92254*
G75*
G02X90910Y236015I-2J1930*
G01*
X88469Y238378*
G75*
G02X87882Y239764I1342J1386*
G01*
Y242185*
X86274*
Y249760*
X93348*
Y242185*
X91740*
Y240581*
X93033Y239331*
X95480*
G75*
G02X96846Y238764J-1930*
G01*
X107315Y228295*
G75*
G02X107882Y226929I-1363J-1366*
G01*
Y225772*
X108118*
Y226929*
G75*
G02X108315Y227126I197*
G01*
X111071*
G75*
G02X111268Y226929J-197*
G01*
Y225772*
X111504*
Y226929*
G75*
G02X112071Y228295I1930*
G01*
X113472Y229697*
Y251957*
X112240Y253189*
X105159*
Y251185*
X98085*
Y258760*
X99772*
Y261799*
X98921Y262650*
G75*
G02X98354Y264016I1363J1366*
G01*
Y271563*
G75*
G02X96496Y274823I1929J3259*
G01*
Y279823*
G75*
G02X104071I3787*
G01*
Y274823*
G75*
G02X102213Y271563I-3787*
G01*
Y264815*
X103063Y263965*
G75*
G02X103630Y262598I-1363J-1366*
G01*
Y258760*
X105159*
Y257047*
X113039*
G75*
G02X114406Y256480J-1930*
G01*
X116764Y254122*
X98085Y249760D02*
X105159D01*
Y242185*
X98085*
Y249760*
X86496Y279823D02*
G75*
G02X94071I3787D01*
G01*
Y274823*
G75*
G02X86496I-3787*
G01*
Y279823*
X158394Y272441D02*
G75*
G02X160362Y270472J-1969D01*
G01*
Y254724*
G75*
G02X158394Y252756I-1969*
G01*
G75*
G02X160362Y250787J-1969*
G01*
Y235039*
G75*
G02X158394Y233071I-1969*
G01*
G75*
G02X160362Y231102J-1969*
G01*
Y215354*
G75*
G02X158394Y213386I-1969*
G01*
G75*
G02X160362Y211417J-1969*
G01*
Y195669*
G75*
G02X158394Y193701I-1969*
G01*
G75*
G02X160362Y191732J-1969*
G01*
Y175984*
G75*
G02X158394Y174016I-1969*
G01*
G75*
G02X160362Y172047J-1969*
G01*
Y156299*
G75*
G02X158394Y154331I-1969*
G01*
X150520*
G75*
G02X148551Y156299J1969*
G01*
Y172047*
G75*
G02X150520Y174016I1969*
G01*
G75*
G02X148551Y175984J1969*
G01*
Y191732*
G75*
G02X150520Y193701I1969*
G01*
G75*
G02X148551Y195669J1969*
G01*
Y211417*
G75*
G02X150520Y213386I1969*
G01*
G75*
G02X148551Y215354J1969*
G01*
Y231102*
G75*
G02X150520Y233071I1969*
G01*
G75*
G02X148551Y235039J1969*
G01*
Y250787*
G75*
G02X150520Y252756I1969*
G01*
G75*
G02X148551Y254724J1969*
G01*
Y270472*
G75*
G02X150520Y272441I1969*
G01*
X158394*
X10165Y195567D02*
G36*
Y152756D01*
X23945*
G75*
G02X25177Y152323I1J-1967*
G01*
X26750*
G75*
G02X27685Y152559I935J-1733*
G01*
X43433*
G75*
G02X44368Y152323I0J-1970*
G01*
X46435*
G75*
G02X47370Y152559I935J-1733*
G01*
X55598*
X60283Y157244*
Y186772*
X64220Y190709*
X97685*
X101622Y186772*
Y156063*
X105362Y152323*
X105490*
G75*
G02X106425Y152559I935J-1734*
G01*
X122173*
G75*
G02X123108Y152323I0J-1970*
G01*
X125372*
G75*
G02X126307Y152559I935J-1733*
G01*
X142055*
G75*
G02X142990Y152323I0J-1970*
G01*
X144860*
G75*
G02X145795Y152559I935J-1733*
G01*
X161346*
Y195567*
X160359*
G75*
G02X158394Y193701I-1966J102*
G01*
G75*
G02X160362Y191732J-1969*
G01*
Y175984*
G75*
G02X158394Y174016I-1969*
G01*
G75*
G02X160362Y172047J-1969*
G01*
Y156299*
G75*
G02X158394Y154331I-1969*
G01*
X150520*
G75*
G02X148551Y156299J1969*
G01*
Y172047*
G75*
G02X150520Y174016I1969*
G01*
G75*
G02X148551Y175984J1969*
G01*
Y191732*
G75*
G02X150520Y193701I1969*
G01*
G75*
G02X148554Y195567J1969*
G01*
X127026*
Y191370*
X119132*
Y195567*
X10165*
G37*
Y215835D02*
G36*
Y195567D01*
X119132*
Y199764*
X127026*
Y195567*
X148554*
G75*
G02X148551Y195669I1966J104*
G01*
Y211417*
G75*
G02X150520Y213386I1969*
G01*
G75*
G02X148551Y215354J1969*
G01*
Y215835*
X123673*
G75*
G02X123580Y215696I-2359J1486*
G01*
Y214870*
X129362*
Y209673*
X123469*
Y210083*
X123088*
Y208354*
X126616*
Y200780*
X119541*
Y203020*
X117929*
Y202602*
X112854*
Y206980*
X117929*
Y206563*
X119541*
Y208354*
X119544*
Y210083*
X118780*
Y210500*
X115402*
Y209213*
X111071*
Y207843*
X112276*
Y206980*
X112831*
Y202602*
X112685*
Y197260*
X107488*
Y203154*
X107756*
Y206980*
X107898*
Y207843*
X108315*
Y209213*
X107921*
Y209417*
X107732*
X105559Y207244*
X91780*
X90205Y208819*
Y214331*
X89024Y215512*
X46504*
Y210394*
X22882*
Y215835*
X10165*
G37*
X115402D02*
G36*
Y214043D01*
X118780*
Y214461*
X119052*
Y215696*
G75*
G02X118959Y215835I2267J1624*
G01*
X115402*
G37*
X160362Y195669D02*
G36*
G75*
G02X160359Y195567I-1969J2D01*
G01*
X161346*
Y215835*
X160362*
Y215354*
G75*
G02X158394Y213386I-1969*
G01*
G75*
G02X160362Y211417J-1969*
G01*
Y195669*
G37*
X10165Y245972D02*
G36*
Y215835D01*
X22882*
Y234409*
X46504*
Y229291*
X84693*
Y227717*
X99260*
X102016Y224961*
Y217480*
X103197Y216299*
X107921*
Y215906*
X115402*
Y215835*
X118959*
G75*
G02X118529Y217323I2359J1489*
G01*
G75*
G02X124104I2787*
G01*
G75*
G02X123673Y215835I-2790J1*
G01*
X148551*
Y231102*
G75*
G02X150520Y233071I1969*
G01*
G75*
G02X148551Y235039J1969*
G01*
Y245972*
X117331*
Y228898*
G75*
G02X116764Y227531I-1929*
G01*
X115362Y226130*
Y225748*
X115402*
Y219449*
X111972*
Y219244*
X111268*
Y219055*
G75*
G02Y219054I-259J0*
G01*
G75*
G02X111071Y218858I-197*
G01*
X108315*
G75*
G02X108118Y219054J196*
G01*
G75*
G02Y219055I259J0*
G01*
Y219244*
X107413*
Y219449*
X103984*
Y221714*
G75*
G02X103787Y222598I1889J885*
G01*
G75*
G02X103984Y223483I2086*
G01*
Y225748*
X104024*
Y226130*
X94681Y235472*
X92254*
G75*
G02X90910Y236015I-2J1932*
G01*
X88469Y238378*
G75*
G02X87882Y239763I1340J1385*
G01*
G75*
G02Y239764I2374J0*
G01*
Y242185*
X86274*
Y245972*
X81947*
Y241776*
X74053*
Y245972*
X10165*
G37*
X91740Y242185D02*
G36*
Y240581D01*
X93033Y239331*
X95480*
G75*
G02X96846Y238764J-1929*
G01*
X107315Y228295*
G75*
G02X107882Y226929I-1362J-1366*
G01*
Y225772*
X108118*
Y226929*
G75*
G02Y226930I259J0*
G01*
G75*
G02X108315Y227126I197*
G01*
X111071*
G75*
G02X111268Y226930J-196*
G01*
G75*
G02Y226929I-259J0*
G01*
Y225772*
X111504*
Y226929*
G75*
G02X112071Y228295I1929*
G01*
X113472Y229697*
Y245972*
X105159*
Y242185*
X98085*
Y245972*
X93348*
Y242185*
X91740*
G37*
X160362Y231102D02*
G36*
Y215835D01*
X161346*
Y245972*
X160362*
Y235039*
G75*
G02X158394Y233071I-1969*
G01*
G75*
G02X160362Y231102J-1969*
G01*
G37*
X10165Y277323D02*
G36*
Y245972D01*
X74053*
Y250169*
X81947*
Y245972*
X86274*
Y249760*
X93348*
Y245972*
X98085*
Y249760*
X105159*
Y245972*
X113472*
Y251957*
X112240Y253189*
X105159*
Y251185*
X98085*
Y258760*
X99772*
Y261799*
X98921Y262650*
G75*
G02X98354Y264016I1362J1366*
G01*
Y271563*
G75*
G02X96496Y274823I1930J3259*
G01*
Y277323*
X94071*
Y274823*
G75*
G02X86496I-3787*
G01*
Y277323*
X84071*
Y274823*
G75*
G02X82055Y271475I-3788*
G01*
Y257256*
G75*
G02Y257255I-1574J0*
G01*
G75*
G02X81980Y256744I-1762*
G01*
X86274*
Y258760*
X93348*
Y251185*
X86274*
Y253201*
X81537*
Y251185*
X74463*
Y258760*
X78512*
Y271475*
G75*
G02X76496Y274823I1772J3348*
G01*
Y277323*
X74071*
Y274823*
G75*
G02X66496I-3787*
G01*
Y277323*
X64071*
Y274823*
G75*
G02X56496I-3787*
G01*
Y277323*
X10165*
G37*
X102213Y271563D02*
G36*
Y264815D01*
X103063Y263965*
G75*
G02X103630Y262598I-1362J-1366*
G01*
Y258760*
X105159*
Y257047*
X113039*
G75*
G02X114406Y256480J-1929*
G01*
X116764Y254122*
G75*
G02X117331Y252756I-1362J-1366*
G01*
Y245972*
X148551*
Y250787*
G75*
G02X150520Y252756I1969*
G01*
G75*
G02X148551Y254724J1969*
G01*
Y270472*
G75*
G02X150520Y272441I1969*
G01*
X158394*
G75*
G02X160362Y270472J-1969*
G01*
Y254724*
G75*
G02X158394Y252756I-1969*
G01*
G75*
G02X160362Y250787J-1969*
G01*
Y245972*
X161346*
Y277323*
X160362*
Y274606*
G75*
G02X158394Y272638I-1969*
G01*
X150520*
G75*
G02X148551Y274606J1969*
G01*
Y277323*
X104071*
Y274823*
G75*
G02X102213Y271563I-3788*
G01*
G37*
X10165Y291693D02*
G36*
Y277323D01*
X56496*
Y279823*
G75*
G02X64071I3787*
G01*
Y277323*
X66496*
Y279823*
G75*
G02X74071I3787*
G01*
Y277323*
X76496*
Y279823*
G75*
G02X84071I3787*
G01*
Y277323*
X86496*
Y279823*
G75*
G02X94071I3787*
G01*
Y277323*
X96496*
Y279823*
G75*
G02X104071I3787*
G01*
Y277323*
X148551*
Y290354*
G75*
G02X149076Y291693I1969*
G01*
X10165*
G37*
X160362Y290354D02*
G36*
Y277323D01*
X161346*
Y291693*
X159837*
G75*
G02X160362Y290354I-1443J-1339*
G01*
G37*
X9969Y303740D02*
Y302559D01*
G75*
G02X11543Y303346I1575J-1181*
G01*
X23748*
G75*
G02X25618Y301993J-1969*
G01*
G75*
G02X27488Y303346I1870J-615*
G01*
X43236*
G75*
G02X45205Y301378J-1969*
G01*
Y293504*
G75*
G02X44417Y291929I-1969*
G01*
X46189*
G75*
G02X45402Y293504I1181J1575*
G01*
Y301378*
G75*
G02X47370Y303346I1969*
G01*
X63118*
G75*
G02X65087Y301378J-1969*
G01*
G75*
G02X67055Y303346I1969*
G01*
X82803*
G75*
G02X84772Y301378J-1969*
G01*
G75*
G02X86740Y303346I1969*
G01*
X102488*
G75*
G02X104358Y301993J-1969*
G01*
G75*
G02X106228Y303346I1870J-615*
G01*
X121976*
G75*
G02X123945Y301378J-1969*
G01*
Y293504*
G75*
G02X123157Y291929I-1969*
G01*
X124929*
G75*
G02X124142Y293504I1181J1575*
G01*
Y301378*
G75*
G02X126110Y303346I1969*
G01*
X141858*
G75*
G02X143827Y301378J-1969*
G01*
G75*
G02X145795Y303346I1969*
G01*
X161543*
G75*
G02X163512Y301378J-1969*
G01*
G75*
G02X165480Y303346I1969*
G01*
X181228*
G75*
G02X183197Y301378J-1969*
G01*
G75*
G02X185165Y303346I1969*
G01*
X200913*
G75*
G02X202882Y301378J-1969*
G01*
Y293504*
G75*
G02X202094Y291929I-1969*
G01*
X203866*
G75*
G02X203079Y293504I1181J1575*
G01*
Y301378*
G75*
G02X205047Y303346I1969*
G01*
X220795*
G75*
G02X222665Y301993J-1969*
G01*
G75*
G02X224535Y303346I1870J-615*
G01*
X240283*
G75*
G02X242252Y301378J-1969*
G01*
G75*
G02X244220Y303346I1969*
G01*
X259969*
G75*
G02X261937Y301378J-1969*
G01*
Y293504*
G75*
G02X261150Y291929I-1969*
G01*
X262921*
G75*
G02X262134Y293504I1181J1575*
G01*
Y301378*
G75*
G02X264102Y303346I1969*
G01*
X279850*
G75*
G02X281819Y301378J-1969*
G01*
G75*
G02X283787Y303346I1969*
G01*
X299535*
G75*
G02X301406Y301993J-1969*
G01*
G75*
G02X303276Y303346I1870J-615*
G01*
X319024*
G75*
G02X320992Y301378J-1969*
G01*
G75*
G02X322961Y303346I1969*
G01*
X338709*
G75*
G02X340677Y301378J-1969*
G01*
G75*
G02X342646Y303346I1969*
G01*
X358394*
G75*
G02X360362Y301378J-1969*
G01*
G75*
G02X362331Y303346I1969*
G01*
X378079*
G75*
G02X380047Y301378J-1969*
G01*
G75*
G02X382016Y303346I1969*
G01*
X397764*
G75*
G02X399732Y301378J-1969*
G01*
G75*
G02X401701Y303346I1969*
G01*
X417449*
G75*
G02X419417Y301378J-1969*
G01*
G75*
G02X421386Y303346I1969*
G01*
X437134*
G75*
G02X439102Y301378J-1969*
G01*
G75*
G02X441071Y303346I1969*
G01*
X456819*
G75*
G02X458787Y301378J-1969*
G01*
G75*
G02X460756Y303346I1969*
G01*
X476504*
G75*
G02X478472Y301378J-1969*
G01*
G75*
G02X480441Y303346I1969*
G01*
X496189*
G75*
G02X498157Y301378J-1969*
G01*
Y293504*
G75*
G02X497370Y291929I-1969*
G01*
X500520*
Y301772*
G75*
G02X500913Y302953I1969*
G01*
Y303740*
X9969*
G36*
Y302559*
G75*
G02X11543Y303346I1575J-1181*
G01*
X23748*
G75*
G02X25618Y301993J-1969*
G01*
G75*
G02X27488Y303346I1870J-615*
G01*
X43236*
G75*
G02X45205Y301378J-1969*
G01*
Y293504*
G75*
G02X44417Y291929I-1969*
G01*
X46189*
G75*
G02X45402Y293504I1181J1575*
G01*
Y301378*
G75*
G02X47370Y303346I1969*
G01*
X63118*
G75*
G02X65087Y301378J-1969*
G01*
G75*
G02X67055Y303346I1969*
G01*
X82803*
G75*
G02X84772Y301378J-1969*
G01*
G75*
G02X86740Y303346I1969*
G01*
X102488*
G75*
G02X104358Y301993J-1969*
G01*
G75*
G02X106228Y303346I1870J-615*
G01*
X121976*
G75*
G02X123945Y301378J-1969*
G01*
Y293504*
G75*
G02X123157Y291929I-1969*
G01*
X124929*
G75*
G02X124142Y293504I1181J1575*
G01*
Y301378*
G75*
G02X126110Y303346I1969*
G01*
X141858*
G75*
G02X143827Y301378J-1969*
G01*
G75*
G02X145795Y303346I1969*
G01*
X161543*
G75*
G02X163512Y301378J-1969*
G01*
G75*
G02X165480Y303346I1969*
G01*
X181228*
G75*
G02X183197Y301378J-1969*
G01*
G75*
G02X185165Y303346I1969*
G01*
X200913*
G75*
G02X202882Y301378J-1969*
G01*
Y293504*
G75*
G02X202094Y291929I-1969*
G01*
X203866*
G75*
G02X203079Y293504I1181J1575*
G01*
Y301378*
G75*
G02X205047Y303346I1969*
G01*
X220795*
G75*
G02X222665Y301993J-1969*
G01*
G75*
G02X224535Y303346I1870J-615*
G01*
X240283*
G75*
G02X242252Y301378J-1969*
G01*
G75*
G02X244220Y303346I1969*
G01*
X259969*
G75*
G02X261937Y301378J-1969*
G01*
Y293504*
G75*
G02X261150Y291929I-1969*
G01*
X262921*
G75*
G02X262134Y293504I1181J1575*
G01*
Y301378*
G75*
G02X264102Y303346I1969*
G01*
X279850*
G75*
G02X281819Y301378J-1969*
G01*
G75*
G02X283787Y303346I1969*
G01*
X299535*
G75*
G02X301406Y301993J-1969*
G01*
G75*
G02X303276Y303346I1870J-615*
G01*
X319024*
G75*
G02X320992Y301378J-1969*
G01*
G75*
G02X322961Y303346I1969*
G01*
X338709*
G75*
G02X340677Y301378J-1969*
G01*
G75*
G02X342646Y303346I1969*
G01*
X358394*
G75*
G02X360362Y301378J-1969*
G01*
G75*
G02X362331Y303346I1969*
G01*
X378079*
G75*
G02X380047Y301378J-1969*
G01*
G75*
G02X382016Y303346I1969*
G01*
X397764*
G75*
G02X399732Y301378J-1969*
G01*
G75*
G02X401701Y303346I1969*
G01*
X417449*
G75*
G02X419417Y301378J-1969*
G01*
G75*
G02X421386Y303346I1969*
G01*
X437134*
G75*
G02X439102Y301378J-1969*
G01*
G75*
G02X441071Y303346I1969*
G01*
X456819*
G75*
G02X458787Y301378J-1969*
G01*
G75*
G02X460756Y303346I1969*
G01*
X476504*
G75*
G02X478472Y301378J-1969*
G01*
G75*
G02X480441Y303346I1969*
G01*
X496189*
G75*
G02X498157Y301378J-1969*
G01*
Y293504*
G75*
G02X497370Y291929I-1969*
G01*
X500520*
Y301772*
G75*
G02X500913Y302953I1969*
G01*
Y303740*
X9969*
G37*
Y421654D02*
Y303543D01*
X53276*
G75*
G02X51307Y305512J1969*
G01*
Y321260*
G75*
G02X53276Y323228I1969*
G01*
G75*
G02X51307Y325197J1969*
G01*
Y340945*
G75*
G02X53276Y342913I1969*
G01*
G75*
G02X51307Y344882J1969*
G01*
Y360630*
G75*
G02X53276Y362598I1969*
G01*
G75*
G02X51307Y364567J1969*
G01*
Y380315*
G75*
G02X53276Y382283I1969*
G01*
G75*
G02X51307Y384252J1969*
G01*
Y400000*
G75*
G02X53276Y401969I1969*
G01*
G75*
G02X51307Y403937J1969*
G01*
Y419685*
G75*
G02X53276Y421654I1969*
G01*
X9969*
X15874Y374409D02*
X39496D01*
Y350787*
X15874*
Y374409*
X10165Y362598D02*
G36*
Y303740D01*
X52418*
G75*
G02X51307Y305512I858J1772*
G01*
Y321260*
G75*
G02X53079Y323219I1969*
G01*
Y323238*
G75*
G02X51307Y325197I197J1959*
G01*
Y340945*
G75*
G02X53079Y342904I1969*
G01*
Y342923*
G75*
G02X51307Y344882I197J1959*
G01*
Y360630*
G75*
G02X53079Y362589I1969*
G01*
Y362598*
X39496*
Y350787*
X15874*
Y362598*
X10165*
G37*
Y421457D02*
G36*
Y362598D01*
X15874*
Y374409*
X39496*
Y362598*
X53079*
Y362608*
G75*
G02X51307Y364567I197J1959*
G01*
Y380315*
G75*
G02X53079Y382274I1969*
G01*
Y382293*
G75*
G02X51307Y384252I197J1959*
G01*
Y400000*
G75*
G02X53079Y401959I1969*
G01*
Y401978*
G75*
G02X51307Y403937I197J1959*
G01*
Y419685*
G75*
G02X52418Y421457I1969*
G01*
X10165*
G37*
X9969Y433661D02*
Y421850D01*
X12331*
G75*
G02X10362Y423819J1969*
G01*
Y431693*
G75*
G02X12331Y433661I1969*
G01*
X9969*
G36*
Y421850*
X12331*
G75*
G02X10362Y423819J1969*
G01*
Y431693*
G75*
G02X12331Y433661I1969*
G01*
X9969*
G37*
Y551772D02*
Y433661D01*
X55244*
G75*
G02X53276Y435630J1969*
G01*
Y451378*
G75*
G02X55244Y453346I1969*
G01*
G75*
G02X53276Y455315J1969*
G01*
Y471063*
G75*
G02X55244Y473031I1969*
G01*
G75*
G02X53276Y475000J1969*
G01*
Y490748*
G75*
G02X55244Y492717I1969*
G01*
G75*
G02X53276Y494685J1969*
G01*
Y510433*
G75*
G02X55244Y512402I1969*
G01*
G75*
G02X53276Y514370J1969*
G01*
Y530118*
G75*
G02X55244Y532087I1969*
G01*
G75*
G02X53276Y534055J1969*
G01*
Y549803*
G75*
G02X55244Y551772I1969*
G01*
X9969*
X17843Y504528D02*
X41465D01*
Y480906*
X17843*
Y504528*
X10165Y492717D02*
G36*
Y433858D01*
X54386*
G75*
G02X53276Y435630I858J1772*
G01*
Y451378*
G75*
G02X55047Y453337I1969*
G01*
Y453356*
G75*
G02X53276Y455315I197J1959*
G01*
Y471063*
G75*
G02X55047Y473022I1969*
G01*
Y473041*
G75*
G02X53276Y475000I197J1959*
G01*
Y490748*
G75*
G02X55047Y492707I1969*
G01*
Y492717*
X41465*
Y480906*
X17843*
Y492717*
X10165*
G37*
Y551575D02*
G36*
Y492717D01*
X17843*
Y504528*
X41465*
Y492717*
X55047*
Y492726*
G75*
G02X53276Y494685I197J1959*
G01*
Y510433*
G75*
G02X55047Y512392I1969*
G01*
Y512411*
G75*
G02X53276Y514370I197J1959*
G01*
Y530118*
G75*
G02X55047Y532077I1969*
G01*
Y532096*
G75*
G02X53276Y534055I197J1959*
G01*
Y549803*
G75*
G02X54386Y551575I1969*
G01*
X10165*
G37*
X25717Y423819D02*
G75*
G02X23748Y421850I-1969D01*
G01*
X27882*
G75*
G02X25913Y423819J1969*
G01*
Y431693*
G75*
G02X27882Y433661I1969*
G01*
X23748*
G75*
G02X25717Y431693J-1969*
G01*
Y423819*
G36*
G75*
G02X23748Y421850I-1969*
G01*
X27882*
G75*
G02X25913Y423819J1969*
G01*
Y431693*
G75*
G02X27882Y433661I1969*
G01*
X23748*
G75*
G02X25717Y431693J-1969*
G01*
Y423819*
G37*
X45598Y431693D02*
Y431496D01*
G75*
G02X47567Y433465I1969*
G01*
X63315*
G75*
G02X65153Y432200J-1969*
G01*
G75*
G02X67055Y433661I1902J-507*
G01*
X43630*
G75*
G02X45598Y431693J-1969*
G01*
G36*
Y431496*
G75*
G02X47567Y433465I1969*
G01*
X63315*
G75*
G02X65153Y432200J-1969*
G01*
G75*
G02X67055Y433661I1902J-507*
G01*
X43630*
G75*
G02X45598Y431693J-1969*
G01*
G37*
X61150Y323228D02*
G75*
G02X63118Y321260J-1969D01*
G01*
Y325197*
G75*
G02X61150Y323228I-1969*
G01*
G36*
G75*
G02X63118Y321260J-1969*
G01*
Y325197*
G75*
G02X61150Y323228I-1969*
G01*
G37*
Y342913D02*
G75*
G02X63118Y340945J-1969D01*
G01*
Y344882*
G75*
G02X61150Y342913I-1969*
G01*
G36*
G75*
G02X63118Y340945J-1969*
G01*
Y344882*
G75*
G02X61150Y342913I-1969*
G01*
G37*
Y362598D02*
G75*
G02X63118Y360630J-1969D01*
G01*
Y364567*
G75*
G02X61150Y362598I-1969*
G01*
G36*
G75*
G02X63118Y360630J-1969*
G01*
Y364567*
G75*
G02X61150Y362598I-1969*
G01*
G37*
Y382283D02*
G75*
G02X63118Y380315J-1969D01*
G01*
Y384252*
G75*
G02X61150Y382283I-1969*
G01*
G36*
G75*
G02X63118Y380315J-1969*
G01*
Y384252*
G75*
G02X61150Y382283I-1969*
G01*
G37*
Y401969D02*
G75*
G02X63118Y400000J-1969D01*
G01*
Y403937*
G75*
G02X61150Y401969I-1969*
G01*
G36*
G75*
G02X63118Y400000J-1969*
G01*
Y403937*
G75*
G02X61150Y401969I-1969*
G01*
G37*
X63118Y421654D02*
Y303543D01*
X109181*
Y355512*
X98551*
Y350787*
X74929*
Y374409*
X98551*
Y369291*
X109181*
Y421654*
X63118*
G36*
Y303543*
X109181*
Y355512*
X98551*
Y350787*
X74929*
Y374409*
X98551*
Y369291*
X109181*
Y421654*
X63118*
G37*
Y453346D02*
G75*
G02X65087Y451378J-1969D01*
G01*
Y455315*
G75*
G02X63118Y453346I-1969*
G01*
G36*
G75*
G02X65087Y451378J-1969*
G01*
Y455315*
G75*
G02X63118Y453346I-1969*
G01*
G37*
Y473031D02*
G75*
G02X65087Y471063J-1969D01*
G01*
Y475000*
G75*
G02X63118Y473031I-1969*
G01*
G36*
G75*
G02X65087Y471063J-1969*
G01*
Y475000*
G75*
G02X63118Y473031I-1969*
G01*
G37*
Y492717D02*
G75*
G02X65087Y490748J-1969D01*
G01*
Y494685*
G75*
G02X63118Y492717I-1969*
G01*
G36*
G75*
G02X65087Y490748J-1969*
G01*
Y494685*
G75*
G02X63118Y492717I-1969*
G01*
G37*
Y512402D02*
G75*
G02X65087Y510433J-1969D01*
G01*
Y514370*
G75*
G02X63118Y512402I-1969*
G01*
G36*
G75*
G02X65087Y510433J-1969*
G01*
Y514370*
G75*
G02X63118Y512402I-1969*
G01*
G37*
Y532087D02*
G75*
G02X65087Y530118J-1969D01*
G01*
Y534055*
G75*
G02X63118Y532087I-1969*
G01*
G36*
G75*
G02X65087Y530118J-1969*
G01*
Y534055*
G75*
G02X63118Y532087I-1969*
G01*
G37*
X65087Y551772D02*
Y433661D01*
X112331*
Y465157*
X153669*
Y485630*
X100520*
Y480906*
X76898*
Y504528*
X100520*
Y499803*
X153669*
Y520276*
X112331*
Y551772*
X65087*
G36*
Y433661*
X112331*
Y465157*
X153669*
Y485630*
X100520*
Y480906*
X76898*
Y504528*
X100520*
Y499803*
X153669*
Y520276*
X112331*
Y551772*
X65087*
G37*
X84772Y423819D02*
G75*
G02X82803Y421850I-1969D01*
G01*
X86937*
G75*
G02X84969Y423819J1969*
G01*
Y431693*
G75*
G02X86937Y433661I1969*
G01*
X82803*
G75*
G02X84772Y431693J-1969*
G01*
Y423819*
G36*
G75*
G02X82803Y421850I-1969*
G01*
X86937*
G75*
G02X84969Y423819J1969*
G01*
Y431693*
G75*
G02X86937Y433661I1969*
G01*
X82803*
G75*
G02X84772Y431693J-1969*
G01*
Y423819*
G37*
X97370Y214961D02*
Y210394D01*
X101228*
X102409Y211181*
X105638*
Y213937*
X102094*
X101071Y214961*
X97370*
G36*
Y210394*
X101228*
X102409Y211181*
X105638*
Y213937*
X102094*
X101071Y214961*
X97370*
G37*
X108315Y226929D02*
X111071D01*
Y219055*
X108315*
Y226929*
G36*
X111071*
Y219055*
X108315*
Y226929*
G37*
X109181Y355512D02*
Y335039D01*
X151701*
Y303543*
X198945*
Y421654*
X151701*
Y390157*
X109181*
Y383465*
X122961*
Y378740*
X131622*
Y383465*
X145008*
Y375591*
X139496*
Y366929*
X143039*
Y372047*
X149339*
X149732Y372441*
X156031*
X159181Y369291*
X163512*
Y374409*
X187134*
Y350787*
X163512*
Y355512*
X133591*
X131622Y357480*
Y362205*
X130441Y363386*
X124929*
X123748Y362205*
Y357480*
X121780Y355512*
X109181*
G36*
Y335039*
X151701*
Y303543*
X198945*
Y421654*
X151701*
Y390157*
X109181*
Y383465*
X122961*
Y378740*
X131622*
Y383465*
X145008*
Y375591*
X139496*
Y366929*
X143039*
Y372047*
X149339*
X149732Y372441*
X156031*
X159181Y369291*
X163512*
Y374409*
X187134*
Y350787*
X163512*
Y355512*
X133591*
X131622Y357480*
Y362205*
X130441Y363386*
X124929*
X123748Y362205*
Y357480*
X121780Y355512*
X109181*
G37*
X122173Y433661D02*
G75*
G02X124142Y431693J-1969D01*
G01*
G75*
G02X126110Y433661I1969*
G01*
X122173*
G36*
G75*
G02X124142Y431693J-1969*
G01*
G75*
G02X126110Y433661I1969*
G01*
X122173*
G37*
X124142Y423819D02*
G75*
G02X122173Y421850I-1969D01*
G01*
X126110*
G75*
G02X124142Y423819J1969*
G01*
G36*
G75*
G02X122173Y421850I-1969*
G01*
X126110*
G75*
G02X124142Y423819J1969*
G01*
G37*
X141858Y433661D02*
G75*
G02X143827Y431693J-1969D01*
G01*
G75*
G02X145795Y433661I1969*
G01*
X141858*
G36*
G75*
G02X143827Y431693J-1969*
G01*
G75*
G02X145795Y433661I1969*
G01*
X141858*
G37*
X143827Y423819D02*
G75*
G02X141858Y421850I-1969D01*
G01*
X145795*
G75*
G02X143827Y423819J1969*
G01*
G36*
G75*
G02X141858Y421850I-1969*
G01*
X145795*
G75*
G02X143827Y423819J1969*
G01*
G37*
X153669Y485630D02*
Y433661D01*
X200913*
Y551772*
X153669*
Y499803*
X165480*
Y504528*
X189102*
Y480906*
X165480*
Y485630*
X153669*
G36*
Y433661*
X200913*
Y551772*
X153669*
Y499803*
X165480*
Y504528*
X189102*
Y480906*
X165480*
Y485630*
X153669*
G37*
X159935Y22810D02*
Y22269D01*
G75*
G02X160756Y20669I-1148J-1599*
G01*
Y2559*
X401819*
Y140354*
X159969*
Y139989*
G75*
G02X160559Y138583I-1378J-1406*
G01*
Y122835*
G75*
G02X159963Y121424I-1969*
G01*
X159963Y120309*
G75*
G02X160559Y118898I-1372J-1412*
G01*
Y103150*
G75*
G02X159957Y101733I-1969*
G01*
X159957Y100630*
G75*
G02X160559Y99213I-1367J-1417*
G01*
Y83465*
G75*
G02X159952Y82043I-1969*
G01*
X159952Y81115*
G75*
G02X160756Y79528I-1164J-1587*
G01*
Y63780*
G75*
G02X159946Y62188I-1969*
G01*
Y61434*
G75*
G02X160756Y59843I-1159J-1591*
G01*
Y44094*
G75*
G02X159941Y42499I-1969*
G01*
Y41753*
G75*
G02X160756Y40157I-1153J-1595*
G01*
Y24409*
G75*
G02X159935Y22810I-1969*
G01*
X363748Y82598D02*
X387449D01*
Y58386*
X363748*
Y63937*
X343591*
Y51339*
X334142*
Y63937*
X254220*
Y52913*
X251803*
Y51783*
X247425*
Y52913*
X244772*
Y63937*
X198433*
Y58386*
X174732*
Y82598*
X198433*
Y77717*
X291228*
Y89921*
X300677*
Y77717*
X363748*
Y82598*
X160132Y22972D02*
G36*
Y22107D01*
G75*
G02X160756Y20669I-1346J-1439*
G01*
Y2756*
X401622*
Y70630*
X387449*
Y58386*
X363748*
Y63937*
X343591*
Y51339*
X334142*
Y63937*
X254220*
Y52913*
X251803*
Y51783*
X247425*
Y52913*
X244772*
Y63937*
X198433*
Y58386*
X174732*
Y70630*
X160756*
Y63780*
G75*
G02X160132Y62342I-1969*
G01*
Y61280*
G75*
G02X160756Y59843I-1344J-1438*
G01*
Y44094*
G75*
G02X160132Y42657I-1970J0*
G01*
Y41596*
G75*
G02X160756Y40157I-1346J-1438*
G01*
Y24409*
G75*
G02X160132Y22972I-1969J0*
G01*
G37*
Y82240D02*
G36*
Y80965D01*
G75*
G02X160756Y79528I-1345J-1438*
G01*
Y70630*
X174732*
Y82598*
X198433*
Y77717*
X291228*
Y89921*
X300677*
Y77717*
X363748*
Y82598*
X387449*
Y70630*
X401622*
Y140157*
X160132*
Y139807*
G75*
G02X160559Y138583I-1540J-1224*
G01*
Y122835*
G75*
G02X160132Y121610I-1969*
G01*
Y120122*
G75*
G02X160559Y118898I-1540J-1224*
G01*
Y118898*
Y103150*
G75*
G02X160132Y101925I-1969*
G01*
Y100437*
G75*
G02X160559Y99213I-1541J-1224*
G01*
Y83465*
G75*
G02X160132Y82240I-1970J0*
G01*
G37*
X160835Y291378D02*
Y153583D01*
X401110*
Y291378*
X160835*
X276259Y223701D02*
X279063D01*
Y219488*
X272764*
X269969Y215433*
X269535*
Y198031*
X255756*
Y215433*
X198472*
Y209646*
X174220*
Y233858*
X198472*
Y229213*
X268709*
X274220Y223701*
X274678*
G75*
G02X276259I791J-1524*
G01*
X210165Y183110D02*
X353866D01*
Y163425*
X210165*
Y183110*
X286615Y279167D02*
X288193D01*
Y272093*
X287161*
Y269325*
X288193*
Y262250*
X280618*
Y269325*
X281650*
Y272093*
X280618*
Y272874*
X270362*
X256169Y258681*
G75*
G02X254218Y257874I-1949J1949*
G01*
X216074*
G75*
G02X214122Y258681I-3J2756*
G01*
X210264Y262539*
G75*
G02X209457Y264488I1949J1949*
G01*
Y273654*
X208425*
Y281228*
X216000*
Y273654*
X214969*
Y265630*
X217213Y263386*
X253079*
X257429Y267736*
X267272Y277579*
G75*
G02X269223Y278386I1949J-1949*
G01*
X280618*
Y279167*
X285819*
G75*
G02X286615I398J-1727*
G01*
X363512Y234213D02*
X387213D01*
Y210000*
X363512*
Y215650*
X312961*
X308492Y220118*
X288866*
X285520Y223465*
Y225472*
X283732*
G75*
G02X283213I-259J1693*
G01*
X280165*
Y229803*
X283236*
X287331Y233898*
X290053*
Y239980*
X290835*
Y241108*
X289736*
Y248183*
X290768*
Y251463*
X289776*
Y258537*
X290650*
Y262250*
X289618*
Y269325*
X297193*
Y262250*
X296161*
Y258537*
X297350*
Y251463*
X296280*
Y248183*
X297311*
Y241108*
X296346*
Y239980*
X297128*
Y233898*
X321917*
X326386Y229429*
X363512*
Y234213*
X280327Y248593D02*
X288720D01*
Y240699*
X280327*
Y248593*
X280366Y258947D02*
X288760D01*
Y251053*
X280366*
Y258947*
X228425Y281228D02*
X236000D01*
Y273654*
X228425*
Y281228*
X289209Y279577D02*
X297602D01*
Y271683*
X289209*
Y279577*
X161031Y173268D02*
G36*
Y153780D01*
X400913*
Y173268*
X353866*
Y163425*
X210165*
Y173268*
X161031*
G37*
Y215945D02*
G36*
Y173268D01*
X210165*
Y183110*
X353866*
Y173268*
X400913*
Y215945*
X387213*
Y210000*
X363512*
Y215650*
X312961*
X312665Y215945*
X270321*
X269969Y215433*
X269535*
Y198031*
X255756*
Y215433*
X198472*
Y209646*
X174220*
Y215945*
X161031*
G37*
Y244646D02*
G36*
Y215945D01*
X174220*
Y233858*
X198472*
Y229213*
X268709*
X274220Y223701*
X274678*
G75*
G02X276259I791J-1523*
G01*
X279063*
Y219488*
X272764*
X270321Y215945*
X312665*
X308492Y220118*
X288866*
X285520Y223465*
Y225472*
X283732*
G75*
G02X283213I-259J1700*
G01*
X280165*
Y229803*
X283236*
X287331Y233898*
X290053*
Y239980*
X290835*
Y241108*
X289736*
Y244646*
X288720*
Y240699*
X280327*
Y244646*
X161031*
G37*
X296346Y241108D02*
G36*
Y239980D01*
X297128*
Y233898*
X321917*
X326386Y229429*
X363512*
Y234213*
X387213*
Y215945*
X400913*
Y244646*
X297311*
Y241108*
X296346*
G37*
X161031Y255000D02*
G36*
Y244646D01*
X280327*
Y248593*
X288720*
Y244646*
X289736*
Y248183*
X290768*
Y251463*
X289776*
Y255000*
X288760*
Y251053*
X280366*
Y255000*
X161031*
G37*
X296280Y251463D02*
G36*
Y248183D01*
X297311*
Y244646*
X400913*
Y255000*
X297350*
Y251463*
X296280*
G37*
X161031Y269551D02*
G36*
Y255000D01*
X280366*
Y258947*
X288760*
Y255000*
X289776*
Y258537*
X290650*
Y262250*
X289618*
Y269325*
X297193*
Y262250*
X296161*
Y258537*
X297350*
Y255000*
X400913*
Y269551*
X287161*
Y269325*
X288193*
Y262250*
X280618*
Y269325*
X281650*
Y269551*
X267039*
X256169Y258681*
G75*
G02X254218Y257874I-1948J1947*
G01*
X216074*
G75*
G02X214122Y258681I-4J2754*
G01*
X210264Y262539*
G75*
G02X209457Y264488I1950J1949*
G01*
Y269551*
X161031*
G37*
X214969D02*
G36*
Y265630D01*
X217213Y263386*
X253079*
X257429Y267736*
X259244Y269551*
X214969*
G37*
X161031Y277441D02*
G36*
Y269551D01*
X209457*
Y273654*
X208425*
Y277441*
X161031*
G37*
X214969Y273654D02*
G36*
Y269551D01*
X259244*
X267134Y277441*
X236000*
Y273654*
X228425*
Y277441*
X216000*
Y273654*
X214969*
G37*
X270362Y272874D02*
G36*
X267039Y269551D01*
X281650*
Y272093*
X280618*
Y272874*
X270362*
G37*
X287161Y272093D02*
G36*
Y269551D01*
X400913*
Y277441*
X297602*
Y271683*
X289209*
Y277441*
X288193*
Y272093*
X287161*
G37*
X161031Y291181D02*
G36*
Y277441D01*
X208425*
Y281228*
X216000*
Y277441*
X228425*
Y281228*
X236000*
Y277441*
X267134*
X267272Y277579*
G75*
G02X269223Y278386I1948J-1947*
G01*
X280618*
Y279167*
X285819*
G75*
G02X286615I398J-1727*
G01*
X288193*
Y277441*
X289209*
Y279577*
X297602*
Y277441*
X400913*
Y291181*
X161031*
G37*
X163512Y423819D02*
G75*
G02X161543Y421850I-1969D01*
G01*
X165677*
G75*
G02X163709Y423819J1969*
G01*
Y431693*
G75*
G02X165677Y433661I1969*
G01*
X161543*
G75*
G02X163512Y431693J-1969*
G01*
Y423819*
G36*
G75*
G02X161543Y421850I-1969*
G01*
X165677*
G75*
G02X163709Y423819J1969*
G01*
Y431693*
G75*
G02X165677Y433661I1969*
G01*
X161543*
G75*
G02X163512Y431693J-1969*
G01*
Y423819*
G37*
X181425Y433661D02*
G75*
G02X183394Y431693J-1969D01*
G01*
G75*
G02X185362Y433661I1969*
G01*
X181425*
G36*
G75*
G02X183394Y431693J-1969*
G01*
G75*
G02X185362Y433661I1969*
G01*
X181425*
G37*
X183394Y423819D02*
G75*
G02X181425Y421850I-1969D01*
G01*
X185362*
G75*
G02X183394Y423819J1969*
G01*
G36*
G75*
G02X181425Y421850I-1969*
G01*
X185362*
G75*
G02X183394Y423819J1969*
G01*
G37*
X198945Y325197D02*
Y321260D01*
G75*
G02X200913Y323228I1969*
G01*
G75*
G02X198945Y325197J1969*
G01*
G36*
Y321260*
G75*
G02X200913Y323228I1969*
G01*
G75*
G02X198945Y325197J1969*
G01*
G37*
Y344882D02*
Y340945D01*
G75*
G02X200913Y342913I1969*
G01*
G75*
G02X198945Y344882J1969*
G01*
G36*
Y340945*
G75*
G02X200913Y342913I1969*
G01*
G75*
G02X198945Y344882J1969*
G01*
G37*
Y364567D02*
Y360630D01*
G75*
G02X200913Y362598I1969*
G01*
G75*
G02X198945Y364567J1969*
G01*
G36*
Y360630*
G75*
G02X200913Y362598I1969*
G01*
G75*
G02X198945Y364567J1969*
G01*
G37*
Y384252D02*
Y380315D01*
G75*
G02X200913Y382283I1969*
G01*
G75*
G02X198945Y384252J1969*
G01*
G36*
Y380315*
G75*
G02X200913Y382283I1969*
G01*
G75*
G02X198945Y384252J1969*
G01*
G37*
Y403937D02*
Y400000D01*
G75*
G02X200913Y401969I1969*
G01*
G75*
G02X198945Y403937J1969*
G01*
G36*
Y400000*
G75*
G02X200913Y401969I1969*
G01*
G75*
G02X198945Y403937J1969*
G01*
G37*
X200913Y455315D02*
Y451378D01*
G75*
G02X202882Y453346I1969*
G01*
G75*
G02X200913Y455315J1969*
G01*
G36*
Y451378*
G75*
G02X202882Y453346I1969*
G01*
G75*
G02X200913Y455315J1969*
G01*
G37*
Y475000D02*
Y471063D01*
G75*
G02X202882Y473031I1969*
G01*
G75*
G02X200913Y475000J1969*
G01*
G36*
Y471063*
G75*
G02X202882Y473031I1969*
G01*
G75*
G02X200913Y475000J1969*
G01*
G37*
Y494685D02*
Y490748D01*
G75*
G02X202882Y492717I1969*
G01*
G75*
G02X200913Y494685J1969*
G01*
G36*
Y490748*
G75*
G02X202882Y492717I1969*
G01*
G75*
G02X200913Y494685J1969*
G01*
G37*
Y514370D02*
Y510433D01*
G75*
G02X202882Y512402I1969*
G01*
G75*
G02X200913Y514370J1969*
G01*
G36*
Y510433*
G75*
G02X202882Y512402I1969*
G01*
G75*
G02X200913Y514370J1969*
G01*
G37*
Y534055D02*
Y530118D01*
G75*
G02X202882Y532087I1969*
G01*
G75*
G02X200913Y534055J1969*
G01*
G36*
Y530118*
G75*
G02X202882Y532087I1969*
G01*
G75*
G02X200913Y534055J1969*
G01*
G37*
X210756Y305512D02*
G75*
G02X208787Y303543I-1969D01*
G01*
X254063*
Y421654*
X208787*
G75*
G02X210756Y419685J-1969*
G01*
Y403937*
G75*
G02X208787Y401969I-1969*
G01*
G75*
G02X210756Y400000J-1969*
G01*
Y384252*
G75*
G02X208787Y382283I-1969*
G01*
G75*
G02X210756Y380315J-1969*
G01*
Y364567*
G75*
G02X208787Y362598I-1969*
G01*
G75*
G02X210756Y360630J-1969*
G01*
Y344882*
G75*
G02X208787Y342913I-1969*
G01*
G75*
G02X210756Y340945J-1969*
G01*
Y325197*
G75*
G02X208787Y323228I-1969*
G01*
G75*
G02X210756Y321260J-1969*
G01*
Y305512*
X222567Y374409D02*
X246189D01*
Y350787*
X222567*
Y374409*
X208984Y323238D02*
G36*
Y323219D01*
G75*
G02X210756Y321260I-197J-1959*
G01*
Y305512*
G75*
G02X209645Y303740I-1969*
G01*
X253866*
Y362598*
X246189*
Y350787*
X222567*
Y362598*
X208984*
Y362589*
G75*
G02X210756Y360630I-197J-1959*
G01*
Y344882*
G75*
G02X208984Y342923I-1969*
G01*
Y342904*
G75*
G02X210756Y340945I-197J-1959*
G01*
Y325197*
G75*
G02X208984Y323238I-1969*
G01*
G37*
Y362608D02*
G36*
Y362598D01*
X222567*
Y374409*
X246189*
Y362598*
X253866*
Y421457*
X209645*
G75*
G02X210756Y419685I-858J-1772*
G01*
Y403937*
G75*
G02X208984Y401978I-1969*
G01*
Y401959*
G75*
G02X210756Y400000I-197J-1959*
G01*
Y384252*
G75*
G02X208984Y382293I-1969*
G01*
Y382274*
G75*
G02X210756Y380315I-197J-1959*
G01*
Y364567*
G75*
G02X208984Y362608I-1969*
G01*
G37*
X212724Y435630D02*
G75*
G02X210756Y433661I-1969D01*
G01*
X265874*
Y438906*
G75*
G02X264102Y437795I-1772J858*
G01*
X256228*
G75*
G02X254260Y439764J1969*
G01*
Y455512*
G75*
G02X255524Y457350I1969*
G01*
G75*
G02X254063Y459252I507J1902*
G01*
Y475000*
G75*
G02X256031Y476969I1969*
G01*
X263906*
G75*
G02X265874Y475000J-1969*
G01*
Y478276*
G75*
G02X264102Y477165I-1772J858*
G01*
X256228*
G75*
G02X254260Y479134J1969*
G01*
Y494882*
G75*
G02X256228Y496850I1969*
G01*
G75*
G02X254260Y498819J1969*
G01*
Y514567*
G75*
G02X256228Y516535I1969*
G01*
X264102*
G75*
G02X265874Y515425J-1969*
G01*
Y517843*
G75*
G02X264102Y516732I-1772J858*
G01*
X256228*
G75*
G02X254260Y518701J1969*
G01*
Y534449*
G75*
G02X255279Y536173I1969*
G01*
G75*
G02X254063Y537992I753J1819*
G01*
Y551772*
X210756*
G75*
G02X212724Y549803J-1969*
G01*
Y534055*
G75*
G02X210756Y532087I-1969*
G01*
G75*
G02X212724Y530118J-1969*
G01*
Y514370*
G75*
G02X210756Y512402I-1969*
G01*
G75*
G02X212724Y510433J-1969*
G01*
Y494685*
G75*
G02X210756Y492717I-1969*
G01*
G75*
G02X212724Y490748J-1969*
G01*
Y475000*
G75*
G02X210756Y473031I-1969*
G01*
G75*
G02X212724Y471063J-1969*
G01*
Y455315*
G75*
G02X210756Y453346I-1969*
G01*
G75*
G02X212724Y451378J-1969*
G01*
Y435630*
X224535Y504528D02*
X248157D01*
Y480906*
X224535*
Y504528*
X210953Y453356D02*
G36*
Y453337D01*
G75*
G02X212724Y451378I-197J-1959*
G01*
Y435630*
G75*
G02X211614Y433858I-1969*
G01*
X265677*
Y438583*
G75*
G02X264102Y437795I-1575J1181*
G01*
X256228*
G75*
G02X254260Y439764J1969*
G01*
Y455512*
G75*
G02X255524Y457350I1969*
G01*
G75*
G02X254063Y459252I507J1902*
G01*
Y475000*
G75*
G02X256031Y476969I1969*
G01*
X263906*
G75*
G02X265677Y475858J-1969*
G01*
Y477953*
G75*
G02X264102Y477165I-1575J1181*
G01*
X256228*
G75*
G02X254260Y479134J1969*
G01*
Y492717*
X248157*
Y480906*
X224535*
Y492717*
X210953*
Y492707*
G75*
G02X212724Y490748I-197J-1959*
G01*
Y475000*
G75*
G02X210953Y473041I-1969*
G01*
Y473022*
G75*
G02X212724Y471063I-197J-1959*
G01*
Y455315*
G75*
G02X210953Y453356I-1969*
G01*
G37*
Y492726D02*
G36*
Y492717D01*
X224535*
Y504528*
X248157*
Y492717*
X254260*
Y494882*
G75*
G02X256228Y496850I1969*
G01*
G75*
G02X254260Y498819J1969*
G01*
Y514567*
G75*
G02X256228Y516535I1969*
G01*
X264102*
G75*
G02X265677Y515748I-1J-1970*
G01*
Y517520*
G75*
G02X264102Y516732I-1575J1181*
G01*
X256228*
G75*
G02X254260Y518701J1969*
G01*
Y534449*
G75*
G02Y534450I2506J0*
G01*
G75*
G02X255279Y536173I1967*
G01*
G75*
G02X254063Y537992I752J1819*
G01*
Y537992*
Y551575*
X211614*
G75*
G02X212724Y549803I-858J-1772*
G01*
Y534055*
G75*
G02X210953Y532096I-1969*
G01*
Y532077*
G75*
G02X212724Y530118I-197J-1959*
G01*
Y514370*
G75*
G02X210953Y512411I-1969*
G01*
Y512392*
G75*
G02X212724Y510433I-197J-1959*
G01*
Y494685*
G75*
G02X210953Y492726I-1969*
G01*
G37*
X220598Y433661D02*
G75*
G02X222567Y431693J-1969D01*
G01*
G75*
G02X224535Y433661I1969*
G01*
X220598*
G36*
G75*
G02X222567Y431693J-1969*
G01*
G75*
G02X224535Y433661I1969*
G01*
X220598*
G37*
X222567Y423819D02*
G75*
G02X220598Y421850I-1969D01*
G01*
X224535*
G75*
G02X222567Y423819J1969*
G01*
G36*
G75*
G02X220598Y421850I-1969*
G01*
X224535*
G75*
G02X222567Y423819J1969*
G01*
G37*
X240283Y433661D02*
G75*
G02X242252Y431693J-1969D01*
G01*
G75*
G02X244220Y433661I1969*
G01*
X240283*
G36*
G75*
G02X242252Y431693J-1969*
G01*
G75*
G02X244220Y433661I1969*
G01*
X240283*
G37*
X242252Y423819D02*
G75*
G02X240283Y421850I-1969D01*
G01*
X244220*
G75*
G02X242252Y423819J1969*
G01*
G36*
G75*
G02X240283Y421850I-1969*
G01*
X244220*
G75*
G02X242252Y423819J1969*
G01*
G37*
X254063Y421654D02*
Y303543D01*
X311346*
G75*
G02X309378Y305512J1969*
G01*
Y321260*
G75*
G02X311346Y323228I1969*
G01*
G75*
G02X309378Y325197J1969*
G01*
Y340945*
G75*
G02X311346Y342913I1969*
G01*
G75*
G02X309378Y344882J1969*
G01*
Y360630*
G75*
G02X311346Y362598I1969*
G01*
G75*
G02X309378Y364567J1969*
G01*
Y380315*
G75*
G02X311346Y382283I1969*
G01*
G75*
G02X309378Y384252J1969*
G01*
Y400000*
G75*
G02X311346Y401969I1969*
G01*
G75*
G02X309378Y403937J1969*
G01*
Y419685*
G75*
G02X311346Y421654I1969*
G01*
X265283*
G75*
G02X266071Y420079I-1181J-1575*
G01*
Y404331*
G75*
G02X264717Y402461I-1969*
G01*
G75*
G02X266071Y400591I-615J-1870*
G01*
Y384843*
G75*
G02X264102Y382874I-1969*
G01*
G75*
G02X266071Y380906J-1969*
G01*
Y365157*
G75*
G02X264102Y363189I-1969*
G01*
X256228*
G75*
G02X254260Y365157J1969*
G01*
Y380906*
G75*
G02X256228Y382874I1969*
G01*
G75*
G02X254260Y384843J1969*
G01*
Y400591*
G75*
G02X255614Y402461I1969*
G01*
G75*
G02X254260Y404331I615J1870*
G01*
Y420079*
G75*
G02X255047Y421654I1969*
G01*
X254063*
X273945Y374409D02*
X297567D01*
Y350787*
X273945*
Y374409*
X264102Y323425D02*
G75*
G02X266071Y321457J-1969D01*
G01*
Y307087*
G75*
G02X264102Y305118I-1969*
G01*
X256228*
G75*
G02X254260Y307087J1969*
G01*
Y321457*
G75*
G02X256228Y323425I1969*
G01*
X264102*
Y362992D02*
G75*
G02X266071Y361024J-1969D01*
G01*
Y345276*
G75*
G02X264102Y343307I-1969*
G01*
G75*
G02X266071Y341339J-1969*
G01*
Y325591*
G75*
G02X264102Y323622I-1969*
G01*
X256228*
G75*
G02X254260Y325591J1969*
G01*
Y341339*
G75*
G02X256228Y343307I1969*
G01*
G75*
G02X254260Y345276J1969*
G01*
Y361024*
G75*
G02X256228Y362992I1969*
G01*
X264102*
X254260Y307087D02*
G36*
Y303740D01*
X310489*
G75*
G02X309378Y305512I858J1772*
G01*
Y314272*
X266071*
Y307087*
G75*
G02X264102Y305118I-1969*
G01*
X256228*
G75*
G02X254260Y307087J1969*
G01*
G37*
Y325591D02*
G36*
Y321457D01*
G75*
G02X256228Y323425I1969*
G01*
X264102*
G75*
G02X266071Y321457J-1969*
G01*
Y314272*
X309378*
Y321260*
G75*
G02X311150Y323219I1969*
G01*
Y323238*
G75*
G02X309378Y325197I197J1959*
G01*
Y340945*
G75*
G02X311150Y342904I1969*
G01*
Y342923*
G75*
G02X309378Y344882I197J1959*
G01*
Y360630*
G75*
G02X311150Y362589I1969*
G01*
Y362598*
X297567*
Y350787*
X273945*
Y362598*
X265283*
G75*
G02X266071Y361024I-1181J-1575*
G01*
Y345276*
G75*
G02X264102Y343307I-1969*
G01*
G75*
G02X266071Y341339J-1969*
G01*
Y325591*
G75*
G02X264102Y323622I-1969*
G01*
X256228*
G75*
G02X254260Y325591J1969*
G01*
G37*
Y345276D02*
G36*
Y341339D01*
G75*
G02X256228Y343307I1969*
G01*
G75*
G02X254260Y345276J1969*
G01*
G37*
Y362598D02*
G36*
Y361024D01*
G75*
G02X255047Y362598I1969*
G01*
X254260*
G37*
Y365157D02*
G36*
Y362598D01*
X255047*
G75*
G02X256228Y362992I1181J-1575*
G01*
X264102*
G75*
G02X265283Y362598J-1969*
G01*
X273945*
Y374409*
X297567*
Y362598*
X311150*
Y362608*
G75*
G02X309378Y364567I197J1959*
G01*
Y380315*
G75*
G02X311150Y382274I1969*
G01*
Y382293*
G75*
G02X309378Y384252I197J1959*
G01*
Y400000*
G75*
G02X311150Y401959I1969*
G01*
Y401978*
G75*
G02X309378Y403937I197J1959*
G01*
Y419685*
G75*
G02X310489Y421457I1969*
G01*
X265508*
G75*
G02X266071Y420079I-1406J-1378*
G01*
Y404331*
G75*
G02X264717Y402461I-1969*
G01*
G75*
G02X266071Y400591I-615J-1870*
G01*
Y384843*
G75*
G02X264102Y382874I-1969*
G01*
G75*
G02X266071Y380906J-1969*
G01*
Y365157*
G75*
G02X264102Y363189I-1969*
G01*
X256228*
G75*
G02X254260Y365157J1969*
G01*
G37*
Y384843D02*
G36*
Y380906D01*
G75*
G02X256228Y382874I1969*
G01*
G75*
G02X254260Y384843J1969*
G01*
G37*
Y404331D02*
G36*
Y400591D01*
G75*
G02X255614Y402461I1969*
G01*
G75*
G02X254260Y404331I615J1870*
G01*
G37*
Y421457D02*
G36*
Y420079D01*
G75*
G02X254822Y421457I1969*
G01*
X254260*
G37*
X261937Y423819D02*
G75*
G02X259969Y421850I-1969D01*
G01*
X264102*
G75*
G02X262134Y423819J1969*
G01*
Y431693*
G75*
G02X264102Y433661I1969*
G01*
X259969*
G75*
G02X261937Y431693J-1969*
G01*
Y423819*
G36*
G75*
G02X259969Y421850I-1969*
G01*
X264102*
G75*
G02X262134Y423819J1969*
G01*
Y431693*
G75*
G02X264102Y433661I1969*
G01*
X259969*
G75*
G02X261937Y431693J-1969*
G01*
Y423819*
G37*
X266071Y551772D02*
Y433661D01*
X311346*
G75*
G02X309378Y435630J1969*
G01*
Y451378*
G75*
G02X311346Y453346I1969*
G01*
G75*
G02X309378Y455315J1969*
G01*
Y471063*
G75*
G02X311346Y473031I1969*
G01*
G75*
G02X309378Y475000J1969*
G01*
Y490748*
G75*
G02X311346Y492717I1969*
G01*
G75*
G02X309378Y494685J1969*
G01*
Y510433*
G75*
G02X311346Y512402I1969*
G01*
G75*
G02X309378Y514370J1969*
G01*
Y530118*
G75*
G02X311346Y532087I1969*
G01*
G75*
G02X309378Y534055J1969*
G01*
Y549803*
G75*
G02X311346Y551772I1969*
G01*
X266071*
X273945Y504528D02*
X297567D01*
Y480906*
X273945*
Y504528*
X266268Y492717D02*
G36*
Y433858D01*
X310489*
G75*
G02X309378Y435630I858J1772*
G01*
Y451378*
G75*
G02X311150Y453337I1969*
G01*
Y453356*
G75*
G02X309378Y455315I197J1959*
G01*
Y471063*
G75*
G02X311150Y473022I1969*
G01*
Y473041*
G75*
G02X309378Y475000I197J1959*
G01*
Y490748*
G75*
G02X311150Y492707I1969*
G01*
Y492717*
X297567*
Y480906*
X273945*
Y492717*
X266268*
G37*
Y551575D02*
G36*
Y492717D01*
X273945*
Y504528*
X297567*
Y492717*
X311150*
Y492726*
G75*
G02X309378Y494685I197J1959*
G01*
Y510433*
G75*
G02X311150Y512392I1969*
G01*
Y512411*
G75*
G02X309378Y514370I197J1959*
G01*
Y530118*
G75*
G02X311150Y532077I1969*
G01*
Y532096*
G75*
G02X309378Y534055I197J1959*
G01*
Y549803*
G75*
G02X310489Y551575I1969*
G01*
X266268*
G37*
X301307Y423819D02*
G75*
G02X299339Y421850I-1969D01*
G01*
X303472*
G75*
G02X301504Y423819J1969*
G01*
Y431693*
G75*
G02X303472Y433661I1969*
G01*
X299339*
G75*
G02X301307Y431693J-1969*
G01*
Y423819*
G36*
G75*
G02X299339Y421850I-1969*
G01*
X303472*
G75*
G02X301504Y423819J1969*
G01*
Y431693*
G75*
G02X303472Y433661I1969*
G01*
X299339*
G75*
G02X301307Y431693J-1969*
G01*
Y423819*
G37*
X319220Y323228D02*
G75*
G02X321189Y321260J-1969D01*
G01*
Y325197*
G75*
G02X319220Y323228I-1969*
G01*
G36*
G75*
G02X321189Y321260J-1969*
G01*
Y325197*
G75*
G02X319220Y323228I-1969*
G01*
G37*
Y342913D02*
G75*
G02X321189Y340945J-1969D01*
G01*
Y344882*
G75*
G02X319220Y342913I-1969*
G01*
G36*
G75*
G02X321189Y340945J-1969*
G01*
Y344882*
G75*
G02X319220Y342913I-1969*
G01*
G37*
Y362598D02*
G75*
G02X321189Y360630J-1969D01*
G01*
Y364567*
G75*
G02X319220Y362598I-1969*
G01*
G36*
G75*
G02X321189Y360630J-1969*
G01*
Y364567*
G75*
G02X319220Y362598I-1969*
G01*
G37*
Y382283D02*
G75*
G02X321189Y380315J-1969D01*
G01*
Y384252*
G75*
G02X319220Y382283I-1969*
G01*
G36*
G75*
G02X321189Y380315J-1969*
G01*
Y384252*
G75*
G02X319220Y382283I-1969*
G01*
G37*
Y401969D02*
G75*
G02X321189Y400000J-1969D01*
G01*
Y403937*
G75*
G02X319220Y401969I-1969*
G01*
G36*
G75*
G02X321189Y400000J-1969*
G01*
Y403937*
G75*
G02X319220Y401969I-1969*
G01*
G37*
Y453346D02*
G75*
G02X321189Y451378J-1969D01*
G01*
Y455315*
G75*
G02X319220Y453346I-1969*
G01*
G36*
G75*
G02X321189Y451378J-1969*
G01*
Y455315*
G75*
G02X319220Y453346I-1969*
G01*
G37*
Y473031D02*
G75*
G02X321189Y471063J-1969D01*
G01*
Y475000*
G75*
G02X319220Y473031I-1969*
G01*
G36*
G75*
G02X321189Y471063J-1969*
G01*
Y475000*
G75*
G02X319220Y473031I-1969*
G01*
G37*
Y492717D02*
G75*
G02X321189Y490748J-1969D01*
G01*
Y494685*
G75*
G02X319220Y492717I-1969*
G01*
G36*
G75*
G02X321189Y490748J-1969*
G01*
Y494685*
G75*
G02X319220Y492717I-1969*
G01*
G37*
Y512402D02*
G75*
G02X321189Y510433J-1969D01*
G01*
Y514370*
G75*
G02X319220Y512402I-1969*
G01*
G36*
G75*
G02X321189Y510433J-1969*
G01*
Y514370*
G75*
G02X319220Y512402I-1969*
G01*
G37*
Y532087D02*
G75*
G02X321189Y530118J-1969D01*
G01*
Y534055*
G75*
G02X319220Y532087I-1969*
G01*
G36*
G75*
G02X321189Y530118J-1969*
G01*
Y534055*
G75*
G02X319220Y532087I-1969*
G01*
G37*
X321189Y551772D02*
Y433661D01*
X368433*
Y465157*
X409772*
Y485630*
X356622*
Y480906*
X333000*
Y504528*
X356622*
Y499803*
X409772*
Y520276*
X368433*
Y551772*
X321189*
G36*
Y433661*
X368433*
Y465157*
X409772*
Y485630*
X356622*
Y480906*
X333000*
Y504528*
X356622*
Y499803*
X409772*
Y520276*
X368433*
Y551772*
X321189*
G37*
X338709Y433661D02*
G75*
G02X340677Y431693J-1969D01*
G01*
G75*
G02X342646Y433661I1969*
G01*
X338709*
G36*
G75*
G02X340677Y431693J-1969*
G01*
G75*
G02X342646Y433661I1969*
G01*
X338709*
G37*
X340677Y423819D02*
G75*
G02X338709Y421850I-1969D01*
G01*
X342646*
G75*
G02X340677Y423819J1969*
G01*
G36*
G75*
G02X338709Y421850I-1969*
G01*
X342646*
G75*
G02X340677Y423819J1969*
G01*
G37*
X358394Y433661D02*
G75*
G02X360362Y431693J-1969D01*
G01*
G75*
G02X362331Y433661I1969*
G01*
X358394*
G36*
G75*
G02X360362Y431693J-1969*
G01*
G75*
G02X362331Y433661I1969*
G01*
X358394*
G37*
X360362Y423819D02*
G75*
G02X358394Y421850I-1969D01*
G01*
X362331*
G75*
G02X360362Y423819J1969*
G01*
G36*
G75*
G02X358394Y421850I-1969*
G01*
X362331*
G75*
G02X360362Y423819J1969*
G01*
G37*
X399535D02*
G75*
G02X397567Y421850I-1969D01*
G01*
X401701*
G75*
G02X399732Y423819J1969*
G01*
Y431693*
G75*
G02X401701Y433661I1969*
G01*
X397567*
G75*
G02X399535Y431693J-1969*
G01*
Y423819*
G36*
G75*
G02X397567Y421850I-1969*
G01*
X401701*
G75*
G02X399732Y423819J1969*
G01*
Y431693*
G75*
G02X401701Y433661I1969*
G01*
X397567*
G75*
G02X399535Y431693J-1969*
G01*
Y423819*
G37*
X402094Y175000D02*
Y173228D01*
G75*
G02X403669Y174016I1575J-1181*
G01*
X411543*
G75*
G02X413512Y172047J-1969*
G01*
Y156299*
G75*
G02X411543Y154331I-1969*
G01*
G75*
G02X413512Y152362J-1969*
G01*
Y136614*
G75*
G02X411543Y134646I-1969*
G01*
G75*
G02X413512Y132677J-1969*
G01*
Y116929*
G75*
G02X411543Y114961I-1969*
G01*
G75*
G02X413512Y112992J-1969*
G01*
Y98228*
X413906*
G75*
G02X415480Y99016I1575J-1181*
G01*
X431228*
G75*
G02X432803Y98228J-1969*
G01*
X433591*
G75*
G02X435165Y99016I1575J-1181*
G01*
X450913*
G75*
G02X452488Y98228J-1969*
G01*
X453276*
G75*
G02X454850Y99016I1575J-1181*
G01*
X470598*
G75*
G02X472173Y98228J-1969*
G01*
X472961*
G75*
G02X474535Y99016I1575J-1181*
G01*
X490283*
G75*
G02X491858Y98228J-1969*
G01*
X492646*
G75*
G02X494220Y99016I1575J-1181*
G01*
X500520*
Y291929*
X497370*
G75*
G02X496189Y291535I-1181J1575*
G01*
X480441*
G75*
G02X479260Y291929J1969*
G01*
X477685*
G75*
G02X476504Y291535I-1181J1575*
G01*
X460756*
G75*
G02X459575Y291929J1969*
G01*
X458000*
G75*
G02X456819Y291535I-1181J1575*
G01*
X441071*
G75*
G02X439890Y291929J1969*
G01*
X438315*
G75*
G02X437134Y291535I-1181J1575*
G01*
X421386*
G75*
G02X420205Y291929J1969*
G01*
X418630*
G75*
G02X417449Y291535I-1181J1575*
G01*
X412752*
G75*
G02X413315Y290157I-1406J-1378*
G01*
Y274409*
G75*
G02X411346Y272441I-1969*
G01*
X411543*
G75*
G02X413512Y270472J-1969*
G01*
Y254724*
G75*
G02X411543Y252756I-1969*
G01*
G75*
G02X413512Y250787J-1969*
G01*
Y235039*
G75*
G02X411543Y233071I-1969*
G01*
G75*
G02X413512Y231102J-1969*
G01*
Y215354*
G75*
G02X411543Y213386I-1969*
G01*
G75*
G02X413512Y211417J-1969*
G01*
Y195669*
G75*
G02X412158Y193799I-1969*
G01*
G75*
G02X413512Y191929I-615J-1870*
G01*
Y176181*
G75*
G02X411543Y174213I-1969*
G01*
X403669*
G75*
G02X402094Y175000J1969*
G01*
X495126Y248327D02*
X496892D01*
Y240752*
X489817*
Y248327*
X491583*
Y248489*
G75*
G02X490894Y250197I1772J1707*
G01*
G75*
G02X495815I2461*
G01*
G75*
G02X495126Y248489I-2461*
G01*
Y248327*
X478425Y283799D02*
G75*
G02X486000I3787D01*
G01*
Y278799*
G75*
G02X485559Y277026I-3787*
G01*
Y272783*
G75*
G02X484752Y270835I-2756*
G01*
X482331Y268414*
Y268012*
X483112*
Y260437*
X476037*
Y268012*
X476819*
Y269555*
G75*
G02X477626Y271504I2756*
G01*
X480047Y273925*
Y275692*
G75*
G02X478425Y278799I2165J3107*
G01*
Y283799*
X466195Y259012D02*
X473270D01*
Y251437*
X470863*
G75*
G02X470953Y248276I-1840J-1634*
G01*
Y247835*
G75*
G02X470401Y246483I-1929*
G01*
X469333Y245393*
Y240752*
X462258*
Y248327*
X466805*
X466952Y248476*
G75*
G02X467184Y251437I2072J1327*
G01*
X466195*
Y259012*
X468425Y283799D02*
G75*
G02X476000I3787D01*
G01*
Y278799*
G75*
G02X475717Y277361I-3788*
G01*
Y271457*
G75*
G02X474909Y269508I-2756*
G01*
X473270Y267869*
Y260437*
X466195*
Y268012*
X466976*
Y268228*
G75*
G02X467783Y270177I2756*
G01*
X470205Y272598*
Y275588*
G75*
G02X468425Y278799I2008J3211*
G01*
Y283799*
X476037Y259012D02*
X483112D01*
Y251437*
X481415*
G75*
G02X481543Y248327I-1840J-1634*
G01*
X483112*
Y240752*
X476037*
Y248327*
X477606*
G75*
G02X477735Y251437I1969J1476*
G01*
X476037*
Y259012*
X448069Y248933D02*
X455963D01*
Y240539*
X448069*
Y248933*
X489817Y239327D02*
X496892D01*
Y231752*
X489817*
Y233768*
X483112*
Y231752*
X476037*
Y233768*
X469333*
Y231752*
X462258*
Y233768*
X455553*
Y231949*
X453787*
Y226206*
X456891Y223103*
G75*
G02X457319Y221291I-1252J-1253*
G01*
Y218602*
X464783*
Y219059*
G75*
G02X464299Y220276I1287J1217*
G01*
Y221260*
G75*
G02X464819Y222513I1772*
G01*
X469935Y227630*
G75*
G02X471189Y228150I1254J-1252*
G01*
X477946*
G75*
G02X482114Y226378I1707J-1772*
G01*
G75*
G02X477946Y224606I-2461*
G01*
X471923*
X467843Y220526*
Y220276*
G75*
G02X467358Y219059I-1771*
G01*
Y218602*
X469417*
Y214764*
X471534*
X471976Y215206*
Y219552*
G75*
G02X471287Y221260I1772J1707*
G01*
G75*
G02X476209I2461*
G01*
G75*
G02X475520Y219552I-2461*
G01*
Y215157*
G75*
G02X473798Y213387I-1772*
G01*
X473256Y212845*
Y212705*
X476468*
G75*
G02X477685Y213189I1217J-1287*
G01*
X489817*
Y214862*
X491583*
Y215025*
G75*
G02X490894Y216732I1772J1707*
G01*
G75*
G02X495815I2461*
G01*
G75*
G02X495126Y215025I-2461*
G01*
Y214862*
X496892*
Y207287*
X489817*
Y209646*
X477685*
G75*
G02X476468Y210130J1772*
G01*
X473256*
Y208768*
X481424*
G75*
G02X482335Y208391I1J-1287*
G01*
X486076Y204650*
G75*
G02X486453Y203740I-910J-910*
G01*
Y185335*
X489018*
Y177760*
X481943*
Y185335*
X483878*
Y203207*
X480892Y206193*
X478431*
X480170Y204454*
G75*
G02X480547Y203543I-910J-910*
G01*
Y191075*
G75*
G02X480170Y190165I-1287*
G01*
X473270Y183264*
Y177760*
X466195*
Y185335*
X471699*
X477972Y191608*
Y203010*
X476758Y204224*
X473256*
Y198228*
X469417*
Y194390*
X452882*
Y198228*
X449043*
Y202256*
X448887*
X447961Y201329*
Y199148*
G75*
G02X448650Y197441I-1772J-1707*
G01*
G75*
G02X444236Y195944I-2461*
G01*
Y189256*
X434756*
Y196177*
X444078*
G75*
G02X444417Y199148I2111J1264*
G01*
Y201378*
G75*
G02X446139Y203149I1772*
G01*
X446737Y203747*
G75*
G02X446583Y203740I-154J1767*
G01*
X443827*
Y201476*
X435165*
Y202362*
X434575*
Y185827*
X445402*
G75*
G02X446386Y184843J-984*
G01*
Y108071*
G75*
G02X446000Y107289I-984*
G01*
Y105571*
G75*
G02X438425I-3787*
G01*
Y110571*
G75*
G02X438512Y111376I3788*
G01*
Y166142*
X421780*
G75*
G02X420795Y167126J984*
G01*
Y271457*
G75*
G02X421780Y272441I984*
G01*
X433183*
X438556Y277814*
G75*
G02X438425Y278799I3657J985*
G01*
Y283799*
G75*
G02X446000I3787*
G01*
Y278799*
G75*
G02X445949Y278180I-3787J-1*
G01*
G75*
G02X446386Y277362I-548J-818*
G01*
Y249803*
G75*
G02X446098Y249107I-984*
G01*
X442883Y245892*
G75*
G02X442839Y245851I-695J698*
G01*
X442839Y245851*
G75*
G02X441774Y245690I-656J734*
G01*
Y240752*
X434699*
Y243003*
G75*
G02X434575Y242956I-412J895*
G01*
Y205906*
X435165*
Y207579*
X443827*
Y207283*
X446583*
G75*
G02X447800Y206799J-1772*
G01*
X448634*
Y211236*
X449043*
Y211598*
X448634*
Y215173*
X452882*
Y218602*
X454744*
Y220321*
G75*
G02X454385Y220598I893J1530*
G01*
X450764Y224219*
G75*
G02X450244Y225472I1252J1254*
G01*
Y231949*
X448478*
Y233768*
X441774*
Y231752*
X440165*
Y228563*
X441852*
Y220988*
X434778*
Y228563*
X436307*
Y231752*
X434699*
Y239327*
X441774*
Y237311*
X448478*
Y239524*
X455553*
Y237311*
X462258*
Y239327*
X469333*
Y237311*
X476037*
Y239327*
X483112*
Y237311*
X489817*
Y239327*
X434778Y219563D02*
X441852D01*
Y211988*
X440087*
Y211747*
G75*
G02X438315Y207579I-1772J-1707*
G01*
G75*
G02X436543Y211747J2461*
G01*
Y211988*
X434778*
Y219563*
X489407Y206272D02*
X497301D01*
Y197878*
X489407*
Y206272*
X481943Y176335D02*
X489018D01*
Y168760*
X488236*
Y121378*
G75*
G02X487429Y119429I-2756*
G01*
X484969Y116969*
Y113169*
G75*
G02X486000Y110571I-2756J-2598*
G01*
Y105571*
G75*
G02X478425I-3787*
G01*
Y110571*
G75*
G02X479457Y113169I3787*
G01*
Y118110*
G75*
G02X480264Y120059I2756*
G01*
X482724Y122520*
Y168760*
X481943*
Y176335*
X475323Y112732D02*
G75*
G02X476000Y110571I-3110J-2161D01*
G01*
Y105571*
G75*
G02X468425I-3787*
G01*
Y110571*
G75*
G02X469811Y113500I3787*
G01*
Y118347*
X467783Y120374*
G75*
G02X466976Y122323I1949J1949*
G01*
Y168760*
X466195*
Y176335*
X473270*
Y168760*
X472488*
Y123465*
X474516Y121437*
G75*
G02X475323Y119488I-1949J-1949*
G01*
Y112732*
X428425Y110571D02*
G75*
G02X436000I3787D01*
G01*
Y105571*
G75*
G02X428425I-3787*
G01*
Y110571*
Y283799D02*
G75*
G02X436000I3787D01*
G01*
Y278799*
G75*
G02X428425I-3787*
G01*
Y283799*
X413512Y108071D02*
G36*
Y98425D01*
X414074*
G75*
G02X415480Y99016I1406J-1379*
G01*
X431228*
G75*
G02X432634Y98425J-1969*
G01*
X433759*
G75*
G02X435165Y99016I1406J-1379*
G01*
X450913*
G75*
G02X452319Y98425J-1969*
G01*
X453444*
G75*
G02X454850Y99016I1406J-1379*
G01*
X470598*
G75*
G02X472004Y98425J-1969*
G01*
X473130*
G75*
G02X474535Y99016I1406J-1379*
G01*
X490283*
G75*
G02X491689Y98425J-1969*
G01*
X492815*
G75*
G02X494220Y99016I1406J-1379*
G01*
X500323*
Y108071*
X486000*
Y105571*
G75*
G02X478425I-3787*
G01*
Y108071*
X476000*
Y105571*
G75*
G02X468425I-3787*
G01*
Y108071*
X446386*
G75*
G02Y108070I-1253J0*
G01*
G75*
G02X446000Y107289I-983*
G01*
Y105571*
G75*
G02X438425I-3787*
G01*
Y108071*
X436000*
Y105571*
G75*
G02X428425I-3787*
G01*
Y108071*
X413512*
G37*
Y112992D02*
G36*
Y108071D01*
X428425*
Y110571*
G75*
G02X436000I3787*
G01*
Y108071*
X438425*
Y110571*
G75*
G02Y110572I3759J1*
G01*
G75*
G02X438512Y111376I3778*
G01*
Y139059*
X413512*
Y136614*
G75*
G02X411543Y134646I-1969*
G01*
G75*
G02X413512Y132677J-1969*
G01*
Y116929*
G75*
G02X411543Y114961I-1969*
G01*
G75*
G02X413512Y112992J-1969*
G01*
G37*
X446386Y139059D02*
G36*
Y108071D01*
X468425*
Y110571*
G75*
G02Y110572I4101J0*
G01*
G75*
G02X469811Y113500I3786*
G01*
Y118347*
X467783Y120374*
G75*
G02X466976Y122323I1950J1949*
G01*
Y139059*
X446386*
G37*
X472488D02*
G36*
Y123465D01*
X474516Y121437*
G75*
G02X475323Y119488I-1950J-1949*
G01*
Y112732*
G75*
G02X476000Y110571I-3109J-2161*
G01*
Y108071*
X478425*
Y110571*
G75*
G02X479457Y113169I3788*
G01*
Y118110*
G75*
G02X480264Y120059I2757J0*
G01*
X482724Y122520*
Y139059*
X472488*
G37*
X484969Y116969D02*
G36*
Y113169D01*
G75*
G02X486000Y110571I-2756J-2598*
G01*
Y108071*
X500323*
Y139059*
X488236*
Y121378*
G75*
G02X487429Y119429I-2757J0*
G01*
X484969Y116969*
G37*
X402291Y174775D02*
G36*
Y173453D01*
G75*
G02X403669Y174016I1378J-1406*
G01*
X411543*
G75*
G02X413512Y172047J-1969*
G01*
Y156299*
G75*
G02X411543Y154331I-1969*
G01*
G75*
G02X413512Y152362J-1969*
G01*
Y139059*
X438512*
Y166142*
X421780*
G75*
G02X420795Y167126J984*
G01*
Y167126*
Y202075*
X413512*
Y195669*
G75*
G02X412158Y193799I-1969*
G01*
G75*
G02X413512Y191929I-615J-1870*
G01*
Y176181*
G75*
G02X411543Y174213I-1969*
G01*
X403669*
G75*
G02X402291Y174775J1969*
G01*
G37*
X434575Y202075D02*
G36*
Y185827D01*
X445402*
G75*
G02X446386Y184843J-984*
G01*
Y184843*
Y139059*
X466976*
Y168760*
X466195*
Y176335*
X473270*
Y168760*
X472488*
Y139059*
X482724*
Y168760*
X481943*
Y176335*
X489018*
Y168760*
X488236*
Y139059*
X500323*
Y202075*
X497301*
Y197878*
X489407*
Y202075*
X486453*
Y185335*
X489018*
Y177760*
X481943*
Y185335*
X483878*
Y202075*
X480547*
Y191075*
G75*
G02X480170Y190165I-1288J0*
G01*
X473270Y183264*
Y177760*
X466195*
Y185335*
X471699*
X477972Y191608*
Y202075*
X473256*
Y198228*
X469417*
Y194390*
X452882*
Y198228*
X449043*
Y202075*
X448706*
X447961Y201329*
Y199148*
G75*
G02X448650Y197441I-1772J-1708*
G01*
G75*
G02X444236Y195944I-2461*
G01*
Y189256*
X434756*
Y196177*
X444078*
G75*
G02X443728Y197441I2111J1263*
G01*
G75*
G02X444417Y199148I2460J0*
G01*
Y201378*
G75*
G02X444560Y202075I1772J0*
G01*
X443827*
Y201476*
X435165*
Y202075*
X434575*
G37*
X412376Y213571D02*
G36*
G75*
G02X411543Y213386I-833J1783D01*
G01*
G75*
G02X413512Y211417J-1969*
G01*
Y202075*
X420795*
Y213571*
X412376*
G37*
X434575Y202362D02*
G36*
Y202075D01*
X435165*
Y202362*
X434575*
G37*
Y213571D02*
G36*
Y205906D01*
X435165*
Y207579*
X438315*
G75*
G02X435854Y210039J2461*
G01*
G75*
G02X436543Y211747I2461*
G01*
Y211988*
X434778*
Y213571*
X434575*
G37*
X440087Y211988D02*
G36*
Y211747D01*
G75*
G02X440776Y210039I-1772J-1707*
G01*
G75*
G02X438315Y207579I-2460*
G01*
X443827*
Y207283*
X446583*
G75*
G02X447800Y206799I-1J-1773*
G01*
X448634*
Y211236*
X449043*
Y211598*
X448634*
Y213571*
X441852*
Y211988*
X440087*
G37*
X443827Y203740D02*
G36*
Y202075D01*
X444560*
G75*
G02X446139Y203149I1629J-697*
G01*
X446737Y203747*
G75*
G02X446583Y203740I-150J1680*
G01*
X443827*
G37*
X448887Y202256D02*
G36*
X448706Y202075D01*
X449043*
Y202256*
X448887*
G37*
X473256Y204224D02*
G36*
Y202075D01*
X477972*
Y203010*
X476758Y204224*
X473256*
G37*
Y210130D02*
G36*
Y208768D01*
X481424*
G75*
G02X482335Y208391J-1289*
G01*
X486076Y204650*
G75*
G02X486453Y203740I-911J-911*
G01*
Y202075*
X489407*
Y206272*
X497301*
Y202075*
X500323*
Y213571*
X496892*
Y207287*
X489817*
Y209646*
X477685*
G75*
G02X476468Y210130I1J1773*
G01*
X473256*
G37*
Y212845D02*
G36*
Y212705D01*
X476468*
G75*
G02X477685Y213189I1218J-1289*
G01*
X489817*
Y213571*
X474536*
G75*
G02X473798Y213387I-788J1587*
G01*
X473256Y212845*
G37*
X478431Y206193D02*
G36*
X480170Y204454D01*
G75*
G02X480547Y203543I-911J-911*
G01*
Y202075*
X483878*
Y203207*
X480892Y206193*
X478431*
G37*
X413512Y215354D02*
G36*
G75*
G02X412376Y213571I-1969D01*
G01*
X420795*
Y246705*
X413512*
Y235039*
G75*
G02X411543Y233071I-1969*
G01*
G75*
G02X413512Y231102J-1969*
G01*
Y215354*
G37*
X434575Y242956D02*
G36*
Y213571D01*
X434778*
Y219563*
X441852*
Y213571*
X448634*
Y215173*
X452882*
Y218602*
X454744*
Y220321*
G75*
G02X454385Y220598I881J1514*
G01*
X450764Y224219*
G75*
G02X450244Y225472I1252J1254*
G01*
Y231949*
X448478*
Y233768*
X441774*
Y231752*
X440165*
Y228563*
X441852*
Y220988*
X434778*
Y228563*
X436307*
Y231752*
X434699*
Y239327*
X441774*
Y237311*
X448478*
Y239524*
X455553*
Y237311*
X462258*
Y239327*
X469333*
Y237311*
X476037*
Y239327*
X483112*
Y237311*
X489817*
Y239327*
X496892*
Y231752*
X489817*
Y233768*
X483112*
Y231752*
X476037*
Y233768*
X469333*
Y231752*
X462258*
Y233768*
X455553*
Y231949*
X453787*
Y226206*
X456891Y223103*
G75*
G02X457409Y221850I-1253J-1253*
G01*
G75*
G02X457319Y221291I-1772*
G01*
Y218602*
X464783*
Y219059*
G75*
G02X464299Y220276I1289J1218*
G01*
Y221260*
G75*
G02X464819Y222513I1772*
G01*
X469935Y227630*
G75*
G02X471189Y228150I1254J-1252*
G01*
X477946*
G75*
G02X482114Y226378I1707J-1772*
G01*
G75*
G02X477946Y224606I-2461*
G01*
X471923*
X467843Y220526*
Y220276*
G75*
G02X467358Y219059I-1773J1*
G01*
Y218602*
X469417*
Y214764*
X471534*
X471976Y215206*
Y219552*
G75*
G02X471287Y221260I1772J1708*
G01*
G75*
G02X476209I2461*
G01*
G75*
G02X475520Y219552I-2461J0*
G01*
Y215157*
G75*
G02X474536Y213571I-1772*
G01*
X489817*
Y214862*
X491583*
Y215025*
G75*
G02X490894Y216732I1772J1708*
G01*
G75*
G02X495815I2461*
G01*
G75*
G02X495126Y215025I-2461J0*
G01*
Y214862*
X496892*
Y213571*
X500323*
Y246705*
X496892*
Y240752*
X489817*
Y246705*
X483112*
Y240752*
X476037*
Y246705*
X470587*
G75*
G02X470401Y246483I-1564J1130*
G01*
X469333Y245393*
Y240752*
X462258*
Y246705*
X455963*
Y240539*
X448069*
Y246705*
X443695*
X442883Y245892*
G75*
G02X442839Y245851I-748J755*
G01*
X442839Y245851*
G75*
G02X441774Y245690I-655J734*
G01*
Y240752*
X434699*
Y243003*
G75*
G02X434575Y242956I-420J915*
G01*
G37*
X411346Y272441D02*
G36*
X411543D01*
G75*
G02X413512Y270472J-1969*
G01*
Y254724*
G75*
G02X411543Y252756I-1969*
G01*
G75*
G02X413512Y250787J-1969*
G01*
Y246705*
X420795*
Y271457*
Y271457*
G75*
G02X421780Y272441I984*
G01*
X433183*
X434754Y274012*
X413274*
G75*
G02X411346Y272441I-1928J398*
G01*
G37*
X446098Y249107D02*
G36*
X443695Y246705D01*
X448069*
Y248933*
X455963*
Y246705*
X462258*
Y248327*
X466805*
X466952Y248476*
G75*
G02X466563Y249803I2072J1327*
G01*
G75*
G02X467184Y251437I2460*
G01*
X466195*
Y259012*
X473270*
Y251437*
X470863*
G75*
G02X471484Y249803I-1841J-1634*
G01*
G75*
G02X470953Y248276I-2461J0*
G01*
Y247835*
Y247834*
G75*
G02X470587Y246705I-1929*
G01*
X476037*
Y248327*
X477606*
G75*
G02X477114Y249803I1968J1476*
G01*
G75*
G02X477735Y251437I2460*
G01*
X476037*
Y259012*
X483112*
Y251437*
X481415*
G75*
G02X482035Y249803I-1839J-1634*
G01*
G75*
G02X481543Y248327I-2460J0*
G01*
X483112*
Y246705*
X489817*
Y248327*
X491583*
Y248489*
G75*
G02X490894Y250197I1772J1708*
G01*
G75*
G02X495815I2461*
G01*
G75*
G02X495126Y248489I-2461J0*
G01*
Y248327*
X496892*
Y246705*
X500323*
Y274012*
X485559*
Y272783*
G75*
G02X484752Y270835I-2757J0*
G01*
X482331Y268414*
Y268012*
X483112*
Y260437*
X476037*
Y268012*
X476819*
Y269555*
G75*
G02X477626Y271504I2757J0*
G01*
X480047Y273925*
Y274012*
X475717*
Y271457*
G75*
G02X474909Y269508I-2757J0*
G01*
X473270Y267869*
Y260437*
X466195*
Y268012*
X466976*
Y268228*
G75*
G02X467783Y270177I2757J0*
G01*
X470205Y272598*
Y274012*
X446386*
Y249803*
G75*
G02Y249802I-1289J0*
G01*
G75*
G02X446098Y249107I-983*
G01*
G37*
X413315Y274409D02*
G36*
G75*
G02X413274Y274012I-1969D01*
G01*
X434754*
X438556Y277814*
G75*
G02X438425Y278799I3658J985*
G01*
Y278799*
Y281299*
X436000*
Y278799*
G75*
G02X428425I-3787*
G01*
Y281299*
X413315*
Y274409*
G37*
X446000Y281299D02*
G36*
Y278799D01*
G75*
G02Y278796I-3759J-2*
G01*
G75*
G02X445949Y278180I-3758*
G01*
G75*
G02X446386Y277363I-546J-817*
G01*
G75*
G02Y277362I-1109J0*
G01*
Y274012*
X470205*
Y275588*
G75*
G02X468425Y278799I2009J3212*
G01*
Y281299*
X446000*
G37*
X475717Y277361D02*
G36*
Y274012D01*
X480047*
Y275692*
G75*
G02X478425Y278799I2165J3107*
G01*
Y281299*
X476000*
Y278799*
G75*
G02X475717Y277361I-3794J1*
G01*
G37*
X485559Y277026D02*
G36*
Y274012D01*
X500323*
Y281299*
X486000*
Y278799*
Y278799*
G75*
G02X485559Y277026I-3786*
G01*
G37*
X413315Y290157D02*
G36*
Y281299D01*
X428425*
Y283799*
G75*
G02X436000I3787*
G01*
Y281299*
X438425*
Y283799*
G75*
G02X446000I3787*
G01*
Y281299*
X468425*
Y283799*
G75*
G02X476000I3787*
G01*
Y281299*
X478425*
Y283799*
G75*
G02X486000I3787*
G01*
Y281299*
X500323*
Y291732*
X497047*
G75*
G02X496189Y291535I-859J1775*
G01*
X480441*
G75*
G02X479583Y291732I1J1972*
G01*
X477362*
G75*
G02X476504Y291535I-859J1775*
G01*
X460756*
G75*
G02X459898Y291732I1J1972*
G01*
X457677*
G75*
G02X456819Y291535I-859J1775*
G01*
X441071*
G75*
G02X440213Y291732I1J1972*
G01*
X437992*
G75*
G02X437134Y291535I-859J1775*
G01*
X421386*
G75*
G02X420528Y291732I1J1972*
G01*
X418307*
G75*
G02X417449Y291535I-859J1775*
G01*
X412752*
G75*
G02X413315Y290157I-1407J-1378*
G01*
G37*
X409772Y485630D02*
Y433661D01*
X457016*
Y551772*
X409772*
Y499803*
X421583*
Y504528*
X445205*
Y480906*
X421583*
Y485630*
X409772*
G36*
Y433661*
X457016*
Y551772*
X409772*
Y499803*
X421583*
Y504528*
X445205*
Y480906*
X421583*
Y485630*
X409772*
G37*
X413512Y152362D02*
Y140354D01*
X414299*
Y153346*
X413248*
G75*
G02X413512Y152362I-1705J-984*
G01*
G36*
Y140354*
X414299*
Y153346*
X413248*
G75*
G02X413512Y152362I-1705J-984*
G01*
G37*
X421780Y271457D02*
Y167126D01*
X439496*
Y108071*
X445402*
Y184843*
X433591*
Y243898*
X434289*
X434289*
Y248736*
X442183*
Y246585*
G75*
G02X442187Y246588I750J-841*
G01*
X445402Y249803*
Y277362*
X439496*
X433591Y271457*
X421780*
G36*
Y167126*
X439496*
Y108071*
X445402*
Y184843*
X433591*
Y243898*
X434289*
X434289*
Y248736*
X442183*
Y246585*
G75*
G02X442187Y246588I750J-841*
G01*
X445402Y249803*
Y277362*
X439496*
X433591Y271457*
X421780*
G37*
X438906Y423819D02*
G75*
G02X436937Y421850I-1969D01*
G01*
X441071*
G75*
G02X439102Y423819J1969*
G01*
Y431693*
G75*
G02X441071Y433661I1969*
G01*
X436937*
G75*
G02X438906Y431693J-1969*
G01*
Y423819*
G36*
G75*
G02X436937Y421850I-1969*
G01*
X441071*
G75*
G02X439102Y423819J1969*
G01*
Y431693*
G75*
G02X441071Y433661I1969*
G01*
X436937*
G75*
G02X438906Y431693J-1969*
G01*
Y423819*
G37*
X457016Y455315D02*
Y451378D01*
G75*
G02X458984Y453346I1969*
G01*
G75*
G02X457016Y455315J1969*
G01*
G36*
Y451378*
G75*
G02X458984Y453346I1969*
G01*
G75*
G02X457016Y455315J1969*
G01*
G37*
Y475000D02*
Y471063D01*
G75*
G02X458984Y473031I1969*
G01*
G75*
G02X457016Y475000J1969*
G01*
G36*
Y471063*
G75*
G02X458984Y473031I1969*
G01*
G75*
G02X457016Y475000J1969*
G01*
G37*
Y494685D02*
Y490748D01*
G75*
G02X458984Y492717I1969*
G01*
G75*
G02X457016Y494685J1969*
G01*
G36*
Y490748*
G75*
G02X458984Y492717I1969*
G01*
G75*
G02X457016Y494685J1969*
G01*
G37*
Y514370D02*
Y510433D01*
G75*
G02X458984Y512402I1969*
G01*
G75*
G02X457016Y514370J1969*
G01*
G36*
Y510433*
G75*
G02X458984Y512402I1969*
G01*
G75*
G02X457016Y514370J1969*
G01*
G37*
Y534055D02*
Y530118D01*
G75*
G02X458984Y532087I1969*
G01*
G75*
G02X457016Y534055J1969*
G01*
G36*
Y530118*
G75*
G02X458984Y532087I1969*
G01*
G75*
G02X457016Y534055J1969*
G01*
G37*
X458984Y335039D02*
Y303543D01*
X501630*
G75*
G02X502488Y303740I858J-1771*
G01*
X505638*
Y421654*
X458984*
Y390157*
X368433*
Y421654*
X321189*
Y303543*
X368433*
Y335039*
X458984*
X470795Y374409D02*
X494417D01*
Y350787*
X470795*
Y355906*
X356622*
Y350787*
X333000*
Y374409*
X356622*
Y369685*
X470795*
Y374409*
X321386Y362598D02*
G36*
Y303740D01*
X368433*
Y335039*
X458984*
Y303740*
X502488*
X505441*
Y362598*
X494417*
Y350787*
X470795*
Y355906*
X356622*
Y350787*
X333000*
Y362598*
X321386*
G37*
Y421457D02*
G36*
Y362598D01*
X333000*
Y374409*
X356622*
Y369685*
X470795*
Y374409*
X494417*
Y362598*
X505441*
Y421457*
X458984*
Y390157*
X368433*
Y421457*
X321386*
G37*
X468827Y435630D02*
G75*
G02X466858Y433661I-1969D01*
G01*
X506425*
G75*
G02X507606Y434055I1181J-1575*
G01*
X511937*
Y551772*
X466858*
G75*
G02X468827Y549803J-1969*
G01*
Y534055*
G75*
G02X466858Y532087I-1969*
G01*
G75*
G02X468827Y530118J-1969*
G01*
Y514370*
G75*
G02X466858Y512402I-1969*
G01*
G75*
G02X468827Y510433J-1969*
G01*
Y494685*
G75*
G02X466858Y492717I-1969*
G01*
G75*
G02X468827Y490748J-1969*
G01*
Y475000*
G75*
G02X466858Y473031I-1969*
G01*
G75*
G02X468827Y471063J-1969*
G01*
Y455315*
G75*
G02X466858Y453346I-1969*
G01*
G75*
G02X468827Y451378J-1969*
G01*
Y435630*
X480638Y504528D02*
X504260D01*
Y480906*
X480638*
Y504528*
X467055Y453356D02*
G36*
Y453337D01*
G75*
G02X468827Y451378I-197J-1959*
G01*
Y435630*
G75*
G02X467716Y433858I-1969*
G01*
X506748*
G75*
G02X507606Y434055I859J-1775*
G01*
X511740*
Y492717*
X504260*
Y480906*
X480638*
Y492717*
X467055*
Y492707*
G75*
G02X468827Y490748I-197J-1959*
G01*
Y475000*
G75*
G02X467055Y473041I-1969*
G01*
Y473022*
G75*
G02X468827Y471063I-197J-1959*
G01*
Y455315*
G75*
G02X467055Y453356I-1969*
G01*
G37*
Y492726D02*
G36*
Y492717D01*
X480638*
Y504528*
X504260*
Y492717*
X511740*
Y551575*
X467716*
G75*
G02X468827Y549803I-858J-1772*
G01*
Y534055*
G75*
G02X467055Y532096I-1969*
G01*
Y532077*
G75*
G02X468827Y530118I-197J-1959*
G01*
Y514370*
G75*
G02X467055Y512411I-1969*
G01*
Y512392*
G75*
G02X468827Y510433I-197J-1959*
G01*
Y494685*
G75*
G02X467055Y492726I-1969*
G01*
G37*
X478276Y423819D02*
G75*
G02X476307Y421850I-1969D01*
G01*
X480441*
G75*
G02X478472Y423819J1969*
G01*
Y431693*
G75*
G02X480441Y433661I1969*
G01*
X476307*
G75*
G02X478276Y431693J-1969*
G01*
Y423819*
G36*
G75*
G02X476307Y421850I-1969*
G01*
X480441*
G75*
G02X478472Y423819J1969*
G01*
Y431693*
G75*
G02X480441Y433661I1969*
G01*
X476307*
G75*
G02X478276Y431693J-1969*
G01*
Y423819*
G37*
X504850D02*
G75*
G02X502882Y421850I-1969D01*
G01*
X505638*
Y432087*
G75*
G02X506031Y433268I1969*
G01*
Y433661*
X502882*
G75*
G02X504850Y431693J-1969*
G01*
Y423819*
G36*
G75*
G02X502882Y421850I-1969*
G01*
X505638*
Y432087*
G75*
G02X506031Y433268I1969*
G01*
Y433661*
X502882*
G75*
G02X504850Y431693J-1969*
G01*
Y423819*
G37*
X545402Y182283D02*
Y167717D01*
X547764Y165354*
X564693*
Y209843*
X512331*
Y185433*
X542252*
X545402Y182283*
X519551Y195063D02*
X527945D01*
Y186669*
X519551*
Y195063*
X529961Y194654D02*
X537535D01*
Y187079*
X529961*
Y194654*
X558138Y173803D02*
G75*
G02X562335Y169606J-4197D01*
G01*
G75*
G02X558138Y165409I-4197*
G01*
X553138*
G75*
G02X548941Y169606J4197*
G01*
G75*
G02X553138Y173803I4197*
G01*
X558138*
X545402Y169606D02*
G36*
Y167717D01*
X547567Y165551*
X552056*
G75*
G02X548941Y169606I1081J4055*
G01*
Y169606*
X545402*
G37*
X562335Y169606D02*
G36*
G75*
G02X559220Y165551I-4196D01*
G01*
X564496*
Y169606*
X562335*
Y169606*
G37*
X512528Y190866D02*
G36*
Y185433D01*
X542252*
X545402Y182283*
Y169606*
X548941*
Y169607*
G75*
G02X553138Y173803I4197*
G01*
X558138*
G75*
G02X562335Y169607J-4196*
G01*
Y169606*
X564496*
Y190866*
X537535*
Y187079*
X529961*
Y190866*
X527945*
Y186669*
X519551*
Y190866*
X512528*
G37*
Y209646D02*
G36*
Y190866D01*
X519551*
Y195063*
X527945*
Y190866*
X529961*
Y194654*
X537535*
Y190866*
X564496*
Y209646*
X512528*
G37*
D02*
D11*
X263118Y225000D02*
X269299D01*
X271504Y222795*
X275205*
Y221260*
X271189*
X269220Y219291*
X263118*
Y225000*
G36*
X269299*
X271504Y222795*
X275205*
Y221260*
X271189*
X269220Y219291*
X263118*
Y225000*
G37*
X283906Y227953D02*
X286701D01*
X288315Y229567*
X291386*
Y224606*
X288315*
X286543Y226378*
X283906*
Y227953*
G36*
X286701*
X288315Y229567*
X291386*
Y224606*
X288315*
X286543Y226378*
X283906*
Y227953*
G37*
D02*
D12*
X75750Y245972D02*
X73750D01*
X78000Y243472D02*
Y241472D01*
Y248472D02*
Y250472D01*
X80250Y245972D02*
X82250D01*
X109187Y200206D02*
X107185D01*
X109693Y222508D02*
Y225630D01*
X109575Y225748*
X110087Y198956D02*
Y196957D01*
Y200206D02*
Y197244D01*
X110987Y200206D02*
X112988D01*
X113118Y373828D02*
Y373425D01*
X120829Y195567D02*
X118829D01*
X121316Y206330D02*
X123079Y204567D01*
X122854Y204791D02*
X123079Y204567D01*
Y193067D02*
Y191067D01*
Y195567D02*
Y195433D01*
Y198067D02*
Y200067D01*
X125329Y195567D02*
X127329D01*
X126416Y211372D02*
Y209370D01*
Y212272D02*
X129654D01*
X126416Y213172D02*
Y215173D01*
X127666Y212272D02*
X129665D01*
X261059Y222244D02*
X262500D01*
X262567Y222177*
X269299D02*
X262567D01*
X275598Y222047D02*
X262697D01*
X262567Y222177*
X275598Y222047D02*
X273512D01*
X275598Y227165D02*
X275520D01*
X275598D02*
X276346D01*
X276583Y224567D02*
Y224606D01*
X275598*
X282024Y244646D02*
X280024D01*
X282063Y255000D02*
X280063D01*
X284524Y242396D02*
Y240396D01*
Y246896D02*
Y248896D01*
X284563Y252750D02*
Y250750D01*
Y257250D02*
Y259250D01*
X287024Y244646D02*
X289024D01*
X287063Y255000D02*
X289063D01*
X290906Y275630D02*
X288906D01*
X293406Y273380D02*
Y271380D01*
Y277880D02*
Y279880D01*
X293563Y227165D02*
X293591Y227193D01*
X283500*
X283472Y227165*
X295906Y275630D02*
X297906D01*
X339130Y70787D02*
X339142Y70799D01*
X375508D02*
X375520Y70787D01*
X375598Y222520D02*
Y222323D01*
X377528Y224252D02*
X375598Y222323D01*
X432311Y43031D02*
Y63031*
X435986Y244539*
X433986D01*
X438236Y247039D02*
Y249039D01*
X439496Y190953D02*
Y188953D01*
Y194480D02*
Y196480D01*
X442539Y192717D02*
X444539D01*
X449766Y244736D02*
X447766D01*
X450331Y207480D02*
X448331D01*
X450331Y209449D02*
X448331D01*
X450331Y213386D02*
X448331D01*
X451504Y203543D02*
X448354D01*
X446189Y201378*
X451504Y205512D02*
X446583D01*
X451504Y207480D02*
X447961D01*
X446583Y208858*
Y209252*
X451504Y209449D02*
X446780D01*
X446583Y209252*
X451504Y213386D02*
X447370D01*
X451504Y213476D02*
Y215476D01*
X452016Y242236D02*
Y240236D01*
Y247236D02*
Y249236D01*
X454266Y244736D02*
X456266D01*
X456228Y216142D02*
X456031D01*
Y221457*
G75*
G02X455638Y221850J394*
G01*
X466071Y216142D02*
Y220276D01*
X470795Y205512D02*
X477291D01*
X479260Y203543*
Y191075*
X469732Y181547*
X470795Y207283D02*
X470598Y207677D01*
X470795Y207480D02*
X481425D01*
X485165Y203740*
Y181862*
X485480Y181547*
X470795Y211417D02*
X477685D01*
X470795Y213386D02*
X471976D01*
X473748Y215157*
X491104Y202075D02*
X489104D01*
X493354Y199575D02*
Y197575D01*
Y204575D02*
Y206575D01*
X495604Y202075D02*
X497604D01*
X521248Y190866D02*
X519248D01*
X523748Y188366D02*
Y186366D01*
Y193366D02*
Y195366D01*
X526248Y190866D02*
X528248D01*
X550638Y169606D02*
X548638D01*
X555638Y172106D02*
Y174106D01*
X560638Y169606D02*
X562638D01*
D02*
D13*
X34772Y222126D02*
X54772D01*
X36858Y80906D02*
X125441D01*
X86740Y362598D02*
X98551D01*
X86898D02*
G75*
G03X86819Y362520J-79D01*
G01*
X88709Y492717D02*
X177134D01*
G75*
G03X177213Y492795J79*
G01*
X175323Y362598D02*
X162724D01*
X186543Y70787D02*
X207685D01*
X186701Y222244D02*
X215205D01*
X344811Y362598D02*
X482528D01*
X345008Y492717D02*
X433591D01*
X375520Y70787D02*
X345402D01*
X375598Y222323D02*
X352291D01*
D02*
D14*
X80283Y277323D02*
Y257256D01*
X78000Y254972*
X89811Y245972D02*
X89890Y245894D01*
Y239764*
X92252Y237402*
X95480*
X105953Y226929*
Y222508*
X89811Y254972D02*
X78000D01*
X96189Y212823D02*
X105402D01*
X100283Y277323D02*
Y264016D01*
X101701Y262598*
Y255051*
X101622Y254972*
X105874Y222598D02*
X105953D01*
X109575Y225748D03*
X109890Y220236D03*
X113118Y373425D03*
X113433Y212272D02*
X121316D01*
X113433Y222508D02*
Y226929D01*
X115402Y228898*
Y252756*
X113039Y255118*
X101622*
Y254972*
X115393Y204791D02*
X122854D01*
X121316Y212272D02*
Y206330D01*
X124929Y380118D03*
X130047D03*
X141071Y367913D03*
Y373425D03*
X147370D03*
X165480Y39685D03*
Y49528D03*
Y59370D03*
Y66260D03*
Y73150D03*
Y82992D03*
Y92835D03*
Y102677D03*
X167016Y190748D03*
Y200591D03*
Y210433D03*
Y217323D03*
Y224213D03*
Y234055D03*
Y243898D03*
Y253740D03*
X170717Y44843D03*
Y97638D03*
X172252Y195906D03*
Y248701D03*
X175323Y39685D03*
Y49528D03*
Y92835D03*
Y102677D03*
X176858Y190748D03*
Y200591D03*
Y243898D03*
Y253740D03*
X180874Y44843D03*
Y97638D03*
X182409Y195906D03*
Y248701D03*
X185165Y39685D03*
Y49528D03*
Y92835D03*
Y102677D03*
X186701Y190748D03*
Y200591D03*
Y243898D03*
Y253740D03*
X190362Y44843D03*
Y97638D03*
X191898Y195906D03*
Y248701D03*
X195008Y39685D03*
Y49528D03*
Y92835D03*
Y102677D03*
X196543Y190748D03*
Y200591D03*
Y243898D03*
Y253740D03*
X200165Y44843D03*
Y97638D03*
X201701Y195906D03*
Y248701D03*
X204850Y39685D03*
Y49528D03*
Y59370D03*
Y82992D03*
Y92835D03*
Y102677D03*
X206386Y190748D03*
Y200591D03*
Y210433D03*
Y234055D03*
Y243898D03*
Y253740D03*
X214693Y39685D03*
Y49528D03*
Y59370D03*
Y82992D03*
Y92835D03*
Y102677D03*
X216228Y190748D03*
Y200591D03*
Y210433D03*
Y234055D03*
Y243898D03*
Y253740D03*
X224535Y39685D03*
Y49528D03*
Y59370D03*
Y82992D03*
Y92835D03*
Y102677D03*
X226071Y190748D03*
Y200591D03*
Y210433D03*
Y234055D03*
Y243898D03*
Y253740D03*
X234378Y39685D03*
Y49528D03*
Y59370D03*
Y82992D03*
Y92835D03*
Y102677D03*
X235913Y190748D03*
Y200591D03*
Y210433D03*
Y234055D03*
Y243898D03*
Y253740D03*
X244220Y39685D03*
Y49528D03*
Y59370D03*
Y82992D03*
Y92835D03*
Y102677D03*
X245756Y190748D03*
Y200591D03*
Y210433D03*
Y234055D03*
Y243898D03*
Y253740D03*
X249614Y44173D03*
Y49370D03*
X254063Y82992D03*
Y92835D03*
Y102677D03*
X254378Y200591D03*
Y210433D03*
X254614Y39685D03*
Y49528D03*
Y59370D03*
X254811Y190748D03*
X255598Y234055D03*
Y243898D03*
Y253740D03*
X259811Y186654D03*
X263236Y39685D03*
Y49528D03*
Y59370D03*
X263669Y82992D03*
Y92835D03*
Y102677D03*
X265441Y234055D03*
Y243898D03*
Y253740D03*
X265953Y186654D03*
X270323Y190748D03*
X270638Y230512D03*
X270756Y200591D03*
Y210433D03*
X271346Y234055D03*
X273079Y39685D03*
Y49528D03*
Y59370D03*
X273512Y82992D03*
Y92835D03*
Y102677D03*
X274575Y230512D03*
X275283Y234055D03*
Y243898D03*
Y253740D03*
X275520Y225984D03*
X278512Y230551D03*
X279378Y190748D03*
Y200591D03*
Y210433D03*
X279535Y224606D03*
X280559Y218701D03*
X282803Y215000D03*
X282921Y39685D03*
Y49528D03*
Y59370D03*
X283354Y82992D03*
Y92835D03*
Y102677D03*
X283787Y223228D03*
X284496Y218701D03*
X286217Y277441D02*
X284406Y275630D01*
X286307Y192992D03*
Y202835D03*
Y212677D03*
X286583Y216142D03*
X288433Y218740D03*
X289969Y92835D03*
X290165Y82992D03*
X292764Y39685D03*
Y49528D03*
Y59370D03*
X292843Y195709D03*
Y205551D03*
Y215394D03*
X293197Y102677D03*
X293406Y255157D02*
X293563Y255000D01*
X293524Y254961D02*
X293563Y255000D01*
X293591Y244579D02*
X293524Y244646D01*
X295913Y92677D03*
Y97520D03*
X302606Y39685D03*
Y49528D03*
Y59370D03*
X302685Y195709D03*
Y205551D03*
Y215394D03*
X302764Y239016D03*
Y248071D03*
X302843Y82795D03*
Y92638D03*
Y102480D03*
X312094Y214843D03*
X312213Y39685D03*
Y49528D03*
Y59370D03*
X312449Y82795D03*
Y92638D03*
Y102480D03*
X312528Y195709D03*
Y205551D03*
X312606Y239016D03*
Y248071D03*
X321189Y194134D03*
Y203976D03*
X322055Y39685D03*
Y49528D03*
Y59370D03*
X322291Y82795D03*
Y92638D03*
Y102480D03*
X324339Y234488D03*
Y243937D03*
X329339Y82795D03*
Y92638D03*
Y102480D03*
X329929Y39488D03*
Y49331D03*
Y59173D03*
X329969Y190787D03*
Y200630D03*
Y210472D03*
X332213Y234094D03*
Y243937D03*
X338236Y39488D03*
X339102Y44882D03*
Y48976D03*
X339181Y82795D03*
Y92638D03*
Y102480D03*
X339811Y190787D03*
Y200630D03*
Y210472D03*
X340756Y234291D03*
Y243937D03*
Y253780D03*
X347055Y39488D03*
Y49331D03*
X348630Y190787D03*
Y200630D03*
X349024Y82795D03*
Y92638D03*
Y102480D03*
X350598Y234094D03*
Y243937D03*
Y253780D03*
X352724Y54724D03*
X354299Y206024D03*
X356898Y39488D03*
Y49331D03*
X358472Y190787D03*
Y200630D03*
X358866Y92638D03*
Y102480D03*
X360441Y243937D03*
Y253780D03*
X361858Y44724D03*
X363433Y196024D03*
X363906Y97402D03*
X365480Y248701D03*
X366740Y39488D03*
Y49331D03*
X368315Y190787D03*
Y200630D03*
X368709Y92638D03*
Y102480D03*
X370283Y243937D03*
Y253780D03*
X372016Y44724D03*
X373591Y196024D03*
X374063Y97402D03*
X375638Y248701D03*
X376583Y39488D03*
Y49331D03*
X378157Y190787D03*
Y200630D03*
X378551Y92638D03*
Y102480D03*
X380126Y243937D03*
Y253780D03*
X381504Y44724D03*
X383079Y196024D03*
X383551Y97402D03*
X385126Y248701D03*
X386425Y39488D03*
Y49331D03*
X388000Y190787D03*
Y200630D03*
X388394Y92638D03*
Y102480D03*
X389969Y243937D03*
Y253780D03*
X391307Y44724D03*
X392882Y196024D03*
X393354Y97402D03*
X394929Y248701D03*
X396268Y39488D03*
Y49331D03*
Y59173D03*
Y66063D03*
Y72953D03*
Y82795D03*
Y92638D03*
Y102480D03*
X397843Y190787D03*
Y200630D03*
Y210472D03*
Y217362D03*
Y224252D03*
Y234094D03*
Y243937D03*
Y253780D03*
X417252Y204331D03*
X426280Y204528D02*
Y204134D01*
X438091*
X438484Y204528*
X439496*
X438236Y235539D02*
Y230118D01*
X438315*
Y224776*
X438236Y235539D02*
X465795D01*
X438315Y210039D02*
Y215776D01*
X439496Y192717D02*
Y188386D01*
X446189Y201378D02*
Y197441D01*
X446583Y205512D02*
X440480D01*
X439496Y204528*
X446583Y209252D03*
X447370Y213386D03*
X452016Y244736D02*
Y247835D01*
X452094*
Y249803*
X455638Y221850D02*
X452016Y225472D01*
Y235736*
X457213Y202559D03*
Y210433D03*
X461150Y206496D03*
X465087Y202559D03*
Y210433D03*
X465795Y244539D02*
Y244606D01*
X469024Y247835*
Y249803*
X466071Y220276D02*
Y221260D01*
X471189Y226378*
X479654*
X469024Y249803D02*
Y254516D01*
X469732Y255224*
X473748Y215157D02*
Y221260D01*
X477685Y211417D02*
X493012D01*
X493354Y211075*
X479575Y235539D02*
X493354D01*
X479575D02*
X465795D01*
X479575Y244539D02*
Y249803D01*
Y255224*
X493354Y211075D02*
Y216732D01*
Y250197D02*
Y244539D01*
X529555Y43031D02*
Y53031*
Y63031*
*
D15*
X101622Y245972D02*
X104063Y362598*
X108600D01*
X119024Y362804D02*
Y362598D01*
X113700*
X119024Y367904D02*
Y373828D01*
Y378928D02*
X113118D01*
X121316Y212272D02*
Y217323D01*
X124535Y373416D02*
X119435D01*
G75*
G02X119024Y373828J412*
G01*
X130047Y368316D02*
X124535D01*
X135953Y367904D02*
Y373828D01*
X130459*
G75*
G03X130047Y373416J-412*
G01*
X141071Y378928D02*
X135953D01*
X142064Y362598D02*
X136159D01*
G75*
G02X135953Y362804J206*
G01*
X152882D02*
X147370D01*
G75*
G03X147164Y362598J-206*
G01*
X152882Y367904D02*
X147782D01*
G75*
G02X147370Y368316J412*
G01*
X157213Y362598D02*
X147164D01*
X249614Y61799D02*
Y54322D01*
X295913Y79776D02*
Y87253D01*
X339142Y61799D02*
Y54322D01*
X493433Y201772D02*
X493354Y202075D01*
D02*
D16*
X212213Y277441D02*
Y264488D01*
X216071Y260630*
X254220*
X263886Y270295*
X259378Y265787D02*
X263886Y270295D01*
X269220Y275630*
X284406*
Y265787D02*
Y275630D01*
X293406Y265787D02*
Y255157D01*
X293524Y244646D02*
Y254961D01*
X293591Y236193D02*
Y244579D01*
X432311Y43031D02*
X426504D01*
X432311Y63031D02*
X424575D01*
X420205Y58661*
Y14567*
X425717Y9055*
X546189*
X551307Y14173*
Y23622*
X442213Y281299D02*
Y252520D01*
X438236Y248543*
Y244539*
X469732Y172547D02*
Y122323D01*
X472567Y119488*
Y108425*
X472213Y108071*
X469732Y264224D02*
Y268228D01*
X472961Y271457*
Y280551*
X472213Y281299*
X479575Y264224D02*
Y269555D01*
X482803Y272783*
Y280067*
X482213Y280657*
Y281299*
Y108071D02*
Y118110D01*
X485480Y121378*
Y172547*
X529555Y43031D02*
X535559D01*
X542134Y49606*
X542252*
X546268Y53622*
X551307*
X529555Y53031D02*
X533079D01*
X543039Y62992*
X550677*
X551307Y63622*
X529555Y63031D02*
X532843D01*
X543827Y74016*
X550913*
X551307Y73622*
X533748Y120866D02*
Y120472D01*
X539890*
X548000Y129921*
X553984*
X554299Y129606*
X555638*
X533748Y130866D02*
X535559D01*
Y130630*
X542646Y136929*
Y145197*
X546976Y149528*
X554772*
X554850Y149606*
X555638*
X551307Y43622D02*
X547528D01*
X547449Y43701*
X546976*
X539496Y36220*
Y29134*
X538315Y27953*
D02*
D17*
X13906Y307480D03*
Y327165D03*
Y338976D03*
Y386220D03*
Y398031D03*
Y417717D03*
X15402Y156850D03*
Y167087D03*
Y174961D03*
Y186772D03*
Y198583D03*
Y222205D03*
Y245827D03*
Y257638D03*
Y269449D03*
Y277323D03*
Y286772D03*
X15874Y437598D03*
Y457283D03*
Y469094D03*
Y516339D03*
Y528150D03*
Y547835D03*
X16189Y210394D03*
Y234016D03*
X17173Y25787D03*
Y33661D03*
Y45472D03*
Y57283D03*
Y69094D03*
Y80906D03*
Y92717D03*
Y104528D03*
Y116339D03*
Y128150D03*
Y136024D03*
X22882Y210000D03*
X23276Y234409D03*
X24417Y70551D03*
Y94173D03*
X25244Y156850D03*
Y165118D03*
Y186772D03*
Y198583D03*
Y245827D03*
Y257638D03*
Y277323D03*
Y286772D03*
X25717Y327165D03*
Y338976D03*
Y386220D03*
Y398031D03*
X27685Y457283D03*
Y469094D03*
Y516339D03*
Y528150D03*
X30953Y45472D03*
Y57283D03*
Y104528D03*
Y116339D03*
X32724Y204488D03*
X36661Y237953D03*
X37055Y156850D03*
Y198583D03*
Y245827D03*
Y255669D03*
Y286772D03*
X37528Y307480D03*
Y327165D03*
Y338976D03*
Y386220D03*
Y398031D03*
Y417717D03*
X38630Y188740D03*
X39496Y437598D03*
Y457283D03*
Y469094D03*
Y516339D03*
Y528150D03*
Y547835D03*
X42764Y45472D03*
Y57283D03*
Y104528D03*
Y116339D03*
X46504Y234016D03*
X46898Y210394D03*
X47370Y307480D03*
Y315354D03*
Y327165D03*
Y338976D03*
Y350787D03*
Y362598D03*
Y374409D03*
Y386220D03*
Y398031D03*
Y409843D03*
Y417717D03*
X48039Y70551D03*
Y94173D03*
X48866Y156850D03*
Y167087D03*
Y186772D03*
Y198583D03*
Y245827D03*
Y257638D03*
Y277323D03*
Y286772D03*
X49339Y437598D03*
Y445472D03*
Y457283D03*
Y469094D03*
Y480906D03*
Y492717D03*
Y504528D03*
Y516339D03*
Y528150D03*
Y539961D03*
Y547835D03*
X56543Y25787D03*
Y33661D03*
Y45472D03*
Y57283D03*
Y69094D03*
Y92717D03*
Y104528D03*
Y116339D03*
Y128150D03*
Y136024D03*
X58315Y204488D03*
Y237953D03*
Y245827D03*
Y253701D03*
Y261575D03*
X62252Y196614D03*
Y212362D03*
Y232047D03*
Y287165D03*
X67055Y307480D03*
Y315354D03*
Y327165D03*
Y338976D03*
Y350787D03*
Y362598D03*
Y374409D03*
Y386220D03*
Y398031D03*
Y409843D03*
Y417717D03*
X68157Y204488D03*
X68354Y57283D03*
Y69094D03*
Y92717D03*
Y104528D03*
X69024Y437598D03*
Y445472D03*
Y457283D03*
Y469094D03*
Y480906D03*
Y492717D03*
Y504528D03*
Y516339D03*
Y528150D03*
Y539961D03*
Y547835D03*
X69732Y261575D03*
X70126Y212362D03*
Y253701D03*
X72094Y232047D03*
Y237953D03*
X72488Y247795D03*
X74063Y196614D03*
Y287165D03*
X78000Y204488D03*
Y212362D03*
X80362Y237953D03*
X80835Y327165D03*
Y338976D03*
Y386220D03*
Y398031D03*
X82134Y57283D03*
Y69094D03*
Y92717D03*
Y104528D03*
X82803Y457283D03*
Y469094D03*
Y516339D03*
Y528150D03*
X83906Y196614D03*
X85874Y287165D03*
X87843Y204488D03*
Y212362D03*
Y232047D03*
X89811Y263543D03*
X91780Y196614D03*
X92646Y327165D03*
Y338976D03*
Y386220D03*
Y398031D03*
X93945Y57283D03*
Y69094D03*
Y92717D03*
Y104528D03*
X94614Y457283D03*
Y469094D03*
Y516339D03*
Y528150D03*
X95323Y230079D03*
X97685Y204094D03*
Y287165D03*
X101622Y196614D03*
X104378Y204094D03*
X105559Y234016D03*
X105756Y25787D03*
Y33661D03*
Y45472D03*
Y57283D03*
Y69094D03*
Y92717D03*
Y104528D03*
Y116339D03*
Y128150D03*
Y136024D03*
X106425Y307480D03*
Y315354D03*
Y327165D03*
Y338976D03*
Y350787D03*
Y374409D03*
Y386220D03*
Y398031D03*
Y409843D03*
Y417717D03*
X107528Y263543D03*
X108394Y437598D03*
Y445472D03*
Y457283D03*
Y469094D03*
Y480906D03*
Y504528D03*
Y516339D03*
Y528150D03*
Y539961D03*
Y547835D03*
X109496Y157244D03*
Y167087D03*
Y178898D03*
Y188740D03*
Y230079D03*
Y237953D03*
Y249764D03*
Y287165D03*
X110087Y197244D03*
X113709Y69094D03*
X114496Y92717D03*
X117370Y259606D03*
X118236Y338976D03*
Y350787D03*
Y386220D03*
Y469094D03*
Y480906D03*
X119339Y287165D03*
X119535Y45472D03*
Y57283D03*
Y104528D03*
Y116339D03*
X120205Y504528D03*
Y516339D03*
X121307Y157244D03*
X123079Y195433D03*
X123276Y228110D03*
Y239921D03*
Y253701D03*
X127685Y359449D03*
X129181Y287165D03*
X129654Y212272D03*
X131346Y45472D03*
Y57283D03*
Y104528D03*
Y116339D03*
X132016Y338976D03*
Y350787D03*
Y386220D03*
Y469094D03*
Y480906D03*
Y504528D03*
Y516339D03*
X133118Y157244D03*
X135087Y186772D03*
Y194646D03*
Y204488D03*
Y216299D03*
Y228110D03*
Y239921D03*
Y253701D03*
X137331Y69094D03*
Y92717D03*
X139024Y287165D03*
X143827Y338976D03*
Y350787D03*
X144220Y373819D03*
X144929Y157244D03*
Y167087D03*
Y178898D03*
Y188740D03*
Y198583D03*
Y210394D03*
Y222205D03*
Y234016D03*
Y245827D03*
Y257638D03*
Y271417D03*
Y283228D03*
X145126Y25787D03*
Y33661D03*
Y45472D03*
Y57283D03*
Y69094D03*
Y80906D03*
Y92717D03*
Y104528D03*
Y116339D03*
Y128150D03*
Y136024D03*
X145795Y386220D03*
Y469094D03*
Y480906D03*
Y504528D03*
Y516339D03*
X147370Y377953D03*
X155638Y307480D03*
Y315354D03*
Y327165D03*
Y338976D03*
Y350787D03*
Y374409D03*
Y386220D03*
Y398031D03*
Y409843D03*
Y417717D03*
X157606Y437598D03*
Y445472D03*
Y457283D03*
Y469094D03*
Y480906D03*
Y504528D03*
Y516339D03*
Y528150D03*
Y539961D03*
Y547835D03*
X164929Y6614D03*
Y18425D03*
Y30236D03*
X167016Y157520D03*
Y169331D03*
Y181142D03*
Y261850D03*
Y273661D03*
Y285472D03*
X168866Y110945D03*
Y122756D03*
Y134567D03*
X169417Y327165D03*
Y338976D03*
Y386220D03*
Y398031D03*
X171386Y457283D03*
Y469094D03*
Y516339D03*
Y528150D03*
X174614Y6614D03*
X174732Y210630D03*
Y234252D03*
X174969Y58819D03*
Y82441D03*
X176701Y157520D03*
X180638Y285472D03*
X181228Y327165D03*
Y338976D03*
Y386220D03*
Y398031D03*
X183197Y457283D03*
Y469094D03*
Y516339D03*
Y528150D03*
X186425Y6614D03*
Y134567D03*
X188512Y157520D03*
X195008Y307480D03*
Y315354D03*
Y327165D03*
Y338976D03*
Y350787D03*
Y362598D03*
Y374409D03*
Y386220D03*
Y398031D03*
Y409843D03*
Y417717D03*
X196976Y437598D03*
Y445472D03*
Y457283D03*
Y469094D03*
Y480906D03*
Y492717D03*
Y504528D03*
Y516339D03*
Y528150D03*
Y539961D03*
Y547835D03*
X198354Y234252D03*
X198591Y58819D03*
Y82835D03*
X198748Y210630D03*
X200047Y6614D03*
Y18425D03*
Y30236D03*
X200323Y261850D03*
Y273661D03*
Y285472D03*
X202134Y157520D03*
Y169331D03*
Y181142D03*
X202173Y110945D03*
Y122756D03*
Y134567D03*
X214693Y307480D03*
Y315354D03*
Y327165D03*
Y338976D03*
Y350787D03*
Y362598D03*
Y374409D03*
Y386220D03*
Y398031D03*
Y409843D03*
Y417717D03*
X215953Y6614D03*
Y18425D03*
Y30236D03*
Y110945D03*
Y122756D03*
Y134567D03*
X216071Y285472D03*
X216661Y437598D03*
Y445472D03*
Y457283D03*
Y469094D03*
Y480906D03*
Y492717D03*
Y504528D03*
Y516339D03*
Y528150D03*
Y539961D03*
Y547835D03*
X218039Y157520D03*
X224535Y307480D03*
Y327165D03*
Y338976D03*
Y386220D03*
Y398031D03*
Y417717D03*
X226504Y437598D03*
Y457283D03*
Y469094D03*
Y516339D03*
Y528150D03*
Y547835D03*
X231701Y6614D03*
Y18425D03*
Y30236D03*
Y110945D03*
Y122756D03*
Y134567D03*
X231819Y285472D03*
X233787Y157520D03*
X236346Y327165D03*
Y338976D03*
Y386220D03*
Y398031D03*
X238315Y457283D03*
Y469094D03*
Y516339D03*
Y528150D03*
X247449Y6614D03*
Y18425D03*
Y30236D03*
Y110945D03*
Y122756D03*
Y134567D03*
X247567Y275630D03*
Y285472D03*
X248157Y307480D03*
Y327165D03*
Y338976D03*
Y386220D03*
Y398031D03*
Y417717D03*
X249535Y157520D03*
X250126Y437598D03*
Y457283D03*
Y469094D03*
Y516339D03*
Y528150D03*
Y547835D03*
X262921Y194882D03*
X263197Y6614D03*
Y18425D03*
Y30236D03*
Y110945D03*
Y122756D03*
Y134567D03*
X263315Y285472D03*
X265283Y157520D03*
X271976Y307480D03*
Y327165D03*
Y338976D03*
Y386220D03*
Y398031D03*
Y417717D03*
Y437598D03*
Y457283D03*
Y469094D03*
Y516339D03*
Y528150D03*
Y547835D03*
X275126Y263819D03*
X278945Y6614D03*
Y18425D03*
Y30236D03*
Y110945D03*
Y122756D03*
Y134567D03*
X279063Y285472D03*
X281031Y157520D03*
X283787Y327165D03*
Y338976D03*
Y386220D03*
Y398031D03*
Y457283D03*
Y469094D03*
Y516339D03*
Y528150D03*
X284575Y244488D03*
Y255118D03*
X293630Y275984D03*
X294693Y6614D03*
Y18425D03*
Y30236D03*
Y110945D03*
Y122756D03*
Y134567D03*
X294811Y285472D03*
X295598Y307480D03*
Y327165D03*
Y338976D03*
Y386220D03*
Y398031D03*
Y417717D03*
Y437598D03*
Y457283D03*
Y469094D03*
Y516339D03*
Y528150D03*
Y547835D03*
X296780Y157520D03*
X300717Y275630D03*
X305441Y307480D03*
Y315354D03*
Y327165D03*
Y338976D03*
Y350787D03*
Y362598D03*
Y374409D03*
Y386220D03*
Y398031D03*
Y409843D03*
Y417717D03*
Y437598D03*
Y445472D03*
Y457283D03*
Y469094D03*
Y480906D03*
Y492717D03*
Y504528D03*
Y516339D03*
Y528150D03*
Y539961D03*
Y547835D03*
X310441Y6614D03*
Y18425D03*
Y30236D03*
Y110945D03*
Y122756D03*
Y134567D03*
X310559Y261850D03*
Y273661D03*
Y285472D03*
X312528Y157520D03*
X320008Y213386D03*
X325126Y307480D03*
Y315354D03*
Y327165D03*
Y338976D03*
Y350787D03*
Y362598D03*
Y374409D03*
Y386220D03*
Y398031D03*
Y409843D03*
Y417717D03*
Y437598D03*
Y445472D03*
Y457283D03*
Y469094D03*
Y480906D03*
Y492717D03*
Y504528D03*
Y516339D03*
Y528150D03*
Y539961D03*
Y547835D03*
X326189Y6614D03*
Y18425D03*
Y30236D03*
Y110945D03*
Y122756D03*
Y134567D03*
X326307Y261850D03*
Y273661D03*
Y285472D03*
X328276Y157520D03*
X338906Y327165D03*
Y338976D03*
Y386220D03*
Y398031D03*
Y457283D03*
Y469094D03*
Y516339D03*
Y528150D03*
X341937Y6614D03*
Y18425D03*
Y30236D03*
Y110945D03*
Y122756D03*
Y134567D03*
X342055Y261850D03*
Y273661D03*
Y285472D03*
X344024Y157520D03*
X347961Y212992D03*
X350717Y327165D03*
Y338976D03*
Y386220D03*
Y398031D03*
Y457283D03*
Y469094D03*
Y516339D03*
Y528150D03*
X357685Y110945D03*
Y122756D03*
Y134567D03*
X357803Y261850D03*
Y273661D03*
Y285472D03*
X359654Y6614D03*
X359811Y18425D03*
Y30236D03*
X361740Y157520D03*
X361898Y169331D03*
Y181142D03*
X363709Y234252D03*
X363945Y58425D03*
Y82835D03*
X364102Y210630D03*
X364496Y307480D03*
Y315354D03*
Y327165D03*
Y338976D03*
Y350787D03*
Y374409D03*
Y386220D03*
Y398031D03*
Y409843D03*
Y417717D03*
Y437598D03*
Y445472D03*
Y457283D03*
Y469094D03*
Y480906D03*
Y504528D03*
Y516339D03*
Y528150D03*
Y539961D03*
Y547835D03*
X369496Y6614D03*
X371583Y157520D03*
X372370Y338976D03*
Y384252D03*
X373433Y134567D03*
X373551Y285472D03*
X374339Y469094D03*
Y480906D03*
X376307Y504528D03*
Y516339D03*
X378276Y350787D03*
Y374409D03*
X381307Y6614D03*
X383394Y157520D03*
X384181Y338976D03*
Y384252D03*
X387173Y58819D03*
Y82835D03*
X387331Y210630D03*
X387724Y234646D03*
X388118Y469094D03*
Y480906D03*
Y504528D03*
Y516339D03*
X389181Y134567D03*
X389299Y285472D03*
X390087Y350787D03*
Y374409D03*
X394929Y6614D03*
Y18425D03*
Y30236D03*
X395992Y338976D03*
Y384252D03*
X397016Y157520D03*
Y169331D03*
Y181142D03*
X397055Y110945D03*
Y122756D03*
X397173Y261850D03*
Y273661D03*
X401898Y350787D03*
Y374409D03*
Y469094D03*
Y480906D03*
Y504528D03*
Y516339D03*
X407803Y338976D03*
Y384252D03*
X413709Y350787D03*
Y374409D03*
Y437598D03*
Y445472D03*
Y457283D03*
Y469094D03*
Y480906D03*
Y504528D03*
Y516339D03*
Y528150D03*
Y539961D03*
Y547835D03*
X417843Y159252D03*
Y176969D03*
Y190748D03*
Y212402D03*
Y222244D03*
Y237992D03*
Y253740D03*
Y267520D03*
X419614Y338976D03*
Y384252D03*
X419811Y104134D03*
Y112008D03*
Y277362D03*
Y285236D03*
X425520Y350787D03*
Y374409D03*
X427488Y457283D03*
Y469094D03*
Y516339D03*
Y528150D03*
X427685Y119882D03*
Y135630D03*
Y151378D03*
X431425Y338976D03*
Y384252D03*
X437331Y350787D03*
Y374409D03*
X438315Y210039D03*
X439299Y457283D03*
Y469094D03*
Y516339D03*
Y528150D03*
X439496Y188386D03*
X443236Y338976D03*
Y384252D03*
X446189Y197441D03*
X447370Y222244D03*
Y230118D03*
X449142Y350787D03*
Y374409D03*
X450126Y189961D03*
X451307Y257677D03*
X452094Y249803D03*
X453079Y437598D03*
Y445472D03*
Y457283D03*
Y469094D03*
Y480906D03*
Y492717D03*
Y504528D03*
Y516339D03*
Y528150D03*
Y539961D03*
Y547835D03*
X455047Y338976D03*
Y384252D03*
X456425Y120276D03*
Y135630D03*
Y151378D03*
Y167126D03*
Y182874D03*
X457213Y265551D03*
X459181Y230118D03*
X461150Y223425D03*
Y257677D03*
X462921Y307480D03*
Y315354D03*
Y327165D03*
Y338976D03*
Y350787D03*
Y374409D03*
Y386220D03*
Y398031D03*
Y409843D03*
Y417717D03*
X463118Y189961D03*
X469024Y249803D03*
X470598Y350787D03*
Y374409D03*
X472764Y437598D03*
Y445472D03*
Y457283D03*
Y469094D03*
Y480906D03*
Y492717D03*
Y504528D03*
Y516339D03*
Y528150D03*
Y539961D03*
Y547835D03*
X472961Y191929D03*
X473748Y221260D03*
X476701Y327165D03*
Y338976D03*
Y386220D03*
Y398031D03*
X477291Y135630D03*
Y151378D03*
Y167126D03*
Y182874D03*
X478866Y123819D03*
X479575Y249803D03*
X479654Y226378D03*
X482606Y437598D03*
Y457283D03*
Y469094D03*
Y516339D03*
Y528150D03*
Y547835D03*
X488512Y327165D03*
Y338976D03*
Y386220D03*
Y398031D03*
X488709Y257677D03*
X492646Y112008D03*
Y127756D03*
Y143504D03*
Y159252D03*
Y175000D03*
Y190748D03*
Y265551D03*
X493354Y216732D03*
Y250197D03*
X494220Y374409D03*
X494417Y350984D03*
Y457283D03*
Y469094D03*
Y516339D03*
Y528150D03*
X494614Y104134D03*
Y277362D03*
Y285236D03*
X502291Y307480D03*
Y315354D03*
Y327165D03*
Y338976D03*
Y350787D03*
Y362598D03*
Y374409D03*
Y386220D03*
Y398031D03*
Y409843D03*
Y417717D03*
X506228Y437598D03*
Y457283D03*
Y469094D03*
Y516339D03*
Y528150D03*
Y547835D03*
D02*
D18*
X101622Y245972D03*
D03*
X121316Y217323D03*
X426504Y43031D03*
X432311Y33031D03*
Y43031D03*
Y53031D03*
Y63031D03*
X493433Y201772D03*
X529260Y33071D03*
X529555Y43031D03*
Y53031D03*
Y63031D03*
X538315Y27953D03*
D02*
D19*
X98551Y362598D02*
X104063D01*
X162724D02*
X157213D01*
X237894Y70787D02*
X249602D01*
X249614Y70799*
X262567Y213177D02*
Y203791D01*
X283248Y70787D02*
X295902D01*
X295913Y70776*
X319587Y222283D02*
X319575Y222295D01*
X347972Y222323D02*
X347961Y222335D01*
X347972Y222323D02*
X347961Y222335D01*
X352291Y222323D02*
X347972D01*
D02*
D70*
X105402Y212823D02*
X105953Y212272D01*
X109693D02*
Y205700D01*
X110087Y205306*
X268591Y222177D02*
X269299D01*
X275469D02*
X275598Y222047D01*
X275469Y222177D02*
X275598Y222047D01*
X275469Y222177D02*
X275598Y222047D01*
X275469Y222177D02*
X275598Y222047D01*
X283500Y227193D02*
X283472Y227165D01*
X283500Y227193D02*
X283472Y227165D01*
X293776Y227193D02*
X293906Y227323D01*
D02*
D71*
X207685Y70787D02*
X215056D01*
X220156D02*
X228894D01*
X249614Y70799D02*
X260202D01*
X260214Y70787*
X265314D02*
X274248D01*
X295913Y70776D02*
X305359D01*
X305371Y70787*
X310471D02*
X319327D01*
D02*
D20*
X54772Y222126D02*
X60114D01*
X60193Y222047*
X69193D02*
X78248D01*
X78472Y221823*
X87472*
X87528Y221878D02*
X96134D01*
X215205Y222244D02*
X220075D01*
X229075D02*
X241846D01*
X262567Y222177D02*
X250913D01*
X250846Y222244*
X293591Y227193D02*
X302504D01*
X302516Y227205*
X311516D02*
X314665D01*
X319575Y222295*
X328327Y70787D02*
X339130D01*
X328933Y222283D02*
X319587D01*
X345402Y70787D02*
X339154D01*
X339142Y70799*
X347961Y222335D02*
X337984D01*
X337933Y222283*
D02*
D21*
X96134Y221878D02*
G75*
G02X96189Y221823J-55D01*
G01*
D02*
D22*
X543236Y121260D02*
X540874D01*
Y122638*
X541071Y123031*
X541465Y123228*
X541858Y123031*
X542055Y122638*
Y121260*
Y122638D02*
X543236Y123228D01*
X542646Y124409D02*
X543039Y124606D01*
X543236Y125000*
Y125787*
X543039Y126181*
X542646Y126378*
X542252Y126181*
X542055Y125787*
Y125000*
X541858Y124606*
X541465Y124409*
X541071Y124606*
X540874Y125000*
Y125787*
X541071Y126181*
X541465Y126378*
X543236Y128543D02*
X540874D01*
Y127559D02*
Y129528D01*
X543236Y137008D02*
X543433Y136811D01*
X543630Y136417*
Y135827*
X543433Y135433*
X543236Y135236*
X542843Y135039*
X542055*
X541661Y135236*
X541465Y135433*
X541268Y135827*
Y136417*
X541465Y136811*
X541661Y137008*
X541268Y138189D02*
X543630D01*
Y140157*
Y141339D02*
X541268D01*
X542449D02*
Y141929D01*
X541268Y143307*
X542449Y141929D02*
X543630Y143307D01*
X555638Y109646D02*
Y112008D01*
X557016*
X557409Y111811*
X557606Y111417*
X557409Y111024*
X557016Y110827*
X555638*
X558787Y112008D02*
X558984Y109646D01*
X559772Y110827*
X560559Y109646*
X560756Y112008*
X561937Y109646D02*
Y112008D01*
X563315*
X563709Y111811*
X563906Y111417*
X563709Y111024*
X563315Y110827*
X561937*
X563315D02*
X563906Y109646D01*
X557606Y80512D02*
Y82874D01*
X558984*
X559378Y82677*
X559575Y82283*
X559378Y81890*
X558984Y81693*
X557606*
X560756Y82874D02*
X560953Y80512D01*
X561740Y81693*
X562528Y80512*
X562724Y82874*
X563906Y80512D02*
Y82874D01*
X565283*
X565677Y82677*
X565874Y82283*
X565677Y81890*
X565283Y81693*
X563906*
X565283D02*
X565874Y80512D01*
X565677Y49606D02*
X565874Y49409D01*
X566071Y49016*
Y48425*
X565874Y48031*
X565677Y47835*
X565283Y47638*
X564496*
X564102Y47835*
X563906Y48031*
X563709Y48425*
Y49016*
X563906Y49409*
X564102Y49606*
X563709Y50787D02*
X566071D01*
Y52756*
Y53937D02*
X563709D01*
X564890D02*
Y54528D01*
X563709Y55906*
X564890Y54528D02*
X566071Y55906D01*
X566465Y58661D02*
X564102D01*
Y60039*
X564299Y60433*
X564693Y60630*
X565087Y60433*
X565283Y60039*
Y58661*
Y60039D02*
X566465Y60630D01*
X565874Y61811D02*
X566268Y62008D01*
X566465Y62402*
Y63189*
X566268Y63583*
X565874Y63780*
X565480Y63583*
X565283Y63189*
Y62402*
X565087Y62008*
X564693Y61811*
X564299Y62008*
X564102Y62402*
Y63189*
X564299Y63583*
X564693Y63780*
X566465Y65945D02*
X564102D01*
Y64961D02*
Y66929D01*
D02*
D23*
X34772Y222126D03*
X36858Y80906D03*
X125441D03*
X186543Y70787D03*
X186701Y222244D03*
X375520Y70787D03*
X375598Y222323D03*
X482528Y362598D03*
D02*
D24*
X22961Y210315D03*
Y233937D03*
X25047Y69094D03*
Y92717D03*
X46583Y210315D03*
Y233937D03*
X48669Y69094D03*
Y92717D03*
X113630Y69094D03*
Y92717D03*
X137252Y69094D03*
Y92717D03*
X174732Y58976D03*
Y82598D03*
X174890Y210433D03*
Y234055D03*
X198354Y58976D03*
Y82598D03*
X198512Y210433D03*
Y234055D03*
X363709Y58976D03*
Y82598D03*
X363787Y210512D03*
Y234134D03*
X387331Y58976D03*
Y82598D03*
X387409Y210512D03*
Y234134D03*
X470717Y350787D03*
Y374409D03*
X494339Y350787D03*
Y374409D03*
D02*
D25*
X27606Y409921D03*
X27685Y315433D03*
X29575Y540039D03*
X29654Y445551D03*
X34693Y269449D03*
X34772Y174961D03*
X36780Y128228D03*
X36858Y33740D03*
X86661Y409921D03*
X86740Y315433D03*
X88630Y540039D03*
X88709Y445551D03*
X125362Y128228D03*
X125441Y33740D03*
X129181Y269291D03*
X129260Y174803D03*
X175323Y409764D03*
X175402Y315276D03*
X177213Y539961D03*
X177291Y445472D03*
X186465Y118110D03*
X186543Y23622D03*
X186622Y269567D03*
X186701Y175079D03*
X234378Y409764D03*
X234457Y315276D03*
X236268Y539961D03*
X236346Y445472D03*
X285677Y409921D03*
X285756Y315433D03*
X285874Y540039D03*
X285953Y445551D03*
X344732Y409921D03*
X344811Y315433D03*
X344929Y540039D03*
X345008Y445551D03*
X375520Y117953D03*
X375598Y23465D03*
Y269488D03*
X375677Y175000D03*
X433512Y540039D03*
X433591Y445551D03*
X482449Y409921D03*
X482528Y315433D03*
X492567Y540039D03*
X492646Y445551D03*
D02*
D26*
X15874Y350787D03*
Y374409D03*
X17843Y480906D03*
Y504528D03*
X27685Y362598D03*
X29654Y492717D03*
X39496Y350787D03*
Y374409D03*
X41465Y480906D03*
Y504528D03*
X74929Y350787D03*
Y374409D03*
X76898Y480906D03*
Y504528D03*
X86740Y362598D03*
X88709Y492717D03*
X98551Y350787D03*
Y374409D03*
X100520Y480906D03*
Y504528D03*
X163512Y350787D03*
Y374409D03*
X165402Y480984D03*
Y504606D03*
X175323Y362598D03*
X177213Y492795D03*
X187134Y350787D03*
Y374409D03*
X189024Y480984D03*
Y504606D03*
X222567Y350787D03*
Y374409D03*
X224457Y480984D03*
Y504606D03*
X234378Y362598D03*
X236268Y492795D03*
X246189Y350787D03*
Y374409D03*
X248079Y480984D03*
Y504606D03*
X273945Y350787D03*
Y374409D03*
X274142Y480906D03*
Y504528D03*
X285756Y362598D03*
X285953Y492717D03*
X297567Y350787D03*
Y374409D03*
X297764Y480906D03*
Y504528D03*
X333000Y350787D03*
Y374409D03*
X333197Y480906D03*
Y504528D03*
X344811Y362598D03*
X345008Y492717D03*
X356622Y350787D03*
Y374409D03*
X356819Y480906D03*
Y504528D03*
X421780Y480906D03*
Y504528D03*
X433591Y492717D03*
X445402Y480906D03*
Y504528D03*
X480835Y480906D03*
Y504528D03*
X492646Y492717D03*
X504457Y480906D03*
Y504528D03*
D02*
D27*
X110087Y200206D03*
Y205306D03*
X113118Y373828D03*
Y378928D03*
X119024Y362804D03*
Y367904D03*
Y373828D03*
Y378928D03*
X124535Y368316D03*
Y373416D03*
X130047Y368316D03*
Y373416D03*
X135953Y362804D03*
Y367904D03*
Y373828D03*
Y378928D03*
X141071Y373828D03*
Y378928D03*
X147370Y368316D03*
Y373416D03*
X152882Y362804D03*
Y367904D03*
X249614Y49222D03*
Y54322D03*
X295913Y87253D03*
Y92353D03*
X339142Y49222D03*
Y54322D03*
D02*
D28*
X108600Y362598D03*
X110293Y204791D03*
X113700Y362598D03*
X115393Y204791D03*
X121316Y212272D03*
X126416D03*
X142064Y362598D03*
X147164D03*
X215056Y70787D03*
X220156D03*
X260214D03*
X265314D03*
X305371D03*
X310471D03*
D02*
D29*
X78000Y245972D03*
Y254972D03*
X78472Y212823D03*
Y221823D03*
X87528Y221878D03*
Y230878D03*
X89811Y245972D03*
Y254972D03*
X96189Y212823D03*
Y221823D03*
X101622Y245972D03*
Y254972D03*
X123079Y195567D03*
Y204567D03*
X249614Y61799D03*
Y70799D03*
X262567Y194791D03*
Y203791D03*
Y213177D03*
Y222177D03*
X293591Y227193D03*
Y236193D03*
X295913Y70776D03*
Y79776D03*
X319575Y213295D03*
Y222295D03*
X339142Y61799D03*
Y70799D03*
X347961Y213335D03*
Y222335D03*
X438236Y235539D03*
Y244539D03*
X438315Y215776D03*
Y224776D03*
X452016Y235736D03*
Y244736D03*
X465795Y235539D03*
Y244539D03*
X469732Y172547D03*
Y181547D03*
Y255224D03*
Y264224D03*
X479575Y235539D03*
Y244539D03*
Y255224D03*
Y264224D03*
X485480Y172547D03*
Y181547D03*
X493354Y202075D03*
Y211075D03*
Y235539D03*
Y244539D03*
D02*
D72*
X60193Y222047D03*
X69193D03*
X220075Y222244D03*
X228894Y70787D03*
X229075Y222244D03*
X237894Y70787D03*
X241846Y222244D03*
X250846D03*
X274248Y70787D03*
X283248D03*
X284406Y265787D03*
Y275630D03*
X284524Y244646D03*
X284563Y255000D03*
X293406Y265787D03*
Y275630D03*
X293524Y244646D03*
X293563Y255000D03*
X302516Y227205D03*
X311516D03*
X319327Y70787D03*
X328327D03*
X328933Y222283D03*
X337933D03*
X417280Y204528D03*
X426280D03*
D02*
D73*
X60283Y277323D03*
X70283D03*
X80283D03*
X90283D03*
X100283D03*
X110283D03*
X432213Y108071D03*
Y281299D03*
X442213Y108071D03*
Y281299D03*
X452213Y108071D03*
Y281299D03*
X462213Y108071D03*
Y281299D03*
X472213Y108071D03*
Y281299D03*
X482213Y108071D03*
Y281299D03*
D02*
D74*
X439496Y192717D03*
Y204528D03*
D02*
D75*
X105953Y212272D03*
Y222508D03*
X109693Y212272D03*
Y222508D03*
X113433Y212272D03*
Y222508D03*
D02*
D76*
X451504Y199606D03*
Y201575D03*
Y203543D03*
Y205512D03*
Y207480D03*
Y209449D03*
Y211417D03*
Y213386D03*
X470795Y199606D03*
Y201575D03*
Y203543D03*
Y205512D03*
Y207480D03*
Y209449D03*
Y211417D03*
Y213386D03*
D02*
D77*
X454260Y196850D03*
Y216142D03*
X456228Y196850D03*
Y216142D03*
X458197Y196850D03*
Y216142D03*
X460165Y196850D03*
Y216142D03*
X462134Y196850D03*
Y216142D03*
X464102Y196850D03*
Y216142D03*
X466071Y196850D03*
Y216142D03*
X468039Y196850D03*
Y216142D03*
D02*
D78*
X461150Y206496D03*
D02*
D79*
X275598Y222047D03*
Y224606D03*
Y227165D03*
X283472Y222047D03*
Y224606D03*
Y227165D03*
D02*
D80*
X212213Y277441D03*
X222213D03*
X232213D03*
X523748Y120866D03*
Y130866D03*
Y140866D03*
Y150866D03*
Y160866D03*
Y170866D03*
Y180866D03*
Y190866D03*
X533748Y120866D03*
Y130866D03*
Y140866D03*
Y150866D03*
Y160866D03*
Y170866D03*
Y180866D03*
Y190866D03*
D02*
D81*
X432311Y33031D03*
Y43031D03*
Y53031D03*
Y63031D03*
X529555Y33031D03*
Y43031D03*
Y53031D03*
Y63031D03*
D02*
D82*
X551307Y23622D03*
Y33622D03*
Y43622D03*
Y53622D03*
Y63622D03*
Y73622D03*
X555638Y119606D03*
Y129606D03*
Y139606D03*
Y149606D03*
Y159606D03*
Y169606D03*
X0Y0D02*
M02*
