G04 DesignSpark PCB Gerber Version 9.0 Build 5115 *
G04 #@! TF.Part,Single*
G04 #@! TF.FileFunction,Soldermask,Top *
G04 #@! TF.FilePolarity,Negative *
%FSLAX35Y35*%
%MOIN*%
G04 #@! TA.AperFunction,ComponentPad*
%ADD94O,0.06600X0.11600*%
G04 #@! TA.AperFunction,SMDPad,CuDef*
%ADD98R,0.01781X0.03946*%
%ADD96R,0.02765X0.04734*%
%ADD90R,0.03400X0.04100*%
%ADD92R,0.06100X0.06600*%
G04 #@! TA.AperFunction,ComponentPad*
%ADD101R,0.06600X0.06600*%
G04 #@! TA.AperFunction,SMDPad,CuDef*
%ADD99R,0.11624X0.11624*%
G04 #@! TA.AperFunction,ViaPad*
%ADD84C,0.02569*%
%ADD83C,0.03946*%
%ADD85C,0.04600*%
G04 #@! TA.AperFunction,ComponentPad*
%ADD103O,0.11600X0.06600*%
G04 #@! TA.AperFunction,SMDPad,CuDef*
%ADD97R,0.03946X0.01781*%
%ADD100R,0.04340X0.02175*%
%ADD91R,0.04100X0.03400*%
%ADD95R,0.07687X0.05128*%
%ADD102R,0.06506X0.05718*%
%ADD93R,0.06600X0.06100*%
G04 #@! TA.AperFunction,ComponentPad*
%ADD89C,0.08474*%
G04 #@! TA.AperFunction,SMDPad,CuDef*
%ADD86C,0.08671*%
%ADD87R,0.10443X0.10443*%
G04 #@! TA.AperFunction,ComponentPad*
%ADD88C,0.18317*%
X0Y0D02*
D02*
D83*
X13906Y307480D03*
Y327165D03*
Y338976D03*
Y386220D03*
Y398031D03*
Y417717D03*
X15402Y156850D03*
Y167087D03*
Y174961D03*
Y186772D03*
Y198583D03*
Y222205D03*
Y245827D03*
Y257638D03*
Y269449D03*
Y277323D03*
Y286772D03*
X15874Y437598D03*
Y457283D03*
Y469094D03*
Y516339D03*
Y528150D03*
Y547835D03*
X16189Y210394D03*
Y234016D03*
X17173Y25787D03*
Y33661D03*
Y45472D03*
Y57283D03*
Y69094D03*
Y80906D03*
Y92717D03*
Y104528D03*
Y116339D03*
Y128150D03*
Y136024D03*
X22882Y210000D03*
X23276Y234409D03*
X24417Y70551D03*
Y94173D03*
X25244Y156850D03*
Y165118D03*
Y186772D03*
Y198583D03*
Y245827D03*
Y257638D03*
Y277323D03*
Y286772D03*
X25717Y327165D03*
Y338976D03*
Y386220D03*
Y398031D03*
X27685Y457283D03*
Y469094D03*
Y516339D03*
Y528150D03*
X30953Y45472D03*
Y57283D03*
Y104528D03*
Y116339D03*
X32724Y204488D03*
X36661Y237953D03*
X37055Y156850D03*
Y198583D03*
Y245827D03*
Y255669D03*
Y286772D03*
X37528Y307480D03*
Y327165D03*
Y338976D03*
Y386220D03*
Y398031D03*
Y417717D03*
X38630Y188740D03*
X39496Y437598D03*
Y457283D03*
Y469094D03*
Y516339D03*
Y528150D03*
Y547835D03*
X42764Y45472D03*
Y57283D03*
Y104528D03*
Y116339D03*
X46504Y234016D03*
X46898Y210394D03*
X47370Y307480D03*
Y315354D03*
Y327165D03*
Y338976D03*
Y350787D03*
Y362598D03*
Y374409D03*
Y386220D03*
Y398031D03*
Y409843D03*
Y417717D03*
X48039Y70551D03*
Y94173D03*
X48866Y156850D03*
Y167087D03*
Y186772D03*
Y198583D03*
Y245827D03*
Y257638D03*
Y277323D03*
Y286772D03*
X49339Y437598D03*
Y445472D03*
Y457283D03*
Y469094D03*
Y480906D03*
Y492717D03*
Y504528D03*
Y516339D03*
Y528150D03*
Y539961D03*
Y547835D03*
X56543Y25787D03*
Y33661D03*
Y45472D03*
Y57283D03*
Y69094D03*
Y92717D03*
Y104528D03*
Y116339D03*
Y128150D03*
Y136024D03*
X58315Y204488D03*
Y237953D03*
Y245827D03*
Y253701D03*
Y261575D03*
X62252Y196614D03*
Y212362D03*
Y232047D03*
Y287165D03*
X67055Y307480D03*
Y315354D03*
Y327165D03*
Y338976D03*
Y350787D03*
Y362598D03*
Y374409D03*
Y386220D03*
Y398031D03*
Y409843D03*
Y417717D03*
X68157Y204488D03*
X68354Y57283D03*
Y69094D03*
Y92717D03*
Y104528D03*
X69024Y437598D03*
Y445472D03*
Y457283D03*
Y469094D03*
Y480906D03*
Y492717D03*
Y504528D03*
Y516339D03*
Y528150D03*
Y539961D03*
Y547835D03*
X69732Y261575D03*
X70126Y212362D03*
Y253701D03*
X72094Y232047D03*
Y237953D03*
X72488Y247795D03*
X74063Y196614D03*
Y287165D03*
X78000Y204488D03*
Y212362D03*
X80362Y237953D03*
X80835Y327165D03*
Y338976D03*
Y386220D03*
Y398031D03*
X82134Y57283D03*
Y69094D03*
Y92717D03*
Y104528D03*
X82803Y457283D03*
Y469094D03*
Y516339D03*
Y528150D03*
X83906Y196614D03*
X85874Y287165D03*
X87843Y204488D03*
Y212362D03*
Y232047D03*
X89811Y263543D03*
X91780Y196614D03*
X92646Y327165D03*
Y338976D03*
Y386220D03*
Y398031D03*
X93945Y57283D03*
Y69094D03*
Y92717D03*
Y104528D03*
X94614Y457283D03*
Y469094D03*
Y516339D03*
Y528150D03*
X95323Y230079D03*
X97685Y204094D03*
Y287165D03*
X101622Y196614D03*
X104378Y204094D03*
X105559Y234016D03*
X105756Y25787D03*
Y33661D03*
Y45472D03*
Y57283D03*
Y69094D03*
Y92717D03*
Y104528D03*
Y116339D03*
Y128150D03*
Y136024D03*
X106425Y307480D03*
Y315354D03*
Y327165D03*
Y338976D03*
Y350787D03*
Y374409D03*
Y386220D03*
Y398031D03*
Y409843D03*
Y417717D03*
X107528Y263543D03*
X108394Y437598D03*
Y445472D03*
Y457283D03*
Y469094D03*
Y480906D03*
Y504528D03*
Y516339D03*
Y528150D03*
Y539961D03*
Y547835D03*
X109496Y157244D03*
Y167087D03*
Y178898D03*
Y188740D03*
Y230079D03*
Y237953D03*
Y249764D03*
Y287165D03*
X110087Y197244D03*
X113709Y69094D03*
X114496Y92717D03*
X117370Y259606D03*
X118236Y338976D03*
Y350787D03*
Y386220D03*
Y469094D03*
Y480906D03*
X119339Y287165D03*
X119535Y45472D03*
Y57283D03*
Y104528D03*
Y116339D03*
X120205Y504528D03*
Y516339D03*
X121307Y157244D03*
X123079Y195433D03*
X123276Y228110D03*
Y239921D03*
Y253701D03*
X127685Y359449D03*
X129181Y287165D03*
X129654Y212272D03*
X131346Y45472D03*
Y57283D03*
Y104528D03*
Y116339D03*
X132016Y338976D03*
Y350787D03*
Y386220D03*
Y469094D03*
Y480906D03*
Y504528D03*
Y516339D03*
X133118Y157244D03*
X135087Y186772D03*
Y194646D03*
Y204488D03*
Y216299D03*
Y228110D03*
Y239921D03*
Y253701D03*
X137331Y69094D03*
Y92717D03*
X139024Y287165D03*
X143827Y338976D03*
Y350787D03*
X144220Y373819D03*
X144929Y157244D03*
Y167087D03*
Y178898D03*
Y188740D03*
Y198583D03*
Y210394D03*
Y222205D03*
Y234016D03*
Y245827D03*
Y257638D03*
Y271417D03*
Y283228D03*
X145126Y25787D03*
Y33661D03*
Y45472D03*
Y57283D03*
Y69094D03*
Y80906D03*
Y92717D03*
Y104528D03*
Y116339D03*
Y128150D03*
Y136024D03*
X145795Y386220D03*
Y469094D03*
Y480906D03*
Y504528D03*
Y516339D03*
X147370Y377953D03*
X155638Y307480D03*
Y315354D03*
Y327165D03*
Y338976D03*
Y350787D03*
Y374409D03*
Y386220D03*
Y398031D03*
Y409843D03*
Y417717D03*
X157606Y437598D03*
Y445472D03*
Y457283D03*
Y469094D03*
Y480906D03*
Y504528D03*
Y516339D03*
Y528150D03*
Y539961D03*
Y547835D03*
X164929Y6614D03*
Y18425D03*
Y30236D03*
X167016Y157520D03*
Y169331D03*
Y181142D03*
Y261850D03*
Y273661D03*
Y285472D03*
X168866Y110945D03*
Y122756D03*
Y134567D03*
X169417Y327165D03*
Y338976D03*
Y386220D03*
Y398031D03*
X171386Y457283D03*
Y469094D03*
Y516339D03*
Y528150D03*
X174614Y6614D03*
X174732Y210630D03*
Y234252D03*
X174969Y58819D03*
Y82441D03*
X176701Y157520D03*
X180638Y285472D03*
X181228Y327165D03*
Y338976D03*
Y386220D03*
Y398031D03*
X183197Y457283D03*
Y469094D03*
Y516339D03*
Y528150D03*
X186425Y6614D03*
Y134567D03*
X188512Y157520D03*
X195008Y307480D03*
Y315354D03*
Y327165D03*
Y338976D03*
Y350787D03*
Y362598D03*
Y374409D03*
Y386220D03*
Y398031D03*
Y409843D03*
Y417717D03*
X196976Y437598D03*
Y445472D03*
Y457283D03*
Y469094D03*
Y480906D03*
Y492717D03*
Y504528D03*
Y516339D03*
Y528150D03*
Y539961D03*
Y547835D03*
X198354Y234252D03*
X198591Y58819D03*
Y82835D03*
X198748Y210630D03*
X200047Y6614D03*
Y18425D03*
Y30236D03*
X200323Y261850D03*
Y273661D03*
Y285472D03*
X202134Y157520D03*
Y169331D03*
Y181142D03*
X202173Y110945D03*
Y122756D03*
Y134567D03*
X214693Y307480D03*
Y315354D03*
Y327165D03*
Y338976D03*
Y350787D03*
Y362598D03*
Y374409D03*
Y386220D03*
Y398031D03*
Y409843D03*
Y417717D03*
X215953Y6614D03*
Y18425D03*
Y30236D03*
Y110945D03*
Y122756D03*
Y134567D03*
X216071Y285472D03*
X216661Y437598D03*
Y445472D03*
Y457283D03*
Y469094D03*
Y480906D03*
Y492717D03*
Y504528D03*
Y516339D03*
Y528150D03*
Y539961D03*
Y547835D03*
X218039Y157520D03*
X224535Y307480D03*
Y327165D03*
Y338976D03*
Y386220D03*
Y398031D03*
Y417717D03*
X226504Y437598D03*
Y457283D03*
Y469094D03*
Y516339D03*
Y528150D03*
Y547835D03*
X231701Y6614D03*
Y18425D03*
Y30236D03*
Y110945D03*
Y122756D03*
Y134567D03*
X231819Y285472D03*
X233787Y157520D03*
X236346Y327165D03*
Y338976D03*
Y386220D03*
Y398031D03*
X238315Y457283D03*
Y469094D03*
Y516339D03*
Y528150D03*
X247449Y6614D03*
Y18425D03*
Y30236D03*
Y110945D03*
Y122756D03*
Y134567D03*
X247567Y275630D03*
Y285472D03*
X248157Y307480D03*
Y327165D03*
Y338976D03*
Y386220D03*
Y398031D03*
Y417717D03*
X249535Y157520D03*
X250126Y437598D03*
Y457283D03*
Y469094D03*
Y516339D03*
Y528150D03*
Y547835D03*
X262921Y194882D03*
X263197Y6614D03*
Y18425D03*
Y30236D03*
Y110945D03*
Y122756D03*
Y134567D03*
X263315Y285472D03*
X265283Y157520D03*
X271976Y307480D03*
Y327165D03*
Y338976D03*
Y386220D03*
Y398031D03*
Y417717D03*
Y437598D03*
Y457283D03*
Y469094D03*
Y516339D03*
Y528150D03*
Y547835D03*
X275126Y263819D03*
X278945Y6614D03*
Y18425D03*
Y30236D03*
Y110945D03*
Y122756D03*
Y134567D03*
X279063Y285472D03*
X281031Y157520D03*
X283787Y327165D03*
Y338976D03*
Y386220D03*
Y398031D03*
Y457283D03*
Y469094D03*
Y516339D03*
Y528150D03*
X284575Y244488D03*
Y255118D03*
X293630Y275984D03*
X294693Y6614D03*
Y18425D03*
Y30236D03*
Y110945D03*
Y122756D03*
Y134567D03*
X294811Y285472D03*
X295598Y307480D03*
Y327165D03*
Y338976D03*
Y386220D03*
Y398031D03*
Y417717D03*
Y437598D03*
Y457283D03*
Y469094D03*
Y516339D03*
Y528150D03*
Y547835D03*
X296780Y157520D03*
X300717Y275630D03*
X305441Y307480D03*
Y315354D03*
Y327165D03*
Y338976D03*
Y350787D03*
Y362598D03*
Y374409D03*
Y386220D03*
Y398031D03*
Y409843D03*
Y417717D03*
Y437598D03*
Y445472D03*
Y457283D03*
Y469094D03*
Y480906D03*
Y492717D03*
Y504528D03*
Y516339D03*
Y528150D03*
Y539961D03*
Y547835D03*
X310441Y6614D03*
Y18425D03*
Y30236D03*
Y110945D03*
Y122756D03*
Y134567D03*
X310559Y261850D03*
Y273661D03*
Y285472D03*
X312528Y157520D03*
X320008Y213386D03*
X325126Y307480D03*
Y315354D03*
Y327165D03*
Y338976D03*
Y350787D03*
Y362598D03*
Y374409D03*
Y386220D03*
Y398031D03*
Y409843D03*
Y417717D03*
Y437598D03*
Y445472D03*
Y457283D03*
Y469094D03*
Y480906D03*
Y492717D03*
Y504528D03*
Y516339D03*
Y528150D03*
Y539961D03*
Y547835D03*
X326189Y6614D03*
Y18425D03*
Y30236D03*
Y110945D03*
Y122756D03*
Y134567D03*
X326307Y261850D03*
Y273661D03*
Y285472D03*
X328276Y157520D03*
X338906Y327165D03*
Y338976D03*
Y386220D03*
Y398031D03*
Y457283D03*
Y469094D03*
Y516339D03*
Y528150D03*
X341937Y6614D03*
Y18425D03*
Y30236D03*
Y110945D03*
Y122756D03*
Y134567D03*
X342055Y261850D03*
Y273661D03*
Y285472D03*
X344024Y157520D03*
X347961Y212992D03*
X350717Y327165D03*
Y338976D03*
Y386220D03*
Y398031D03*
Y457283D03*
Y469094D03*
Y516339D03*
Y528150D03*
X357685Y110945D03*
Y122756D03*
Y134567D03*
X357803Y261850D03*
Y273661D03*
Y285472D03*
X359654Y6614D03*
X359811Y18425D03*
Y30236D03*
X361740Y157520D03*
X361898Y169331D03*
Y181142D03*
X363709Y234252D03*
X363945Y58425D03*
Y82835D03*
X364102Y210630D03*
X364496Y307480D03*
Y315354D03*
Y327165D03*
Y338976D03*
Y350787D03*
Y374409D03*
Y386220D03*
Y398031D03*
Y409843D03*
Y417717D03*
Y437598D03*
Y445472D03*
Y457283D03*
Y469094D03*
Y480906D03*
Y504528D03*
Y516339D03*
Y528150D03*
Y539961D03*
Y547835D03*
X369496Y6614D03*
X371583Y157520D03*
X372370Y338976D03*
Y384252D03*
X373433Y134567D03*
X373551Y285472D03*
X374339Y469094D03*
Y480906D03*
X376307Y504528D03*
Y516339D03*
X378276Y350787D03*
Y374409D03*
X381307Y6614D03*
X383394Y157520D03*
X384181Y338976D03*
Y384252D03*
X387173Y58819D03*
Y82835D03*
X387331Y210630D03*
X387724Y234646D03*
X388118Y469094D03*
Y480906D03*
Y504528D03*
Y516339D03*
X389181Y134567D03*
X389299Y285472D03*
X390087Y350787D03*
Y374409D03*
X394929Y6614D03*
Y18425D03*
Y30236D03*
X395992Y338976D03*
Y384252D03*
X397016Y157520D03*
Y169331D03*
Y181142D03*
X397055Y110945D03*
Y122756D03*
X397173Y261850D03*
Y273661D03*
X401898Y350787D03*
Y374409D03*
Y469094D03*
Y480906D03*
Y504528D03*
Y516339D03*
X407803Y338976D03*
Y384252D03*
X413709Y350787D03*
Y374409D03*
Y437598D03*
Y445472D03*
Y457283D03*
Y469094D03*
Y480906D03*
Y504528D03*
Y516339D03*
Y528150D03*
Y539961D03*
Y547835D03*
X417843Y159252D03*
Y176969D03*
Y190748D03*
Y212402D03*
Y222244D03*
Y237992D03*
Y253740D03*
Y267520D03*
X419614Y338976D03*
Y384252D03*
X419811Y104134D03*
Y112008D03*
Y277362D03*
Y285236D03*
X425520Y350787D03*
Y374409D03*
X427488Y457283D03*
Y469094D03*
Y516339D03*
Y528150D03*
X427685Y119882D03*
Y135630D03*
Y151378D03*
X431425Y338976D03*
Y384252D03*
X437331Y350787D03*
Y374409D03*
X438315Y210039D03*
X439299Y457283D03*
Y469094D03*
Y516339D03*
Y528150D03*
X439496Y188386D03*
X443236Y338976D03*
Y384252D03*
X446189Y197441D03*
X447370Y222244D03*
Y230118D03*
X449142Y350787D03*
Y374409D03*
X450126Y189961D03*
X451307Y257677D03*
X452094Y249803D03*
X453079Y437598D03*
Y445472D03*
Y457283D03*
Y469094D03*
Y480906D03*
Y492717D03*
Y504528D03*
Y516339D03*
Y528150D03*
Y539961D03*
Y547835D03*
X455047Y338976D03*
Y384252D03*
X456425Y120276D03*
Y135630D03*
Y151378D03*
Y167126D03*
Y182874D03*
X457213Y265551D03*
X459181Y230118D03*
X461150Y223425D03*
Y257677D03*
X462921Y307480D03*
Y315354D03*
Y327165D03*
Y338976D03*
Y350787D03*
Y374409D03*
Y386220D03*
Y398031D03*
Y409843D03*
Y417717D03*
X463118Y189961D03*
X469024Y249803D03*
X470598Y350787D03*
Y374409D03*
X472764Y437598D03*
Y445472D03*
Y457283D03*
Y469094D03*
Y480906D03*
Y492717D03*
Y504528D03*
Y516339D03*
Y528150D03*
Y539961D03*
Y547835D03*
X472961Y191929D03*
X473748Y221260D03*
X476701Y327165D03*
Y338976D03*
Y386220D03*
Y398031D03*
X477291Y135630D03*
Y151378D03*
Y167126D03*
Y182874D03*
X478866Y123819D03*
X479575Y249803D03*
X479654Y226378D03*
X482606Y437598D03*
Y457283D03*
Y469094D03*
Y516339D03*
Y528150D03*
Y547835D03*
X488512Y327165D03*
Y338976D03*
Y386220D03*
Y398031D03*
X488709Y257677D03*
X492646Y112008D03*
Y127756D03*
Y143504D03*
Y159252D03*
Y175000D03*
Y190748D03*
Y265551D03*
X493354Y216732D03*
Y250197D03*
X494220Y374409D03*
X494417Y350984D03*
Y457283D03*
Y469094D03*
Y516339D03*
Y528150D03*
X494614Y104134D03*
Y277362D03*
Y285236D03*
X502291Y307480D03*
Y315354D03*
Y327165D03*
Y338976D03*
Y350787D03*
Y362598D03*
Y374409D03*
Y386220D03*
Y398031D03*
Y409843D03*
Y417717D03*
X506228Y437598D03*
Y457283D03*
Y469094D03*
Y516339D03*
Y528150D03*
Y547835D03*
D02*
D84*
X109575Y225748D03*
X109890Y220236D03*
X113118Y373425D03*
X124929Y380118D03*
X130047D03*
X141071Y367913D03*
Y373425D03*
X147370D03*
X165480Y39685D03*
Y49528D03*
Y59370D03*
Y66260D03*
Y73150D03*
Y82992D03*
Y92835D03*
Y102677D03*
X167016Y190748D03*
Y200591D03*
Y210433D03*
Y217323D03*
Y224213D03*
Y234055D03*
Y243898D03*
Y253740D03*
X170717Y44843D03*
Y97638D03*
X172252Y195906D03*
Y248701D03*
X175323Y39685D03*
Y49528D03*
Y92835D03*
Y102677D03*
X176858Y190748D03*
Y200591D03*
Y243898D03*
Y253740D03*
X180874Y44843D03*
Y97638D03*
X182409Y195906D03*
Y248701D03*
X185165Y39685D03*
Y49528D03*
Y92835D03*
Y102677D03*
X186701Y190748D03*
Y200591D03*
Y243898D03*
Y253740D03*
X190362Y44843D03*
Y97638D03*
X191898Y195906D03*
Y248701D03*
X195008Y39685D03*
Y49528D03*
Y92835D03*
Y102677D03*
X196543Y190748D03*
Y200591D03*
Y243898D03*
Y253740D03*
X200165Y44843D03*
Y97638D03*
X201701Y195906D03*
Y248701D03*
X204850Y39685D03*
Y49528D03*
Y59370D03*
Y82992D03*
Y92835D03*
Y102677D03*
X206386Y190748D03*
Y200591D03*
Y210433D03*
Y234055D03*
Y243898D03*
Y253740D03*
X214693Y39685D03*
Y49528D03*
Y59370D03*
Y82992D03*
Y92835D03*
Y102677D03*
X216228Y190748D03*
Y200591D03*
Y210433D03*
Y234055D03*
Y243898D03*
Y253740D03*
X224535Y39685D03*
Y49528D03*
Y59370D03*
Y82992D03*
Y92835D03*
Y102677D03*
X226071Y190748D03*
Y200591D03*
Y210433D03*
Y234055D03*
Y243898D03*
Y253740D03*
X234378Y39685D03*
Y49528D03*
Y59370D03*
Y82992D03*
Y92835D03*
Y102677D03*
X235913Y190748D03*
Y200591D03*
Y210433D03*
Y234055D03*
Y243898D03*
Y253740D03*
X244220Y39685D03*
Y49528D03*
Y59370D03*
Y82992D03*
Y92835D03*
Y102677D03*
X245756Y190748D03*
Y200591D03*
Y210433D03*
Y234055D03*
Y243898D03*
Y253740D03*
X249614Y44173D03*
Y49370D03*
X254063Y82992D03*
Y92835D03*
Y102677D03*
X254378Y200591D03*
Y210433D03*
X254614Y39685D03*
Y49528D03*
Y59370D03*
X254811Y190748D03*
X255598Y234055D03*
Y243898D03*
Y253740D03*
X259811Y186654D03*
X263236Y39685D03*
Y49528D03*
Y59370D03*
X263669Y82992D03*
Y92835D03*
Y102677D03*
X265441Y234055D03*
Y243898D03*
Y253740D03*
X265953Y186654D03*
X270323Y190748D03*
X270638Y230512D03*
X270756Y200591D03*
Y210433D03*
X271346Y234055D03*
X273079Y39685D03*
Y49528D03*
Y59370D03*
X273512Y82992D03*
Y92835D03*
Y102677D03*
X274575Y230512D03*
X275283Y234055D03*
Y243898D03*
Y253740D03*
X275520Y225984D03*
X278512Y230551D03*
X279378Y190748D03*
Y200591D03*
Y210433D03*
X279535Y224606D03*
X280559Y218701D03*
X282803Y215000D03*
X282921Y39685D03*
Y49528D03*
Y59370D03*
X283354Y82992D03*
Y92835D03*
Y102677D03*
X283787Y223228D03*
X284496Y218701D03*
X286307Y192992D03*
Y202835D03*
Y212677D03*
X286583Y216142D03*
X288433Y218740D03*
X289969Y92835D03*
X290165Y82992D03*
X292764Y39685D03*
Y49528D03*
Y59370D03*
X292843Y195709D03*
Y205551D03*
Y215394D03*
X293197Y102677D03*
X295913Y92677D03*
Y97520D03*
X302606Y39685D03*
Y49528D03*
Y59370D03*
X302685Y195709D03*
Y205551D03*
Y215394D03*
X302764Y239016D03*
Y248071D03*
X302843Y82795D03*
Y92638D03*
Y102480D03*
X312094Y214843D03*
X312213Y39685D03*
Y49528D03*
Y59370D03*
X312449Y82795D03*
Y92638D03*
Y102480D03*
X312528Y195709D03*
Y205551D03*
X312606Y239016D03*
Y248071D03*
X321189Y194134D03*
Y203976D03*
X322055Y39685D03*
Y49528D03*
Y59370D03*
X322291Y82795D03*
Y92638D03*
Y102480D03*
X324339Y234488D03*
Y243937D03*
X329339Y82795D03*
Y92638D03*
Y102480D03*
X329929Y39488D03*
Y49331D03*
Y59173D03*
X329969Y190787D03*
Y200630D03*
Y210472D03*
X332213Y234094D03*
Y243937D03*
X338236Y39488D03*
X339102Y44882D03*
Y48976D03*
X339181Y82795D03*
Y92638D03*
Y102480D03*
X339811Y190787D03*
Y200630D03*
Y210472D03*
X340756Y234291D03*
Y243937D03*
Y253780D03*
X347055Y39488D03*
Y49331D03*
X348630Y190787D03*
Y200630D03*
X349024Y82795D03*
Y92638D03*
Y102480D03*
X350598Y234094D03*
Y243937D03*
Y253780D03*
X352724Y54724D03*
X354299Y206024D03*
X356898Y39488D03*
Y49331D03*
X358472Y190787D03*
Y200630D03*
X358866Y92638D03*
Y102480D03*
X360441Y243937D03*
Y253780D03*
X361858Y44724D03*
X363433Y196024D03*
X363906Y97402D03*
X365480Y248701D03*
X366740Y39488D03*
Y49331D03*
X368315Y190787D03*
Y200630D03*
X368709Y92638D03*
Y102480D03*
X370283Y243937D03*
Y253780D03*
X372016Y44724D03*
X373591Y196024D03*
X374063Y97402D03*
X375638Y248701D03*
X376583Y39488D03*
Y49331D03*
X378157Y190787D03*
Y200630D03*
X378551Y92638D03*
Y102480D03*
X380126Y243937D03*
Y253780D03*
X381504Y44724D03*
X383079Y196024D03*
X383551Y97402D03*
X385126Y248701D03*
X386425Y39488D03*
Y49331D03*
X388000Y190787D03*
Y200630D03*
X388394Y92638D03*
Y102480D03*
X389969Y243937D03*
Y253780D03*
X391307Y44724D03*
X392882Y196024D03*
X393354Y97402D03*
X394929Y248701D03*
X396268Y39488D03*
Y49331D03*
Y59173D03*
Y66063D03*
Y72953D03*
Y82795D03*
Y92638D03*
Y102480D03*
X397843Y190787D03*
Y200630D03*
Y210472D03*
Y217362D03*
Y224252D03*
Y234094D03*
Y243937D03*
Y253780D03*
X417252Y204331D03*
X446583Y209252D03*
X447370Y213386D03*
X457213Y202559D03*
Y210433D03*
X461150Y206496D03*
X465087Y202559D03*
Y210433D03*
D02*
D85*
X101622Y245972D03*
D03*
X121316Y217323D03*
X426504Y43031D03*
X432311Y33031D03*
Y43031D03*
Y53031D03*
Y63031D03*
X493433Y201772D03*
X529260Y33071D03*
X529555Y43031D03*
Y53031D03*
Y63031D03*
X538315Y27953D03*
D02*
D86*
X34772Y222126D03*
X36858Y80906D03*
X125441D03*
X186543Y70787D03*
X186701Y222244D03*
X375520Y70787D03*
X375598Y222323D03*
X482528Y362598D03*
D02*
D87*
X22961Y210315D03*
Y233937D03*
X25047Y69094D03*
Y92717D03*
X46583Y210315D03*
Y233937D03*
X48669Y69094D03*
Y92717D03*
X113630Y69094D03*
Y92717D03*
X137252Y69094D03*
Y92717D03*
X174732Y58976D03*
Y82598D03*
X174890Y210433D03*
Y234055D03*
X198354Y58976D03*
Y82598D03*
X198512Y210433D03*
Y234055D03*
X363709Y58976D03*
Y82598D03*
X363787Y210512D03*
Y234134D03*
X387331Y58976D03*
Y82598D03*
X387409Y210512D03*
Y234134D03*
X470717Y350787D03*
Y374409D03*
X494339Y350787D03*
Y374409D03*
D02*
D88*
X27606Y409921D03*
X27685Y315433D03*
X29575Y540039D03*
X29654Y445551D03*
X34693Y269449D03*
X34772Y174961D03*
X36780Y128228D03*
X36858Y33740D03*
X86661Y409921D03*
X86740Y315433D03*
X88630Y540039D03*
X88709Y445551D03*
X125362Y128228D03*
X125441Y33740D03*
X129181Y269291D03*
X129260Y174803D03*
X175323Y409764D03*
X175402Y315276D03*
X177213Y539961D03*
X177291Y445472D03*
X186465Y118110D03*
X186543Y23622D03*
X186622Y269567D03*
X186701Y175079D03*
X234378Y409764D03*
X234457Y315276D03*
X236268Y539961D03*
X236346Y445472D03*
X285677Y409921D03*
X285756Y315433D03*
X285874Y540039D03*
X285953Y445551D03*
X344732Y409921D03*
X344811Y315433D03*
X344929Y540039D03*
X345008Y445551D03*
X375520Y117953D03*
X375598Y23465D03*
Y269488D03*
X375677Y175000D03*
X433512Y540039D03*
X433591Y445551D03*
X482449Y409921D03*
X482528Y315433D03*
X492567Y540039D03*
X492646Y445551D03*
D02*
D89*
X15874Y350787D03*
Y374409D03*
X17843Y480906D03*
Y504528D03*
X27685Y362598D03*
X29654Y492717D03*
X39496Y350787D03*
Y374409D03*
X41465Y480906D03*
Y504528D03*
X74929Y350787D03*
Y374409D03*
X76898Y480906D03*
Y504528D03*
X86740Y362598D03*
X88709Y492717D03*
X98551Y350787D03*
Y374409D03*
X100520Y480906D03*
Y504528D03*
X163512Y350787D03*
Y374409D03*
X165402Y480984D03*
Y504606D03*
X175323Y362598D03*
X177213Y492795D03*
X187134Y350787D03*
Y374409D03*
X189024Y480984D03*
Y504606D03*
X222567Y350787D03*
Y374409D03*
X224457Y480984D03*
Y504606D03*
X234378Y362598D03*
X236268Y492795D03*
X246189Y350787D03*
Y374409D03*
X248079Y480984D03*
Y504606D03*
X273945Y350787D03*
Y374409D03*
X274142Y480906D03*
Y504528D03*
X285756Y362598D03*
X285953Y492717D03*
X297567Y350787D03*
Y374409D03*
X297764Y480906D03*
Y504528D03*
X333000Y350787D03*
Y374409D03*
X333197Y480906D03*
Y504528D03*
X344811Y362598D03*
X345008Y492717D03*
X356622Y350787D03*
Y374409D03*
X356819Y480906D03*
Y504528D03*
X421780Y480906D03*
Y504528D03*
X433591Y492717D03*
X445402Y480906D03*
Y504528D03*
X480835Y480906D03*
Y504528D03*
X492646Y492717D03*
X504457Y480906D03*
Y504528D03*
D02*
D90*
X110087Y200206D03*
Y205306D03*
X113118Y373828D03*
Y378928D03*
X119024Y362804D03*
Y367904D03*
Y373828D03*
Y378928D03*
X124535Y368316D03*
Y373416D03*
X130047Y368316D03*
Y373416D03*
X135953Y362804D03*
Y367904D03*
Y373828D03*
Y378928D03*
X141071Y373828D03*
Y378928D03*
X147370Y368316D03*
Y373416D03*
X152882Y362804D03*
Y367904D03*
X249614Y49222D03*
Y54322D03*
X295913Y87253D03*
Y92353D03*
X339142Y49222D03*
Y54322D03*
D02*
D91*
X108600Y362598D03*
X110293Y204791D03*
X113700Y362598D03*
X115393Y204791D03*
X121316Y212272D03*
X126416D03*
X142064Y362598D03*
X147164D03*
X215056Y70787D03*
X220156D03*
X260214D03*
X265314D03*
X305371D03*
X310471D03*
D02*
D92*
X78000Y245972D03*
Y254972D03*
X78472Y212823D03*
Y221823D03*
X87528Y221878D03*
Y230878D03*
X89811Y245972D03*
Y254972D03*
X96189Y212823D03*
Y221823D03*
X101622Y245972D03*
Y254972D03*
X123079Y195567D03*
Y204567D03*
X249614Y61799D03*
Y70799D03*
X262567Y194791D03*
Y203791D03*
Y213177D03*
Y222177D03*
X293591Y227193D03*
Y236193D03*
X295913Y70776D03*
Y79776D03*
X319575Y213295D03*
Y222295D03*
X339142Y61799D03*
Y70799D03*
X347961Y213335D03*
Y222335D03*
X438236Y235539D03*
Y244539D03*
X438315Y215776D03*
Y224776D03*
X452016Y235736D03*
Y244736D03*
X465795Y235539D03*
Y244539D03*
X469732Y172547D03*
Y181547D03*
Y255224D03*
Y264224D03*
X479575Y235539D03*
Y244539D03*
Y255224D03*
Y264224D03*
X485480Y172547D03*
Y181547D03*
X493354Y202075D03*
Y211075D03*
Y235539D03*
Y244539D03*
D02*
D93*
X60193Y222047D03*
X69193D03*
X220075Y222244D03*
X228894Y70787D03*
X229075Y222244D03*
X237894Y70787D03*
X241846Y222244D03*
X250846D03*
X274248Y70787D03*
X283248D03*
X284406Y265787D03*
Y275630D03*
X284524Y244646D03*
X284563Y255000D03*
X293406Y265787D03*
Y275630D03*
X293524Y244646D03*
X293563Y255000D03*
X302516Y227205D03*
X311516D03*
X319327Y70787D03*
X328327D03*
X328933Y222283D03*
X337933D03*
X417280Y204528D03*
X426280D03*
D02*
D94*
X60283Y277323D03*
X70283D03*
X80283D03*
X90283D03*
X100283D03*
X110283D03*
X432213Y108071D03*
Y281299D03*
X442213Y108071D03*
Y281299D03*
X452213Y108071D03*
Y281299D03*
X462213Y108071D03*
Y281299D03*
X472213Y108071D03*
Y281299D03*
X482213Y108071D03*
Y281299D03*
D02*
D95*
X439496Y192717D03*
Y204528D03*
D02*
D96*
X105953Y212272D03*
Y222508D03*
X109693Y212272D03*
Y222508D03*
X113433Y212272D03*
Y222508D03*
D02*
D97*
X451504Y199606D03*
Y201575D03*
Y203543D03*
Y205512D03*
Y207480D03*
Y209449D03*
Y211417D03*
Y213386D03*
X470795Y199606D03*
Y201575D03*
Y203543D03*
Y205512D03*
Y207480D03*
Y209449D03*
Y211417D03*
Y213386D03*
D02*
D98*
X454260Y196850D03*
Y216142D03*
X456228Y196850D03*
Y216142D03*
X458197Y196850D03*
Y216142D03*
X460165Y196850D03*
Y216142D03*
X462134Y196850D03*
Y216142D03*
X464102Y196850D03*
Y216142D03*
X466071Y196850D03*
Y216142D03*
X468039Y196850D03*
Y216142D03*
D02*
D99*
X461150Y206496D03*
D02*
D100*
X275598Y222047D03*
Y224606D03*
Y227165D03*
X283472Y222047D03*
Y224606D03*
Y227165D03*
D02*
D101*
X212213Y277441D03*
X222213D03*
X232213D03*
X523748Y120866D03*
Y130866D03*
Y140866D03*
Y150866D03*
Y160866D03*
Y170866D03*
Y180866D03*
Y190866D03*
X533748Y120866D03*
Y130866D03*
Y140866D03*
Y150866D03*
Y160866D03*
Y170866D03*
Y180866D03*
Y190866D03*
D02*
D102*
X432311Y33031D03*
Y43031D03*
Y53031D03*
Y63031D03*
X529555Y33031D03*
Y43031D03*
Y53031D03*
Y63031D03*
D02*
D103*
X551307Y23622D03*
Y33622D03*
Y43622D03*
Y53622D03*
Y63622D03*
Y73622D03*
X555638Y119606D03*
Y129606D03*
Y139606D03*
Y149606D03*
Y159606D03*
Y169606D03*
X0Y0D02*
M02*
