G04 DesignSpark PCB Gerber Version 9.0 Build 5115 *
G04 #@! TF.Part,Single*
G04 #@! TF.FileFunction,Copper,L2,Bot *
G04 #@! TF.FilePolarity,Positive *
%FSLAX35Y35*%
%MOIN*%
G04 #@! TA.AperFunction,ComponentPad*
%ADD73O,0.06000X0.11000*%
%ADD80R,0.06000X0.06000*%
G04 #@! TD.AperFunction*
%ADD10C,0.00394*%
%ADD12C,0.01000*%
%ADD14C,0.01969*%
%ADD15C,0.02953*%
G04 #@! TA.AperFunction,ViaPad*
%ADD17C,0.03346*%
G04 #@! TD.AperFunction*
%ADD16C,0.03937*%
G04 #@! TA.AperFunction,ViaPad*
%ADD18C,0.04000*%
G04 #@! TA.AperFunction,ComponentPad*
%ADD26C,0.07874*%
%ADD82O,0.11000X0.06000*%
%ADD25C,0.17717*%
X0Y0D02*
D02*
D10*
X9969Y292323D02*
Y139961D01*
X149311*
G75*
G02X150717Y140551I1406J-1378*
G01*
X158591*
G75*
G02X159996Y139961J-1969*
G01*
X160756*
Y140748*
X145795*
G75*
G02X143925Y142102J1969*
G01*
G75*
G02X142055Y140748I-1870J615*
G01*
X126307*
G75*
G02X124339Y142717J1969*
G01*
Y150591*
G75*
G02X126307Y152559I1969*
G01*
X142055*
G75*
G02X143925Y151205J-1969*
G01*
G75*
G02X145795Y152559I1870J-615*
G01*
X160756*
Y291535*
X159969*
G75*
G02X160362Y290354I-1575J-1181*
G01*
Y274606*
G75*
G02X158394Y272638I-1969*
G01*
X150520*
G75*
G02X148551Y274606J1969*
G01*
Y290354*
G75*
G02X148945Y291535I1969*
G01*
X145795*
G75*
G02X143827Y293504J1969*
G01*
G75*
G02X141858Y291535I-1969*
G01*
X126110*
G75*
G02X124142Y293504J1969*
G01*
Y301378*
G75*
G02X126110Y303346I1969*
G01*
X141858*
G75*
G02X143827Y301378J-1969*
G01*
G75*
G02X145795Y303346I1969*
G01*
X160756*
Y303740*
X9969*
Y302559*
G75*
G02X11543Y303346I1575J-1181*
G01*
X23748*
G75*
G02X25618Y301993J-1969*
G01*
G75*
G02X27488Y303346I1870J-615*
G01*
X43236*
G75*
G02X45205Y301378J-1969*
G01*
Y293504*
G75*
G02X43236Y291535I-1969*
G01*
X27488*
G75*
G02X25618Y292889J1969*
G01*
G75*
G02X23748Y291535I-1870J615*
G01*
X11543*
G75*
G02X9969Y292323J1969*
G01*
X121976Y303346D02*
G75*
G02X123945Y301378J-1969D01*
G01*
Y293504*
G75*
G02X121976Y291535I-1969*
G01*
X106228*
G75*
G02X104358Y292889J1969*
G01*
G75*
G02X102488Y291535I-1870J615*
G01*
X86740*
G75*
G02X84772Y293504J1969*
G01*
G75*
G02X82803Y291535I-1969*
G01*
X67055*
G75*
G02X65087Y293504J1969*
G01*
G75*
G02X63118Y291535I-1969*
G01*
X47370*
G75*
G02X45402Y293504J1969*
G01*
Y301378*
G75*
G02X47370Y303346I1969*
G01*
X63118*
G75*
G02X65087Y301378J-1969*
G01*
G75*
G02X67055Y303346I1969*
G01*
X82803*
G75*
G02X84772Y301378J-1969*
G01*
G75*
G02X86740Y303346I1969*
G01*
X102488*
G75*
G02X104358Y301993J-1969*
G01*
G75*
G02X106228Y303346I1870J-615*
G01*
X121976*
X96496Y279823D02*
G75*
G02X104071I3787D01*
G01*
Y274823*
G75*
G02X96496I-3787*
G01*
Y279823*
X86496D02*
G75*
G02X94071I3787D01*
G01*
Y274823*
G75*
G02X86496I-3787*
G01*
Y279823*
X76496D02*
G75*
G02X84071I3787D01*
G01*
Y274823*
G75*
G02X76496I-3787*
G01*
Y279823*
X66496D02*
G75*
G02X74071I3787D01*
G01*
Y274823*
G75*
G02X66496I-3787*
G01*
Y279823*
X123580Y218949D02*
G75*
G02X124104Y217323I-2264J-1626D01*
G01*
G75*
G02X118529I-2787*
G01*
G75*
G02X119052Y218949I2787*
G01*
Y220982*
X116638Y223397*
G75*
G02X115972Y225000I1599J1603*
G01*
Y236464*
X110606Y241831*
X107606*
G75*
G02X106003Y242496J2264*
G01*
X104791Y243709*
X103248*
G75*
G02X99996I-1626J2264*
G01*
X98414*
X96611Y241906*
G75*
G02X95008Y241240I-1603J1599*
G01*
X66071*
G75*
G02X64470Y241903J2264*
G01*
X62504Y243869*
G75*
G02X61839Y245472I1599J1603*
G01*
Y263629*
X58685Y266783*
G75*
G02X58020Y268386I1599J1603*
G01*
Y271787*
G75*
G02X56496Y274823I2264J3036*
G01*
Y279823*
G75*
G02X64071I3787*
G01*
Y274823*
G75*
G02X62547Y271787I-3787*
G01*
Y269324*
X65701Y266170*
G75*
G02X66366Y264567I-1599J-1603*
G01*
Y246410*
X67009Y245768*
X94070*
X95873Y247571*
G75*
G02X97476Y248236I1603J-1599*
G01*
X99996*
G75*
G02X103248I1626J-2264*
G01*
X105728*
G75*
G02X107331Y247571J-2264*
G01*
X108544Y246358*
X111543*
G75*
G02X113146Y245693J-2264*
G01*
X119835Y239005*
G75*
G02X120500Y237402I-1599J-1603*
G01*
Y225938*
X122915Y223523*
G75*
G02X123580Y221920I-1599J-1603*
G01*
Y218949*
X122173Y152559D02*
G75*
G02X124142Y150591J-1969D01*
G01*
Y142717*
G75*
G02X122173Y140748I-1969*
G01*
X106425*
G75*
G02X104457Y142717J1969*
G01*
G75*
G02X102488Y140748I-1969*
G01*
X86740*
G75*
G02X84772Y142717J1969*
G01*
Y150591*
G75*
G02X86740Y152559I1969*
G01*
X102488*
G75*
G02X104457Y150591J-1969*
G01*
G75*
G02X106425Y152559I1969*
G01*
X122173*
X82606D02*
G75*
G02X84575Y150591J-1969D01*
G01*
Y142717*
G75*
G02X82606Y140748I-1969*
G01*
X66858*
G75*
G02X64988Y142102J1969*
G01*
G75*
G02X63118Y140748I-1870J615*
G01*
X48157*
G75*
G02X46189Y142717J1969*
G01*
Y150591*
G75*
G02X48157Y152559I1969*
G01*
X63118*
G75*
G02X64988Y151205J-1969*
G01*
G75*
G02X66858Y152559I1870J-615*
G01*
X82606*
X43433D02*
G75*
G02X45402Y150591J-1969D01*
G01*
Y142717*
G75*
G02X43433Y140748I-1969*
G01*
X27685*
G75*
G02X25783Y142209J1969*
G01*
G75*
G02X23945Y140945I-1838J704*
G01*
X13118*
G75*
G02X11150Y142913J1969*
G01*
Y150787*
G75*
G02X13118Y152756I1969*
G01*
X23945*
G75*
G02X25847Y151295J-1969*
G01*
G75*
G02X27685Y152559I1838J-704*
G01*
X43433*
X158394Y272441D02*
G75*
G02X160362Y270472J-1969D01*
G01*
Y254724*
G75*
G02X158394Y252756I-1969*
G01*
G75*
G02X160362Y250787J-1969*
G01*
Y235039*
G75*
G02X158394Y233071I-1969*
G01*
G75*
G02X160362Y231102J-1969*
G01*
Y215354*
G75*
G02X158394Y213386I-1969*
G01*
G75*
G02X160362Y211417J-1969*
G01*
Y195669*
G75*
G02X158394Y193701I-1969*
G01*
G75*
G02X160362Y191732J-1969*
G01*
Y175984*
G75*
G02X158394Y174016I-1969*
G01*
G75*
G02X160362Y172047J-1969*
G01*
Y156299*
G75*
G02X158394Y154331I-1969*
G01*
X150520*
G75*
G02X148551Y156299J1969*
G01*
Y172047*
G75*
G02X150520Y174016I1969*
G01*
G75*
G02X148551Y175984J1969*
G01*
Y191732*
G75*
G02X150520Y193701I1969*
G01*
G75*
G02X148551Y195669J1969*
G01*
Y211417*
G75*
G02X150520Y213386I1969*
G01*
G75*
G02X148551Y215354J1969*
G01*
Y231102*
G75*
G02X150520Y233071I1969*
G01*
G75*
G02X148551Y235039J1969*
G01*
Y250787*
G75*
G02X150520Y252756I1969*
G01*
G75*
G02X148551Y254724J1969*
G01*
Y270472*
G75*
G02X150520Y272441I1969*
G01*
X158394*
X10165Y146654D02*
G36*
Y140157D01*
X149535*
G75*
G02X150717Y140551I1181J-1574*
G01*
X158591*
G75*
G02X159772Y140157I1J-1967*
G01*
X160559*
Y140748*
X145795*
G75*
G02X143925Y142102J1969*
G01*
G75*
G02X142055Y140748I-1870J615*
G01*
X126307*
G75*
G02X124339Y142717J1969*
G01*
Y146654*
X124142*
Y142717*
G75*
G02X122173Y140748I-1969*
G01*
X106425*
G75*
G02X104457Y142717J1969*
G01*
G75*
G02X102488Y140748I-1969*
G01*
X86740*
G75*
G02X84772Y142717J1969*
G01*
Y146654*
X84575*
Y142717*
G75*
G02X82606Y140748I-1969*
G01*
X66858*
G75*
G02X64988Y142102J1969*
G01*
G75*
G02X63118Y140748I-1870J615*
G01*
X48157*
G75*
G02X46189Y142717J1969*
G01*
Y146654*
X45402*
Y142717*
G75*
G02X43433Y140748I-1969*
G01*
X27685*
G75*
G02X25783Y142209J1969*
G01*
G75*
G02X23945Y140945I-1838J704*
G01*
X13118*
G75*
G02X11150Y142913J1969*
G01*
Y146654*
X10165*
G37*
Y213386D02*
G36*
Y146654D01*
X11150*
Y150787*
G75*
G02X13118Y152756I1969*
G01*
X23945*
G75*
G02X25847Y151295J-1969*
G01*
G75*
G02X27685Y152559I1838J-704*
G01*
X43433*
G75*
G02X45402Y150591J-1969*
G01*
Y146654*
X46189*
Y150591*
G75*
G02X48157Y152559I1969*
G01*
X63118*
G75*
G02X64988Y151205J-1969*
G01*
G75*
G02X66858Y152559I1870J-615*
G01*
X82606*
G75*
G02X84575Y150591J-1969*
G01*
Y146654*
X84772*
Y150591*
G75*
G02X86740Y152559I1969*
G01*
X102488*
G75*
G02X104457Y150591J-1969*
G01*
G75*
G02X106425Y152559I1969*
G01*
X122173*
G75*
G02X124142Y150591J-1969*
G01*
Y146654*
X124339*
Y150591*
G75*
G02X126307Y152559I1969*
G01*
X142055*
G75*
G02X143925Y151205J-1969*
G01*
G75*
G02X145795Y152559I1870J-615*
G01*
X160559*
Y213386*
X158394*
G75*
G02X160362Y211417J-1969*
G01*
Y195669*
G75*
G02X158394Y193701I-1969*
G01*
G75*
G02X160362Y191732J-1969*
G01*
Y175984*
G75*
G02X158394Y174016I-1969*
G01*
G75*
G02X160362Y172047J-1969*
G01*
Y156299*
G75*
G02X158394Y154331I-1969*
G01*
X150520*
G75*
G02X148551Y156299J1969*
G01*
Y172047*
G75*
G02X150520Y174016I1969*
G01*
G75*
G02X148551Y175984J1969*
G01*
Y191732*
G75*
G02X150520Y193701I1969*
G01*
G75*
G02X148551Y195669J1969*
G01*
Y211417*
G75*
G02X150520Y213386I1969*
G01*
X10165*
G37*
Y277323D02*
G36*
Y213386D01*
X150520*
G75*
G02X148551Y215354J1969*
G01*
Y231102*
G75*
G02X150520Y233071I1969*
G01*
G75*
G02X148551Y235039J1969*
G01*
Y250787*
G75*
G02X150520Y252756I1969*
G01*
G75*
G02X148551Y254724J1969*
G01*
Y270472*
G75*
G02X150520Y272441I1969*
G01*
X158394*
G75*
G02X160362Y270472J-1969*
G01*
Y254724*
G75*
G02X158394Y252756I-1969*
G01*
G75*
G02X160362Y250787J-1969*
G01*
Y235039*
G75*
G02X158394Y233071I-1969*
G01*
G75*
G02X160362Y231102J-1969*
G01*
Y215354*
G75*
G02X158394Y213386I-1969*
G01*
X160559*
Y277323*
X160362*
Y274606*
G75*
G02X158394Y272638I-1969*
G01*
X150520*
G75*
G02X148551Y274606J1969*
G01*
Y277323*
X104071*
Y274823*
G75*
G02X96496I-3787*
G01*
Y277323*
X94071*
Y274823*
G75*
G02X86496I-3787*
G01*
Y277323*
X84071*
Y274823*
G75*
G02X76496I-3787*
G01*
Y277323*
X74071*
Y274823*
G75*
G02X66496I-3787*
G01*
Y277323*
X64071*
Y274823*
G75*
G02X62547Y271787I-3788J0*
G01*
Y269324*
X65701Y266170*
G75*
G02X66366Y264567I-1598J-1603*
G01*
Y264567*
Y246410*
X67009Y245768*
X94070*
X95873Y247571*
G75*
G02X97476Y248236I1603J-1598*
G01*
X99996*
G75*
G02X103248I1626J-2264*
G01*
X105728*
G75*
G02X107331Y247571I0J-2263*
G01*
X108544Y246358*
X111543*
G75*
G02X113146Y245693I0J-2263*
G01*
X119835Y239005*
G75*
G02X120500Y237402I-1598J-1603*
G01*
Y237402*
Y225938*
X122915Y223523*
G75*
G02X123580Y221920I-1598J-1603*
G01*
Y221920*
Y218949*
G75*
G02X124104Y217323I-2266J-1627*
G01*
G75*
G02X118529I-2787*
G01*
G75*
G02X119052Y218949I2790J-1*
G01*
Y220982*
X116638Y223397*
G75*
G02X115972Y225000I1598J1603*
G01*
Y225000*
Y236464*
X110606Y241831*
X107606*
G75*
G02X106003Y242496I0J2263*
G01*
X104791Y243709*
X103248*
G75*
G02X99996I-1626J2264*
G01*
X98414*
X96611Y241906*
G75*
G02X95008Y241240I-1603J1598*
G01*
X66071*
G75*
G02X64470Y241903I1J2267*
G01*
X62504Y243869*
G75*
G02X61839Y245472I1598J1603*
G01*
Y245472*
Y263629*
X58685Y266783*
G75*
G02X58020Y268385I1598J1603*
G01*
Y268386*
Y271787*
G75*
G02X56496Y274823I2265J3037*
G01*
Y277323*
X10165*
G37*
Y292098D02*
G36*
Y277323D01*
X56496*
Y279823*
G75*
G02X64071I3787*
G01*
Y277323*
X66496*
Y279823*
G75*
G02X74071I3787*
G01*
Y277323*
X76496*
Y279823*
G75*
G02X84071I3787*
G01*
Y277323*
X86496*
Y279823*
G75*
G02X94071I3787*
G01*
Y277323*
X96496*
Y279823*
G75*
G02X104071I3787*
G01*
Y277323*
X148551*
Y290354*
G75*
G02X148945Y291535I1972J-1*
G01*
X145795*
G75*
G02X143827Y293504J1969*
G01*
G75*
G02X141858Y291535I-1969*
G01*
X126110*
G75*
G02X124142Y293504J1969*
G01*
Y297441*
X123945*
Y293504*
G75*
G02X121976Y291535I-1969*
G01*
X106228*
G75*
G02X104358Y292889J1969*
G01*
G75*
G02X102488Y291535I-1870J615*
G01*
X86740*
G75*
G02X84772Y293504J1969*
G01*
G75*
G02X82803Y291535I-1969*
G01*
X67055*
G75*
G02X65087Y293504J1969*
G01*
G75*
G02X63118Y291535I-1969*
G01*
X47370*
G75*
G02X45402Y293504J1969*
G01*
Y297441*
X45205*
Y293504*
G75*
G02X43236Y291535I-1969*
G01*
X27488*
G75*
G02X25618Y292889J1969*
G01*
G75*
G02X23748Y291535I-1870J615*
G01*
X11543*
G75*
G02X10165Y292098J1969*
G01*
G37*
X160362Y290354D02*
G36*
Y277323D01*
X160559*
Y291535*
X159969*
G75*
G02X160362Y290354I-1578J-1182*
G01*
G37*
X10165Y303543D02*
G36*
Y302784D01*
G75*
G02X11543Y303346I1378J-1406*
G01*
X23748*
G75*
G02X25618Y301993J-1969*
G01*
G75*
G02X27488Y303346I1870J-615*
G01*
X43236*
G75*
G02X45205Y301378J-1969*
G01*
Y297441*
X45402*
Y301378*
G75*
G02X47370Y303346I1969*
G01*
X63118*
G75*
G02X65087Y301378J-1969*
G01*
G75*
G02X67055Y303346I1969*
G01*
X82803*
G75*
G02X84772Y301378J-1969*
G01*
G75*
G02X86740Y303346I1969*
G01*
X102488*
G75*
G02X104358Y301993J-1969*
G01*
G75*
G02X106228Y303346I1870J-615*
G01*
X121976*
G75*
G02X123945Y301378J-1969*
G01*
Y297441*
X124142*
Y301378*
G75*
G02X126110Y303346I1969*
G01*
X141858*
G75*
G02X143827Y301378J-1969*
G01*
G75*
G02X145795Y303346I1969*
G01*
X160559*
Y303543*
X10165*
G37*
X9969Y350787D02*
Y303543D01*
X53276*
G75*
G02X51307Y305512J1969*
G01*
Y321260*
G75*
G02X53276Y323228I1969*
G01*
G75*
G02X51307Y325197J1969*
G01*
Y340945*
G75*
G02X53276Y342913I1969*
G01*
G75*
G02X51307Y344882J1969*
G01*
Y360630*
G75*
G02X53276Y362598I1969*
G01*
G75*
G02X51307Y364567J1969*
G01*
Y380315*
G75*
G02X53276Y382283I1969*
G01*
G75*
G02X51307Y384252J1969*
G01*
Y400000*
G75*
G02X53276Y401969I1969*
G01*
G75*
G02X51307Y403937J1969*
G01*
Y419685*
G75*
G02X53276Y421654I1969*
G01*
X9969*
Y374409*
X39496*
Y350787*
X9969*
G36*
Y303543*
X53276*
G75*
G02X51307Y305512J1969*
G01*
Y321260*
G75*
G02X53276Y323228I1969*
G01*
G75*
G02X51307Y325197J1969*
G01*
Y340945*
G75*
G02X53276Y342913I1969*
G01*
G75*
G02X51307Y344882J1969*
G01*
Y360630*
G75*
G02X53276Y362598I1969*
G01*
G75*
G02X51307Y364567J1969*
G01*
Y380315*
G75*
G02X53276Y382283I1969*
G01*
G75*
G02X51307Y384252J1969*
G01*
Y400000*
G75*
G02X53276Y401969I1969*
G01*
G75*
G02X51307Y403937J1969*
G01*
Y419685*
G75*
G02X53276Y421654I1969*
G01*
X9969*
Y374409*
X39496*
Y350787*
X9969*
G37*
Y434449D02*
Y421457D01*
X254822*
G75*
G02X255370Y421850I1406J-1379*
G01*
X244220*
G75*
G02X242252Y423819J1969*
G01*
G75*
G02X240283Y421850I-1969*
G01*
X224535*
G75*
G02X222567Y423819J1969*
G01*
G75*
G02X220598Y421850I-1969*
G01*
X204850*
G75*
G02X202980Y423204J1969*
G01*
G75*
G02X201110Y421850I-1870J615*
G01*
X185362*
G75*
G02X183394Y423819J1969*
G01*
G75*
G02X181425Y421850I-1969*
G01*
X165677*
G75*
G02X163709Y423819J1969*
G01*
Y431693*
G75*
G02X165677Y433661I1969*
G01*
X181425*
G75*
G02X183394Y431693J-1969*
G01*
G75*
G02X185362Y433661I1969*
G01*
X201110*
G75*
G02X202980Y432307J-1969*
G01*
G75*
G02X204850Y433661I1870J-615*
G01*
X202882*
G75*
G02X201307Y434449J1969*
G01*
X64693*
G75*
G02X63118Y433661I-1575J1181*
G01*
X55244*
G75*
G02X53669Y434449J1969*
G01*
X9969*
X161543Y433661D02*
G75*
G02X163512Y431693J-1969D01*
G01*
Y423819*
G75*
G02X161543Y421850I-1969*
G01*
X145795*
G75*
G02X143827Y423819J1969*
G01*
G75*
G02X141858Y421850I-1969*
G01*
X126110*
G75*
G02X124142Y423819J1969*
G01*
G75*
G02X122173Y421850I-1969*
G01*
X106425*
G75*
G02X104555Y423204J1969*
G01*
G75*
G02X102685Y421850I-1870J615*
G01*
X86937*
G75*
G02X84969Y423819J1969*
G01*
Y431693*
G75*
G02X86937Y433661I1969*
G01*
X102685*
G75*
G02X104555Y432307J-1969*
G01*
G75*
G02X106425Y433661I1870J-615*
G01*
X122173*
G75*
G02X124142Y431693J-1969*
G01*
G75*
G02X126110Y433661I1969*
G01*
X141858*
G75*
G02X143827Y431693J-1969*
G01*
G75*
G02X145795Y433661I1969*
G01*
X161543*
X23748D02*
G75*
G02X25717Y431693J-1969D01*
G01*
Y423819*
G75*
G02X23748Y421850I-1969*
G01*
X12331*
G75*
G02X10362Y423819J1969*
G01*
Y431693*
G75*
G02X12331Y433661I1969*
G01*
X23748*
X82803D02*
G75*
G02X84772Y431693J-1969D01*
G01*
Y423819*
G75*
G02X82803Y421850I-1969*
G01*
X67055*
G75*
G02X65217Y423115J1969*
G01*
G75*
G02X63315Y421654I-1902J507*
G01*
X47567*
G75*
G02X45598Y423622J1969*
G01*
Y423819*
G75*
G02X43630Y421850I-1969*
G01*
X27882*
G75*
G02X25913Y423819J1969*
G01*
Y431693*
G75*
G02X27882Y433661I1969*
G01*
X43630*
G75*
G02X45598Y431693J-1969*
G01*
Y431496*
G75*
G02X47567Y433465I1969*
G01*
X63315*
G75*
G02X65153Y432200J-1969*
G01*
G75*
G02X67055Y433661I1902J-507*
G01*
X82803*
X10165Y427756D02*
G36*
Y421654D01*
X47567*
G75*
G02X45598Y423622J1969*
G01*
Y423819*
G75*
G02X43630Y421850I-1969*
G01*
X27882*
G75*
G02X25913Y423819J1969*
G01*
Y427756*
X25717*
Y423819*
G75*
G02X23748Y421850I-1969*
G01*
X12331*
G75*
G02X10362Y423819J1969*
G01*
Y427756*
X10165*
G37*
X65217Y423115D02*
G36*
G75*
G02X63315Y421654I-1902J507D01*
G01*
X255047*
G75*
G02X255174Y421741I1181J-1580*
G01*
Y421850*
X244220*
G75*
G02X242252Y423819J1969*
G01*
G75*
G02X240283Y421850I-1969*
G01*
X224535*
G75*
G02X222567Y423819J1969*
G01*
G75*
G02X220598Y421850I-1969*
G01*
X204850*
G75*
G02X202980Y423204J1969*
G01*
G75*
G02X201110Y421850I-1870J615*
G01*
X185362*
G75*
G02X183394Y423819J1969*
G01*
G75*
G02X181425Y421850I-1969*
G01*
X165677*
G75*
G02X163709Y423819J1969*
G01*
Y427756*
X163512*
Y423819*
G75*
G02X161543Y421850I-1969*
G01*
X145795*
G75*
G02X143827Y423819J1969*
G01*
G75*
G02X141858Y421850I-1969*
G01*
X126110*
G75*
G02X124142Y423819J1969*
G01*
G75*
G02X122173Y421850I-1969*
G01*
X106425*
G75*
G02X104555Y423204J1969*
G01*
G75*
G02X102685Y421850I-1870J615*
G01*
X86937*
G75*
G02X84969Y423819J1969*
G01*
Y427756*
X84772*
Y423819*
G75*
G02X82803Y421850I-1969*
G01*
X67055*
G75*
G02X65217Y423115J1969*
G01*
G37*
X10165Y434252D02*
G36*
Y427756D01*
X10362*
Y431693*
G75*
G02X12331Y433661I1969*
G01*
X23748*
G75*
G02X25717Y431693J-1969*
G01*
Y427756*
X25913*
Y431693*
G75*
G02X27882Y433661I1969*
G01*
X43630*
G75*
G02X45598Y431693J-1969*
G01*
Y431496*
G75*
G02X47567Y433465I1969*
G01*
X63315*
G75*
G02X65153Y432200J-1969*
G01*
G75*
G02X67055Y433661I1902J-507*
G01*
X82803*
G75*
G02X84772Y431693J-1969*
G01*
Y427756*
X84969*
Y431693*
G75*
G02X86937Y433661I1969*
G01*
X102685*
G75*
G02X104555Y432307J-1969*
G01*
G75*
G02X106425Y433661I1870J-615*
G01*
X122173*
G75*
G02X124142Y431693J-1969*
G01*
G75*
G02X126110Y433661I1969*
G01*
X141858*
G75*
G02X143827Y431693J-1969*
G01*
G75*
G02X145795Y433661I1969*
G01*
X161543*
G75*
G02X163512Y431693J-1969*
G01*
Y427756*
X163709*
Y431693*
G75*
G02X165677Y433661I1969*
G01*
X181425*
G75*
G02X183394Y431693J-1969*
G01*
G75*
G02X185362Y433661I1969*
G01*
X201110*
G75*
G02X202980Y432307J-1969*
G01*
G75*
G02X204850Y433661I1870J-615*
G01*
X202882*
G75*
G02X201476Y434252J1969*
G01*
X64524*
G75*
G02X63118Y433661I-1406J1379*
G01*
X55244*
G75*
G02X53838Y434252J1969*
G01*
X10165*
G37*
X9969Y480906D02*
Y433661D01*
X55244*
G75*
G02X53276Y435630J1969*
G01*
Y451378*
G75*
G02X55244Y453346I1969*
G01*
G75*
G02X53276Y455315J1969*
G01*
Y471063*
G75*
G02X55244Y473031I1969*
G01*
G75*
G02X53276Y475000J1969*
G01*
Y490748*
G75*
G02X55244Y492717I1969*
G01*
G75*
G02X53276Y494685J1969*
G01*
Y510433*
G75*
G02X55244Y512402I1969*
G01*
G75*
G02X53276Y514370J1969*
G01*
Y530118*
G75*
G02X55244Y532087I1969*
G01*
G75*
G02X53276Y534055J1969*
G01*
Y549803*
G75*
G02X55244Y551772I1969*
G01*
X9969*
Y504528*
X41465*
Y480906*
X9969*
G36*
Y433661*
X55244*
G75*
G02X53276Y435630J1969*
G01*
Y451378*
G75*
G02X55244Y453346I1969*
G01*
G75*
G02X53276Y455315J1969*
G01*
Y471063*
G75*
G02X55244Y473031I1969*
G01*
G75*
G02X53276Y475000J1969*
G01*
Y490748*
G75*
G02X55244Y492717I1969*
G01*
G75*
G02X53276Y494685J1969*
G01*
Y510433*
G75*
G02X55244Y512402I1969*
G01*
G75*
G02X53276Y514370J1969*
G01*
Y530118*
G75*
G02X55244Y532087I1969*
G01*
G75*
G02X53276Y534055J1969*
G01*
Y549803*
G75*
G02X55244Y551772I1969*
G01*
X9969*
Y504528*
X41465*
Y480906*
X9969*
G37*
X11346Y139961D02*
Y22638D01*
X62528*
Y53346*
X99929*
Y22638*
X150056*
G75*
G02X148945Y24409I858J1772*
G01*
Y40157*
G75*
G02X150913Y42126I1969*
G01*
G75*
G02X148945Y44094J1969*
G01*
Y59843*
G75*
G02X150913Y61811I1969*
G01*
G75*
G02X148945Y63780J1969*
G01*
Y79528*
G75*
G02X150913Y81496I1969*
G01*
X150717*
G75*
G02X148748Y83465J1969*
G01*
Y99213*
G75*
G02X150717Y101181I1969*
G01*
G75*
G02X148748Y103150J1969*
G01*
Y118898*
G75*
G02X150717Y120866I1969*
G01*
G75*
G02X148748Y122835J1969*
G01*
Y138583*
G75*
G02X149311Y139961I1969*
G01*
X101898*
Y108465*
X62528*
Y139961*
X11346*
G36*
Y22638*
X62528*
Y53346*
X99929*
Y22638*
X150056*
G75*
G02X148945Y24409I858J1772*
G01*
Y40157*
G75*
G02X150913Y42126I1969*
G01*
G75*
G02X148945Y44094J1969*
G01*
Y59843*
G75*
G02X150913Y61811I1969*
G01*
G75*
G02X148945Y63780J1969*
G01*
Y79528*
G75*
G02X150913Y81496I1969*
G01*
X150717*
G75*
G02X148748Y83465J1969*
G01*
Y99213*
G75*
G02X150717Y101181I1969*
G01*
G75*
G02X148748Y103150J1969*
G01*
Y118898*
G75*
G02X150717Y120866I1969*
G01*
G75*
G02X148748Y122835J1969*
G01*
Y138583*
G75*
G02X149311Y139961I1969*
G01*
X101898*
Y108465*
X62528*
Y139961*
X11346*
G37*
X61150Y323228D02*
G75*
G02X63118Y321260J-1969D01*
G01*
Y325197*
G75*
G02X61150Y323228I-1969*
G01*
G36*
G75*
G02X63118Y321260J-1969*
G01*
Y325197*
G75*
G02X61150Y323228I-1969*
G01*
G37*
Y342913D02*
G75*
G02X63118Y340945J-1969D01*
G01*
Y344882*
G75*
G02X61150Y342913I-1969*
G01*
G36*
G75*
G02X63118Y340945J-1969*
G01*
Y344882*
G75*
G02X61150Y342913I-1969*
G01*
G37*
Y362598D02*
G75*
G02X63118Y360630J-1969D01*
G01*
Y364567*
G75*
G02X61150Y362598I-1969*
G01*
G36*
G75*
G02X63118Y360630J-1969*
G01*
Y364567*
G75*
G02X61150Y362598I-1969*
G01*
G37*
Y382283D02*
G75*
G02X63118Y380315J-1969D01*
G01*
Y384252*
G75*
G02X61150Y382283I-1969*
G01*
G36*
G75*
G02X63118Y380315J-1969*
G01*
Y384252*
G75*
G02X61150Y382283I-1969*
G01*
G37*
Y401969D02*
G75*
G02X63118Y400000J-1969D01*
G01*
Y403937*
G75*
G02X61150Y401969I-1969*
G01*
G36*
G75*
G02X63118Y400000J-1969*
G01*
Y403937*
G75*
G02X61150Y401969I-1969*
G01*
G37*
X63118Y453346D02*
G75*
G02X65087Y451378J-1969D01*
G01*
Y455315*
G75*
G02X63118Y453346I-1969*
G01*
G36*
G75*
G02X65087Y451378J-1969*
G01*
Y455315*
G75*
G02X63118Y453346I-1969*
G01*
G37*
Y473031D02*
G75*
G02X65087Y471063J-1969D01*
G01*
Y475000*
G75*
G02X63118Y473031I-1969*
G01*
G36*
G75*
G02X65087Y471063J-1969*
G01*
Y475000*
G75*
G02X63118Y473031I-1969*
G01*
G37*
Y492717D02*
G75*
G02X65087Y490748J-1969D01*
G01*
Y494685*
G75*
G02X63118Y492717I-1969*
G01*
G36*
G75*
G02X65087Y490748J-1969*
G01*
Y494685*
G75*
G02X63118Y492717I-1969*
G01*
G37*
Y512402D02*
G75*
G02X65087Y510433J-1969D01*
G01*
Y514370*
G75*
G02X63118Y512402I-1969*
G01*
G36*
G75*
G02X65087Y510433J-1969*
G01*
Y514370*
G75*
G02X63118Y512402I-1969*
G01*
G37*
Y532087D02*
G75*
G02X65087Y530118J-1969D01*
G01*
Y534055*
G75*
G02X63118Y532087I-1969*
G01*
G36*
G75*
G02X65087Y530118J-1969*
G01*
Y534055*
G75*
G02X63118Y532087I-1969*
G01*
G37*
X64890Y551772D02*
Y433661D01*
X112331*
Y551772*
X64890*
X76898Y504528D02*
X100520D01*
Y480906*
X76898*
Y504528*
X65087Y492717D02*
G36*
Y433858D01*
X112134*
Y492717*
X100520*
Y480906*
X76898*
Y492717*
X65087*
G37*
Y551575D02*
G36*
Y492717D01*
X76898*
Y504528*
X100520*
Y492717*
X112134*
Y551575*
X65087*
G37*
X151701Y390157D02*
X109181D01*
Y421654*
X63118*
Y303543*
X109181*
Y335039*
X151701*
Y390157*
X75323Y374606D02*
X98945D01*
Y350984*
X75323*
Y374606*
X63315Y362795D02*
G36*
Y303740D01*
X109181*
Y335039*
X151504*
Y362795*
X98945*
Y350984*
X75323*
Y362795*
X63315*
G37*
Y421457D02*
G36*
Y362795D01*
X75323*
Y374606*
X98945*
Y362795*
X151504*
Y390157*
X109181*
Y421457*
X63315*
G37*
X151701Y421654D02*
Y303543D01*
X198945*
Y421654*
X151701*
X163906Y374606D02*
X187528D01*
Y350984*
X187134*
Y350591*
X163512*
Y374213*
X163906*
Y374606*
X151898Y362598D02*
G36*
Y303740D01*
X198748*
Y362598*
X187528*
Y350984*
X187134*
Y350591*
X163512*
Y362598*
X151898*
G37*
Y421457D02*
G36*
Y362598D01*
X163512*
Y374213*
X163906*
Y374606*
X187528*
Y362598*
X198748*
Y421457*
X151898*
G37*
X153669Y465157D02*
Y433661D01*
X200913*
Y551772*
X153669*
Y520276*
X112528*
Y465157*
X153669*
X165480Y504528D02*
X189102D01*
Y480906*
X165480*
Y504528*
X112724Y492717D02*
G36*
Y465157D01*
X153669*
Y433858*
X200717*
Y492717*
X189102*
Y480906*
X165480*
Y492717*
X112724*
G37*
Y520276D02*
G36*
Y492717D01*
X165480*
Y504528*
X189102*
Y492717*
X200717*
Y551575*
X153669*
Y520276*
X112724*
G37*
X159575Y154724D02*
Y152362D01*
X401701*
G75*
G02X402488Y153937I1969*
G01*
Y154724*
G75*
G02X401701Y156299I1181J1575*
G01*
Y172047*
G75*
G02X402488Y173622I1969*
G01*
Y174606*
G75*
G02X401701Y176181I1181J1575*
G01*
Y191929*
G75*
G02X402488Y193504I1969*
G01*
Y194094*
G75*
G02X401701Y195669I1181J1575*
G01*
Y211417*
G75*
G02X402488Y212992I1969*
G01*
Y213780*
G75*
G02X401701Y215354I1181J1575*
G01*
Y231102*
G75*
G02X402488Y232677I1969*
G01*
Y233465*
G75*
G02X401701Y235039I1181J1575*
G01*
Y250787*
G75*
G02X402488Y252362I1969*
G01*
Y253150*
G75*
G02X401701Y254724I1181J1575*
G01*
Y270472*
G75*
G02X402488Y272047I1969*
G01*
Y272705*
G75*
G02X401504Y274409I984J1705*
G01*
Y290157*
G75*
G02X402067Y291535I1969*
G01*
X401701*
G75*
G02X399732Y293504J1969*
G01*
G75*
G02X397764Y291535I-1969*
G01*
X382016*
G75*
G02X380047Y293504J1969*
G01*
G75*
G02X378079Y291535I-1969*
G01*
X362331*
G75*
G02X360362Y293504J1969*
G01*
G75*
G02X358394Y291535I-1969*
G01*
X342646*
G75*
G02X340677Y293504J1969*
G01*
G75*
G02X338709Y291535I-1969*
G01*
X322961*
G75*
G02X320992Y293504J1969*
G01*
G75*
G02X319024Y291535I-1969*
G01*
X303276*
G75*
G02X301406Y292889J1969*
G01*
G75*
G02X299535Y291535I-1870J615*
G01*
X283787*
G75*
G02X281819Y293504J1969*
G01*
G75*
G02X279850Y291535I-1969*
G01*
X264102*
G75*
G02X262134Y293504J1969*
G01*
Y301378*
G75*
G02X264102Y303346I1969*
G01*
X279850*
G75*
G02X281819Y301378J-1969*
G01*
G75*
G02X283787Y303346I1969*
G01*
X299535*
G75*
G02X301406Y301993J-1969*
G01*
G75*
G02X303276Y303346I1870J-615*
G01*
X319024*
G75*
G02X320992Y301378J-1969*
G01*
G75*
G02X322961Y303346I1969*
G01*
X338709*
G75*
G02X340677Y301378J-1969*
G01*
G75*
G02X342646Y303346I1969*
G01*
X358394*
G75*
G02X360362Y301378J-1969*
G01*
G75*
G02X362331Y303346I1969*
G01*
X378079*
G75*
G02X380047Y301378J-1969*
G01*
G75*
G02X382016Y303346I1969*
G01*
X397764*
G75*
G02X399732Y301378J-1969*
G01*
G75*
G02X401701Y303346I1969*
G01*
X402488*
Y303740*
X159575*
Y303346*
X161543*
G75*
G02X163512Y301378J-1969*
G01*
G75*
G02X165480Y303346I1969*
G01*
X181228*
G75*
G02X183197Y301378J-1969*
G01*
G75*
G02X185165Y303346I1969*
G01*
X200913*
G75*
G02X202882Y301378J-1969*
G01*
Y293504*
G75*
G02X200913Y291535I-1969*
G01*
X185165*
G75*
G02X183197Y293504J1969*
G01*
G75*
G02X181228Y291535I-1969*
G01*
X165480*
G75*
G02X163512Y293504J1969*
G01*
G75*
G02X161543Y291535I-1969*
G01*
X159969*
G75*
G02X160362Y290354I-1575J-1181*
G01*
Y274606*
G75*
G02X159575Y273031I-1969*
G01*
Y272047*
G75*
G02X160362Y270472I-1181J-1575*
G01*
Y254724*
G75*
G02X159575Y253150I-1969*
G01*
Y252362*
G75*
G02X160362Y250787I-1181J-1575*
G01*
Y235039*
G75*
G02X159575Y233465I-1969*
G01*
Y232677*
G75*
G02X160362Y231102I-1181J-1575*
G01*
Y215354*
G75*
G02X159575Y213780I-1969*
G01*
Y212992*
G75*
G02X160362Y211417I-1181J-1575*
G01*
Y195669*
G75*
G02X159575Y194094I-1969*
G01*
Y193307*
G75*
G02X160362Y191732I-1181J-1575*
G01*
Y175984*
G75*
G02X159575Y174409I-1969*
G01*
Y173622*
G75*
G02X160362Y172047I-1181J-1575*
G01*
Y156299*
G75*
G02X159575Y154724I-1969*
G01*
X259969Y303346D02*
G75*
G02X261937Y301378J-1969D01*
G01*
Y293504*
G75*
G02X259969Y291535I-1969*
G01*
X244220*
G75*
G02X242252Y293504J1969*
G01*
G75*
G02X240283Y291535I-1969*
G01*
X224535*
G75*
G02X222665Y292889J1969*
G01*
G75*
G02X220795Y291535I-1870J615*
G01*
X205047*
G75*
G02X203079Y293504J1969*
G01*
Y301378*
G75*
G02X205047Y303346I1969*
G01*
X220795*
G75*
G02X222665Y301993J-1969*
G01*
G75*
G02X224535Y303346I1870J-615*
G01*
X240283*
G75*
G02X242252Y301378J-1969*
G01*
G75*
G02X244220Y303346I1969*
G01*
X259969*
X228425Y281228D02*
X236000D01*
Y273654*
X228425*
Y281228*
X208425D02*
X216000D01*
Y273654*
X208425*
Y281228*
X159772Y154893D02*
G36*
Y152559D01*
X401711*
G75*
G02X402291Y153768I1959J-197*
G01*
Y154893*
G75*
G02X401701Y156299I1379J1406*
G01*
Y172047*
G75*
G02X402291Y173453I1969*
G01*
Y174775*
G75*
G02X401701Y176181I1379J1406*
G01*
Y191929*
G75*
G02X402291Y193335I1969*
G01*
Y194263*
G75*
G02X401701Y195669I1379J1406*
G01*
Y211417*
G75*
G02X402291Y212823I1969*
G01*
Y213948*
G75*
G02X401701Y215354I1379J1406*
G01*
Y231102*
G75*
G02X402291Y232508I1969*
G01*
Y233633*
G75*
G02X401701Y235039I1379J1406*
G01*
Y250787*
G75*
G02X402291Y252193I1969*
G01*
Y253319*
G75*
G02X401701Y254724I1379J1406*
G01*
Y270472*
G75*
G02X402291Y271878I1969*
G01*
Y272835*
G75*
G02X401504Y274409I1181J1575*
G01*
Y277441*
X236000*
Y273654*
X228425*
Y277441*
X216000*
Y273654*
X208425*
Y277441*
X160362*
Y274606*
G75*
G02X159772Y273200I-1969*
G01*
Y271878*
G75*
G02X160362Y270472I-1379J-1406*
G01*
Y254724*
G75*
G02X159772Y253319I-1969*
G01*
Y252193*
G75*
G02X160362Y250787I-1379J-1406*
G01*
Y235039*
G75*
G02X159772Y233633I-1969*
G01*
Y232508*
G75*
G02X160362Y231102I-1379J-1406*
G01*
Y215354*
G75*
G02X159772Y213948I-1969*
G01*
Y212823*
G75*
G02X160362Y211417I-1379J-1406*
G01*
Y195669*
G75*
G02X159772Y194263I-1969*
G01*
Y193138*
G75*
G02X160362Y191732I-1379J-1406*
G01*
Y175984*
G75*
G02X159772Y174578I-1969*
G01*
Y173453*
G75*
G02X160362Y172047I-1379J-1406*
G01*
Y156299*
G75*
G02X159772Y154893I-1969*
G01*
G37*
X160362Y290354D02*
G36*
Y277441D01*
X208425*
Y281228*
X216000*
Y277441*
X228425*
Y281228*
X236000*
Y277441*
X401504*
Y290157*
G75*
G02X402067Y291535I1969*
G01*
X401701*
G75*
G02X399732Y293504J1969*
G01*
G75*
G02X397764Y291535I-1969*
G01*
X382016*
G75*
G02X380047Y293504J1969*
G01*
G75*
G02X378079Y291535I-1969*
G01*
X362331*
G75*
G02X360362Y293504J1969*
G01*
G75*
G02X358394Y291535I-1969*
G01*
X342646*
G75*
G02X340677Y293504J1969*
G01*
G75*
G02X338709Y291535I-1969*
G01*
X322961*
G75*
G02X320992Y293504J1969*
G01*
G75*
G02X319024Y291535I-1969*
G01*
X303276*
G75*
G02X301406Y292889J1969*
G01*
G75*
G02X299535Y291535I-1870J615*
G01*
X283787*
G75*
G02X281819Y293504J1969*
G01*
G75*
G02X279850Y291535I-1969*
G01*
X264102*
G75*
G02X262134Y293504J1969*
G01*
Y297441*
X261937*
Y293504*
G75*
G02X259969Y291535I-1969*
G01*
X244220*
G75*
G02X242252Y293504J1969*
G01*
G75*
G02X240283Y291535I-1969*
G01*
X224535*
G75*
G02X222665Y292889J1969*
G01*
G75*
G02X220795Y291535I-1870J615*
G01*
X205047*
G75*
G02X203079Y293504J1969*
G01*
Y297441*
X202882*
Y293504*
G75*
G02X200913Y291535I-1969*
G01*
X185165*
G75*
G02X183197Y293504J1969*
G01*
G75*
G02X181228Y291535I-1969*
G01*
X165480*
G75*
G02X163512Y293504J1969*
G01*
G75*
G02X161543Y291535I-1969*
G01*
X159969*
G75*
G02X160362Y290354I-1578J-1182*
G01*
G37*
X159772Y303543D02*
G36*
Y303346D01*
X161543*
G75*
G02X163512Y301378J-1969*
G01*
G75*
G02X165480Y303346I1969*
G01*
X181228*
G75*
G02X183197Y301378J-1969*
G01*
G75*
G02X185165Y303346I1969*
G01*
X200913*
G75*
G02X202882Y301378J-1969*
G01*
Y297441*
X203079*
Y301378*
G75*
G02X205047Y303346I1969*
G01*
X220795*
G75*
G02X222665Y301993J-1969*
G01*
G75*
G02X224535Y303346I1870J-615*
G01*
X240283*
G75*
G02X242252Y301378J-1969*
G01*
G75*
G02X244220Y303346I1969*
G01*
X259969*
G75*
G02X261937Y301378J-1969*
G01*
Y297441*
X262134*
Y301378*
G75*
G02X264102Y303346I1969*
G01*
X279850*
G75*
G02X281819Y301378J-1969*
G01*
G75*
G02X283787Y303346I1969*
G01*
X299535*
G75*
G02X301406Y301993J-1969*
G01*
G75*
G02X303276Y303346I1870J-615*
G01*
X319024*
G75*
G02X320992Y301378J-1969*
G01*
G75*
G02X322961Y303346I1969*
G01*
X338709*
G75*
G02X340677Y301378J-1969*
G01*
G75*
G02X342646Y303346I1969*
G01*
X358394*
G75*
G02X360362Y301378J-1969*
G01*
G75*
G02X362331Y303346I1969*
G01*
X378079*
G75*
G02X380047Y301378J-1969*
G01*
G75*
G02X382016Y303346I1969*
G01*
X397764*
G75*
G02X399732Y301378J-1969*
G01*
G75*
G02X401701Y303346I1969*
G01*
X402291*
Y303543*
X159772*
G37*
X160131Y22971D02*
X160131Y22108D01*
G75*
G02X160756Y20669I-1344J-1439*
G01*
Y2559*
X401504*
Y14764*
G75*
G02X401898Y15945I1969*
G01*
Y152559*
X397764*
G75*
G02X399732Y150591J-1969*
G01*
Y142717*
G75*
G02X397764Y140748I-1969*
G01*
X382016*
G75*
G02X380047Y142717J1969*
G01*
G75*
G02X378079Y140748I-1969*
G01*
X362331*
G75*
G02X360362Y142717J1969*
G01*
G75*
G02X358394Y140748I-1969*
G01*
X342646*
G75*
G02X340677Y142717J1969*
G01*
G75*
G02X338709Y140748I-1969*
G01*
X322961*
G75*
G02X320992Y142717J1969*
G01*
G75*
G02X319024Y140748I-1969*
G01*
X303276*
G75*
G02X301307Y142717J1969*
G01*
G75*
G02X299339Y140748I-1969*
G01*
X283591*
G75*
G02X281622Y142717J1969*
G01*
G75*
G02X279654Y140748I-1969*
G01*
X263906*
G75*
G02X261937Y142717J1969*
G01*
G75*
G02X259969Y140748I-1969*
G01*
X244220*
G75*
G02X242252Y142717J1969*
G01*
G75*
G02X240283Y140748I-1969*
G01*
X224535*
G75*
G02X222567Y142717J1969*
G01*
G75*
G02X220598Y140748I-1969*
G01*
X204850*
G75*
G02X202882Y142717J1969*
G01*
G75*
G02X200913Y140748I-1969*
G01*
X185165*
G75*
G02X183197Y142717J1969*
G01*
G75*
G02X181228Y140748I-1969*
G01*
X165480*
G75*
G02X163512Y142717J1969*
G01*
Y150591*
G75*
G02X165480Y152559I1969*
G01*
X160756*
G75*
G02X162724Y150591J-1969*
G01*
Y142717*
G75*
G02X160756Y140748I-1969*
G01*
X160162*
X160162Y139768*
G75*
G02X160559Y138583I-1571J-1186*
G01*
Y122835*
G75*
G02X160157Y121643I-1969J0*
G01*
X160157Y120090*
G75*
G02X160559Y118898I-1567J-1193*
G01*
Y103150*
G75*
G02X160152Y101951I-1969J0*
G01*
X160152Y100412*
G75*
G02X160559Y99213I-1561J-1199*
G01*
Y83465*
G75*
G02X160147Y82259I-1969J0*
G01*
X160146Y80952*
G75*
G02X160756Y79528I-1359J-1424*
G01*
Y63780*
G75*
G02X160142Y62351I-1969*
G01*
X160141Y61271*
G75*
G02X160756Y59843I-1354J-1429*
G01*
Y44094*
G75*
G02X160137Y42661I-1969*
G01*
X160136Y41591*
G75*
G02X160756Y40157I-1349J-1434*
G01*
Y24409*
G75*
G02X160131Y22971I-1969*
G01*
G36*
X160131Y22108*
G75*
G02X160756Y20669I-1344J-1439*
G01*
Y2559*
X401504*
Y14764*
G75*
G02X401898Y15945I1969*
G01*
Y152559*
X397764*
G75*
G02X399732Y150591J-1969*
G01*
Y142717*
G75*
G02X397764Y140748I-1969*
G01*
X382016*
G75*
G02X380047Y142717J1969*
G01*
G75*
G02X378079Y140748I-1969*
G01*
X362331*
G75*
G02X360362Y142717J1969*
G01*
G75*
G02X358394Y140748I-1969*
G01*
X342646*
G75*
G02X340677Y142717J1969*
G01*
G75*
G02X338709Y140748I-1969*
G01*
X322961*
G75*
G02X320992Y142717J1969*
G01*
G75*
G02X319024Y140748I-1969*
G01*
X303276*
G75*
G02X301307Y142717J1969*
G01*
G75*
G02X299339Y140748I-1969*
G01*
X283591*
G75*
G02X281622Y142717J1969*
G01*
G75*
G02X279654Y140748I-1969*
G01*
X263906*
G75*
G02X261937Y142717J1969*
G01*
G75*
G02X259969Y140748I-1969*
G01*
X244220*
G75*
G02X242252Y142717J1969*
G01*
G75*
G02X240283Y140748I-1969*
G01*
X224535*
G75*
G02X222567Y142717J1969*
G01*
G75*
G02X220598Y140748I-1969*
G01*
X204850*
G75*
G02X202882Y142717J1969*
G01*
G75*
G02X200913Y140748I-1969*
G01*
X185165*
G75*
G02X183197Y142717J1969*
G01*
G75*
G02X181228Y140748I-1969*
G01*
X165480*
G75*
G02X163512Y142717J1969*
G01*
Y150591*
G75*
G02X165480Y152559I1969*
G01*
X160756*
G75*
G02X162724Y150591J-1969*
G01*
Y142717*
G75*
G02X160756Y140748I-1969*
G01*
X160162*
X160162Y139768*
G75*
G02X160559Y138583I-1571J-1186*
G01*
Y122835*
G75*
G02X160157Y121643I-1969J0*
G01*
X160157Y120090*
G75*
G02X160559Y118898I-1567J-1193*
G01*
Y103150*
G75*
G02X160152Y101951I-1969J0*
G01*
X160152Y100412*
G75*
G02X160559Y99213I-1561J-1199*
G01*
Y83465*
G75*
G02X160147Y82259I-1969J0*
G01*
X160146Y80952*
G75*
G02X160756Y79528I-1359J-1424*
G01*
Y63780*
G75*
G02X160142Y62351I-1969*
G01*
X160141Y61271*
G75*
G02X160756Y59843I-1354J-1429*
G01*
Y44094*
G75*
G02X160137Y42661I-1969*
G01*
X160136Y41591*
G75*
G02X160756Y40157I-1349J-1434*
G01*
Y24409*
G75*
G02X160131Y22971I-1969*
G01*
G37*
X181228Y152559D02*
G75*
G02X183197Y150591J-1969D01*
G01*
G75*
G02X185165Y152559I1969*
G01*
X181228*
G36*
G75*
G02X183197Y150591J-1969*
G01*
G75*
G02X185165Y152559I1969*
G01*
X181228*
G37*
X198945Y325197D02*
Y321260D01*
G75*
G02X200913Y323228I1969*
G01*
G75*
G02X198945Y325197J1969*
G01*
G36*
Y321260*
G75*
G02X200913Y323228I1969*
G01*
G75*
G02X198945Y325197J1969*
G01*
G37*
Y344882D02*
Y340945D01*
G75*
G02X200913Y342913I1969*
G01*
G75*
G02X198945Y344882J1969*
G01*
G36*
Y340945*
G75*
G02X200913Y342913I1969*
G01*
G75*
G02X198945Y344882J1969*
G01*
G37*
Y364567D02*
Y360630D01*
G75*
G02X200913Y362598I1969*
G01*
G75*
G02X198945Y364567J1969*
G01*
G36*
Y360630*
G75*
G02X200913Y362598I1969*
G01*
G75*
G02X198945Y364567J1969*
G01*
G37*
Y384252D02*
Y380315D01*
G75*
G02X200913Y382283I1969*
G01*
G75*
G02X198945Y384252J1969*
G01*
G36*
Y380315*
G75*
G02X200913Y382283I1969*
G01*
G75*
G02X198945Y384252J1969*
G01*
G37*
Y403937D02*
Y400000D01*
G75*
G02X200913Y401969I1969*
G01*
G75*
G02X198945Y403937J1969*
G01*
G36*
Y400000*
G75*
G02X200913Y401969I1969*
G01*
G75*
G02X198945Y403937J1969*
G01*
G37*
X200913Y152559D02*
G75*
G02X202882Y150591J-1969D01*
G01*
G75*
G02X204850Y152559I1969*
G01*
X200913*
G36*
G75*
G02X202882Y150591J-1969*
G01*
G75*
G02X204850Y152559I1969*
G01*
X200913*
G37*
Y455315D02*
Y451378D01*
G75*
G02X202882Y453346I1969*
G01*
G75*
G02X200913Y455315J1969*
G01*
G36*
Y451378*
G75*
G02X202882Y453346I1969*
G01*
G75*
G02X200913Y455315J1969*
G01*
G37*
Y475000D02*
Y471063D01*
G75*
G02X202882Y473031I1969*
G01*
G75*
G02X200913Y475000J1969*
G01*
G36*
Y471063*
G75*
G02X202882Y473031I1969*
G01*
G75*
G02X200913Y475000J1969*
G01*
G37*
Y494685D02*
Y490748D01*
G75*
G02X202882Y492717I1969*
G01*
G75*
G02X200913Y494685J1969*
G01*
G36*
Y490748*
G75*
G02X202882Y492717I1969*
G01*
G75*
G02X200913Y494685J1969*
G01*
G37*
Y514370D02*
Y510433D01*
G75*
G02X202882Y512402I1969*
G01*
G75*
G02X200913Y514370J1969*
G01*
G36*
Y510433*
G75*
G02X202882Y512402I1969*
G01*
G75*
G02X200913Y514370J1969*
G01*
G37*
Y534055D02*
Y530118D01*
G75*
G02X202882Y532087I1969*
G01*
G75*
G02X200913Y534055J1969*
G01*
G36*
Y530118*
G75*
G02X202882Y532087I1969*
G01*
G75*
G02X200913Y534055J1969*
G01*
G37*
X210756Y305512D02*
G75*
G02X208787Y303543I-1969D01*
G01*
X266268*
Y350787*
X266071*
Y345276*
G75*
G02X264102Y343307I-1969*
G01*
G75*
G02X266071Y341339J-1969*
G01*
Y325591*
G75*
G02X264102Y323622I-1969*
G01*
X256228*
G75*
G02X254260Y325591J1969*
G01*
Y341339*
G75*
G02X256228Y343307I1969*
G01*
G75*
G02X254260Y345276J1969*
G01*
Y350787*
X222567*
Y374409*
X254260*
Y380906*
G75*
G02X256228Y382874I1969*
G01*
G75*
G02X254260Y384843J1969*
G01*
Y400591*
G75*
G02X255614Y402461I1969*
G01*
G75*
G02X254260Y404331I615J1870*
G01*
Y420079*
G75*
G02X255047Y421654I1969*
G01*
X208787*
G75*
G02X210756Y419685J-1969*
G01*
Y403937*
G75*
G02X208787Y401969I-1969*
G01*
G75*
G02X210756Y400000J-1969*
G01*
Y384252*
G75*
G02X208787Y382283I-1969*
G01*
G75*
G02X210756Y380315J-1969*
G01*
Y364567*
G75*
G02X208787Y362598I-1969*
G01*
G75*
G02X210756Y360630J-1969*
G01*
Y344882*
G75*
G02X208787Y342913I-1969*
G01*
G75*
G02X210756Y340945J-1969*
G01*
Y325197*
G75*
G02X208787Y323228I-1969*
G01*
G75*
G02X210756Y321260J-1969*
G01*
Y305512*
X264102Y323425D02*
G75*
G02X266071Y321457J-1969D01*
G01*
Y307087*
G75*
G02X264102Y305118I-1969*
G01*
X256228*
G75*
G02X254260Y307087J1969*
G01*
Y321457*
G75*
G02X256228Y323425I1969*
G01*
X264102*
X210756Y305512D02*
G36*
G75*
G02X209645Y303740I-1969D01*
G01*
X266071*
Y307087*
G75*
G02X264102Y305118I-1969*
G01*
X256228*
G75*
G02X254260Y307087J1969*
G01*
Y314272*
X210756*
Y305512*
G37*
X208984Y323238D02*
G36*
Y323219D01*
G75*
G02X210756Y321260I-197J-1959*
G01*
Y314272*
X254260*
Y321457*
G75*
G02X256228Y323425I1969*
G01*
X264102*
G75*
G02X266071Y321457J-1969*
G01*
Y325591*
G75*
G02X264102Y323622I-1969*
G01*
X256228*
G75*
G02X254260Y325591J1969*
G01*
Y341339*
G75*
G02X256228Y343307I1969*
G01*
G75*
G02X254260Y345276J1969*
G01*
Y350787*
X222567*
Y374409*
X254260*
Y380906*
G75*
G02X256228Y382874I1969*
G01*
G75*
G02X254260Y384843J1969*
G01*
Y400591*
G75*
G02X255614Y402461I1969*
G01*
G75*
G02X254260Y404331I615J1870*
G01*
Y420079*
G75*
G02X254822Y421457I1969*
G01*
X209645*
G75*
G02X210756Y419685I-858J-1772*
G01*
Y403937*
G75*
G02X208984Y401978I-1969*
G01*
Y401959*
G75*
G02X210756Y400000I-197J-1959*
G01*
Y384252*
G75*
G02X208984Y382293I-1969*
G01*
Y382274*
G75*
G02X210756Y380315I-197J-1959*
G01*
Y364567*
G75*
G02X208984Y362608I-1969*
G01*
Y362589*
G75*
G02X210756Y360630I-197J-1959*
G01*
Y344882*
G75*
G02X208984Y342923I-1969*
G01*
Y342904*
G75*
G02X210756Y340945I-197J-1959*
G01*
Y325197*
G75*
G02X208984Y323238I-1969*
G01*
G37*
X264102Y343307D02*
G36*
G75*
G02X266071Y341339J-1969D01*
G01*
Y345276*
G75*
G02X264102Y343307I-1969*
G01*
G37*
X212331Y434449D02*
G75*
G02X210756Y433661I-1575J1181D01*
G01*
X220598*
G75*
G02X222567Y431693J-1969*
G01*
G75*
G02X224535Y433661I1969*
G01*
X240283*
G75*
G02X242252Y431693J-1969*
G01*
G75*
G02X244220Y433661I1969*
G01*
X259969*
G75*
G02X261937Y431693J-1969*
G01*
Y423819*
G75*
G02X260826Y422047I-1969*
G01*
X263244*
G75*
G02X262134Y423819I858J1772*
G01*
Y431693*
G75*
G02X264102Y433661I1969*
G01*
X279850*
G75*
G02X281720Y432307J-1969*
G01*
G75*
G02X283591Y433661I1870J-615*
G01*
X299339*
G75*
G02X301307Y431693J-1969*
G01*
Y423819*
G75*
G02X299339Y421850I-1969*
G01*
X283591*
G75*
G02X281720Y423204J1969*
G01*
G75*
G02X279850Y421850I-1870J615*
G01*
X264960*
G75*
G02X265508Y421457I-858J-1772*
G01*
X505638*
Y432087*
G75*
G02X506425Y433661I1969*
G01*
Y434449*
X468433*
G75*
G02X466858Y433661I-1575J1181*
G01*
X476307*
G75*
G02X478276Y431693J-1969*
G01*
Y423819*
G75*
G02X476307Y421850I-1969*
G01*
X460559*
G75*
G02X458689Y423204J1969*
G01*
G75*
G02X456819Y421850I-1870J615*
G01*
X441071*
G75*
G02X439102Y423819J1969*
G01*
Y431693*
G75*
G02X441071Y433661I1969*
G01*
X456819*
G75*
G02X458689Y432307J-1969*
G01*
G75*
G02X460559Y433661I1870J-615*
G01*
X458984*
G75*
G02X457409Y434449J1969*
G01*
X320795*
G75*
G02X319220Y433661I-1575J1181*
G01*
G75*
G02X321091Y432307J-1969*
G01*
G75*
G02X322961Y433661I1870J-615*
G01*
X338709*
G75*
G02X340677Y431693J-1969*
G01*
G75*
G02X342646Y433661I1969*
G01*
X358394*
G75*
G02X360362Y431693J-1969*
G01*
G75*
G02X362331Y433661I1969*
G01*
X378079*
G75*
G02X379949Y432307J-1969*
G01*
G75*
G02X381819Y433661I1870J-615*
G01*
X397567*
G75*
G02X399535Y431693J-1969*
G01*
Y423819*
G75*
G02X397567Y421850I-1969*
G01*
X381819*
G75*
G02X379949Y423204J1969*
G01*
G75*
G02X378079Y421850I-1870J615*
G01*
X362331*
G75*
G02X360362Y423819J1969*
G01*
G75*
G02X358394Y421850I-1969*
G01*
X342646*
G75*
G02X340677Y423819J1969*
G01*
G75*
G02X338709Y421850I-1969*
G01*
X322961*
G75*
G02X321091Y423204J1969*
G01*
G75*
G02X319220Y421850I-1870J615*
G01*
X303472*
G75*
G02X301504Y423819J1969*
G01*
Y431693*
G75*
G02X303472Y433661I1969*
G01*
X311346*
G75*
G02X309772Y434449J1969*
G01*
X212331*
X502882Y433661D02*
G75*
G02X504850Y431693J-1969D01*
G01*
Y423819*
G75*
G02X502882Y421850I-1969*
G01*
X480441*
G75*
G02X478472Y423819J1969*
G01*
Y431693*
G75*
G02X480441Y433661I1969*
G01*
X502882*
X436937D02*
G75*
G02X438906Y431693J-1969D01*
G01*
Y423819*
G75*
G02X436937Y421850I-1969*
G01*
X421189*
G75*
G02X419319Y423204J1969*
G01*
G75*
G02X417449Y421850I-1870J615*
G01*
X401701*
G75*
G02X399732Y423819J1969*
G01*
Y431693*
G75*
G02X401701Y433661I1969*
G01*
X417449*
G75*
G02X419319Y432307J-1969*
G01*
G75*
G02X421189Y433661I1870J-615*
G01*
X436937*
X261937Y423819D02*
G36*
G75*
G02X260826Y422047I-1970J1D01*
G01*
X263244*
G75*
G02X262134Y423819I858J1772*
G01*
Y427756*
X261937*
Y423819*
G37*
X264960Y421850D02*
G36*
G75*
G02X265283Y421654I-860J-1776D01*
G01*
X505638*
Y427756*
X504850*
Y423819*
G75*
G02X502882Y421850I-1969*
G01*
X480441*
G75*
G02X478472Y423819J1969*
G01*
Y427756*
X478276*
Y423819*
G75*
G02X476307Y421850I-1969*
G01*
X460559*
G75*
G02X458689Y423204J1969*
G01*
G75*
G02X456819Y421850I-1870J615*
G01*
X441071*
G75*
G02X439102Y423819J1969*
G01*
Y427756*
X438906*
Y423819*
G75*
G02X436937Y421850I-1969*
G01*
X421189*
G75*
G02X419319Y423204J1969*
G01*
G75*
G02X417449Y421850I-1870J615*
G01*
X401701*
G75*
G02X399732Y423819J1969*
G01*
Y427756*
X399535*
Y423819*
G75*
G02X397567Y421850I-1969*
G01*
X381819*
G75*
G02X379949Y423204J1969*
G01*
G75*
G02X378079Y421850I-1870J615*
G01*
X362331*
G75*
G02X360362Y423819J1969*
G01*
G75*
G02X358394Y421850I-1969*
G01*
X342646*
G75*
G02X340677Y423819J1969*
G01*
G75*
G02X338709Y421850I-1969*
G01*
X322961*
G75*
G02X321091Y423204J1969*
G01*
G75*
G02X319220Y421850I-1870J615*
G01*
X303472*
G75*
G02X301504Y423819J1969*
G01*
Y427756*
X301307*
Y423819*
G75*
G02X299339Y421850I-1969*
G01*
X283591*
G75*
G02X281720Y423204J1969*
G01*
G75*
G02X279850Y421850I-1870J615*
G01*
X264960*
G37*
X210953Y433671D02*
G36*
Y433661D01*
X220598*
G75*
G02X222567Y431693J-1969*
G01*
G75*
G02X224535Y433661I1969*
G01*
X240283*
G75*
G02X242252Y431693J-1969*
G01*
G75*
G02X244220Y433661I1969*
G01*
X259969*
G75*
G02X261937Y431693J-1969*
G01*
Y427756*
X262134*
Y431693*
G75*
G02X264102Y433661I1969*
G01*
X279850*
G75*
G02X281720Y432307J-1969*
G01*
G75*
G02X283591Y433661I1870J-615*
G01*
X299339*
G75*
G02X301307Y431693J-1969*
G01*
Y427756*
X301504*
Y431693*
G75*
G02X303472Y433661I1969*
G01*
X311346*
G75*
G02X309941Y434252J1969*
G01*
X212162*
G75*
G02X210953Y433671I-1406J1379*
G01*
G37*
X320626Y434252D02*
G36*
G75*
G02X319220Y433661I-1406J1379D01*
G01*
G75*
G02X321091Y432307J-1969*
G01*
G75*
G02X322961Y433661I1870J-615*
G01*
X338709*
G75*
G02X340677Y431693J-1969*
G01*
G75*
G02X342646Y433661I1969*
G01*
X358394*
G75*
G02X360362Y431693J-1969*
G01*
G75*
G02X362331Y433661I1969*
G01*
X378079*
G75*
G02X379949Y432307J-1969*
G01*
G75*
G02X381819Y433661I1870J-615*
G01*
X397567*
G75*
G02X399535Y431693J-1969*
G01*
Y427756*
X399732*
Y431693*
G75*
G02X401701Y433661I1969*
G01*
X417449*
G75*
G02X419319Y432307J-1969*
G01*
G75*
G02X421189Y433661I1870J-615*
G01*
X436937*
G75*
G02X438906Y431693J-1969*
G01*
Y427756*
X439102*
Y431693*
G75*
G02X441071Y433661I1969*
G01*
X456819*
G75*
G02X458689Y432307J-1969*
G01*
G75*
G02X460559Y433661I1870J-615*
G01*
X458984*
G75*
G02X457578Y434252J1969*
G01*
X320626*
G37*
X468264D02*
G36*
G75*
G02X466858Y433661I-1406J1379D01*
G01*
X476307*
G75*
G02X478276Y431693J-1969*
G01*
Y427756*
X478472*
Y431693*
G75*
G02X480441Y433661I1969*
G01*
X502882*
G75*
G02X504850Y431693J-1969*
G01*
Y427756*
X505638*
Y432087*
G75*
G02X506228Y433493I1969*
G01*
Y434252*
X468264*
G37*
X212724Y435630D02*
G75*
G02X210756Y433661I-1969D01*
G01*
X256031*
Y437805*
G75*
G02X254260Y439764I197J1959*
G01*
Y455512*
G75*
G02X255524Y457350I1969*
G01*
G75*
G02X254063Y459252I507J1902*
G01*
Y475000*
G75*
G02X256031Y476969I1969*
G01*
Y477175*
G75*
G02X254260Y479134I197J1959*
G01*
Y480906*
X224535*
Y504528*
X254260*
Y514567*
G75*
G02X256031Y516526I1969*
G01*
Y516742*
G75*
G02X254260Y518701I197J1959*
G01*
Y534449*
G75*
G02X255279Y536173I1969*
G01*
G75*
G02X254063Y537992I753J1819*
G01*
Y551772*
X210756*
G75*
G02X212724Y549803J-1969*
G01*
Y534055*
G75*
G02X210756Y532087I-1969*
G01*
G75*
G02X212724Y530118J-1969*
G01*
Y514370*
G75*
G02X210756Y512402I-1969*
G01*
G75*
G02X212724Y510433J-1969*
G01*
Y494685*
G75*
G02X210756Y492717I-1969*
G01*
G75*
G02X212724Y490748J-1969*
G01*
Y475000*
G75*
G02X210756Y473031I-1969*
G01*
G75*
G02X212724Y471063J-1969*
G01*
Y455315*
G75*
G02X210756Y453346I-1969*
G01*
G75*
G02X212724Y451378J-1969*
G01*
Y435630*
G36*
G75*
G02X210756Y433661I-1969*
G01*
X256031*
Y437805*
G75*
G02X254260Y439764I197J1959*
G01*
Y455512*
G75*
G02X255524Y457350I1969*
G01*
G75*
G02X254063Y459252I507J1902*
G01*
Y475000*
G75*
G02X256031Y476969I1969*
G01*
Y477175*
G75*
G02X254260Y479134I197J1959*
G01*
Y480906*
X224535*
Y504528*
X254260*
Y514567*
G75*
G02X256031Y516526I1969*
G01*
Y516742*
G75*
G02X254260Y518701I197J1959*
G01*
Y534449*
G75*
G02X255279Y536173I1969*
G01*
G75*
G02X254063Y537992I753J1819*
G01*
Y551772*
X210756*
G75*
G02X212724Y549803J-1969*
G01*
Y534055*
G75*
G02X210756Y532087I-1969*
G01*
G75*
G02X212724Y530118J-1969*
G01*
Y514370*
G75*
G02X210756Y512402I-1969*
G01*
G75*
G02X212724Y510433J-1969*
G01*
Y494685*
G75*
G02X210756Y492717I-1969*
G01*
G75*
G02X212724Y490748J-1969*
G01*
Y475000*
G75*
G02X210756Y473031I-1969*
G01*
G75*
G02X212724Y471063J-1969*
G01*
Y455315*
G75*
G02X210756Y453346I-1969*
G01*
G75*
G02X212724Y451378J-1969*
G01*
Y435630*
G37*
X220598Y152559D02*
G75*
G02X222567Y150591J-1969D01*
G01*
G75*
G02X224535Y152559I1969*
G01*
X220598*
G36*
G75*
G02X222567Y150591J-1969*
G01*
G75*
G02X224535Y152559I1969*
G01*
X220598*
G37*
X240283D02*
G75*
G02X242252Y150591J-1969D01*
G01*
G75*
G02X244220Y152559I1969*
G01*
X240283*
G36*
G75*
G02X242252Y150591J-1969*
G01*
G75*
G02X244220Y152559I1969*
G01*
X240283*
G37*
X259969D02*
G75*
G02X261937Y150591J-1969D01*
G01*
G75*
G02X263906Y152559I1969*
G01*
X259969*
G36*
G75*
G02X261937Y150591J-1969*
G01*
G75*
G02X263906Y152559I1969*
G01*
X259969*
G37*
X266071Y350787D02*
Y303543D01*
X311346*
G75*
G02X309378Y305512J1969*
G01*
Y321260*
G75*
G02X311346Y323228I1969*
G01*
G75*
G02X309378Y325197J1969*
G01*
Y340945*
G75*
G02X311346Y342913I1969*
G01*
G75*
G02X309378Y344882J1969*
G01*
Y360630*
G75*
G02X311346Y362598I1969*
G01*
G75*
G02X309378Y364567J1969*
G01*
Y380315*
G75*
G02X311346Y382283I1969*
G01*
G75*
G02X309378Y384252J1969*
G01*
Y400000*
G75*
G02X311346Y401969I1969*
G01*
G75*
G02X309378Y403937J1969*
G01*
Y419685*
G75*
G02X311346Y421654I1969*
G01*
X266071*
Y374409*
X297567*
Y350787*
X266071*
G36*
Y303543*
X311346*
G75*
G02X309378Y305512J1969*
G01*
Y321260*
G75*
G02X311346Y323228I1969*
G01*
G75*
G02X309378Y325197J1969*
G01*
Y340945*
G75*
G02X311346Y342913I1969*
G01*
G75*
G02X309378Y344882J1969*
G01*
Y360630*
G75*
G02X311346Y362598I1969*
G01*
G75*
G02X309378Y364567J1969*
G01*
Y380315*
G75*
G02X311346Y382283I1969*
G01*
G75*
G02X309378Y384252J1969*
G01*
Y400000*
G75*
G02X311346Y401969I1969*
G01*
G75*
G02X309378Y403937J1969*
G01*
Y419685*
G75*
G02X311346Y421654I1969*
G01*
X266071*
Y374409*
X297567*
Y350787*
X266071*
G37*
Y380906D02*
Y374409D01*
X266268*
Y421654*
X265283*
G75*
G02X266071Y420079I-1181J-1575*
G01*
Y404331*
G75*
G02X264717Y402461I-1969*
G01*
G75*
G02X266071Y400591I-615J-1870*
G01*
Y384843*
G75*
G02X264102Y382874I-1969*
G01*
G75*
G02X266071Y380906J-1969*
G01*
G36*
Y374409*
X266268*
Y421654*
X265283*
G75*
G02X266071Y420079I-1181J-1575*
G01*
Y404331*
G75*
G02X264717Y402461I-1969*
G01*
G75*
G02X266071Y400591I-615J-1870*
G01*
Y384843*
G75*
G02X264102Y382874I-1969*
G01*
G75*
G02X266071Y380906J-1969*
G01*
G37*
Y480906D02*
Y433661D01*
X311346*
G75*
G02X309378Y435630J1969*
G01*
Y451378*
G75*
G02X311346Y453346I1969*
G01*
G75*
G02X309378Y455315J1969*
G01*
Y471063*
G75*
G02X311346Y473031I1969*
G01*
G75*
G02X309378Y475000J1969*
G01*
Y490748*
G75*
G02X311346Y492717I1969*
G01*
G75*
G02X309378Y494685J1969*
G01*
Y510433*
G75*
G02X311346Y512402I1969*
G01*
G75*
G02X309378Y514370J1969*
G01*
Y530118*
G75*
G02X311346Y532087I1969*
G01*
G75*
G02X309378Y534055J1969*
G01*
Y549803*
G75*
G02X311346Y551772I1969*
G01*
X266071*
Y504528*
X297567*
Y480906*
X266071*
G36*
Y433661*
X311346*
G75*
G02X309378Y435630J1969*
G01*
Y451378*
G75*
G02X311346Y453346I1969*
G01*
G75*
G02X309378Y455315J1969*
G01*
Y471063*
G75*
G02X311346Y473031I1969*
G01*
G75*
G02X309378Y475000J1969*
G01*
Y490748*
G75*
G02X311346Y492717I1969*
G01*
G75*
G02X309378Y494685J1969*
G01*
Y510433*
G75*
G02X311346Y512402I1969*
G01*
G75*
G02X309378Y514370J1969*
G01*
Y530118*
G75*
G02X311346Y532087I1969*
G01*
G75*
G02X309378Y534055J1969*
G01*
Y549803*
G75*
G02X311346Y551772I1969*
G01*
X266071*
Y504528*
X297567*
Y480906*
X266071*
G37*
X279654Y152559D02*
G75*
G02X281622Y150591J-1969D01*
G01*
G75*
G02X283591Y152559I1969*
G01*
X279654*
G36*
G75*
G02X281622Y150591J-1969*
G01*
G75*
G02X283591Y152559I1969*
G01*
X279654*
G37*
X299339D02*
G75*
G02X301307Y150591J-1969D01*
G01*
G75*
G02X303276Y152559I1969*
G01*
X299339*
G36*
G75*
G02X301307Y150591J-1969*
G01*
G75*
G02X303276Y152559I1969*
G01*
X299339*
G37*
X319024D02*
G75*
G02X320992Y150591J-1969D01*
G01*
G75*
G02X322961Y152559I1969*
G01*
X319024*
G36*
G75*
G02X320992Y150591J-1969*
G01*
G75*
G02X322961Y152559I1969*
G01*
X319024*
G37*
X319220Y323228D02*
G75*
G02X321189Y321260J-1969D01*
G01*
Y325197*
G75*
G02X319220Y323228I-1969*
G01*
G36*
G75*
G02X321189Y321260J-1969*
G01*
Y325197*
G75*
G02X319220Y323228I-1969*
G01*
G37*
Y342913D02*
G75*
G02X321189Y340945J-1969D01*
G01*
Y344882*
G75*
G02X319220Y342913I-1969*
G01*
G36*
G75*
G02X321189Y340945J-1969*
G01*
Y344882*
G75*
G02X319220Y342913I-1969*
G01*
G37*
Y362598D02*
G75*
G02X321189Y360630J-1969D01*
G01*
Y364567*
G75*
G02X319220Y362598I-1969*
G01*
G36*
G75*
G02X321189Y360630J-1969*
G01*
Y364567*
G75*
G02X319220Y362598I-1969*
G01*
G37*
Y382283D02*
G75*
G02X321189Y380315J-1969D01*
G01*
Y384252*
G75*
G02X319220Y382283I-1969*
G01*
G36*
G75*
G02X321189Y380315J-1969*
G01*
Y384252*
G75*
G02X319220Y382283I-1969*
G01*
G37*
Y401969D02*
G75*
G02X321189Y400000J-1969D01*
G01*
Y403937*
G75*
G02X319220Y401969I-1969*
G01*
G36*
G75*
G02X321189Y400000J-1969*
G01*
Y403937*
G75*
G02X319220Y401969I-1969*
G01*
G37*
Y453346D02*
G75*
G02X321189Y451378J-1969D01*
G01*
Y455315*
G75*
G02X319220Y453346I-1969*
G01*
G36*
G75*
G02X321189Y451378J-1969*
G01*
Y455315*
G75*
G02X319220Y453346I-1969*
G01*
G37*
Y473031D02*
G75*
G02X321189Y471063J-1969D01*
G01*
Y475000*
G75*
G02X319220Y473031I-1969*
G01*
G36*
G75*
G02X321189Y471063J-1969*
G01*
Y475000*
G75*
G02X319220Y473031I-1969*
G01*
G37*
Y492717D02*
G75*
G02X321189Y490748J-1969D01*
G01*
Y494685*
G75*
G02X319220Y492717I-1969*
G01*
G36*
G75*
G02X321189Y490748J-1969*
G01*
Y494685*
G75*
G02X319220Y492717I-1969*
G01*
G37*
Y512402D02*
G75*
G02X321189Y510433J-1969D01*
G01*
Y514370*
G75*
G02X319220Y512402I-1969*
G01*
G36*
G75*
G02X321189Y510433J-1969*
G01*
Y514370*
G75*
G02X319220Y512402I-1969*
G01*
G37*
Y532087D02*
G75*
G02X321189Y530118J-1969D01*
G01*
Y534055*
G75*
G02X319220Y532087I-1969*
G01*
G36*
G75*
G02X321189Y530118J-1969*
G01*
Y534055*
G75*
G02X319220Y532087I-1969*
G01*
G37*
X321189Y551772D02*
Y433661D01*
X368433*
Y551772*
X321189*
X333197Y504528D02*
X356819D01*
Y480906*
X333197*
Y504528*
X321386Y492717D02*
G36*
Y433858D01*
X368236*
Y492717*
X356819*
Y480906*
X333197*
Y492717*
X321386*
G37*
Y551575D02*
G36*
Y492717D01*
X333197*
Y504528*
X356819*
Y492717*
X368236*
Y551575*
X321386*
G37*
X338709Y152559D02*
G75*
G02X340677Y150591J-1969D01*
G01*
G75*
G02X342646Y152559I1969*
G01*
X338709*
G36*
G75*
G02X340677Y150591J-1969*
G01*
G75*
G02X342646Y152559I1969*
G01*
X338709*
G37*
X358394D02*
G75*
G02X360362Y150591J-1969D01*
G01*
G75*
G02X362331Y152559I1969*
G01*
X358394*
G36*
G75*
G02X360362Y150591J-1969*
G01*
G75*
G02X362331Y152559I1969*
G01*
X358394*
G37*
X378079D02*
G75*
G02X380047Y150591J-1969D01*
G01*
G75*
G02X382016Y152559I1969*
G01*
X378079*
G36*
G75*
G02X380047Y150591J-1969*
G01*
G75*
G02X382016Y152559I1969*
G01*
X378079*
G37*
X409772Y465157D02*
Y433661D01*
X457016*
Y551772*
X409772*
Y520276*
X368433*
Y465157*
X409772*
X421780Y504528D02*
X445402D01*
Y480906*
X421780*
Y504528*
X368630Y492717D02*
G36*
Y465157D01*
X409772*
Y433858*
X456819*
Y492717*
X445402*
Y480906*
X421780*
Y492717*
X368630*
G37*
Y520276D02*
G36*
Y492717D01*
X421780*
Y504528*
X445402*
Y492717*
X456819*
Y551575*
X409772*
Y520276*
X368630*
G37*
X413906Y291142D02*
Y98228D01*
X500520*
Y291142*
X413906*
X428425Y110571D02*
G75*
G02X436000I3787D01*
G01*
Y105571*
G75*
G02X428425I-3787*
G01*
Y110571*
Y283799D02*
G75*
G02X436000I3787D01*
G01*
Y278799*
G75*
G02X428425I-3787*
G01*
Y283799*
X447961Y199148D02*
G75*
G02X448650Y197441I-1772J-1707D01*
G01*
G75*
G02X443728I-2461*
G01*
G75*
G02X444417Y199148I2461*
G01*
Y201431*
X438270Y207579*
G75*
G02X435854Y210039I45J2460*
G01*
G75*
G02X440775Y210085I2461*
G01*
X447441Y203419*
G75*
G02X447961Y202165I-1252J-1254*
G01*
Y199148*
X438425Y110571D02*
G75*
G02X446000I3787D01*
G01*
Y105571*
G75*
G02X438425I-3787*
G01*
Y110571*
Y283799D02*
G75*
G02X446000I3787D01*
G01*
Y278799*
G75*
G02X438425I-3787*
G01*
Y283799*
X455031Y202559D02*
G75*
G02X459394I2181D01*
G01*
G75*
G02X455031I-2181*
G01*
Y210433D02*
G75*
G02X459394I2181D01*
G01*
G75*
G02X455031I-2181*
G01*
X458969Y206496D02*
G75*
G02X463331I2181D01*
G01*
G75*
G02X458969I-2181*
G01*
X462906Y202559D02*
G75*
G02X467268I2181D01*
G01*
G75*
G02X462906I-2181*
G01*
Y210433D02*
G75*
G02X467268I2181D01*
G01*
G75*
G02X462906I-2181*
G01*
X475520Y222967D02*
G75*
G02X476209Y221260I-1772J-1707D01*
G01*
G75*
G02X471287I-2461*
G01*
G75*
G02X471976Y222967I2461*
G01*
Y244345*
X468978Y247343*
G75*
G02X466563Y249803I45J2460*
G01*
G75*
G02X471484Y249848I2461*
G01*
X475000Y246332*
G75*
G02X475520Y245079I-1252J-1254*
G01*
Y222967*
X468425Y110571D02*
G75*
G02X476000I3787D01*
G01*
Y105571*
G75*
G02X468425I-3787*
G01*
Y110571*
Y283799D02*
G75*
G02X476000I3787D01*
G01*
Y278799*
G75*
G02X468425I-3787*
G01*
Y283799*
X481583Y227906D02*
G75*
G02X482114Y226378I-1929J-1528D01*
G01*
G75*
G02X477193I-2461*
G01*
G75*
G02X477724Y227906I2461*
G01*
Y248181*
G75*
G02X477114Y249803I1850J1622*
G01*
G75*
G02X482035I2461*
G01*
G75*
G02X481583Y248381I-2461*
G01*
Y227906*
X478425Y110571D02*
G75*
G02X486000I3787D01*
G01*
Y105571*
G75*
G02X478425I-3787*
G01*
Y110571*
Y283799D02*
G75*
G02X486000I3787D01*
G01*
Y278799*
G75*
G02X478425I-3787*
G01*
Y283799*
X490236Y201772D02*
G75*
G02X496630I3197D01*
G01*
G75*
G02X490236I-3197*
G01*
X490894Y250197D02*
G75*
G02X495815I2461D01*
G01*
G75*
G02X495126Y248489I-2461*
G01*
Y218440*
G75*
G02X495815Y216732I-1772J-1707*
G01*
G75*
G02X490894I-2461*
G01*
G75*
G02X491583Y218440I2461*
G01*
Y248489*
G75*
G02X490894Y250197I1772J1707*
G01*
X414102Y108071D02*
G36*
Y98425D01*
X500323*
Y108071*
X486000*
Y105571*
G75*
G02X478425I-3787*
G01*
Y108071*
X476000*
Y105571*
G75*
G02X468425I-3787*
G01*
Y108071*
X446000*
Y105571*
G75*
G02X438425I-3787*
G01*
Y108071*
X436000*
Y105571*
G75*
G02X428425I-3787*
G01*
Y108071*
X414102*
G37*
Y203740D02*
G36*
Y108071D01*
X428425*
Y110571*
G75*
G02X436000I3787*
G01*
Y108071*
X438425*
Y110571*
G75*
G02X446000I3787*
G01*
Y108071*
X468425*
Y110571*
G75*
G02X476000I3787*
G01*
Y108071*
X478425*
Y110571*
G75*
G02X486000I3787*
G01*
Y108071*
X500323*
Y203740*
X495952*
G75*
G02X496630Y201772I-2519J-1969*
G01*
G75*
G02X490236I-3197*
G01*
G75*
G02X490914Y203740I3197*
G01*
X466920*
G75*
G02X467268Y202559I-1833J-1181*
G01*
G75*
G02X462906I-2181*
G01*
G75*
G02X463253Y203740I2181J0*
G01*
X459046*
G75*
G02X459394Y202559I-1833J-1181*
G01*
G75*
G02X455031I-2181*
G01*
G75*
G02X455379Y203740I2181J0*
G01*
X447120*
X447441Y203419*
G75*
G02X447961Y202165I-1252J-1254*
G01*
Y199148*
G75*
G02X448650Y197441I-1772J-1708*
G01*
G75*
G02X443728I-2461*
G01*
G75*
G02X444417Y199148I2461J0*
G01*
Y201431*
X442109Y203740*
X414102*
G37*
Y206496D02*
G36*
Y203740D01*
X442109*
X439353Y206496*
X414102*
G37*
X444364D02*
G36*
X447120Y203740D01*
X455379*
G75*
G02X459046I1833J-1181*
G01*
X463253*
G75*
G02X466920I1833J-1181*
G01*
X490914*
G75*
G02X495952I2519J-1969*
G01*
X500323*
Y206496*
X463331*
G75*
G02X458969I-2181*
G01*
X444364*
G37*
X414102Y210433D02*
G36*
Y206496D01*
X439353*
X438270Y207579*
G75*
G02X435854Y210039I45J2460*
G01*
Y210039*
G75*
G02X435886Y210433I2461J1*
G01*
X414102*
G37*
X440744D02*
G36*
G75*
G02X440775Y210085I-2429J-393D01*
G01*
X444364Y206496*
X458969*
G75*
G02X463331I2181*
G01*
X500323*
Y210433*
X467268*
G75*
G02X462906I-2181*
G01*
X459394*
G75*
G02X455031I-2181*
G01*
X440744*
G37*
X414102Y235531D02*
G36*
Y210433D01*
X435886*
G75*
G02X440744I2429J-394*
G01*
X455031*
G75*
G02X459394I2181*
G01*
X462906*
G75*
G02X467268I2181*
G01*
X500323*
Y235531*
X495126*
Y218440*
G75*
G02X495815Y216732I-1772J-1708*
G01*
G75*
G02X490894I-2461*
G01*
G75*
G02X491583Y218440I2461J0*
G01*
Y235531*
X481583*
Y227906*
G75*
G02X482114Y226378I-1928J-1527*
G01*
Y226378*
G75*
G02X477193I-2461*
G01*
Y226378*
G75*
G02X477724Y227906I2460*
G01*
Y235531*
X475520*
Y222967*
G75*
G02X476209Y221260I-1772J-1708*
G01*
G75*
G02X471287I-2461*
G01*
G75*
G02X471976Y222967I2461J0*
G01*
Y235531*
X414102*
G37*
Y281299D02*
G36*
Y235531D01*
X471976*
Y244345*
X468978Y247343*
G75*
G02X466563Y249803I45J2460*
G01*
Y249803*
G75*
G02X471484Y249848I2461*
G01*
X475000Y246332*
G75*
G02X475520Y245079I-1252J-1254*
G01*
Y235531*
X477724*
Y248181*
G75*
G02X477114Y249802I1849J1621*
G01*
G75*
G02Y249803I3007J0*
G01*
G75*
G02X482035I2461*
G01*
G75*
G02Y249802I-2506J0*
G01*
G75*
G02X481583Y248381I-2457*
G01*
Y235531*
X491583*
Y248489*
G75*
G02X490894Y250197I1772J1708*
G01*
G75*
G02X495815I2461*
G01*
G75*
G02X495126Y248489I-2461J0*
G01*
Y235531*
X500323*
Y281299*
X486000*
Y278799*
G75*
G02X478425I-3787*
G01*
Y281299*
X476000*
Y278799*
G75*
G02X468425I-3787*
G01*
Y281299*
X446000*
Y278799*
G75*
G02X438425I-3787*
G01*
Y281299*
X436000*
Y278799*
G75*
G02X428425I-3787*
G01*
Y281299*
X414102*
G37*
Y290945D02*
G36*
Y281299D01*
X428425*
Y283799*
G75*
G02X436000I3787*
G01*
Y281299*
X438425*
Y283799*
G75*
G02X446000I3787*
G01*
Y281299*
X468425*
Y283799*
G75*
G02X476000I3787*
G01*
Y281299*
X478425*
Y283799*
G75*
G02X486000I3787*
G01*
Y281299*
X500323*
Y290945*
X414102*
G37*
X457016Y455315D02*
Y451378D01*
G75*
G02X458984Y453346I1969*
G01*
G75*
G02X457016Y455315J1969*
G01*
G36*
Y451378*
G75*
G02X458984Y453346I1969*
G01*
G75*
G02X457016Y455315J1969*
G01*
G37*
Y475000D02*
Y471063D01*
G75*
G02X458984Y473031I1969*
G01*
G75*
G02X457016Y475000J1969*
G01*
G36*
Y471063*
G75*
G02X458984Y473031I1969*
G01*
G75*
G02X457016Y475000J1969*
G01*
G37*
Y494685D02*
Y490748D01*
G75*
G02X458984Y492717I1969*
G01*
G75*
G02X457016Y494685J1969*
G01*
G36*
Y490748*
G75*
G02X458984Y492717I1969*
G01*
G75*
G02X457016Y494685J1969*
G01*
G37*
Y514370D02*
Y510433D01*
G75*
G02X458984Y512402I1969*
G01*
G75*
G02X457016Y514370J1969*
G01*
G36*
Y510433*
G75*
G02X458984Y512402I1969*
G01*
G75*
G02X457016Y514370J1969*
G01*
G37*
Y534055D02*
Y530118D01*
G75*
G02X458984Y532087I1969*
G01*
G75*
G02X457016Y534055J1969*
G01*
G36*
Y530118*
G75*
G02X458984Y532087I1969*
G01*
G75*
G02X457016Y534055J1969*
G01*
G37*
X458984Y335039D02*
Y303543D01*
X501630*
G75*
G02X502488Y303740I858J-1771*
G01*
X505638*
Y421654*
X458984*
Y390157*
X368433*
Y421654*
X321189*
Y303543*
X368433*
Y335039*
X458984*
X333197Y374606D02*
X356819D01*
Y350984*
X333197*
Y374606*
X321386Y362795D02*
G36*
Y303740D01*
X368433*
Y335039*
X458984*
Y303740*
X502488*
X505441*
Y362795*
X356819*
Y350984*
X333197*
Y362795*
X321386*
G37*
Y421457D02*
G36*
Y362795D01*
X333197*
Y374606*
X356819*
Y362795*
X505441*
Y421457*
X458984*
Y390157*
X368433*
Y421457*
X321386*
G37*
X468827Y435630D02*
G75*
G02X466858Y433661I-1969D01*
G01*
X506425*
G75*
G02X507606Y434055I1181J-1575*
G01*
X511937*
Y480906*
X480638*
Y504528*
X511937*
Y551772*
X466858*
G75*
G02X468827Y549803J-1969*
G01*
Y534055*
G75*
G02X466858Y532087I-1969*
G01*
G75*
G02X468827Y530118J-1969*
G01*
Y514370*
G75*
G02X466858Y512402I-1969*
G01*
G75*
G02X468827Y510433J-1969*
G01*
Y494685*
G75*
G02X466858Y492717I-1969*
G01*
G75*
G02X468827Y490748J-1969*
G01*
Y475000*
G75*
G02X466858Y473031I-1969*
G01*
G75*
G02X468827Y471063J-1969*
G01*
Y455315*
G75*
G02X466858Y453346I-1969*
G01*
G75*
G02X468827Y451378J-1969*
G01*
Y435630*
G36*
G75*
G02X466858Y433661I-1969*
G01*
X506425*
G75*
G02X507606Y434055I1181J-1575*
G01*
X511937*
Y480906*
X480638*
Y504528*
X511937*
Y551772*
X466858*
G75*
G02X468827Y549803J-1969*
G01*
Y534055*
G75*
G02X466858Y532087I-1969*
G01*
G75*
G02X468827Y530118J-1969*
G01*
Y514370*
G75*
G02X466858Y512402I-1969*
G01*
G75*
G02X468827Y510433J-1969*
G01*
Y494685*
G75*
G02X466858Y492717I-1969*
G01*
G75*
G02X468827Y490748J-1969*
G01*
Y475000*
G75*
G02X466858Y473031I-1969*
G01*
G75*
G02X468827Y471063J-1969*
G01*
Y455315*
G75*
G02X466858Y453346I-1969*
G01*
G75*
G02X468827Y451378J-1969*
G01*
Y435630*
G37*
D02*
D12*
X274142Y507965D02*
Y509965D01*
X297764Y477469D02*
Y475469D01*
Y507965D02*
Y509965D01*
X301201Y480906D02*
X303201D01*
X301201Y504528D02*
X303201D01*
X456728Y202559D02*
X454728D01*
X456728Y210433D02*
X454728D01*
X457213Y202075D02*
Y200075D01*
Y203043D02*
Y205043D01*
Y209949D02*
Y207949D01*
Y210917D02*
Y212917D01*
X457697Y202559D02*
X459697D01*
X457697Y210433D02*
X459697D01*
X460665Y206496D02*
X458665D01*
X461150Y206012D02*
Y204012D01*
Y206980D02*
Y208980D01*
X461634Y206496D02*
X463634D01*
X464602Y202559D02*
X462602D01*
X464602Y210433D02*
X462602D01*
X465087Y202075D02*
Y200075D01*
Y203043D02*
Y205043D01*
Y209949D02*
Y207949D01*
Y210917D02*
Y212917D01*
X465571Y202559D02*
X467571D01*
X465571Y210433D02*
X467571D01*
X491933Y201772D02*
X489933D01*
X493433Y200272D02*
Y198272D01*
Y203272D02*
Y205272D01*
X494933Y201772D02*
X496933D01*
D02*
D14*
X109575Y225748D03*
X109890Y220236D03*
X113118Y373425D03*
X124929Y380118D03*
X130047D03*
X141071Y367913D03*
Y373425D03*
X147370D03*
X165480Y39685D03*
Y49528D03*
Y59370D03*
Y66260D03*
Y73150D03*
Y82992D03*
Y92835D03*
Y102677D03*
X167016Y190748D03*
Y200591D03*
Y210433D03*
Y217323D03*
Y224213D03*
Y234055D03*
Y243898D03*
Y253740D03*
X170717Y44843D03*
Y97638D03*
X172252Y195906D03*
Y248701D03*
X175323Y39685D03*
Y49528D03*
Y92835D03*
Y102677D03*
X176858Y190748D03*
Y200591D03*
Y243898D03*
Y253740D03*
X180874Y44843D03*
Y97638D03*
X182409Y195906D03*
Y248701D03*
X185165Y39685D03*
Y49528D03*
Y92835D03*
Y102677D03*
X186701Y190748D03*
Y200591D03*
Y243898D03*
Y253740D03*
X190362Y44843D03*
Y97638D03*
X191898Y195906D03*
Y248701D03*
X195008Y39685D03*
Y49528D03*
Y92835D03*
Y102677D03*
X196543Y190748D03*
Y200591D03*
Y243898D03*
Y253740D03*
X200165Y44843D03*
Y97638D03*
X201701Y195906D03*
Y248701D03*
X204850Y39685D03*
Y49528D03*
Y59370D03*
Y82992D03*
Y92835D03*
Y102677D03*
X206386Y190748D03*
Y200591D03*
Y210433D03*
Y234055D03*
Y243898D03*
Y253740D03*
X214693Y39685D03*
Y49528D03*
Y59370D03*
Y82992D03*
Y92835D03*
Y102677D03*
X216228Y190748D03*
Y200591D03*
Y210433D03*
Y234055D03*
Y243898D03*
Y253740D03*
X224535Y39685D03*
Y49528D03*
Y59370D03*
Y82992D03*
Y92835D03*
Y102677D03*
X226071Y190748D03*
Y200591D03*
Y210433D03*
Y234055D03*
Y243898D03*
Y253740D03*
X234378Y39685D03*
Y49528D03*
Y59370D03*
Y82992D03*
Y92835D03*
Y102677D03*
X235913Y190748D03*
Y200591D03*
Y210433D03*
Y234055D03*
Y243898D03*
Y253740D03*
X244220Y39685D03*
Y49528D03*
Y59370D03*
Y82992D03*
Y92835D03*
Y102677D03*
X245756Y190748D03*
Y200591D03*
Y210433D03*
Y234055D03*
Y243898D03*
Y253740D03*
X249614Y44173D03*
Y49370D03*
X254063Y82992D03*
Y92835D03*
Y102677D03*
X254378Y200591D03*
Y210433D03*
X254614Y39685D03*
Y49528D03*
Y59370D03*
X254811Y190748D03*
X255598Y234055D03*
Y243898D03*
Y253740D03*
X259811Y186654D03*
X263236Y39685D03*
Y49528D03*
Y59370D03*
X263669Y82992D03*
Y92835D03*
Y102677D03*
X265441Y234055D03*
Y243898D03*
Y253740D03*
X265953Y186654D03*
X270323Y190748D03*
X270638Y230512D03*
X270756Y200591D03*
Y210433D03*
X271346Y234055D03*
X273079Y39685D03*
Y49528D03*
Y59370D03*
X273512Y82992D03*
Y92835D03*
Y102677D03*
X274575Y230512D03*
X275283Y234055D03*
Y243898D03*
Y253740D03*
X275520Y225984D03*
X278512Y230551D03*
X279378Y190748D03*
Y200591D03*
Y210433D03*
X279535Y224606D03*
X280559Y218701D03*
X282803Y215000D03*
X282921Y39685D03*
Y49528D03*
Y59370D03*
X283354Y82992D03*
Y92835D03*
Y102677D03*
X283787Y223228D03*
X284496Y218701D03*
X286307Y192992D03*
Y202835D03*
Y212677D03*
X286583Y216142D03*
X288433Y218740D03*
X289969Y92835D03*
X290165Y82992D03*
X292764Y39685D03*
Y49528D03*
Y59370D03*
X292843Y195709D03*
Y205551D03*
Y215394D03*
X293197Y102677D03*
X295913Y92677D03*
Y97520D03*
X302606Y39685D03*
Y49528D03*
Y59370D03*
X302685Y195709D03*
Y205551D03*
Y215394D03*
X302764Y239016D03*
Y248071D03*
X302843Y82795D03*
Y92638D03*
Y102480D03*
X312094Y214843D03*
X312213Y39685D03*
Y49528D03*
Y59370D03*
X312449Y82795D03*
Y92638D03*
Y102480D03*
X312528Y195709D03*
Y205551D03*
X312606Y239016D03*
Y248071D03*
X321189Y194134D03*
Y203976D03*
X322055Y39685D03*
Y49528D03*
Y59370D03*
X322291Y82795D03*
Y92638D03*
Y102480D03*
X324339Y234488D03*
Y243937D03*
X329339Y82795D03*
Y92638D03*
Y102480D03*
X329929Y39488D03*
Y49331D03*
Y59173D03*
X329969Y190787D03*
Y200630D03*
Y210472D03*
X332213Y234094D03*
Y243937D03*
X338236Y39488D03*
X339102Y44882D03*
Y48976D03*
X339181Y82795D03*
Y92638D03*
Y102480D03*
X339811Y190787D03*
Y200630D03*
Y210472D03*
X340756Y234291D03*
Y243937D03*
Y253780D03*
X347055Y39488D03*
Y49331D03*
X348630Y190787D03*
Y200630D03*
X349024Y82795D03*
Y92638D03*
Y102480D03*
X350598Y234094D03*
Y243937D03*
Y253780D03*
X352724Y54724D03*
X354299Y206024D03*
X356898Y39488D03*
Y49331D03*
X358472Y190787D03*
Y200630D03*
X358866Y92638D03*
Y102480D03*
X360441Y243937D03*
Y253780D03*
X361858Y44724D03*
X363433Y196024D03*
X363906Y97402D03*
X365480Y248701D03*
X366740Y39488D03*
Y49331D03*
X368315Y190787D03*
Y200630D03*
X368709Y92638D03*
Y102480D03*
X370283Y243937D03*
Y253780D03*
X372016Y44724D03*
X373591Y196024D03*
X374063Y97402D03*
X375638Y248701D03*
X376583Y39488D03*
Y49331D03*
X378157Y190787D03*
Y200630D03*
X378551Y92638D03*
Y102480D03*
X380126Y243937D03*
Y253780D03*
X381504Y44724D03*
X383079Y196024D03*
X383551Y97402D03*
X385126Y248701D03*
X386425Y39488D03*
Y49331D03*
X388000Y190787D03*
Y200630D03*
X388394Y92638D03*
Y102480D03*
X389969Y243937D03*
Y253780D03*
X391307Y44724D03*
X392882Y196024D03*
X393354Y97402D03*
X394929Y248701D03*
X396268Y39488D03*
Y49331D03*
Y59173D03*
Y66063D03*
Y72953D03*
Y82795D03*
Y92638D03*
Y102480D03*
X397843Y190787D03*
Y200630D03*
Y210472D03*
Y217362D03*
Y224252D03*
Y234094D03*
Y243937D03*
Y253780D03*
X417252Y204331D03*
X446189Y197441D02*
Y202165D01*
X438315Y210039*
X446583Y209252D03*
X447370Y213386D03*
X457213Y202559D03*
Y210433D03*
X461150Y206496D03*
X465087Y202559D03*
Y210433D03*
X473748Y221260D02*
Y245079D01*
X469024Y249803*
X479654Y226378D02*
Y249724D01*
X479575Y249803*
X493354Y216732D02*
Y250197D01*
D02*
D15*
X60283Y277323D02*
Y268386D01*
X64102Y264567*
Y245472*
X66071Y243504*
X95008*
X97476Y245972*
X101622*
X121316Y217323D02*
Y221920D01*
X118236Y225000*
Y237402*
X111543Y244094*
X107606*
X105728Y245972*
X101622*
D02*
D16*
X426504Y43031D02*
Y24409D01*
X431622Y19291*
X529654*
X538315Y27953*
X523748Y120866D02*
Y113780D01*
X528079Y109449*
X538394*
X541858Y112913*
Y134567*
X547370Y140079*
X555165*
X555638Y139606*
X523748Y130866D02*
X520047D01*
X515087Y125906*
Y104646*
X518157Y101575*
X548157*
X555638Y109055*
Y119606*
X523748Y190866D02*
Y198819D01*
X528472Y203543*
X548945*
X556425Y196063*
Y170394*
X555638Y169606*
D02*
D17*
X13906Y307480D03*
Y327165D03*
Y338976D03*
Y386220D03*
Y398031D03*
Y417717D03*
X15402Y156850D03*
Y167087D03*
Y174961D03*
Y186772D03*
Y198583D03*
Y222205D03*
Y245827D03*
Y257638D03*
Y269449D03*
Y277323D03*
Y286772D03*
X15874Y437598D03*
Y457283D03*
Y469094D03*
Y516339D03*
Y528150D03*
Y547835D03*
X16189Y210394D03*
Y234016D03*
X17173Y25787D03*
Y33661D03*
Y45472D03*
Y57283D03*
Y69094D03*
Y80906D03*
Y92717D03*
Y104528D03*
Y116339D03*
Y128150D03*
Y136024D03*
X22882Y210000D03*
X23276Y234409D03*
X24417Y70551D03*
Y94173D03*
X25244Y156850D03*
Y165118D03*
Y186772D03*
Y198583D03*
Y245827D03*
Y257638D03*
Y277323D03*
Y286772D03*
X25717Y327165D03*
Y338976D03*
Y386220D03*
Y398031D03*
X27685Y457283D03*
Y469094D03*
Y516339D03*
Y528150D03*
X30953Y45472D03*
Y57283D03*
Y104528D03*
Y116339D03*
X32724Y204488D03*
X36661Y237953D03*
X37055Y156850D03*
Y198583D03*
Y245827D03*
Y255669D03*
Y286772D03*
X37528Y307480D03*
Y327165D03*
Y338976D03*
Y386220D03*
Y398031D03*
Y417717D03*
X38630Y188740D03*
X39496Y437598D03*
Y457283D03*
Y469094D03*
Y516339D03*
Y528150D03*
Y547835D03*
X42764Y45472D03*
Y57283D03*
Y104528D03*
Y116339D03*
X46504Y234016D03*
X46898Y210394D03*
X47370Y307480D03*
Y315354D03*
Y327165D03*
Y338976D03*
Y350787D03*
Y362598D03*
Y374409D03*
Y386220D03*
Y398031D03*
Y409843D03*
Y417717D03*
X48039Y70551D03*
Y94173D03*
X48866Y156850D03*
Y167087D03*
Y186772D03*
Y198583D03*
Y245827D03*
Y257638D03*
Y277323D03*
Y286772D03*
X49339Y437598D03*
Y445472D03*
Y457283D03*
Y469094D03*
Y480906D03*
Y492717D03*
Y504528D03*
Y516339D03*
Y528150D03*
Y539961D03*
Y547835D03*
X56543Y25787D03*
Y33661D03*
Y45472D03*
Y57283D03*
Y69094D03*
Y92717D03*
Y104528D03*
Y116339D03*
Y128150D03*
Y136024D03*
X58315Y204488D03*
Y237953D03*
Y245827D03*
Y253701D03*
Y261575D03*
X62252Y196614D03*
Y212362D03*
Y232047D03*
Y287165D03*
X67055Y307480D03*
Y315354D03*
Y327165D03*
Y338976D03*
Y350787D03*
Y362598D03*
Y374409D03*
Y386220D03*
Y398031D03*
Y409843D03*
Y417717D03*
X68157Y204488D03*
X68354Y57283D03*
Y69094D03*
Y92717D03*
Y104528D03*
X69024Y437598D03*
Y445472D03*
Y457283D03*
Y469094D03*
Y480906D03*
Y492717D03*
Y504528D03*
Y516339D03*
Y528150D03*
Y539961D03*
Y547835D03*
X69732Y261575D03*
X70126Y212362D03*
Y253701D03*
X72094Y232047D03*
Y237953D03*
X72488Y247795D03*
X74063Y196614D03*
Y287165D03*
X78000Y204488D03*
Y212362D03*
X80362Y237953D03*
X80835Y327165D03*
Y338976D03*
Y386220D03*
Y398031D03*
X82134Y57283D03*
Y69094D03*
Y92717D03*
Y104528D03*
X82803Y457283D03*
Y469094D03*
Y516339D03*
Y528150D03*
X83906Y196614D03*
X85874Y287165D03*
X87843Y204488D03*
Y212362D03*
Y232047D03*
X89811Y263543D03*
X91780Y196614D03*
X92646Y327165D03*
Y338976D03*
Y386220D03*
Y398031D03*
X93945Y57283D03*
Y69094D03*
Y92717D03*
Y104528D03*
X94614Y457283D03*
Y469094D03*
Y516339D03*
Y528150D03*
X95323Y230079D03*
X97685Y204094D03*
Y287165D03*
X101622Y196614D03*
X104378Y204094D03*
X105559Y234016D03*
X105756Y25787D03*
Y33661D03*
Y45472D03*
Y57283D03*
Y69094D03*
Y92717D03*
Y104528D03*
Y116339D03*
Y128150D03*
Y136024D03*
X106425Y307480D03*
Y315354D03*
Y327165D03*
Y338976D03*
Y350787D03*
Y374409D03*
Y386220D03*
Y398031D03*
Y409843D03*
Y417717D03*
X107528Y263543D03*
X108394Y437598D03*
Y445472D03*
Y457283D03*
Y469094D03*
Y480906D03*
Y504528D03*
Y516339D03*
Y528150D03*
Y539961D03*
Y547835D03*
X109496Y157244D03*
Y167087D03*
Y178898D03*
Y188740D03*
Y230079D03*
Y237953D03*
Y249764D03*
Y287165D03*
X110087Y197244D03*
X113709Y69094D03*
X114496Y92717D03*
X117370Y259606D03*
X118236Y338976D03*
Y350787D03*
Y386220D03*
Y469094D03*
Y480906D03*
X119339Y287165D03*
X119535Y45472D03*
Y57283D03*
Y104528D03*
Y116339D03*
X120205Y504528D03*
Y516339D03*
X121307Y157244D03*
X123079Y195433D03*
X123276Y228110D03*
Y239921D03*
Y253701D03*
X127685Y359449D03*
X129181Y287165D03*
X129654Y212272D03*
X131346Y45472D03*
Y57283D03*
Y104528D03*
Y116339D03*
X132016Y338976D03*
Y350787D03*
Y386220D03*
Y469094D03*
Y480906D03*
Y504528D03*
Y516339D03*
X133118Y157244D03*
X135087Y186772D03*
Y194646D03*
Y204488D03*
Y216299D03*
Y228110D03*
Y239921D03*
Y253701D03*
X137331Y69094D03*
Y92717D03*
X139024Y287165D03*
X143827Y338976D03*
Y350787D03*
X144220Y373819D03*
X144929Y157244D03*
Y167087D03*
Y178898D03*
Y188740D03*
Y198583D03*
Y210394D03*
Y222205D03*
Y234016D03*
Y245827D03*
Y257638D03*
Y271417D03*
Y283228D03*
X145126Y25787D03*
Y33661D03*
Y45472D03*
Y57283D03*
Y69094D03*
Y80906D03*
Y92717D03*
Y104528D03*
Y116339D03*
Y128150D03*
Y136024D03*
X145795Y386220D03*
Y469094D03*
Y480906D03*
Y504528D03*
Y516339D03*
X147370Y377953D03*
X155638Y307480D03*
Y315354D03*
Y327165D03*
Y338976D03*
Y350787D03*
Y374409D03*
Y386220D03*
Y398031D03*
Y409843D03*
Y417717D03*
X157606Y437598D03*
Y445472D03*
Y457283D03*
Y469094D03*
Y480906D03*
Y504528D03*
Y516339D03*
Y528150D03*
Y539961D03*
Y547835D03*
X164929Y6614D03*
Y18425D03*
Y30236D03*
X167016Y157520D03*
Y169331D03*
Y181142D03*
Y261850D03*
Y273661D03*
Y285472D03*
X168866Y110945D03*
Y122756D03*
Y134567D03*
X169417Y327165D03*
Y338976D03*
Y386220D03*
Y398031D03*
X171386Y457283D03*
Y469094D03*
Y516339D03*
Y528150D03*
X174614Y6614D03*
X174732Y210630D03*
Y234252D03*
X174969Y58819D03*
Y82441D03*
X176701Y157520D03*
X180638Y285472D03*
X181228Y327165D03*
Y338976D03*
Y386220D03*
Y398031D03*
X183197Y457283D03*
Y469094D03*
Y516339D03*
Y528150D03*
X186425Y6614D03*
Y134567D03*
X188512Y157520D03*
X195008Y307480D03*
Y315354D03*
Y327165D03*
Y338976D03*
Y350787D03*
Y362598D03*
Y374409D03*
Y386220D03*
Y398031D03*
Y409843D03*
Y417717D03*
X196976Y437598D03*
Y445472D03*
Y457283D03*
Y469094D03*
Y480906D03*
Y492717D03*
Y504528D03*
Y516339D03*
Y528150D03*
Y539961D03*
Y547835D03*
X198354Y234252D03*
X198591Y58819D03*
Y82835D03*
X198748Y210630D03*
X200047Y6614D03*
Y18425D03*
Y30236D03*
X200323Y261850D03*
Y273661D03*
Y285472D03*
X202134Y157520D03*
Y169331D03*
Y181142D03*
X202173Y110945D03*
Y122756D03*
Y134567D03*
X214693Y307480D03*
Y315354D03*
Y327165D03*
Y338976D03*
Y350787D03*
Y362598D03*
Y374409D03*
Y386220D03*
Y398031D03*
Y409843D03*
Y417717D03*
X215953Y6614D03*
Y18425D03*
Y30236D03*
Y110945D03*
Y122756D03*
Y134567D03*
X216071Y285472D03*
X216661Y437598D03*
Y445472D03*
Y457283D03*
Y469094D03*
Y480906D03*
Y492717D03*
Y504528D03*
Y516339D03*
Y528150D03*
Y539961D03*
Y547835D03*
X218039Y157520D03*
X224535Y307480D03*
Y327165D03*
Y338976D03*
Y386220D03*
Y398031D03*
Y417717D03*
X226504Y437598D03*
Y457283D03*
Y469094D03*
Y516339D03*
Y528150D03*
Y547835D03*
X231701Y6614D03*
Y18425D03*
Y30236D03*
Y110945D03*
Y122756D03*
Y134567D03*
X231819Y285472D03*
X233787Y157520D03*
X236346Y327165D03*
Y338976D03*
Y386220D03*
Y398031D03*
X238315Y457283D03*
Y469094D03*
Y516339D03*
Y528150D03*
X247449Y6614D03*
Y18425D03*
Y30236D03*
Y110945D03*
Y122756D03*
Y134567D03*
X247567Y275630D03*
Y285472D03*
X248157Y307480D03*
Y327165D03*
Y338976D03*
Y386220D03*
Y398031D03*
Y417717D03*
X249535Y157520D03*
X250126Y437598D03*
Y457283D03*
Y469094D03*
Y516339D03*
Y528150D03*
Y547835D03*
X262921Y194882D03*
X263197Y6614D03*
Y18425D03*
Y30236D03*
Y110945D03*
Y122756D03*
Y134567D03*
X263315Y285472D03*
X265283Y157520D03*
X271976Y307480D03*
Y327165D03*
Y338976D03*
Y386220D03*
Y398031D03*
Y417717D03*
Y437598D03*
Y457283D03*
Y469094D03*
Y516339D03*
Y528150D03*
Y547835D03*
X275126Y263819D03*
X278945Y6614D03*
Y18425D03*
Y30236D03*
Y110945D03*
Y122756D03*
Y134567D03*
X279063Y285472D03*
X281031Y157520D03*
X283787Y327165D03*
Y338976D03*
Y386220D03*
Y398031D03*
Y457283D03*
Y469094D03*
Y516339D03*
Y528150D03*
X284575Y244488D03*
Y255118D03*
X293630Y275984D03*
X294693Y6614D03*
Y18425D03*
Y30236D03*
Y110945D03*
Y122756D03*
Y134567D03*
X294811Y285472D03*
X295598Y307480D03*
Y327165D03*
Y338976D03*
Y386220D03*
Y398031D03*
Y417717D03*
Y437598D03*
Y457283D03*
Y469094D03*
Y516339D03*
Y528150D03*
Y547835D03*
X296780Y157520D03*
X300717Y275630D03*
X305441Y307480D03*
Y315354D03*
Y327165D03*
Y338976D03*
Y350787D03*
Y362598D03*
Y374409D03*
Y386220D03*
Y398031D03*
Y409843D03*
Y417717D03*
Y437598D03*
Y445472D03*
Y457283D03*
Y469094D03*
Y480906D03*
Y492717D03*
Y504528D03*
Y516339D03*
Y528150D03*
Y539961D03*
Y547835D03*
X310441Y6614D03*
Y18425D03*
Y30236D03*
Y110945D03*
Y122756D03*
Y134567D03*
X310559Y261850D03*
Y273661D03*
Y285472D03*
X312528Y157520D03*
X320008Y213386D03*
X325126Y307480D03*
Y315354D03*
Y327165D03*
Y338976D03*
Y350787D03*
Y362598D03*
Y374409D03*
Y386220D03*
Y398031D03*
Y409843D03*
Y417717D03*
Y437598D03*
Y445472D03*
Y457283D03*
Y469094D03*
Y480906D03*
Y492717D03*
Y504528D03*
Y516339D03*
Y528150D03*
Y539961D03*
Y547835D03*
X326189Y6614D03*
Y18425D03*
Y30236D03*
Y110945D03*
Y122756D03*
Y134567D03*
X326307Y261850D03*
Y273661D03*
Y285472D03*
X328276Y157520D03*
X338906Y327165D03*
Y338976D03*
Y386220D03*
Y398031D03*
Y457283D03*
Y469094D03*
Y516339D03*
Y528150D03*
X341937Y6614D03*
Y18425D03*
Y30236D03*
Y110945D03*
Y122756D03*
Y134567D03*
X342055Y261850D03*
Y273661D03*
Y285472D03*
X344024Y157520D03*
X347961Y212992D03*
X350717Y327165D03*
Y338976D03*
Y386220D03*
Y398031D03*
Y457283D03*
Y469094D03*
Y516339D03*
Y528150D03*
X357685Y110945D03*
Y122756D03*
Y134567D03*
X357803Y261850D03*
Y273661D03*
Y285472D03*
X359654Y6614D03*
X359811Y18425D03*
Y30236D03*
X361740Y157520D03*
X361898Y169331D03*
Y181142D03*
X363709Y234252D03*
X363945Y58425D03*
Y82835D03*
X364102Y210630D03*
X364496Y307480D03*
Y315354D03*
Y327165D03*
Y338976D03*
Y350787D03*
Y374409D03*
Y386220D03*
Y398031D03*
Y409843D03*
Y417717D03*
Y437598D03*
Y445472D03*
Y457283D03*
Y469094D03*
Y480906D03*
Y504528D03*
Y516339D03*
Y528150D03*
Y539961D03*
Y547835D03*
X369496Y6614D03*
X371583Y157520D03*
X372370Y338976D03*
Y384252D03*
X373433Y134567D03*
X373551Y285472D03*
X374339Y469094D03*
Y480906D03*
X376307Y504528D03*
Y516339D03*
X378276Y350787D03*
Y374409D03*
X381307Y6614D03*
X383394Y157520D03*
X384181Y338976D03*
Y384252D03*
X387173Y58819D03*
Y82835D03*
X387331Y210630D03*
X387724Y234646D03*
X388118Y469094D03*
Y480906D03*
Y504528D03*
Y516339D03*
X389181Y134567D03*
X389299Y285472D03*
X390087Y350787D03*
Y374409D03*
X394929Y6614D03*
Y18425D03*
Y30236D03*
X395992Y338976D03*
Y384252D03*
X397016Y157520D03*
Y169331D03*
Y181142D03*
X397055Y110945D03*
Y122756D03*
X397173Y261850D03*
Y273661D03*
X401898Y350787D03*
Y374409D03*
Y469094D03*
Y480906D03*
Y504528D03*
Y516339D03*
X407803Y338976D03*
Y384252D03*
X413709Y350787D03*
Y374409D03*
Y437598D03*
Y445472D03*
Y457283D03*
Y469094D03*
Y480906D03*
Y504528D03*
Y516339D03*
Y528150D03*
Y539961D03*
Y547835D03*
X417843Y159252D03*
Y176969D03*
Y190748D03*
Y212402D03*
Y222244D03*
Y237992D03*
Y253740D03*
Y267520D03*
X419614Y338976D03*
Y384252D03*
X419811Y104134D03*
Y112008D03*
Y277362D03*
Y285236D03*
X425520Y350787D03*
Y374409D03*
X427488Y457283D03*
Y469094D03*
Y516339D03*
Y528150D03*
X427685Y119882D03*
Y135630D03*
Y151378D03*
X431425Y338976D03*
Y384252D03*
X437331Y350787D03*
Y374409D03*
X438315Y210039D03*
X439299Y457283D03*
Y469094D03*
Y516339D03*
Y528150D03*
X439496Y188386D03*
X443236Y338976D03*
Y384252D03*
X446189Y197441D03*
X447370Y222244D03*
Y230118D03*
X449142Y350787D03*
Y374409D03*
X450126Y189961D03*
X451307Y257677D03*
X452094Y249803D03*
X453079Y437598D03*
Y445472D03*
Y457283D03*
Y469094D03*
Y480906D03*
Y492717D03*
Y504528D03*
Y516339D03*
Y528150D03*
Y539961D03*
Y547835D03*
X455047Y338976D03*
Y384252D03*
X456425Y120276D03*
Y135630D03*
Y151378D03*
Y167126D03*
Y182874D03*
X457213Y265551D03*
X459181Y230118D03*
X461150Y223425D03*
Y257677D03*
X462921Y307480D03*
Y315354D03*
Y327165D03*
Y338976D03*
Y350787D03*
Y374409D03*
Y386220D03*
Y398031D03*
Y409843D03*
Y417717D03*
X463118Y189961D03*
X469024Y249803D03*
X470598Y350787D03*
Y374409D03*
X472764Y437598D03*
Y445472D03*
Y457283D03*
Y469094D03*
Y480906D03*
Y492717D03*
Y504528D03*
Y516339D03*
Y528150D03*
Y539961D03*
Y547835D03*
X472961Y191929D03*
X473748Y221260D03*
X476701Y327165D03*
Y338976D03*
Y386220D03*
Y398031D03*
X477291Y135630D03*
Y151378D03*
Y167126D03*
Y182874D03*
X478866Y123819D03*
X479575Y249803D03*
X479654Y226378D03*
X482606Y437598D03*
Y457283D03*
Y469094D03*
Y516339D03*
Y528150D03*
Y547835D03*
X488512Y327165D03*
Y338976D03*
Y386220D03*
Y398031D03*
X488709Y257677D03*
X492646Y112008D03*
Y127756D03*
Y143504D03*
Y159252D03*
Y175000D03*
Y190748D03*
Y265551D03*
X493354Y216732D03*
Y250197D03*
X494220Y374409D03*
X494417Y350984D03*
Y457283D03*
Y469094D03*
Y516339D03*
Y528150D03*
X494614Y104134D03*
Y277362D03*
Y285236D03*
X502291Y307480D03*
Y315354D03*
Y327165D03*
Y338976D03*
Y350787D03*
Y362598D03*
Y374409D03*
Y386220D03*
Y398031D03*
Y409843D03*
Y417717D03*
X506228Y437598D03*
Y457283D03*
Y469094D03*
Y516339D03*
Y528150D03*
Y547835D03*
D02*
D18*
X101622Y245972D03*
D03*
X121316Y217323D03*
X426504Y43031D03*
X432311Y33031D03*
Y43031D03*
Y53031D03*
Y63031D03*
X493433Y201772D03*
X529260Y33071D03*
X529555Y43031D03*
Y53031D03*
Y63031D03*
X538315Y27953D03*
D02*
D25*
X27606Y409921D03*
X27685Y315433D03*
X29575Y540039D03*
X29654Y445551D03*
X34693Y269449D03*
X34772Y174961D03*
X36780Y128228D03*
X36858Y33740D03*
X86661Y409921D03*
X86740Y315433D03*
X88630Y540039D03*
X88709Y445551D03*
X125362Y128228D03*
X125441Y33740D03*
X129181Y269291D03*
X129260Y174803D03*
X175323Y409764D03*
X175402Y315276D03*
X177213Y539961D03*
X177291Y445472D03*
X186465Y118110D03*
X186543Y23622D03*
X186622Y269567D03*
X186701Y175079D03*
X234378Y409764D03*
X234457Y315276D03*
X236268Y539961D03*
X236346Y445472D03*
X285677Y409921D03*
X285756Y315433D03*
X285874Y540039D03*
X285953Y445551D03*
X344732Y409921D03*
X344811Y315433D03*
X344929Y540039D03*
X345008Y445551D03*
X375520Y117953D03*
X375598Y23465D03*
Y269488D03*
X375677Y175000D03*
X433512Y540039D03*
X433591Y445551D03*
X482449Y409921D03*
X482528Y315433D03*
X492567Y540039D03*
X492646Y445551D03*
D02*
D26*
X15874Y350787D03*
Y374409D03*
X17843Y480906D03*
Y504528D03*
X27685Y362598D03*
X29654Y492717D03*
X39496Y350787D03*
Y374409D03*
X41465Y480906D03*
Y504528D03*
X74929Y350787D03*
Y374409D03*
X76898Y480906D03*
Y504528D03*
X86740Y362598D03*
X88709Y492717D03*
X98551Y350787D03*
Y374409D03*
X100520Y480906D03*
Y504528D03*
X163512Y350787D03*
Y374409D03*
X165402Y480984D03*
Y504606D03*
X175323Y362598D03*
X177213Y492795D03*
X187134Y350787D03*
Y374409D03*
X189024Y480984D03*
Y504606D03*
X222567Y350787D03*
Y374409D03*
X224457Y480984D03*
Y504606D03*
X234378Y362598D03*
X236268Y492795D03*
X246189Y350787D03*
Y374409D03*
X248079Y480984D03*
Y504606D03*
X273945Y350787D03*
Y374409D03*
X274142Y480906D03*
Y504528D03*
X285756Y362598D03*
X285953Y492717D03*
X297567Y350787D03*
Y374409D03*
X297764Y480906D03*
Y504528D03*
X333000Y350787D03*
Y374409D03*
X333197Y480906D03*
Y504528D03*
X344811Y362598D03*
X345008Y492717D03*
X356622Y350787D03*
Y374409D03*
X356819Y480906D03*
Y504528D03*
X421780Y480906D03*
Y504528D03*
X433591Y492717D03*
X445402Y480906D03*
Y504528D03*
X480835Y480906D03*
Y504528D03*
X492646Y492717D03*
X504457Y480906D03*
Y504528D03*
D02*
D73*
X60283Y277323D03*
X70283D03*
X80283D03*
X90283D03*
X100283D03*
X110283D03*
X432213Y108071D03*
Y281299D03*
X442213Y108071D03*
Y281299D03*
X452213Y108071D03*
Y281299D03*
X462213Y108071D03*
Y281299D03*
X472213Y108071D03*
Y281299D03*
X482213Y108071D03*
Y281299D03*
D02*
D80*
X212213Y277441D03*
X222213D03*
X232213D03*
X523748Y120866D03*
Y130866D03*
Y140866D03*
Y150866D03*
Y160866D03*
Y170866D03*
Y180866D03*
Y190866D03*
X533748Y120866D03*
Y130866D03*
Y140866D03*
Y150866D03*
Y160866D03*
Y170866D03*
Y180866D03*
Y190866D03*
D02*
D82*
X551307Y23622D03*
Y33622D03*
Y43622D03*
Y53622D03*
Y63622D03*
Y73622D03*
X555638Y119606D03*
Y129606D03*
Y139606D03*
Y149606D03*
Y159606D03*
Y169606D03*
X0Y0D02*
M02*
