G04 DesignSpark PCB Gerber Version 9.0 Build 5115 *
G04 #@! TF.Part,Single*
G04 #@! TF.FileFunction,Drillmap *
G04 #@! TF.FilePolarity,Positive *
%FSLAX35Y35*%
%MOIN*%
%ADD22C,0.00500*%
G04 #@! TA.AperFunction,ViaPad*
%ADD108C,0.10000*%
X0Y0D02*
D02*
D22*
X23906Y313418D02*
X25468Y317168D01*
X27031Y313418*
X24531Y314980D02*
X26406D01*
X23906Y333103D02*
X25468Y336853D01*
X27031Y333103*
X24531Y334665D02*
X26406D01*
X23906Y344914D02*
X25468Y348664D01*
X27031Y344914*
X24531Y346476D02*
X26406D01*
X23906Y392158D02*
X25468Y395908D01*
X27031Y392158*
X24531Y393720D02*
X26406D01*
X23906Y403969D02*
X25468Y407719D01*
X27031Y403969*
X24531Y405531D02*
X26406D01*
X23906Y423654D02*
X25468Y427404D01*
X27031Y423654*
X24531Y425217D02*
X26406D01*
X25402Y162788D02*
X26964Y166538D01*
X28527Y162788*
X26027Y164350D02*
X27902D01*
X25402Y173024D02*
X26964Y176774D01*
X28527Y173024*
X26027Y174587D02*
X27902D01*
X25402Y180898D02*
X26964Y184648D01*
X28527Y180898*
X26027Y182461D02*
X27902D01*
X25402Y192709D02*
X26964Y196459D01*
X28527Y192709*
X26027Y194272D02*
X27902D01*
X25402Y204520D02*
X26964Y208270D01*
X28527Y204520*
X26027Y206083D02*
X27902D01*
X25402Y228142D02*
X26964Y231892D01*
X28527Y228142*
X26027Y229705D02*
X27902D01*
X25402Y251764D02*
X26964Y255514D01*
X28527Y251764*
X26027Y253327D02*
X27902D01*
X25402Y263575D02*
X26964Y267325D01*
X28527Y263575*
X26027Y265138D02*
X27902D01*
X25402Y275386D02*
X26964Y279136D01*
X28527Y275386*
X26027Y276949D02*
X27902D01*
X25402Y283260D02*
X26964Y287010D01*
X28527Y283260*
X26027Y284823D02*
X27902D01*
X25402Y292709D02*
X26964Y296459D01*
X28527Y292709*
X26027Y294272D02*
X27902D01*
X25874Y356725D02*
Y360475D01*
X28999*
X28374Y358600D02*
X25874D01*
Y356725D02*
X28999D01*
X25874Y380347D02*
Y384097D01*
X28999*
X28374Y382222D02*
X25874D01*
Y380347D02*
X28999D01*
X25874Y443536D02*
X27437Y447286D01*
X28999Y443536*
X26499Y445098D02*
X28374D01*
X25874Y463221D02*
X27437Y466971D01*
X28999Y463221*
X26499Y464783D02*
X28374D01*
X25874Y475032D02*
X27437Y478782D01*
X28999Y475032*
X26499Y476594D02*
X28374D01*
X25874Y522276D02*
X27437Y526026D01*
X28999Y522276*
X26499Y523839D02*
X28374D01*
X25874Y534087D02*
X27437Y537837D01*
X28999Y534087*
X26499Y535650D02*
X28374D01*
X25874Y553772D02*
X27437Y557522D01*
X28999Y553772*
X26499Y555335D02*
X28374D01*
X26189Y216331D02*
X27752Y220081D01*
X29314Y216331*
X26814Y217894D02*
X28689D01*
X26189Y239953D02*
X27752Y243703D01*
X29314Y239953*
X26814Y241516D02*
X28689D01*
X27173Y31725D02*
X28736Y35475D01*
X30298Y31725*
X27798Y33287D02*
X29673D01*
X27173Y39599D02*
X28736Y43349D01*
X30298Y39599*
X27798Y41161D02*
X29673D01*
X27173Y51410D02*
X28736Y55160D01*
X30298Y51410*
X27798Y52972D02*
X29673D01*
X27173Y63221D02*
X28736Y66971D01*
X30298Y63221*
X27798Y64783D02*
X29673D01*
X27173Y75032D02*
X28736Y78782D01*
X30298Y75032*
X27798Y76594D02*
X29673D01*
X27173Y86843D02*
X28736Y90593D01*
X30298Y86843*
X27798Y88406D02*
X29673D01*
X27173Y98654D02*
X28736Y102404D01*
X30298Y98654*
X27798Y100217D02*
X29673D01*
X27173Y110465D02*
X28736Y114215D01*
X30298Y110465*
X27798Y112028D02*
X29673D01*
X27173Y122276D02*
X28736Y126026D01*
X30298Y122276*
X27798Y123839D02*
X29673D01*
X27173Y134087D02*
X28736Y137837D01*
X30298Y134087*
X27798Y135650D02*
X29673D01*
X27173Y141961D02*
X28736Y145711D01*
X30298Y141961*
X27798Y143524D02*
X29673D01*
X27843Y486843D02*
Y490593D01*
X30968*
X30343Y488718D02*
X27843D01*
Y486843D02*
X30968D01*
X27843Y510465D02*
Y514215D01*
X30968*
X30343Y512340D02*
X27843D01*
Y510465D02*
X30968D01*
X32882Y215937D02*
X34444Y219687D01*
X36007Y215937*
X33507Y217500D02*
X35382D01*
X33276Y240347D02*
X34838Y244097D01*
X36401Y240347*
X33901Y241909D02*
X35776D01*
X34417Y76489D02*
X35980Y80239D01*
X37543Y76489*
X35043Y78051D02*
X36917D01*
X34417Y100111D02*
X35980Y103861D01*
X37543Y100111*
X35043Y101673D02*
X36917D01*
X35244Y162788D02*
X36807Y166538D01*
X38369Y162788*
X35869Y164350D02*
X37744D01*
X35244Y171056D02*
X36807Y174806D01*
X38369Y171056*
X35869Y172618D02*
X37744D01*
X35244Y192709D02*
X36807Y196459D01*
X38369Y192709*
X35869Y194272D02*
X37744D01*
X35244Y204520D02*
X36807Y208270D01*
X38369Y204520*
X35869Y206083D02*
X37744D01*
X35244Y251764D02*
X36807Y255514D01*
X38369Y251764*
X35869Y253327D02*
X37744D01*
X35244Y263575D02*
X36807Y267325D01*
X38369Y263575*
X35869Y265138D02*
X37744D01*
X35244Y283260D02*
X36807Y287010D01*
X38369Y283260*
X35869Y284823D02*
X37744D01*
X35244Y292709D02*
X36807Y296459D01*
X38369Y292709*
X35869Y294272D02*
X37744D01*
X35717Y333103D02*
X37279Y336853D01*
X38842Y333103*
X36342Y334665D02*
X38217D01*
X35717Y344914D02*
X37279Y348664D01*
X38842Y344914*
X36342Y346476D02*
X38217D01*
X35717Y392158D02*
X37279Y395908D01*
X38842Y392158*
X36342Y393720D02*
X38217D01*
X35717Y403969D02*
X37279Y407719D01*
X38842Y403969*
X36342Y405531D02*
X38217D01*
X37606Y415859D02*
Y419609D01*
X39481*
X40106Y419296*
X40419Y418984*
X40731Y418359*
Y417109*
X40419Y416484*
X40106Y416171*
X39481Y415859*
X37606*
X37685Y321370D02*
Y325120D01*
X39560*
X40185Y324808*
X40498Y324496*
X40810Y323870*
Y322620*
X40498Y321996*
X40185Y321683*
X39560Y321370*
X37685*
Y368536D02*
Y372286D01*
X40810*
X40185Y370411D02*
X37685D01*
Y368536D02*
X40810D01*
X37685Y463221D02*
X39248Y466971D01*
X40810Y463221*
X38310Y464783D02*
X40185D01*
X37685Y475032D02*
X39248Y478782D01*
X40810Y475032*
X38310Y476594D02*
X40185D01*
X37685Y522276D02*
X39248Y526026D01*
X40810Y522276*
X38310Y523839D02*
X40185D01*
X37685Y534087D02*
X39248Y537837D01*
X40810Y534087*
X38310Y535650D02*
X40185D01*
X39575Y545977D02*
Y549727D01*
X41450*
X42075Y549415*
X42387Y549102*
X42700Y548477*
Y547227*
X42387Y546602*
X42075Y546289*
X41450Y545977*
X39575*
X39654Y451489D02*
Y455239D01*
X41529*
X42154Y454926*
X42466Y454614*
X42779Y453989*
Y452739*
X42466Y452114*
X42154Y451801*
X41529Y451489*
X39654*
Y498654D02*
Y502404D01*
X42779*
X42154Y500529D02*
X39654D01*
Y498654D02*
X42779D01*
X40953Y51410D02*
X42515Y55160D01*
X44078Y51410*
X41578Y52972D02*
X43453D01*
X40953Y63221D02*
X42515Y66971D01*
X44078Y63221*
X41578Y64783D02*
X43453D01*
X40953Y110465D02*
X42515Y114215D01*
X44078Y110465*
X41578Y112028D02*
X43453D01*
X40953Y122276D02*
X42515Y126026D01*
X44078Y122276*
X41578Y123839D02*
X43453D01*
X42724Y210426D02*
X44287Y214176D01*
X45850Y210426*
X43350Y211988D02*
X45224D01*
X44693Y275386D02*
Y279136D01*
X46568*
X47193Y278824*
X47506Y278511*
X47818Y277886*
Y276636*
X47506Y276011*
X47193Y275699*
X46568Y275386*
X44693*
X44772Y180898D02*
Y184648D01*
X46647*
X47272Y184336*
X47584Y184023*
X47897Y183398*
Y182148*
X47584Y181523*
X47272Y181211*
X46647Y180898*
X44772*
X46661Y243890D02*
X48224Y247640D01*
X49787Y243890*
X47287Y245453D02*
X49161D01*
X46780Y134166D02*
Y137916D01*
X48655*
X49280Y137604*
X49592Y137291*
X49905Y136666*
Y135416*
X49592Y134791*
X49280Y134478*
X48655Y134166*
X46780*
X46858Y39678D02*
Y43428D01*
X48733*
X49358Y43115*
X49671Y42803*
X49983Y42178*
Y40928*
X49671Y40303*
X49358Y39990*
X48733Y39678*
X46858*
X47055Y162788D02*
X48618Y166538D01*
X50180Y162788*
X47680Y164350D02*
X49555D01*
X47055Y204520D02*
X48618Y208270D01*
X50180Y204520*
X47680Y206083D02*
X49555D01*
X47055Y251764D02*
X48618Y255514D01*
X50180Y251764*
X47680Y253327D02*
X49555D01*
X47055Y261607D02*
X48618Y265357D01*
X50180Y261607*
X47680Y263169D02*
X49555D01*
X47055Y292709D02*
X48618Y296459D01*
X50180Y292709*
X47680Y294272D02*
X49555D01*
X47528Y313418D02*
X49090Y317168D01*
X50653Y313418*
X48153Y314980D02*
X50028D01*
X47528Y333103D02*
X49090Y336853D01*
X50653Y333103*
X48153Y334665D02*
X50028D01*
X47528Y344914D02*
X49090Y348664D01*
X50653Y344914*
X48153Y346476D02*
X50028D01*
X47528Y392158D02*
X49090Y395908D01*
X50653Y392158*
X48153Y393720D02*
X50028D01*
X47528Y403969D02*
X49090Y407719D01*
X50653Y403969*
X48153Y405531D02*
X50028D01*
X47528Y423654D02*
X49090Y427404D01*
X50653Y423654*
X48153Y425217D02*
X50028D01*
X48630Y194678D02*
X50193Y198428D01*
X51755Y194678*
X49255Y196240D02*
X51130D01*
X49496Y356725D02*
Y360475D01*
X52621*
X51996Y358600D02*
X49496D01*
Y356725D02*
X52621D01*
X49496Y380347D02*
Y384097D01*
X52621*
X51996Y382222D02*
X49496D01*
Y380347D02*
X52621D01*
X49496Y443536D02*
X51059Y447286D01*
X52621Y443536*
X50121Y445098D02*
X51996D01*
X49496Y463221D02*
X51059Y466971D01*
X52621Y463221*
X50121Y464783D02*
X51996D01*
X49496Y475032D02*
X51059Y478782D01*
X52621Y475032*
X50121Y476594D02*
X51996D01*
X49496Y522276D02*
X51059Y526026D01*
X52621Y522276*
X50121Y523839D02*
X51996D01*
X49496Y534087D02*
X51059Y537837D01*
X52621Y534087*
X50121Y535650D02*
X51996D01*
X49496Y553772D02*
X51059Y557522D01*
X52621Y553772*
X50121Y555335D02*
X51996D01*
X51465Y486843D02*
Y490593D01*
X54590*
X53965Y488718D02*
X51465D01*
Y486843D02*
X54590D01*
X51465Y510465D02*
Y514215D01*
X54590*
X53965Y512340D02*
X51465D01*
Y510465D02*
X54590D01*
X52764Y51410D02*
X54326Y55160D01*
X55889Y51410*
X53389Y52972D02*
X55264D01*
X52764Y63221D02*
X54326Y66971D01*
X55889Y63221*
X53389Y64783D02*
X55264D01*
X52764Y110465D02*
X54326Y114215D01*
X55889Y110465*
X53389Y112028D02*
X55264D01*
X52764Y122276D02*
X54326Y126026D01*
X55889Y122276*
X53389Y123839D02*
X55264D01*
X56504Y239953D02*
X58067Y243703D01*
X59629Y239953*
X57129Y241516D02*
X59004D01*
X56898Y216331D02*
X58460Y220081D01*
X60023Y216331*
X57523Y217894D02*
X59398D01*
X57370Y313418D02*
X58933Y317168D01*
X60495Y313418*
X57995Y314980D02*
X59870D01*
X57370Y321292D02*
X58933Y325042D01*
X60495Y321292*
X57995Y322854D02*
X59870D01*
X57370Y333103D02*
X58933Y336853D01*
X60495Y333103*
X57995Y334665D02*
X59870D01*
X57370Y344914D02*
X58933Y348664D01*
X60495Y344914*
X57995Y346476D02*
X59870D01*
X57370Y356725D02*
X58933Y360475D01*
X60495Y356725*
X57995Y358287D02*
X59870D01*
X57370Y368536D02*
X58933Y372286D01*
X60495Y368536*
X57995Y370098D02*
X59870D01*
X57370Y380347D02*
X58933Y384097D01*
X60495Y380347*
X57995Y381909D02*
X59870D01*
X57370Y392158D02*
X58933Y395908D01*
X60495Y392158*
X57995Y393720D02*
X59870D01*
X57370Y403969D02*
X58933Y407719D01*
X60495Y403969*
X57995Y405531D02*
X59870D01*
X57370Y415780D02*
X58933Y419530D01*
X60495Y415780*
X57995Y417343D02*
X59870D01*
X57370Y423654D02*
X58933Y427404D01*
X60495Y423654*
X57995Y425217D02*
X59870D01*
X58039Y76489D02*
X59602Y80239D01*
X61165Y76489*
X58665Y78051D02*
X60539D01*
X58039Y100111D02*
X59602Y103861D01*
X61165Y100111*
X58665Y101673D02*
X60539D01*
X58866Y162788D02*
X60429Y166538D01*
X61991Y162788*
X59491Y164350D02*
X61366D01*
X58866Y173024D02*
X60429Y176774D01*
X61991Y173024*
X59491Y174587D02*
X61366D01*
X58866Y192709D02*
X60429Y196459D01*
X61991Y192709*
X59491Y194272D02*
X61366D01*
X58866Y204520D02*
X60429Y208270D01*
X61991Y204520*
X59491Y206083D02*
X61366D01*
X58866Y251764D02*
X60429Y255514D01*
X61991Y251764*
X59491Y253327D02*
X61366D01*
X58866Y263575D02*
X60429Y267325D01*
X61991Y263575*
X59491Y265138D02*
X61366D01*
X58866Y283260D02*
X60429Y287010D01*
X61991Y283260*
X59491Y284823D02*
X61366D01*
X58866Y292709D02*
X60429Y296459D01*
X61991Y292709*
X59491Y294272D02*
X61366D01*
X59339Y443536D02*
X60901Y447286D01*
X62464Y443536*
X59964Y445098D02*
X61839D01*
X59339Y451410D02*
X60901Y455160D01*
X62464Y451410*
X59964Y452972D02*
X61839D01*
X59339Y463221D02*
X60901Y466971D01*
X62464Y463221*
X59964Y464783D02*
X61839D01*
X59339Y475032D02*
X60901Y478782D01*
X62464Y475032*
X59964Y476594D02*
X61839D01*
X59339Y486843D02*
X60901Y490593D01*
X62464Y486843*
X59964Y488406D02*
X61839D01*
X59339Y498654D02*
X60901Y502404D01*
X62464Y498654*
X59964Y500217D02*
X61839D01*
X59339Y510465D02*
X60901Y514215D01*
X62464Y510465*
X59964Y512028D02*
X61839D01*
X59339Y522276D02*
X60901Y526026D01*
X62464Y522276*
X59964Y523839D02*
X61839D01*
X59339Y534087D02*
X60901Y537837D01*
X62464Y534087*
X59964Y535650D02*
X61839D01*
X59339Y545898D02*
X60901Y549648D01*
X62464Y545898*
X59964Y547461D02*
X61839D01*
X59339Y553772D02*
X60901Y557522D01*
X62464Y553772*
X59964Y555335D02*
X61839D01*
X66543Y31725D02*
X68106Y35475D01*
X69669Y31725*
X67169Y33287D02*
X69043D01*
X66543Y39599D02*
X68106Y43349D01*
X69669Y39599*
X67169Y41161D02*
X69043D01*
X66543Y51410D02*
X68106Y55160D01*
X69669Y51410*
X67169Y52972D02*
X69043D01*
X66543Y63221D02*
X68106Y66971D01*
X69669Y63221*
X67169Y64783D02*
X69043D01*
X66543Y75032D02*
X68106Y78782D01*
X69669Y75032*
X67169Y76594D02*
X69043D01*
X66543Y98654D02*
X68106Y102404D01*
X69669Y98654*
X67169Y100217D02*
X69043D01*
X66543Y110465D02*
X68106Y114215D01*
X69669Y110465*
X67169Y112028D02*
X69043D01*
X66543Y122276D02*
X68106Y126026D01*
X69669Y122276*
X67169Y123839D02*
X69043D01*
X66543Y134087D02*
X68106Y137837D01*
X69669Y134087*
X67169Y135650D02*
X69043D01*
X66543Y141961D02*
X68106Y145711D01*
X69669Y141961*
X67169Y143524D02*
X69043D01*
X68315Y210426D02*
X69878Y214176D01*
X71440Y210426*
X68940Y211988D02*
X70815D01*
X68315Y243890D02*
X69878Y247640D01*
X71440Y243890*
X68940Y245453D02*
X70815D01*
X68315Y251764D02*
X69878Y255514D01*
X71440Y251764*
X68940Y253327D02*
X70815D01*
X68315Y259638D02*
X69878Y263388D01*
X71440Y259638*
X68940Y261201D02*
X70815D01*
X68315Y267512D02*
X69878Y271262D01*
X71440Y267512*
X68940Y269075D02*
X70815D01*
X70283Y283260D02*
Y287010D01*
X73409*
X72783Y285135D02*
X70283D01*
X72252Y202552D02*
X73815Y206302D01*
X75377Y202552*
X72877Y204114D02*
X74752D01*
X72252Y218300D02*
X73815Y222050D01*
X75377Y218300*
X72877Y219862D02*
X74752D01*
X72252Y237985D02*
X73815Y241735D01*
X75377Y237985*
X72877Y239547D02*
X74752D01*
X72252Y293103D02*
X73815Y296853D01*
X75377Y293103*
X72877Y294665D02*
X74752D01*
X77055Y313418D02*
X78618Y317168D01*
X80180Y313418*
X77680Y314980D02*
X79555D01*
X77055Y321292D02*
X78618Y325042D01*
X80180Y321292*
X77680Y322854D02*
X79555D01*
X77055Y333103D02*
X78618Y336853D01*
X80180Y333103*
X77680Y334665D02*
X79555D01*
X77055Y344914D02*
X78618Y348664D01*
X80180Y344914*
X77680Y346476D02*
X79555D01*
X77055Y356725D02*
X78618Y360475D01*
X80180Y356725*
X77680Y358287D02*
X79555D01*
X77055Y368536D02*
X78618Y372286D01*
X80180Y368536*
X77680Y370098D02*
X79555D01*
X77055Y380347D02*
X78618Y384097D01*
X80180Y380347*
X77680Y381909D02*
X79555D01*
X77055Y392158D02*
X78618Y395908D01*
X80180Y392158*
X77680Y393720D02*
X79555D01*
X77055Y403969D02*
X78618Y407719D01*
X80180Y403969*
X77680Y405531D02*
X79555D01*
X77055Y415780D02*
X78618Y419530D01*
X80180Y415780*
X77680Y417343D02*
X79555D01*
X77055Y423654D02*
X78618Y427404D01*
X80180Y423654*
X77680Y425217D02*
X79555D01*
X78157Y210426D02*
X79720Y214176D01*
X81283Y210426*
X78783Y211988D02*
X80657D01*
X78354Y63221D02*
X79917Y66971D01*
X81480Y63221*
X78980Y64783D02*
X80854D01*
X78354Y75032D02*
X79917Y78782D01*
X81480Y75032*
X78980Y76594D02*
X80854D01*
X78354Y98654D02*
X79917Y102404D01*
X81480Y98654*
X78980Y100217D02*
X80854D01*
X78354Y110465D02*
X79917Y114215D01*
X81480Y110465*
X78980Y112028D02*
X80854D01*
X79024Y443536D02*
X80586Y447286D01*
X82149Y443536*
X79649Y445098D02*
X81524D01*
X79024Y451410D02*
X80586Y455160D01*
X82149Y451410*
X79649Y452972D02*
X81524D01*
X79024Y463221D02*
X80586Y466971D01*
X82149Y463221*
X79649Y464783D02*
X81524D01*
X79024Y475032D02*
X80586Y478782D01*
X82149Y475032*
X79649Y476594D02*
X81524D01*
X79024Y486843D02*
X80586Y490593D01*
X82149Y486843*
X79649Y488406D02*
X81524D01*
X79024Y498654D02*
X80586Y502404D01*
X82149Y498654*
X79649Y500217D02*
X81524D01*
X79024Y510465D02*
X80586Y514215D01*
X82149Y510465*
X79649Y512028D02*
X81524D01*
X79024Y522276D02*
X80586Y526026D01*
X82149Y522276*
X79649Y523839D02*
X81524D01*
X79024Y534087D02*
X80586Y537837D01*
X82149Y534087*
X79649Y535650D02*
X81524D01*
X79024Y545898D02*
X80586Y549648D01*
X82149Y545898*
X79649Y547461D02*
X81524D01*
X79024Y553772D02*
X80586Y557522D01*
X82149Y553772*
X79649Y555335D02*
X81524D01*
X79732Y267512D02*
X81295Y271262D01*
X82857Y267512*
X80357Y269075D02*
X82232D01*
X80126Y218300D02*
X81689Y222050D01*
X83251Y218300*
X80751Y219862D02*
X82626D01*
X80126Y259638D02*
X81689Y263388D01*
X83251Y259638*
X80751Y261201D02*
X82626D01*
X80283Y283260D02*
Y287010D01*
X83409*
X82783Y285135D02*
X80283D01*
X82094Y237985D02*
X83657Y241735D01*
X85220Y237985*
X82720Y239547D02*
X84594D01*
X82094Y243890D02*
X83657Y247640D01*
X85220Y243890*
X82720Y245453D02*
X84594D01*
X82488Y253733D02*
X84051Y257483D01*
X85613Y253733*
X83113Y255295D02*
X84988D01*
X84063Y202552D02*
X85626Y206302D01*
X87188Y202552*
X84688Y204114D02*
X86563D01*
X84063Y293103D02*
X85626Y296853D01*
X87188Y293103*
X84688Y294665D02*
X86563D01*
X84929Y356725D02*
Y360475D01*
X88054*
X87429Y358600D02*
X84929D01*
Y356725D02*
X88054D01*
X84929Y380347D02*
Y384097D01*
X88054*
X87429Y382222D02*
X84929D01*
Y380347D02*
X88054D01*
X86898Y486843D02*
Y490593D01*
X90023*
X89398Y488718D02*
X86898D01*
Y486843D02*
X90023D01*
X86898Y510465D02*
Y514215D01*
X90023*
X89398Y512340D02*
X86898D01*
Y510465D02*
X90023D01*
X88000Y210426D02*
X89563Y214176D01*
X91125Y210426*
X88625Y211988D02*
X90500D01*
X88000Y218300D02*
X89563Y222050D01*
X91125Y218300*
X88625Y219862D02*
X90500D01*
X90283Y283260D02*
Y287010D01*
X93409*
X92783Y285135D02*
X90283D01*
X90362Y243890D02*
X91925Y247640D01*
X93487Y243890*
X90987Y245453D02*
X92862D01*
X90835Y333103D02*
X92397Y336853D01*
X93960Y333103*
X91460Y334665D02*
X93335D01*
X90835Y344914D02*
X92397Y348664D01*
X93960Y344914*
X91460Y346476D02*
X93335D01*
X90835Y392158D02*
X92397Y395908D01*
X93960Y392158*
X91460Y393720D02*
X93335D01*
X90835Y403969D02*
X92397Y407719D01*
X93960Y403969*
X91460Y405531D02*
X93335D01*
X92134Y63221D02*
X93696Y66971D01*
X95259Y63221*
X92759Y64783D02*
X94634D01*
X92134Y75032D02*
X93696Y78782D01*
X95259Y75032*
X92759Y76594D02*
X94634D01*
X92134Y98654D02*
X93696Y102404D01*
X95259Y98654*
X92759Y100217D02*
X94634D01*
X92134Y110465D02*
X93696Y114215D01*
X95259Y110465*
X92759Y112028D02*
X94634D01*
X92803Y463221D02*
X94366Y466971D01*
X95928Y463221*
X93428Y464783D02*
X95303D01*
X92803Y475032D02*
X94366Y478782D01*
X95928Y475032*
X93428Y476594D02*
X95303D01*
X92803Y522276D02*
X94366Y526026D01*
X95928Y522276*
X93428Y523839D02*
X95303D01*
X92803Y534087D02*
X94366Y537837D01*
X95928Y534087*
X93428Y535650D02*
X95303D01*
X93906Y202552D02*
X95468Y206302D01*
X97031Y202552*
X94531Y204114D02*
X96406D01*
X95874Y293103D02*
X97437Y296853D01*
X98999Y293103*
X96499Y294665D02*
X98374D01*
X96661Y415859D02*
Y419609D01*
X98537*
X99161Y419296*
X99474Y418984*
X99787Y418359*
Y417109*
X99474Y416484*
X99161Y416171*
X98537Y415859*
X96661*
X96740Y321370D02*
Y325120D01*
X98615*
X99240Y324808*
X99553Y324496*
X99865Y323870*
Y322620*
X99553Y321996*
X99240Y321683*
X98615Y321370*
X96740*
Y368536D02*
Y372286D01*
X99865*
X99240Y370411D02*
X96740D01*
Y368536D02*
X99865D01*
X97843Y210426D02*
X99405Y214176D01*
X100968Y210426*
X98468Y211988D02*
X100343D01*
X97843Y218300D02*
X99405Y222050D01*
X100968Y218300*
X98468Y219862D02*
X100343D01*
X97843Y237985D02*
X99405Y241735D01*
X100968Y237985*
X98468Y239547D02*
X100343D01*
X98630Y545977D02*
Y549727D01*
X100505*
X101130Y549415*
X101443Y549102*
X101755Y548477*
Y547227*
X101443Y546602*
X101130Y546289*
X100505Y545977*
X98630*
X98709Y451489D02*
Y455239D01*
X100584*
X101209Y454926*
X101521Y454614*
X101834Y453989*
Y452739*
X101521Y452114*
X101209Y451801*
X100584Y451489*
X98709*
Y498654D02*
Y502404D01*
X101834*
X101209Y500529D02*
X98709D01*
Y498654D02*
X101834D01*
X99811Y269481D02*
X101374Y273231D01*
X102936Y269481*
X100436Y271043D02*
X102311D01*
X100283Y283260D02*
Y287010D01*
X103409*
X102783Y285135D02*
X100283D01*
X101780Y202552D02*
X103342Y206302D01*
X104905Y202552*
X102405Y204114D02*
X104280D01*
X102646Y333103D02*
X104208Y336853D01*
X105771Y333103*
X103271Y334665D02*
X105146D01*
X102646Y344914D02*
X104208Y348664D01*
X105771Y344914*
X103271Y346476D02*
X105146D01*
X102646Y392158D02*
X104208Y395908D01*
X105771Y392158*
X103271Y393720D02*
X105146D01*
X102646Y403969D02*
X104208Y407719D01*
X105771Y403969*
X103271Y405531D02*
X105146D01*
X103945Y63221D02*
X105507Y66971D01*
X107070Y63221*
X104570Y64783D02*
X106445D01*
X103945Y75032D02*
X105507Y78782D01*
X107070Y75032*
X104570Y76594D02*
X106445D01*
X103945Y98654D02*
X105507Y102404D01*
X107070Y98654*
X104570Y100217D02*
X106445D01*
X103945Y110465D02*
X105507Y114215D01*
X107070Y110465*
X104570Y112028D02*
X106445D01*
X104614Y463221D02*
X106177Y466971D01*
X107739Y463221*
X105239Y464783D02*
X107114D01*
X104614Y475032D02*
X106177Y478782D01*
X107739Y475032*
X105239Y476594D02*
X107114D01*
X104614Y522276D02*
X106177Y526026D01*
X107739Y522276*
X105239Y523839D02*
X107114D01*
X104614Y534087D02*
X106177Y537837D01*
X107739Y534087*
X105239Y535650D02*
X107114D01*
X105323Y236016D02*
X106885Y239766D01*
X108448Y236016*
X105948Y237579D02*
X107823D01*
X107685Y210032D02*
X109248Y213782D01*
X110810Y210032*
X108310Y211594D02*
X110185D01*
X107685Y293103D02*
X109248Y296853D01*
X110810Y293103*
X108310Y294665D02*
X110185D01*
X108551Y356725D02*
Y360475D01*
X111676*
X111051Y358600D02*
X108551D01*
Y356725D02*
X111676D01*
X108551Y380347D02*
Y384097D01*
X111676*
X111051Y382222D02*
X108551D01*
Y380347D02*
X111676D01*
X110283Y283260D02*
Y287010D01*
X113409*
X112783Y285135D02*
X110283D01*
X110520Y486843D02*
Y490593D01*
X113645*
X113020Y488718D02*
X110520D01*
Y486843D02*
X113645D01*
X110520Y510465D02*
Y514215D01*
X113645*
X113020Y512340D02*
X110520D01*
Y510465D02*
X113645D01*
X111622Y202552D02*
X113185Y206302D01*
X114747Y202552*
X112247Y204114D02*
X114122D01*
X114747Y252535D02*
X114435Y252222D01*
X113809Y251910*
X112872*
X112247Y252222*
X111935Y252535*
X111622Y253160*
Y254410*
X111935Y255035*
X112247Y255348*
X112872Y255660*
X113809*
X114435Y255348*
X114747Y255035*
Y252535D02*
X114435Y252222D01*
X113809Y251910*
X112872*
X112247Y252222*
X111935Y252535*
X111622Y253160*
Y254410*
X111935Y255035*
X112247Y255348*
X112872Y255660*
X113809*
X114435Y255348*
X114747Y255035*
X114378Y210032D02*
X115941Y213782D01*
X117503Y210032*
X115003Y211594D02*
X116878D01*
X115559Y239953D02*
X117122Y243703D01*
X118684Y239953*
X116184Y241516D02*
X118059D01*
X115756Y31725D02*
X117319Y35475D01*
X118881Y31725*
X116381Y33287D02*
X118256D01*
X115756Y39599D02*
X117319Y43349D01*
X118881Y39599*
X116381Y41161D02*
X118256D01*
X115756Y51410D02*
X117319Y55160D01*
X118881Y51410*
X116381Y52972D02*
X118256D01*
X115756Y63221D02*
X117319Y66971D01*
X118881Y63221*
X116381Y64783D02*
X118256D01*
X115756Y75032D02*
X117319Y78782D01*
X118881Y75032*
X116381Y76594D02*
X118256D01*
X115756Y98654D02*
X117319Y102404D01*
X118881Y98654*
X116381Y100217D02*
X118256D01*
X115756Y110465D02*
X117319Y114215D01*
X118881Y110465*
X116381Y112028D02*
X118256D01*
X115756Y122276D02*
X117319Y126026D01*
X118881Y122276*
X116381Y123839D02*
X118256D01*
X115756Y134087D02*
X117319Y137837D01*
X118881Y134087*
X116381Y135650D02*
X118256D01*
X115756Y141961D02*
X117319Y145711D01*
X118881Y141961*
X116381Y143524D02*
X118256D01*
X116425Y313418D02*
X117988Y317168D01*
X119550Y313418*
X117050Y314980D02*
X118925D01*
X116425Y321292D02*
X117988Y325042D01*
X119550Y321292*
X117050Y322854D02*
X118925D01*
X116425Y333103D02*
X117988Y336853D01*
X119550Y333103*
X117050Y334665D02*
X118925D01*
X116425Y344914D02*
X117988Y348664D01*
X119550Y344914*
X117050Y346476D02*
X118925D01*
X116425Y356725D02*
X117988Y360475D01*
X119550Y356725*
X117050Y358287D02*
X118925D01*
X116425Y380347D02*
X117988Y384097D01*
X119550Y380347*
X117050Y381909D02*
X118925D01*
X116425Y392158D02*
X117988Y395908D01*
X119550Y392158*
X117050Y393720D02*
X118925D01*
X116425Y403969D02*
X117988Y407719D01*
X119550Y403969*
X117050Y405531D02*
X118925D01*
X116425Y415780D02*
X117988Y419530D01*
X119550Y415780*
X117050Y417343D02*
X118925D01*
X116425Y423654D02*
X117988Y427404D01*
X119550Y423654*
X117050Y425217D02*
X118925D01*
X117528Y269481D02*
X119090Y273231D01*
X120653Y269481*
X118153Y271043D02*
X120028D01*
X118394Y443536D02*
X119956Y447286D01*
X121519Y443536*
X119019Y445098D02*
X120894D01*
X118394Y451410D02*
X119956Y455160D01*
X121519Y451410*
X119019Y452972D02*
X120894D01*
X118394Y463221D02*
X119956Y466971D01*
X121519Y463221*
X119019Y464783D02*
X120894D01*
X118394Y475032D02*
X119956Y478782D01*
X121519Y475032*
X119019Y476594D02*
X120894D01*
X118394Y486843D02*
X119956Y490593D01*
X121519Y486843*
X119019Y488406D02*
X120894D01*
X118394Y510465D02*
X119956Y514215D01*
X121519Y510465*
X119019Y512028D02*
X120894D01*
X118394Y522276D02*
X119956Y526026D01*
X121519Y522276*
X119019Y523839D02*
X120894D01*
X118394Y534087D02*
X119956Y537837D01*
X121519Y534087*
X119019Y535650D02*
X120894D01*
X118394Y545898D02*
X119956Y549648D01*
X121519Y545898*
X119019Y547461D02*
X120894D01*
X118394Y553772D02*
X119956Y557522D01*
X121519Y553772*
X119019Y555335D02*
X120894D01*
X119496Y163181D02*
X121059Y166931D01*
X122621Y163181*
X120121Y164744D02*
X121996D01*
X119496Y173024D02*
X121059Y176774D01*
X122621Y173024*
X120121Y174587D02*
X121996D01*
X119496Y184835D02*
X121059Y188585D01*
X122621Y184835*
X120121Y186398D02*
X121996D01*
X119496Y194678D02*
X121059Y198428D01*
X122621Y194678*
X120121Y196240D02*
X121996D01*
X119496Y236016D02*
X121059Y239766D01*
X122621Y236016*
X120121Y237579D02*
X121996D01*
X119496Y243890D02*
X121059Y247640D01*
X122621Y243890*
X120121Y245453D02*
X121996D01*
X119496Y255701D02*
X121059Y259451D01*
X122621Y255701*
X120121Y257264D02*
X121996D01*
X119496Y293103D02*
X121059Y296853D01*
X122621Y293103*
X120121Y294665D02*
X121996D01*
X121762Y233561D02*
X122387Y233248D01*
X122700Y232623*
X122387Y231998*
X121762Y231685*
X119575*
Y235435*
X121762*
X122387Y235123*
X122700Y234498*
X122387Y233873*
X121762Y233561*
X119575*
X122077Y228049D02*
X122702Y227736D01*
X123015Y227111*
X122702Y226486*
X122077Y226174*
X119890*
Y229924*
X122077*
X122702Y229611*
X123015Y228986*
X122702Y228361*
X122077Y228049*
X119890*
X120087Y203181D02*
X121649Y206931D01*
X123212Y203181*
X120712Y204744D02*
X122587D01*
X120283Y283260D02*
Y287010D01*
X123409*
X122783Y285135D02*
X120283D01*
X125306Y381238D02*
X125931Y380925D01*
X126243Y380300*
X125931Y379675*
X125306Y379363*
X123118*
Y383113*
X125306*
X125931Y382800*
X126243Y382175*
X125931Y381550*
X125306Y381238*
X123118*
X123709Y75032D02*
X125271Y78782D01*
X126834Y75032*
X124334Y76594D02*
X126209D01*
X124496Y98654D02*
X126059Y102404D01*
X127621Y98654*
X125121Y100217D02*
X126996D01*
X127370Y265544D02*
X128933Y269294D01*
X130495Y265544*
X127995Y267106D02*
X129870D01*
X128236Y344914D02*
X129799Y348664D01*
X131361Y344914*
X128861Y346476D02*
X130736D01*
X128236Y356725D02*
X129799Y360475D01*
X131361Y356725*
X128861Y358287D02*
X130736D01*
X128236Y392158D02*
X129799Y395908D01*
X131361Y392158*
X128861Y393720D02*
X130736D01*
X128236Y475032D02*
X129799Y478782D01*
X131361Y475032*
X128861Y476594D02*
X130736D01*
X128236Y486843D02*
X129799Y490593D01*
X131361Y486843*
X128861Y488406D02*
X130736D01*
X129339Y293103D02*
X130901Y296853D01*
X132464Y293103*
X129964Y294665D02*
X131839D01*
X129535Y51410D02*
X131098Y55160D01*
X132661Y51410*
X130161Y52972D02*
X132035D01*
X129535Y63221D02*
X131098Y66971D01*
X132661Y63221*
X130161Y64783D02*
X132035D01*
X129535Y110465D02*
X131098Y114215D01*
X132661Y110465*
X130161Y112028D02*
X132035D01*
X129535Y122276D02*
X131098Y126026D01*
X132661Y122276*
X130161Y123839D02*
X132035D01*
X130205Y510465D02*
X131767Y514215D01*
X133330Y510465*
X130830Y512028D02*
X132705D01*
X130205Y522276D02*
X131767Y526026D01*
X133330Y522276*
X130830Y523839D02*
X132705D01*
X131307Y163181D02*
X132870Y166931D01*
X134432Y163181*
X131932Y164744D02*
X133807D01*
X134441Y223885D02*
X134129Y223573D01*
X133504Y223260*
X132566*
X131941Y223573*
X131629Y223885*
X131316Y224510*
Y225760*
X131629Y226385*
X131941Y226698*
X132566Y227010*
X133504*
X134129Y226698*
X134441Y226385*
X133079Y201370D02*
X134641Y205120D01*
X136204Y201370*
X133704Y202933D02*
X135579D01*
X133276Y234048D02*
X134838Y237798D01*
X136401Y234048*
X133901Y235610D02*
X135776D01*
X133276Y245859D02*
X134838Y249609D01*
X136401Y245859*
X133901Y247421D02*
X135776D01*
X133276Y259638D02*
X134838Y263388D01*
X136401Y259638*
X133901Y261201D02*
X135776D01*
X137117Y387931D02*
X137742Y387618D01*
X138054Y386993*
X137742Y386368*
X137117Y386056*
X134929*
Y389806*
X137117*
X137742Y389493*
X138054Y388868*
X137742Y388243*
X137117Y387931*
X134929*
X135362Y134166D02*
Y137916D01*
X137237*
X137862Y137604*
X138175Y137291*
X138487Y136666*
Y135416*
X138175Y134791*
X137862Y134478*
X137237Y134166*
X135362*
X135441Y39678D02*
Y43428D01*
X137316*
X137941Y43115*
X138254Y42803*
X138566Y42178*
Y40928*
X138254Y40303*
X137941Y39990*
X137316Y39678*
X135441*
X137685Y365386D02*
X139248Y369136D01*
X140810Y365386*
X138310Y366949D02*
X140185D01*
X139181Y275229D02*
Y278979D01*
X141056*
X141681Y278667*
X141994Y278354*
X142306Y277729*
Y276479*
X141994Y275854*
X141681Y275541*
X141056Y275229*
X139181*
Y293103D02*
X140744Y296853D01*
X142306Y293103*
X139806Y294665D02*
X141681D01*
X139260Y180741D02*
Y184491D01*
X141135*
X141760Y184178*
X142072Y183866*
X142385Y183241*
Y181991*
X142072Y181366*
X141760Y181053*
X141135Y180741*
X139260*
X139654Y218209D02*
X141216Y221959D01*
X142779Y218209*
X140279Y219772D02*
X142154D01*
X142235Y387931D02*
X142860Y387618D01*
X143172Y386993*
X142860Y386368*
X142235Y386056*
X140047*
Y389806*
X142235*
X142860Y389493*
X143172Y388868*
X142860Y388243*
X142235Y387931*
X140047*
X141346Y51410D02*
X142909Y55160D01*
X144472Y51410*
X141972Y52972D02*
X143846D01*
X141346Y63221D02*
X142909Y66971D01*
X144472Y63221*
X141972Y64783D02*
X143846D01*
X141346Y110465D02*
X142909Y114215D01*
X144472Y110465*
X141972Y112028D02*
X143846D01*
X141346Y122276D02*
X142909Y126026D01*
X144472Y122276*
X141972Y123839D02*
X143846D01*
X142016Y344914D02*
X143578Y348664D01*
X145141Y344914*
X142641Y346476D02*
X144516D01*
X142016Y356725D02*
X143578Y360475D01*
X145141Y356725*
X142641Y358287D02*
X144516D01*
X142016Y392158D02*
X143578Y395908D01*
X145141Y392158*
X142641Y393720D02*
X144516D01*
X142016Y475032D02*
X143578Y478782D01*
X145141Y475032*
X142641Y476594D02*
X144516D01*
X142016Y486843D02*
X143578Y490593D01*
X145141Y486843*
X142641Y488406D02*
X144516D01*
X142016Y510465D02*
X143578Y514215D01*
X145141Y510465*
X142641Y512028D02*
X144516D01*
X142016Y522276D02*
X143578Y526026D01*
X145141Y522276*
X142641Y523839D02*
X144516D01*
X143118Y163181D02*
X144681Y166931D01*
X146243Y163181*
X143743Y164744D02*
X145618D01*
X145087Y192709D02*
X146649Y196459D01*
X148212Y192709*
X145712Y194272D02*
X147587D01*
X145087Y200583D02*
X146649Y204333D01*
X148212Y200583*
X145712Y202146D02*
X147587D01*
X145087Y210426D02*
X146649Y214176D01*
X148212Y210426*
X145712Y211988D02*
X147587D01*
X145087Y222237D02*
X146649Y225987D01*
X148212Y222237*
X145712Y223799D02*
X147587D01*
X145087Y234048D02*
X146649Y237798D01*
X148212Y234048*
X145712Y235610D02*
X147587D01*
X145087Y245859D02*
X146649Y249609D01*
X148212Y245859*
X145712Y247421D02*
X147587D01*
X145087Y259638D02*
X146649Y263388D01*
X148212Y259638*
X145712Y261201D02*
X147587D01*
X147331Y75032D02*
X148893Y78782D01*
X150456Y75032*
X147956Y76594D02*
X149831D01*
X147331Y98654D02*
X148893Y102404D01*
X150456Y98654*
X147956Y100217D02*
X149831D01*
X149024Y293103D02*
X150586Y296853D01*
X152149Y293103*
X149649Y294665D02*
X151524D01*
X153258Y375726D02*
X153883Y375413D01*
X154196Y374789*
X153883Y374163*
X153258Y373851*
X151071*
Y377601*
X153258*
X153883Y377289*
X154196Y376663*
X153883Y376039*
X153258Y375726*
X151071*
X153258Y381238D02*
X153883Y380925D01*
X154196Y380300*
X153883Y379675*
X153258Y379363*
X151071*
Y383113*
X153258*
X153883Y382800*
X154196Y382175*
X153883Y381550*
X153258Y381238*
X151071*
X153827Y344914D02*
X155389Y348664D01*
X156952Y344914*
X154452Y346476D02*
X156327D01*
X153827Y356725D02*
X155389Y360475D01*
X156952Y356725*
X154452Y358287D02*
X156327D01*
X154220Y379756D02*
X155783Y383506D01*
X157346Y379756*
X154846Y381319D02*
X156720D01*
X154929Y163181D02*
X156492Y166931D01*
X158054Y163181*
X155554Y164744D02*
X157429D01*
X154929Y173024D02*
X156492Y176774D01*
X158054Y173024*
X155554Y174587D02*
X157429D01*
X154929Y184835D02*
X156492Y188585D01*
X158054Y184835*
X155554Y186398D02*
X157429D01*
X154929Y194678D02*
X156492Y198428D01*
X158054Y194678*
X155554Y196240D02*
X157429D01*
X154929Y204520D02*
X156492Y208270D01*
X158054Y204520*
X155554Y206083D02*
X157429D01*
X154929Y216331D02*
X156492Y220081D01*
X158054Y216331*
X155554Y217894D02*
X157429D01*
X154929Y228142D02*
X156492Y231892D01*
X158054Y228142*
X155554Y229705D02*
X157429D01*
X154929Y239953D02*
X156492Y243703D01*
X158054Y239953*
X155554Y241516D02*
X157429D01*
X154929Y251764D02*
X156492Y255514D01*
X158054Y251764*
X155554Y253327D02*
X157429D01*
X154929Y263575D02*
X156492Y267325D01*
X158054Y263575*
X155554Y265138D02*
X157429D01*
X154929Y277355D02*
X156492Y281105D01*
X158054Y277355*
X155554Y278917D02*
X157429D01*
X154929Y289166D02*
X156492Y292916D01*
X158054Y289166*
X155554Y290728D02*
X157429D01*
X155126Y31725D02*
X156689Y35475D01*
X158251Y31725*
X155751Y33287D02*
X157626D01*
X155126Y39599D02*
X156689Y43349D01*
X158251Y39599*
X155751Y41161D02*
X157626D01*
X155126Y51410D02*
X156689Y55160D01*
X158251Y51410*
X155751Y52972D02*
X157626D01*
X155126Y63221D02*
X156689Y66971D01*
X158251Y63221*
X155751Y64783D02*
X157626D01*
X155126Y75032D02*
X156689Y78782D01*
X158251Y75032*
X155751Y76594D02*
X157626D01*
X155126Y86843D02*
X156689Y90593D01*
X158251Y86843*
X155751Y88406D02*
X157626D01*
X155126Y98654D02*
X156689Y102404D01*
X158251Y98654*
X155751Y100217D02*
X157626D01*
X155126Y110465D02*
X156689Y114215D01*
X158251Y110465*
X155751Y112028D02*
X157626D01*
X155126Y122276D02*
X156689Y126026D01*
X158251Y122276*
X155751Y123839D02*
X157626D01*
X155126Y134087D02*
X156689Y137837D01*
X158251Y134087*
X155751Y135650D02*
X157626D01*
X155126Y141961D02*
X156689Y145711D01*
X158251Y141961*
X155751Y143524D02*
X157626D01*
X155795Y392158D02*
X157358Y395908D01*
X158920Y392158*
X156420Y393720D02*
X158295D01*
X155795Y475032D02*
X157358Y478782D01*
X158920Y475032*
X156420Y476594D02*
X158295D01*
X155795Y486843D02*
X157358Y490593D01*
X158920Y486843*
X156420Y488406D02*
X158295D01*
X155795Y510465D02*
X157358Y514215D01*
X158920Y510465*
X156420Y512028D02*
X158295D01*
X155795Y522276D02*
X157358Y526026D01*
X158920Y522276*
X156420Y523839D02*
X158295D01*
X159557Y381238D02*
X160183Y380925D01*
X160495Y380300*
X160183Y379675*
X159557Y379363*
X157370*
Y383113*
X159557*
X160183Y382800*
X160495Y382175*
X160183Y381550*
X159557Y381238*
X157370*
Y383890D02*
X158933Y387640D01*
X160495Y383890*
X157995Y385453D02*
X159870D01*
X165638Y313418D02*
X167200Y317168D01*
X168763Y313418*
X166263Y314980D02*
X168138D01*
X165638Y321292D02*
X167200Y325042D01*
X168763Y321292*
X166263Y322854D02*
X168138D01*
X165638Y333103D02*
X167200Y336853D01*
X168763Y333103*
X166263Y334665D02*
X168138D01*
X165638Y344914D02*
X167200Y348664D01*
X168763Y344914*
X166263Y346476D02*
X168138D01*
X165638Y356725D02*
X167200Y360475D01*
X168763Y356725*
X166263Y358287D02*
X168138D01*
X165638Y380347D02*
X167200Y384097D01*
X168763Y380347*
X166263Y381909D02*
X168138D01*
X165638Y392158D02*
X167200Y395908D01*
X168763Y392158*
X166263Y393720D02*
X168138D01*
X165638Y403969D02*
X167200Y407719D01*
X168763Y403969*
X166263Y405531D02*
X168138D01*
X165638Y415780D02*
X167200Y419530D01*
X168763Y415780*
X166263Y417343D02*
X168138D01*
X165638Y423654D02*
X167200Y427404D01*
X168763Y423654*
X166263Y425217D02*
X168138D01*
X167606Y443536D02*
X169169Y447286D01*
X170731Y443536*
X168231Y445098D02*
X170106D01*
X167606Y451410D02*
X169169Y455160D01*
X170731Y451410*
X168231Y452972D02*
X170106D01*
X167606Y463221D02*
X169169Y466971D01*
X170731Y463221*
X168231Y464783D02*
X170106D01*
X167606Y475032D02*
X169169Y478782D01*
X170731Y475032*
X168231Y476594D02*
X170106D01*
X167606Y486843D02*
X169169Y490593D01*
X170731Y486843*
X168231Y488406D02*
X170106D01*
X167606Y510465D02*
X169169Y514215D01*
X170731Y510465*
X168231Y512028D02*
X170106D01*
X167606Y522276D02*
X169169Y526026D01*
X170731Y522276*
X168231Y523839D02*
X170106D01*
X167606Y534087D02*
X169169Y537837D01*
X170731Y534087*
X168231Y535650D02*
X170106D01*
X167606Y545898D02*
X169169Y549648D01*
X170731Y545898*
X168231Y547461D02*
X170106D01*
X167606Y553772D02*
X169169Y557522D01*
X170731Y553772*
X168231Y555335D02*
X170106D01*
X173512Y356725D02*
Y360475D01*
X176637*
X176012Y358600D02*
X173512D01*
Y356725D02*
X176637D01*
X173512Y380347D02*
Y384097D01*
X176637*
X176012Y382222D02*
X173512D01*
Y380347D02*
X176637D01*
X174929Y12552D02*
X176492Y16302D01*
X178054Y12552*
X175554Y14114D02*
X177429D01*
X174929Y24363D02*
X176492Y28113D01*
X178054Y24363*
X175554Y25925D02*
X177429D01*
X174929Y36174D02*
X176492Y39924D01*
X178054Y36174*
X175554Y37736D02*
X177429D01*
X175402Y486922D02*
Y490672D01*
X178527*
X177902Y488797D02*
X175402D01*
Y486922D02*
X178527D01*
X175402Y510544D02*
Y514294D01*
X178527*
X177902Y512419D02*
X175402D01*
Y510544D02*
X178527D01*
X177668Y47498D02*
X178293Y47185D01*
X178606Y46560*
X178293Y45935*
X177668Y45622*
X175480*
Y49372*
X177668*
X178293Y49060*
X178606Y48435*
X178293Y47810*
X177668Y47498*
X175480*
X177668Y57340D02*
X178293Y57028D01*
X178606Y56403*
X178293Y55778*
X177668Y55465*
X175480*
Y59215*
X177668*
X178293Y58903*
X178606Y58278*
X178293Y57653*
X177668Y57340*
X175480*
X177668Y67183D02*
X178293Y66870D01*
X178606Y66245*
X178293Y65620*
X177668Y65307*
X175480*
Y69057*
X177668*
X178293Y68745*
X178606Y68120*
X178293Y67495*
X177668Y67183*
X175480*
X177668Y74072D02*
X178293Y73760D01*
X178606Y73135*
X178293Y72510*
X177668Y72197*
X175480*
Y75947*
X177668*
X178293Y75635*
X178606Y75010*
X178293Y74385*
X177668Y74072*
X175480*
X177668Y80962D02*
X178293Y80650D01*
X178606Y80025*
X178293Y79400*
X177668Y79087*
X175480*
Y82837*
X177668*
X178293Y82525*
X178606Y81900*
X178293Y81275*
X177668Y80962*
X175480*
X177668Y90805D02*
X178293Y90492D01*
X178606Y89867*
X178293Y89242*
X177668Y88930*
X175480*
Y92680*
X177668*
X178293Y92367*
X178606Y91742*
X178293Y91117*
X177668Y90805*
X175480*
X177668Y100647D02*
X178293Y100335D01*
X178606Y99710*
X178293Y99085*
X177668Y98772*
X175480*
Y102522*
X177668*
X178293Y102210*
X178606Y101585*
X178293Y100960*
X177668Y100647*
X175480*
X177668Y110490D02*
X178293Y110177D01*
X178606Y109552*
X178293Y108927*
X177668Y108615*
X175480*
Y112365*
X177668*
X178293Y112052*
X178606Y111427*
X178293Y110802*
X177668Y110490*
X175480*
X177016Y163457D02*
X178578Y167207D01*
X180141Y163457*
X177641Y165020D02*
X179516D01*
X177016Y175268D02*
X178578Y179018D01*
X180141Y175268*
X177641Y176831D02*
X179516D01*
X177016Y187079D02*
X178578Y190829D01*
X180141Y187079*
X177641Y188642D02*
X179516D01*
X179203Y198561D02*
X179828Y198248D01*
X180141Y197623*
X179828Y196998*
X179203Y196685*
X177016*
Y200435*
X179203*
X179828Y200123*
X180141Y199498*
X179828Y198873*
X179203Y198561*
X177016*
X179203Y208403D02*
X179828Y208091D01*
X180141Y207466*
X179828Y206841*
X179203Y206528*
X177016*
Y210278*
X179203*
X179828Y209966*
X180141Y209341*
X179828Y208716*
X179203Y208403*
X177016*
X179203Y218246D02*
X179828Y217933D01*
X180141Y217308*
X179828Y216683*
X179203Y216370*
X177016*
Y220120*
X179203*
X179828Y219808*
X180141Y219183*
X179828Y218558*
X179203Y218246*
X177016*
X179203Y225135D02*
X179828Y224823D01*
X180141Y224198*
X179828Y223573*
X179203Y223260*
X177016*
Y227010*
X179203*
X179828Y226698*
X180141Y226073*
X179828Y225448*
X179203Y225135*
X177016*
X179203Y232025D02*
X179828Y231713D01*
X180141Y231088*
X179828Y230463*
X179203Y230150*
X177016*
Y233900*
X179203*
X179828Y233588*
X180141Y232963*
X179828Y232338*
X179203Y232025*
X177016*
X179203Y241868D02*
X179828Y241555D01*
X180141Y240930*
X179828Y240305*
X179203Y239993*
X177016*
Y243743*
X179203*
X179828Y243430*
X180141Y242805*
X179828Y242180*
X179203Y241868*
X177016*
X179203Y251710D02*
X179828Y251398D01*
X180141Y250773*
X179828Y250148*
X179203Y249835*
X177016*
Y253585*
X179203*
X179828Y253273*
X180141Y252648*
X179828Y252023*
X179203Y251710*
X177016*
X179203Y261553D02*
X179828Y261240D01*
X180141Y260615*
X179828Y259990*
X179203Y259678*
X177016*
Y263428*
X179203*
X179828Y263115*
X180141Y262490*
X179828Y261865*
X179203Y261553*
X177016*
Y267788D02*
X178578Y271538D01*
X180141Y267788*
X177641Y269350D02*
X179516D01*
X177016Y279599D02*
X178578Y283349D01*
X180141Y279599*
X177641Y281161D02*
X179516D01*
X177016Y291410D02*
X178578Y295160D01*
X180141Y291410*
X177641Y292972D02*
X179516D01*
X178866Y116882D02*
X180429Y120632D01*
X181991Y116882*
X179491Y118445D02*
X181366D01*
X178866Y128693D02*
X180429Y132443D01*
X181991Y128693*
X179491Y130256D02*
X181366D01*
X178866Y140504D02*
X180429Y144254D01*
X181991Y140504*
X179491Y142067D02*
X181366D01*
X179417Y333103D02*
X180980Y336853D01*
X182543Y333103*
X180043Y334665D02*
X181917D01*
X179417Y344914D02*
X180980Y348664D01*
X182543Y344914*
X180043Y346476D02*
X181917D01*
X179417Y392158D02*
X180980Y395908D01*
X182543Y392158*
X180043Y393720D02*
X181917D01*
X179417Y403969D02*
X180980Y407719D01*
X182543Y403969*
X180043Y405531D02*
X181917D01*
X182904Y52655D02*
X183529Y52343D01*
X183842Y51718*
X183529Y51093*
X182904Y50780*
X180717*
Y54530*
X182904*
X183529Y54218*
X183842Y53593*
X183529Y52968*
X182904Y52655*
X180717*
X182904Y105450D02*
X183529Y105138D01*
X183842Y104513*
X183529Y103888*
X182904Y103575*
X180717*
Y107325*
X182904*
X183529Y107013*
X183842Y106388*
X183529Y105763*
X182904Y105450*
X180717*
X181386Y463221D02*
X182948Y466971D01*
X184511Y463221*
X182011Y464783D02*
X183886D01*
X181386Y475032D02*
X182948Y478782D01*
X184511Y475032*
X182011Y476594D02*
X183886D01*
X181386Y522276D02*
X182948Y526026D01*
X184511Y522276*
X182011Y523839D02*
X183886D01*
X181386Y534087D02*
X182948Y537837D01*
X184511Y534087*
X182011Y535650D02*
X183886D01*
X184439Y203718D02*
X185065Y203406D01*
X185377Y202781*
X185065Y202156*
X184439Y201843*
X182252*
Y205593*
X184439*
X185065Y205281*
X185377Y204656*
X185065Y204031*
X184439Y203718*
X182252*
X184439Y256513D02*
X185065Y256201D01*
X185377Y255576*
X185065Y254951*
X184439Y254638*
X182252*
Y258388*
X184439*
X185065Y258076*
X185377Y257451*
X185065Y256826*
X184439Y256513*
X182252*
X184614Y12552D02*
X186177Y16302D01*
X187739Y12552*
X185239Y14114D02*
X187114D01*
X184732Y216567D02*
X186295Y220317D01*
X187857Y216567*
X185357Y218130D02*
X187232D01*
X184732Y240189D02*
X186295Y243939D01*
X187857Y240189*
X185357Y241752D02*
X187232D01*
X184969Y64756D02*
X186531Y68506D01*
X188094Y64756*
X185594Y66319D02*
X187469D01*
X184969Y88378D02*
X186531Y92128D01*
X188094Y88378*
X185594Y89941D02*
X187469D01*
X187510Y47498D02*
X188135Y47185D01*
X188448Y46560*
X188135Y45935*
X187510Y45622*
X185323*
Y49372*
X187510*
X188135Y49060*
X188448Y48435*
X188135Y47810*
X187510Y47498*
X185323*
X187510Y57340D02*
X188135Y57028D01*
X188448Y56403*
X188135Y55778*
X187510Y55465*
X185323*
Y59215*
X187510*
X188135Y58903*
X188448Y58278*
X188135Y57653*
X187510Y57340*
X185323*
X187510Y100647D02*
X188135Y100335D01*
X188448Y99710*
X188135Y99085*
X187510Y98772*
X185323*
Y102522*
X187510*
X188135Y102210*
X188448Y101585*
X188135Y100960*
X187510Y100647*
X185323*
X187510Y110490D02*
X188135Y110177D01*
X188448Y109552*
X188135Y108927*
X187510Y108615*
X185323*
Y112365*
X187510*
X188135Y112052*
X188448Y111427*
X188135Y110802*
X187510Y110490*
X185323*
Y368536D02*
Y372286D01*
X188448*
X187823Y370411D02*
X185323D01*
Y368536D02*
X188448D01*
X185323Y415701D02*
Y419451D01*
X187198*
X187823Y419139*
X188135Y418826*
X188448Y418201*
Y416951*
X188135Y416326*
X187823Y416014*
X187198Y415701*
X185323*
X185402Y321213D02*
Y324963D01*
X187277*
X187902Y324651*
X188214Y324338*
X188527Y323713*
Y322463*
X188214Y321838*
X187902Y321526*
X187277Y321213*
X185402*
X186701Y163457D02*
X188263Y167207D01*
X189826Y163457*
X187326Y165020D02*
X189201D01*
X189046Y198561D02*
X189671Y198248D01*
X189983Y197623*
X189671Y196998*
X189046Y196685*
X186858*
Y200435*
X189046*
X189671Y200123*
X189983Y199498*
X189671Y198873*
X189046Y198561*
X186858*
X189046Y208403D02*
X189671Y208091D01*
X189983Y207466*
X189671Y206841*
X189046Y206528*
X186858*
Y210278*
X189046*
X189671Y209966*
X189983Y209341*
X189671Y208716*
X189046Y208403*
X186858*
X189046Y251710D02*
X189671Y251398D01*
X189983Y250773*
X189671Y250148*
X189046Y249835*
X186858*
Y253585*
X189046*
X189671Y253273*
X189983Y252648*
X189671Y252023*
X189046Y251710*
X186858*
X189046Y261553D02*
X189671Y261240D01*
X189983Y260615*
X189671Y259990*
X189046Y259678*
X186858*
Y263428*
X189046*
X189671Y263115*
X189983Y262490*
X189671Y261865*
X189046Y261553*
X186858*
X187213Y498733D02*
Y502483D01*
X190338*
X189713Y500608D02*
X187213D01*
Y498733D02*
X190338D01*
X187213Y545898D02*
Y549648D01*
X189088*
X189713Y549336*
X190025Y549023*
X190338Y548398*
Y547148*
X190025Y546523*
X189713Y546211*
X189088Y545898*
X187213*
X187291Y451410D02*
Y455160D01*
X189167*
X189791Y454848*
X190104Y454535*
X190417Y453910*
Y452660*
X190104Y452035*
X189791Y451722*
X189167Y451410*
X187291*
X190638Y291410D02*
X192200Y295160D01*
X193763Y291410*
X191263Y292972D02*
X193138D01*
X193061Y52655D02*
X193687Y52343D01*
X193999Y51718*
X193687Y51093*
X193061Y50780*
X190874*
Y54530*
X193061*
X193687Y54218*
X193999Y53593*
X193687Y52968*
X193061Y52655*
X190874*
X193061Y105450D02*
X193687Y105138D01*
X193999Y104513*
X193687Y103888*
X193061Y103575*
X190874*
Y107325*
X193061*
X193687Y107013*
X193999Y106388*
X193687Y105763*
X193061Y105450*
X190874*
X191228Y333103D02*
X192791Y336853D01*
X194354Y333103*
X191854Y334665D02*
X193728D01*
X191228Y344914D02*
X192791Y348664D01*
X194354Y344914*
X191854Y346476D02*
X193728D01*
X191228Y392158D02*
X192791Y395908D01*
X194354Y392158*
X191854Y393720D02*
X193728D01*
X191228Y403969D02*
X192791Y407719D01*
X194354Y403969*
X191854Y405531D02*
X193728D01*
X194597Y203718D02*
X195222Y203406D01*
X195535Y202781*
X195222Y202156*
X194597Y201843*
X192409*
Y205593*
X194597*
X195222Y205281*
X195535Y204656*
X195222Y204031*
X194597Y203718*
X192409*
X194597Y256513D02*
X195222Y256201D01*
X195535Y255576*
X195222Y254951*
X194597Y254638*
X192409*
Y258388*
X194597*
X195222Y258076*
X195535Y257451*
X195222Y256826*
X194597Y256513*
X192409*
X193197Y463221D02*
X194759Y466971D01*
X196322Y463221*
X193822Y464783D02*
X195697D01*
X193197Y475032D02*
X194759Y478782D01*
X196322Y475032*
X193822Y476594D02*
X195697D01*
X193197Y522276D02*
X194759Y526026D01*
X196322Y522276*
X193822Y523839D02*
X195697D01*
X193197Y534087D02*
X194759Y537837D01*
X196322Y534087*
X193822Y535650D02*
X195697D01*
X197353Y47498D02*
X197978Y47185D01*
X198291Y46560*
X197978Y45935*
X197353Y45622*
X195165*
Y49372*
X197353*
X197978Y49060*
X198291Y48435*
X197978Y47810*
X197353Y47498*
X195165*
X197353Y57340D02*
X197978Y57028D01*
X198291Y56403*
X197978Y55778*
X197353Y55465*
X195165*
Y59215*
X197353*
X197978Y58903*
X198291Y58278*
X197978Y57653*
X197353Y57340*
X195165*
X197353Y100647D02*
X197978Y100335D01*
X198291Y99710*
X197978Y99085*
X197353Y98772*
X195165*
Y102522*
X197353*
X197978Y102210*
X198291Y101585*
X197978Y100960*
X197353Y100647*
X195165*
X197353Y110490D02*
X197978Y110177D01*
X198291Y109552*
X197978Y108927*
X197353Y108615*
X195165*
Y112365*
X197353*
X197978Y112052*
X198291Y111427*
X197978Y110802*
X197353Y110490*
X195165*
X196425Y12552D02*
X197988Y16302D01*
X199550Y12552*
X197050Y14114D02*
X198925D01*
X196425Y140504D02*
X197988Y144254D01*
X199550Y140504*
X197050Y142067D02*
X198925D01*
X196465Y124048D02*
Y127798D01*
X198340*
X198965Y127485*
X199277Y127173*
X199590Y126548*
Y125298*
X199277Y124673*
X198965Y124360*
X198340Y124048*
X196465*
X196543Y29559D02*
Y33309D01*
X198419*
X199043Y32997*
X199356Y32685*
X199669Y32059*
Y30809*
X199356Y30185*
X199043Y29872*
X198419Y29559*
X196543*
X196622Y275504D02*
Y279254D01*
X198497*
X199122Y278942*
X199435Y278630*
X199747Y278004*
Y276754*
X199435Y276130*
X199122Y275817*
X198497Y275504*
X196622*
X196701Y181016D02*
Y184766D01*
X198576*
X199201Y184454*
X199513Y184141*
X199826Y183516*
Y182266*
X199513Y181641*
X199201Y181329*
X198576Y181016*
X196701*
X198888Y198561D02*
X199513Y198248D01*
X199826Y197623*
X199513Y196998*
X198888Y196685*
X196701*
Y200435*
X198888*
X199513Y200123*
X199826Y199498*
X199513Y198873*
X198888Y198561*
X196701*
X198888Y208403D02*
X199513Y208091D01*
X199826Y207466*
X199513Y206841*
X198888Y206528*
X196701*
Y210278*
X198888*
X199513Y209966*
X199826Y209341*
X199513Y208716*
X198888Y208403*
X196701*
X198888Y251710D02*
X199513Y251398D01*
X199826Y250773*
X199513Y250148*
X198888Y249835*
X196701*
Y253585*
X198888*
X199513Y253273*
X199826Y252648*
X199513Y252023*
X198888Y251710*
X196701*
X198888Y261553D02*
X199513Y261240D01*
X199826Y260615*
X199513Y259990*
X198888Y259678*
X196701*
Y263428*
X198888*
X199513Y263115*
X199826Y262490*
X199513Y261865*
X198888Y261553*
X196701*
X197134Y356725D02*
Y360475D01*
X200259*
X199634Y358600D02*
X197134D01*
Y356725D02*
X200259D01*
X197134Y380347D02*
Y384097D01*
X200259*
X199634Y382222D02*
X197134D01*
Y380347D02*
X200259D01*
X198512Y163457D02*
X200074Y167207D01*
X201637Y163457*
X199137Y165020D02*
X201012D01*
X199024Y486922D02*
Y490672D01*
X202149*
X201524Y488797D02*
X199024D01*
Y486922D02*
X202149D01*
X199024Y510544D02*
Y514294D01*
X202149*
X201524Y512419D02*
X199024D01*
Y510544D02*
X202149D01*
X202550Y52655D02*
X203175Y52343D01*
X203487Y51718*
X203175Y51093*
X202550Y50780*
X200362*
Y54530*
X202550*
X203175Y54218*
X203487Y53593*
X203175Y52968*
X202550Y52655*
X200362*
X202550Y105450D02*
X203175Y105138D01*
X203487Y104513*
X203175Y103888*
X202550Y103575*
X200362*
Y107325*
X202550*
X203175Y107013*
X203487Y106388*
X203175Y105763*
X202550Y105450*
X200362*
X204085Y203718D02*
X204710Y203406D01*
X205023Y202781*
X204710Y202156*
X204085Y201843*
X201898*
Y205593*
X204085*
X204710Y205281*
X205023Y204656*
X204710Y204031*
X204085Y203718*
X201898*
X204085Y256513D02*
X204710Y256201D01*
X205023Y255576*
X204710Y254951*
X204085Y254638*
X201898*
Y258388*
X204085*
X204710Y258076*
X205023Y257451*
X204710Y256826*
X204085Y256513*
X201898*
X207195Y47498D02*
X207820Y47185D01*
X208133Y46560*
X207820Y45935*
X207195Y45622*
X205008*
Y49372*
X207195*
X207820Y49060*
X208133Y48435*
X207820Y47810*
X207195Y47498*
X205008*
X207195Y57340D02*
X207820Y57028D01*
X208133Y56403*
X207820Y55778*
X207195Y55465*
X205008*
Y59215*
X207195*
X207820Y58903*
X208133Y58278*
X207820Y57653*
X207195Y57340*
X205008*
X207195Y100647D02*
X207820Y100335D01*
X208133Y99710*
X207820Y99085*
X207195Y98772*
X205008*
Y102522*
X207195*
X207820Y102210*
X208133Y101585*
X207820Y100960*
X207195Y100647*
X205008*
X207195Y110490D02*
X207820Y110177D01*
X208133Y109552*
X207820Y108927*
X207195Y108615*
X205008*
Y112365*
X207195*
X207820Y112052*
X208133Y111427*
X207820Y110802*
X207195Y110490*
X205008*
Y313418D02*
X206570Y317168D01*
X208133Y313418*
X205633Y314980D02*
X207508D01*
X205008Y321292D02*
X206570Y325042D01*
X208133Y321292*
X205633Y322854D02*
X207508D01*
X205008Y333103D02*
X206570Y336853D01*
X208133Y333103*
X205633Y334665D02*
X207508D01*
X205008Y344914D02*
X206570Y348664D01*
X208133Y344914*
X205633Y346476D02*
X207508D01*
X205008Y356725D02*
X206570Y360475D01*
X208133Y356725*
X205633Y358287D02*
X207508D01*
X205008Y368536D02*
X206570Y372286D01*
X208133Y368536*
X205633Y370098D02*
X207508D01*
X205008Y380347D02*
X206570Y384097D01*
X208133Y380347*
X205633Y381909D02*
X207508D01*
X205008Y392158D02*
X206570Y395908D01*
X208133Y392158*
X205633Y393720D02*
X207508D01*
X205008Y403969D02*
X206570Y407719D01*
X208133Y403969*
X205633Y405531D02*
X207508D01*
X205008Y415780D02*
X206570Y419530D01*
X208133Y415780*
X205633Y417343D02*
X207508D01*
X205008Y423654D02*
X206570Y427404D01*
X208133Y423654*
X205633Y425217D02*
X207508D01*
X208731Y198561D02*
X209356Y198248D01*
X209669Y197623*
X209356Y196998*
X208731Y196685*
X206543*
Y200435*
X208731*
X209356Y200123*
X209669Y199498*
X209356Y198873*
X208731Y198561*
X206543*
X208731Y208403D02*
X209356Y208091D01*
X209669Y207466*
X209356Y206841*
X208731Y206528*
X206543*
Y210278*
X208731*
X209356Y209966*
X209669Y209341*
X209356Y208716*
X208731Y208403*
X206543*
X208731Y251710D02*
X209356Y251398D01*
X209669Y250773*
X209356Y250148*
X208731Y249835*
X206543*
Y253585*
X208731*
X209356Y253273*
X209669Y252648*
X209356Y252023*
X208731Y251710*
X206543*
X208731Y261553D02*
X209356Y261240D01*
X209669Y260615*
X209356Y259990*
X208731Y259678*
X206543*
Y263428*
X208731*
X209356Y263115*
X209669Y262490*
X209356Y261865*
X208731Y261553*
X206543*
X206976Y443536D02*
X208539Y447286D01*
X210102Y443536*
X207602Y445098D02*
X209476D01*
X206976Y451410D02*
X208539Y455160D01*
X210102Y451410*
X207602Y452972D02*
X209476D01*
X206976Y463221D02*
X208539Y466971D01*
X210102Y463221*
X207602Y464783D02*
X209476D01*
X206976Y475032D02*
X208539Y478782D01*
X210102Y475032*
X207602Y476594D02*
X209476D01*
X206976Y486843D02*
X208539Y490593D01*
X210102Y486843*
X207602Y488406D02*
X209476D01*
X206976Y498654D02*
X208539Y502404D01*
X210102Y498654*
X207602Y500217D02*
X209476D01*
X206976Y510465D02*
X208539Y514215D01*
X210102Y510465*
X207602Y512028D02*
X209476D01*
X206976Y522276D02*
X208539Y526026D01*
X210102Y522276*
X207602Y523839D02*
X209476D01*
X206976Y534087D02*
X208539Y537837D01*
X210102Y534087*
X207602Y535650D02*
X209476D01*
X206976Y545898D02*
X208539Y549648D01*
X210102Y545898*
X207602Y547461D02*
X209476D01*
X206976Y553772D02*
X208539Y557522D01*
X210102Y553772*
X207602Y555335D02*
X209476D01*
X208354Y240189D02*
X209917Y243939D01*
X211480Y240189*
X208980Y241752D02*
X210854D01*
X208591Y64756D02*
X210153Y68506D01*
X211716Y64756*
X209216Y66319D02*
X211091D01*
X208591Y88772D02*
X210153Y92522D01*
X211716Y88772*
X209216Y90335D02*
X211091D01*
X208748Y216567D02*
X210311Y220317D01*
X211873Y216567*
X209373Y218130D02*
X211248D01*
X210047Y12552D02*
X211610Y16302D01*
X213172Y12552*
X210672Y14114D02*
X212547D01*
X210047Y24363D02*
X211610Y28113D01*
X213172Y24363*
X210672Y25925D02*
X212547D01*
X210047Y36174D02*
X211610Y39924D01*
X213172Y36174*
X210672Y37736D02*
X212547D01*
X212353Y52655D02*
X212978Y52343D01*
X213291Y51718*
X212978Y51093*
X212353Y50780*
X210165*
Y54530*
X212353*
X212978Y54218*
X213291Y53593*
X212978Y52968*
X212353Y52655*
X210165*
X212353Y105450D02*
X212978Y105138D01*
X213291Y104513*
X212978Y103888*
X212353Y103575*
X210165*
Y107325*
X212353*
X212978Y107013*
X213291Y106388*
X212978Y105763*
X212353Y105450*
X210165*
X210323Y267788D02*
X211885Y271538D01*
X213448Y267788*
X210948Y269350D02*
X212823D01*
X210323Y279599D02*
X211885Y283349D01*
X213448Y279599*
X210948Y281161D02*
X212823D01*
X210323Y291410D02*
X211885Y295160D01*
X213448Y291410*
X210948Y292972D02*
X212823D01*
X213888Y203718D02*
X214513Y203406D01*
X214826Y202781*
X214513Y202156*
X213888Y201843*
X211701*
Y205593*
X213888*
X214513Y205281*
X214826Y204656*
X214513Y204031*
X213888Y203718*
X211701*
X213888Y256513D02*
X214513Y256201D01*
X214826Y255576*
X214513Y254951*
X213888Y254638*
X211701*
Y258388*
X213888*
X214513Y258076*
X214826Y257451*
X214513Y256826*
X213888Y256513*
X211701*
X212134Y163457D02*
X213696Y167207D01*
X215259Y163457*
X212759Y165020D02*
X214634D01*
X212134Y175268D02*
X213696Y179018D01*
X215259Y175268*
X212759Y176831D02*
X214634D01*
X212134Y187079D02*
X213696Y190829D01*
X215259Y187079*
X212759Y188642D02*
X214634D01*
X212173Y116882D02*
X213736Y120632D01*
X215298Y116882*
X212798Y118445D02*
X214673D01*
X212173Y128693D02*
X213736Y132443D01*
X215298Y128693*
X212798Y130256D02*
X214673D01*
X212173Y140504D02*
X213736Y144254D01*
X215298Y140504*
X212798Y142067D02*
X214673D01*
X217038Y47498D02*
X217663Y47185D01*
X217976Y46560*
X217663Y45935*
X217038Y45622*
X214850*
Y49372*
X217038*
X217663Y49060*
X217976Y48435*
X217663Y47810*
X217038Y47498*
X214850*
X217038Y57340D02*
X217663Y57028D01*
X217976Y56403*
X217663Y55778*
X217038Y55465*
X214850*
Y59215*
X217038*
X217663Y58903*
X217976Y58278*
X217663Y57653*
X217038Y57340*
X214850*
X217038Y67183D02*
X217663Y66870D01*
X217976Y66245*
X217663Y65620*
X217038Y65307*
X214850*
Y69057*
X217038*
X217663Y68745*
X217976Y68120*
X217663Y67495*
X217038Y67183*
X214850*
X217038Y90805D02*
X217663Y90492D01*
X217976Y89867*
X217663Y89242*
X217038Y88930*
X214850*
Y92680*
X217038*
X217663Y92367*
X217976Y91742*
X217663Y91117*
X217038Y90805*
X214850*
X217038Y100647D02*
X217663Y100335D01*
X217976Y99710*
X217663Y99085*
X217038Y98772*
X214850*
Y102522*
X217038*
X217663Y102210*
X217976Y101585*
X217663Y100960*
X217038Y100647*
X214850*
X217038Y110490D02*
X217663Y110177D01*
X217976Y109552*
X217663Y108927*
X217038Y108615*
X214850*
Y112365*
X217038*
X217663Y112052*
X217976Y111427*
X217663Y110802*
X217038Y110490*
X214850*
X218573Y198561D02*
X219198Y198248D01*
X219511Y197623*
X219198Y196998*
X218573Y196685*
X216386*
Y200435*
X218573*
X219198Y200123*
X219511Y199498*
X219198Y198873*
X218573Y198561*
X216386*
X218573Y208403D02*
X219198Y208091D01*
X219511Y207466*
X219198Y206841*
X218573Y206528*
X216386*
Y210278*
X218573*
X219198Y209966*
X219511Y209341*
X219198Y208716*
X218573Y208403*
X216386*
X218573Y218246D02*
X219198Y217933D01*
X219511Y217308*
X219198Y216683*
X218573Y216370*
X216386*
Y220120*
X218573*
X219198Y219808*
X219511Y219183*
X219198Y218558*
X218573Y218246*
X216386*
X218573Y241868D02*
X219198Y241555D01*
X219511Y240930*
X219198Y240305*
X218573Y239993*
X216386*
Y243743*
X218573*
X219198Y243430*
X219511Y242805*
X219198Y242180*
X218573Y241868*
X216386*
X218573Y251710D02*
X219198Y251398D01*
X219511Y250773*
X219198Y250148*
X218573Y249835*
X216386*
Y253585*
X218573*
X219198Y253273*
X219511Y252648*
X219198Y252023*
X218573Y251710*
X216386*
X218573Y261553D02*
X219198Y261240D01*
X219511Y260615*
X219198Y259990*
X218573Y259678*
X216386*
Y263428*
X218573*
X219198Y263115*
X219511Y262490*
X219198Y261865*
X218573Y261553*
X216386*
X224400Y284941D02*
X225338D01*
Y284628*
X225025Y284004*
X224713Y283691*
X224088Y283378*
X223463*
X222838Y283691*
X222525Y284004*
X222213Y284628*
Y285878*
X222525Y286504*
X222838Y286816*
X223463Y287128*
X224088*
X224713Y286816*
X225025Y286504*
X225338Y285878*
X226880Y47498D02*
X227506Y47185D01*
X227818Y46560*
X227506Y45935*
X226880Y45622*
X224693*
Y49372*
X226880*
X227506Y49060*
X227818Y48435*
X227506Y47810*
X226880Y47498*
X224693*
X226880Y57340D02*
X227506Y57028D01*
X227818Y56403*
X227506Y55778*
X226880Y55465*
X224693*
Y59215*
X226880*
X227506Y58903*
X227818Y58278*
X227506Y57653*
X226880Y57340*
X224693*
X226880Y67183D02*
X227506Y66870D01*
X227818Y66245*
X227506Y65620*
X226880Y65307*
X224693*
Y69057*
X226880*
X227506Y68745*
X227818Y68120*
X227506Y67495*
X226880Y67183*
X224693*
X226880Y90805D02*
X227506Y90492D01*
X227818Y89867*
X227506Y89242*
X226880Y88930*
X224693*
Y92680*
X226880*
X227506Y92367*
X227818Y91742*
X227506Y91117*
X226880Y90805*
X224693*
X226880Y100647D02*
X227506Y100335D01*
X227818Y99710*
X227506Y99085*
X226880Y98772*
X224693*
Y102522*
X226880*
X227506Y102210*
X227818Y101585*
X227506Y100960*
X226880Y100647*
X224693*
X226880Y110490D02*
X227506Y110177D01*
X227818Y109552*
X227506Y108927*
X226880Y108615*
X224693*
Y112365*
X226880*
X227506Y112052*
X227818Y111427*
X227506Y110802*
X226880Y110490*
X224693*
Y313418D02*
X226256Y317168D01*
X227818Y313418*
X225318Y314980D02*
X227193D01*
X224693Y321292D02*
X226256Y325042D01*
X227818Y321292*
X225318Y322854D02*
X227193D01*
X224693Y333103D02*
X226256Y336853D01*
X227818Y333103*
X225318Y334665D02*
X227193D01*
X224693Y344914D02*
X226256Y348664D01*
X227818Y344914*
X225318Y346476D02*
X227193D01*
X224693Y356725D02*
X226256Y360475D01*
X227818Y356725*
X225318Y358287D02*
X227193D01*
X224693Y368536D02*
X226256Y372286D01*
X227818Y368536*
X225318Y370098D02*
X227193D01*
X224693Y380347D02*
X226256Y384097D01*
X227818Y380347*
X225318Y381909D02*
X227193D01*
X224693Y392158D02*
X226256Y395908D01*
X227818Y392158*
X225318Y393720D02*
X227193D01*
X224693Y403969D02*
X226256Y407719D01*
X227818Y403969*
X225318Y405531D02*
X227193D01*
X224693Y415780D02*
X226256Y419530D01*
X227818Y415780*
X225318Y417343D02*
X227193D01*
X224693Y423654D02*
X226256Y427404D01*
X227818Y423654*
X225318Y425217D02*
X227193D01*
X225953Y12552D02*
X227515Y16302D01*
X229078Y12552*
X226578Y14114D02*
X228453D01*
X225953Y24363D02*
X227515Y28113D01*
X229078Y24363*
X226578Y25925D02*
X228453D01*
X225953Y36174D02*
X227515Y39924D01*
X229078Y36174*
X226578Y37736D02*
X228453D01*
X225953Y116882D02*
X227515Y120632D01*
X229078Y116882*
X226578Y118445D02*
X228453D01*
X225953Y128693D02*
X227515Y132443D01*
X229078Y128693*
X226578Y130256D02*
X228453D01*
X225953Y140504D02*
X227515Y144254D01*
X229078Y140504*
X226578Y142067D02*
X228453D01*
X226071Y291410D02*
X227633Y295160D01*
X229196Y291410*
X226696Y292972D02*
X228571D01*
X228416Y198561D02*
X229041Y198248D01*
X229354Y197623*
X229041Y196998*
X228416Y196685*
X226228*
Y200435*
X228416*
X229041Y200123*
X229354Y199498*
X229041Y198873*
X228416Y198561*
X226228*
X228416Y208403D02*
X229041Y208091D01*
X229354Y207466*
X229041Y206841*
X228416Y206528*
X226228*
Y210278*
X228416*
X229041Y209966*
X229354Y209341*
X229041Y208716*
X228416Y208403*
X226228*
X228416Y218246D02*
X229041Y217933D01*
X229354Y217308*
X229041Y216683*
X228416Y216370*
X226228*
Y220120*
X228416*
X229041Y219808*
X229354Y219183*
X229041Y218558*
X228416Y218246*
X226228*
X228416Y241868D02*
X229041Y241555D01*
X229354Y240930*
X229041Y240305*
X228416Y239993*
X226228*
Y243743*
X228416*
X229041Y243430*
X229354Y242805*
X229041Y242180*
X228416Y241868*
X226228*
X228416Y251710D02*
X229041Y251398D01*
X229354Y250773*
X229041Y250148*
X228416Y249835*
X226228*
Y253585*
X228416*
X229041Y253273*
X229354Y252648*
X229041Y252023*
X228416Y251710*
X226228*
X228416Y261553D02*
X229041Y261240D01*
X229354Y260615*
X229041Y259990*
X228416Y259678*
X226228*
Y263428*
X228416*
X229041Y263115*
X229354Y262490*
X229041Y261865*
X228416Y261553*
X226228*
X226661Y443536D02*
X228224Y447286D01*
X229787Y443536*
X227287Y445098D02*
X229161D01*
X226661Y451410D02*
X228224Y455160D01*
X229787Y451410*
X227287Y452972D02*
X229161D01*
X226661Y463221D02*
X228224Y466971D01*
X229787Y463221*
X227287Y464783D02*
X229161D01*
X226661Y475032D02*
X228224Y478782D01*
X229787Y475032*
X227287Y476594D02*
X229161D01*
X226661Y486843D02*
X228224Y490593D01*
X229787Y486843*
X227287Y488406D02*
X229161D01*
X226661Y498654D02*
X228224Y502404D01*
X229787Y498654*
X227287Y500217D02*
X229161D01*
X226661Y510465D02*
X228224Y514215D01*
X229787Y510465*
X227287Y512028D02*
X229161D01*
X226661Y522276D02*
X228224Y526026D01*
X229787Y522276*
X227287Y523839D02*
X229161D01*
X226661Y534087D02*
X228224Y537837D01*
X229787Y534087*
X227287Y535650D02*
X229161D01*
X226661Y545898D02*
X228224Y549648D01*
X229787Y545898*
X227287Y547461D02*
X229161D01*
X226661Y553772D02*
X228224Y557522D01*
X229787Y553772*
X227287Y555335D02*
X229161D01*
X228039Y163457D02*
X229602Y167207D01*
X231165Y163457*
X228665Y165020D02*
X230539D01*
X234400Y284941D02*
X235338D01*
Y284628*
X235025Y284004*
X234713Y283691*
X234088Y283378*
X233463*
X232838Y283691*
X232525Y284004*
X232213Y284628*
Y285878*
X232525Y286504*
X232838Y286816*
X233463Y287128*
X234088*
X234713Y286816*
X235025Y286504*
X235338Y285878*
X232567Y356725D02*
Y360475D01*
X235692*
X235067Y358600D02*
X232567D01*
Y356725D02*
X235692D01*
X232567Y380347D02*
Y384097D01*
X235692*
X235067Y382222D02*
X232567D01*
Y380347D02*
X235692D01*
X234457Y486922D02*
Y490672D01*
X237582*
X236957Y488797D02*
X234457D01*
Y486922D02*
X237582D01*
X234457Y510544D02*
Y514294D01*
X237582*
X236957Y512419D02*
X234457D01*
Y510544D02*
X237582D01*
X236723Y47498D02*
X237348Y47185D01*
X237661Y46560*
X237348Y45935*
X236723Y45622*
X234535*
Y49372*
X236723*
X237348Y49060*
X237661Y48435*
X237348Y47810*
X236723Y47498*
X234535*
X236723Y57340D02*
X237348Y57028D01*
X237661Y56403*
X237348Y55778*
X236723Y55465*
X234535*
Y59215*
X236723*
X237348Y58903*
X237661Y58278*
X237348Y57653*
X236723Y57340*
X234535*
X236723Y67183D02*
X237348Y66870D01*
X237661Y66245*
X237348Y65620*
X236723Y65307*
X234535*
Y69057*
X236723*
X237348Y68745*
X237661Y68120*
X237348Y67495*
X236723Y67183*
X234535*
X236723Y90805D02*
X237348Y90492D01*
X237661Y89867*
X237348Y89242*
X236723Y88930*
X234535*
Y92680*
X236723*
X237348Y92367*
X237661Y91742*
X237348Y91117*
X236723Y90805*
X234535*
X236723Y100647D02*
X237348Y100335D01*
X237661Y99710*
X237348Y99085*
X236723Y98772*
X234535*
Y102522*
X236723*
X237348Y102210*
X237661Y101585*
X237348Y100960*
X236723Y100647*
X234535*
X236723Y110490D02*
X237348Y110177D01*
X237661Y109552*
X237348Y108927*
X236723Y108615*
X234535*
Y112365*
X236723*
X237348Y112052*
X237661Y111427*
X237348Y110802*
X236723Y110490*
X234535*
Y313418D02*
X236098Y317168D01*
X237661Y313418*
X235161Y314980D02*
X237035D01*
X234535Y333103D02*
X236098Y336853D01*
X237661Y333103*
X235161Y334665D02*
X237035D01*
X234535Y344914D02*
X236098Y348664D01*
X237661Y344914*
X235161Y346476D02*
X237035D01*
X234535Y392158D02*
X236098Y395908D01*
X237661Y392158*
X235161Y393720D02*
X237035D01*
X234535Y403969D02*
X236098Y407719D01*
X237661Y403969*
X235161Y405531D02*
X237035D01*
X234535Y423654D02*
X236098Y427404D01*
X237661Y423654*
X235161Y425217D02*
X237035D01*
X238258Y198561D02*
X238883Y198248D01*
X239196Y197623*
X238883Y196998*
X238258Y196685*
X236071*
Y200435*
X238258*
X238883Y200123*
X239196Y199498*
X238883Y198873*
X238258Y198561*
X236071*
X238258Y208403D02*
X238883Y208091D01*
X239196Y207466*
X238883Y206841*
X238258Y206528*
X236071*
Y210278*
X238258*
X238883Y209966*
X239196Y209341*
X238883Y208716*
X238258Y208403*
X236071*
X238258Y218246D02*
X238883Y217933D01*
X239196Y217308*
X238883Y216683*
X238258Y216370*
X236071*
Y220120*
X238258*
X238883Y219808*
X239196Y219183*
X238883Y218558*
X238258Y218246*
X236071*
X238258Y241868D02*
X238883Y241555D01*
X239196Y240930*
X238883Y240305*
X238258Y239993*
X236071*
Y243743*
X238258*
X238883Y243430*
X239196Y242805*
X238883Y242180*
X238258Y241868*
X236071*
X238258Y251710D02*
X238883Y251398D01*
X239196Y250773*
X238883Y250148*
X238258Y249835*
X236071*
Y253585*
X238258*
X238883Y253273*
X239196Y252648*
X238883Y252023*
X238258Y251710*
X236071*
X238258Y261553D02*
X238883Y261240D01*
X239196Y260615*
X238883Y259990*
X238258Y259678*
X236071*
Y263428*
X238258*
X238883Y263115*
X239196Y262490*
X238883Y261865*
X238258Y261553*
X236071*
X236504Y443536D02*
X238067Y447286D01*
X239629Y443536*
X237129Y445098D02*
X239004D01*
X236504Y463221D02*
X238067Y466971D01*
X239629Y463221*
X237129Y464783D02*
X239004D01*
X236504Y475032D02*
X238067Y478782D01*
X239629Y475032*
X237129Y476594D02*
X239004D01*
X236504Y522276D02*
X238067Y526026D01*
X239629Y522276*
X237129Y523839D02*
X239004D01*
X236504Y534087D02*
X238067Y537837D01*
X239629Y534087*
X237129Y535650D02*
X239004D01*
X236504Y553772D02*
X238067Y557522D01*
X239629Y553772*
X237129Y555335D02*
X239004D01*
X241701Y12552D02*
X243263Y16302D01*
X244826Y12552*
X242326Y14114D02*
X244201D01*
X241701Y24363D02*
X243263Y28113D01*
X244826Y24363*
X242326Y25925D02*
X244201D01*
X241701Y36174D02*
X243263Y39924D01*
X244826Y36174*
X242326Y37736D02*
X244201D01*
X241701Y116882D02*
X243263Y120632D01*
X244826Y116882*
X242326Y118445D02*
X244201D01*
X241701Y128693D02*
X243263Y132443D01*
X244826Y128693*
X242326Y130256D02*
X244201D01*
X241701Y140504D02*
X243263Y144254D01*
X244826Y140504*
X242326Y142067D02*
X244201D01*
X241819Y291410D02*
X243381Y295160D01*
X244944Y291410*
X242444Y292972D02*
X244319D01*
X244400Y284941D02*
X245338D01*
Y284628*
X245025Y284004*
X244713Y283691*
X244088Y283378*
X243463*
X242838Y283691*
X242525Y284004*
X242213Y284628*
Y285878*
X242525Y286504*
X242838Y286816*
X243463Y287128*
X244088*
X244713Y286816*
X245025Y286504*
X245338Y285878*
X243787Y163457D02*
X245350Y167207D01*
X246913Y163457*
X244413Y165020D02*
X246287D01*
X246565Y47498D02*
X247191Y47185D01*
X247503Y46560*
X247191Y45935*
X246565Y45622*
X244378*
Y49372*
X246565*
X247191Y49060*
X247503Y48435*
X247191Y47810*
X246565Y47498*
X244378*
X246565Y57340D02*
X247191Y57028D01*
X247503Y56403*
X247191Y55778*
X246565Y55465*
X244378*
Y59215*
X246565*
X247191Y58903*
X247503Y58278*
X247191Y57653*
X246565Y57340*
X244378*
X246565Y67183D02*
X247191Y66870D01*
X247503Y66245*
X247191Y65620*
X246565Y65307*
X244378*
Y69057*
X246565*
X247191Y68745*
X247503Y68120*
X247191Y67495*
X246565Y67183*
X244378*
X246565Y90805D02*
X247191Y90492D01*
X247503Y89867*
X247191Y89242*
X246565Y88930*
X244378*
Y92680*
X246565*
X247191Y92367*
X247503Y91742*
X247191Y91117*
X246565Y90805*
X244378*
X246565Y100647D02*
X247191Y100335D01*
X247503Y99710*
X247191Y99085*
X246565Y98772*
X244378*
Y102522*
X246565*
X247191Y102210*
X247503Y101585*
X247191Y100960*
X246565Y100647*
X244378*
X246565Y110490D02*
X247191Y110177D01*
X247503Y109552*
X247191Y108927*
X246565Y108615*
X244378*
Y112365*
X246565*
X247191Y112052*
X247503Y111427*
X247191Y110802*
X246565Y110490*
X244378*
Y368536D02*
Y372286D01*
X247503*
X246878Y370411D02*
X244378D01*
Y368536D02*
X247503D01*
X244378Y415701D02*
Y419451D01*
X246253*
X246878Y419139*
X247191Y418826*
X247503Y418201*
Y416951*
X247191Y416326*
X246878Y416014*
X246253Y415701*
X244378*
X244457Y321213D02*
Y324963D01*
X246332*
X246957Y324651*
X247269Y324338*
X247582Y323713*
Y322463*
X247269Y321838*
X246957Y321526*
X246332Y321213*
X244457*
X248101Y198561D02*
X248726Y198248D01*
X249039Y197623*
X248726Y196998*
X248101Y196685*
X245913*
Y200435*
X248101*
X248726Y200123*
X249039Y199498*
X248726Y198873*
X248101Y198561*
X245913*
X248101Y208403D02*
X248726Y208091D01*
X249039Y207466*
X248726Y206841*
X248101Y206528*
X245913*
Y210278*
X248101*
X248726Y209966*
X249039Y209341*
X248726Y208716*
X248101Y208403*
X245913*
X248101Y218246D02*
X248726Y217933D01*
X249039Y217308*
X248726Y216683*
X248101Y216370*
X245913*
Y220120*
X248101*
X248726Y219808*
X249039Y219183*
X248726Y218558*
X248101Y218246*
X245913*
X248101Y241868D02*
X248726Y241555D01*
X249039Y240930*
X248726Y240305*
X248101Y239993*
X245913*
Y243743*
X248101*
X248726Y243430*
X249039Y242805*
X248726Y242180*
X248101Y241868*
X245913*
X248101Y251710D02*
X248726Y251398D01*
X249039Y250773*
X248726Y250148*
X248101Y249835*
X245913*
Y253585*
X248101*
X248726Y253273*
X249039Y252648*
X248726Y252023*
X248101Y251710*
X245913*
X248101Y261553D02*
X248726Y261240D01*
X249039Y260615*
X248726Y259990*
X248101Y259678*
X245913*
Y263428*
X248101*
X248726Y263115*
X249039Y262490*
X248726Y261865*
X248101Y261553*
X245913*
X246268Y498733D02*
Y502483D01*
X249393*
X248768Y500608D02*
X246268D01*
Y498733D02*
X249393D01*
X246268Y545898D02*
Y549648D01*
X248143*
X248768Y549336*
X249080Y549023*
X249393Y548398*
Y547148*
X249080Y546523*
X248768Y546211*
X248143Y545898*
X246268*
X246346Y333103D02*
X247909Y336853D01*
X249472Y333103*
X246972Y334665D02*
X248846D01*
X246346Y344914D02*
X247909Y348664D01*
X249472Y344914*
X246972Y346476D02*
X248846D01*
X246346Y392158D02*
X247909Y395908D01*
X249472Y392158*
X246972Y393720D02*
X248846D01*
X246346Y403969D02*
X247909Y407719D01*
X249472Y403969*
X246972Y405531D02*
X248846D01*
X246346Y451410D02*
Y455160D01*
X248222*
X248846Y454848*
X249159Y454535*
X249472Y453910*
Y452660*
X249159Y452035*
X248846Y451722*
X248222Y451410*
X246346*
X248315Y463221D02*
X249878Y466971D01*
X251440Y463221*
X248940Y464783D02*
X250815D01*
X248315Y475032D02*
X249878Y478782D01*
X251440Y475032*
X248940Y476594D02*
X250815D01*
X248315Y522276D02*
X249878Y526026D01*
X251440Y522276*
X248940Y523839D02*
X250815D01*
X248315Y534087D02*
X249878Y537837D01*
X251440Y534087*
X248940Y535650D02*
X250815D01*
X256408Y47498D02*
X257033Y47185D01*
X257346Y46560*
X257033Y45935*
X256408Y45622*
X254220*
Y49372*
X256408*
X257033Y49060*
X257346Y48435*
X257033Y47810*
X256408Y47498*
X254220*
X256408Y57340D02*
X257033Y57028D01*
X257346Y56403*
X257033Y55778*
X256408Y55465*
X254220*
Y59215*
X256408*
X257033Y58903*
X257346Y58278*
X257033Y57653*
X256408Y57340*
X254220*
X256408Y67183D02*
X257033Y66870D01*
X257346Y66245*
X257033Y65620*
X256408Y65307*
X254220*
Y69057*
X256408*
X257033Y68745*
X257346Y68120*
X257033Y67495*
X256408Y67183*
X254220*
X256408Y90805D02*
X257033Y90492D01*
X257346Y89867*
X257033Y89242*
X256408Y88930*
X254220*
Y92680*
X256408*
X257033Y92367*
X257346Y91742*
X257033Y91117*
X256408Y90805*
X254220*
X256408Y100647D02*
X257033Y100335D01*
X257346Y99710*
X257033Y99085*
X256408Y98772*
X254220*
Y102522*
X256408*
X257033Y102210*
X257346Y101585*
X257033Y100960*
X256408Y100647*
X254220*
X256408Y110490D02*
X257033Y110177D01*
X257346Y109552*
X257033Y108927*
X256408Y108615*
X254220*
Y112365*
X256408*
X257033Y112052*
X257346Y111427*
X257033Y110802*
X256408Y110490*
X254220*
X257943Y198561D02*
X258569Y198248D01*
X258881Y197623*
X258569Y196998*
X257943Y196685*
X255756*
Y200435*
X257943*
X258569Y200123*
X258881Y199498*
X258569Y198873*
X257943Y198561*
X255756*
X257943Y208403D02*
X258569Y208091D01*
X258881Y207466*
X258569Y206841*
X257943Y206528*
X255756*
Y210278*
X257943*
X258569Y209966*
X258881Y209341*
X258569Y208716*
X257943Y208403*
X255756*
X257943Y218246D02*
X258569Y217933D01*
X258881Y217308*
X258569Y216683*
X257943Y216370*
X255756*
Y220120*
X257943*
X258569Y219808*
X258881Y219183*
X258569Y218558*
X257943Y218246*
X255756*
X257943Y241868D02*
X258569Y241555D01*
X258881Y240930*
X258569Y240305*
X257943Y239993*
X255756*
Y243743*
X257943*
X258569Y243430*
X258881Y242805*
X258569Y242180*
X257943Y241868*
X255756*
X257943Y251710D02*
X258569Y251398D01*
X258881Y250773*
X258569Y250148*
X257943Y249835*
X255756*
Y253585*
X257943*
X258569Y253273*
X258881Y252648*
X258569Y252023*
X257943Y251710*
X255756*
X257943Y261553D02*
X258569Y261240D01*
X258881Y260615*
X258569Y259990*
X257943Y259678*
X255756*
Y263428*
X257943*
X258569Y263115*
X258881Y262490*
X258569Y261865*
X257943Y261553*
X255756*
X256189Y356725D02*
Y360475D01*
X259314*
X258689Y358600D02*
X256189D01*
Y356725D02*
X259314D01*
X256189Y380347D02*
Y384097D01*
X259314*
X258689Y382222D02*
X256189D01*
Y380347D02*
X259314D01*
X257449Y12552D02*
X259011Y16302D01*
X260574Y12552*
X258074Y14114D02*
X259949D01*
X257449Y24363D02*
X259011Y28113D01*
X260574Y24363*
X258074Y25925D02*
X259949D01*
X257449Y36174D02*
X259011Y39924D01*
X260574Y36174*
X258074Y37736D02*
X259949D01*
X257449Y116882D02*
X259011Y120632D01*
X260574Y116882*
X258074Y118445D02*
X259949D01*
X257449Y128693D02*
X259011Y132443D01*
X260574Y128693*
X258074Y130256D02*
X259949D01*
X257449Y140504D02*
X259011Y144254D01*
X260574Y140504*
X258074Y142067D02*
X259949D01*
X257567Y281567D02*
X259130Y285317D01*
X260692Y281567*
X258192Y283130D02*
X260067D01*
X257567Y291410D02*
X259130Y295160D01*
X260692Y291410*
X258192Y292972D02*
X260067D01*
X258079Y486922D02*
Y490672D01*
X261204*
X260579Y488797D02*
X258079D01*
Y486922D02*
X261204D01*
X258079Y510544D02*
Y514294D01*
X261204*
X260579Y512419D02*
X258079D01*
Y510544D02*
X261204D01*
X258157Y313418D02*
X259720Y317168D01*
X261283Y313418*
X258783Y314980D02*
X260657D01*
X258157Y333103D02*
X259720Y336853D01*
X261283Y333103*
X258783Y334665D02*
X260657D01*
X258157Y344914D02*
X259720Y348664D01*
X261283Y344914*
X258783Y346476D02*
X260657D01*
X258157Y392158D02*
X259720Y395908D01*
X261283Y392158*
X258783Y393720D02*
X260657D01*
X258157Y403969D02*
X259720Y407719D01*
X261283Y403969*
X258783Y405531D02*
X260657D01*
X258157Y423654D02*
X259720Y427404D01*
X261283Y423654*
X258783Y425217D02*
X260657D01*
X259535Y163457D02*
X261098Y167207D01*
X262661Y163457*
X260161Y165020D02*
X262035D01*
X261802Y51986D02*
X262427Y51673D01*
X262739Y51048*
X262427Y50423*
X261802Y50111*
X259614*
Y53861*
X261802*
X262427Y53548*
X262739Y52923*
X262427Y52298*
X261802Y51986*
X259614*
X261802Y57183D02*
X262427Y56870D01*
X262739Y56245*
X262427Y55620*
X261802Y55307*
X259614*
Y59057*
X261802*
X262427Y58745*
X262739Y58120*
X262427Y57495*
X261802Y57183*
X259614*
X260126Y443536D02*
X261689Y447286D01*
X263251Y443536*
X260751Y445098D02*
X262626D01*
X260126Y463221D02*
X261689Y466971D01*
X263251Y463221*
X260751Y464783D02*
X262626D01*
X260126Y475032D02*
X261689Y478782D01*
X263251Y475032*
X260751Y476594D02*
X262626D01*
X260126Y522276D02*
X261689Y526026D01*
X263251Y522276*
X260751Y523839D02*
X262626D01*
X260126Y534087D02*
X261689Y537837D01*
X263251Y534087*
X260751Y535650D02*
X262626D01*
X260126Y553772D02*
X261689Y557522D01*
X263251Y553772*
X260751Y555335D02*
X262626D01*
X266250Y90805D02*
X266876Y90492D01*
X267188Y89867*
X266876Y89242*
X266250Y88930*
X264063*
Y92680*
X266250*
X266876Y92367*
X267188Y91742*
X266876Y91117*
X266250Y90805*
X264063*
X266250Y100647D02*
X266876Y100335D01*
X267188Y99710*
X266876Y99085*
X266250Y98772*
X264063*
Y102522*
X266250*
X266876Y102210*
X267188Y101585*
X266876Y100960*
X266250Y100647*
X264063*
X266250Y110490D02*
X266876Y110177D01*
X267188Y109552*
X266876Y108927*
X266250Y108615*
X264063*
Y112365*
X266250*
X266876Y112052*
X267188Y111427*
X266876Y110802*
X266250Y110490*
X264063*
X266565Y208403D02*
X267191Y208091D01*
X267503Y207466*
X267191Y206841*
X266565Y206528*
X264378*
Y210278*
X266565*
X267191Y209966*
X267503Y209341*
X267191Y208716*
X266565Y208403*
X264378*
X266565Y218246D02*
X267191Y217933D01*
X267503Y217308*
X267191Y216683*
X266565Y216370*
X264378*
Y220120*
X266565*
X267191Y219808*
X267503Y219183*
X267191Y218558*
X266565Y218246*
X264378*
X266802Y47498D02*
X267427Y47185D01*
X267739Y46560*
X267427Y45935*
X266802Y45622*
X264614*
Y49372*
X266802*
X267427Y49060*
X267739Y48435*
X267427Y47810*
X266802Y47498*
X264614*
X266802Y57340D02*
X267427Y57028D01*
X267739Y56403*
X267427Y55778*
X266802Y55465*
X264614*
Y59215*
X266802*
X267427Y58903*
X267739Y58278*
X267427Y57653*
X266802Y57340*
X264614*
X266802Y67183D02*
X267427Y66870D01*
X267739Y66245*
X267427Y65620*
X266802Y65307*
X264614*
Y69057*
X266802*
X267427Y68745*
X267739Y68120*
X267427Y67495*
X266802Y67183*
X264614*
X266998Y198561D02*
X267624Y198248D01*
X267936Y197623*
X267624Y196998*
X266998Y196685*
X264811*
Y200435*
X266998*
X267624Y200123*
X267936Y199498*
X267624Y198873*
X266998Y198561*
X264811*
X267786Y241868D02*
X268411Y241555D01*
X268724Y240930*
X268411Y240305*
X267786Y239993*
X265598*
Y243743*
X267786*
X268411Y243430*
X268724Y242805*
X268411Y242180*
X267786Y241868*
X265598*
X267786Y251710D02*
X268411Y251398D01*
X268724Y250773*
X268411Y250148*
X267786Y249835*
X265598*
Y253585*
X267786*
X268411Y253273*
X268724Y252648*
X268411Y252023*
X267786Y251710*
X265598*
X267786Y261553D02*
X268411Y261240D01*
X268724Y260615*
X268411Y259990*
X267786Y259678*
X265598*
Y263428*
X267786*
X268411Y263115*
X268724Y262490*
X268411Y261865*
X267786Y261553*
X265598*
X271998Y194466D02*
X272624Y194154D01*
X272936Y193529*
X272624Y192904*
X271998Y192591*
X269811*
Y196341*
X271998*
X272624Y196029*
X272936Y195404*
X272624Y194779*
X271998Y194466*
X269811*
X272921Y200819D02*
X274484Y204569D01*
X276046Y200819*
X273546Y202382D02*
X275421D01*
X273197Y12552D02*
X274759Y16302D01*
X276322Y12552*
X273822Y14114D02*
X275697D01*
X273197Y24363D02*
X274759Y28113D01*
X276322Y24363*
X273822Y25925D02*
X275697D01*
X273197Y36174D02*
X274759Y39924D01*
X276322Y36174*
X273822Y37736D02*
X275697D01*
X273197Y116882D02*
X274759Y120632D01*
X276322Y116882*
X273822Y118445D02*
X275697D01*
X273197Y128693D02*
X274759Y132443D01*
X276322Y128693*
X273822Y130256D02*
X275697D01*
X273197Y140504D02*
X274759Y144254D01*
X276322Y140504*
X273822Y142067D02*
X275697D01*
X275424Y47498D02*
X276049Y47185D01*
X276361Y46560*
X276049Y45935*
X275424Y45622*
X273236*
Y49372*
X275424*
X276049Y49060*
X276361Y48435*
X276049Y47810*
X275424Y47498*
X273236*
X275424Y57340D02*
X276049Y57028D01*
X276361Y56403*
X276049Y55778*
X275424Y55465*
X273236*
Y59215*
X275424*
X276049Y58903*
X276361Y58278*
X276049Y57653*
X275424Y57340*
X273236*
X275424Y67183D02*
X276049Y66870D01*
X276361Y66245*
X276049Y65620*
X275424Y65307*
X273236*
Y69057*
X275424*
X276049Y68745*
X276361Y68120*
X276049Y67495*
X275424Y67183*
X273236*
X273315Y291410D02*
X274878Y295160D01*
X276440Y291410*
X273940Y292972D02*
X275815D01*
X275857Y90805D02*
X276482Y90492D01*
X276794Y89867*
X276482Y89242*
X275857Y88930*
X273669*
Y92680*
X275857*
X276482Y92367*
X276794Y91742*
X276482Y91117*
X275857Y90805*
X273669*
X275857Y100647D02*
X276482Y100335D01*
X276794Y99710*
X276482Y99085*
X275857Y98772*
X273669*
Y102522*
X275857*
X276482Y102210*
X276794Y101585*
X276482Y100960*
X275857Y100647*
X273669*
X275857Y110490D02*
X276482Y110177D01*
X276794Y109552*
X276482Y108927*
X275857Y108615*
X273669*
Y112365*
X275857*
X276482Y112052*
X276794Y111427*
X276482Y110802*
X275857Y110490*
X273669*
X275283Y163457D02*
X276846Y167207D01*
X278409Y163457*
X275909Y165020D02*
X277783D01*
X277628Y241868D02*
X278254Y241555D01*
X278566Y240930*
X278254Y240305*
X277628Y239993*
X275441*
Y243743*
X277628*
X278254Y243430*
X278566Y242805*
X278254Y242180*
X277628Y241868*
X275441*
X277628Y251710D02*
X278254Y251398D01*
X278566Y250773*
X278254Y250148*
X277628Y249835*
X275441*
Y253585*
X277628*
X278254Y253273*
X278566Y252648*
X278254Y252023*
X277628Y251710*
X275441*
X277628Y261553D02*
X278254Y261240D01*
X278566Y260615*
X278254Y259990*
X277628Y259678*
X275441*
Y263428*
X277628*
X278254Y263115*
X278566Y262490*
X278254Y261865*
X277628Y261553*
X275441*
X278140Y194466D02*
X278765Y194154D01*
X279078Y193529*
X278765Y192904*
X278140Y192591*
X275953*
Y196341*
X278140*
X278765Y196029*
X279078Y195404*
X278765Y194779*
X278140Y194466*
X275953*
X282510Y198561D02*
X283135Y198248D01*
X283448Y197623*
X283135Y196998*
X282510Y196685*
X280323*
Y200435*
X282510*
X283135Y200123*
X283448Y199498*
X283135Y198873*
X282510Y198561*
X280323*
X282825Y238324D02*
X283450Y238012D01*
X283763Y237387*
X283450Y236762*
X282825Y236449*
X280638*
Y240199*
X282825*
X283450Y239887*
X283763Y239262*
X283450Y238637*
X282825Y238324*
X280638*
X282943Y208403D02*
X283569Y208091D01*
X283881Y207466*
X283569Y206841*
X282943Y206528*
X280756*
Y210278*
X282943*
X283569Y209966*
X283881Y209341*
X283569Y208716*
X282943Y208403*
X280756*
X282943Y218246D02*
X283569Y217933D01*
X283881Y217308*
X283569Y216683*
X282943Y216370*
X280756*
Y220120*
X282943*
X283569Y219808*
X283881Y219183*
X283569Y218558*
X282943Y218246*
X280756*
X283534Y241868D02*
X284159Y241555D01*
X284472Y240930*
X284159Y240305*
X283534Y239993*
X281346*
Y243743*
X283534*
X284159Y243430*
X284472Y242805*
X284159Y242180*
X283534Y241868*
X281346*
X281976Y313418D02*
X283539Y317168D01*
X285102Y313418*
X282602Y314980D02*
X284476D01*
X281976Y333103D02*
X283539Y336853D01*
X285102Y333103*
X282602Y334665D02*
X284476D01*
X281976Y344914D02*
X283539Y348664D01*
X285102Y344914*
X282602Y346476D02*
X284476D01*
X281976Y392158D02*
X283539Y395908D01*
X285102Y392158*
X282602Y393720D02*
X284476D01*
X281976Y403969D02*
X283539Y407719D01*
X285102Y403969*
X282602Y405531D02*
X284476D01*
X281976Y423654D02*
X283539Y427404D01*
X285102Y423654*
X282602Y425217D02*
X284476D01*
X281976Y443536D02*
X283539Y447286D01*
X285102Y443536*
X282602Y445098D02*
X284476D01*
X281976Y463221D02*
X283539Y466971D01*
X285102Y463221*
X282602Y464783D02*
X284476D01*
X281976Y475032D02*
X283539Y478782D01*
X285102Y475032*
X282602Y476594D02*
X284476D01*
X281976Y522276D02*
X283539Y526026D01*
X285102Y522276*
X282602Y523839D02*
X284476D01*
X281976Y534087D02*
X283539Y537837D01*
X285102Y534087*
X282602Y535650D02*
X284476D01*
X281976Y553772D02*
X283539Y557522D01*
X285102Y553772*
X282602Y555335D02*
X284476D01*
X285266Y47498D02*
X285891Y47185D01*
X286204Y46560*
X285891Y45935*
X285266Y45622*
X283079*
Y49372*
X285266*
X285891Y49060*
X286204Y48435*
X285891Y47810*
X285266Y47498*
X283079*
X285266Y57340D02*
X285891Y57028D01*
X286204Y56403*
X285891Y55778*
X285266Y55465*
X283079*
Y59215*
X285266*
X285891Y58903*
X286204Y58278*
X285891Y57653*
X285266Y57340*
X283079*
X285266Y67183D02*
X285891Y66870D01*
X286204Y66245*
X285891Y65620*
X285266Y65307*
X283079*
Y69057*
X285266*
X285891Y68745*
X286204Y68120*
X285891Y67495*
X285266Y67183*
X283079*
X285699Y90805D02*
X286324Y90492D01*
X286637Y89867*
X286324Y89242*
X285699Y88930*
X283512*
Y92680*
X285699*
X286324Y92367*
X286637Y91742*
X286324Y91117*
X285699Y90805*
X283512*
X285699Y100647D02*
X286324Y100335D01*
X286637Y99710*
X286324Y99085*
X285699Y98772*
X283512*
Y102522*
X285699*
X286324Y102210*
X286637Y101585*
X286324Y100960*
X285699Y100647*
X283512*
X285699Y110490D02*
X286324Y110177D01*
X286637Y109552*
X286324Y108927*
X285699Y108615*
X283512*
Y112365*
X285699*
X286324Y112052*
X286637Y111427*
X286324Y110802*
X285699Y110490*
X283512*
X283945Y356725D02*
Y360475D01*
X287070*
X286445Y358600D02*
X283945D01*
Y356725D02*
X287070D01*
X283945Y380347D02*
Y384097D01*
X287070*
X286445Y382222D02*
X283945D01*
Y380347D02*
X287070D01*
X284142Y486843D02*
Y490593D01*
X287267*
X286642Y488718D02*
X284142D01*
Y486843D02*
X287267D01*
X284142Y510465D02*
Y514215D01*
X287267*
X286642Y512340D02*
X284142D01*
Y510465D02*
X287267D01*
X286762Y238324D02*
X287387Y238012D01*
X287700Y237387*
X287387Y236762*
X286762Y236449*
X284575*
Y240199*
X286762*
X287387Y239887*
X287700Y239262*
X287387Y238637*
X286762Y238324*
X284575*
X285126Y269756D02*
X286689Y273506D01*
X288251Y269756*
X285751Y271319D02*
X287626D01*
X287471Y241868D02*
X288096Y241555D01*
X288409Y240930*
X288096Y240305*
X287471Y239993*
X285283*
Y243743*
X287471*
X288096Y243430*
X288409Y242805*
X288096Y242180*
X287471Y241868*
X285283*
X287471Y251710D02*
X288096Y251398D01*
X288409Y250773*
X288096Y250148*
X287471Y249835*
X285283*
Y253585*
X287471*
X288096Y253273*
X288409Y252648*
X288096Y252023*
X287471Y251710*
X285283*
X287471Y261553D02*
X288096Y261240D01*
X288409Y260615*
X288096Y259990*
X287471Y259678*
X285283*
Y263428*
X287471*
X288096Y263115*
X288409Y262490*
X288096Y261865*
X287471Y261553*
X285283*
X287707Y233797D02*
X288332Y233484D01*
X288645Y232859*
X288332Y232234*
X287707Y231922*
X285520*
Y235672*
X287707*
X288332Y235359*
X288645Y234734*
X288332Y234109*
X287707Y233797*
X285520*
X290699Y238364D02*
X291324Y238051D01*
X291637Y237426*
X291324Y236801*
X290699Y236489*
X288512*
Y240239*
X290699*
X291324Y239926*
X291637Y239301*
X291324Y238676*
X290699Y238364*
X288512*
X288945Y12552D02*
X290507Y16302D01*
X292070Y12552*
X289570Y14114D02*
X291445D01*
X288945Y24363D02*
X290507Y28113D01*
X292070Y24363*
X289570Y25925D02*
X291445D01*
X288945Y36174D02*
X290507Y39924D01*
X292070Y36174*
X289570Y37736D02*
X291445D01*
X288945Y116882D02*
X290507Y120632D01*
X292070Y116882*
X289570Y118445D02*
X291445D01*
X288945Y128693D02*
X290507Y132443D01*
X292070Y128693*
X289570Y130256D02*
X291445D01*
X288945Y140504D02*
X290507Y144254D01*
X292070Y140504*
X289570Y142067D02*
X291445D01*
X289063Y291410D02*
X290626Y295160D01*
X292188Y291410*
X289688Y292972D02*
X291563D01*
X291565Y198561D02*
X292191Y198248D01*
X292503Y197623*
X292191Y196998*
X291565Y196685*
X289378*
Y200435*
X291565*
X292191Y200123*
X292503Y199498*
X292191Y198873*
X291565Y198561*
X289378*
X291565Y208403D02*
X292191Y208091D01*
X292503Y207466*
X292191Y206841*
X291565Y206528*
X289378*
Y210278*
X291565*
X292191Y209966*
X292503Y209341*
X292191Y208716*
X291565Y208403*
X289378*
X291565Y218246D02*
X292191Y217933D01*
X292503Y217308*
X292191Y216683*
X291565Y216370*
X289378*
Y220120*
X291565*
X292191Y219808*
X292503Y219183*
X292191Y218558*
X291565Y218246*
X289378*
X291723Y232419D02*
X292348Y232106D01*
X292661Y231481*
X292348Y230856*
X291723Y230544*
X289535*
Y234294*
X291723*
X292348Y233981*
X292661Y233356*
X292348Y232731*
X291723Y232419*
X289535*
X292746Y226513D02*
X293372Y226201D01*
X293684Y225576*
X293372Y224951*
X292746Y224638*
X290559*
Y228388*
X292746*
X293372Y228076*
X293684Y227451*
X293372Y226826*
X292746Y226513*
X290559*
X291031Y163457D02*
X292594Y167207D01*
X294157Y163457*
X291657Y165020D02*
X293531D01*
X294991Y222813D02*
X295616Y222500D01*
X295928Y221875*
X295616Y221250*
X294991Y220937*
X292803*
Y224687*
X294991*
X295616Y224375*
X295928Y223750*
X295616Y223125*
X294991Y222813*
X292803*
X295109Y47498D02*
X295734Y47185D01*
X296046Y46560*
X295734Y45935*
X295109Y45622*
X292921*
Y49372*
X295109*
X295734Y49060*
X296046Y48435*
X295734Y47810*
X295109Y47498*
X292921*
X295109Y57340D02*
X295734Y57028D01*
X296046Y56403*
X295734Y55778*
X295109Y55465*
X292921*
Y59215*
X295109*
X295734Y58903*
X296046Y58278*
X295734Y57653*
X295109Y57340*
X292921*
X295109Y67183D02*
X295734Y66870D01*
X296046Y66245*
X295734Y65620*
X295109Y65307*
X292921*
Y69057*
X295109*
X295734Y68745*
X296046Y68120*
X295734Y67495*
X295109Y67183*
X292921*
X295542Y90805D02*
X296167Y90492D01*
X296480Y89867*
X296167Y89242*
X295542Y88930*
X293354*
Y92680*
X295542*
X296167Y92367*
X296480Y91742*
X296167Y91117*
X295542Y90805*
X293354*
X295542Y100647D02*
X296167Y100335D01*
X296480Y99710*
X296167Y99085*
X295542Y98772*
X293354*
Y102522*
X295542*
X296167Y102210*
X296480Y101585*
X296167Y100960*
X295542Y100647*
X293354*
X295542Y110490D02*
X296167Y110177D01*
X296480Y109552*
X296167Y108927*
X295542Y108615*
X293354*
Y112365*
X295542*
X296167Y112052*
X296480Y111427*
X296167Y110802*
X295542Y110490*
X293354*
X295975Y231041D02*
X296600Y230728D01*
X296913Y230104*
X296600Y229478*
X295975Y229166*
X293787*
Y232916*
X295975*
X296600Y232604*
X296913Y231978*
X296600Y231354*
X295975Y231041*
X293787*
Y333103D02*
X295350Y336853D01*
X296913Y333103*
X294413Y334665D02*
X296287D01*
X293787Y344914D02*
X295350Y348664D01*
X296913Y344914*
X294413Y346476D02*
X296287D01*
X293787Y392158D02*
X295350Y395908D01*
X296913Y392158*
X294413Y393720D02*
X296287D01*
X293787Y403969D02*
X295350Y407719D01*
X296913Y403969*
X294413Y405531D02*
X296287D01*
X293787Y463221D02*
X295350Y466971D01*
X296913Y463221*
X294413Y464783D02*
X296287D01*
X293787Y475032D02*
X295350Y478782D01*
X296913Y475032*
X294413Y476594D02*
X296287D01*
X293787Y522276D02*
X295350Y526026D01*
X296913Y522276*
X294413Y523839D02*
X296287D01*
X293787Y534087D02*
X295350Y537837D01*
X296913Y534087*
X294413Y535650D02*
X296287D01*
X296683Y226513D02*
X297309Y226201D01*
X297621Y225576*
X297309Y224951*
X296683Y224638*
X294496*
Y228388*
X296683*
X297309Y228076*
X297621Y227451*
X297309Y226826*
X296683Y226513*
X294496*
X294575Y250426D02*
X296137Y254176D01*
X297700Y250426*
X295200Y251988D02*
X297075D01*
X294575Y261056D02*
X296137Y264806D01*
X297700Y261056*
X295200Y262618D02*
X297075D01*
X295677Y415859D02*
Y419609D01*
X297552*
X298177Y419296*
X298490Y418984*
X298802Y418359*
Y417109*
X298490Y416484*
X298177Y416171*
X297552Y415859*
X295677*
X295756Y321370D02*
Y325120D01*
X297631*
X298256Y324808*
X298569Y324496*
X298881Y323870*
Y322620*
X298569Y321996*
X298256Y321683*
X297631Y321370*
X295756*
Y368536D02*
Y372286D01*
X298881*
X298256Y370411D02*
X295756D01*
Y368536D02*
X298881D01*
X295874Y545977D02*
Y549727D01*
X297749*
X298374Y549415*
X298687Y549102*
X298999Y548477*
Y547227*
X298687Y546602*
X298374Y546289*
X297749Y545977*
X295874*
X295953Y451489D02*
Y455239D01*
X297828*
X298453Y454926*
X298765Y454614*
X299078Y453989*
Y452739*
X298765Y452114*
X298453Y451801*
X297828Y451489*
X295953*
Y498654D02*
Y502404D01*
X299078*
X298453Y500529D02*
X295953D01*
Y498654D02*
X299078D01*
X298494Y200805D02*
X299120Y200492D01*
X299432Y199867*
X299120Y199242*
X298494Y198930*
X296307*
Y202680*
X298494*
X299120Y202367*
X299432Y201742*
X299120Y201117*
X298494Y200805*
X296307*
X298494Y210647D02*
X299120Y210335D01*
X299432Y209710*
X299120Y209085*
X298494Y208772*
X296307*
Y212522*
X298494*
X299120Y212210*
X299432Y211585*
X299120Y210960*
X298494Y210647*
X296307*
X298494Y220490D02*
X299120Y220177D01*
X299432Y219552*
X299120Y218927*
X298494Y218615*
X296307*
Y222365*
X298494*
X299120Y222052*
X299432Y221427*
X299120Y220802*
X298494Y220490*
X296307*
X298770Y223954D02*
X299395Y223642D01*
X299708Y223017*
X299395Y222392*
X298770Y222079*
X296583*
Y225829*
X298770*
X299395Y225517*
X299708Y224892*
X299395Y224267*
X298770Y223954*
X296583*
X300620Y226553D02*
X301246Y226240D01*
X301558Y225615*
X301246Y224990*
X300620Y224678*
X298433*
Y228428*
X300620*
X301246Y228115*
X301558Y227490*
X301246Y226865*
X300620Y226553*
X298433*
X302156Y100647D02*
X302781Y100335D01*
X303094Y99710*
X302781Y99085*
X302156Y98772*
X299969*
Y102522*
X302156*
X302781Y102210*
X303094Y101585*
X302781Y100960*
X302156Y100647*
X299969*
X302353Y90805D02*
X302978Y90492D01*
X303291Y89867*
X302978Y89242*
X302353Y88930*
X300165*
Y92680*
X302353*
X302978Y92367*
X303291Y91742*
X302978Y91117*
X302353Y90805*
X300165*
X304951Y47498D02*
X305576Y47185D01*
X305889Y46560*
X305576Y45935*
X304951Y45622*
X302764*
Y49372*
X304951*
X305576Y49060*
X305889Y48435*
X305576Y47810*
X304951Y47498*
X302764*
X304951Y57340D02*
X305576Y57028D01*
X305889Y56403*
X305576Y55778*
X304951Y55465*
X302764*
Y59215*
X304951*
X305576Y58903*
X305889Y58278*
X305576Y57653*
X304951Y57340*
X302764*
X304951Y67183D02*
X305576Y66870D01*
X305889Y66245*
X305576Y65620*
X304951Y65307*
X302764*
Y69057*
X304951*
X305576Y68745*
X305889Y68120*
X305576Y67495*
X304951Y67183*
X302764*
X305030Y203521D02*
X305655Y203209D01*
X305968Y202584*
X305655Y201959*
X305030Y201646*
X302843*
Y205396*
X305030*
X305655Y205084*
X305968Y204459*
X305655Y203834*
X305030Y203521*
X302843*
X305030Y213364D02*
X305655Y213051D01*
X305968Y212426*
X305655Y211801*
X305030Y211489*
X302843*
Y215239*
X305030*
X305655Y214926*
X305968Y214301*
X305655Y213676*
X305030Y213364*
X302843*
X305030Y223206D02*
X305655Y222894D01*
X305968Y222269*
X305655Y221644*
X305030Y221331*
X302843*
Y225081*
X305030*
X305655Y224769*
X305968Y224144*
X305655Y223519*
X305030Y223206*
X302843*
X305384Y110490D02*
X306009Y110177D01*
X306322Y109552*
X306009Y108927*
X305384Y108615*
X303197*
Y112365*
X305384*
X306009Y112052*
X306322Y111427*
X306009Y110802*
X305384Y110490*
X303197*
X303630Y281922D02*
X305193Y285672D01*
X306755Y281922*
X304255Y283484D02*
X306130D01*
X304693Y12552D02*
X306256Y16302D01*
X307818Y12552*
X305318Y14114D02*
X307193D01*
X304693Y24363D02*
X306256Y28113D01*
X307818Y24363*
X305318Y25925D02*
X307193D01*
X304693Y36174D02*
X306256Y39924D01*
X307818Y36174*
X305318Y37736D02*
X307193D01*
X304693Y116882D02*
X306256Y120632D01*
X307818Y116882*
X305318Y118445D02*
X307193D01*
X304693Y128693D02*
X306256Y132443D01*
X307818Y128693*
X305318Y130256D02*
X307193D01*
X304693Y140504D02*
X306256Y144254D01*
X307818Y140504*
X305318Y142067D02*
X307193D01*
X304811Y291410D02*
X306374Y295160D01*
X307936Y291410*
X305436Y292972D02*
X307311D01*
X305598Y313418D02*
X307161Y317168D01*
X308724Y313418*
X306224Y314980D02*
X308098D01*
X305598Y333103D02*
X307161Y336853D01*
X308724Y333103*
X306224Y334665D02*
X308098D01*
X305598Y344914D02*
X307161Y348664D01*
X308724Y344914*
X306224Y346476D02*
X308098D01*
X305598Y392158D02*
X307161Y395908D01*
X308724Y392158*
X306224Y393720D02*
X308098D01*
X305598Y403969D02*
X307161Y407719D01*
X308724Y403969*
X306224Y405531D02*
X308098D01*
X305598Y423654D02*
X307161Y427404D01*
X308724Y423654*
X306224Y425217D02*
X308098D01*
X305598Y443536D02*
X307161Y447286D01*
X308724Y443536*
X306224Y445098D02*
X308098D01*
X305598Y463221D02*
X307161Y466971D01*
X308724Y463221*
X306224Y464783D02*
X308098D01*
X305598Y475032D02*
X307161Y478782D01*
X308724Y475032*
X306224Y476594D02*
X308098D01*
X305598Y522276D02*
X307161Y526026D01*
X308724Y522276*
X306224Y523839D02*
X308098D01*
X305598Y534087D02*
X307161Y537837D01*
X308724Y534087*
X306224Y535650D02*
X308098D01*
X305598Y553772D02*
X307161Y557522D01*
X308724Y553772*
X306224Y555335D02*
X308098D01*
X308101Y100490D02*
X308726Y100177D01*
X309039Y99552*
X308726Y98927*
X308101Y98615*
X305913*
Y102365*
X308101*
X308726Y102052*
X309039Y101427*
X308726Y100802*
X308101Y100490*
X305913*
X308101Y105332D02*
X308726Y105020D01*
X309039Y104395*
X308726Y103770*
X308101Y103457*
X305913*
Y107207*
X308101*
X308726Y106895*
X309039Y106270*
X308726Y105645*
X308101Y105332*
X305913*
X306780Y163457D02*
X308342Y167207D01*
X309905Y163457*
X307405Y165020D02*
X309280D01*
X307567Y356725D02*
Y360475D01*
X310692*
X310067Y358600D02*
X307567D01*
Y356725D02*
X310692D01*
X307567Y380347D02*
Y384097D01*
X310692*
X310067Y382222D02*
X307567D01*
Y380347D02*
X310692D01*
X307764Y486843D02*
Y490593D01*
X310889*
X310264Y488718D02*
X307764D01*
Y486843D02*
X310889D01*
X307764Y510465D02*
Y514215D01*
X310889*
X310264Y512340D02*
X307764D01*
Y510465D02*
X310889D01*
X310717Y281567D02*
X312279Y285317D01*
X313842Y281567*
X311342Y283130D02*
X313217D01*
X314794Y47498D02*
X315419Y47185D01*
X315731Y46560*
X315419Y45935*
X314794Y45622*
X312606*
Y49372*
X314794*
X315419Y49060*
X315731Y48435*
X315419Y47810*
X314794Y47498*
X312606*
X314794Y57340D02*
X315419Y57028D01*
X315731Y56403*
X315419Y55778*
X314794Y55465*
X312606*
Y59215*
X314794*
X315419Y58903*
X315731Y58278*
X315419Y57653*
X314794Y57340*
X312606*
X314794Y67183D02*
X315419Y66870D01*
X315731Y66245*
X315419Y65620*
X314794Y65307*
X312606*
Y69057*
X314794*
X315419Y68745*
X315731Y68120*
X315419Y67495*
X314794Y67183*
X312606*
X314872Y203521D02*
X315498Y203209D01*
X315810Y202584*
X315498Y201959*
X314872Y201646*
X312685*
Y205396*
X314872*
X315498Y205084*
X315810Y204459*
X315498Y203834*
X314872Y203521*
X312685*
X314872Y213364D02*
X315498Y213051D01*
X315810Y212426*
X315498Y211801*
X314872Y211489*
X312685*
Y215239*
X314872*
X315498Y214926*
X315810Y214301*
X315498Y213676*
X314872Y213364*
X312685*
X314872Y223206D02*
X315498Y222894D01*
X315810Y222269*
X315498Y221644*
X314872Y221331*
X312685*
Y225081*
X314872*
X315498Y224769*
X315810Y224144*
X315498Y223519*
X314872Y223206*
X312685*
X314951Y246828D02*
X315576Y246516D01*
X315889Y245891*
X315576Y245266*
X314951Y244953*
X312764*
Y248703*
X314951*
X315576Y248391*
X315889Y247766*
X315576Y247141*
X314951Y246828*
X312764*
X314951Y255883D02*
X315576Y255571D01*
X315889Y254946*
X315576Y254321*
X314951Y254008*
X312764*
Y257758*
X314951*
X315576Y257446*
X315889Y256821*
X315576Y256196*
X314951Y255883*
X312764*
X315030Y90608D02*
X315655Y90295D01*
X315968Y89670*
X315655Y89045*
X315030Y88733*
X312843*
Y92483*
X315030*
X315655Y92170*
X315968Y91545*
X315655Y90920*
X315030Y90608*
X312843*
X315030Y100450D02*
X315655Y100138D01*
X315968Y99513*
X315655Y98888*
X315030Y98575*
X312843*
Y102325*
X315030*
X315655Y102013*
X315968Y101388*
X315655Y100763*
X315030Y100450*
X312843*
X315030Y110293D02*
X315655Y109980D01*
X315968Y109356*
X315655Y108730*
X315030Y108418*
X312843*
Y112168*
X315030*
X315655Y111856*
X315968Y111230*
X315655Y110606*
X315030Y110293*
X312843*
X315441Y313418D02*
X317004Y317168D01*
X318566Y313418*
X316066Y314980D02*
X317941D01*
X315441Y321292D02*
X317004Y325042D01*
X318566Y321292*
X316066Y322854D02*
X317941D01*
X315441Y333103D02*
X317004Y336853D01*
X318566Y333103*
X316066Y334665D02*
X317941D01*
X315441Y344914D02*
X317004Y348664D01*
X318566Y344914*
X316066Y346476D02*
X317941D01*
X315441Y356725D02*
X317004Y360475D01*
X318566Y356725*
X316066Y358287D02*
X317941D01*
X315441Y368536D02*
X317004Y372286D01*
X318566Y368536*
X316066Y370098D02*
X317941D01*
X315441Y380347D02*
X317004Y384097D01*
X318566Y380347*
X316066Y381909D02*
X317941D01*
X315441Y392158D02*
X317004Y395908D01*
X318566Y392158*
X316066Y393720D02*
X317941D01*
X315441Y403969D02*
X317004Y407719D01*
X318566Y403969*
X316066Y405531D02*
X317941D01*
X315441Y415780D02*
X317004Y419530D01*
X318566Y415780*
X316066Y417343D02*
X317941D01*
X315441Y423654D02*
X317004Y427404D01*
X318566Y423654*
X316066Y425217D02*
X317941D01*
X315441Y443536D02*
X317004Y447286D01*
X318566Y443536*
X316066Y445098D02*
X317941D01*
X315441Y451410D02*
X317004Y455160D01*
X318566Y451410*
X316066Y452972D02*
X317941D01*
X315441Y463221D02*
X317004Y466971D01*
X318566Y463221*
X316066Y464783D02*
X317941D01*
X315441Y475032D02*
X317004Y478782D01*
X318566Y475032*
X316066Y476594D02*
X317941D01*
X315441Y486843D02*
X317004Y490593D01*
X318566Y486843*
X316066Y488406D02*
X317941D01*
X315441Y498654D02*
X317004Y502404D01*
X318566Y498654*
X316066Y500217D02*
X317941D01*
X315441Y510465D02*
X317004Y514215D01*
X318566Y510465*
X316066Y512028D02*
X317941D01*
X315441Y522276D02*
X317004Y526026D01*
X318566Y522276*
X316066Y523839D02*
X317941D01*
X315441Y534087D02*
X317004Y537837D01*
X318566Y534087*
X316066Y535650D02*
X317941D01*
X315441Y545898D02*
X317004Y549648D01*
X318566Y545898*
X316066Y547461D02*
X317941D01*
X315441Y553772D02*
X317004Y557522D01*
X318566Y553772*
X316066Y555335D02*
X317941D01*
X320441Y12552D02*
X322004Y16302D01*
X323566Y12552*
X321066Y14114D02*
X322941D01*
X320441Y24363D02*
X322004Y28113D01*
X323566Y24363*
X321066Y25925D02*
X322941D01*
X320441Y36174D02*
X322004Y39924D01*
X323566Y36174*
X321066Y37736D02*
X322941D01*
X320441Y116882D02*
X322004Y120632D01*
X323566Y116882*
X321066Y118445D02*
X322941D01*
X320441Y128693D02*
X322004Y132443D01*
X323566Y128693*
X321066Y130256D02*
X322941D01*
X320441Y140504D02*
X322004Y144254D01*
X323566Y140504*
X321066Y142067D02*
X322941D01*
X320559Y267788D02*
X322122Y271538D01*
X323684Y267788*
X321184Y269350D02*
X323059D01*
X320559Y279599D02*
X322122Y283349D01*
X323684Y279599*
X321184Y281161D02*
X323059D01*
X320559Y291410D02*
X322122Y295160D01*
X323684Y291410*
X321184Y292972D02*
X323059D01*
X324282Y222655D02*
X324907Y222343D01*
X325220Y221718*
X324907Y221093*
X324282Y220780*
X322094*
Y224530*
X324282*
X324907Y224218*
X325220Y223593*
X324907Y222968*
X324282Y222655*
X322094*
X324400Y47498D02*
X325025Y47185D01*
X325338Y46560*
X325025Y45935*
X324400Y45622*
X322213*
Y49372*
X324400*
X325025Y49060*
X325338Y48435*
X325025Y47810*
X324400Y47498*
X322213*
X324400Y57340D02*
X325025Y57028D01*
X325338Y56403*
X325025Y55778*
X324400Y55465*
X322213*
Y59215*
X324400*
X325025Y58903*
X325338Y58278*
X325025Y57653*
X324400Y57340*
X322213*
X324400Y67183D02*
X325025Y66870D01*
X325338Y66245*
X325025Y65620*
X324400Y65307*
X322213*
Y69057*
X324400*
X325025Y68745*
X325338Y68120*
X325025Y67495*
X324400Y67183*
X322213*
X324636Y90608D02*
X325261Y90295D01*
X325574Y89670*
X325261Y89045*
X324636Y88733*
X322449*
Y92483*
X324636*
X325261Y92170*
X325574Y91545*
X325261Y90920*
X324636Y90608*
X322449*
X324636Y100450D02*
X325261Y100138D01*
X325574Y99513*
X325261Y98888*
X324636Y98575*
X322449*
Y102325*
X324636*
X325261Y102013*
X325574Y101388*
X325261Y100763*
X324636Y100450*
X322449*
X324636Y110293D02*
X325261Y109980D01*
X325574Y109356*
X325261Y108730*
X324636Y108418*
X322449*
Y112168*
X324636*
X325261Y111856*
X325574Y111230*
X325261Y110606*
X324636Y110293*
X322449*
X322528Y163457D02*
X324090Y167207D01*
X325653Y163457*
X323153Y165020D02*
X325028D01*
X324715Y203521D02*
X325340Y203209D01*
X325653Y202584*
X325340Y201959*
X324715Y201646*
X322528*
Y205396*
X324715*
X325340Y205084*
X325653Y204459*
X325340Y203834*
X324715Y203521*
X322528*
X324715Y213364D02*
X325340Y213051D01*
X325653Y212426*
X325340Y211801*
X324715Y211489*
X322528*
Y215239*
X324715*
X325340Y214926*
X325653Y214301*
X325340Y213676*
X324715Y213364*
X322528*
X324794Y246828D02*
X325419Y246516D01*
X325731Y245891*
X325419Y245266*
X324794Y244953*
X322606*
Y248703*
X324794*
X325419Y248391*
X325731Y247766*
X325419Y247141*
X324794Y246828*
X322606*
X324794Y255883D02*
X325419Y255571D01*
X325731Y254946*
X325419Y254321*
X324794Y254008*
X322606*
Y257758*
X324794*
X325419Y257446*
X325731Y256821*
X325419Y256196*
X324794Y255883*
X322606*
X330008Y219323D02*
X331570Y223073D01*
X333133Y219323*
X330633Y220886D02*
X332508D01*
X333376Y201946D02*
X334002Y201634D01*
X334314Y201009*
X334002Y200384*
X333376Y200071*
X331189*
Y203821*
X333376*
X334002Y203509*
X334314Y202884*
X334002Y202259*
X333376Y201946*
X331189*
X333376Y211789D02*
X334002Y211476D01*
X334314Y210852*
X334002Y210226*
X333376Y209914*
X331189*
Y213664*
X333376*
X334002Y213352*
X334314Y212726*
X334002Y212102*
X333376Y211789*
X331189*
X334243Y47498D02*
X334868Y47185D01*
X335180Y46560*
X334868Y45935*
X334243Y45622*
X332055*
Y49372*
X334243*
X334868Y49060*
X335180Y48435*
X334868Y47810*
X334243Y47498*
X332055*
X334243Y57340D02*
X334868Y57028D01*
X335180Y56403*
X334868Y55778*
X334243Y55465*
X332055*
Y59215*
X334243*
X334868Y58903*
X335180Y58278*
X334868Y57653*
X334243Y57340*
X332055*
X334243Y67183D02*
X334868Y66870D01*
X335180Y66245*
X334868Y65620*
X334243Y65307*
X332055*
Y69057*
X334243*
X334868Y68745*
X335180Y68120*
X334868Y67495*
X334243Y67183*
X332055*
X334479Y90608D02*
X335104Y90295D01*
X335417Y89670*
X335104Y89045*
X334479Y88733*
X332291*
Y92483*
X334479*
X335104Y92170*
X335417Y91545*
X335104Y90920*
X334479Y90608*
X332291*
X334479Y100450D02*
X335104Y100138D01*
X335417Y99513*
X335104Y98888*
X334479Y98575*
X332291*
Y102325*
X334479*
X335104Y102013*
X335417Y101388*
X335104Y100763*
X334479Y100450*
X332291*
X334479Y110293D02*
X335104Y109980D01*
X335417Y109356*
X335104Y108730*
X334479Y108418*
X332291*
Y112168*
X334479*
X335104Y111856*
X335417Y111230*
X335104Y110606*
X334479Y110293*
X332291*
X336526Y242301D02*
X337151Y241988D01*
X337464Y241363*
X337151Y240738*
X336526Y240426*
X334339*
Y244176*
X336526*
X337151Y243863*
X337464Y243238*
X337151Y242613*
X336526Y242301*
X334339*
X336526Y251750D02*
X337151Y251437D01*
X337464Y250812*
X337151Y250187*
X336526Y249874*
X334339*
Y253624*
X336526*
X337151Y253312*
X337464Y252687*
X337151Y252062*
X336526Y251750*
X334339*
X335126Y313418D02*
X336689Y317168D01*
X338251Y313418*
X335751Y314980D02*
X337626D01*
X335126Y321292D02*
X336689Y325042D01*
X338251Y321292*
X335751Y322854D02*
X337626D01*
X335126Y333103D02*
X336689Y336853D01*
X338251Y333103*
X335751Y334665D02*
X337626D01*
X335126Y344914D02*
X336689Y348664D01*
X338251Y344914*
X335751Y346476D02*
X337626D01*
X335126Y356725D02*
X336689Y360475D01*
X338251Y356725*
X335751Y358287D02*
X337626D01*
X335126Y368536D02*
X336689Y372286D01*
X338251Y368536*
X335751Y370098D02*
X337626D01*
X335126Y380347D02*
X336689Y384097D01*
X338251Y380347*
X335751Y381909D02*
X337626D01*
X335126Y392158D02*
X336689Y395908D01*
X338251Y392158*
X335751Y393720D02*
X337626D01*
X335126Y403969D02*
X336689Y407719D01*
X338251Y403969*
X335751Y405531D02*
X337626D01*
X335126Y415780D02*
X336689Y419530D01*
X338251Y415780*
X335751Y417343D02*
X337626D01*
X335126Y423654D02*
X336689Y427404D01*
X338251Y423654*
X335751Y425217D02*
X337626D01*
X335126Y443536D02*
X336689Y447286D01*
X338251Y443536*
X335751Y445098D02*
X337626D01*
X335126Y451410D02*
X336689Y455160D01*
X338251Y451410*
X335751Y452972D02*
X337626D01*
X335126Y463221D02*
X336689Y466971D01*
X338251Y463221*
X335751Y464783D02*
X337626D01*
X335126Y475032D02*
X336689Y478782D01*
X338251Y475032*
X335751Y476594D02*
X337626D01*
X335126Y486843D02*
X336689Y490593D01*
X338251Y486843*
X335751Y488406D02*
X337626D01*
X335126Y498654D02*
X336689Y502404D01*
X338251Y498654*
X335751Y500217D02*
X337626D01*
X335126Y510465D02*
X336689Y514215D01*
X338251Y510465*
X335751Y512028D02*
X337626D01*
X335126Y522276D02*
X336689Y526026D01*
X338251Y522276*
X335751Y523839D02*
X337626D01*
X335126Y534087D02*
X336689Y537837D01*
X338251Y534087*
X335751Y535650D02*
X337626D01*
X335126Y545898D02*
X336689Y549648D01*
X338251Y545898*
X335751Y547461D02*
X337626D01*
X335126Y553772D02*
X336689Y557522D01*
X338251Y553772*
X335751Y555335D02*
X337626D01*
X336189Y12552D02*
X337752Y16302D01*
X339314Y12552*
X336814Y14114D02*
X338689D01*
X336189Y24363D02*
X337752Y28113D01*
X339314Y24363*
X336814Y25925D02*
X338689D01*
X336189Y36174D02*
X337752Y39924D01*
X339314Y36174*
X336814Y37736D02*
X338689D01*
X336189Y116882D02*
X337752Y120632D01*
X339314Y116882*
X336814Y118445D02*
X338689D01*
X336189Y128693D02*
X337752Y132443D01*
X339314Y128693*
X336814Y130256D02*
X338689D01*
X336189Y140504D02*
X337752Y144254D01*
X339314Y140504*
X336814Y142067D02*
X338689D01*
X336307Y267788D02*
X337870Y271538D01*
X339432Y267788*
X336932Y269350D02*
X338807D01*
X336307Y279599D02*
X337870Y283349D01*
X339432Y279599*
X336932Y281161D02*
X338807D01*
X336307Y291410D02*
X337870Y295160D01*
X339432Y291410*
X336932Y292972D02*
X338807D01*
X338276Y163457D02*
X339838Y167207D01*
X341401Y163457*
X338901Y165020D02*
X340776D01*
X341526Y90608D02*
X342151Y90295D01*
X342464Y89670*
X342151Y89045*
X341526Y88733*
X339339*
Y92483*
X341526*
X342151Y92170*
X342464Y91545*
X342151Y90920*
X341526Y90608*
X339339*
X341526Y100450D02*
X342151Y100138D01*
X342464Y99513*
X342151Y98888*
X341526Y98575*
X339339*
Y102325*
X341526*
X342151Y102013*
X342464Y101388*
X342151Y100763*
X341526Y100450*
X339339*
X341526Y110293D02*
X342151Y109980D01*
X342464Y109356*
X342151Y108730*
X341526Y108418*
X339339*
Y112168*
X341526*
X342151Y111856*
X342464Y111230*
X342151Y110606*
X341526Y110293*
X339339*
X342117Y47301D02*
X342742Y46988D01*
X343054Y46363*
X342742Y45738*
X342117Y45426*
X339929*
Y49176*
X342117*
X342742Y48863*
X343054Y48238*
X342742Y47613*
X342117Y47301*
X339929*
X342117Y57143D02*
X342742Y56831D01*
X343054Y56206*
X342742Y55581*
X342117Y55268*
X339929*
Y59018*
X342117*
X342742Y58706*
X343054Y58081*
X342742Y57456*
X342117Y57143*
X339929*
X342117Y66986D02*
X342742Y66673D01*
X343054Y66048*
X342742Y65423*
X342117Y65111*
X339929*
Y68861*
X342117*
X342742Y68548*
X343054Y67923*
X342742Y67298*
X342117Y66986*
X339929*
X342156Y198600D02*
X342781Y198287D01*
X343094Y197663*
X342781Y197037*
X342156Y196725*
X339969*
Y200475*
X342156*
X342781Y200163*
X343094Y199537*
X342781Y198913*
X342156Y198600*
X339969*
X342156Y208443D02*
X342781Y208130D01*
X343094Y207505*
X342781Y206880*
X342156Y206567*
X339969*
Y210317*
X342156*
X342781Y210005*
X343094Y209380*
X342781Y208755*
X342156Y208443*
X339969*
X342156Y218285D02*
X342781Y217972D01*
X343094Y217348*
X342781Y216722*
X342156Y216410*
X339969*
Y220160*
X342156*
X342781Y219848*
X343094Y219222*
X342781Y218598*
X342156Y218285*
X339969*
X344400Y241907D02*
X345025Y241594D01*
X345338Y240970*
X345025Y240344*
X344400Y240032*
X342213*
Y243782*
X344400*
X345025Y243470*
X345338Y242844*
X345025Y242220*
X344400Y241907*
X342213*
X344400Y251750D02*
X345025Y251437D01*
X345338Y250812*
X345025Y250187*
X344400Y249874*
X342213*
Y253624*
X344400*
X345025Y253312*
X345338Y252687*
X345025Y252062*
X344400Y251750*
X342213*
X343000Y356725D02*
Y360475D01*
X346125*
X345500Y358600D02*
X343000D01*
Y356725D02*
X346125D01*
X343000Y380347D02*
Y384097D01*
X346125*
X345500Y382222D02*
X343000D01*
Y380347D02*
X346125D01*
X343197Y486843D02*
Y490593D01*
X346322*
X345697Y488718D02*
X343197D01*
Y486843D02*
X346322D01*
X343197Y510465D02*
Y514215D01*
X346322*
X345697Y512340D02*
X343197D01*
Y510465D02*
X346322D01*
X350424Y47301D02*
X351049Y46988D01*
X351361Y46363*
X351049Y45738*
X350424Y45426*
X348236*
Y49176*
X350424*
X351049Y48863*
X351361Y48238*
X351049Y47613*
X350424Y47301*
X348236*
X348906Y333103D02*
X350468Y336853D01*
X352031Y333103*
X349531Y334665D02*
X351406D01*
X348906Y344914D02*
X350468Y348664D01*
X352031Y344914*
X349531Y346476D02*
X351406D01*
X348906Y392158D02*
X350468Y395908D01*
X352031Y392158*
X349531Y393720D02*
X351406D01*
X348906Y403969D02*
X350468Y407719D01*
X352031Y403969*
X349531Y405531D02*
X351406D01*
X348906Y463221D02*
X350468Y466971D01*
X352031Y463221*
X349531Y464783D02*
X351406D01*
X348906Y475032D02*
X350468Y478782D01*
X352031Y475032*
X349531Y476594D02*
X351406D01*
X348906Y522276D02*
X350468Y526026D01*
X352031Y522276*
X349531Y523839D02*
X351406D01*
X348906Y534087D02*
X350468Y537837D01*
X352031Y534087*
X349531Y535650D02*
X351406D01*
X351290Y52694D02*
X351915Y52382D01*
X352228Y51757*
X351915Y51132*
X351290Y50819*
X349102*
Y54569*
X351290*
X351915Y54257*
X352228Y53632*
X351915Y53007*
X351290Y52694*
X349102*
X351290Y56789D02*
X351915Y56476D01*
X352228Y55852*
X351915Y55226*
X351290Y54914*
X349102*
Y58664*
X351290*
X351915Y58352*
X352228Y57726*
X351915Y57102*
X351290Y56789*
X349102*
X351369Y90608D02*
X351994Y90295D01*
X352306Y89670*
X351994Y89045*
X351369Y88733*
X349181*
Y92483*
X351369*
X351994Y92170*
X352306Y91545*
X351994Y90920*
X351369Y90608*
X349181*
X351369Y100450D02*
X351994Y100138D01*
X352306Y99513*
X351994Y98888*
X351369Y98575*
X349181*
Y102325*
X351369*
X351994Y102013*
X352306Y101388*
X351994Y100763*
X351369Y100450*
X349181*
X351369Y110293D02*
X351994Y109980D01*
X352306Y109356*
X351994Y108730*
X351369Y108418*
X349181*
Y112168*
X351369*
X351994Y111856*
X352306Y111230*
X351994Y110606*
X351369Y110293*
X349181*
X351998Y198600D02*
X352624Y198287D01*
X352936Y197663*
X352624Y197037*
X351998Y196725*
X349811*
Y200475*
X351998*
X352624Y200163*
X352936Y199537*
X352624Y198913*
X351998Y198600*
X349811*
X351998Y208443D02*
X352624Y208130D01*
X352936Y207505*
X352624Y206880*
X351998Y206567*
X349811*
Y210317*
X351998*
X352624Y210005*
X352936Y209380*
X352624Y208755*
X351998Y208443*
X349811*
X351998Y218285D02*
X352624Y217972D01*
X352936Y217348*
X352624Y216722*
X351998Y216410*
X349811*
Y220160*
X351998*
X352624Y219848*
X352936Y219222*
X352624Y218598*
X351998Y218285*
X349811*
X352943Y242104D02*
X353569Y241791D01*
X353881Y241167*
X353569Y240541*
X352943Y240229*
X350756*
Y243979*
X352943*
X353569Y243667*
X353881Y243041*
X353569Y242417*
X352943Y242104*
X350756*
X352943Y251750D02*
X353569Y251437D01*
X353881Y250812*
X353569Y250187*
X352943Y249874*
X350756*
Y253624*
X352943*
X353569Y253312*
X353881Y252687*
X353569Y252062*
X352943Y251750*
X350756*
X352943Y261592D02*
X353569Y261280D01*
X353881Y260655*
X353569Y260030*
X352943Y259717*
X350756*
Y263467*
X352943*
X353569Y263155*
X353881Y262530*
X353569Y261905*
X352943Y261592*
X350756*
X351937Y12552D02*
X353500Y16302D01*
X355062Y12552*
X352562Y14114D02*
X354437D01*
X351937Y24363D02*
X353500Y28113D01*
X355062Y24363*
X352562Y25925D02*
X354437D01*
X351937Y36174D02*
X353500Y39924D01*
X355062Y36174*
X352562Y37736D02*
X354437D01*
X351937Y116882D02*
X353500Y120632D01*
X355062Y116882*
X352562Y118445D02*
X354437D01*
X351937Y128693D02*
X353500Y132443D01*
X355062Y128693*
X352562Y130256D02*
X354437D01*
X351937Y140504D02*
X353500Y144254D01*
X355062Y140504*
X352562Y142067D02*
X354437D01*
X352055Y267788D02*
X353618Y271538D01*
X355180Y267788*
X352680Y269350D02*
X354555D01*
X352055Y279599D02*
X353618Y283349D01*
X355180Y279599*
X352680Y281161D02*
X354555D01*
X352055Y291410D02*
X353618Y295160D01*
X355180Y291410*
X352680Y292972D02*
X354555D01*
X354024Y163457D02*
X355586Y167207D01*
X357149Y163457*
X354649Y165020D02*
X356524D01*
X354732Y415859D02*
Y419609D01*
X356607*
X357232Y419296*
X357545Y418984*
X357857Y418359*
Y417109*
X357545Y416484*
X357232Y416171*
X356607Y415859*
X354732*
X354811Y321370D02*
Y325120D01*
X356686*
X357311Y324808*
X357624Y324496*
X357936Y323870*
Y322620*
X357624Y321996*
X357311Y321683*
X356686Y321370*
X354811*
Y368536D02*
Y372286D01*
X357936*
X357311Y370411D02*
X354811D01*
Y368536D02*
X357936D01*
X354929Y545977D02*
Y549727D01*
X356804*
X357429Y549415*
X357742Y549102*
X358054Y548477*
Y547227*
X357742Y546602*
X357429Y546289*
X356804Y545977*
X354929*
X355008Y451489D02*
Y455239D01*
X356883*
X357508Y454926*
X357820Y454614*
X358133Y453989*
Y452739*
X357820Y452114*
X357508Y451801*
X356883Y451489*
X355008*
Y498654D02*
Y502404D01*
X358133*
X357508Y500529D02*
X355008D01*
Y498654D02*
X358133D01*
X359243Y47301D02*
X359868Y46988D01*
X360180Y46363*
X359868Y45738*
X359243Y45426*
X357055*
Y49176*
X359243*
X359868Y48863*
X360180Y48238*
X359868Y47613*
X359243Y47301*
X357055*
X359243Y57143D02*
X359868Y56831D01*
X360180Y56206*
X359868Y55581*
X359243Y55268*
X357055*
Y59018*
X359243*
X359868Y58706*
X360180Y58081*
X359868Y57456*
X359243Y57143*
X357055*
X357961Y218930D02*
X359523Y222680D01*
X361086Y218930*
X358586Y220492D02*
X360461D01*
X360817Y198600D02*
X361443Y198287D01*
X361755Y197663*
X361443Y197037*
X360817Y196725*
X358630*
Y200475*
X360817*
X361443Y200163*
X361755Y199537*
X361443Y198913*
X360817Y198600*
X358630*
X360817Y208443D02*
X361443Y208130D01*
X361755Y207505*
X361443Y206880*
X360817Y206567*
X358630*
Y210317*
X360817*
X361443Y210005*
X361755Y209380*
X361443Y208755*
X360817Y208443*
X358630*
X361211Y90608D02*
X361836Y90295D01*
X362149Y89670*
X361836Y89045*
X361211Y88733*
X359024*
Y92483*
X361211*
X361836Y92170*
X362149Y91545*
X361836Y90920*
X361211Y90608*
X359024*
X361211Y100450D02*
X361836Y100138D01*
X362149Y99513*
X361836Y98888*
X361211Y98575*
X359024*
Y102325*
X361211*
X361836Y102013*
X362149Y101388*
X361836Y100763*
X361211Y100450*
X359024*
X361211Y110293D02*
X361836Y109980D01*
X362149Y109356*
X361836Y108730*
X361211Y108418*
X359024*
Y112168*
X361211*
X361836Y111856*
X362149Y111230*
X361836Y110606*
X361211Y110293*
X359024*
X362786Y241907D02*
X363411Y241594D01*
X363724Y240970*
X363411Y240344*
X362786Y240032*
X360598*
Y243782*
X362786*
X363411Y243470*
X363724Y242844*
X363411Y242220*
X362786Y241907*
X360598*
X362786Y251750D02*
X363411Y251437D01*
X363724Y250812*
X363411Y250187*
X362786Y249874*
X360598*
Y253624*
X362786*
X363411Y253312*
X363724Y252687*
X363411Y252062*
X362786Y251750*
X360598*
X362786Y261592D02*
X363411Y261280D01*
X363724Y260655*
X363411Y260030*
X362786Y259717*
X360598*
Y263467*
X362786*
X363411Y263155*
X363724Y262530*
X363411Y261905*
X362786Y261592*
X360598*
X360717Y333103D02*
X362279Y336853D01*
X363842Y333103*
X361342Y334665D02*
X363217D01*
X360717Y344914D02*
X362279Y348664D01*
X363842Y344914*
X361342Y346476D02*
X363217D01*
X360717Y392158D02*
X362279Y395908D01*
X363842Y392158*
X361342Y393720D02*
X363217D01*
X360717Y403969D02*
X362279Y407719D01*
X363842Y403969*
X361342Y405531D02*
X363217D01*
X360717Y463221D02*
X362279Y466971D01*
X363842Y463221*
X361342Y464783D02*
X363217D01*
X360717Y475032D02*
X362279Y478782D01*
X363842Y475032*
X361342Y476594D02*
X363217D01*
X360717Y522276D02*
X362279Y526026D01*
X363842Y522276*
X361342Y523839D02*
X363217D01*
X360717Y534087D02*
X362279Y537837D01*
X363842Y534087*
X361342Y535650D02*
X363217D01*
X364912Y62537D02*
X365537Y62224D01*
X365850Y61600*
X365537Y60974*
X364912Y60662*
X362724*
Y64412*
X364912*
X365537Y64100*
X365850Y63474*
X365537Y62850*
X364912Y62537*
X362724*
X366487Y213836D02*
X367112Y213524D01*
X367424Y212899*
X367112Y212274*
X366487Y211961*
X364299*
Y215711*
X366487*
X367112Y215399*
X367424Y214774*
X367112Y214149*
X366487Y213836*
X364299*
X366622Y356725D02*
Y360475D01*
X369747*
X369122Y358600D02*
X366622D01*
Y356725D02*
X369747D01*
X366622Y380347D02*
Y384097D01*
X369747*
X369122Y382222D02*
X366622D01*
Y380347D02*
X369747D01*
X366819Y486843D02*
Y490593D01*
X369944*
X369319Y488718D02*
X366819D01*
Y486843D02*
X369944D01*
X366819Y510465D02*
Y514215D01*
X369944*
X369319Y512340D02*
X366819D01*
Y510465D02*
X369944D01*
X369085Y47301D02*
X369710Y46988D01*
X370023Y46363*
X369710Y45738*
X369085Y45426*
X366898*
Y49176*
X369085*
X369710Y48863*
X370023Y48238*
X369710Y47613*
X369085Y47301*
X366898*
X369085Y57143D02*
X369710Y56831D01*
X370023Y56206*
X369710Y55581*
X369085Y55268*
X366898*
Y59018*
X369085*
X369710Y58706*
X370023Y58081*
X369710Y57456*
X369085Y57143*
X366898*
X367685Y116882D02*
X369248Y120632D01*
X370810Y116882*
X368310Y118445D02*
X370185D01*
X367685Y128693D02*
X369248Y132443D01*
X370810Y128693*
X368310Y130256D02*
X370185D01*
X367685Y140504D02*
X369248Y144254D01*
X370810Y140504*
X368310Y142067D02*
X370185D01*
X367803Y267788D02*
X369366Y271538D01*
X370928Y267788*
X368428Y269350D02*
X370303D01*
X367803Y279599D02*
X369366Y283349D01*
X370928Y279599*
X368428Y281161D02*
X370303D01*
X367803Y291410D02*
X369366Y295160D01*
X370928Y291410*
X368428Y292972D02*
X370303D01*
X370660Y198600D02*
X371285Y198287D01*
X371598Y197663*
X371285Y197037*
X370660Y196725*
X368472*
Y200475*
X370660*
X371285Y200163*
X371598Y199537*
X371285Y198913*
X370660Y198600*
X368472*
X370660Y208443D02*
X371285Y208130D01*
X371598Y207505*
X371285Y206880*
X370660Y206567*
X368472*
Y210317*
X370660*
X371285Y210005*
X371598Y209380*
X371285Y208755*
X370660Y208443*
X368472*
X371054Y100450D02*
X371679Y100138D01*
X371991Y99513*
X371679Y98888*
X371054Y98575*
X368866*
Y102325*
X371054*
X371679Y102013*
X371991Y101388*
X371679Y100763*
X371054Y100450*
X368866*
X371054Y110293D02*
X371679Y109980D01*
X371991Y109356*
X371679Y108730*
X371054Y108418*
X368866*
Y112168*
X371054*
X371679Y111856*
X371991Y111230*
X371679Y110606*
X371054Y110293*
X368866*
X369654Y12552D02*
X371216Y16302D01*
X372779Y12552*
X370279Y14114D02*
X372154D01*
X369811Y24363D02*
X371374Y28113D01*
X372936Y24363*
X370436Y25925D02*
X372311D01*
X369811Y36174D02*
X371374Y39924D01*
X372936Y36174*
X370436Y37736D02*
X372311D01*
X372628Y251750D02*
X373254Y251437D01*
X373566Y250812*
X373254Y250187*
X372628Y249874*
X370441*
Y253624*
X372628*
X373254Y253312*
X373566Y252687*
X373254Y252062*
X372628Y251750*
X370441*
X372628Y261592D02*
X373254Y261280D01*
X373566Y260655*
X373254Y260030*
X372628Y259717*
X370441*
Y263467*
X372628*
X373254Y263155*
X373566Y262530*
X373254Y261905*
X372628Y261592*
X370441*
X371740Y163457D02*
X373303Y167207D01*
X374865Y163457*
X372365Y165020D02*
X374240D01*
X374046Y52537D02*
X374671Y52224D01*
X374983Y51600*
X374671Y50974*
X374046Y50662*
X371858*
Y54412*
X374046*
X374671Y54100*
X374983Y53474*
X374671Y52850*
X374046Y52537*
X371858*
X371898Y175268D02*
X373460Y179018D01*
X375023Y175268*
X372523Y176831D02*
X374398D01*
X371898Y187079D02*
X373460Y190829D01*
X375023Y187079*
X372523Y188642D02*
X374398D01*
X375620Y203836D02*
X376246Y203524D01*
X376558Y202899*
X376246Y202274*
X375620Y201961*
X373433*
Y205711*
X375620*
X376246Y205399*
X376558Y204774*
X376246Y204149*
X375620Y203836*
X373433*
X373709Y240189D02*
X375271Y243939D01*
X376834Y240189*
X374334Y241752D02*
X376209D01*
X376093Y105214D02*
X376718Y104902D01*
X377031Y104277*
X376718Y103652*
X376093Y103339*
X373906*
Y107089*
X376093*
X376718Y106777*
X377031Y106152*
X376718Y105527*
X376093Y105214*
X373906*
X373945Y64363D02*
X375507Y68113D01*
X377070Y64363*
X374570Y65925D02*
X376445D01*
X373945Y88772D02*
X375507Y92522D01*
X377070Y88772*
X374570Y90335D02*
X376445D01*
X374102Y216567D02*
X375665Y220317D01*
X377228Y216567*
X374728Y218130D02*
X376602D01*
X374496Y313418D02*
X376059Y317168D01*
X377621Y313418*
X375121Y314980D02*
X376996D01*
X374496Y321292D02*
X376059Y325042D01*
X377621Y321292*
X375121Y322854D02*
X376996D01*
X374496Y333103D02*
X376059Y336853D01*
X377621Y333103*
X375121Y334665D02*
X376996D01*
X374496Y344914D02*
X376059Y348664D01*
X377621Y344914*
X375121Y346476D02*
X376996D01*
X374496Y356725D02*
X376059Y360475D01*
X377621Y356725*
X375121Y358287D02*
X376996D01*
X374496Y380347D02*
X376059Y384097D01*
X377621Y380347*
X375121Y381909D02*
X376996D01*
X374496Y392158D02*
X376059Y395908D01*
X377621Y392158*
X375121Y393720D02*
X376996D01*
X374496Y403969D02*
X376059Y407719D01*
X377621Y403969*
X375121Y405531D02*
X376996D01*
X374496Y415780D02*
X376059Y419530D01*
X377621Y415780*
X375121Y417343D02*
X376996D01*
X374496Y423654D02*
X376059Y427404D01*
X377621Y423654*
X375121Y425217D02*
X376996D01*
X374496Y443536D02*
X376059Y447286D01*
X377621Y443536*
X375121Y445098D02*
X376996D01*
X374496Y451410D02*
X376059Y455160D01*
X377621Y451410*
X375121Y452972D02*
X376996D01*
X374496Y463221D02*
X376059Y466971D01*
X377621Y463221*
X375121Y464783D02*
X376996D01*
X374496Y475032D02*
X376059Y478782D01*
X377621Y475032*
X375121Y476594D02*
X376996D01*
X374496Y486843D02*
X376059Y490593D01*
X377621Y486843*
X375121Y488406D02*
X376996D01*
X374496Y510465D02*
X376059Y514215D01*
X377621Y510465*
X375121Y512028D02*
X376996D01*
X374496Y522276D02*
X376059Y526026D01*
X377621Y522276*
X375121Y523839D02*
X376996D01*
X374496Y534087D02*
X376059Y537837D01*
X377621Y534087*
X375121Y535650D02*
X376996D01*
X374496Y545898D02*
X376059Y549648D01*
X377621Y545898*
X375121Y547461D02*
X376996D01*
X374496Y553772D02*
X376059Y557522D01*
X377621Y553772*
X375121Y555335D02*
X376996D01*
X377668Y256513D02*
X378293Y256201D01*
X378606Y255576*
X378293Y254951*
X377668Y254638*
X375480*
Y258388*
X377668*
X378293Y258076*
X378606Y257451*
X378293Y256826*
X377668Y256513*
X375480*
X378928Y47301D02*
X379553Y46988D01*
X379865Y46363*
X379553Y45738*
X378928Y45426*
X376740*
Y49176*
X378928*
X379553Y48863*
X379865Y48238*
X379553Y47613*
X378928Y47301*
X376740*
X378928Y57143D02*
X379553Y56831D01*
X379865Y56206*
X379553Y55581*
X378928Y55268*
X376740*
Y59018*
X378928*
X379553Y58706*
X379865Y58081*
X379553Y57456*
X378928Y57143*
X376740*
X380502Y198600D02*
X381128Y198287D01*
X381440Y197663*
X381128Y197037*
X380502Y196725*
X378315*
Y200475*
X380502*
X381128Y200163*
X381440Y199537*
X381128Y198913*
X380502Y198600*
X378315*
X380502Y208443D02*
X381128Y208130D01*
X381440Y207505*
X381128Y206880*
X380502Y206567*
X378315*
Y210317*
X380502*
X381128Y210005*
X381440Y209380*
X381128Y208755*
X380502Y208443*
X378315*
X380896Y100450D02*
X381521Y100138D01*
X381834Y99513*
X381521Y98888*
X380896Y98575*
X378709*
Y102325*
X380896*
X381521Y102013*
X381834Y101388*
X381521Y100763*
X380896Y100450*
X378709*
X380896Y110293D02*
X381521Y109980D01*
X381834Y109356*
X381521Y108730*
X380896Y108418*
X378709*
Y112168*
X380896*
X381521Y111856*
X381834Y111230*
X381521Y110606*
X380896Y110293*
X378709*
X379496Y12552D02*
X381059Y16302D01*
X382621Y12552*
X380121Y14114D02*
X381996D01*
X382471Y251750D02*
X383096Y251437D01*
X383409Y250812*
X383096Y250187*
X382471Y249874*
X380283*
Y253624*
X382471*
X383096Y253312*
X383409Y252687*
X383096Y252062*
X382471Y251750*
X380283*
X382471Y261592D02*
X383096Y261280D01*
X383409Y260655*
X383096Y260030*
X382471Y259717*
X380283*
Y263467*
X382471*
X383096Y263155*
X383409Y262530*
X383096Y261905*
X382471Y261592*
X380283*
X381583Y163457D02*
X383145Y167207D01*
X384708Y163457*
X382208Y165020D02*
X384083D01*
X384203Y52537D02*
X384828Y52224D01*
X385141Y51600*
X384828Y50974*
X384203Y50662*
X382016*
Y54412*
X384203*
X384828Y54100*
X385141Y53474*
X384828Y52850*
X384203Y52537*
X382016*
X382370Y344914D02*
X383933Y348664D01*
X385495Y344914*
X382995Y346476D02*
X384870D01*
X382370Y390189D02*
X383933Y393939D01*
X385495Y390189*
X382995Y391752D02*
X384870D01*
X383433Y140504D02*
X384996Y144254D01*
X386558Y140504*
X384058Y142067D02*
X385933D01*
X383551Y291410D02*
X385114Y295160D01*
X386676Y291410*
X384176Y292972D02*
X386051D01*
X385778Y203836D02*
X386403Y203524D01*
X386716Y202899*
X386403Y202274*
X385778Y201961*
X383591*
Y205711*
X385778*
X386403Y205399*
X386716Y204774*
X386403Y204149*
X385778Y203836*
X383591*
X386250Y105214D02*
X386876Y104902D01*
X387188Y104277*
X386876Y103652*
X386250Y103339*
X384063*
Y107089*
X386250*
X386876Y106777*
X387188Y106152*
X386876Y105527*
X386250Y105214*
X384063*
X384339Y475032D02*
X385901Y478782D01*
X387464Y475032*
X384964Y476594D02*
X386839D01*
X384339Y486843D02*
X385901Y490593D01*
X387464Y486843*
X384964Y488406D02*
X386839D01*
X385520Y123890D02*
Y127640D01*
X387395*
X388020Y127328*
X388332Y127015*
X388645Y126390*
Y125140*
X388332Y124515*
X388020Y124203*
X387395Y123890*
X385520*
X385598Y29402D02*
Y33152D01*
X387474*
X388098Y32840*
X388411Y32527*
X388724Y31902*
Y30652*
X388411Y30027*
X388098Y29715*
X387474Y29402*
X385598*
Y275426D02*
Y279176D01*
X387474*
X388098Y278863*
X388411Y278551*
X388724Y277926*
Y276676*
X388411Y276051*
X388098Y275738*
X387474Y275426*
X385598*
X387825Y256513D02*
X388450Y256201D01*
X388763Y255576*
X388450Y254951*
X387825Y254638*
X385638*
Y258388*
X387825*
X388450Y258076*
X388763Y257451*
X388450Y256826*
X387825Y256513*
X385638*
X385677Y180937D02*
Y184687D01*
X387552*
X388177Y184375*
X388490Y184063*
X388802Y183437*
Y182187*
X388490Y181563*
X388177Y181250*
X387552Y180937*
X385677*
X386307Y510465D02*
X387870Y514215D01*
X389432Y510465*
X386932Y512028D02*
X388807D01*
X386307Y522276D02*
X387870Y526026D01*
X389432Y522276*
X386932Y523839D02*
X388807D01*
X388770Y47301D02*
X389395Y46988D01*
X389708Y46363*
X389395Y45738*
X388770Y45426*
X386583*
Y49176*
X388770*
X389395Y48863*
X389708Y48238*
X389395Y47613*
X388770Y47301*
X386583*
X388770Y57143D02*
X389395Y56831D01*
X389708Y56206*
X389395Y55581*
X388770Y55268*
X386583*
Y59018*
X388770*
X389395Y58706*
X389708Y58081*
X389395Y57456*
X388770Y57143*
X386583*
X390345Y198600D02*
X390970Y198287D01*
X391283Y197663*
X390970Y197037*
X390345Y196725*
X388157*
Y200475*
X390345*
X390970Y200163*
X391283Y199537*
X390970Y198913*
X390345Y198600*
X388157*
X390345Y208443D02*
X390970Y208130D01*
X391283Y207505*
X390970Y206880*
X390345Y206567*
X388157*
Y210317*
X390345*
X390970Y210005*
X391283Y209380*
X390970Y208755*
X390345Y208443*
X388157*
X388276Y356725D02*
X389838Y360475D01*
X391401Y356725*
X388901Y358287D02*
X390776D01*
X388276Y380347D02*
X389838Y384097D01*
X391401Y380347*
X388901Y381909D02*
X390776D01*
X390739Y100450D02*
X391364Y100138D01*
X391676Y99513*
X391364Y98888*
X390739Y98575*
X388551*
Y102325*
X390739*
X391364Y102013*
X391676Y101388*
X391364Y100763*
X390739Y100450*
X388551*
X390739Y110293D02*
X391364Y109980D01*
X391676Y109356*
X391364Y108730*
X390739Y108418*
X388551*
Y112168*
X390739*
X391364Y111856*
X391676Y111230*
X391364Y110606*
X390739Y110293*
X388551*
X392313Y251750D02*
X392939Y251437D01*
X393251Y250812*
X392939Y250187*
X392313Y249874*
X390126*
Y253624*
X392313*
X392939Y253312*
X393251Y252687*
X392939Y252062*
X392313Y251750*
X390126*
X392313Y261592D02*
X392939Y261280D01*
X393251Y260655*
X392939Y260030*
X392313Y259717*
X390126*
Y263467*
X392313*
X392939Y263155*
X393251Y262530*
X392939Y261905*
X392313Y261592*
X390126*
X391307Y12552D02*
X392870Y16302D01*
X394432Y12552*
X391932Y14114D02*
X393807D01*
X393691Y52537D02*
X394317Y52224D01*
X394629Y51600*
X394317Y50974*
X393691Y50662*
X391504*
Y54412*
X393691*
X394317Y54100*
X394629Y53474*
X394317Y52850*
X393691Y52537*
X391504*
X395266Y203836D02*
X395891Y203524D01*
X396204Y202899*
X395891Y202274*
X395266Y201961*
X393079*
Y205711*
X395266*
X395891Y205399*
X396204Y204774*
X395891Y204149*
X395266Y203836*
X393079*
X393394Y163457D02*
X394956Y167207D01*
X396519Y163457*
X394019Y165020D02*
X395894D01*
X395739Y105214D02*
X396364Y104902D01*
X396676Y104277*
X396364Y103652*
X395739Y103339*
X393551*
Y107089*
X395739*
X396364Y106777*
X396676Y106152*
X396364Y105527*
X395739Y105214*
X393551*
X394181Y344914D02*
X395744Y348664D01*
X397306Y344914*
X394806Y346476D02*
X396681D01*
X394181Y390189D02*
X395744Y393939D01*
X397306Y390189*
X394806Y391752D02*
X396681D01*
X397313Y256513D02*
X397939Y256201D01*
X398251Y255576*
X397939Y254951*
X397313Y254638*
X395126*
Y258388*
X397313*
X397939Y258076*
X398251Y257451*
X397939Y256826*
X397313Y256513*
X395126*
X398613Y47301D02*
X399238Y46988D01*
X399550Y46363*
X399238Y45738*
X398613Y45426*
X396425*
Y49176*
X398613*
X399238Y48863*
X399550Y48238*
X399238Y47613*
X398613Y47301*
X396425*
X398613Y57143D02*
X399238Y56831D01*
X399550Y56206*
X399238Y55581*
X398613Y55268*
X396425*
Y59018*
X398613*
X399238Y58706*
X399550Y58081*
X399238Y57456*
X398613Y57143*
X396425*
X397173Y64756D02*
X398736Y68506D01*
X400298Y64756*
X397798Y66319D02*
X399673D01*
X397173Y88772D02*
X398736Y92522D01*
X400298Y88772*
X397798Y90335D02*
X399673D01*
X397331Y216567D02*
X398893Y220317D01*
X400456Y216567*
X397956Y218130D02*
X399831D01*
X397724Y240583D02*
X399287Y244333D01*
X400850Y240583*
X398350Y242146D02*
X400224D01*
X400187Y198600D02*
X400813Y198287D01*
X401125Y197663*
X400813Y197037*
X400187Y196725*
X398000*
Y200475*
X400187*
X400813Y200163*
X401125Y199537*
X400813Y198913*
X400187Y198600*
X398000*
X400187Y208443D02*
X400813Y208130D01*
X401125Y207505*
X400813Y206880*
X400187Y206567*
X398000*
Y210317*
X400187*
X400813Y210005*
X401125Y209380*
X400813Y208755*
X400187Y208443*
X398000*
X398118Y475032D02*
X399681Y478782D01*
X401243Y475032*
X398743Y476594D02*
X400618D01*
X398118Y486843D02*
X399681Y490593D01*
X401243Y486843*
X398743Y488406D02*
X400618D01*
X398118Y510465D02*
X399681Y514215D01*
X401243Y510465*
X398743Y512028D02*
X400618D01*
X398118Y522276D02*
X399681Y526026D01*
X401243Y522276*
X398743Y523839D02*
X400618D01*
X400581Y100450D02*
X401206Y100138D01*
X401519Y99513*
X401206Y98888*
X400581Y98575*
X398394*
Y102325*
X400581*
X401206Y102013*
X401519Y101388*
X401206Y100763*
X400581Y100450*
X398394*
X400581Y110293D02*
X401206Y109980D01*
X401519Y109356*
X401206Y108730*
X400581Y108418*
X398394*
Y112168*
X400581*
X401206Y111856*
X401519Y111230*
X401206Y110606*
X400581Y110293*
X398394*
X399181Y140504D02*
X400744Y144254D01*
X402306Y140504*
X399806Y142067D02*
X401681D01*
X399299Y291410D02*
X400862Y295160D01*
X402424Y291410*
X399924Y292972D02*
X401799D01*
X402156Y251750D02*
X402781Y251437D01*
X403094Y250812*
X402781Y250187*
X402156Y249874*
X399969*
Y253624*
X402156*
X402781Y253312*
X403094Y252687*
X402781Y252062*
X402156Y251750*
X399969*
X402156Y261592D02*
X402781Y261280D01*
X403094Y260655*
X402781Y260030*
X402156Y259717*
X399969*
Y263467*
X402156*
X402781Y263155*
X403094Y262530*
X402781Y261905*
X402156Y261592*
X399969*
X400087Y356725D02*
X401649Y360475D01*
X403212Y356725*
X400712Y358287D02*
X402587D01*
X400087Y380347D02*
X401649Y384097D01*
X403212Y380347*
X400712Y381909D02*
X402587D01*
X403494Y52537D02*
X404120Y52224D01*
X404432Y51600*
X404120Y50974*
X403494Y50662*
X401307*
Y54412*
X403494*
X404120Y54100*
X404432Y53474*
X404120Y52850*
X403494Y52537*
X401307*
X405069Y203836D02*
X405694Y203524D01*
X406007Y202899*
X405694Y202274*
X405069Y201961*
X402882*
Y205711*
X405069*
X405694Y205399*
X406007Y204774*
X405694Y204149*
X405069Y203836*
X402882*
X405542Y105214D02*
X406167Y104902D01*
X406480Y104277*
X406167Y103652*
X405542Y103339*
X403354*
Y107089*
X405542*
X406167Y106777*
X406480Y106152*
X406167Y105527*
X405542Y105214*
X403354*
X404929Y12552D02*
X406492Y16302D01*
X408054Y12552*
X405554Y14114D02*
X407429D01*
X404929Y24363D02*
X406492Y28113D01*
X408054Y24363*
X405554Y25925D02*
X407429D01*
X404929Y36174D02*
X406492Y39924D01*
X408054Y36174*
X405554Y37736D02*
X407429D01*
X407117Y256513D02*
X407742Y256201D01*
X408054Y255576*
X407742Y254951*
X407117Y254638*
X404929*
Y258388*
X407117*
X407742Y258076*
X408054Y257451*
X407742Y256826*
X407117Y256513*
X404929*
X405992Y344914D02*
X407555Y348664D01*
X409117Y344914*
X406617Y346476D02*
X408492D01*
X405992Y390189D02*
X407555Y393939D01*
X409117Y390189*
X406617Y391752D02*
X408492D01*
X408455Y47301D02*
X409080Y46988D01*
X409393Y46363*
X409080Y45738*
X408455Y45426*
X406268*
Y49176*
X408455*
X409080Y48863*
X409393Y48238*
X409080Y47613*
X408455Y47301*
X406268*
X408455Y57143D02*
X409080Y56831D01*
X409393Y56206*
X409080Y55581*
X408455Y55268*
X406268*
Y59018*
X408455*
X409080Y58706*
X409393Y58081*
X409080Y57456*
X408455Y57143*
X406268*
X408455Y66986D02*
X409080Y66673D01*
X409393Y66048*
X409080Y65423*
X408455Y65111*
X406268*
Y68861*
X408455*
X409080Y68548*
X409393Y67923*
X409080Y67298*
X408455Y66986*
X406268*
X408455Y73876D02*
X409080Y73563D01*
X409393Y72938*
X409080Y72313*
X408455Y72000*
X406268*
Y75750*
X408455*
X409080Y75438*
X409393Y74813*
X409080Y74188*
X408455Y73876*
X406268*
X408455Y80765D02*
X409080Y80453D01*
X409393Y79828*
X409080Y79203*
X408455Y78890*
X406268*
Y82640*
X408455*
X409080Y82328*
X409393Y81703*
X409080Y81078*
X408455Y80765*
X406268*
X408455Y90608D02*
X409080Y90295D01*
X409393Y89670*
X409080Y89045*
X408455Y88733*
X406268*
Y92483*
X408455*
X409080Y92170*
X409393Y91545*
X409080Y90920*
X408455Y90608*
X406268*
X408455Y100450D02*
X409080Y100138D01*
X409393Y99513*
X409080Y98888*
X408455Y98575*
X406268*
Y102325*
X408455*
X409080Y102013*
X409393Y101388*
X409080Y100763*
X408455Y100450*
X406268*
X408455Y110293D02*
X409080Y109980D01*
X409393Y109356*
X409080Y108730*
X408455Y108418*
X406268*
Y112168*
X408455*
X409080Y111856*
X409393Y111230*
X409080Y110606*
X408455Y110293*
X406268*
X407016Y163457D02*
X408578Y167207D01*
X410141Y163457*
X407641Y165020D02*
X409516D01*
X407016Y175268D02*
X408578Y179018D01*
X410141Y175268*
X407641Y176831D02*
X409516D01*
X407016Y187079D02*
X408578Y190829D01*
X410141Y187079*
X407641Y188642D02*
X409516D01*
X407055Y116882D02*
X408618Y120632D01*
X410180Y116882*
X407680Y118445D02*
X409555D01*
X407055Y128693D02*
X408618Y132443D01*
X410180Y128693*
X407680Y130256D02*
X409555D01*
X407173Y267788D02*
X408736Y271538D01*
X410298Y267788*
X407798Y269350D02*
X409673D01*
X407173Y279599D02*
X408736Y283349D01*
X410298Y279599*
X407798Y281161D02*
X409673D01*
X410030Y198600D02*
X410655Y198287D01*
X410968Y197663*
X410655Y197037*
X410030Y196725*
X407843*
Y200475*
X410030*
X410655Y200163*
X410968Y199537*
X410655Y198913*
X410030Y198600*
X407843*
X410030Y208443D02*
X410655Y208130D01*
X410968Y207505*
X410655Y206880*
X410030Y206567*
X407843*
Y210317*
X410030*
X410655Y210005*
X410968Y209380*
X410655Y208755*
X410030Y208443*
X407843*
X410030Y218285D02*
X410655Y217972D01*
X410968Y217348*
X410655Y216722*
X410030Y216410*
X407843*
Y220160*
X410030*
X410655Y219848*
X410968Y219222*
X410655Y218598*
X410030Y218285*
X407843*
X410030Y225175D02*
X410655Y224862D01*
X410968Y224237*
X410655Y223612*
X410030Y223300*
X407843*
Y227050*
X410030*
X410655Y226737*
X410968Y226112*
X410655Y225487*
X410030Y225175*
X407843*
X410030Y232065D02*
X410655Y231752D01*
X410968Y231127*
X410655Y230502*
X410030Y230189*
X407843*
Y233939*
X410030*
X410655Y233627*
X410968Y233002*
X410655Y232377*
X410030Y232065*
X407843*
X410030Y241907D02*
X410655Y241594D01*
X410968Y240970*
X410655Y240344*
X410030Y240032*
X407843*
Y243782*
X410030*
X410655Y243470*
X410968Y242844*
X410655Y242220*
X410030Y241907*
X407843*
X410030Y251750D02*
X410655Y251437D01*
X410968Y250812*
X410655Y250187*
X410030Y249874*
X407843*
Y253624*
X410030*
X410655Y253312*
X410968Y252687*
X410655Y252062*
X410030Y251750*
X407843*
X410030Y261592D02*
X410655Y261280D01*
X410968Y260655*
X410655Y260030*
X410030Y259717*
X407843*
Y263467*
X410030*
X410655Y263155*
X410968Y262530*
X410655Y261905*
X410030Y261592*
X407843*
X411898Y356725D02*
X413460Y360475D01*
X415023Y356725*
X412523Y358287D02*
X414398D01*
X411898Y380347D02*
X413460Y384097D01*
X415023Y380347*
X412523Y381909D02*
X414398D01*
X411898Y475032D02*
X413460Y478782D01*
X415023Y475032*
X412523Y476594D02*
X414398D01*
X411898Y486843D02*
X413460Y490593D01*
X415023Y486843*
X412523Y488406D02*
X414398D01*
X411898Y510465D02*
X413460Y514215D01*
X415023Y510465*
X412523Y512028D02*
X414398D01*
X411898Y522276D02*
X413460Y526026D01*
X415023Y522276*
X412523Y523839D02*
X414398D01*
X417803Y344914D02*
X419366Y348664D01*
X420928Y344914*
X418428Y346476D02*
X420303D01*
X417803Y390189D02*
X419366Y393939D01*
X420928Y390189*
X418428Y391752D02*
X420303D01*
X423709Y356725D02*
X425271Y360475D01*
X426834Y356725*
X424334Y358287D02*
X426209D01*
X423709Y380347D02*
X425271Y384097D01*
X426834Y380347*
X424334Y381909D02*
X426209D01*
X423709Y443536D02*
X425271Y447286D01*
X426834Y443536*
X424334Y445098D02*
X426209D01*
X423709Y451410D02*
X425271Y455160D01*
X426834Y451410*
X424334Y452972D02*
X426209D01*
X423709Y463221D02*
X425271Y466971D01*
X426834Y463221*
X424334Y464783D02*
X426209D01*
X423709Y475032D02*
X425271Y478782D01*
X426834Y475032*
X424334Y476594D02*
X426209D01*
X423709Y486843D02*
X425271Y490593D01*
X426834Y486843*
X424334Y488406D02*
X426209D01*
X423709Y510465D02*
X425271Y514215D01*
X426834Y510465*
X424334Y512028D02*
X426209D01*
X423709Y522276D02*
X425271Y526026D01*
X426834Y522276*
X424334Y523839D02*
X426209D01*
X423709Y534087D02*
X425271Y537837D01*
X426834Y534087*
X424334Y535650D02*
X426209D01*
X423709Y545898D02*
X425271Y549648D01*
X426834Y545898*
X424334Y547461D02*
X426209D01*
X423709Y553772D02*
X425271Y557522D01*
X426834Y553772*
X424334Y555335D02*
X426209D01*
X429439Y212143D02*
X430065Y211831D01*
X430377Y211206*
X430065Y210581*
X429439Y210268*
X427252*
Y214018*
X429439*
X430065Y213706*
X430377Y213081*
X430065Y212456*
X429439Y212143*
X427252*
X427843Y165189D02*
X429405Y168939D01*
X430968Y165189*
X428468Y166752D02*
X430343D01*
X427843Y182906D02*
X429405Y186656D01*
X430968Y182906*
X428468Y184469D02*
X430343D01*
X427843Y196685D02*
X429405Y200435D01*
X430968Y196685*
X428468Y198248D02*
X430343D01*
X427843Y218339D02*
X429405Y222089D01*
X430968Y218339*
X428468Y219902D02*
X430343D01*
X427843Y228181D02*
X429405Y231931D01*
X430968Y228181*
X428468Y229744D02*
X430343D01*
X427843Y243930D02*
X429405Y247680D01*
X430968Y243930*
X428468Y245492D02*
X430343D01*
X427843Y259678D02*
X429405Y263428D01*
X430968Y259678*
X428468Y261240D02*
X430343D01*
X427843Y273457D02*
X429405Y277207D01*
X430968Y273457*
X428468Y275020D02*
X430343D01*
X429614Y344914D02*
X431177Y348664D01*
X432739Y344914*
X430239Y346476D02*
X432114D01*
X429614Y390189D02*
X431177Y393939D01*
X432739Y390189*
X430239Y391752D02*
X432114D01*
X429811Y110071D02*
X431374Y113821D01*
X432936Y110071*
X430436Y111634D02*
X432311D01*
X429811Y117945D02*
X431374Y121695D01*
X432936Y117945*
X430436Y119508D02*
X432311D01*
X429811Y283300D02*
X431374Y287050D01*
X432936Y283300*
X430436Y284862D02*
X432311D01*
X429811Y291174D02*
X431374Y294924D01*
X432936Y291174*
X430436Y292736D02*
X432311D01*
X431780Y486843D02*
Y490593D01*
X434905*
X434280Y488718D02*
X431780D01*
Y486843D02*
X434905D01*
X431780Y510465D02*
Y514215D01*
X434905*
X434280Y512340D02*
X431780D01*
Y510465D02*
X434905D01*
X435520Y356725D02*
X437082Y360475D01*
X438645Y356725*
X436145Y358287D02*
X438020D01*
X435520Y380347D02*
X437082Y384097D01*
X438645Y380347*
X436145Y381909D02*
X438020D01*
X439629Y49594D02*
X439317Y49281D01*
X438691Y48969*
X437754*
X437129Y49281*
X436817Y49594*
X436504Y50219*
Y51469*
X436817Y52094*
X437129Y52407*
X437754Y52719*
X438691*
X439317Y52407*
X439629Y52094*
X437488Y463221D02*
X439051Y466971D01*
X440613Y463221*
X438113Y464783D02*
X439988D01*
X437488Y475032D02*
X439051Y478782D01*
X440613Y475032*
X438113Y476594D02*
X439988D01*
X437488Y522276D02*
X439051Y526026D01*
X440613Y522276*
X438113Y523839D02*
X439988D01*
X437488Y534087D02*
X439051Y537837D01*
X440613Y534087*
X438113Y535650D02*
X439988D01*
X437685Y125819D02*
X439248Y129569D01*
X440810Y125819*
X438310Y127382D02*
X440185D01*
X437685Y141567D02*
X439248Y145317D01*
X440810Y141567*
X438310Y143130D02*
X440185D01*
X437685Y157315D02*
X439248Y161065D01*
X440810Y157315*
X438310Y158878D02*
X440185D01*
X441425Y344914D02*
X442988Y348664D01*
X444550Y344914*
X442050Y346476D02*
X443925D01*
X441425Y390189D02*
X442988Y393939D01*
X444550Y390189*
X442050Y391752D02*
X443925D01*
X442213Y114008D02*
Y117758D01*
X445338*
X444713Y115883D02*
X442213D01*
Y287237D02*
Y290987D01*
X445338*
X444713Y289112D02*
X442213D01*
X445436Y39594D02*
X445124Y39281D01*
X444498Y38969*
X443561*
X442936Y39281*
X442624Y39594*
X442311Y40219*
Y41469*
X442624Y42094*
X442936Y42407*
X443561Y42719*
X444498*
X445124Y42407*
X445436Y42094*
Y49594D02*
X445124Y49281D01*
X444498Y48969*
X443561*
X442936Y49281*
X442624Y49594*
X442311Y50219*
Y51469*
X442624Y52094*
X442936Y52407*
X443561Y52719*
X444498*
X445124Y52407*
X445436Y52094*
Y59594D02*
X445124Y59281D01*
X444498Y58969*
X443561*
X442936Y59281*
X442624Y59594*
X442311Y60219*
Y61469*
X442624Y62094*
X442936Y62407*
X443561Y62719*
X444498*
X445124Y62407*
X445436Y62094*
Y69594D02*
X445124Y69281D01*
X444498Y68969*
X443561*
X442936Y69281*
X442624Y69594*
X442311Y70219*
Y71469*
X442624Y72094*
X442936Y72407*
X443561Y72719*
X444498*
X445124Y72407*
X445436Y72094*
X443512Y545977D02*
Y549727D01*
X445387*
X446012Y549415*
X446324Y549102*
X446637Y548477*
Y547227*
X446324Y546602*
X446012Y546289*
X445387Y545977*
X443512*
X443591Y451489D02*
Y455239D01*
X445466*
X446091Y454926*
X446403Y454614*
X446716Y453989*
Y452739*
X446403Y452114*
X446091Y451801*
X445466Y451489*
X443591*
Y498654D02*
Y502404D01*
X446716*
X446091Y500529D02*
X443591D01*
Y498654D02*
X446716D01*
X447331Y356725D02*
X448893Y360475D01*
X450456Y356725*
X447956Y358287D02*
X449831D01*
X447331Y380347D02*
X448893Y384097D01*
X450456Y380347*
X447956Y381909D02*
X449831D01*
X448315Y215977D02*
X449878Y219727D01*
X451440Y215977*
X448940Y217539D02*
X450815D01*
X449299Y463221D02*
X450862Y466971D01*
X452424Y463221*
X449924Y464783D02*
X451799D01*
X449299Y475032D02*
X450862Y478782D01*
X452424Y475032*
X449924Y476594D02*
X451799D01*
X449299Y522276D02*
X450862Y526026D01*
X452424Y522276*
X449924Y523839D02*
X451799D01*
X449299Y534087D02*
X450862Y537837D01*
X452424Y534087*
X449924Y535650D02*
X451799D01*
X449496Y194323D02*
X451059Y198073D01*
X452621Y194323*
X450121Y195886D02*
X451996D01*
X452213Y114008D02*
Y117758D01*
X455338*
X454713Y115883D02*
X452213D01*
Y287237D02*
Y290987D01*
X455338*
X454713Y289112D02*
X452213D01*
X453236Y344914D02*
X454799Y348664D01*
X456361Y344914*
X453861Y346476D02*
X455736D01*
X453236Y390189D02*
X454799Y393939D01*
X456361Y390189*
X453861Y391752D02*
X455736D01*
X455402Y486843D02*
Y490593D01*
X458527*
X457902Y488718D02*
X455402D01*
Y486843D02*
X458527D01*
X455402Y510465D02*
Y514215D01*
X458527*
X457902Y512340D02*
X455402D01*
Y510465D02*
X458527D01*
X456189Y203378D02*
X457752Y207128D01*
X459314Y203378*
X456814Y204941D02*
X458689D01*
X458770Y217065D02*
X459395Y216752D01*
X459708Y216127*
X459395Y215502*
X458770Y215189*
X456583*
Y218939*
X458770*
X459395Y218627*
X459708Y218002*
X459395Y217377*
X458770Y217065*
X456583*
X459557Y221198D02*
X460183Y220886D01*
X460495Y220261*
X460183Y219636*
X459557Y219323*
X457370*
Y223073*
X459557*
X460183Y222761*
X460495Y222136*
X460183Y221511*
X459557Y221198*
X457370*
Y228181D02*
X458933Y231931D01*
X460495Y228181*
X457995Y229744D02*
X459870D01*
X457370Y236056D02*
X458933Y239806D01*
X460495Y236056*
X457995Y237618D02*
X459870D01*
X459142Y356725D02*
X460704Y360475D01*
X462267Y356725*
X459767Y358287D02*
X461642D01*
X459142Y380347D02*
X460704Y384097D01*
X462267Y380347*
X459767Y381909D02*
X461642D01*
X460126Y195898D02*
X461689Y199648D01*
X463251Y195898*
X460751Y197461D02*
X462626D01*
X461307Y263615D02*
X462870Y267365D01*
X464432Y263615*
X461932Y265177D02*
X463807D01*
X462094Y255741D02*
X463657Y259491D01*
X465220Y255741*
X462720Y257303D02*
X464594D01*
X462213Y114008D02*
Y117758D01*
X465338*
X464713Y115883D02*
X462213D01*
Y287237D02*
Y290987D01*
X465338*
X464713Y289112D02*
X462213D01*
X463079Y443536D02*
X464641Y447286D01*
X466204Y443536*
X463704Y445098D02*
X465579D01*
X463079Y451410D02*
X464641Y455160D01*
X466204Y451410*
X463704Y452972D02*
X465579D01*
X463079Y463221D02*
X464641Y466971D01*
X466204Y463221*
X463704Y464783D02*
X465579D01*
X463079Y475032D02*
X464641Y478782D01*
X466204Y475032*
X463704Y476594D02*
X465579D01*
X463079Y486843D02*
X464641Y490593D01*
X466204Y486843*
X463704Y488406D02*
X465579D01*
X463079Y498654D02*
X464641Y502404D01*
X466204Y498654*
X463704Y500217D02*
X465579D01*
X463079Y510465D02*
X464641Y514215D01*
X466204Y510465*
X463704Y512028D02*
X465579D01*
X463079Y522276D02*
X464641Y526026D01*
X466204Y522276*
X463704Y523839D02*
X465579D01*
X463079Y534087D02*
X464641Y537837D01*
X466204Y534087*
X463704Y535650D02*
X465579D01*
X463079Y545898D02*
X464641Y549648D01*
X466204Y545898*
X463704Y547461D02*
X465579D01*
X463079Y553772D02*
X464641Y557522D01*
X466204Y553772*
X463704Y555335D02*
X465579D01*
X465047Y344914D02*
X466610Y348664D01*
X468172Y344914*
X465672Y346476D02*
X467547D01*
X465047Y390189D02*
X466610Y393939D01*
X468172Y390189*
X465672Y391752D02*
X467547D01*
X466425Y126213D02*
X467988Y129963D01*
X469550Y126213*
X467050Y127776D02*
X468925D01*
X466425Y141567D02*
X467988Y145317D01*
X469550Y141567*
X467050Y143130D02*
X468925D01*
X466425Y157315D02*
X467988Y161065D01*
X469550Y157315*
X467050Y158878D02*
X468925D01*
X466425Y173063D02*
X467988Y176813D01*
X469550Y173063*
X467050Y174626D02*
X468925D01*
X466425Y188811D02*
X467988Y192561D01*
X469550Y188811*
X467050Y190374D02*
X468925D01*
X469400Y210372D02*
X470025Y210059D01*
X470338Y209434*
X470025Y208809*
X469400Y208496*
X467213*
Y212246*
X469400*
X470025Y211934*
X470338Y211309*
X470025Y210684*
X469400Y210372*
X467213*
X469400Y218246D02*
X470025Y217933D01*
X470338Y217308*
X470025Y216683*
X469400Y216370*
X467213*
Y220120*
X469400*
X470025Y219808*
X470338Y219183*
X470025Y218558*
X469400Y218246*
X467213*
Y271489D02*
X468775Y275239D01*
X470338Y271489*
X467838Y273051D02*
X469713D01*
X469181Y236056D02*
X470744Y239806D01*
X472306Y236056*
X469806Y237618D02*
X471681D01*
X473337Y214309D02*
X473962Y213996D01*
X474275Y213371*
X473962Y212746*
X473337Y212433*
X471150*
Y216183*
X473337*
X473962Y215871*
X474275Y215246*
X473962Y214621*
X473337Y214309*
X471150*
Y229363D02*
X472712Y233113D01*
X474275Y229363*
X471775Y230925D02*
X473650D01*
X471150Y263615D02*
X472712Y267365D01*
X474275Y263615*
X471775Y265177D02*
X473650D01*
X472213Y114008D02*
Y117758D01*
X475338*
X474713Y115883D02*
X472213D01*
Y287237D02*
Y290987D01*
X475338*
X474713Y289112D02*
X472213D01*
X472921Y313418D02*
X474484Y317168D01*
X476046Y313418*
X473546Y314980D02*
X475421D01*
X472921Y321292D02*
X474484Y325042D01*
X476046Y321292*
X473546Y322854D02*
X475421D01*
X472921Y333103D02*
X474484Y336853D01*
X476046Y333103*
X473546Y334665D02*
X475421D01*
X472921Y344914D02*
X474484Y348664D01*
X476046Y344914*
X473546Y346476D02*
X475421D01*
X472921Y356725D02*
X474484Y360475D01*
X476046Y356725*
X473546Y358287D02*
X475421D01*
X472921Y380347D02*
X474484Y384097D01*
X476046Y380347*
X473546Y381909D02*
X475421D01*
X472921Y392158D02*
X474484Y395908D01*
X476046Y392158*
X473546Y393720D02*
X475421D01*
X472921Y403969D02*
X474484Y407719D01*
X476046Y403969*
X473546Y405531D02*
X475421D01*
X472921Y415780D02*
X474484Y419530D01*
X476046Y415780*
X473546Y417343D02*
X475421D01*
X472921Y423654D02*
X474484Y427404D01*
X476046Y423654*
X473546Y425217D02*
X475421D01*
X473118Y195898D02*
X474681Y199648D01*
X476243Y195898*
X473743Y197461D02*
X475618D01*
X477274Y210372D02*
X477899Y210059D01*
X478212Y209434*
X477899Y208809*
X477274Y208496*
X475087*
Y212246*
X477274*
X477899Y211934*
X478212Y211309*
X477899Y210684*
X477274Y210372*
X475087*
X477274Y218246D02*
X477899Y217933D01*
X478212Y217308*
X477899Y216683*
X477274Y216370*
X475087*
Y220120*
X477274*
X477899Y219808*
X478212Y219183*
X477899Y218558*
X477274Y218246*
X475087*
X479024Y255741D02*
X480586Y259491D01*
X482149Y255741*
X479649Y257303D02*
X481524D01*
X480598Y356725D02*
X482161Y360475D01*
X483724Y356725*
X481224Y358287D02*
X483098D01*
X480598Y380347D02*
X482161Y384097D01*
X483724Y380347*
X481224Y381909D02*
X483098D01*
X482213Y114008D02*
Y117758D01*
X485338*
X484713Y115883D02*
X482213D01*
Y287237D02*
Y290987D01*
X485338*
X484713Y289112D02*
X482213D01*
X482764Y443536D02*
X484326Y447286D01*
X485889Y443536*
X483389Y445098D02*
X485264D01*
X482764Y451410D02*
X484326Y455160D01*
X485889Y451410*
X483389Y452972D02*
X485264D01*
X482764Y463221D02*
X484326Y466971D01*
X485889Y463221*
X483389Y464783D02*
X485264D01*
X482764Y475032D02*
X484326Y478782D01*
X485889Y475032*
X483389Y476594D02*
X485264D01*
X482764Y486843D02*
X484326Y490593D01*
X485889Y486843*
X483389Y488406D02*
X485264D01*
X482764Y498654D02*
X484326Y502404D01*
X485889Y498654*
X483389Y500217D02*
X485264D01*
X482764Y510465D02*
X484326Y514215D01*
X485889Y510465*
X483389Y512028D02*
X485264D01*
X482764Y522276D02*
X484326Y526026D01*
X485889Y522276*
X483389Y523839D02*
X485264D01*
X482764Y534087D02*
X484326Y537837D01*
X485889Y534087*
X483389Y535650D02*
X485264D01*
X482764Y545898D02*
X484326Y549648D01*
X485889Y545898*
X483389Y547461D02*
X485264D01*
X482764Y553772D02*
X484326Y557522D01*
X485889Y553772*
X483389Y555335D02*
X485264D01*
X482961Y197867D02*
X484523Y201617D01*
X486086Y197867*
X483586Y199429D02*
X485461D01*
X483748Y227197D02*
X485311Y230947D01*
X486873Y227197*
X484373Y228760D02*
X486248D01*
X486701Y333103D02*
X488263Y336853D01*
X489826Y333103*
X487326Y334665D02*
X489201D01*
X486701Y344914D02*
X488263Y348664D01*
X489826Y344914*
X487326Y346476D02*
X489201D01*
X486701Y392158D02*
X488263Y395908D01*
X489826Y392158*
X487326Y393720D02*
X489201D01*
X486701Y403969D02*
X488263Y407719D01*
X489826Y403969*
X487326Y405531D02*
X489201D01*
X487291Y141567D02*
X488854Y145317D01*
X490417Y141567*
X487917Y143130D02*
X489791D01*
X487291Y157315D02*
X488854Y161065D01*
X490417Y157315*
X487917Y158878D02*
X489791D01*
X487291Y173063D02*
X488854Y176813D01*
X490417Y173063*
X487917Y174626D02*
X489791D01*
X487291Y188811D02*
X488854Y192561D01*
X490417Y188811*
X487917Y190374D02*
X489791D01*
X488866Y129756D02*
X490429Y133506D01*
X491991Y129756*
X489491Y131319D02*
X491366D01*
X489575Y255741D02*
X491137Y259491D01*
X492700Y255741*
X490200Y257303D02*
X492075D01*
X489654Y232315D02*
X491216Y236065D01*
X492779Y232315*
X490279Y233878D02*
X492154D01*
X490835Y486843D02*
Y490593D01*
X493960*
X493335Y488718D02*
X490835D01*
Y486843D02*
X493960D01*
X490835Y510465D02*
Y514215D01*
X493960*
X493335Y512340D02*
X490835D01*
Y510465D02*
X493960D01*
X492213Y114008D02*
Y117758D01*
X495338*
X494713Y115883D02*
X492213D01*
Y287237D02*
Y290987D01*
X495338*
X494713Y289112D02*
X492213D01*
X492449Y415859D02*
Y419609D01*
X494324*
X494949Y419296*
X495261Y418984*
X495574Y418359*
Y417109*
X495261Y416484*
X494949Y416171*
X494324Y415859*
X492449*
X492528Y321370D02*
Y325120D01*
X494403*
X495028Y324808*
X495340Y324496*
X495653Y323870*
Y322620*
X495340Y321996*
X495028Y321683*
X494403Y321370*
X492528*
X492606Y443536D02*
X494169Y447286D01*
X495731Y443536*
X493231Y445098D02*
X495106D01*
X492606Y463221D02*
X494169Y466971D01*
X495731Y463221*
X493231Y464783D02*
X495106D01*
X492606Y475032D02*
X494169Y478782D01*
X495731Y475032*
X493231Y476594D02*
X495106D01*
X492606Y522276D02*
X494169Y526026D01*
X495731Y522276*
X493231Y523839D02*
X495106D01*
X492606Y534087D02*
X494169Y537837D01*
X495731Y534087*
X493231Y535650D02*
X495106D01*
X492606Y553772D02*
X494169Y557522D01*
X495731Y553772*
X493231Y555335D02*
X495106D01*
X498512Y333103D02*
X500074Y336853D01*
X501637Y333103*
X499137Y334665D02*
X501012D01*
X498512Y344914D02*
X500074Y348664D01*
X501637Y344914*
X499137Y346476D02*
X501012D01*
X498512Y392158D02*
X500074Y395908D01*
X501637Y392158*
X499137Y393720D02*
X501012D01*
X498512Y403969D02*
X500074Y407719D01*
X501637Y403969*
X499137Y405531D02*
X501012D01*
X498709Y263615D02*
X500271Y267365D01*
X501834Y263615*
X499334Y265177D02*
X501209D01*
X502567Y545977D02*
Y549727D01*
X504442*
X505067Y549415*
X505380Y549102*
X505692Y548477*
Y547227*
X505380Y546602*
X505067Y546289*
X504442Y545977*
X502567*
X502646Y117945D02*
X504208Y121695D01*
X505771Y117945*
X503271Y119508D02*
X505146D01*
X502646Y133693D02*
X504208Y137443D01*
X505771Y133693*
X503271Y135256D02*
X505146D01*
X502646Y149441D02*
X504208Y153191D01*
X505771Y149441*
X503271Y151004D02*
X505146D01*
X502646Y165189D02*
X504208Y168939D01*
X505771Y165189*
X503271Y166752D02*
X505146D01*
X502646Y180937D02*
X504208Y184687D01*
X505771Y180937*
X503271Y182500D02*
X505146D01*
X502646Y196685D02*
X504208Y200435D01*
X505771Y196685*
X503271Y198248D02*
X505146D01*
X502646Y271489D02*
X504208Y275239D01*
X505771Y271489*
X503271Y273051D02*
X505146D01*
X502646Y451489D02*
Y455239D01*
X504521*
X505146Y454926*
X505458Y454614*
X505771Y453989*
Y452739*
X505458Y452114*
X505146Y451801*
X504521Y451489*
X502646*
Y498654D02*
Y502404D01*
X505771*
X505146Y500529D02*
X502646D01*
Y498654D02*
X505771D01*
X503354Y222670D02*
X504917Y226420D01*
X506480Y222670*
X503980Y224232D02*
X505854D01*
X503354Y256134D02*
X504917Y259884D01*
X506480Y256134*
X503980Y257697D02*
X505854D01*
X506558Y208334D02*
X506246Y208022D01*
X505620Y207709*
X504683*
X504058Y208022*
X503746Y208334*
X503433Y208959*
Y210209*
X503746Y210834*
X504058Y211147*
X504683Y211459*
X505620*
X506246Y211147*
X506558Y210834*
X504220Y380347D02*
X505783Y384097D01*
X507346Y380347*
X504846Y381909D02*
X506720D01*
X504417Y356922D02*
X505980Y360672D01*
X507543Y356922*
X505043Y358484D02*
X506917D01*
X504417Y463221D02*
X505980Y466971D01*
X507543Y463221*
X505043Y464783D02*
X506917D01*
X504417Y475032D02*
X505980Y478782D01*
X507543Y475032*
X505043Y476594D02*
X506917D01*
X504417Y522276D02*
X505980Y526026D01*
X507543Y522276*
X505043Y523839D02*
X506917D01*
X504417Y534087D02*
X505980Y537837D01*
X507543Y534087*
X505043Y535650D02*
X506917D01*
X504614Y110071D02*
X506177Y113821D01*
X507739Y110071*
X505239Y111634D02*
X507114D01*
X504614Y283300D02*
X506177Y287050D01*
X507739Y283300*
X505239Y284862D02*
X507114D01*
X504614Y291174D02*
X506177Y294924D01*
X507739Y291174*
X505239Y292736D02*
X507114D01*
X512291Y313418D02*
X513854Y317168D01*
X515417Y313418*
X512917Y314980D02*
X514791D01*
X512291Y321292D02*
X513854Y325042D01*
X515417Y321292*
X512917Y322854D02*
X514791D01*
X512291Y333103D02*
X513854Y336853D01*
X515417Y333103*
X512917Y334665D02*
X514791D01*
X512291Y344914D02*
X513854Y348664D01*
X515417Y344914*
X512917Y346476D02*
X514791D01*
X512291Y356725D02*
X513854Y360475D01*
X515417Y356725*
X512917Y358287D02*
X514791D01*
X512291Y368536D02*
X513854Y372286D01*
X515417Y368536*
X512917Y370098D02*
X514791D01*
X512291Y380347D02*
X513854Y384097D01*
X515417Y380347*
X512917Y381909D02*
X514791D01*
X512291Y392158D02*
X513854Y395908D01*
X515417Y392158*
X512917Y393720D02*
X514791D01*
X512291Y403969D02*
X513854Y407719D01*
X515417Y403969*
X512917Y405531D02*
X514791D01*
X512291Y415780D02*
X513854Y419530D01*
X515417Y415780*
X512917Y417343D02*
X514791D01*
X512291Y423654D02*
X513854Y427404D01*
X515417Y423654*
X512917Y425217D02*
X514791D01*
X514457Y486843D02*
Y490593D01*
X517582*
X516957Y488718D02*
X514457D01*
Y486843D02*
X517582D01*
X514457Y510465D02*
Y514215D01*
X517582*
X516957Y512340D02*
X514457D01*
Y510465D02*
X517582D01*
X516228Y443536D02*
X517791Y447286D01*
X519354Y443536*
X516854Y445098D02*
X518728D01*
X516228Y463221D02*
X517791Y466971D01*
X519354Y463221*
X516854Y464783D02*
X518728D01*
X516228Y475032D02*
X517791Y478782D01*
X519354Y475032*
X516854Y476594D02*
X518728D01*
X516228Y522276D02*
X517791Y526026D01*
X519354Y522276*
X516854Y523839D02*
X518728D01*
X516228Y534087D02*
X517791Y537837D01*
X519354Y534087*
X516854Y535650D02*
X518728D01*
X516228Y553772D02*
X517791Y557522D01*
X519354Y553772*
X516854Y555335D02*
X518728D01*
X535935Y128366D02*
X536873D01*
Y128054*
X536561Y127429*
X536248Y127116*
X535623Y126804*
X534998*
X534373Y127116*
X534061Y127429*
X533748Y128054*
Y129304*
X534061Y129929*
X534373Y130241*
X534998Y130554*
X535623*
X536248Y130241*
X536561Y129929*
X536873Y129304*
X535935Y138366D02*
X536873D01*
Y138054*
X536561Y137429*
X536248Y137116*
X535623Y136804*
X534998*
X534373Y137116*
X534061Y137429*
X533748Y138054*
Y139304*
X534061Y139929*
X534373Y140241*
X534998Y140554*
X535623*
X536248Y140241*
X536561Y139929*
X536873Y139304*
X535935Y148366D02*
X536873D01*
Y148054*
X536561Y147429*
X536248Y147116*
X535623Y146804*
X534998*
X534373Y147116*
X534061Y147429*
X533748Y148054*
Y149304*
X534061Y149929*
X534373Y150241*
X534998Y150554*
X535623*
X536248Y150241*
X536561Y149929*
X536873Y149304*
X535935Y158366D02*
X536873D01*
Y158054*
X536561Y157429*
X536248Y157116*
X535623Y156804*
X534998*
X534373Y157116*
X534061Y157429*
X533748Y158054*
Y159304*
X534061Y159929*
X534373Y160241*
X534998Y160554*
X535623*
X536248Y160241*
X536561Y159929*
X536873Y159304*
X535935Y168366D02*
X536873D01*
Y168054*
X536561Y167429*
X536248Y167116*
X535623Y166804*
X534998*
X534373Y167116*
X534061Y167429*
X533748Y168054*
Y169304*
X534061Y169929*
X534373Y170241*
X534998Y170554*
X535623*
X536248Y170241*
X536561Y169929*
X536873Y169304*
X535935Y178366D02*
X536873D01*
Y178054*
X536561Y177429*
X536248Y177116*
X535623Y176804*
X534998*
X534373Y177116*
X534061Y177429*
X533748Y178054*
Y179304*
X534061Y179929*
X534373Y180241*
X534998Y180554*
X535623*
X536248Y180241*
X536561Y179929*
X536873Y179304*
X535935Y188366D02*
X536873D01*
Y188054*
X536561Y187429*
X536248Y187116*
X535623Y186804*
X534998*
X534373Y187116*
X534061Y187429*
X533748Y188054*
Y189304*
X534061Y189929*
X534373Y190241*
X534998Y190554*
X535623*
X536248Y190241*
X536561Y189929*
X536873Y189304*
X535935Y198366D02*
X536873D01*
Y198054*
X536561Y197429*
X536248Y197116*
X535623Y196804*
X534998*
X534373Y197116*
X534061Y197429*
X533748Y198054*
Y199304*
X534061Y199929*
X534373Y200241*
X534998Y200554*
X535623*
X536248Y200241*
X536561Y199929*
X536873Y199304*
X542385Y39633D02*
X542072Y39321D01*
X541447Y39008*
X540510*
X539885Y39321*
X539572Y39633*
X539260Y40258*
Y41508*
X539572Y42133*
X539885Y42446*
X540510Y42758*
X541447*
X542072Y42446*
X542385Y42133*
X542680Y49594D02*
X542368Y49281D01*
X541743Y48969*
X540805*
X540180Y49281*
X539868Y49594*
X539555Y50219*
Y51469*
X539868Y52094*
X540180Y52407*
X540805Y52719*
X541743*
X542368Y52407*
X542680Y52094*
Y59594D02*
X542368Y59281D01*
X541743Y58969*
X540805*
X540180Y59281*
X539868Y59594*
X539555Y60219*
Y61469*
X539868Y62094*
X540180Y62407*
X540805Y62719*
X541743*
X542368Y62407*
X542680Y62094*
Y69594D02*
X542368Y69281D01*
X541743Y68969*
X540805*
X540180Y69281*
X539868Y69594*
X539555Y70219*
Y71469*
X539868Y72094*
X540180Y72407*
X540805Y72719*
X541743*
X542368Y72407*
X542680Y72094*
X545935Y128366D02*
X546873D01*
Y128054*
X546561Y127429*
X546248Y127116*
X545623Y126804*
X544998*
X544373Y127116*
X544061Y127429*
X543748Y128054*
Y129304*
X544061Y129929*
X544373Y130241*
X544998Y130554*
X545623*
X546248Y130241*
X546561Y129929*
X546873Y129304*
X545935Y138366D02*
X546873D01*
Y138054*
X546561Y137429*
X546248Y137116*
X545623Y136804*
X544998*
X544373Y137116*
X544061Y137429*
X543748Y138054*
Y139304*
X544061Y139929*
X544373Y140241*
X544998Y140554*
X545623*
X546248Y140241*
X546561Y139929*
X546873Y139304*
X545935Y148366D02*
X546873D01*
Y148054*
X546561Y147429*
X546248Y147116*
X545623Y146804*
X544998*
X544373Y147116*
X544061Y147429*
X543748Y148054*
Y149304*
X544061Y149929*
X544373Y150241*
X544998Y150554*
X545623*
X546248Y150241*
X546561Y149929*
X546873Y149304*
X545935Y158366D02*
X546873D01*
Y158054*
X546561Y157429*
X546248Y157116*
X545623Y156804*
X544998*
X544373Y157116*
X544061Y157429*
X543748Y158054*
Y159304*
X544061Y159929*
X544373Y160241*
X544998Y160554*
X545623*
X546248Y160241*
X546561Y159929*
X546873Y159304*
X545935Y168366D02*
X546873D01*
Y168054*
X546561Y167429*
X546248Y167116*
X545623Y166804*
X544998*
X544373Y167116*
X544061Y167429*
X543748Y168054*
Y169304*
X544061Y169929*
X544373Y170241*
X544998Y170554*
X545623*
X546248Y170241*
X546561Y169929*
X546873Y169304*
X545935Y178366D02*
X546873D01*
Y178054*
X546561Y177429*
X546248Y177116*
X545623Y176804*
X544998*
X544373Y177116*
X544061Y177429*
X543748Y178054*
Y179304*
X544061Y179929*
X544373Y180241*
X544998Y180554*
X545623*
X546248Y180241*
X546561Y179929*
X546873Y179304*
X545935Y188366D02*
X546873D01*
Y188054*
X546561Y187429*
X546248Y187116*
X545623Y186804*
X544998*
X544373Y187116*
X544061Y187429*
X543748Y188054*
Y189304*
X544061Y189929*
X544373Y190241*
X544998Y190554*
X545623*
X546248Y190241*
X546561Y189929*
X546873Y189304*
X545935Y198366D02*
X546873D01*
Y198054*
X546561Y197429*
X546248Y197116*
X545623Y196804*
X544998*
X544373Y197116*
X544061Y197429*
X543748Y198054*
Y199304*
X544061Y199929*
X544373Y200241*
X544998Y200554*
X545623*
X546248Y200241*
X546561Y199929*
X546873Y199304*
X551440Y34515D02*
X551128Y34203D01*
X550502Y33890*
X549565*
X548940Y34203*
X548628Y34515*
X548315Y35140*
Y36390*
X548628Y37015*
X548940Y37328*
X549565Y37640*
X550502*
X551128Y37328*
X551440Y37015*
X561307Y29559D02*
Y33309D01*
X564432*
X563807Y31435D02*
X561307D01*
Y39559D02*
Y43309D01*
X564432*
X563807Y41435D02*
X561307D01*
Y49559D02*
Y53309D01*
X564432*
X563807Y51435D02*
X561307D01*
Y59559D02*
Y63309D01*
X564432*
X563807Y61435D02*
X561307D01*
Y69559D02*
Y73309D01*
X564432*
X563807Y71435D02*
X561307D01*
Y79559D02*
Y83309D01*
X564432*
X563807Y81435D02*
X561307D01*
X565638Y125544D02*
Y129294D01*
X568763*
X568138Y127419D02*
X565638D01*
Y135544D02*
Y139294D01*
X568763*
X568138Y137419D02*
X565638D01*
Y145544D02*
Y149294D01*
X568763*
X568138Y147419D02*
X565638D01*
Y155544D02*
Y159294D01*
X568763*
X568138Y157419D02*
X565638D01*
Y165544D02*
Y169294D01*
X568763*
X568138Y167419D02*
X565638D01*
Y175544D02*
Y179294D01*
X568763*
X568138Y177419D02*
X565638D01*
D02*
D108*
X13906Y307480D03*
Y327165D03*
Y338976D03*
Y386220D03*
Y398031D03*
Y417717D03*
X15402Y156850D03*
Y167087D03*
Y174961D03*
Y186772D03*
Y198583D03*
Y222205D03*
Y245827D03*
Y257638D03*
Y269449D03*
Y277323D03*
Y286772D03*
X15874Y350787D03*
Y374409D03*
Y437598D03*
Y457283D03*
Y469094D03*
Y516339D03*
Y528150D03*
Y547835D03*
X16189Y210394D03*
Y234016D03*
X17173Y25787D03*
Y33661D03*
Y45472D03*
Y57283D03*
Y69094D03*
Y80906D03*
Y92717D03*
Y104528D03*
Y116339D03*
Y128150D03*
Y136024D03*
X17843Y480906D03*
Y504528D03*
X22882Y210000D03*
X23276Y234409D03*
X24417Y70551D03*
Y94173D03*
X25244Y156850D03*
Y165118D03*
Y186772D03*
Y198583D03*
Y245827D03*
Y257638D03*
Y277323D03*
Y286772D03*
X25717Y327165D03*
Y338976D03*
Y386220D03*
Y398031D03*
X27606Y409921D03*
X27685Y315433D03*
Y362598D03*
Y457283D03*
Y469094D03*
Y516339D03*
Y528150D03*
X29575Y540039D03*
X29654Y445551D03*
Y492717D03*
X30953Y45472D03*
Y57283D03*
Y104528D03*
Y116339D03*
X32724Y204488D03*
X34693Y269449D03*
X34772Y174961D03*
X36661Y237953D03*
X36780Y128228D03*
X36858Y33740D03*
X37055Y156850D03*
Y198583D03*
Y245827D03*
Y255669D03*
Y286772D03*
X37528Y307480D03*
Y327165D03*
Y338976D03*
Y386220D03*
Y398031D03*
Y417717D03*
X38630Y188740D03*
X39496Y350787D03*
Y374409D03*
Y437598D03*
Y457283D03*
Y469094D03*
Y516339D03*
Y528150D03*
Y547835D03*
X41465Y480906D03*
Y504528D03*
X42764Y45472D03*
Y57283D03*
Y104528D03*
Y116339D03*
X46504Y234016D03*
X46898Y210394D03*
X47370Y307480D03*
Y315354D03*
Y327165D03*
Y338976D03*
Y350787D03*
Y362598D03*
Y374409D03*
Y386220D03*
Y398031D03*
Y409843D03*
Y417717D03*
X48039Y70551D03*
Y94173D03*
X48866Y156850D03*
Y167087D03*
Y186772D03*
Y198583D03*
Y245827D03*
Y257638D03*
Y277323D03*
Y286772D03*
X49339Y437598D03*
Y445472D03*
Y457283D03*
Y469094D03*
Y480906D03*
Y492717D03*
Y504528D03*
Y516339D03*
Y528150D03*
Y539961D03*
Y547835D03*
X56543Y25787D03*
Y33661D03*
Y45472D03*
Y57283D03*
Y69094D03*
Y92717D03*
Y104528D03*
Y116339D03*
Y128150D03*
Y136024D03*
X58315Y204488D03*
Y237953D03*
Y245827D03*
Y253701D03*
Y261575D03*
X60283Y277323D03*
X62252Y196614D03*
Y212362D03*
Y232047D03*
Y287165D03*
X67055Y307480D03*
Y315354D03*
Y327165D03*
Y338976D03*
Y350787D03*
Y362598D03*
Y374409D03*
Y386220D03*
Y398031D03*
Y409843D03*
Y417717D03*
X68157Y204488D03*
X68354Y57283D03*
Y69094D03*
Y92717D03*
Y104528D03*
X69024Y437598D03*
Y445472D03*
Y457283D03*
Y469094D03*
Y480906D03*
Y492717D03*
Y504528D03*
Y516339D03*
Y528150D03*
Y539961D03*
Y547835D03*
X69732Y261575D03*
X70126Y212362D03*
Y253701D03*
X70283Y277323D03*
X72094Y232047D03*
Y237953D03*
X72488Y247795D03*
X74063Y196614D03*
Y287165D03*
X74929Y350787D03*
Y374409D03*
X76898Y480906D03*
Y504528D03*
X78000Y204488D03*
Y212362D03*
X80283Y277323D03*
X80362Y237953D03*
X80835Y327165D03*
Y338976D03*
Y386220D03*
Y398031D03*
X82134Y57283D03*
Y69094D03*
Y92717D03*
Y104528D03*
X82803Y457283D03*
Y469094D03*
Y516339D03*
Y528150D03*
X83906Y196614D03*
X85874Y287165D03*
X86661Y409921D03*
X86740Y315433D03*
Y362598D03*
X87843Y204488D03*
Y212362D03*
Y232047D03*
X88630Y540039D03*
X88709Y445551D03*
Y492717D03*
X89811Y263543D03*
X90283Y277323D03*
X91780Y196614D03*
X92646Y327165D03*
Y338976D03*
Y386220D03*
Y398031D03*
X93945Y57283D03*
Y69094D03*
Y92717D03*
Y104528D03*
X94614Y457283D03*
Y469094D03*
Y516339D03*
Y528150D03*
X95323Y230079D03*
X97685Y204094D03*
Y287165D03*
X98551Y350787D03*
Y374409D03*
X100283Y277323D03*
X100520Y480906D03*
Y504528D03*
X101622Y196614D03*
Y245972D03*
D03*
X104378Y204094D03*
X105559Y234016D03*
X105756Y25787D03*
Y33661D03*
Y45472D03*
Y57283D03*
Y69094D03*
Y92717D03*
Y104528D03*
Y116339D03*
Y128150D03*
Y136024D03*
X106425Y307480D03*
Y315354D03*
Y327165D03*
Y338976D03*
Y350787D03*
Y374409D03*
Y386220D03*
Y398031D03*
Y409843D03*
Y417717D03*
X107528Y263543D03*
X108394Y437598D03*
Y445472D03*
Y457283D03*
Y469094D03*
Y480906D03*
Y504528D03*
Y516339D03*
Y528150D03*
Y539961D03*
Y547835D03*
X109496Y157244D03*
Y167087D03*
Y178898D03*
Y188740D03*
Y230079D03*
Y237953D03*
Y249764D03*
Y287165D03*
X109575Y225748D03*
X109890Y220236D03*
X110087Y197244D03*
X110283Y277323D03*
X113118Y373425D03*
X113709Y69094D03*
X114496Y92717D03*
X117370Y259606D03*
X118236Y338976D03*
Y350787D03*
Y386220D03*
Y469094D03*
Y480906D03*
X119339Y287165D03*
X119535Y45472D03*
Y57283D03*
Y104528D03*
Y116339D03*
X120205Y504528D03*
Y516339D03*
X121307Y157244D03*
X121316Y217323D03*
X123079Y195433D03*
X123276Y228110D03*
Y239921D03*
Y253701D03*
X124929Y380118D03*
X125362Y128228D03*
X125441Y33740D03*
X127685Y359449D03*
X129181Y269291D03*
Y287165D03*
X129260Y174803D03*
X129654Y212272D03*
X130047Y380118D03*
X131346Y45472D03*
Y57283D03*
Y104528D03*
Y116339D03*
X132016Y338976D03*
Y350787D03*
Y386220D03*
Y469094D03*
Y480906D03*
Y504528D03*
Y516339D03*
X133118Y157244D03*
X135087Y186772D03*
Y194646D03*
Y204488D03*
Y216299D03*
Y228110D03*
Y239921D03*
Y253701D03*
X137331Y69094D03*
Y92717D03*
X139024Y287165D03*
X141071Y367913D03*
Y373425D03*
X143827Y338976D03*
Y350787D03*
X144220Y373819D03*
X144929Y157244D03*
Y167087D03*
Y178898D03*
Y188740D03*
Y198583D03*
Y210394D03*
Y222205D03*
Y234016D03*
Y245827D03*
Y257638D03*
Y271417D03*
Y283228D03*
X145126Y25787D03*
Y33661D03*
Y45472D03*
Y57283D03*
Y69094D03*
Y80906D03*
Y92717D03*
Y104528D03*
Y116339D03*
Y128150D03*
Y136024D03*
X145795Y386220D03*
Y469094D03*
Y480906D03*
Y504528D03*
Y516339D03*
X147370Y373425D03*
Y377953D03*
X155638Y307480D03*
Y315354D03*
Y327165D03*
Y338976D03*
Y350787D03*
Y374409D03*
Y386220D03*
Y398031D03*
Y409843D03*
Y417717D03*
X157606Y437598D03*
Y445472D03*
Y457283D03*
Y469094D03*
Y480906D03*
Y504528D03*
Y516339D03*
Y528150D03*
Y539961D03*
Y547835D03*
X163512Y350787D03*
Y374409D03*
X164929Y6614D03*
Y18425D03*
Y30236D03*
X165402Y480984D03*
Y504606D03*
X165480Y39685D03*
Y49528D03*
Y59370D03*
Y66260D03*
Y73150D03*
Y82992D03*
Y92835D03*
Y102677D03*
X167016Y157520D03*
Y169331D03*
Y181142D03*
Y190748D03*
Y200591D03*
Y210433D03*
Y217323D03*
Y224213D03*
Y234055D03*
Y243898D03*
Y253740D03*
Y261850D03*
Y273661D03*
Y285472D03*
X168866Y110945D03*
Y122756D03*
Y134567D03*
X169417Y327165D03*
Y338976D03*
Y386220D03*
Y398031D03*
X170717Y44843D03*
Y97638D03*
X171386Y457283D03*
Y469094D03*
Y516339D03*
Y528150D03*
X172252Y195906D03*
Y248701D03*
X174614Y6614D03*
X174732Y210630D03*
Y234252D03*
X174969Y58819D03*
Y82441D03*
X175323Y39685D03*
Y49528D03*
Y92835D03*
Y102677D03*
Y362598D03*
Y409764D03*
X175402Y315276D03*
X176701Y157520D03*
X176858Y190748D03*
Y200591D03*
Y243898D03*
Y253740D03*
X177213Y492795D03*
Y539961D03*
X177291Y445472D03*
X180638Y285472D03*
X180874Y44843D03*
Y97638D03*
X181228Y327165D03*
Y338976D03*
Y386220D03*
Y398031D03*
X182409Y195906D03*
Y248701D03*
X183197Y457283D03*
Y469094D03*
Y516339D03*
Y528150D03*
X185165Y39685D03*
Y49528D03*
Y92835D03*
Y102677D03*
X186425Y6614D03*
Y134567D03*
X186465Y118110D03*
X186543Y23622D03*
X186622Y269567D03*
X186701Y175079D03*
Y190748D03*
Y200591D03*
Y243898D03*
Y253740D03*
X187134Y350787D03*
Y374409D03*
X188512Y157520D03*
X189024Y480984D03*
Y504606D03*
X190362Y44843D03*
Y97638D03*
X191898Y195906D03*
Y248701D03*
X195008Y39685D03*
Y49528D03*
Y92835D03*
Y102677D03*
Y307480D03*
Y315354D03*
Y327165D03*
Y338976D03*
Y350787D03*
Y362598D03*
Y374409D03*
Y386220D03*
Y398031D03*
Y409843D03*
Y417717D03*
X196543Y190748D03*
Y200591D03*
Y243898D03*
Y253740D03*
X196976Y437598D03*
Y445472D03*
Y457283D03*
Y469094D03*
Y480906D03*
Y492717D03*
Y504528D03*
Y516339D03*
Y528150D03*
Y539961D03*
Y547835D03*
X198354Y234252D03*
X198591Y58819D03*
Y82835D03*
X198748Y210630D03*
X200047Y6614D03*
Y18425D03*
Y30236D03*
X200165Y44843D03*
Y97638D03*
X200323Y261850D03*
Y273661D03*
Y285472D03*
X201701Y195906D03*
Y248701D03*
X202134Y157520D03*
Y169331D03*
Y181142D03*
X202173Y110945D03*
Y122756D03*
Y134567D03*
X204850Y39685D03*
Y49528D03*
Y59370D03*
Y82992D03*
Y92835D03*
Y102677D03*
X206386Y190748D03*
Y200591D03*
Y210433D03*
Y234055D03*
Y243898D03*
Y253740D03*
X212213Y277441D03*
X214693Y39685D03*
Y49528D03*
Y59370D03*
Y82992D03*
Y92835D03*
Y102677D03*
Y307480D03*
Y315354D03*
Y327165D03*
Y338976D03*
Y350787D03*
Y362598D03*
Y374409D03*
Y386220D03*
Y398031D03*
Y409843D03*
Y417717D03*
X215953Y6614D03*
Y18425D03*
Y30236D03*
Y110945D03*
Y122756D03*
Y134567D03*
X216071Y285472D03*
X216228Y190748D03*
Y200591D03*
Y210433D03*
Y234055D03*
Y243898D03*
Y253740D03*
X216661Y437598D03*
Y445472D03*
Y457283D03*
Y469094D03*
Y480906D03*
Y492717D03*
Y504528D03*
Y516339D03*
Y528150D03*
Y539961D03*
Y547835D03*
X218039Y157520D03*
X222213Y277441D03*
X222567Y350787D03*
Y374409D03*
X224457Y480984D03*
Y504606D03*
X224535Y39685D03*
Y49528D03*
Y59370D03*
Y82992D03*
Y92835D03*
Y102677D03*
Y307480D03*
Y327165D03*
Y338976D03*
Y386220D03*
Y398031D03*
Y417717D03*
X226071Y190748D03*
Y200591D03*
Y210433D03*
Y234055D03*
Y243898D03*
Y253740D03*
X226504Y437598D03*
Y457283D03*
Y469094D03*
Y516339D03*
Y528150D03*
Y547835D03*
X231701Y6614D03*
Y18425D03*
Y30236D03*
Y110945D03*
Y122756D03*
Y134567D03*
X231819Y285472D03*
X232213Y277441D03*
X233787Y157520D03*
X234378Y39685D03*
Y49528D03*
Y59370D03*
Y82992D03*
Y92835D03*
Y102677D03*
Y362598D03*
Y409764D03*
X234457Y315276D03*
X235913Y190748D03*
Y200591D03*
Y210433D03*
Y234055D03*
Y243898D03*
Y253740D03*
X236268Y492795D03*
Y539961D03*
X236346Y327165D03*
Y338976D03*
Y386220D03*
Y398031D03*
Y445472D03*
X238315Y457283D03*
Y469094D03*
Y516339D03*
Y528150D03*
X244220Y39685D03*
Y49528D03*
Y59370D03*
Y82992D03*
Y92835D03*
Y102677D03*
X245756Y190748D03*
Y200591D03*
Y210433D03*
Y234055D03*
Y243898D03*
Y253740D03*
X246189Y350787D03*
Y374409D03*
X247449Y6614D03*
Y18425D03*
Y30236D03*
Y110945D03*
Y122756D03*
Y134567D03*
X247567Y275630D03*
Y285472D03*
X248079Y480984D03*
Y504606D03*
X248157Y307480D03*
Y327165D03*
Y338976D03*
Y386220D03*
Y398031D03*
Y417717D03*
X249535Y157520D03*
X249614Y44173D03*
Y49370D03*
X250126Y437598D03*
Y457283D03*
Y469094D03*
Y516339D03*
Y528150D03*
Y547835D03*
X254063Y82992D03*
Y92835D03*
Y102677D03*
X254378Y200591D03*
Y210433D03*
X254614Y39685D03*
Y49528D03*
Y59370D03*
X254811Y190748D03*
X255598Y234055D03*
Y243898D03*
Y253740D03*
X259811Y186654D03*
X262921Y194882D03*
X263197Y6614D03*
Y18425D03*
Y30236D03*
Y110945D03*
Y122756D03*
Y134567D03*
X263236Y39685D03*
Y49528D03*
Y59370D03*
X263315Y285472D03*
X263669Y82992D03*
Y92835D03*
Y102677D03*
X265283Y157520D03*
X265441Y234055D03*
Y243898D03*
Y253740D03*
X265953Y186654D03*
X270323Y190748D03*
X270638Y230512D03*
X270756Y200591D03*
Y210433D03*
X271346Y234055D03*
X271976Y307480D03*
Y327165D03*
Y338976D03*
Y386220D03*
Y398031D03*
Y417717D03*
Y437598D03*
Y457283D03*
Y469094D03*
Y516339D03*
Y528150D03*
Y547835D03*
X273079Y39685D03*
Y49528D03*
Y59370D03*
X273512Y82992D03*
Y92835D03*
Y102677D03*
X273945Y350787D03*
Y374409D03*
X274142Y480906D03*
Y504528D03*
X274575Y230512D03*
X275126Y263819D03*
X275283Y234055D03*
Y243898D03*
Y253740D03*
X275520Y225984D03*
X278512Y230551D03*
X278945Y6614D03*
Y18425D03*
Y30236D03*
Y110945D03*
Y122756D03*
Y134567D03*
X279063Y285472D03*
X279378Y190748D03*
Y200591D03*
Y210433D03*
X279535Y224606D03*
X280559Y218701D03*
X281031Y157520D03*
X282803Y215000D03*
X282921Y39685D03*
Y49528D03*
Y59370D03*
X283354Y82992D03*
Y92835D03*
Y102677D03*
X283787Y223228D03*
Y327165D03*
Y338976D03*
Y386220D03*
Y398031D03*
Y457283D03*
Y469094D03*
Y516339D03*
Y528150D03*
X284496Y218701D03*
X284575Y244488D03*
Y255118D03*
X285677Y409921D03*
X285756Y315433D03*
Y362598D03*
X285874Y540039D03*
X285953Y445551D03*
Y492717D03*
X286307Y192992D03*
Y202835D03*
Y212677D03*
X286583Y216142D03*
X288433Y218740D03*
X289969Y92835D03*
X290165Y82992D03*
X292764Y39685D03*
Y49528D03*
Y59370D03*
X292843Y195709D03*
Y205551D03*
Y215394D03*
X293197Y102677D03*
X293630Y275984D03*
X294693Y6614D03*
Y18425D03*
Y30236D03*
Y110945D03*
Y122756D03*
Y134567D03*
X294811Y285472D03*
X295598Y307480D03*
Y327165D03*
Y338976D03*
Y386220D03*
Y398031D03*
Y417717D03*
Y437598D03*
Y457283D03*
Y469094D03*
Y516339D03*
Y528150D03*
Y547835D03*
X295913Y92677D03*
Y97520D03*
X296780Y157520D03*
X297567Y350787D03*
Y374409D03*
X297764Y480906D03*
Y504528D03*
X300717Y275630D03*
X302606Y39685D03*
Y49528D03*
Y59370D03*
X302685Y195709D03*
Y205551D03*
Y215394D03*
X302764Y239016D03*
Y248071D03*
X302843Y82795D03*
Y92638D03*
Y102480D03*
X305441Y307480D03*
Y315354D03*
Y327165D03*
Y338976D03*
Y350787D03*
Y362598D03*
Y374409D03*
Y386220D03*
Y398031D03*
Y409843D03*
Y417717D03*
Y437598D03*
Y445472D03*
Y457283D03*
Y469094D03*
Y480906D03*
Y492717D03*
Y504528D03*
Y516339D03*
Y528150D03*
Y539961D03*
Y547835D03*
X310441Y6614D03*
Y18425D03*
Y30236D03*
Y110945D03*
Y122756D03*
Y134567D03*
X310559Y261850D03*
Y273661D03*
Y285472D03*
X312094Y214843D03*
X312213Y39685D03*
Y49528D03*
Y59370D03*
X312449Y82795D03*
Y92638D03*
Y102480D03*
X312528Y157520D03*
Y195709D03*
Y205551D03*
X312606Y239016D03*
Y248071D03*
X320008Y213386D03*
X321189Y194134D03*
Y203976D03*
X322055Y39685D03*
Y49528D03*
Y59370D03*
X322291Y82795D03*
Y92638D03*
Y102480D03*
X324339Y234488D03*
Y243937D03*
X325126Y307480D03*
Y315354D03*
Y327165D03*
Y338976D03*
Y350787D03*
Y362598D03*
Y374409D03*
Y386220D03*
Y398031D03*
Y409843D03*
Y417717D03*
Y437598D03*
Y445472D03*
Y457283D03*
Y469094D03*
Y480906D03*
Y492717D03*
Y504528D03*
Y516339D03*
Y528150D03*
Y539961D03*
Y547835D03*
X326189Y6614D03*
Y18425D03*
Y30236D03*
Y110945D03*
Y122756D03*
Y134567D03*
X326307Y261850D03*
Y273661D03*
Y285472D03*
X328276Y157520D03*
X329339Y82795D03*
Y92638D03*
Y102480D03*
X329929Y39488D03*
Y49331D03*
Y59173D03*
X329969Y190787D03*
Y200630D03*
Y210472D03*
X332213Y234094D03*
Y243937D03*
X333000Y350787D03*
Y374409D03*
X333197Y480906D03*
Y504528D03*
X338236Y39488D03*
X338906Y327165D03*
Y338976D03*
Y386220D03*
Y398031D03*
Y457283D03*
Y469094D03*
Y516339D03*
Y528150D03*
X339102Y44882D03*
Y48976D03*
X339181Y82795D03*
Y92638D03*
Y102480D03*
X339811Y190787D03*
Y200630D03*
Y210472D03*
X340756Y234291D03*
Y243937D03*
Y253780D03*
X341937Y6614D03*
Y18425D03*
Y30236D03*
Y110945D03*
Y122756D03*
Y134567D03*
X342055Y261850D03*
Y273661D03*
Y285472D03*
X344024Y157520D03*
X344732Y409921D03*
X344811Y315433D03*
Y362598D03*
X344929Y540039D03*
X345008Y445551D03*
Y492717D03*
X347055Y39488D03*
Y49331D03*
X347961Y212992D03*
X348630Y190787D03*
Y200630D03*
X349024Y82795D03*
Y92638D03*
Y102480D03*
X350598Y234094D03*
Y243937D03*
Y253780D03*
X350717Y327165D03*
Y338976D03*
Y386220D03*
Y398031D03*
Y457283D03*
Y469094D03*
Y516339D03*
Y528150D03*
X352724Y54724D03*
X354299Y206024D03*
X356622Y350787D03*
Y374409D03*
X356819Y480906D03*
Y504528D03*
X356898Y39488D03*
Y49331D03*
X357685Y110945D03*
Y122756D03*
Y134567D03*
X357803Y261850D03*
Y273661D03*
Y285472D03*
X358472Y190787D03*
Y200630D03*
X358866Y92638D03*
Y102480D03*
X359654Y6614D03*
X359811Y18425D03*
Y30236D03*
X360441Y243937D03*
Y253780D03*
X361740Y157520D03*
X361858Y44724D03*
X361898Y169331D03*
Y181142D03*
X363433Y196024D03*
X363709Y234252D03*
X363906Y97402D03*
X363945Y58425D03*
Y82835D03*
X364102Y210630D03*
X364496Y307480D03*
Y315354D03*
Y327165D03*
Y338976D03*
Y350787D03*
Y374409D03*
Y386220D03*
Y398031D03*
Y409843D03*
Y417717D03*
Y437598D03*
Y445472D03*
Y457283D03*
Y469094D03*
Y480906D03*
Y504528D03*
Y516339D03*
Y528150D03*
Y539961D03*
Y547835D03*
X365480Y248701D03*
X366740Y39488D03*
Y49331D03*
X368315Y190787D03*
Y200630D03*
X368709Y92638D03*
Y102480D03*
X369496Y6614D03*
X370283Y243937D03*
Y253780D03*
X371583Y157520D03*
X372016Y44724D03*
X372370Y338976D03*
Y384252D03*
X373433Y134567D03*
X373551Y285472D03*
X373591Y196024D03*
X374063Y97402D03*
X374339Y469094D03*
Y480906D03*
X375520Y117953D03*
X375598Y23465D03*
Y269488D03*
X375638Y248701D03*
X375677Y175000D03*
X376307Y504528D03*
Y516339D03*
X376583Y39488D03*
Y49331D03*
X378157Y190787D03*
Y200630D03*
X378276Y350787D03*
Y374409D03*
X378551Y92638D03*
Y102480D03*
X380126Y243937D03*
Y253780D03*
X381307Y6614D03*
X381504Y44724D03*
X383079Y196024D03*
X383394Y157520D03*
X383551Y97402D03*
X384181Y338976D03*
Y384252D03*
X385126Y248701D03*
X386425Y39488D03*
Y49331D03*
X387173Y58819D03*
Y82835D03*
X387331Y210630D03*
X387724Y234646D03*
X388000Y190787D03*
Y200630D03*
X388118Y469094D03*
Y480906D03*
Y504528D03*
Y516339D03*
X388394Y92638D03*
Y102480D03*
X389181Y134567D03*
X389299Y285472D03*
X389969Y243937D03*
Y253780D03*
X390087Y350787D03*
Y374409D03*
X391307Y44724D03*
X392882Y196024D03*
X393354Y97402D03*
X394929Y6614D03*
Y18425D03*
Y30236D03*
Y248701D03*
X395992Y338976D03*
Y384252D03*
X396268Y39488D03*
Y49331D03*
Y59173D03*
Y66063D03*
Y72953D03*
Y82795D03*
Y92638D03*
Y102480D03*
X397016Y157520D03*
Y169331D03*
Y181142D03*
X397055Y110945D03*
Y122756D03*
X397173Y261850D03*
Y273661D03*
X397843Y190787D03*
Y200630D03*
Y210472D03*
Y217362D03*
Y224252D03*
Y234094D03*
Y243937D03*
Y253780D03*
X401898Y350787D03*
Y374409D03*
Y469094D03*
Y480906D03*
Y504528D03*
Y516339D03*
X407803Y338976D03*
Y384252D03*
X413709Y350787D03*
Y374409D03*
Y437598D03*
Y445472D03*
Y457283D03*
Y469094D03*
Y480906D03*
Y504528D03*
Y516339D03*
Y528150D03*
Y539961D03*
Y547835D03*
X417252Y204331D03*
X417843Y159252D03*
Y176969D03*
Y190748D03*
Y212402D03*
Y222244D03*
Y237992D03*
Y253740D03*
Y267520D03*
X419614Y338976D03*
Y384252D03*
X419811Y104134D03*
Y112008D03*
Y277362D03*
Y285236D03*
X421780Y480906D03*
Y504528D03*
X425520Y350787D03*
Y374409D03*
X426504Y43031D03*
X427488Y457283D03*
Y469094D03*
Y516339D03*
Y528150D03*
X427685Y119882D03*
Y135630D03*
Y151378D03*
X431425Y338976D03*
Y384252D03*
X432213Y108071D03*
Y281299D03*
X432311Y33031D03*
Y43031D03*
Y53031D03*
Y63031D03*
X433512Y540039D03*
X433591Y445551D03*
Y492717D03*
X437331Y350787D03*
Y374409D03*
X438315Y210039D03*
X439299Y457283D03*
Y469094D03*
Y516339D03*
Y528150D03*
X439496Y188386D03*
X442213Y108071D03*
Y281299D03*
X443236Y338976D03*
Y384252D03*
X445402Y480906D03*
Y504528D03*
X446189Y197441D03*
X446583Y209252D03*
X447370Y213386D03*
Y222244D03*
Y230118D03*
X449142Y350787D03*
Y374409D03*
X450126Y189961D03*
X451307Y257677D03*
X452094Y249803D03*
X452213Y108071D03*
Y281299D03*
X453079Y437598D03*
Y445472D03*
Y457283D03*
Y469094D03*
Y480906D03*
Y492717D03*
Y504528D03*
Y516339D03*
Y528150D03*
Y539961D03*
Y547835D03*
X455047Y338976D03*
Y384252D03*
X456425Y120276D03*
Y135630D03*
Y151378D03*
Y167126D03*
Y182874D03*
X457213Y202559D03*
Y210433D03*
Y265551D03*
X459181Y230118D03*
X461150Y206496D03*
Y223425D03*
Y257677D03*
X462213Y108071D03*
Y281299D03*
X462921Y307480D03*
Y315354D03*
Y327165D03*
Y338976D03*
Y350787D03*
Y374409D03*
Y386220D03*
Y398031D03*
Y409843D03*
Y417717D03*
X463118Y189961D03*
X465087Y202559D03*
Y210433D03*
X469024Y249803D03*
X470598Y350787D03*
Y374409D03*
X472213Y108071D03*
Y281299D03*
X472764Y437598D03*
Y445472D03*
Y457283D03*
Y469094D03*
Y480906D03*
Y492717D03*
Y504528D03*
Y516339D03*
Y528150D03*
Y539961D03*
Y547835D03*
X472961Y191929D03*
X473748Y221260D03*
X476701Y327165D03*
Y338976D03*
Y386220D03*
Y398031D03*
X477291Y135630D03*
Y151378D03*
Y167126D03*
Y182874D03*
X478866Y123819D03*
X479575Y249803D03*
X479654Y226378D03*
X480835Y480906D03*
Y504528D03*
X482213Y108071D03*
Y281299D03*
X482449Y409921D03*
X482528Y315433D03*
X482606Y437598D03*
Y457283D03*
Y469094D03*
Y516339D03*
Y528150D03*
Y547835D03*
X488512Y327165D03*
Y338976D03*
Y386220D03*
Y398031D03*
X488709Y257677D03*
X492567Y540039D03*
X492646Y112008D03*
Y127756D03*
Y143504D03*
Y159252D03*
Y175000D03*
Y190748D03*
Y265551D03*
Y445551D03*
Y492717D03*
X493354Y216732D03*
Y250197D03*
X493433Y201772D03*
X494220Y374409D03*
X494417Y350984D03*
Y457283D03*
Y469094D03*
Y516339D03*
Y528150D03*
X494614Y104134D03*
Y277362D03*
Y285236D03*
X502291Y307480D03*
Y315354D03*
Y327165D03*
Y338976D03*
Y350787D03*
Y362598D03*
Y374409D03*
Y386220D03*
Y398031D03*
Y409843D03*
Y417717D03*
X504457Y480906D03*
Y504528D03*
X506228Y437598D03*
Y457283D03*
Y469094D03*
Y516339D03*
Y528150D03*
Y547835D03*
X523748Y120866D03*
Y130866D03*
Y140866D03*
Y150866D03*
Y160866D03*
Y170866D03*
Y180866D03*
Y190866D03*
X529260Y33071D03*
X529555Y43031D03*
Y53031D03*
Y63031D03*
X533748Y120866D03*
Y130866D03*
Y140866D03*
Y150866D03*
Y160866D03*
Y170866D03*
Y180866D03*
Y190866D03*
X538315Y27953D03*
X551307Y23622D03*
Y33622D03*
Y43622D03*
Y53622D03*
Y63622D03*
Y73622D03*
X555638Y119606D03*
Y129606D03*
Y139606D03*
Y149606D03*
Y159606D03*
Y169606D03*
X0Y0D02*
M02*
