G04 DesignSpark PCB Gerber Version 9.0 Build 5115 *
G04 #@! TF.Part,Single*
G04 #@! TF.FileFunction,Copper,L1,Top *
G04 #@! TF.FilePolarity,Positive *
%FSLAX35Y35*%
%MOIN*%
G04 #@! TA.AperFunction,ComponentPad*
%ADD73O,0.06000X0.11000*%
G04 #@! TA.AperFunction,SMDPad,CuDef*
%ADD77R,0.01181X0.03346*%
%ADD75R,0.02165X0.04134*%
%ADD27R,0.02800X0.03500*%
%ADD29R,0.05500X0.06000*%
G04 #@! TA.AperFunction,ComponentPad*
%ADD80R,0.06000X0.06000*%
G04 #@! TA.AperFunction,SMDPad,CuDef*
%ADD78R,0.11024X0.11024*%
G04 #@! TD.AperFunction*
%ADD11C,0.00197*%
%ADD10C,0.00394*%
%ADD12C,0.01000*%
%ADD70C,0.01181*%
%ADD14C,0.01969*%
%ADD15C,0.02953*%
%ADD21C,0.03150*%
G04 #@! TA.AperFunction,ViaPad*
%ADD17C,0.03346*%
G04 #@! TD.AperFunction*
%ADD16C,0.03937*%
G04 #@! TA.AperFunction,ViaPad*
%ADD18C,0.04000*%
G04 #@! TD.AperFunction*
%ADD71C,0.04331*%
%ADD20C,0.05512*%
%ADD19C,0.05906*%
%ADD13C,0.07480*%
G04 #@! TA.AperFunction,ComponentPad*
%ADD26C,0.07874*%
G04 #@! TA.AperFunction,SMDPad,CuDef*
%ADD23C,0.08071*%
G04 #@! TA.AperFunction,ComponentPad*
%ADD82O,0.11000X0.06000*%
G04 #@! TA.AperFunction,SMDPad,CuDef*
%ADD76R,0.03346X0.01181*%
%ADD79R,0.03740X0.01575*%
%ADD28R,0.03500X0.02800*%
%ADD74R,0.07087X0.04528*%
%ADD81R,0.05906X0.05118*%
%ADD72R,0.06000X0.05500*%
%ADD24R,0.09843X0.09843*%
G04 #@! TA.AperFunction,ComponentPad*
%ADD25C,0.17717*%
X0Y0D02*
D02*
D10*
X9969Y139961D02*
Y22441D01*
X62449*
Y53346*
X99850*
Y22441*
X158787*
G75*
G02X159969Y21990J-1772*
G01*
Y23089*
G75*
G02X158787Y22638I-1181J1320*
G01*
X150913*
G75*
G02X149142Y24409J1772*
G01*
Y40157*
G75*
G02X150913Y41929I1772*
G01*
X158787*
G75*
G02X159969Y41478J-1772*
G01*
Y42774*
G75*
G02X158787Y42323I-1181J1320*
G01*
X150913*
G75*
G02X149142Y44094J1772*
G01*
Y59843*
G75*
G02X150913Y61614I1772*
G01*
X158787*
G75*
G02X159969Y61163J-1772*
G01*
Y62459*
G75*
G02X158787Y62008I-1181J1320*
G01*
X150913*
G75*
G02X149142Y63780J1772*
G01*
Y79528*
G75*
G02X150913Y81299I1772*
G01*
X158787*
G75*
G02X159969Y80848J-1772*
G01*
Y82351*
G75*
G02X158591Y81693I-1378J1113*
G01*
X150717*
G75*
G02X148945Y83465J1772*
G01*
Y99213*
G75*
G02X150717Y100984I1772*
G01*
X158591*
G75*
G02X159969Y100326J-1772*
G01*
Y102036*
G75*
G02X158591Y101378I-1378J1113*
G01*
X150717*
G75*
G02X148945Y103150J1772*
G01*
Y118898*
G75*
G02X150717Y120669I1772*
G01*
X158591*
G75*
G02X159969Y120011J-1772*
G01*
Y121721*
G75*
G02X158591Y121063I-1378J1113*
G01*
X150717*
G75*
G02X148945Y122835J1772*
G01*
Y138583*
G75*
G02X149603Y139961I1772*
G01*
X101819*
Y108465*
X62449*
Y139961*
X9969*
X113630Y92717D02*
X137252D01*
Y69094*
X113630*
Y74016*
X48669*
Y69094*
X25047*
Y92717*
X48669*
Y87795*
X113630*
Y92717*
X10165Y80906D02*
G36*
Y22441D01*
X62449*
Y53346*
X99850*
Y22441*
X158787*
G75*
G02X159702Y22187I1J-1769*
G01*
X159772*
Y22936*
G75*
G02X158787Y22638I-983J1471*
G01*
X150913*
G75*
G02X149142Y24409J1772*
G01*
Y40157*
G75*
G02X150913Y41929I1772*
G01*
X158787*
G75*
G02X159772Y41631I1J-1770*
G01*
Y42621*
G75*
G02X158787Y42323I-983J1471*
G01*
X150913*
G75*
G02X149142Y44094J1772*
G01*
Y59843*
G75*
G02X150913Y61614I1772*
G01*
X158787*
G75*
G02X159772Y61316I1J-1770*
G01*
Y62306*
G75*
G02X158787Y62008I-983J1471*
G01*
X150913*
G75*
G02X149142Y63780J1772*
G01*
Y79528*
G75*
G02X149800Y80906I1772*
G01*
X137252*
Y69094*
X113630*
Y74016*
X48669*
Y69094*
X25047*
Y80906*
X10165*
G37*
Y139764D02*
G36*
Y80906D01*
X25047*
Y92717*
X48669*
Y87795*
X113630*
Y92717*
X137252*
Y80906*
X149800*
G75*
G02X150913Y81299I1113J-1378*
G01*
X158787*
G75*
G02X159772Y81001I1J-1770*
G01*
Y82144*
G75*
G02X158591Y81693I-1182J1322*
G01*
X150717*
G75*
G02X148945Y83465J1772*
G01*
Y99213*
G75*
G02X150717Y100984I1772*
G01*
X158591*
G75*
G02X159772Y100533I-1J-1774*
G01*
Y101830*
G75*
G02X158591Y101378I-1182J1322*
G01*
X150717*
G75*
G02X148945Y103150J1772*
G01*
Y118898*
G75*
G02X150717Y120669I1772*
G01*
X158591*
G75*
G02X159772Y120218I-1J-1774*
G01*
Y121515*
G75*
G02X158591Y121063I-1182J1322*
G01*
X150717*
G75*
G02X148945Y122835J1772*
G01*
Y138583*
G75*
G02X149396Y139764I1774J-1*
G01*
X101819*
Y108465*
X62449*
Y139764*
X10165*
G37*
X9969Y153346D02*
Y140354D01*
X401898*
Y152362*
G75*
G02X402196Y153346I1772J0*
G01*
X9969*
X23945Y152559D02*
G75*
G02X25717Y150787J-1772D01*
G01*
Y142913*
G75*
G02X23945Y141142I-1772*
G01*
X13118*
G75*
G02X11346Y142913J1772*
G01*
Y150787*
G75*
G02X13118Y152559I1772*
G01*
X23945*
X43433Y152362D02*
G75*
G02X45205Y150591J-1772D01*
G01*
Y142717*
G75*
G02X43433Y140945I-1772*
G01*
X27685*
G75*
G02X25913Y142717J1772*
G01*
Y150591*
G75*
G02X27685Y152362I1772*
G01*
X43433*
X63118D02*
G75*
G02X64890Y150591J-1772D01*
G01*
Y142717*
G75*
G02X63118Y140945I-1772*
G01*
X48157*
G75*
G02X46386Y142717J1772*
G01*
Y150591*
G75*
G02X48157Y152362I1772*
G01*
X63118*
X82606D02*
G75*
G02X84378Y150591J-1772D01*
G01*
Y142717*
G75*
G02X82606Y140945I-1772*
G01*
X66858*
G75*
G02X65087Y142717J1772*
G01*
Y150591*
G75*
G02X66858Y152362I1772*
G01*
X82606*
X102488D02*
G75*
G02X104260Y150591J-1772D01*
G01*
Y142717*
G75*
G02X102488Y140945I-1772*
G01*
X86740*
G75*
G02X84969Y142717J1772*
G01*
Y150591*
G75*
G02X86740Y152362I1772*
G01*
X102488*
X122173D02*
G75*
G02X123945Y150591J-1772D01*
G01*
Y142717*
G75*
G02X122173Y140945I-1772*
G01*
X106425*
G75*
G02X104654Y142717J1772*
G01*
Y150591*
G75*
G02X106425Y152362I1772*
G01*
X122173*
X142055D02*
G75*
G02X143827Y150591J-1772D01*
G01*
Y142717*
G75*
G02X142055Y140945I-1772*
G01*
X126307*
G75*
G02X124535Y142717J1772*
G01*
Y150591*
G75*
G02X126307Y152362I1772*
G01*
X142055*
X160756D02*
G75*
G02X162528Y150591J-1772D01*
G01*
Y142717*
G75*
G02X160756Y140945I-1772*
G01*
X145795*
G75*
G02X144024Y142717J1772*
G01*
Y150591*
G75*
G02X145795Y152362I1772*
G01*
X160756*
X181228D02*
G75*
G02X183000Y150591J-1772D01*
G01*
Y142717*
G75*
G02X181228Y140945I-1772*
G01*
X165480*
G75*
G02X163709Y142717J1772*
G01*
Y150591*
G75*
G02X165480Y152362I1772*
G01*
X181228*
X200913D02*
G75*
G02X202685Y150591J-1772D01*
G01*
Y142717*
G75*
G02X200913Y140945I-1772*
G01*
X185165*
G75*
G02X183394Y142717J1772*
G01*
Y150591*
G75*
G02X185165Y152362I1772*
G01*
X200913*
X220598D02*
G75*
G02X222370Y150591J-1772D01*
G01*
Y142717*
G75*
G02X220598Y140945I-1772*
G01*
X204850*
G75*
G02X203079Y142717J1772*
G01*
Y150591*
G75*
G02X204850Y152362I1772*
G01*
X220598*
X240283D02*
G75*
G02X242055Y150591J-1772D01*
G01*
Y142717*
G75*
G02X240283Y140945I-1772*
G01*
X224535*
G75*
G02X222764Y142717J1772*
G01*
Y150591*
G75*
G02X224535Y152362I1772*
G01*
X240283*
X259969D02*
G75*
G02X261740Y150591J-1772D01*
G01*
Y142717*
G75*
G02X259969Y140945I-1772*
G01*
X244220*
G75*
G02X242449Y142717J1772*
G01*
Y150591*
G75*
G02X244220Y152362I1772*
G01*
X259969*
X279654D02*
G75*
G02X281425Y150591J-1772D01*
G01*
Y142717*
G75*
G02X279654Y140945I-1772*
G01*
X263906*
G75*
G02X262134Y142717J1772*
G01*
Y150591*
G75*
G02X263906Y152362I1772*
G01*
X279654*
X299339D02*
G75*
G02X301110Y150591J-1772D01*
G01*
Y142717*
G75*
G02X299339Y140945I-1772*
G01*
X283591*
G75*
G02X281819Y142717J1772*
G01*
Y150591*
G75*
G02X283591Y152362I1772*
G01*
X299339*
X319024D02*
G75*
G02X320795Y150591J-1772D01*
G01*
Y142717*
G75*
G02X319024Y140945I-1772*
G01*
X303276*
G75*
G02X301504Y142717J1772*
G01*
Y150591*
G75*
G02X303276Y152362I1772*
G01*
X319024*
X338709D02*
G75*
G02X340480Y150591J-1772D01*
G01*
Y142717*
G75*
G02X338709Y140945I-1772*
G01*
X322961*
G75*
G02X321189Y142717J1772*
G01*
Y150591*
G75*
G02X322961Y152362I1772*
G01*
X338709*
X358394D02*
G75*
G02X360165Y150591J-1772D01*
G01*
Y142717*
G75*
G02X358394Y140945I-1772*
G01*
X342646*
G75*
G02X340874Y142717J1772*
G01*
Y150591*
G75*
G02X342646Y152362I1772*
G01*
X358394*
X378079D02*
G75*
G02X379850Y150591J-1772D01*
G01*
Y142717*
G75*
G02X378079Y140945I-1772*
G01*
X362331*
G75*
G02X360559Y142717J1772*
G01*
Y150591*
G75*
G02X362331Y152362I1772*
G01*
X378079*
X397764D02*
G75*
G02X399535Y150591J-1772D01*
G01*
Y142717*
G75*
G02X397764Y140945I-1772*
G01*
X382016*
G75*
G02X380244Y142717J1772*
G01*
Y150591*
G75*
G02X382016Y152362I1772*
G01*
X397764*
X10165Y146850D02*
G36*
Y140551D01*
X401898*
Y146850*
X399535*
Y142717*
G75*
G02X397764Y140945I-1772*
G01*
X382016*
G75*
G02X380244Y142717J1772*
G01*
Y146850*
X379850*
Y142717*
G75*
G02X378079Y140945I-1772*
G01*
X362331*
G75*
G02X360559Y142717J1772*
G01*
Y146850*
X360165*
Y142717*
G75*
G02X358394Y140945I-1772*
G01*
X342646*
G75*
G02X340874Y142717J1772*
G01*
Y146850*
X340480*
Y142717*
G75*
G02X338709Y140945I-1772*
G01*
X322961*
G75*
G02X321189Y142717J1772*
G01*
Y146850*
X320795*
Y142717*
G75*
G02X319024Y140945I-1772*
G01*
X303276*
G75*
G02X301504Y142717J1772*
G01*
Y146850*
X301110*
Y142717*
G75*
G02X299339Y140945I-1772*
G01*
X283591*
G75*
G02X281819Y142717J1772*
G01*
Y146850*
X281425*
Y142717*
G75*
G02X279654Y140945I-1772*
G01*
X263906*
G75*
G02X262134Y142717J1772*
G01*
Y146850*
X261740*
Y142717*
G75*
G02X259969Y140945I-1772*
G01*
X244220*
G75*
G02X242449Y142717J1772*
G01*
Y146850*
X242055*
Y142717*
G75*
G02X240283Y140945I-1772*
G01*
X224535*
G75*
G02X222764Y142717J1772*
G01*
Y146850*
X222370*
Y142717*
G75*
G02X220598Y140945I-1772*
G01*
X204850*
G75*
G02X203079Y142717J1772*
G01*
Y146850*
X202685*
Y142717*
G75*
G02X200913Y140945I-1772*
G01*
X185165*
G75*
G02X183394Y142717J1772*
G01*
Y146850*
X183000*
Y142717*
G75*
G02X181228Y140945I-1772*
G01*
X165480*
G75*
G02X163709Y142717J1772*
G01*
Y146850*
X162528*
Y142717*
G75*
G02X160756Y140945I-1772*
G01*
X145795*
G75*
G02X144024Y142717J1772*
G01*
Y146850*
X143827*
Y142717*
G75*
G02X142055Y140945I-1772*
G01*
X126307*
G75*
G02X124535Y142717J1772*
G01*
Y146850*
X123945*
Y142717*
G75*
G02X122173Y140945I-1772*
G01*
X106425*
G75*
G02X104654Y142717J1772*
G01*
Y146850*
X104260*
Y142717*
G75*
G02X102488Y140945I-1772*
G01*
X86740*
G75*
G02X84969Y142717J1772*
G01*
Y146850*
X84378*
Y142717*
G75*
G02X82606Y140945I-1772*
G01*
X66858*
G75*
G02X65087Y142717J1772*
G01*
Y146850*
X64890*
Y142717*
G75*
G02X63118Y140945I-1772*
G01*
X48157*
G75*
G02X46386Y142717J1772*
G01*
Y146850*
X45205*
Y142717*
G75*
G02X43433Y140945I-1772*
G01*
X27685*
G75*
G02X25913Y142717J1772*
G01*
Y146850*
X25717*
Y142913*
G75*
G02X23945Y141142I-1772*
G01*
X13118*
G75*
G02X11346Y142913J1772*
G01*
Y146850*
X10165*
G37*
Y153150D02*
G36*
Y146850D01*
X11346*
Y150787*
G75*
G02X13118Y152559I1772*
G01*
X23945*
G75*
G02X25717Y150787J-1772*
G01*
Y146850*
X25913*
Y150591*
G75*
G02X27685Y152362I1772*
G01*
X43433*
G75*
G02X45205Y150591J-1772*
G01*
Y146850*
X46386*
Y150591*
G75*
G02X48157Y152362I1772*
G01*
X63118*
G75*
G02X64890Y150591J-1772*
G01*
Y146850*
X65087*
Y150591*
G75*
G02X66858Y152362I1772*
G01*
X82606*
G75*
G02X84378Y150591J-1772*
G01*
Y146850*
X84969*
Y150591*
G75*
G02X86740Y152362I1772*
G01*
X102488*
G75*
G02X104260Y150591J-1772*
G01*
Y146850*
X104654*
Y150591*
G75*
G02X106425Y152362I1772*
G01*
X122173*
G75*
G02X123945Y150591J-1772*
G01*
Y146850*
X124535*
Y150591*
G75*
G02X126307Y152362I1772*
G01*
X142055*
G75*
G02X143827Y150591J-1772*
G01*
Y146850*
X144024*
Y150591*
G75*
G02X145795Y152362I1772*
G01*
X160756*
G75*
G02X162528Y150591J-1772*
G01*
Y146850*
X163709*
Y150591*
G75*
G02X165480Y152362I1772*
G01*
X181228*
G75*
G02X183000Y150591J-1772*
G01*
Y146850*
X183394*
Y150591*
G75*
G02X185165Y152362I1772*
G01*
X200913*
G75*
G02X202685Y150591J-1772*
G01*
Y146850*
X203079*
Y150591*
G75*
G02X204850Y152362I1772*
G01*
X220598*
G75*
G02X222370Y150591J-1772*
G01*
Y146850*
X222764*
Y150591*
G75*
G02X224535Y152362I1772*
G01*
X240283*
G75*
G02X242055Y150591J-1772*
G01*
Y146850*
X242449*
Y150591*
G75*
G02X244220Y152362I1772*
G01*
X259969*
G75*
G02X261740Y150591J-1772*
G01*
Y146850*
X262134*
Y150591*
G75*
G02X263906Y152362I1772*
G01*
X279654*
G75*
G02X281425Y150591J-1772*
G01*
Y146850*
X281819*
Y150591*
G75*
G02X283591Y152362I1772*
G01*
X299339*
G75*
G02X301110Y150591J-1772*
G01*
Y146850*
X301504*
Y150591*
G75*
G02X303276Y152362I1772*
G01*
X319024*
G75*
G02X320795Y150591J-1772*
G01*
Y146850*
X321189*
Y150591*
G75*
G02X322961Y152362I1772*
G01*
X338709*
G75*
G02X340480Y150591J-1772*
G01*
Y146850*
X340874*
Y150591*
G75*
G02X342646Y152362I1772*
G01*
X358394*
G75*
G02X360165Y150591J-1772*
G01*
Y146850*
X360559*
Y150591*
G75*
G02X362331Y152362I1772*
G01*
X378079*
G75*
G02X379850Y150591J-1772*
G01*
Y146850*
X380244*
Y150591*
G75*
G02X382016Y152362I1772*
G01*
X397764*
G75*
G02X399535Y150591J-1772*
G01*
Y146850*
X401898*
Y152362*
G75*
G02X401999Y152953I1776J-1*
G01*
Y153150*
X10165*
G37*
X9969Y291890D02*
Y152126D01*
X11957*
G75*
G02X13118Y152559I1161J-1339*
G01*
X23945*
G75*
G02X25106Y152126J-1772*
G01*
X59850*
X60283Y152559*
Y186772*
X64220Y190709*
X97685*
X101622Y186772*
Y152205*
X101701Y152126*
X161543*
Y291890*
X159278*
G75*
G02X160165Y290354I-884J-1535*
G01*
Y274606*
G75*
G02X158394Y272835I-1772*
G01*
X150520*
G75*
G02X148748Y274606J1772*
G01*
Y290354*
G75*
G02X149636Y291890I1772*
G01*
X9969*
X123580Y214870D02*
X129362D01*
Y209673*
X123469*
Y210083*
X123088*
Y208354*
X126616*
Y200780*
X119541*
Y203020*
X117929*
Y202602*
X112854*
Y206980*
X117929*
Y206563*
X119541*
Y208354*
X119544*
Y210083*
X118780*
Y210500*
X115402*
Y209213*
X111071*
Y207843*
X112276*
Y206980*
X112831*
Y202602*
X112685*
Y197260*
X107488*
Y203154*
X107756*
Y206980*
X107898*
Y207843*
X108315*
Y209213*
X107921*
Y209417*
X107732*
X105559Y207244*
X91780*
X90205Y208819*
Y214331*
X89024Y215512*
X46504*
Y210394*
X22882*
Y234409*
X46504*
Y229291*
X84693*
Y227717*
X99260*
X102016Y224961*
Y217480*
X103197Y216299*
X107921*
Y215906*
X115402*
Y214043*
X118780*
Y214461*
X119052*
Y215696*
G75*
G02X118529Y217323I2264J1626*
G01*
G75*
G02X124104I2787*
G01*
G75*
G02X123580Y215696I-2787*
G01*
Y214870*
X119132Y199764D02*
X127026D01*
Y191370*
X119132*
Y199764*
X56496Y279823D02*
G75*
G02X64071I3787D01*
G01*
Y274823*
G75*
G02X56496I-3787*
G01*
Y279823*
X66496D02*
G75*
G02X74071I3787D01*
G01*
Y274823*
G75*
G02X66496I-3787*
G01*
Y279823*
X74053Y250169D02*
X81947D01*
Y241776*
X74053*
Y250169*
X86274Y258760D02*
X93348D01*
Y251185*
X86274*
Y253201*
X81537*
Y251185*
X74463*
Y258760*
X78512*
Y271475*
G75*
G02X76496Y274823I1772J3348*
G01*
Y279823*
G75*
G02X84071I3787*
G01*
Y274823*
G75*
G02X82055Y271475I-3787*
G01*
Y257256*
G75*
G02X81980Y256744I-1772*
G01*
X86274*
Y258760*
X116764Y254122D02*
G75*
G02X117331Y252756I-1363J-1366D01*
G01*
Y228898*
G75*
G02X116764Y227531I-1930*
G01*
X115362Y226130*
Y225748*
X115402*
Y219449*
X111972*
Y219244*
X111268*
Y219055*
G75*
G02X111071Y218858I-197*
G01*
X108315*
G75*
G02X108118Y219055J197*
G01*
Y219244*
X107413*
Y219449*
X103984*
Y221714*
G75*
G02Y223483I1890J885*
G01*
Y225748*
X104024*
Y226130*
X94681Y235472*
X92254*
G75*
G02X90910Y236015I-2J1930*
G01*
X88469Y238378*
G75*
G02X87882Y239764I1342J1386*
G01*
Y242185*
X86274*
Y249760*
X93348*
Y242185*
X91740*
Y240581*
X93033Y239331*
X95480*
G75*
G02X96846Y238764J-1930*
G01*
X107315Y228295*
G75*
G02X107882Y226929I-1363J-1366*
G01*
Y225772*
X108118*
Y226929*
G75*
G02X108315Y227126I197*
G01*
X111071*
G75*
G02X111268Y226929J-197*
G01*
Y225772*
X111504*
Y226929*
G75*
G02X112071Y228295I1930*
G01*
X113472Y229697*
Y251957*
X112240Y253189*
X105159*
Y251185*
X98085*
Y258760*
X99772*
Y261799*
X98921Y262650*
G75*
G02X98354Y264016I1363J1366*
G01*
Y271563*
G75*
G02X96496Y274823I1929J3259*
G01*
Y279823*
G75*
G02X104071I3787*
G01*
Y274823*
G75*
G02X102213Y271563I-3787*
G01*
Y264815*
X103063Y263965*
G75*
G02X103630Y262598I-1363J-1366*
G01*
Y258760*
X105159*
Y257047*
X113039*
G75*
G02X114406Y256480J-1930*
G01*
X116764Y254122*
X98085Y249760D02*
X105159D01*
Y242185*
X98085*
Y249760*
X86496Y279823D02*
G75*
G02X94071I3787D01*
G01*
Y274823*
G75*
G02X86496I-3787*
G01*
Y279823*
X158394Y173819D02*
G75*
G02X160165Y172047J-1772D01*
G01*
Y156299*
G75*
G02X158394Y154528I-1772*
G01*
X150520*
G75*
G02X148748Y156299J1772*
G01*
Y172047*
G75*
G02X150520Y173819I1772*
G01*
X158394*
Y193504D02*
G75*
G02X160165Y191732J-1772D01*
G01*
Y175984*
G75*
G02X158394Y174213I-1772*
G01*
X150520*
G75*
G02X148748Y175984J1772*
G01*
Y191732*
G75*
G02X150520Y193504I1772*
G01*
X158394*
Y213189D02*
G75*
G02X160165Y211417J-1772D01*
G01*
Y195669*
G75*
G02X158394Y193898I-1772*
G01*
X150520*
G75*
G02X148748Y195669J1772*
G01*
Y211417*
G75*
G02X150520Y213189I1772*
G01*
X158394*
Y232874D02*
G75*
G02X160165Y231102J-1772D01*
G01*
Y215354*
G75*
G02X158394Y213583I-1772*
G01*
X150520*
G75*
G02X148748Y215354J1772*
G01*
Y231102*
G75*
G02X150520Y232874I1772*
G01*
X158394*
Y252559D02*
G75*
G02X160165Y250787J-1772D01*
G01*
Y235039*
G75*
G02X158394Y233268I-1772*
G01*
X150520*
G75*
G02X148748Y235039J1772*
G01*
Y250787*
G75*
G02X150520Y252559I1772*
G01*
X158394*
Y272244D02*
G75*
G02X160165Y270472J-1772D01*
G01*
Y254724*
G75*
G02X158394Y252953I-1772*
G01*
X150520*
G75*
G02X148748Y254724J1772*
G01*
Y270472*
G75*
G02X150520Y272244I1772*
G01*
X158394*
X10165Y164173D02*
G36*
Y152323D01*
X12234*
G75*
G02X13118Y152559I884J-1537*
G01*
X23945*
G75*
G02X24829Y152323I0J-1773*
G01*
X60047*
X60283Y152559*
Y164173*
X10165*
G37*
X101622D02*
G36*
Y152323D01*
X161346*
Y164173*
X160165*
Y156299*
G75*
G02X158394Y154528I-1772*
G01*
X150520*
G75*
G02X148748Y156299J1772*
G01*
Y164173*
X101622*
G37*
X10165Y183858D02*
G36*
Y164173D01*
X60283*
Y183858*
X10165*
G37*
X101622D02*
G36*
Y164173D01*
X148748*
Y172047*
G75*
G02X150520Y173819I1772*
G01*
X158394*
G75*
G02X160165Y172047J-1772*
G01*
Y164173*
X161346*
Y183858*
X160165*
Y175984*
G75*
G02X158394Y174213I-1772*
G01*
X150520*
G75*
G02X148748Y175984J1772*
G01*
Y183858*
X101622*
G37*
X10165Y195567D02*
G36*
Y183858D01*
X60283*
Y186772*
X64220Y190709*
X97685*
X101622Y186772*
Y183858*
X148748*
Y191732*
G75*
G02X150520Y193504I1772*
G01*
X158394*
G75*
G02X160165Y191732J-1772*
G01*
Y183858*
X161346*
Y195567*
X160162*
G75*
G02X158394Y193898I-1769J102*
G01*
X150520*
G75*
G02X148751Y195567J1772*
G01*
X127026*
Y191370*
X119132*
Y195567*
X10165*
G37*
Y215835D02*
G36*
Y195567D01*
X119132*
Y199764*
X127026*
Y195567*
X148751*
G75*
G02X148748Y195669I1769J106*
G01*
Y211417*
G75*
G02X150520Y213189I1772*
G01*
X158394*
G75*
G02X160165Y211417J-1772*
G01*
Y195669*
G75*
G02X160162Y195567I-1772J3*
G01*
X161346*
Y215835*
X160165*
Y215354*
G75*
G02X158394Y213583I-1772*
G01*
X150520*
G75*
G02X148748Y215354J1772*
G01*
Y215835*
X123673*
G75*
G02X123580Y215696I-2359J1486*
G01*
Y214870*
X129362*
Y209673*
X123469*
Y210083*
X123088*
Y208354*
X126616*
Y200780*
X119541*
Y203020*
X117929*
Y202602*
X112854*
Y206980*
X117929*
Y206563*
X119541*
Y208354*
X119544*
Y210083*
X118780*
Y210500*
X115402*
Y209213*
X111071*
Y207843*
X112276*
Y206980*
X112831*
Y202602*
X112685*
Y197260*
X107488*
Y203154*
X107756*
Y206980*
X107898*
Y207843*
X108315*
Y209213*
X107921*
Y209417*
X107732*
X105559Y207244*
X91780*
X90205Y208819*
Y214331*
X89024Y215512*
X46504*
Y210394*
X22882*
Y215835*
X10165*
G37*
X115402D02*
G36*
Y214043D01*
X118780*
Y214461*
X119052*
Y215696*
G75*
G02X118959Y215835I2267J1624*
G01*
X115402*
G37*
X10165Y245972D02*
G36*
Y215835D01*
X22882*
Y234409*
X46504*
Y229291*
X84693*
Y227717*
X99260*
X102016Y224961*
Y217480*
X103197Y216299*
X107921*
Y215906*
X115402*
Y215835*
X118959*
G75*
G02X118529Y217323I2359J1489*
G01*
G75*
G02X124104I2787*
G01*
G75*
G02X123673Y215835I-2790J1*
G01*
X148748*
Y231102*
G75*
G02X150520Y232874I1772*
G01*
X158394*
G75*
G02X160165Y231102J-1772*
G01*
Y215835*
X161346*
Y245972*
X160165*
Y235039*
G75*
G02X158394Y233268I-1772*
G01*
X150520*
G75*
G02X148748Y235039J1772*
G01*
Y245972*
X117331*
Y228898*
G75*
G02X116764Y227531I-1929*
G01*
X115362Y226130*
Y225748*
X115402*
Y219449*
X111972*
Y219244*
X111268*
Y219055*
G75*
G02Y219054I-259J0*
G01*
G75*
G02X111071Y218858I-197*
G01*
X108315*
G75*
G02X108118Y219054J196*
G01*
G75*
G02Y219055I259J0*
G01*
Y219244*
X107413*
Y219449*
X103984*
Y221714*
G75*
G02X103787Y222598I1889J885*
G01*
G75*
G02X103984Y223483I2086*
G01*
Y225748*
X104024*
Y226130*
X94681Y235472*
X92254*
G75*
G02X90910Y236015I-2J1932*
G01*
X88469Y238378*
G75*
G02X87882Y239763I1340J1385*
G01*
G75*
G02Y239764I2374J0*
G01*
Y242185*
X86274*
Y245972*
X81947*
Y241776*
X74053*
Y245972*
X10165*
G37*
X91740Y242185D02*
G36*
Y240581D01*
X93033Y239331*
X95480*
G75*
G02X96846Y238764J-1929*
G01*
X107315Y228295*
G75*
G02X107882Y226929I-1362J-1366*
G01*
Y225772*
X108118*
Y226929*
G75*
G02Y226930I259J0*
G01*
G75*
G02X108315Y227126I197*
G01*
X111071*
G75*
G02X111268Y226930J-196*
G01*
G75*
G02Y226929I-259J0*
G01*
Y225772*
X111504*
Y226929*
G75*
G02X112071Y228295I1929*
G01*
X113472Y229697*
Y245972*
X105159*
Y242185*
X98085*
Y245972*
X93348*
Y242185*
X91740*
G37*
X10165Y262598D02*
G36*
Y245972D01*
X74053*
Y250169*
X81947*
Y245972*
X86274*
Y249760*
X93348*
Y245972*
X98085*
Y249760*
X105159*
Y245972*
X113472*
Y251957*
X112240Y253189*
X105159*
Y251185*
X98085*
Y258760*
X99772*
Y261799*
X98972Y262598*
X82055*
Y257256*
G75*
G02Y257255I-1574J0*
G01*
G75*
G02X81980Y256744I-1762*
G01*
X86274*
Y258760*
X93348*
Y251185*
X86274*
Y253201*
X81537*
Y251185*
X74463*
Y258760*
X78512*
Y262598*
X10165*
G37*
X103630D02*
G36*
Y258760D01*
X105159*
Y257047*
X113039*
G75*
G02X114406Y256480J-1929*
G01*
X116764Y254122*
G75*
G02X117331Y252756I-1362J-1366*
G01*
Y245972*
X148748*
Y250787*
G75*
G02X150520Y252559I1772*
G01*
X158394*
G75*
G02X160165Y250787J-1772*
G01*
Y245972*
X161346*
Y262598*
X160165*
Y254724*
G75*
G02X158394Y252953I-1772*
G01*
X150520*
G75*
G02X148748Y254724J1772*
G01*
Y262598*
X103630*
G37*
X10165Y277323D02*
G36*
Y262598D01*
X78512*
Y271475*
G75*
G02X76496Y274823I1772J3348*
G01*
Y277323*
X74071*
Y274823*
G75*
G02X66496I-3787*
G01*
Y277323*
X64071*
Y274823*
G75*
G02X56496I-3787*
G01*
Y277323*
X10165*
G37*
X82055Y271475D02*
G36*
Y262598D01*
X98972*
X98921Y262650*
G75*
G02X98354Y264016I1362J1366*
G01*
Y271563*
G75*
G02X96496Y274823I1930J3259*
G01*
Y277323*
X94071*
Y274823*
G75*
G02X86496I-3787*
G01*
Y277323*
X84071*
Y274823*
G75*
G02X82055Y271475I-3788*
G01*
G37*
X102213Y271563D02*
G36*
Y264815D01*
X103063Y263965*
G75*
G02X103630Y262598I-1362J-1366*
G01*
X148748*
Y270472*
G75*
G02X150520Y272244I1772*
G01*
X158394*
G75*
G02X160165Y270472J-1772*
G01*
Y262598*
X161346*
Y277323*
X160165*
Y274606*
G75*
G02X158394Y272835I-1772*
G01*
X150520*
G75*
G02X148748Y274606J1772*
G01*
Y277323*
X104071*
Y274823*
G75*
G02X102213Y271563I-3788*
G01*
G37*
X10165Y291693D02*
G36*
Y277323D01*
X56496*
Y279823*
G75*
G02X64071I3787*
G01*
Y277323*
X66496*
Y279823*
G75*
G02X74071I3787*
G01*
Y277323*
X76496*
Y279823*
G75*
G02X84071I3787*
G01*
Y277323*
X86496*
Y279823*
G75*
G02X94071I3787*
G01*
Y277323*
X96496*
Y279823*
G75*
G02X104071I3787*
G01*
Y277323*
X148748*
Y290354*
G75*
G02X149359Y291693I1772*
G01*
X10165*
G37*
X160165Y290354D02*
G36*
Y277323D01*
X161346*
Y291693*
X159554*
G75*
G02X160165Y290355I-1159J-1338*
G01*
G75*
G02Y290354I-1805J0*
G01*
G37*
X9969Y303740D02*
Y302190D01*
G75*
G02X11543Y303150I1575J-812*
G01*
X23748*
G75*
G02X25520Y301378J-1772*
G01*
Y293504*
G75*
G02X24560Y291929I-1772*
G01*
X26676*
G75*
G02X25717Y293504I812J1575*
G01*
Y301378*
G75*
G02X27488Y303150I1772*
G01*
X43236*
G75*
G02X45008Y301378J-1772*
G01*
Y293504*
G75*
G02X44048Y291929I-1772*
G01*
X46558*
G75*
G02X45598Y293504I812J1575*
G01*
Y301378*
G75*
G02X47370Y303150I1772*
G01*
X63118*
G75*
G02X64890Y301378J-1772*
G01*
Y293504*
G75*
G02X63930Y291929I-1772*
G01*
X66243*
G75*
G02X65283Y293504I812J1575*
G01*
Y301378*
G75*
G02X67055Y303150I1772*
G01*
X82803*
G75*
G02X84575Y301378J-1772*
G01*
Y293504*
G75*
G02X83615Y291929I-1772*
G01*
X85928*
G75*
G02X84969Y293504I812J1575*
G01*
Y301378*
G75*
G02X86740Y303150I1772*
G01*
X102488*
G75*
G02X104260Y301378J-1772*
G01*
Y293504*
G75*
G02X103300Y291929I-1772*
G01*
X105417*
G75*
G02X104457Y293504I812J1575*
G01*
Y301378*
G75*
G02X106228Y303150I1772*
G01*
X121976*
G75*
G02X123748Y301378J-1772*
G01*
Y293504*
G75*
G02X122788Y291929I-1772*
G01*
X125298*
G75*
G02X124339Y293504I812J1575*
G01*
Y301378*
G75*
G02X126110Y303150I1772*
G01*
X141858*
G75*
G02X143630Y301378J-1772*
G01*
Y293504*
G75*
G02X142670Y291929I-1772*
G01*
X144983*
G75*
G02X144024Y293504I812J1575*
G01*
Y301378*
G75*
G02X145795Y303150I1772*
G01*
X161543*
G75*
G02X163315Y301378J-1772*
G01*
Y293504*
G75*
G02X162355Y291929I-1772*
G01*
X164669*
G75*
G02X163709Y293504I812J1575*
G01*
Y301378*
G75*
G02X165480Y303150I1772*
G01*
X181228*
G75*
G02X183000Y301378J-1772*
G01*
Y293504*
G75*
G02X182040Y291929I-1772*
G01*
X184354*
G75*
G02X183394Y293504I812J1575*
G01*
Y301378*
G75*
G02X185165Y303150I1772*
G01*
X200913*
G75*
G02X202685Y301378J-1772*
G01*
Y293504*
G75*
G02X201725Y291929I-1772*
G01*
X204235*
G75*
G02X203276Y293504I812J1575*
G01*
Y301378*
G75*
G02X205047Y303150I1772*
G01*
X220795*
G75*
G02X222567Y301378J-1772*
G01*
Y293504*
G75*
G02X221607Y291929I-1772*
G01*
X223724*
G75*
G02X222764Y293504I812J1575*
G01*
Y301378*
G75*
G02X224535Y303150I1772*
G01*
X240283*
G75*
G02X242055Y301378J-1772*
G01*
Y293504*
G75*
G02X241095Y291929I-1772*
G01*
X243409*
G75*
G02X242449Y293504I812J1575*
G01*
Y301378*
G75*
G02X244220Y303150I1772*
G01*
X259969*
G75*
G02X261740Y301378J-1772*
G01*
Y293504*
G75*
G02X260780Y291929I-1772*
G01*
X263291*
G75*
G02X262331Y293504I812J1575*
G01*
Y301378*
G75*
G02X264102Y303150I1772*
G01*
X279850*
G75*
G02X281622Y301378J-1772*
G01*
Y293504*
G75*
G02X280662Y291929I-1772*
G01*
X282976*
G75*
G02X282016Y293504I812J1575*
G01*
Y301378*
G75*
G02X283787Y303150I1772*
G01*
X299535*
G75*
G02X301307Y301378J-1772*
G01*
Y293504*
G75*
G02X300347Y291929I-1772*
G01*
X302464*
G75*
G02X301504Y293504I812J1575*
G01*
Y301378*
G75*
G02X303276Y303150I1772*
G01*
X319024*
G75*
G02X320795Y301378J-1772*
G01*
Y293504*
G75*
G02X319835Y291929I-1772*
G01*
X322149*
G75*
G02X321189Y293504I812J1575*
G01*
Y301378*
G75*
G02X322961Y303150I1772*
G01*
X338709*
G75*
G02X340480Y301378J-1772*
G01*
Y293504*
G75*
G02X339520Y291929I-1772*
G01*
X341834*
G75*
G02X340874Y293504I812J1575*
G01*
Y301378*
G75*
G02X342646Y303150I1772*
G01*
X358394*
G75*
G02X360165Y301378J-1772*
G01*
Y293504*
G75*
G02X359206Y291929I-1772*
G01*
X361519*
G75*
G02X360559Y293504I812J1575*
G01*
Y301378*
G75*
G02X362331Y303150I1772*
G01*
X378079*
G75*
G02X379850Y301378J-1772*
G01*
Y293504*
G75*
G02X378891Y291929I-1772*
G01*
X381204*
G75*
G02X380244Y293504I812J1575*
G01*
Y301378*
G75*
G02X382016Y303150I1772*
G01*
X397764*
G75*
G02X399535Y301378J-1772*
G01*
Y293504*
G75*
G02X398576Y291929I-1772*
G01*
X400889*
G75*
G02X399929Y293504I812J1575*
G01*
Y301378*
G75*
G02X401701Y303150I1772*
G01*
X417449*
G75*
G02X419220Y301378J-1772*
G01*
Y293504*
G75*
G02X418261Y291929I-1772*
G01*
X420574*
G75*
G02X419614Y293504I812J1575*
G01*
Y301378*
G75*
G02X421386Y303150I1772*
G01*
X437134*
G75*
G02X438906Y301378J-1772*
G01*
Y293504*
G75*
G02X437946Y291929I-1772*
G01*
X440259*
G75*
G02X439299Y293504I812J1575*
G01*
Y301378*
G75*
G02X441071Y303150I1772*
G01*
X456819*
G75*
G02X458591Y301378J-1772*
G01*
Y293504*
G75*
G02X457631Y291929I-1772*
G01*
X459944*
G75*
G02X458984Y293504I812J1575*
G01*
Y301378*
G75*
G02X460756Y303150I1772*
G01*
X476504*
G75*
G02X478276Y301378J-1772*
G01*
Y293504*
G75*
G02X477316Y291929I-1772*
G01*
X479629*
G75*
G02X478669Y293504I812J1575*
G01*
Y301378*
G75*
G02X480441Y303150I1772*
G01*
X501307*
Y303740*
X9969*
G36*
Y302190*
G75*
G02X11543Y303150I1575J-812*
G01*
X23748*
G75*
G02X25520Y301378J-1772*
G01*
Y293504*
G75*
G02X24560Y291929I-1772*
G01*
X26676*
G75*
G02X25717Y293504I812J1575*
G01*
Y301378*
G75*
G02X27488Y303150I1772*
G01*
X43236*
G75*
G02X45008Y301378J-1772*
G01*
Y293504*
G75*
G02X44048Y291929I-1772*
G01*
X46558*
G75*
G02X45598Y293504I812J1575*
G01*
Y301378*
G75*
G02X47370Y303150I1772*
G01*
X63118*
G75*
G02X64890Y301378J-1772*
G01*
Y293504*
G75*
G02X63930Y291929I-1772*
G01*
X66243*
G75*
G02X65283Y293504I812J1575*
G01*
Y301378*
G75*
G02X67055Y303150I1772*
G01*
X82803*
G75*
G02X84575Y301378J-1772*
G01*
Y293504*
G75*
G02X83615Y291929I-1772*
G01*
X85928*
G75*
G02X84969Y293504I812J1575*
G01*
Y301378*
G75*
G02X86740Y303150I1772*
G01*
X102488*
G75*
G02X104260Y301378J-1772*
G01*
Y293504*
G75*
G02X103300Y291929I-1772*
G01*
X105417*
G75*
G02X104457Y293504I812J1575*
G01*
Y301378*
G75*
G02X106228Y303150I1772*
G01*
X121976*
G75*
G02X123748Y301378J-1772*
G01*
Y293504*
G75*
G02X122788Y291929I-1772*
G01*
X125298*
G75*
G02X124339Y293504I812J1575*
G01*
Y301378*
G75*
G02X126110Y303150I1772*
G01*
X141858*
G75*
G02X143630Y301378J-1772*
G01*
Y293504*
G75*
G02X142670Y291929I-1772*
G01*
X144983*
G75*
G02X144024Y293504I812J1575*
G01*
Y301378*
G75*
G02X145795Y303150I1772*
G01*
X161543*
G75*
G02X163315Y301378J-1772*
G01*
Y293504*
G75*
G02X162355Y291929I-1772*
G01*
X164669*
G75*
G02X163709Y293504I812J1575*
G01*
Y301378*
G75*
G02X165480Y303150I1772*
G01*
X181228*
G75*
G02X183000Y301378J-1772*
G01*
Y293504*
G75*
G02X182040Y291929I-1772*
G01*
X184354*
G75*
G02X183394Y293504I812J1575*
G01*
Y301378*
G75*
G02X185165Y303150I1772*
G01*
X200913*
G75*
G02X202685Y301378J-1772*
G01*
Y293504*
G75*
G02X201725Y291929I-1772*
G01*
X204235*
G75*
G02X203276Y293504I812J1575*
G01*
Y301378*
G75*
G02X205047Y303150I1772*
G01*
X220795*
G75*
G02X222567Y301378J-1772*
G01*
Y293504*
G75*
G02X221607Y291929I-1772*
G01*
X223724*
G75*
G02X222764Y293504I812J1575*
G01*
Y301378*
G75*
G02X224535Y303150I1772*
G01*
X240283*
G75*
G02X242055Y301378J-1772*
G01*
Y293504*
G75*
G02X241095Y291929I-1772*
G01*
X243409*
G75*
G02X242449Y293504I812J1575*
G01*
Y301378*
G75*
G02X244220Y303150I1772*
G01*
X259969*
G75*
G02X261740Y301378J-1772*
G01*
Y293504*
G75*
G02X260780Y291929I-1772*
G01*
X263291*
G75*
G02X262331Y293504I812J1575*
G01*
Y301378*
G75*
G02X264102Y303150I1772*
G01*
X279850*
G75*
G02X281622Y301378J-1772*
G01*
Y293504*
G75*
G02X280662Y291929I-1772*
G01*
X282976*
G75*
G02X282016Y293504I812J1575*
G01*
Y301378*
G75*
G02X283787Y303150I1772*
G01*
X299535*
G75*
G02X301307Y301378J-1772*
G01*
Y293504*
G75*
G02X300347Y291929I-1772*
G01*
X302464*
G75*
G02X301504Y293504I812J1575*
G01*
Y301378*
G75*
G02X303276Y303150I1772*
G01*
X319024*
G75*
G02X320795Y301378J-1772*
G01*
Y293504*
G75*
G02X319835Y291929I-1772*
G01*
X322149*
G75*
G02X321189Y293504I812J1575*
G01*
Y301378*
G75*
G02X322961Y303150I1772*
G01*
X338709*
G75*
G02X340480Y301378J-1772*
G01*
Y293504*
G75*
G02X339520Y291929I-1772*
G01*
X341834*
G75*
G02X340874Y293504I812J1575*
G01*
Y301378*
G75*
G02X342646Y303150I1772*
G01*
X358394*
G75*
G02X360165Y301378J-1772*
G01*
Y293504*
G75*
G02X359206Y291929I-1772*
G01*
X361519*
G75*
G02X360559Y293504I812J1575*
G01*
Y301378*
G75*
G02X362331Y303150I1772*
G01*
X378079*
G75*
G02X379850Y301378J-1772*
G01*
Y293504*
G75*
G02X378891Y291929I-1772*
G01*
X381204*
G75*
G02X380244Y293504I812J1575*
G01*
Y301378*
G75*
G02X382016Y303150I1772*
G01*
X397764*
G75*
G02X399535Y301378J-1772*
G01*
Y293504*
G75*
G02X398576Y291929I-1772*
G01*
X400889*
G75*
G02X399929Y293504I812J1575*
G01*
Y301378*
G75*
G02X401701Y303150I1772*
G01*
X417449*
G75*
G02X419220Y301378J-1772*
G01*
Y293504*
G75*
G02X418261Y291929I-1772*
G01*
X420574*
G75*
G02X419614Y293504I812J1575*
G01*
Y301378*
G75*
G02X421386Y303150I1772*
G01*
X437134*
G75*
G02X438906Y301378J-1772*
G01*
Y293504*
G75*
G02X437946Y291929I-1772*
G01*
X440259*
G75*
G02X439299Y293504I812J1575*
G01*
Y301378*
G75*
G02X441071Y303150I1772*
G01*
X456819*
G75*
G02X458591Y301378J-1772*
G01*
Y293504*
G75*
G02X457631Y291929I-1772*
G01*
X459944*
G75*
G02X458984Y293504I812J1575*
G01*
Y301378*
G75*
G02X460756Y303150I1772*
G01*
X476504*
G75*
G02X478276Y301378J-1772*
G01*
Y293504*
G75*
G02X477316Y291929I-1772*
G01*
X479629*
G75*
G02X478669Y293504I812J1575*
G01*
Y301378*
G75*
G02X480441Y303150I1772*
G01*
X501307*
Y303740*
X9969*
G37*
Y421654D02*
Y303543D01*
X63118*
Y421654*
X9969*
X15874Y374409D02*
X39496D01*
Y350787*
X15874*
Y374409*
X61150Y323031D02*
G75*
G02X62921Y321260J-1772D01*
G01*
Y305512*
G75*
G02X61150Y303740I-1772*
G01*
X53276*
G75*
G02X51504Y305512J1772*
G01*
Y321260*
G75*
G02X53276Y323031I1772*
G01*
X61150*
Y342717D02*
G75*
G02X62921Y340945J-1772D01*
G01*
Y325197*
G75*
G02X61150Y323425I-1772*
G01*
X53276*
G75*
G02X51504Y325197J1772*
G01*
Y340945*
G75*
G02X53276Y342717I1772*
G01*
X61150*
Y362402D02*
G75*
G02X62921Y360630J-1772D01*
G01*
Y344882*
G75*
G02X61150Y343110I-1772*
G01*
X53276*
G75*
G02X51504Y344882J1772*
G01*
Y360630*
G75*
G02X53276Y362402I1772*
G01*
X61150*
Y382087D02*
G75*
G02X62921Y380315J-1772D01*
G01*
Y364567*
G75*
G02X61150Y362795I-1772*
G01*
X53276*
G75*
G02X51504Y364567J1772*
G01*
Y380315*
G75*
G02X53276Y382087I1772*
G01*
X61150*
Y401772D02*
G75*
G02X62921Y400000J-1772D01*
G01*
Y384252*
G75*
G02X61150Y382480I-1772*
G01*
X53276*
G75*
G02X51504Y384252J1772*
G01*
Y400000*
G75*
G02X53276Y401772I1772*
G01*
X61150*
Y421457D02*
G75*
G02X62921Y419685J-1772D01*
G01*
Y403937*
G75*
G02X61150Y402165I-1772*
G01*
X53276*
G75*
G02X51504Y403937J1772*
G01*
Y419685*
G75*
G02X53276Y421457I1772*
G01*
X61150*
X10165Y313386D02*
G36*
Y303740D01*
X53276*
G75*
G02X51504Y305512J1772*
G01*
Y313386*
X10165*
G37*
X61150Y303740D02*
G36*
X62921D01*
Y305512*
G75*
G02X61150Y303740I-1772*
G01*
G37*
X10165Y333071D02*
G36*
Y313386D01*
X51504*
Y321260*
G75*
G02X53276Y323031I1772*
G01*
X61150*
G75*
G02X62921Y321260J-1772*
G01*
Y325197*
G75*
G02X61150Y323425I-1772*
G01*
X53276*
G75*
G02X51504Y325197J1772*
G01*
Y333071*
X10165*
G37*
Y352756D02*
G36*
Y333071D01*
X51504*
Y340945*
G75*
G02X53276Y342717I1772*
G01*
X61150*
G75*
G02X62921Y340945J-1772*
G01*
Y344882*
G75*
G02X61150Y343110I-1772*
G01*
X53276*
G75*
G02X51504Y344882J1772*
G01*
Y352756*
X39496*
Y350787*
X15874*
Y352756*
X10165*
G37*
Y362598D02*
G36*
Y352756D01*
X15874*
Y362598*
X10165*
G37*
X39496D02*
G36*
Y352756D01*
X51504*
Y360630*
G75*
G02X53276Y362402I1772*
G01*
X61150*
G75*
G02X62921Y360630J-1772*
G01*
Y362598*
X39496*
G37*
X10165Y372441D02*
G36*
Y362598D01*
X15874*
Y372441*
X10165*
G37*
X39496D02*
G36*
Y362598D01*
X62921*
Y364567*
G75*
G02X61150Y362795I-1772*
G01*
X53276*
G75*
G02X51504Y364567J1772*
G01*
Y372441*
X39496*
G37*
X10165Y392126D02*
G36*
Y372441D01*
X15874*
Y374409*
X39496*
Y372441*
X51504*
Y380315*
G75*
G02X53276Y382087I1772*
G01*
X61150*
G75*
G02X62921Y380315J-1772*
G01*
Y384252*
G75*
G02X61150Y382480I-1772*
G01*
X53276*
G75*
G02X51504Y384252J1772*
G01*
Y392126*
X10165*
G37*
Y411811D02*
G36*
Y392126D01*
X51504*
Y400000*
G75*
G02X53276Y401772I1772*
G01*
X61150*
G75*
G02X62921Y400000J-1772*
G01*
Y403937*
G75*
G02X61150Y402165I-1772*
G01*
X53276*
G75*
G02X51504Y403937J1772*
G01*
Y411811*
X10165*
G37*
Y421457D02*
G36*
Y411811D01*
X51504*
Y419685*
G75*
G02X53276Y421457I1772*
G01*
X10165*
G37*
X61150D02*
G36*
G75*
G02X62921Y419685J-1772D01*
G01*
Y421457*
X61150*
G37*
X9969Y551772D02*
Y433661D01*
X65087*
Y551772*
X9969*
X17843Y504528D02*
X41465D01*
Y480906*
X17843*
Y504528*
X63118Y453150D02*
G75*
G02X64890Y451378J-1772D01*
G01*
Y435630*
G75*
G02X63118Y433858I-1772*
G01*
X55244*
G75*
G02X53472Y435630J1772*
G01*
Y451378*
G75*
G02X55244Y453150I1772*
G01*
X63118*
Y472835D02*
G75*
G02X64890Y471063J-1772D01*
G01*
Y455315*
G75*
G02X63118Y453543I-1772*
G01*
X55244*
G75*
G02X53472Y455315J1772*
G01*
Y471063*
G75*
G02X55244Y472835I1772*
G01*
X63118*
Y492520D02*
G75*
G02X64890Y490748J-1772D01*
G01*
Y475000*
G75*
G02X63118Y473228I-1772*
G01*
X55244*
G75*
G02X53472Y475000J1772*
G01*
Y490748*
G75*
G02X55244Y492520I1772*
G01*
X63118*
Y512205D02*
G75*
G02X64890Y510433J-1772D01*
G01*
Y494685*
G75*
G02X63118Y492913I-1772*
G01*
X55244*
G75*
G02X53472Y494685J1772*
G01*
Y510433*
G75*
G02X55244Y512205I1772*
G01*
X63118*
Y531890D02*
G75*
G02X64890Y530118J-1772D01*
G01*
Y514370*
G75*
G02X63118Y512598I-1772*
G01*
X55244*
G75*
G02X53472Y514370J1772*
G01*
Y530118*
G75*
G02X55244Y531890I1772*
G01*
X63118*
Y551575D02*
G75*
G02X64890Y549803J-1772D01*
G01*
Y534055*
G75*
G02X63118Y532283I-1772*
G01*
X55244*
G75*
G02X53472Y534055J1772*
G01*
Y549803*
G75*
G02X55244Y551575I1772*
G01*
X63118*
X10165Y443504D02*
G36*
Y433858D01*
X55244*
G75*
G02X53472Y435630J1772*
G01*
Y443504*
X10165*
G37*
X63118Y433858D02*
G36*
X64890D01*
Y435630*
G75*
G02X63118Y433858I-1772*
G01*
G37*
X10165Y463189D02*
G36*
Y443504D01*
X53472*
Y451378*
G75*
G02X55244Y453150I1772*
G01*
X63118*
G75*
G02X64890Y451378J-1772*
G01*
Y455315*
G75*
G02X63118Y453543I-1772*
G01*
X55244*
G75*
G02X53472Y455315J1772*
G01*
Y463189*
X10165*
G37*
Y482874D02*
G36*
Y463189D01*
X53472*
Y471063*
G75*
G02X55244Y472835I1772*
G01*
X63118*
G75*
G02X64890Y471063J-1772*
G01*
Y475000*
G75*
G02X63118Y473228I-1772*
G01*
X55244*
G75*
G02X53472Y475000J1772*
G01*
Y482874*
X41465*
Y480906*
X17843*
Y482874*
X10165*
G37*
Y492717D02*
G36*
Y482874D01*
X17843*
Y492717*
X10165*
G37*
X41465D02*
G36*
Y482874D01*
X53472*
Y490748*
G75*
G02X55244Y492520I1772*
G01*
X63118*
G75*
G02X64890Y490748J-1772*
G01*
Y492717*
X41465*
G37*
X10165Y502559D02*
G36*
Y492717D01*
X17843*
Y502559*
X10165*
G37*
X41465D02*
G36*
Y492717D01*
X64890*
Y494685*
G75*
G02X63118Y492913I-1772*
G01*
X55244*
G75*
G02X53472Y494685J1772*
G01*
Y502559*
X41465*
G37*
X10165Y522244D02*
G36*
Y502559D01*
X17843*
Y504528*
X41465*
Y502559*
X53472*
Y510433*
G75*
G02X55244Y512205I1772*
G01*
X63118*
G75*
G02X64890Y510433J-1772*
G01*
Y514370*
G75*
G02X63118Y512598I-1772*
G01*
X55244*
G75*
G02X53472Y514370J1772*
G01*
Y522244*
X10165*
G37*
Y541929D02*
G36*
Y522244D01*
X53472*
Y530118*
G75*
G02X55244Y531890I1772*
G01*
X63118*
G75*
G02X64890Y530118J-1772*
G01*
Y534055*
G75*
G02X63118Y532283I-1772*
G01*
X55244*
G75*
G02X53472Y534055J1772*
G01*
Y541929*
X10165*
G37*
Y551575D02*
G36*
Y541929D01*
X53472*
Y549803*
G75*
G02X55244Y551575I1772*
G01*
X10165*
G37*
X63118D02*
G36*
G75*
G02X64890Y549803J-1772D01*
G01*
Y551575*
X63118*
G37*
Y421654D02*
Y303543D01*
X109181*
Y355512*
X98551*
Y350787*
X74929*
Y374409*
X98551*
Y369291*
X109181*
Y421654*
X63118*
G36*
Y303543*
X109181*
Y355512*
X98551*
Y350787*
X74929*
Y374409*
X98551*
Y369291*
X109181*
Y421654*
X63118*
G37*
X65087Y423622D02*
G75*
G02X63315Y421850I-1772D01*
G01*
X505835*
Y432087*
G75*
G02X506031Y432898I1772*
G01*
Y433661*
X9969*
Y421850*
X47567*
G75*
G02X45795Y423622J1772*
G01*
Y431496*
G75*
G02X47567Y433268I1772*
G01*
X63315*
G75*
G02X65087Y431496J-1772*
G01*
Y423622*
X23748Y433465D02*
G75*
G02X25520Y431693J-1772D01*
G01*
Y423819*
G75*
G02X23748Y422047I-1772*
G01*
X12331*
G75*
G02X10559Y423819J1772*
G01*
Y431693*
G75*
G02X12331Y433465I1772*
G01*
X23748*
X43630D02*
G75*
G02X45402Y431693J-1772D01*
G01*
Y423819*
G75*
G02X43630Y422047I-1772*
G01*
X27882*
G75*
G02X26110Y423819J1772*
G01*
Y431693*
G75*
G02X27882Y433465I1772*
G01*
X43630*
X82803D02*
G75*
G02X84575Y431693J-1772D01*
G01*
Y423819*
G75*
G02X82803Y422047I-1772*
G01*
X67055*
G75*
G02X65283Y423819J1772*
G01*
Y431693*
G75*
G02X67055Y433465I1772*
G01*
X82803*
X102685D02*
G75*
G02X104457Y431693J-1772D01*
G01*
Y423819*
G75*
G02X102685Y422047I-1772*
G01*
X86937*
G75*
G02X85165Y423819J1772*
G01*
Y431693*
G75*
G02X86937Y433465I1772*
G01*
X102685*
X122173D02*
G75*
G02X123945Y431693J-1772D01*
G01*
Y423819*
G75*
G02X122173Y422047I-1772*
G01*
X106425*
G75*
G02X104654Y423819J1772*
G01*
Y431693*
G75*
G02X106425Y433465I1772*
G01*
X122173*
X141858D02*
G75*
G02X143630Y431693J-1772D01*
G01*
Y423819*
G75*
G02X141858Y422047I-1772*
G01*
X126110*
G75*
G02X124339Y423819J1772*
G01*
Y431693*
G75*
G02X126110Y433465I1772*
G01*
X141858*
X161543D02*
G75*
G02X163315Y431693J-1772D01*
G01*
Y423819*
G75*
G02X161543Y422047I-1772*
G01*
X145795*
G75*
G02X144024Y423819J1772*
G01*
Y431693*
G75*
G02X145795Y433465I1772*
G01*
X161543*
X181425D02*
G75*
G02X183197Y431693J-1772D01*
G01*
Y423819*
G75*
G02X181425Y422047I-1772*
G01*
X165677*
G75*
G02X163906Y423819J1772*
G01*
Y431693*
G75*
G02X165677Y433465I1772*
G01*
X181425*
X201110D02*
G75*
G02X202882Y431693J-1772D01*
G01*
Y423819*
G75*
G02X201110Y422047I-1772*
G01*
X185362*
G75*
G02X183591Y423819J1772*
G01*
Y431693*
G75*
G02X185362Y433465I1772*
G01*
X201110*
X220598D02*
G75*
G02X222370Y431693J-1772D01*
G01*
Y423819*
G75*
G02X220598Y422047I-1772*
G01*
X204850*
G75*
G02X203079Y423819J1772*
G01*
Y431693*
G75*
G02X204850Y433465I1772*
G01*
X220598*
X240283D02*
G75*
G02X242055Y431693J-1772D01*
G01*
Y423819*
G75*
G02X240283Y422047I-1772*
G01*
X224535*
G75*
G02X222764Y423819J1772*
G01*
Y431693*
G75*
G02X224535Y433465I1772*
G01*
X240283*
X259969D02*
G75*
G02X261740Y431693J-1772D01*
G01*
Y423819*
G75*
G02X259969Y422047I-1772*
G01*
X244220*
G75*
G02X242449Y423819J1772*
G01*
Y431693*
G75*
G02X244220Y433465I1772*
G01*
X259969*
X279850D02*
G75*
G02X281622Y431693J-1772D01*
G01*
Y423819*
G75*
G02X279850Y422047I-1772*
G01*
X264102*
G75*
G02X262331Y423819J1772*
G01*
Y431693*
G75*
G02X264102Y433465I1772*
G01*
X279850*
X299339D02*
G75*
G02X301110Y431693J-1772D01*
G01*
Y423819*
G75*
G02X299339Y422047I-1772*
G01*
X283591*
G75*
G02X281819Y423819J1772*
G01*
Y431693*
G75*
G02X283591Y433465I1772*
G01*
X299339*
X319220D02*
G75*
G02X320992Y431693J-1772D01*
G01*
Y423819*
G75*
G02X319220Y422047I-1772*
G01*
X303472*
G75*
G02X301701Y423819J1772*
G01*
Y431693*
G75*
G02X303472Y433465I1772*
G01*
X319220*
X338709D02*
G75*
G02X340480Y431693J-1772D01*
G01*
Y423819*
G75*
G02X338709Y422047I-1772*
G01*
X322961*
G75*
G02X321189Y423819J1772*
G01*
Y431693*
G75*
G02X322961Y433465I1772*
G01*
X338709*
X358394D02*
G75*
G02X360165Y431693J-1772D01*
G01*
Y423819*
G75*
G02X358394Y422047I-1772*
G01*
X342646*
G75*
G02X340874Y423819J1772*
G01*
Y431693*
G75*
G02X342646Y433465I1772*
G01*
X358394*
X378079D02*
G75*
G02X379850Y431693J-1772D01*
G01*
Y423819*
G75*
G02X378079Y422047I-1772*
G01*
X362331*
G75*
G02X360559Y423819J1772*
G01*
Y431693*
G75*
G02X362331Y433465I1772*
G01*
X378079*
X397567D02*
G75*
G02X399339Y431693J-1772D01*
G01*
Y423819*
G75*
G02X397567Y422047I-1772*
G01*
X381819*
G75*
G02X380047Y423819J1772*
G01*
Y431693*
G75*
G02X381819Y433465I1772*
G01*
X397567*
X417449D02*
G75*
G02X419220Y431693J-1772D01*
G01*
Y423819*
G75*
G02X417449Y422047I-1772*
G01*
X401701*
G75*
G02X399929Y423819J1772*
G01*
Y431693*
G75*
G02X401701Y433465I1772*
G01*
X417449*
X436937D02*
G75*
G02X438709Y431693J-1772D01*
G01*
Y423819*
G75*
G02X436937Y422047I-1772*
G01*
X421189*
G75*
G02X419417Y423819J1772*
G01*
Y431693*
G75*
G02X421189Y433465I1772*
G01*
X436937*
X456819D02*
G75*
G02X458591Y431693J-1772D01*
G01*
Y423819*
G75*
G02X456819Y422047I-1772*
G01*
X441071*
G75*
G02X439299Y423819J1772*
G01*
Y431693*
G75*
G02X441071Y433465I1772*
G01*
X456819*
X476307D02*
G75*
G02X478079Y431693J-1772D01*
G01*
Y423819*
G75*
G02X476307Y422047I-1772*
G01*
X460559*
G75*
G02X458787Y423819J1772*
G01*
Y431693*
G75*
G02X460559Y433465I1772*
G01*
X476307*
X502882D02*
G75*
G02X504654Y431693J-1772D01*
G01*
Y423819*
G75*
G02X502882Y422047I-1772*
G01*
X480441*
G75*
G02X478669Y423819J1772*
G01*
Y431693*
G75*
G02X480441Y433465I1772*
G01*
X502882*
X10165Y427756D02*
G36*
Y422047D01*
X12331*
G75*
G02X10559Y423819J1772*
G01*
Y427756*
X10165*
G37*
X25520D02*
G36*
Y423819D01*
G75*
G02X23748Y422047I-1772*
G01*
X27882*
G75*
G02X26110Y423819J1772*
G01*
Y427756*
X25520*
G37*
X45402D02*
G36*
Y423819D01*
G75*
G02X43630Y422047I-1772*
G01*
X46796*
X46314Y422369*
X45930Y422944*
X45795Y423622*
Y427756*
X45402*
G37*
X64568Y422369D02*
G36*
X64085Y422047D01*
X67055*
G75*
G02X65283Y423819J1772*
G01*
Y427756*
X65087*
Y423622*
X64952Y422944*
X64568Y422369*
G37*
X84575Y427756D02*
G36*
Y423819D01*
G75*
G02X82803Y422047I-1772*
G01*
X86937*
G75*
G02X85165Y423819J1772*
G01*
Y427756*
X84575*
G37*
X104457D02*
G36*
Y423819D01*
G75*
G02X102685Y422047I-1772*
G01*
X106425*
G75*
G02X104654Y423819J1772*
G01*
Y427756*
X104457*
G37*
X123945D02*
G36*
Y423819D01*
G75*
G02X122173Y422047I-1772*
G01*
X126110*
G75*
G02X124339Y423819J1772*
G01*
Y427756*
X123945*
G37*
X143630D02*
G36*
Y423819D01*
G75*
G02X141858Y422047I-1772*
G01*
X145795*
G75*
G02X144024Y423819J1772*
G01*
Y427756*
X143630*
G37*
X163315D02*
G36*
Y423819D01*
G75*
G02X161543Y422047I-1772*
G01*
X165677*
G75*
G02X163906Y423819J1772*
G01*
Y427756*
X163315*
G37*
X183197D02*
G36*
Y423819D01*
G75*
G02X181425Y422047I-1772*
G01*
X185362*
G75*
G02X183591Y423819J1772*
G01*
Y427756*
X183197*
G37*
X202882D02*
G36*
Y423819D01*
G75*
G02X201110Y422047I-1772*
G01*
X204850*
G75*
G02X203079Y423819J1772*
G01*
Y427756*
X202882*
G37*
X222370D02*
G36*
Y423819D01*
G75*
G02X220598Y422047I-1772*
G01*
X224535*
G75*
G02X222764Y423819J1772*
G01*
Y427756*
X222370*
G37*
X242055D02*
G36*
Y423819D01*
G75*
G02X240283Y422047I-1772*
G01*
X244220*
G75*
G02X242449Y423819J1772*
G01*
Y427756*
X242055*
G37*
X261740D02*
G36*
Y423819D01*
G75*
G02X259969Y422047I-1772*
G01*
X264102*
G75*
G02X262331Y423819J1772*
G01*
Y427756*
X261740*
G37*
X281622D02*
G36*
Y423819D01*
G75*
G02X279850Y422047I-1772*
G01*
X283591*
G75*
G02X281819Y423819J1772*
G01*
Y427756*
X281622*
G37*
X301110D02*
G36*
Y423819D01*
G75*
G02X299339Y422047I-1772*
G01*
X303472*
G75*
G02X301701Y423819J1772*
G01*
Y427756*
X301110*
G37*
X320992D02*
G36*
Y423819D01*
G75*
G02X319220Y422047I-1772*
G01*
X322961*
G75*
G02X321189Y423819J1772*
G01*
Y427756*
X320992*
G37*
X340480D02*
G36*
Y423819D01*
G75*
G02X338709Y422047I-1772*
G01*
X342646*
G75*
G02X340874Y423819J1772*
G01*
Y427756*
X340480*
G37*
X360165D02*
G36*
Y423819D01*
G75*
G02X358394Y422047I-1772*
G01*
X362331*
G75*
G02X360559Y423819J1772*
G01*
Y427756*
X360165*
G37*
X379850D02*
G36*
Y423819D01*
G75*
G02X378079Y422047I-1772*
G01*
X381819*
G75*
G02X380047Y423819J1772*
G01*
Y427756*
X379850*
G37*
X399339D02*
G36*
Y423819D01*
G75*
G02X397567Y422047I-1772*
G01*
X401701*
G75*
G02X399929Y423819J1772*
G01*
Y427756*
X399339*
G37*
X419220D02*
G36*
Y423819D01*
G75*
G02X417449Y422047I-1772*
G01*
X421189*
G75*
G02X419417Y423819J1772*
G01*
Y427756*
X419220*
G37*
X438709D02*
G36*
Y423819D01*
G75*
G02X436937Y422047I-1772*
G01*
X441071*
G75*
G02X439299Y423819J1772*
G01*
Y427756*
X438709*
G37*
X458591D02*
G36*
Y423819D01*
G75*
G02X456819Y422047I-1772*
G01*
X460559*
G75*
G02X458787Y423819J1772*
G01*
Y427756*
X458591*
G37*
X478079D02*
G36*
Y423819D01*
G75*
G02X476307Y422047I-1772*
G01*
X480441*
G75*
G02X478669Y423819J1772*
G01*
Y427756*
X478079*
G37*
X504654D02*
G36*
Y423819D01*
G75*
G02X502882Y422047I-1772*
G01*
X505835*
Y427756*
X504654*
G37*
X10165Y433465D02*
G36*
Y427756D01*
X10559*
Y431693*
G75*
G02X12331Y433465I1772*
G01*
X10165*
G37*
X25520Y431693D02*
G36*
Y427756D01*
X26110*
Y431693*
G75*
G02X27882Y433465I1772*
G01*
X23748*
G75*
G02X25520Y431693J-1772*
G01*
G37*
X45402D02*
G36*
Y427756D01*
X45795*
Y431496*
X45930Y432174*
X46314Y432749*
X46889Y433133*
X47567Y433268*
X63315*
X63993Y433133*
X64568Y432749*
X64952Y432174*
X65087Y431496*
Y427756*
X65283*
Y431693*
G75*
G02X67055Y433465I1772*
G01*
X43630*
G75*
G02X45402Y431693J-1772*
G01*
G37*
X84575D02*
G36*
Y427756D01*
X85165*
Y431693*
G75*
G02X86937Y433465I1772*
G01*
X82803*
G75*
G02X84575Y431693J-1772*
G01*
G37*
X104457D02*
G36*
Y427756D01*
X104654*
Y431693*
G75*
G02X106425Y433465I1772*
G01*
X102685*
G75*
G02X104457Y431693J-1772*
G01*
G37*
X123945D02*
G36*
Y427756D01*
X124339*
Y431693*
G75*
G02X126110Y433465I1772*
G01*
X122173*
G75*
G02X123945Y431693J-1772*
G01*
G37*
X143630D02*
G36*
Y427756D01*
X144024*
Y431693*
G75*
G02X145795Y433465I1772*
G01*
X141858*
G75*
G02X143630Y431693J-1772*
G01*
G37*
X163315D02*
G36*
Y427756D01*
X163906*
Y431693*
G75*
G02X165677Y433465I1772*
G01*
X161543*
G75*
G02X163315Y431693J-1772*
G01*
G37*
X183197D02*
G36*
Y427756D01*
X183591*
Y431693*
G75*
G02X185362Y433465I1772*
G01*
X181425*
G75*
G02X183197Y431693J-1772*
G01*
G37*
X202882D02*
G36*
Y427756D01*
X203079*
Y431693*
G75*
G02X204850Y433465I1772*
G01*
X201110*
G75*
G02X202882Y431693J-1772*
G01*
G37*
X222370D02*
G36*
Y427756D01*
X222764*
Y431693*
G75*
G02X224535Y433465I1772*
G01*
X220598*
G75*
G02X222370Y431693J-1772*
G01*
G37*
X242055D02*
G36*
Y427756D01*
X242449*
Y431693*
G75*
G02X244220Y433465I1772*
G01*
X240283*
G75*
G02X242055Y431693J-1772*
G01*
G37*
X261740D02*
G36*
Y427756D01*
X262331*
Y431693*
G75*
G02X264102Y433465I1772*
G01*
X259969*
G75*
G02X261740Y431693J-1772*
G01*
G37*
X281622D02*
G36*
Y427756D01*
X281819*
Y431693*
G75*
G02X283591Y433465I1772*
G01*
X279850*
G75*
G02X281622Y431693J-1772*
G01*
G37*
X301110D02*
G36*
Y427756D01*
X301701*
Y431693*
G75*
G02X303472Y433465I1772*
G01*
X299339*
G75*
G02X301110Y431693J-1772*
G01*
G37*
X320992D02*
G36*
Y427756D01*
X321189*
Y431693*
G75*
G02X322961Y433465I1772*
G01*
X319220*
G75*
G02X320992Y431693J-1772*
G01*
G37*
X340480D02*
G36*
Y427756D01*
X340874*
Y431693*
G75*
G02X342646Y433465I1772*
G01*
X338709*
G75*
G02X340480Y431693J-1772*
G01*
G37*
X360165D02*
G36*
Y427756D01*
X360559*
Y431693*
G75*
G02X362331Y433465I1772*
G01*
X358394*
G75*
G02X360165Y431693J-1772*
G01*
G37*
X379850D02*
G36*
Y427756D01*
X380047*
Y431693*
G75*
G02X381819Y433465I1772*
G01*
X378079*
G75*
G02X379850Y431693J-1772*
G01*
G37*
X399339D02*
G36*
Y427756D01*
X399929*
Y431693*
G75*
G02X401701Y433465I1772*
G01*
X397567*
G75*
G02X399339Y431693J-1772*
G01*
G37*
X419220D02*
G36*
Y427756D01*
X419417*
Y431693*
G75*
G02X421189Y433465I1772*
G01*
X417449*
G75*
G02X419220Y431693J-1772*
G01*
G37*
X438709D02*
G36*
Y427756D01*
X439299*
Y431693*
G75*
G02X441071Y433465I1772*
G01*
X436937*
G75*
G02X438709Y431693J-1772*
G01*
G37*
X458591D02*
G36*
Y427756D01*
X458787*
Y431693*
G75*
G02X460559Y433465I1772*
G01*
X456819*
G75*
G02X458591Y431693J-1772*
G01*
G37*
X478079D02*
G36*
Y427756D01*
X478669*
Y431693*
G75*
G02X480441Y433465I1772*
G01*
X476307*
G75*
G02X478079Y431693J-1772*
G01*
G37*
X504654D02*
G36*
Y427756D01*
X505835*
Y432087*
Y433465*
X502882*
G75*
G02X504654Y431693J-1772*
G01*
G37*
X65087Y551772D02*
Y433661D01*
X112331*
Y465157*
X153669*
Y485630*
X100520*
Y480906*
X76898*
Y504528*
X100520*
Y499803*
X153669*
Y520276*
X112331*
Y551772*
X65087*
G36*
Y433661*
X112331*
Y465157*
X153669*
Y485630*
X100520*
Y480906*
X76898*
Y504528*
X100520*
Y499803*
X153669*
Y520276*
X112331*
Y551772*
X65087*
G37*
X97370Y214961D02*
Y210394D01*
X101228*
X102409Y211181*
X105638*
Y213937*
X102094*
X101071Y214961*
X97370*
G36*
Y210394*
X101228*
X102409Y211181*
X105638*
Y213937*
X102094*
X101071Y214961*
X97370*
G37*
X108315Y226929D02*
X111071D01*
Y219055*
X108315*
Y226929*
G36*
X111071*
Y219055*
X108315*
Y226929*
G37*
X109181Y355512D02*
Y335039D01*
X151701*
Y303543*
X198945*
Y421654*
X151701*
Y390157*
X109181*
Y383465*
X122961*
Y378740*
X131622*
Y383465*
X145008*
Y375591*
X139496*
Y366929*
X143039*
Y372047*
X149339*
X149732Y372441*
X156031*
X159181Y369291*
X163512*
Y374409*
X187134*
Y350787*
X163512*
Y355512*
X133591*
X131622Y357480*
Y362205*
X130441Y363386*
X124929*
X123748Y362205*
Y357480*
X121780Y355512*
X109181*
G36*
Y335039*
X151701*
Y303543*
X198945*
Y421654*
X151701*
Y390157*
X109181*
Y383465*
X122961*
Y378740*
X131622*
Y383465*
X145008*
Y375591*
X139496*
Y366929*
X143039*
Y372047*
X149339*
X149732Y372441*
X156031*
X159181Y369291*
X163512*
Y374409*
X187134*
Y350787*
X163512*
Y355512*
X133591*
X131622Y357480*
Y362205*
X130441Y363386*
X124929*
X123748Y362205*
Y357480*
X121780Y355512*
X109181*
G37*
X153669Y485630D02*
Y433661D01*
X200913*
Y551772*
X153669*
Y499803*
X165480*
Y504528*
X189102*
Y480906*
X165480*
Y485630*
X153669*
G36*
Y433661*
X200913*
Y551772*
X153669*
Y499803*
X165480*
Y504528*
X189102*
Y480906*
X165480*
Y485630*
X153669*
G37*
X159935Y23060D02*
X159935Y22019D01*
G75*
G02X160559Y20669I-1148J-1350*
G01*
Y2362*
X401819*
Y140354*
X159969*
Y139696*
G75*
G02X160362Y138583I-1378J-1113*
G01*
Y122835*
G75*
G02X159963Y121715I-1772J0*
G01*
X159963Y120019*
G75*
G02X160362Y118898I-1372J-1121*
G01*
Y103150*
G75*
G02X159957Y102023I-1772J0*
G01*
X159957Y100340*
G75*
G02X160362Y99213I-1367J-1128*
G01*
Y83465*
G75*
G02X159952Y82331I-1772*
G01*
X159952Y80863*
G75*
G02X160559Y79528I-1164J-1335*
G01*
Y63780*
G75*
G02X159946Y62439I-1772J0*
G01*
X159946Y61183*
G75*
G02X160559Y59843I-1158J-1340*
G01*
Y44094*
G75*
G02X159941Y42750I-1772*
G01*
X159940Y41503*
G75*
G02X160559Y40157I-1153J-1345*
G01*
Y24409*
G75*
G02X159935Y23060I-1772*
G01*
X363748Y82598D02*
X387449D01*
Y58386*
X363748*
Y63937*
X343591*
Y51339*
X334142*
Y63937*
X254220*
Y52913*
X251803*
Y51783*
X247425*
Y52913*
X244772*
Y63937*
X198433*
Y58386*
X174732*
Y82598*
X198433*
Y77717*
X291228*
Y89921*
X300677*
Y77717*
X363748*
Y82598*
X160131Y23255D02*
G36*
Y21823D01*
G75*
G02X160559Y20669I-1345J-1154*
G01*
Y2559*
X401622*
Y70630*
X387449*
Y58386*
X363748*
Y63937*
X343591*
Y51339*
X334142*
Y63937*
X254220*
Y52913*
X251803*
Y51783*
X247425*
Y52913*
X244772*
Y63937*
X198433*
Y58386*
X174732*
Y70630*
X160559*
Y63780*
Y63779*
G75*
G02X160131Y62625I-1771*
G01*
Y60996*
G75*
G02X160559Y59843I-1344J-1154*
G01*
Y44094*
G75*
G02X160131Y42941I-1773J1*
G01*
Y41312*
G75*
G02X160559Y40157I-1344J-1154*
G01*
Y24409*
Y24409*
G75*
G02X160131Y23255I-1771*
G01*
G37*
Y82590D02*
G36*
Y80681D01*
G75*
G02X160559Y79528I-1344J-1154*
G01*
Y70630*
X174732*
Y82598*
X198433*
Y77717*
X291228*
Y89921*
X300677*
Y77717*
X363748*
Y82598*
X387449*
Y70630*
X401622*
Y140157*
X160131*
Y139457*
G75*
G02X160362Y138583I-1540J-874*
G01*
Y138583*
Y122835*
G75*
G02X160131Y121960I-1774J0*
G01*
Y119772*
G75*
G02X160362Y118898I-1540J-874*
G01*
Y118898*
Y103150*
G75*
G02X160131Y102276I-1773J1*
G01*
Y100087*
G75*
G02X160362Y99213I-1540J-874*
G01*
Y99213*
Y83465*
G75*
G02Y83464I-1735J0*
G01*
G75*
G02X160131Y82590I-1770*
G01*
G37*
X159969Y291732D02*
Y152362D01*
X402094*
Y273296*
G75*
G02X401701Y274409I1378J1113*
G01*
Y290157*
G75*
G02X402094Y291271I1772*
G01*
Y291732*
X401701*
G75*
G02X400228Y292520J1772*
G01*
X399237*
G75*
G02X397764Y291732I-1473J984*
G01*
X382016*
G75*
G02X380543Y292520J1772*
G01*
X379552*
G75*
G02X378079Y291732I-1473J984*
G01*
X362331*
G75*
G02X360857Y292520J1772*
G01*
X359867*
G75*
G02X358394Y291732I-1473J984*
G01*
X342646*
G75*
G02X341172Y292520J1772*
G01*
X340182*
G75*
G02X338709Y291732I-1473J984*
G01*
X322961*
G75*
G02X321487Y292520J1772*
G01*
X320497*
G75*
G02X319024Y291732I-1473J984*
G01*
X303276*
G75*
G02X301802Y292520J1772*
G01*
X301009*
G75*
G02X299535Y291732I-1473J984*
G01*
X283787*
G75*
G02X282314Y292520J1772*
G01*
X281324*
G75*
G02X279850Y291732I-1473J984*
G01*
X264102*
G75*
G02X262629Y292520J1772*
G01*
X261442*
G75*
G02X259969Y291732I-1473J984*
G01*
X244220*
G75*
G02X242747Y292520J1772*
G01*
X241757*
G75*
G02X240283Y291732I-1473J984*
G01*
X224535*
G75*
G02X223062Y292520J1772*
G01*
X222269*
G75*
G02X220795Y291732I-1473J984*
G01*
X205047*
G75*
G02X203574Y292520J1772*
G01*
X202387*
G75*
G02X200913Y291732I-1473J984*
G01*
X185165*
G75*
G02X183692Y292520J1772*
G01*
X182702*
G75*
G02X181228Y291732I-1473J984*
G01*
X165480*
G75*
G02X164007Y292520J1772*
G01*
X163017*
G75*
G02X161543Y291732I-1473J984*
G01*
X159969*
X363512Y234213D02*
X387213D01*
Y210000*
X363512*
Y215650*
X312961*
X308492Y220118*
X288866*
X285520Y223465*
Y225472*
X283732*
G75*
G02X283213I-259J1693*
G01*
X280165*
Y229803*
X283236*
X287331Y233898*
X290053*
Y239980*
X290835*
Y241108*
X289736*
Y248183*
X290768*
Y251463*
X289776*
Y258537*
X290650*
Y262250*
X289618*
Y269325*
X297193*
Y262250*
X296161*
Y258537*
X297350*
Y251463*
X296280*
Y248183*
X297311*
Y241108*
X296346*
Y239980*
X297128*
Y233898*
X321917*
X326386Y229429*
X363512*
Y234213*
X228425Y281228D02*
X236000D01*
Y273654*
X228425*
Y281228*
X286615Y279167D02*
X288193D01*
Y272093*
X287161*
Y269325*
X288193*
Y262250*
X280618*
Y269325*
X281650*
Y272093*
X280618*
Y272874*
X270362*
X256169Y258681*
G75*
G02X254218Y257874I-1949J1949*
G01*
X216074*
G75*
G02X214122Y258681I-3J2756*
G01*
X210264Y262539*
G75*
G02X209457Y264488I1949J1949*
G01*
Y273654*
X208425*
Y281228*
X216000*
Y273654*
X214969*
Y265630*
X217213Y263386*
X253079*
X257429Y267736*
X267272Y277579*
G75*
G02X269223Y278386I1949J-1949*
G01*
X280618*
Y279167*
X285819*
G75*
G02X286615I398J-1727*
G01*
X276259Y223701D02*
X279063D01*
Y219488*
X272764*
X269969Y215433*
X269535*
Y198031*
X255756*
Y215433*
X198472*
Y209646*
X174220*
Y233858*
X198472*
Y229213*
X268709*
X274220Y223701*
X274678*
G75*
G02X276259I791J-1524*
G01*
X210165Y183110D02*
X353866D01*
Y163425*
X210165*
Y183110*
X160165Y173268D02*
G36*
Y152559D01*
X401898*
Y173268*
X353866*
Y163425*
X210165*
Y173268*
X160165*
G37*
Y215945D02*
G36*
Y173268D01*
X210165*
Y183110*
X353866*
Y173268*
X401898*
Y215945*
X387213*
Y210000*
X363512*
Y215650*
X312961*
X312665Y215945*
X270321*
X269969Y215433*
X269535*
Y198031*
X255756*
Y215433*
X198472*
Y209646*
X174220*
Y215945*
X160165*
G37*
Y239662D02*
G36*
Y215945D01*
X174220*
Y233858*
X198472*
Y229213*
X268709*
X274220Y223701*
X274678*
G75*
G02X276259I791J-1523*
G01*
X279063*
Y219488*
X272764*
X270321Y215945*
X312665*
X308492Y220118*
X288866*
X285520Y223465*
Y225472*
X283732*
G75*
G02X283213I-259J1700*
G01*
X280165*
Y229803*
X283236*
X287331Y233898*
X290053*
Y239662*
X160165*
G37*
X297128D02*
G36*
Y233898D01*
X321917*
X326386Y229429*
X363512*
Y234213*
X387213*
Y215945*
X401898*
Y239662*
X297128*
G37*
X160165Y277441D02*
G36*
Y239662D01*
X290053*
Y239980*
X290835*
Y241108*
X289736*
Y248183*
X290768*
Y251463*
X289776*
Y258537*
X290650*
Y262250*
X289618*
Y269325*
X297193*
Y262250*
X296161*
Y258537*
X297350*
Y251463*
X296280*
Y248183*
X297311*
Y241108*
X296346*
Y239980*
X297128*
Y239662*
X401898*
Y273598*
G75*
G02X401701Y274409I1572J811*
G01*
Y277441*
X288193*
Y272093*
X287161*
Y269325*
X288193*
Y262250*
X280618*
Y269325*
X281650*
Y272093*
X280618*
Y272874*
X270362*
X256169Y258681*
G75*
G02X254218Y257874I-1948J1947*
G01*
X216074*
G75*
G02X214122Y258681I-4J2754*
G01*
X210264Y262539*
G75*
G02X209457Y264488I1950J1949*
G01*
Y273654*
X208425*
Y277441*
X160165*
G37*
X214969Y273654D02*
G36*
Y265630D01*
X217213Y263386*
X253079*
X257429Y267736*
X267134Y277441*
X236000*
Y273654*
X228425*
Y277441*
X216000*
Y273654*
X214969*
G37*
X160165Y291732D02*
G36*
Y277441D01*
X208425*
Y281228*
X216000*
Y277441*
X228425*
Y281228*
X236000*
Y277441*
X267134*
X267272Y277579*
G75*
G02X269223Y278386I1948J-1947*
G01*
X280618*
Y279167*
X285819*
G75*
G02X286615I398J-1727*
G01*
X288193*
Y277441*
X401701*
Y290157*
G75*
G02Y290158I1504J0*
G01*
G75*
G02X401898Y290969I1769*
G01*
Y291732*
X401701*
G75*
G02X400380Y292323J1771*
G01*
X399084*
G75*
G02X397764Y291732I-1320J1181*
G01*
X382016*
G75*
G02X380695Y292323J1771*
G01*
X379399*
G75*
G02X378079Y291732I-1320J1181*
G01*
X362331*
G75*
G02X361010Y292323J1771*
G01*
X359714*
G75*
G02X358394Y291732I-1320J1181*
G01*
X342646*
G75*
G02X341325Y292323J1771*
G01*
X340029*
G75*
G02X338709Y291732I-1320J1181*
G01*
X322961*
G75*
G02X321640Y292323J1771*
G01*
X320344*
G75*
G02X319024Y291732I-1320J1181*
G01*
X303276*
G75*
G02X301955Y292323J1771*
G01*
X300856*
G75*
G02X299535Y291732I-1320J1181*
G01*
X283787*
G75*
G02X282467Y292323J1771*
G01*
X281171*
G75*
G02X279850Y291732I-1320J1181*
G01*
X264102*
G75*
G02X262782Y292323J1771*
G01*
X261289*
G75*
G02X259969Y291732I-1320J1181*
G01*
X244220*
G75*
G02X242900Y292323J1771*
G01*
X241604*
G75*
G02X240283Y291732I-1320J1181*
G01*
X224535*
G75*
G02X223215Y292323J1771*
G01*
X222116*
G75*
G02X220795Y291732I-1320J1181*
G01*
X205047*
G75*
G02X203727Y292323J1771*
G01*
X202234*
G75*
G02X200913Y291732I-1320J1181*
G01*
X185165*
G75*
G02X183845Y292323J1771*
G01*
X182549*
G75*
G02X181228Y291732I-1320J1181*
G01*
X165480*
G75*
G02X164160Y292323J1771*
G01*
X162864*
G75*
G02X161543Y291732I-1320J1181*
G01*
X160165*
G37*
X198945Y421654D02*
Y303543D01*
X254063*
Y421654*
X198945*
X208787Y323031D02*
G75*
G02X210559Y321260J-1772D01*
G01*
Y305512*
G75*
G02X208787Y303740I-1772*
G01*
X200913*
G75*
G02X199142Y305512J1772*
G01*
Y321260*
G75*
G02X200913Y323031I1772*
G01*
X208787*
Y342717D02*
G75*
G02X210559Y340945J-1772D01*
G01*
Y325197*
G75*
G02X208787Y323425I-1772*
G01*
X200913*
G75*
G02X199142Y325197J1772*
G01*
Y340945*
G75*
G02X200913Y342717I1772*
G01*
X208787*
Y362402D02*
G75*
G02X210559Y360630J-1772D01*
G01*
Y344882*
G75*
G02X208787Y343110I-1772*
G01*
X200913*
G75*
G02X199142Y344882J1772*
G01*
Y360630*
G75*
G02X200913Y362402I1772*
G01*
X208787*
Y382087D02*
G75*
G02X210559Y380315J-1772D01*
G01*
Y364567*
G75*
G02X208787Y362795I-1772*
G01*
X200913*
G75*
G02X199142Y364567J1772*
G01*
Y380315*
G75*
G02X200913Y382087I1772*
G01*
X208787*
Y401772D02*
G75*
G02X210559Y400000J-1772D01*
G01*
Y384252*
G75*
G02X208787Y382480I-1772*
G01*
X200913*
G75*
G02X199142Y384252J1772*
G01*
Y400000*
G75*
G02X200913Y401772I1772*
G01*
X208787*
Y421457D02*
G75*
G02X210559Y419685J-1772D01*
G01*
Y403937*
G75*
G02X208787Y402165I-1772*
G01*
X200913*
G75*
G02X199142Y403937J1772*
G01*
Y419685*
G75*
G02X200913Y421457I1772*
G01*
X208787*
X222567Y374409D02*
X246189D01*
Y350787*
X222567*
Y374409*
X199142Y305512D02*
G36*
Y303740D01*
X200913*
G75*
G02X199142Y305512J1772*
G01*
G37*
X210559Y313386D02*
G36*
Y305512D01*
G75*
G02X208787Y303740I-1772*
G01*
X253866*
Y313386*
X210559*
G37*
X199142Y325197D02*
G36*
Y321260D01*
G75*
G02X200913Y323031I1772*
G01*
X208787*
G75*
G02X210559Y321260J-1772*
G01*
Y313386*
X253866*
Y333071*
X210559*
Y325197*
G75*
G02X208787Y323425I-1772*
G01*
X200913*
G75*
G02X199142Y325197J1772*
G01*
G37*
Y344882D02*
G36*
Y340945D01*
G75*
G02X200913Y342717I1772*
G01*
X208787*
G75*
G02X210559Y340945J-1772*
G01*
Y333071*
X253866*
Y352756*
X246189*
Y350787*
X222567*
Y352756*
X210559*
Y344882*
G75*
G02X208787Y343110I-1772*
G01*
X200913*
G75*
G02X199142Y344882J1772*
G01*
G37*
Y364567D02*
G36*
Y360630D01*
G75*
G02X200913Y362402I1772*
G01*
X208787*
G75*
G02X210559Y360630J-1772*
G01*
Y352756*
X222567*
Y372441*
X210559*
Y364567*
G75*
G02X208787Y362795I-1772*
G01*
X200913*
G75*
G02X199142Y364567J1772*
G01*
G37*
X246189Y372441D02*
G36*
Y352756D01*
X253866*
Y372441*
X246189*
G37*
X199142Y384252D02*
G36*
Y380315D01*
G75*
G02X200913Y382087I1772*
G01*
X208787*
G75*
G02X210559Y380315J-1772*
G01*
Y372441*
X222567*
Y374409*
X246189*
Y372441*
X253866*
Y392126*
X210559*
Y384252*
G75*
G02X208787Y382480I-1772*
G01*
X200913*
G75*
G02X199142Y384252J1772*
G01*
G37*
Y403937D02*
G36*
Y400000D01*
G75*
G02X200913Y401772I1772*
G01*
X208787*
G75*
G02X210559Y400000J-1772*
G01*
Y392126*
X253866*
Y411811*
X210559*
Y403937*
G75*
G02X208787Y402165I-1772*
G01*
X200913*
G75*
G02X199142Y403937J1772*
G01*
G37*
Y421457D02*
G36*
Y419685D01*
G75*
G02X200913Y421457I1772*
G01*
X199142*
G37*
X210559Y419685D02*
G36*
Y411811D01*
X253866*
Y421457*
X208787*
G75*
G02X210559Y419685J-1772*
G01*
G37*
X200913Y551772D02*
Y433661D01*
X265874*
Y439764*
G75*
G02X264102Y437992I-1772*
G01*
X256228*
G75*
G02X254457Y439764J1772*
G01*
Y455512*
G75*
G02X256228Y457283I1772*
G01*
X264102*
G75*
G02X265874Y455512J-1772*
G01*
Y479134*
G75*
G02X264102Y477362I-1772*
G01*
X256228*
G75*
G02X254457Y479134J1772*
G01*
Y494882*
G75*
G02X256228Y496654I1772*
G01*
X264102*
G75*
G02X265874Y494882J-1772*
G01*
Y498819*
G75*
G02X264102Y497047I-1772*
G01*
X256228*
G75*
G02X254457Y498819J1772*
G01*
Y514567*
G75*
G02X256228Y516339I1772*
G01*
X264102*
G75*
G02X265874Y514567J-1772*
G01*
Y518701*
G75*
G02X264102Y516929I-1772*
G01*
X256228*
G75*
G02X254457Y518701J1772*
G01*
Y534449*
G75*
G02X256228Y536220I1772*
G01*
X256031*
G75*
G02X254260Y537992J1772*
G01*
Y551772*
X200913*
X210756Y453150D02*
G75*
G02X212528Y451378J-1772D01*
G01*
Y435630*
G75*
G02X210756Y433858I-1772*
G01*
X202882*
G75*
G02X201110Y435630J1772*
G01*
Y451378*
G75*
G02X202882Y453150I1772*
G01*
X210756*
Y472835D02*
G75*
G02X212528Y471063J-1772D01*
G01*
Y455315*
G75*
G02X210756Y453543I-1772*
G01*
X202882*
G75*
G02X201110Y455315J1772*
G01*
Y471063*
G75*
G02X202882Y472835I1772*
G01*
X210756*
Y492520D02*
G75*
G02X212528Y490748J-1772D01*
G01*
Y475000*
G75*
G02X210756Y473228I-1772*
G01*
X202882*
G75*
G02X201110Y475000J1772*
G01*
Y490748*
G75*
G02X202882Y492520I1772*
G01*
X210756*
Y512205D02*
G75*
G02X212528Y510433J-1772D01*
G01*
Y494685*
G75*
G02X210756Y492913I-1772*
G01*
X202882*
G75*
G02X201110Y494685J1772*
G01*
Y510433*
G75*
G02X202882Y512205I1772*
G01*
X210756*
Y531890D02*
G75*
G02X212528Y530118J-1772D01*
G01*
Y514370*
G75*
G02X210756Y512598I-1772*
G01*
X202882*
G75*
G02X201110Y514370J1772*
G01*
Y530118*
G75*
G02X202882Y531890I1772*
G01*
X210756*
Y551575D02*
G75*
G02X212528Y549803J-1772D01*
G01*
Y534055*
G75*
G02X210756Y532283I-1772*
G01*
X202882*
G75*
G02X201110Y534055J1772*
G01*
Y549803*
G75*
G02X202882Y551575I1772*
G01*
X210756*
X224535Y504528D02*
X248157D01*
Y480906*
X224535*
Y504528*
X263906Y476772D02*
G75*
G02X265677Y475000J-1772D01*
G01*
Y459252*
G75*
G02X263906Y457480I-1772*
G01*
X256031*
G75*
G02X254260Y459252J1772*
G01*
Y475000*
G75*
G02X256031Y476772I1772*
G01*
X263906*
X201110Y435630D02*
G36*
Y433858D01*
X202882*
G75*
G02X201110Y435630J1772*
G01*
G37*
X212528Y443504D02*
G36*
Y435630D01*
G75*
G02X210756Y433858I-1772*
G01*
X265677*
Y438993*
X265355Y438511*
X264780Y438127*
X264102Y437992*
X256228*
X255550Y438127*
X254976Y438511*
X254592Y439086*
X254457Y439764*
Y443504*
X212528*
G37*
X201110Y455315D02*
G36*
Y451378D01*
G75*
G02X202882Y453150I1772*
G01*
X210756*
G75*
G02X212528Y451378J-1772*
G01*
Y443504*
X254457*
Y455512*
X254592Y456190*
X254976Y456765*
X255550Y457148*
X256228Y457283*
X264102*
X264780Y457148*
X265355Y456765*
X265677Y456282*
Y459252*
G75*
G02X263906Y457480I-1772*
G01*
X256031*
G75*
G02X254260Y459252J1772*
G01*
Y463189*
X212528*
Y455315*
G75*
G02X210756Y453543I-1772*
G01*
X202882*
G75*
G02X201110Y455315J1772*
G01*
G37*
Y475000D02*
G36*
Y471063D01*
G75*
G02X202882Y472835I1772*
G01*
X210756*
G75*
G02X212528Y471063J-1772*
G01*
Y463189*
X254260*
Y475000*
G75*
G02X256031Y476772I1772*
G01*
X263906*
G75*
G02X265677Y475000J-1772*
G01*
Y478363*
X265355Y477881*
X264780Y477497*
X264102Y477362*
X256228*
X255550Y477497*
X254976Y477881*
X254592Y478456*
X254457Y479134*
Y482874*
X248157*
Y480906*
X224535*
Y482874*
X212528*
Y475000*
G75*
G02X210756Y473228I-1772*
G01*
X202882*
G75*
G02X201110Y475000J1772*
G01*
G37*
Y494685D02*
G36*
Y490748D01*
G75*
G02X202882Y492520I1772*
G01*
X210756*
G75*
G02X212528Y490748J-1772*
G01*
Y482874*
X224535*
Y502559*
X212528*
Y494685*
G75*
G02X210756Y492913I-1772*
G01*
X202882*
G75*
G02X201110Y494685J1772*
G01*
G37*
X248157Y502559D02*
G36*
Y482874D01*
X254457*
Y494882*
X254592Y495560*
X254976Y496135*
X255550Y496519*
X256228Y496654*
X264102*
X264780Y496519*
X265355Y496135*
X265677Y495652*
Y498048*
X265355Y497566*
X264780Y497182*
X264102Y497047*
X256228*
X255550Y497182*
X254976Y497566*
X254592Y498141*
X254457Y498819*
Y502559*
X248157*
G37*
X201110Y514370D02*
G36*
Y510433D01*
G75*
G02X202882Y512205I1772*
G01*
X210756*
G75*
G02X212528Y510433J-1772*
G01*
Y502559*
X224535*
Y504528*
X248157*
Y502559*
X254457*
Y514567*
X254592Y515245*
X254976Y515820*
X255550Y516204*
X256228Y516339*
X264102*
X264780Y516204*
X265355Y515820*
X265677Y515337*
Y517930*
X265355Y517448*
X264780Y517064*
X264102Y516929*
X256228*
X255550Y517064*
X254976Y517448*
X254592Y518023*
X254457Y518701*
Y522244*
X212528*
Y514370*
G75*
G02X210756Y512598I-1772*
G01*
X202882*
G75*
G02X201110Y514370J1772*
G01*
G37*
Y534055D02*
G36*
Y530118D01*
G75*
G02X202882Y531890I1772*
G01*
X210756*
G75*
G02X212528Y530118J-1772*
G01*
Y522244*
X254457*
Y534449*
X254592Y535127*
X254976Y535702*
X255550Y536085*
X256228Y536220*
X256031*
X255354Y536356*
X254779Y536739*
X254395Y537314*
X254260Y537992*
Y541929*
X212528*
Y534055*
G75*
G02X210756Y532283I-1772*
G01*
X202882*
G75*
G02X201110Y534055J1772*
G01*
G37*
Y551575D02*
G36*
Y549803D01*
G75*
G02X202882Y551575I1772*
G01*
X201110*
G37*
X212528Y549803D02*
G36*
Y541929D01*
X254260*
Y551575*
X210756*
G75*
G02X212528Y549803J-1772*
G01*
G37*
X254063Y421654D02*
Y303543D01*
X321189*
Y421654*
X264914*
G75*
G02X265874Y420079I-812J-1575*
G01*
Y404331*
G75*
G02X264102Y402559I-1772*
G01*
X256228*
G75*
G02X254457Y404331J1772*
G01*
Y420079*
G75*
G02X255417Y421654I1772*
G01*
X254063*
X273945Y374409D02*
X297567D01*
Y350787*
X273945*
Y374409*
X319220Y323031D02*
G75*
G02X320992Y321260J-1772D01*
G01*
Y305512*
G75*
G02X319220Y303740I-1772*
G01*
X311346*
G75*
G02X309575Y305512J1772*
G01*
Y321260*
G75*
G02X311346Y323031I1772*
G01*
X319220*
Y342717D02*
G75*
G02X320992Y340945J-1772D01*
G01*
Y325197*
G75*
G02X319220Y323425I-1772*
G01*
X311346*
G75*
G02X309575Y325197J1772*
G01*
Y340945*
G75*
G02X311346Y342717I1772*
G01*
X319220*
Y362402D02*
G75*
G02X320992Y360630J-1772D01*
G01*
Y344882*
G75*
G02X319220Y343110I-1772*
G01*
X311346*
G75*
G02X309575Y344882J1772*
G01*
Y360630*
G75*
G02X311346Y362402I1772*
G01*
X319220*
Y382087D02*
G75*
G02X320992Y380315J-1772D01*
G01*
Y364567*
G75*
G02X319220Y362795I-1772*
G01*
X311346*
G75*
G02X309575Y364567J1772*
G01*
Y380315*
G75*
G02X311346Y382087I1772*
G01*
X319220*
Y401772D02*
G75*
G02X320992Y400000J-1772D01*
G01*
Y384252*
G75*
G02X319220Y382480I-1772*
G01*
X311346*
G75*
G02X309575Y384252J1772*
G01*
Y400000*
G75*
G02X311346Y401772I1772*
G01*
X319220*
Y421457D02*
G75*
G02X320992Y419685J-1772D01*
G01*
Y403937*
G75*
G02X319220Y402165I-1772*
G01*
X311346*
G75*
G02X309575Y403937J1772*
G01*
Y419685*
G75*
G02X311346Y421457I1772*
G01*
X319220*
X264102Y323228D02*
G75*
G02X265874Y321457J-1772D01*
G01*
Y307087*
G75*
G02X264102Y305315I-1772*
G01*
X256228*
G75*
G02X254457Y307087J1772*
G01*
Y321457*
G75*
G02X256228Y323228I1772*
G01*
X264102*
Y343110D02*
G75*
G02X265874Y341339J-1772D01*
G01*
Y325591*
G75*
G02X264102Y323819I-1772*
G01*
X256228*
G75*
G02X254457Y325591J1772*
G01*
Y341339*
G75*
G02X256228Y343110I1772*
G01*
X264102*
Y362795D02*
G75*
G02X265874Y361024J-1772D01*
G01*
Y345276*
G75*
G02X264102Y343504I-1772*
G01*
X256228*
G75*
G02X254457Y345276J1772*
G01*
Y361024*
G75*
G02X256228Y362795I1772*
G01*
X264102*
Y382677D02*
G75*
G02X265874Y380906J-1772D01*
G01*
Y365157*
G75*
G02X264102Y363386I-1772*
G01*
X256228*
G75*
G02X254457Y365157J1772*
G01*
Y380906*
G75*
G02X256228Y382677I1772*
G01*
X264102*
Y402362D02*
G75*
G02X265874Y400591J-1772D01*
G01*
Y384843*
G75*
G02X264102Y383071I-1772*
G01*
X256228*
G75*
G02X254457Y384843J1772*
G01*
Y400591*
G75*
G02X256228Y402362I1772*
G01*
X264102*
X254260Y313386D02*
G36*
Y303740D01*
X311346*
G75*
G02X309575Y305512J1772*
G01*
Y313386*
X265874*
Y307087*
G75*
G02X264102Y305315I-1772*
G01*
X256228*
G75*
G02X254457Y307087J1772*
G01*
Y313386*
X254260*
G37*
X319220Y303740D02*
G36*
X320992D01*
Y305512*
G75*
G02X319220Y303740I-1772*
G01*
G37*
X254260Y333071D02*
G36*
Y313386D01*
X254457*
Y321457*
G75*
G02X256228Y323228I1772*
G01*
X264102*
G75*
G02X265874Y321457J-1772*
G01*
Y313386*
X309575*
Y321260*
G75*
G02X311346Y323031I1772*
G01*
X319220*
G75*
G02X320992Y321260J-1772*
G01*
Y325197*
G75*
G02X319220Y323425I-1772*
G01*
X311346*
G75*
G02X309575Y325197J1772*
G01*
Y333071*
X265874*
Y325591*
G75*
G02X264102Y323819I-1772*
G01*
X256228*
G75*
G02X254457Y325591J1772*
G01*
Y333071*
X254260*
G37*
Y352756D02*
G36*
Y333071D01*
X254457*
Y341339*
G75*
G02X256228Y343110I1772*
G01*
X264102*
G75*
G02X265874Y341339J-1772*
G01*
Y333071*
X309575*
Y340945*
G75*
G02X311346Y342717I1772*
G01*
X319220*
G75*
G02X320992Y340945J-1772*
G01*
Y344882*
G75*
G02X319220Y343110I-1772*
G01*
X311346*
G75*
G02X309575Y344882J1772*
G01*
Y352756*
X297567*
Y350787*
X273945*
Y352756*
X265874*
Y345276*
G75*
G02X264102Y343504I-1772*
G01*
X256228*
G75*
G02X254457Y345276J1772*
G01*
Y352756*
X254260*
G37*
Y362598D02*
G36*
Y352756D01*
X254457*
Y361024*
G75*
G02X255417Y362598I1772*
G01*
X254260*
G37*
X265874Y361024D02*
G36*
Y352756D01*
X273945*
Y362598*
X264914*
G75*
G02X265874Y361024I-812J-1575*
G01*
G37*
X297567Y362598D02*
G36*
Y352756D01*
X309575*
Y360630*
G75*
G02X311346Y362402I1772*
G01*
X319220*
G75*
G02X320992Y360630J-1772*
G01*
Y362598*
X297567*
G37*
X254260Y372441D02*
G36*
Y362598D01*
X255417*
G75*
G02X256228Y362795I812J-1575*
G01*
X264102*
G75*
G02X264914Y362598J-1772*
G01*
X273945*
Y372441*
X265874*
Y365157*
G75*
G02X264102Y363386I-1772*
G01*
X256228*
G75*
G02X254457Y365157J1772*
G01*
Y372441*
X254260*
G37*
X297567D02*
G36*
Y362598D01*
X320992*
Y364567*
G75*
G02X319220Y362795I-1772*
G01*
X311346*
G75*
G02X309575Y364567J1772*
G01*
Y372441*
X297567*
G37*
X254260Y392126D02*
G36*
Y372441D01*
X254457*
Y380906*
G75*
G02X256228Y382677I1772*
G01*
X264102*
G75*
G02X265874Y380906J-1772*
G01*
Y372441*
X273945*
Y374409*
X297567*
Y372441*
X309575*
Y380315*
G75*
G02X311346Y382087I1772*
G01*
X319220*
G75*
G02X320992Y380315J-1772*
G01*
Y384252*
G75*
G02X319220Y382480I-1772*
G01*
X311346*
G75*
G02X309575Y384252J1772*
G01*
Y392126*
X265874*
Y384843*
G75*
G02X264102Y383071I-1772*
G01*
X256228*
G75*
G02X254457Y384843J1772*
G01*
Y392126*
X254260*
G37*
Y411811D02*
G36*
Y392126D01*
X254457*
Y400591*
G75*
G02X256228Y402362I1772*
G01*
X264102*
G75*
G02X265874Y400591J-1772*
G01*
Y392126*
X309575*
Y400000*
G75*
G02X311346Y401772I1772*
G01*
X319220*
G75*
G02X320992Y400000J-1772*
G01*
Y403937*
G75*
G02X319220Y402165I-1772*
G01*
X311346*
G75*
G02X309575Y403937J1772*
G01*
Y411811*
X265874*
Y404331*
G75*
G02X264102Y402559I-1772*
G01*
X256228*
G75*
G02X254457Y404331J1772*
G01*
Y411811*
X254260*
G37*
Y421457D02*
G36*
Y411811D01*
X254457*
Y420079*
Y420079*
G75*
G02X255115Y421457I1771*
G01*
X254260*
G37*
X265874Y420079D02*
G36*
Y411811D01*
X309575*
Y419685*
G75*
G02X311346Y421457I1772*
G01*
X265216*
G75*
G02X265874Y420079I-1113J-1378*
G01*
Y420079*
G37*
X319220Y421457D02*
G36*
G75*
G02X320992Y419685J-1772D01*
G01*
Y421457*
X319220*
G37*
X263906Y536220D02*
X264102D01*
G75*
G02X265874Y534449J-1772*
G01*
Y551772*
X265677*
Y537992*
G75*
G02X263906Y536220I-1772*
G01*
G36*
X264102*
G75*
G02X265874Y534449J-1772*
G01*
Y551772*
X265677*
Y537992*
G75*
G02X263906Y536220I-1772*
G01*
G37*
X266071Y551772D02*
Y433661D01*
X321189*
Y551772*
X266071*
X273945Y504528D02*
X297567D01*
Y480906*
X273945*
Y504528*
X319220Y453150D02*
G75*
G02X320992Y451378J-1772D01*
G01*
Y435630*
G75*
G02X319220Y433858I-1772*
G01*
X311346*
G75*
G02X309575Y435630J1772*
G01*
Y451378*
G75*
G02X311346Y453150I1772*
G01*
X319220*
Y472835D02*
G75*
G02X320992Y471063J-1772D01*
G01*
Y455315*
G75*
G02X319220Y453543I-1772*
G01*
X311346*
G75*
G02X309575Y455315J1772*
G01*
Y471063*
G75*
G02X311346Y472835I1772*
G01*
X319220*
Y492520D02*
G75*
G02X320992Y490748J-1772D01*
G01*
Y475000*
G75*
G02X319220Y473228I-1772*
G01*
X311346*
G75*
G02X309575Y475000J1772*
G01*
Y490748*
G75*
G02X311346Y492520I1772*
G01*
X319220*
Y512205D02*
G75*
G02X320992Y510433J-1772D01*
G01*
Y494685*
G75*
G02X319220Y492913I-1772*
G01*
X311346*
G75*
G02X309575Y494685J1772*
G01*
Y510433*
G75*
G02X311346Y512205I1772*
G01*
X319220*
Y531890D02*
G75*
G02X320992Y530118J-1772D01*
G01*
Y514370*
G75*
G02X319220Y512598I-1772*
G01*
X311346*
G75*
G02X309575Y514370J1772*
G01*
Y530118*
G75*
G02X311346Y531890I1772*
G01*
X319220*
Y551575D02*
G75*
G02X320992Y549803J-1772D01*
G01*
Y534055*
G75*
G02X319220Y532283I-1772*
G01*
X311346*
G75*
G02X309575Y534055J1772*
G01*
Y549803*
G75*
G02X311346Y551575I1772*
G01*
X319220*
X266268Y443504D02*
G36*
Y433858D01*
X311346*
G75*
G02X309575Y435630J1772*
G01*
Y443504*
X266268*
G37*
X319220Y433858D02*
G36*
X320992D01*
Y435630*
G75*
G02X319220Y433858I-1772*
G01*
G37*
X266268Y463189D02*
G36*
Y443504D01*
X309575*
Y451378*
G75*
G02X311346Y453150I1772*
G01*
X319220*
G75*
G02X320992Y451378J-1772*
G01*
Y455315*
G75*
G02X319220Y453543I-1772*
G01*
X311346*
G75*
G02X309575Y455315J1772*
G01*
Y463189*
X266268*
G37*
Y482874D02*
G36*
Y463189D01*
X309575*
Y471063*
G75*
G02X311346Y472835I1772*
G01*
X319220*
G75*
G02X320992Y471063J-1772*
G01*
Y475000*
G75*
G02X319220Y473228I-1772*
G01*
X311346*
G75*
G02X309575Y475000J1772*
G01*
Y482874*
X297567*
Y480906*
X273945*
Y482874*
X266268*
G37*
Y492717D02*
G36*
Y482874D01*
X273945*
Y492717*
X266268*
G37*
X297567D02*
G36*
Y482874D01*
X309575*
Y490748*
G75*
G02X311346Y492520I1772*
G01*
X319220*
G75*
G02X320992Y490748J-1772*
G01*
Y492717*
X297567*
G37*
X266268Y502559D02*
G36*
Y492717D01*
X273945*
Y502559*
X266268*
G37*
X297567D02*
G36*
Y492717D01*
X320992*
Y494685*
G75*
G02X319220Y492913I-1772*
G01*
X311346*
G75*
G02X309575Y494685J1772*
G01*
Y502559*
X297567*
G37*
X266268Y522244D02*
G36*
Y502559D01*
X273945*
Y504528*
X297567*
Y502559*
X309575*
Y510433*
G75*
G02X311346Y512205I1772*
G01*
X319220*
G75*
G02X320992Y510433J-1772*
G01*
Y514370*
G75*
G02X319220Y512598I-1772*
G01*
X311346*
G75*
G02X309575Y514370J1772*
G01*
Y522244*
X266268*
G37*
Y541929D02*
G36*
Y522244D01*
X309575*
Y530118*
G75*
G02X311346Y531890I1772*
G01*
X319220*
G75*
G02X320992Y530118J-1772*
G01*
Y534055*
G75*
G02X319220Y532283I-1772*
G01*
X311346*
G75*
G02X309575Y534055J1772*
G01*
Y541929*
X266268*
G37*
Y551575D02*
G36*
Y541929D01*
X309575*
Y549803*
G75*
G02X311346Y551575I1772*
G01*
X266268*
G37*
X319220D02*
G36*
G75*
G02X320992Y549803J-1772D01*
G01*
Y551575*
X319220*
G37*
X321189Y551772D02*
Y433661D01*
X368433*
Y465157*
X409772*
Y485630*
X356622*
Y480906*
X333000*
Y504528*
X356622*
Y499803*
X409772*
Y520276*
X368433*
Y551772*
X321189*
G36*
Y433661*
X368433*
Y465157*
X409772*
Y485630*
X356622*
Y480906*
X333000*
Y504528*
X356622*
Y499803*
X409772*
Y520276*
X368433*
Y551772*
X321189*
G37*
X402094Y116117D02*
Y113804D01*
G75*
G02X403669Y114764I1575J-812*
G01*
X411543*
G75*
G02X413315Y112992J-1772*
G01*
Y99016*
X500717*
Y112992*
G75*
G02X501307Y114313I1772*
G01*
Y115609*
G75*
G02X500717Y116929I1181J1320*
G01*
Y132677*
G75*
G02X501307Y133998I1772*
G01*
Y135294*
G75*
G02X500717Y136614I1181J1320*
G01*
Y152362*
G75*
G02X501307Y153683I1772*
G01*
Y154979*
G75*
G02X500717Y156299I1181J1320*
G01*
Y172047*
G75*
G02X501307Y173368I1772*
G01*
Y174664*
G75*
G02X500717Y175984I1181J1320*
G01*
Y191732*
G75*
G02X501307Y193053I1772*
G01*
Y194349*
G75*
G02X500717Y195669I1181J1320*
G01*
Y211417*
G75*
G02X501307Y212738I1772*
G01*
Y291929*
X411346*
G75*
G02X413118Y290157J-1772*
G01*
Y274409*
G75*
G02X411346Y272638I-1772*
G01*
X403472*
G75*
G02X402094Y273296J1772*
G01*
Y271284*
G75*
G02X403669Y272244I1575J-812*
G01*
X411543*
G75*
G02X413315Y270472J-1772*
G01*
Y254724*
G75*
G02X411543Y252953I-1772*
G01*
X403669*
G75*
G02X402094Y253913J1772*
G01*
Y251599*
G75*
G02X403669Y252559I1575J-812*
G01*
X411543*
G75*
G02X413315Y250787J-1772*
G01*
Y235039*
G75*
G02X411543Y233268I-1772*
G01*
X403669*
G75*
G02X402094Y234228J1772*
G01*
Y231914*
G75*
G02X403669Y232874I1575J-812*
G01*
X411543*
G75*
G02X413315Y231102J-1772*
G01*
Y215354*
G75*
G02X411543Y213583I-1772*
G01*
X403669*
G75*
G02X402094Y214543J1772*
G01*
Y212229*
G75*
G02X403669Y213189I1575J-812*
G01*
X411543*
G75*
G02X413315Y211417J-1772*
G01*
Y195669*
G75*
G02X411543Y193898I-1772*
G01*
X403669*
G75*
G02X402094Y194857J1772*
G01*
Y192741*
G75*
G02X403669Y193701I1575J-812*
G01*
X411543*
G75*
G02X413315Y191929J-1772*
G01*
Y176181*
G75*
G02X411543Y174409I-1772*
G01*
X403669*
G75*
G02X402094Y175369J1772*
G01*
Y172859*
G75*
G02X403669Y173819I1575J-812*
G01*
X411543*
G75*
G02X413315Y172047J-1772*
G01*
Y156299*
G75*
G02X411543Y154528I-1772*
G01*
X403669*
G75*
G02X402094Y155487J1772*
G01*
Y153174*
G75*
G02X403669Y154134I1575J-812*
G01*
X411543*
G75*
G02X413315Y152362J-1772*
G01*
Y136614*
G75*
G02X411543Y134843I-1772*
G01*
X403669*
G75*
G02X402094Y135802J1772*
G01*
Y133489*
G75*
G02X403669Y134449I1575J-812*
G01*
X411543*
G75*
G02X413315Y132677J-1772*
G01*
Y116929*
G75*
G02X411543Y115157I-1772*
G01*
X403669*
G75*
G02X402094Y116117J1772*
G01*
X489817Y239327D02*
X496892D01*
Y231752*
X489817*
Y233768*
X483112*
Y231752*
X476037*
Y233768*
X469333*
Y231752*
X462258*
Y233768*
X455553*
Y231949*
X453787*
Y226206*
X456891Y223103*
G75*
G02X457319Y221291I-1252J-1253*
G01*
Y218602*
X464783*
Y219059*
G75*
G02X464299Y220276I1287J1217*
G01*
Y221260*
G75*
G02X464819Y222513I1772*
G01*
X469935Y227630*
G75*
G02X471189Y228150I1254J-1252*
G01*
X477946*
G75*
G02X482114Y226378I1707J-1772*
G01*
G75*
G02X477946Y224606I-2461*
G01*
X471923*
X467843Y220526*
Y220276*
G75*
G02X467358Y219059I-1771*
G01*
Y218602*
X469417*
Y214764*
X471534*
X471976Y215206*
Y219552*
G75*
G02X471287Y221260I1772J1707*
G01*
G75*
G02X476209I2461*
G01*
G75*
G02X475520Y219552I-2461*
G01*
Y215157*
G75*
G02X473798Y213387I-1772*
G01*
X473256Y212845*
Y212705*
X476468*
G75*
G02X477685Y213189I1217J-1287*
G01*
X489817*
Y214862*
X491583*
Y215025*
G75*
G02X490894Y216732I1772J1707*
G01*
G75*
G02X495815I2461*
G01*
G75*
G02X495126Y215025I-2461*
G01*
Y214862*
X496892*
Y207287*
X489817*
Y209646*
X477685*
G75*
G02X476468Y210130J1772*
G01*
X473256*
Y208768*
X481424*
G75*
G02X482335Y208391I1J-1287*
G01*
X486076Y204650*
G75*
G02X486453Y203740I-910J-910*
G01*
Y185335*
X489018*
Y177760*
X481943*
Y185335*
X483878*
Y203207*
X480892Y206193*
X478431*
X480170Y204454*
G75*
G02X480547Y203543I-910J-910*
G01*
Y191075*
G75*
G02X480170Y190165I-1287*
G01*
X473270Y183264*
Y177760*
X466195*
Y185335*
X471699*
X477972Y191608*
Y203010*
X476758Y204224*
X473256*
Y198228*
X469417*
Y194390*
X452882*
Y198228*
X449043*
Y202256*
X448887*
X447961Y201329*
Y199148*
G75*
G02X448650Y197441I-1772J-1707*
G01*
G75*
G02X444236Y195944I-2461*
G01*
Y189256*
X434756*
Y196177*
X444078*
G75*
G02X444417Y199148I2111J1264*
G01*
Y201378*
G75*
G02X446139Y203149I1772*
G01*
X446737Y203747*
G75*
G02X446583Y203740I-154J1767*
G01*
X443827*
Y201476*
X435165*
Y202362*
X434575*
Y185827*
X445402*
G75*
G02X446386Y184843J-984*
G01*
Y108071*
G75*
G02X446000Y107289I-984*
G01*
Y105571*
G75*
G02X438425I-3787*
G01*
Y110571*
G75*
G02X438512Y111376I3788*
G01*
Y166142*
X421780*
G75*
G02X420795Y167126J984*
G01*
Y271457*
G75*
G02X421780Y272441I984*
G01*
X433183*
X438556Y277814*
G75*
G02X438425Y278799I3657J985*
G01*
Y283799*
G75*
G02X446000I3787*
G01*
Y278799*
G75*
G02X445949Y278180I-3787J-1*
G01*
G75*
G02X446386Y277362I-548J-818*
G01*
Y249803*
G75*
G02X446098Y249107I-984*
G01*
X442883Y245892*
G75*
G02X442839Y245851I-695J698*
G01*
X442839Y245851*
G75*
G02X441774Y245690I-656J734*
G01*
Y240752*
X434699*
Y243003*
G75*
G02X434575Y242956I-412J895*
G01*
Y205906*
X435165*
Y207579*
X443827*
Y207283*
X446583*
G75*
G02X447800Y206799J-1772*
G01*
X448634*
Y211236*
X449043*
Y211598*
X448634*
Y215173*
X452882*
Y218602*
X454744*
Y220321*
G75*
G02X454385Y220598I893J1530*
G01*
X450764Y224219*
G75*
G02X450244Y225472I1252J1254*
G01*
Y231949*
X448478*
Y233768*
X441774*
Y231752*
X440165*
Y228563*
X441852*
Y220988*
X434778*
Y228563*
X436307*
Y231752*
X434699*
Y239327*
X441774*
Y237311*
X448478*
Y239524*
X455553*
Y237311*
X462258*
Y239327*
X469333*
Y237311*
X476037*
Y239327*
X483112*
Y237311*
X489817*
Y239327*
X434778Y219563D02*
X441852D01*
Y211988*
X440087*
Y211747*
G75*
G02X438315Y207579I-1772J-1707*
G01*
G75*
G02X436543Y211747J2461*
G01*
Y211988*
X434778*
Y219563*
X489407Y206272D02*
X497301D01*
Y197878*
X489407*
Y206272*
X481943Y176335D02*
X489018D01*
Y168760*
X488236*
Y121378*
G75*
G02X487429Y119429I-2756*
G01*
X484969Y116969*
Y113169*
G75*
G02X486000Y110571I-2756J-2598*
G01*
Y105571*
G75*
G02X478425I-3787*
G01*
Y110571*
G75*
G02X479457Y113169I3787*
G01*
Y118110*
G75*
G02X480264Y120059I2756*
G01*
X482724Y122520*
Y168760*
X481943*
Y176335*
X475323Y112732D02*
G75*
G02X476000Y110571I-3110J-2161D01*
G01*
Y105571*
G75*
G02X468425I-3787*
G01*
Y110571*
G75*
G02X469811Y113500I3787*
G01*
Y118347*
X467783Y120374*
G75*
G02X466976Y122323I1949J1949*
G01*
Y168760*
X466195*
Y176335*
X473270*
Y168760*
X472488*
Y123465*
X474516Y121437*
G75*
G02X475323Y119488I-1949J-1949*
G01*
Y112732*
X428425Y110571D02*
G75*
G02X436000I3787D01*
G01*
Y105571*
G75*
G02X428425I-3787*
G01*
Y110571*
Y283799D02*
G75*
G02X436000I3787D01*
G01*
Y278799*
G75*
G02X428425I-3787*
G01*
Y283799*
X448069Y248933D02*
X455963D01*
Y240539*
X448069*
Y248933*
X466195Y259012D02*
X473270D01*
Y251437*
X470863*
G75*
G02X470953Y248276I-1840J-1634*
G01*
Y247835*
G75*
G02X470401Y246483I-1929*
G01*
X469333Y245393*
Y240752*
X462258*
Y248327*
X466805*
X466952Y248476*
G75*
G02X467184Y251437I2072J1327*
G01*
X466195*
Y259012*
X468425Y283799D02*
G75*
G02X476000I3787D01*
G01*
Y278799*
G75*
G02X475717Y277361I-3788*
G01*
Y271457*
G75*
G02X474909Y269508I-2756*
G01*
X473270Y267869*
Y260437*
X466195*
Y268012*
X466976*
Y268228*
G75*
G02X467783Y270177I2756*
G01*
X470205Y272598*
Y275588*
G75*
G02X468425Y278799I2008J3211*
G01*
Y283799*
X476037Y259012D02*
X483112D01*
Y251437*
X481415*
G75*
G02X481543Y248327I-1840J-1634*
G01*
X483112*
Y240752*
X476037*
Y248327*
X477606*
G75*
G02X477735Y251437I1969J1476*
G01*
X476037*
Y259012*
X478425Y283799D02*
G75*
G02X486000I3787D01*
G01*
Y278799*
G75*
G02X485559Y277026I-3787*
G01*
Y272783*
G75*
G02X484752Y270835I-2756*
G01*
X482331Y268414*
Y268012*
X483112*
Y260437*
X476037*
Y268012*
X476819*
Y269555*
G75*
G02X477626Y271504I2756*
G01*
X480047Y273925*
Y275692*
G75*
G02X478425Y278799I2165J3107*
G01*
Y283799*
X495126Y248327D02*
X496892D01*
Y240752*
X489817*
Y248327*
X491583*
Y248489*
G75*
G02X490894Y250197I1772J1707*
G01*
G75*
G02X495815I2461*
G01*
G75*
G02X495126Y248489I-2461*
G01*
Y248327*
X413315Y108071D02*
G36*
Y99213D01*
X500717*
Y108071*
X486000*
Y105571*
G75*
G02X478425I-3787*
G01*
Y108071*
X476000*
Y105571*
G75*
G02X468425I-3787*
G01*
Y108071*
X446386*
G75*
G02Y108070I-1253J0*
G01*
G75*
G02X446000Y107289I-983*
G01*
Y105571*
G75*
G02X438425I-3787*
G01*
Y108071*
X436000*
Y105571*
G75*
G02X428425I-3787*
G01*
Y108071*
X413315*
G37*
X402291Y115863D02*
G36*
Y114059D01*
X402488Y114313*
X403037Y114647*
X403669Y114764*
X411543*
X412221Y114629*
X412796Y114245*
X413180Y113670*
X413315Y112992*
Y108071*
X428425*
Y110571*
G75*
G02X436000I3787*
G01*
Y108071*
X438425*
Y110571*
G75*
G02Y110572I3759J1*
G01*
G75*
G02X438512Y111376I3778*
G01*
Y139059*
X413315*
Y136614*
X413180Y135936*
X412796Y135361*
X412221Y134978*
X411543Y134843*
X403669*
X403037Y134959*
X402488Y135294*
X402291Y135548*
Y133744*
X402488Y133998*
X403037Y134332*
X403669Y134449*
X411543*
X412221Y134314*
X412796Y133930*
X413180Y133355*
X413315Y132677*
Y116929*
X413180Y116251*
X412796Y115676*
X412221Y115293*
X411543Y115157*
X403669*
X403037Y115274*
X402488Y115609*
X402291Y115863*
G37*
X446386Y139059D02*
G36*
Y108071D01*
X468425*
Y110571*
G75*
G02Y110572I4101J0*
G01*
G75*
G02X469811Y113500I3786*
G01*
Y118347*
X467783Y120374*
G75*
G02X466976Y122323I1950J1949*
G01*
Y139059*
X446386*
G37*
X472488D02*
G36*
Y123465D01*
X474516Y121437*
G75*
G02X475323Y119488I-1950J-1949*
G01*
Y112732*
G75*
G02X476000Y110571I-3109J-2161*
G01*
Y108071*
X478425*
Y110571*
G75*
G02X479457Y113169I3788*
G01*
Y118110*
G75*
G02X480264Y120059I2757J0*
G01*
X482724Y122520*
Y139059*
X472488*
G37*
X484969Y116969D02*
G36*
Y113169D01*
G75*
G02X486000Y110571I-2756J-2598*
G01*
Y108071*
X500717*
Y112992*
X500871Y113715*
X501110Y114043*
Y115878*
X500871Y116206*
X500717Y116929*
Y132677*
X500871Y133400*
X501110Y133728*
Y135563*
X500871Y135891*
X500717Y136614*
Y139059*
X488236*
Y121378*
G75*
G02X487429Y119429I-2757J0*
G01*
X484969Y116969*
G37*
X402291Y155233D02*
G36*
Y153429D01*
X402488Y153683*
X403037Y154017*
X403669Y154134*
X411543*
X412221Y153999*
X412796Y153615*
X413180Y153040*
X413315Y152362*
Y139059*
X438512*
Y166142*
X421780*
G75*
G02X420795Y167126J984*
G01*
Y167126*
Y194685*
X412975*
X412796Y194417*
X412221Y194033*
X411543Y193898*
X403669*
X403037Y194014*
X402488Y194349*
X402291Y194603*
Y192996*
X402488Y193250*
X403037Y193584*
X403669Y193701*
X411543*
X412221Y193566*
X412796Y193182*
X413180Y192607*
X413315Y191929*
Y176181*
X413180Y175503*
X412796Y174928*
X412221Y174544*
X411543Y174409*
X403669*
X403037Y174526*
X402488Y174861*
X402291Y175115*
Y173114*
X402488Y173368*
X403037Y173702*
X403669Y173819*
X411543*
X412221Y173684*
X412796Y173300*
X413180Y172725*
X413315Y172047*
Y156299*
X413180Y155621*
X412796Y155046*
X412221Y154663*
X411543Y154528*
X403669*
X403037Y154644*
X402488Y154979*
X402291Y155233*
G37*
X434575Y194685D02*
G36*
Y185827D01*
X445402*
G75*
G02X446386Y184843J-984*
G01*
Y184843*
Y139059*
X466976*
Y168760*
X466195*
Y176335*
X473270*
Y168760*
X472488*
Y139059*
X482724*
Y168760*
X481943*
Y176335*
X489018*
Y168760*
X488236*
Y139059*
X500717*
Y152362*
X500871Y153085*
X501110Y153413*
Y155248*
X500871Y155576*
X500717Y156299*
Y172047*
X500871Y172770*
X501110Y173098*
Y174933*
X500871Y175261*
X500717Y175984*
Y191732*
X500871Y192456*
X501110Y192783*
Y194619*
X501061Y194685*
X486453*
Y185335*
X489018*
Y177760*
X481943*
Y185335*
X483878*
Y194685*
X480547*
Y191075*
G75*
G02X480170Y190165I-1288J0*
G01*
X473270Y183264*
Y177760*
X466195*
Y185335*
X471699*
X477972Y191608*
Y194685*
X469417*
Y194390*
X452882*
Y194685*
X444236*
Y189256*
X434756*
Y194685*
X434575*
G37*
X413180Y194991D02*
G36*
X412975Y194685D01*
X420795*
Y202075*
X413315*
Y195669*
X413180Y194991*
G37*
X434575Y202075D02*
G36*
Y194685D01*
X434756*
Y196177*
X444078*
G75*
G02X443728Y197441I2111J1263*
G01*
G75*
G02X444417Y199148I2460J0*
G01*
Y201378*
G75*
G02X444560Y202075I1772J0*
G01*
X443827*
Y201476*
X435165*
Y202075*
X434575*
G37*
X444236Y195944D02*
G36*
Y194685D01*
X452882*
Y198228*
X449043*
Y202075*
X448706*
X447961Y201329*
Y199148*
G75*
G02X448650Y197441I-1772J-1708*
G01*
G75*
G02X444236Y195944I-2461*
G01*
G37*
X469417Y198228D02*
G36*
Y194685D01*
X477972*
Y202075*
X473256*
Y198228*
X469417*
G37*
X480547Y202075D02*
G36*
Y194685D01*
X483878*
Y202075*
X480547*
G37*
X486453D02*
G36*
Y194685D01*
X501061*
X500871Y194946*
X500717Y195669*
Y202075*
X497301*
Y197878*
X489407*
Y202075*
X486453*
G37*
X402291Y213571D02*
G36*
Y212484D01*
X402488Y212738*
X403037Y213072*
X403669Y213189*
X411543*
X412221Y213054*
X412796Y212670*
X413180Y212095*
X413315Y211417*
Y202075*
X420795*
Y213571*
X402291*
G37*
X434575Y202362D02*
G36*
Y202075D01*
X435165*
Y202362*
X434575*
G37*
Y213571D02*
G36*
Y205906D01*
X435165*
Y207579*
X438315*
G75*
G02X435854Y210039J2461*
G01*
G75*
G02X436543Y211747I2461*
G01*
Y211988*
X434778*
Y213571*
X434575*
G37*
X440087Y211988D02*
G36*
Y211747D01*
G75*
G02X440776Y210039I-1772J-1707*
G01*
G75*
G02X438315Y207579I-2460*
G01*
X443827*
Y207283*
X446583*
G75*
G02X447800Y206799I-1J-1773*
G01*
X448634*
Y211236*
X449043*
Y211598*
X448634*
Y213571*
X441852*
Y211988*
X440087*
G37*
X443827Y203740D02*
G36*
Y202075D01*
X444560*
G75*
G02X446139Y203149I1629J-697*
G01*
X446737Y203747*
G75*
G02X446583Y203740I-150J1680*
G01*
X443827*
G37*
X448887Y202256D02*
G36*
X448706Y202075D01*
X449043*
Y202256*
X448887*
G37*
X473256Y204224D02*
G36*
Y202075D01*
X477972*
Y203010*
X476758Y204224*
X473256*
G37*
Y210130D02*
G36*
Y208768D01*
X481424*
G75*
G02X482335Y208391J-1289*
G01*
X486076Y204650*
G75*
G02X486453Y203740I-911J-911*
G01*
Y202075*
X489407*
Y206272*
X497301*
Y202075*
X500717*
Y211417*
X500871Y212141*
X501110Y212468*
Y213571*
X496892*
Y207287*
X489817*
Y209646*
X477685*
G75*
G02X476468Y210130I1J1773*
G01*
X473256*
G37*
Y212845D02*
G36*
Y212705D01*
X476468*
G75*
G02X477685Y213189I1218J-1289*
G01*
X489817*
Y213571*
X474536*
G75*
G02X473798Y213387I-788J1587*
G01*
X473256Y212845*
G37*
X478431Y206193D02*
G36*
X480170Y204454D01*
G75*
G02X480547Y203543I-911J-911*
G01*
Y202075*
X483878*
Y203207*
X480892Y206193*
X478431*
G37*
X402291Y214288D02*
G36*
Y213571D01*
X420795*
Y244736*
X413315*
Y235039*
X413180Y234361*
X412796Y233787*
X412221Y233403*
X411543Y233268*
X403669*
X403037Y233384*
X402488Y233719*
X402291Y233973*
Y232169*
X402488Y232423*
X403037Y232757*
X403669Y232874*
X411543*
X412221Y232739*
X412796Y232355*
X413180Y231780*
X413315Y231102*
Y215354*
X413180Y214676*
X412796Y214102*
X412221Y213718*
X411543Y213583*
X403669*
X403037Y213699*
X402488Y214034*
X402291Y214288*
G37*
X434575Y242956D02*
G36*
Y213571D01*
X434778*
Y219563*
X441852*
Y213571*
X448634*
Y215173*
X452882*
Y218602*
X454744*
Y220321*
G75*
G02X454385Y220598I881J1514*
G01*
X450764Y224219*
G75*
G02X450244Y225472I1252J1254*
G01*
Y231949*
X448478*
Y233768*
X441774*
Y231752*
X440165*
Y228563*
X441852*
Y220988*
X434778*
Y228563*
X436307*
Y231752*
X434699*
Y239327*
X441774*
Y237311*
X448478*
Y239524*
X455553*
Y237311*
X462258*
Y239327*
X469333*
Y237311*
X476037*
Y239327*
X483112*
Y237311*
X489817*
Y239327*
X496892*
Y231752*
X489817*
Y233768*
X483112*
Y231752*
X476037*
Y233768*
X469333*
Y231752*
X462258*
Y233768*
X455553*
Y231949*
X453787*
Y226206*
X456891Y223103*
G75*
G02X457409Y221850I-1253J-1253*
G01*
G75*
G02X457319Y221291I-1772*
G01*
Y218602*
X464783*
Y219059*
G75*
G02X464299Y220276I1289J1218*
G01*
Y221260*
G75*
G02X464819Y222513I1772*
G01*
X469935Y227630*
G75*
G02X471189Y228150I1254J-1252*
G01*
X477946*
G75*
G02X482114Y226378I1707J-1772*
G01*
G75*
G02X477946Y224606I-2461*
G01*
X471923*
X467843Y220526*
Y220276*
G75*
G02X467358Y219059I-1773J1*
G01*
Y218602*
X469417*
Y214764*
X471534*
X471976Y215206*
Y219552*
G75*
G02X471287Y221260I1772J1708*
G01*
G75*
G02X476209I2461*
G01*
G75*
G02X475520Y219552I-2461J0*
G01*
Y215157*
G75*
G02X474536Y213571I-1772*
G01*
X489817*
Y214862*
X491583*
Y215025*
G75*
G02X490894Y216732I1772J1708*
G01*
G75*
G02X495815I2461*
G01*
G75*
G02X495126Y215025I-2461J0*
G01*
Y214862*
X496892*
Y213571*
X501110*
Y244736*
X496892*
Y240752*
X489817*
Y244736*
X483112*
Y240752*
X476037*
Y244736*
X469333*
Y240752*
X462258*
Y244736*
X455963*
Y240539*
X448069*
Y244736*
X441774*
Y240752*
X434699*
Y243003*
G75*
G02X434575Y242956I-420J915*
G01*
G37*
X402291Y253658D02*
G36*
Y251854D01*
X402488Y252108*
X403037Y252443*
X403669Y252559*
X411543*
X412221Y252424*
X412796Y252040*
X413180Y251465*
X413315Y250787*
Y244736*
X420795*
Y271457*
Y271457*
G75*
G02X421780Y272441I984*
G01*
X433183*
X438556Y277814*
G75*
G02X438425Y278799I3658J985*
G01*
Y278799*
Y281299*
X436000*
Y278799*
G75*
G02X428425I-3787*
G01*
Y281299*
X413118*
Y274409*
X412983Y273731*
X412599Y273157*
X412024Y272773*
X411346Y272638*
X403472*
X402954Y272715*
X402481Y272941*
X402291Y273115*
Y271539*
X402488Y271793*
X403037Y272128*
X403669Y272244*
X411543*
X412221Y272109*
X412796Y271725*
X413180Y271150*
X413315Y270472*
Y254724*
X413180Y254046*
X412796Y253472*
X412221Y253088*
X411543Y252953*
X403669*
X403037Y253069*
X402488Y253404*
X402291Y253658*
G37*
X441774Y245690D02*
G36*
Y244736D01*
X448069*
Y248933*
X455963*
Y244736*
X462258*
Y248327*
X466805*
X466952Y248476*
G75*
G02X466563Y249803I2072J1327*
G01*
G75*
G02X467184Y251437I2460*
G01*
X466195*
Y259012*
X473270*
Y251437*
X470863*
G75*
G02X471484Y249803I-1841J-1634*
G01*
G75*
G02X470953Y248276I-2461J0*
G01*
Y247835*
Y247834*
G75*
G02X470401Y246483I-1929*
G01*
X469333Y245393*
Y244736*
X476037*
Y248327*
X477606*
G75*
G02X477114Y249803I1968J1476*
G01*
G75*
G02X477735Y251437I2460*
G01*
X476037*
Y259012*
X483112*
Y251437*
X481415*
G75*
G02X482035Y249803I-1839J-1634*
G01*
G75*
G02X481543Y248327I-2460J0*
G01*
X483112*
Y244736*
X489817*
Y248327*
X491583*
Y248489*
G75*
G02X490894Y250197I1772J1708*
G01*
G75*
G02X495815I2461*
G01*
G75*
G02X495126Y248489I-2461J0*
G01*
Y248327*
X496892*
Y244736*
X501110*
Y281299*
X486000*
Y278799*
Y278799*
G75*
G02X485559Y277026I-3786*
G01*
Y272783*
G75*
G02X484752Y270835I-2757J0*
G01*
X482331Y268414*
Y268012*
X483112*
Y260437*
X476037*
Y268012*
X476819*
Y269555*
G75*
G02X477626Y271504I2757J0*
G01*
X480047Y273925*
Y275692*
G75*
G02X478425Y278799I2165J3107*
G01*
Y281299*
X476000*
Y278799*
G75*
G02X475717Y277361I-3794J1*
G01*
Y271457*
G75*
G02X474909Y269508I-2757J0*
G01*
X473270Y267869*
Y260437*
X466195*
Y268012*
X466976*
Y268228*
G75*
G02X467783Y270177I2757J0*
G01*
X470205Y272598*
Y275588*
G75*
G02X468425Y278799I2009J3212*
G01*
Y281299*
X446000*
Y278799*
G75*
G02Y278796I-3759J-2*
G01*
G75*
G02X445949Y278180I-3758*
G01*
G75*
G02X446386Y277363I-546J-817*
G01*
G75*
G02Y277362I-1109J0*
G01*
Y249803*
G75*
G02Y249802I-1289J0*
G01*
G75*
G02X446098Y249107I-983*
G01*
X442883Y245892*
G75*
G02X442839Y245851I-748J755*
G01*
X442839Y245851*
G75*
G02X441774Y245690I-655J734*
G01*
G37*
X412117Y291732D02*
G36*
X412599Y291410D01*
X412983Y290835*
X413118Y290157*
Y281299*
X428425*
Y283799*
G75*
G02X436000I3787*
G01*
Y281299*
X438425*
Y283799*
G75*
G02X446000I3787*
G01*
Y281299*
X468425*
Y283799*
G75*
G02X476000I3787*
G01*
Y281299*
X478425*
Y283799*
G75*
G02X486000I3787*
G01*
Y281299*
X501110*
Y291732*
X412117*
G37*
X409772Y485630D02*
Y433661D01*
X457016*
Y551772*
X409772*
Y499803*
X421583*
Y504528*
X445205*
Y480906*
X421583*
Y485630*
X409772*
G36*
Y433661*
X457016*
Y551772*
X409772*
Y499803*
X421583*
Y504528*
X445205*
Y480906*
X421583*
Y485630*
X409772*
G37*
X413315Y152362D02*
Y140354D01*
X414299*
Y153346*
X413017*
G75*
G02X413315Y152362I-1473J-984*
G01*
G36*
Y140354*
X414299*
Y153346*
X413017*
G75*
G02X413315Y152362I-1473J-984*
G01*
G37*
X421780Y271457D02*
Y167126D01*
X439496*
Y108071*
X445402*
Y184843*
X433591*
Y243898*
X434289*
X434289*
Y248736*
X442183*
Y246585*
G75*
G02X442187Y246588I750J-841*
G01*
X445402Y249803*
Y277362*
X439496*
X433591Y271457*
X421780*
G36*
Y167126*
X439496*
Y108071*
X445402*
Y184843*
X433591*
Y243898*
X434289*
X434289*
Y248736*
X442183*
Y246585*
G75*
G02X442187Y246588I750J-841*
G01*
X445402Y249803*
Y277362*
X439496*
X433591Y271457*
X421780*
G37*
X457016Y551772D02*
Y433661D01*
X506794*
G75*
G02X507606Y433858I812J-1575*
G01*
X512134*
Y551772*
X457016*
X466858Y453150D02*
G75*
G02X468630Y451378J-1772D01*
G01*
Y435630*
G75*
G02X466858Y433858I-1772*
G01*
X458984*
G75*
G02X457213Y435630J1772*
G01*
Y451378*
G75*
G02X458984Y453150I1772*
G01*
X466858*
Y472835D02*
G75*
G02X468630Y471063J-1772D01*
G01*
Y455315*
G75*
G02X466858Y453543I-1772*
G01*
X458984*
G75*
G02X457213Y455315J1772*
G01*
Y471063*
G75*
G02X458984Y472835I1772*
G01*
X466858*
Y492520D02*
G75*
G02X468630Y490748J-1772D01*
G01*
Y475000*
G75*
G02X466858Y473228I-1772*
G01*
X458984*
G75*
G02X457213Y475000J1772*
G01*
Y490748*
G75*
G02X458984Y492520I1772*
G01*
X466858*
Y512205D02*
G75*
G02X468630Y510433J-1772D01*
G01*
Y494685*
G75*
G02X466858Y492913I-1772*
G01*
X458984*
G75*
G02X457213Y494685J1772*
G01*
Y510433*
G75*
G02X458984Y512205I1772*
G01*
X466858*
Y531890D02*
G75*
G02X468630Y530118J-1772D01*
G01*
Y514370*
G75*
G02X466858Y512598I-1772*
G01*
X458984*
G75*
G02X457213Y514370J1772*
G01*
Y530118*
G75*
G02X458984Y531890I1772*
G01*
X466858*
Y551575D02*
G75*
G02X468630Y549803J-1772D01*
G01*
Y534055*
G75*
G02X466858Y532283I-1772*
G01*
X458984*
G75*
G02X457213Y534055J1772*
G01*
Y549803*
G75*
G02X458984Y551575I1772*
G01*
X466858*
X480638Y504528D02*
X504260D01*
Y480906*
X480638*
Y504528*
X457213Y435630D02*
G36*
Y433858D01*
X458984*
G75*
G02X457213Y435630J1772*
G01*
G37*
X468630Y443504D02*
G36*
Y435630D01*
G75*
G02X466858Y433858I-1772*
G01*
X507606*
X511937*
Y443504*
X468630*
G37*
X457213Y455315D02*
G36*
Y451378D01*
G75*
G02X458984Y453150I1772*
G01*
X466858*
G75*
G02X468630Y451378J-1772*
G01*
Y443504*
X511937*
Y463189*
X468630*
Y455315*
G75*
G02X466858Y453543I-1772*
G01*
X458984*
G75*
G02X457213Y455315J1772*
G01*
G37*
Y475000D02*
G36*
Y471063D01*
G75*
G02X458984Y472835I1772*
G01*
X466858*
G75*
G02X468630Y471063J-1772*
G01*
Y463189*
X511937*
Y482874*
X504260*
Y480906*
X480638*
Y482874*
X468630*
Y475000*
G75*
G02X466858Y473228I-1772*
G01*
X458984*
G75*
G02X457213Y475000J1772*
G01*
G37*
Y494685D02*
G36*
Y490748D01*
G75*
G02X458984Y492520I1772*
G01*
X466858*
G75*
G02X468630Y490748J-1772*
G01*
Y482874*
X480638*
Y502559*
X468630*
Y494685*
G75*
G02X466858Y492913I-1772*
G01*
X458984*
G75*
G02X457213Y494685J1772*
G01*
G37*
X504260Y502559D02*
G36*
Y482874D01*
X511937*
Y502559*
X504260*
G37*
X457213Y514370D02*
G36*
Y510433D01*
G75*
G02X458984Y512205I1772*
G01*
X466858*
G75*
G02X468630Y510433J-1772*
G01*
Y502559*
X480638*
Y504528*
X504260*
Y502559*
X511937*
Y522244*
X468630*
Y514370*
G75*
G02X466858Y512598I-1772*
G01*
X458984*
G75*
G02X457213Y514370J1772*
G01*
G37*
Y534055D02*
G36*
Y530118D01*
G75*
G02X458984Y531890I1772*
G01*
X466858*
G75*
G02X468630Y530118J-1772*
G01*
Y522244*
X511937*
Y541929*
X468630*
Y534055*
G75*
G02X466858Y532283I-1772*
G01*
X458984*
G75*
G02X457213Y534055J1772*
G01*
G37*
Y551575D02*
G36*
Y549803D01*
G75*
G02X458984Y551575I1772*
G01*
X457213*
G37*
X468630Y549803D02*
G36*
Y541929D01*
X511937*
Y551575*
X466858*
G75*
G02X468630Y549803J-1772*
G01*
G37*
X458984Y335039D02*
Y303543D01*
X505835*
Y421654*
X458984*
Y390157*
X368433*
Y421654*
X321189*
Y303543*
X368433*
Y335039*
X458984*
X470795Y374409D02*
X494417D01*
Y350787*
X470795*
Y355906*
X356622*
Y350787*
X333000*
Y374409*
X356622*
Y369685*
X470795*
Y374409*
X321386Y362598D02*
G36*
Y303740D01*
X368433*
Y335039*
X458984*
Y303740*
X505638*
Y362598*
X494417*
Y350787*
X470795*
Y355906*
X356622*
Y350787*
X333000*
Y362598*
X321386*
G37*
Y421457D02*
G36*
Y362598D01*
X333000*
Y374409*
X356622*
Y369685*
X470795*
Y374409*
X494417*
Y362598*
X505638*
Y421457*
X458984*
Y390157*
X368433*
Y421457*
X321386*
G37*
X545402Y182283D02*
Y167717D01*
X547764Y165354*
X564693*
Y209843*
X512331*
Y185433*
X542252*
X545402Y182283*
X519551Y195063D02*
X527945D01*
Y186669*
X519551*
Y195063*
X529961Y194654D02*
X537535D01*
Y187079*
X529961*
Y194654*
X558138Y173803D02*
G75*
G02X562335Y169606J-4197D01*
G01*
G75*
G02X558138Y165409I-4197*
G01*
X553138*
G75*
G02X548941Y169606J4197*
G01*
G75*
G02X553138Y173803I4197*
G01*
X558138*
X545402Y169606D02*
G36*
Y167717D01*
X547567Y165551*
X552056*
G75*
G02X548941Y169606I1081J4055*
G01*
Y169606*
X545402*
G37*
X562335Y169606D02*
G36*
G75*
G02X559220Y165551I-4196D01*
G01*
X564496*
Y169606*
X562335*
Y169606*
G37*
X512528Y190866D02*
G36*
Y185433D01*
X542252*
X545402Y182283*
Y169606*
X548941*
Y169607*
G75*
G02X553138Y173803I4197*
G01*
X558138*
G75*
G02X562335Y169607J-4196*
G01*
Y169606*
X564496*
Y190866*
X537535*
Y187079*
X529961*
Y190866*
X527945*
Y186669*
X519551*
Y190866*
X512528*
G37*
Y209646D02*
G36*
Y190866D01*
X519551*
Y195063*
X527945*
Y190866*
X529961*
Y194654*
X537535*
Y190866*
X564496*
Y209646*
X512528*
G37*
D02*
D11*
X263118Y225000D02*
X269299D01*
X271504Y222795*
X275205*
Y221260*
X271189*
X269220Y219291*
X263118*
Y225000*
G36*
X269299*
X271504Y222795*
X275205*
Y221260*
X271189*
X269220Y219291*
X263118*
Y225000*
G37*
X283906Y227953D02*
X286701D01*
X288315Y229567*
X291386*
Y224606*
X288315*
X286543Y226378*
X283906*
Y227953*
G36*
X286701*
X288315Y229567*
X291386*
Y224606*
X288315*
X286543Y226378*
X283906*
Y227953*
G37*
D02*
D12*
X75750Y245972D02*
X73750D01*
X78000Y243472D02*
Y241472D01*
Y248472D02*
Y250472D01*
X80250Y245972D02*
X82250D01*
X109187Y200206D02*
X107185D01*
X109693Y222508D02*
Y225630D01*
X109575Y225748*
X110087Y198956D02*
Y196957D01*
X110987Y200206D02*
X112988D01*
X113118Y373828D02*
Y373425D01*
X120829Y195567D02*
X118829D01*
X121316Y206330D02*
X123079Y204567D01*
X122854Y204791D02*
X123079Y204567D01*
Y193067D02*
Y191067D01*
Y195567D02*
Y195433D01*
Y198067D02*
Y200067D01*
X125329Y195567D02*
X127329D01*
X126416Y211372D02*
Y209370D01*
Y213172D02*
Y215173D01*
X127666Y212272D02*
X129665D01*
X261059Y222244D02*
X262500D01*
X262567Y222177*
X269299D02*
X262567D01*
X275598Y222047D02*
X262697D01*
X262567Y222177*
X275598Y222047D02*
X273512D01*
X275598Y227165D02*
X275520D01*
X275598D02*
X276346D01*
X276583Y224567D02*
Y224606D01*
X275598*
X293563Y227165D02*
X293591Y227193D01*
X283500*
X283472Y227165*
X339130Y70787D02*
X339142Y70799D01*
X375508D02*
X375520Y70787D01*
X375598Y222520D02*
Y222323D01*
X377528Y224252D02*
X375598Y222323D01*
X432311Y43031D02*
Y63031*
X435986Y244539*
X433986D01*
X438236Y247039D02*
Y249039D01*
X439496Y190953D02*
Y188953D01*
Y194480D02*
Y196480D01*
X442539Y192717D02*
X444539D01*
X449766Y244736D02*
X447766D01*
X450331Y207480D02*
X448331D01*
X450331Y209449D02*
X448331D01*
X450331Y213386D02*
X448331D01*
X451504Y203543D02*
X448354D01*
X446189Y201378*
X451504Y205512D02*
X446583D01*
X451504Y207480D02*
X447961D01*
X446583Y208858*
Y209252*
X451504Y209449D02*
X446780D01*
X446583Y209252*
X451504Y213386D02*
X447370D01*
X451504Y213476D02*
Y215476D01*
X452016Y242236D02*
Y240236D01*
Y247236D02*
Y249236D01*
X454266Y244736D02*
X456266D01*
X456228Y216142D02*
X456031D01*
Y221457*
G75*
G02X455638Y221850J394*
G01*
X466071Y216142D02*
Y220276D01*
X470795Y205512D02*
X477291D01*
X479260Y203543*
Y191075*
X469732Y181547*
X470795Y207283D02*
X470598Y207677D01*
X470795Y207480D02*
X481425D01*
X485165Y203740*
Y181862*
X485480Y181547*
X470795Y211417D02*
X477685D01*
X470795Y213386D02*
X471976D01*
X473748Y215157*
X491104Y202075D02*
X489104D01*
X493354Y199575D02*
Y197575D01*
Y204575D02*
Y206575D01*
X495604Y202075D02*
X497604D01*
X521248Y190866D02*
X519248D01*
X523748Y188366D02*
Y186366D01*
Y193366D02*
Y195366D01*
X526248Y190866D02*
X528248D01*
X550638Y169606D02*
X548638D01*
X555638Y172106D02*
Y174106D01*
X560638Y169606D02*
X562638D01*
D02*
D13*
X34772Y222126D02*
X54772D01*
X36858Y80906D02*
X125441D01*
X86740Y362598D02*
X98551D01*
X86898D02*
G75*
G03X86819Y362520J-79D01*
G01*
X88709Y492717D02*
X177134D01*
G75*
G03X177213Y492795J79*
G01*
X175323Y362598D02*
X162724D01*
X186543Y70787D02*
X207685D01*
X186701Y222244D02*
X215205D01*
X344811Y362598D02*
X482528D01*
X345008Y492717D02*
X433591D01*
X375520Y70787D02*
X345402D01*
X375598Y222323D02*
X352291D01*
D02*
D14*
X80283Y277323D02*
Y257256D01*
X78000Y254972*
X89811Y245972D02*
X89890Y245894D01*
Y239764*
X92252Y237402*
X95480*
X105953Y226929*
Y222508*
X89811Y254972D02*
X78000D01*
X96189Y212823D02*
X105402D01*
X100283Y277323D02*
Y264016D01*
X101701Y262598*
Y255051*
X101622Y254972*
X105874Y222598D02*
X105953D01*
X109575Y225748D03*
X109890Y220236D03*
X109969Y200197D03*
X113118Y373425D03*
X113433Y212272D02*
X121316D01*
X113433Y222508D02*
Y226929D01*
X115402Y228898*
Y252756*
X113039Y255118*
X101622*
Y254972*
X115393Y204791D02*
X122854D01*
X121316Y212272D02*
Y206330D01*
X124929Y380118D03*
X126504Y212402D03*
X130047Y380118D03*
X141071Y367913D03*
Y373425D03*
X147370D03*
X165480Y39685D03*
Y49528D03*
Y59370D03*
Y66260D03*
Y73150D03*
Y82992D03*
Y92835D03*
Y102677D03*
X167016Y190748D03*
Y200591D03*
Y210433D03*
Y217323D03*
Y224213D03*
Y234055D03*
Y243898D03*
Y253740D03*
X170717Y44843D03*
Y97638D03*
X172252Y195906D03*
Y248701D03*
X175323Y39685D03*
Y49528D03*
Y92835D03*
Y102677D03*
X176858Y190748D03*
Y200591D03*
Y243898D03*
Y253740D03*
X180874Y44843D03*
Y97638D03*
X182409Y195906D03*
Y248701D03*
X185165Y39685D03*
Y49528D03*
Y92835D03*
Y102677D03*
X186701Y190748D03*
Y200591D03*
Y243898D03*
Y253740D03*
X190362Y44843D03*
Y97638D03*
X191898Y195906D03*
Y248701D03*
X195008Y39685D03*
Y49528D03*
Y92835D03*
Y102677D03*
X196543Y190748D03*
Y200591D03*
Y243898D03*
Y253740D03*
X200165Y44843D03*
Y97638D03*
X201701Y195906D03*
Y248701D03*
X204850Y39685D03*
Y49528D03*
Y59370D03*
Y82992D03*
Y92835D03*
Y102677D03*
X206386Y190748D03*
Y200591D03*
Y210433D03*
Y234055D03*
Y243898D03*
Y253740D03*
X214693Y39685D03*
Y49528D03*
Y59370D03*
Y82992D03*
Y92835D03*
Y102677D03*
X216228Y190748D03*
Y200591D03*
Y210433D03*
Y234055D03*
Y243898D03*
Y253740D03*
X224535Y39685D03*
Y49528D03*
Y59370D03*
Y82992D03*
Y92835D03*
Y102677D03*
X226071Y190748D03*
Y200591D03*
Y210433D03*
Y234055D03*
Y243898D03*
Y253740D03*
X234378Y39685D03*
Y49528D03*
Y59370D03*
Y82992D03*
Y92835D03*
Y102677D03*
X235913Y190748D03*
Y200591D03*
Y210433D03*
Y234055D03*
Y243898D03*
Y253740D03*
X242646Y59370D03*
X244220Y39685D03*
Y49528D03*
Y82992D03*
Y92835D03*
Y102677D03*
X245756Y190748D03*
Y200591D03*
Y210433D03*
Y234055D03*
Y243898D03*
Y253740D03*
X249614Y44173D03*
Y49370D03*
X254063Y82992D03*
Y92835D03*
Y102677D03*
X254378Y200591D03*
Y210433D03*
X254614Y39685D03*
Y49528D03*
X254811Y190748D03*
X255598Y234055D03*
Y243898D03*
Y253740D03*
X256425Y59370D03*
X259811Y186654D03*
X263236Y39685D03*
Y49528D03*
Y59370D03*
X263669Y82992D03*
Y92835D03*
Y102677D03*
X265441Y234055D03*
Y243898D03*
Y253740D03*
X265953Y186654D03*
X270323Y190748D03*
X270638Y230512D03*
X270756Y200591D03*
Y210433D03*
X271346Y234055D03*
X273079Y39685D03*
Y49528D03*
Y59370D03*
X273512Y82992D03*
Y92835D03*
Y102677D03*
X274575Y230512D03*
X275283Y234055D03*
Y243898D03*
Y253740D03*
X275520Y225984D03*
X278512Y230551D03*
X279378Y190748D03*
Y200591D03*
Y210433D03*
X279535Y224606D03*
X280559Y218701D03*
X282803Y215000D03*
X282921Y39685D03*
Y49528D03*
Y59370D03*
X283354Y82992D03*
Y92835D03*
Y102677D03*
X283787Y223228D03*
X284496Y218701D03*
X286217Y277441D02*
X284406Y275630D01*
X286307Y192992D03*
Y202835D03*
Y212677D03*
X286583Y216142D03*
X288433Y218740D03*
X289496Y82992D03*
X289969Y92835D03*
X292764Y39685D03*
Y49528D03*
Y59370D03*
X292843Y195709D03*
Y205551D03*
Y215394D03*
X293197Y102677D03*
X293406Y255157D02*
X293563Y255000D01*
X293524Y254961D02*
X293563Y255000D01*
X293591Y244579D02*
X293524Y244646D01*
X295913Y92677D03*
Y97520D03*
X302606Y39685D03*
Y49528D03*
Y59370D03*
X302685Y195709D03*
Y205551D03*
Y215394D03*
X302764Y239016D03*
Y248071D03*
X302843Y82795D03*
Y92638D03*
Y102480D03*
X312094Y214843D03*
X312213Y39685D03*
Y49528D03*
Y59370D03*
X312449Y82795D03*
Y92638D03*
Y102480D03*
X312528Y195709D03*
Y205551D03*
X312606Y239016D03*
Y248071D03*
X321189Y194134D03*
Y203976D03*
X322055Y39685D03*
Y49528D03*
Y59370D03*
X322291Y82795D03*
Y92638D03*
Y102480D03*
X324339Y234488D03*
Y243937D03*
X329339Y82795D03*
Y92638D03*
Y102480D03*
X329929Y39488D03*
Y49331D03*
Y59173D03*
X329969Y190787D03*
Y200630D03*
Y210472D03*
X332213Y234094D03*
Y243937D03*
X338236Y39488D03*
X339102Y44882D03*
Y48976D03*
X339181Y82795D03*
Y92638D03*
Y102480D03*
X339811Y190787D03*
Y200630D03*
Y210472D03*
X340756Y234291D03*
Y243937D03*
Y253780D03*
X347055Y39488D03*
Y49331D03*
Y59252D03*
X348630Y190787D03*
Y200630D03*
X349024Y82795D03*
Y92638D03*
Y102480D03*
X350598Y234094D03*
Y243937D03*
Y253780D03*
X352724Y54724D03*
X354299Y206024D03*
X355638Y59252D03*
X356898Y39488D03*
Y49331D03*
X358472Y190787D03*
Y200630D03*
X358866Y92638D03*
Y102480D03*
X360441Y243937D03*
Y253780D03*
X361858Y44724D03*
X363433Y196024D03*
X363906Y97402D03*
X365480Y248701D03*
X366740Y39488D03*
Y49331D03*
X368315Y190787D03*
Y200630D03*
X368709Y92638D03*
Y102480D03*
X370283Y243937D03*
Y253780D03*
X372016Y44724D03*
X373591Y196024D03*
X374063Y97402D03*
X375638Y248701D03*
X376583Y39488D03*
Y49331D03*
X378157Y190787D03*
Y200630D03*
X378551Y92638D03*
Y102480D03*
X380126Y243937D03*
Y253780D03*
X381504Y44724D03*
X383079Y196024D03*
X383551Y97402D03*
X385126Y248701D03*
X386425Y39488D03*
Y49331D03*
X388000Y190787D03*
Y200630D03*
X388394Y92638D03*
Y102480D03*
X389969Y243937D03*
Y253780D03*
X391307Y44724D03*
X392882Y196024D03*
X393354Y97402D03*
X394929Y248701D03*
X396268Y39488D03*
Y49331D03*
Y59173D03*
Y66063D03*
Y72953D03*
Y82795D03*
Y92638D03*
Y102480D03*
X397843Y190787D03*
Y200630D03*
Y210472D03*
Y217362D03*
Y224252D03*
Y234094D03*
Y243937D03*
Y253780D03*
X417252Y204331D03*
X426280Y204528D02*
Y204134D01*
X438091*
X438484Y204528*
X439496*
X438236Y235539D02*
Y230118D01*
X438315*
Y224776*
X438236Y235539D02*
X465795D01*
X438315Y210039D02*
Y215776D01*
X439496Y192717D02*
Y188386D01*
X446189Y201378D02*
Y197441D01*
X446583Y205512D02*
X440480D01*
X439496Y204528*
X446583Y209252D03*
X447370Y213386D03*
X452016Y244736D02*
Y247835D01*
X452094*
Y249803*
X455638Y221850D02*
X452016Y225472D01*
Y235736*
X457213Y202559D03*
Y210433D03*
X461150Y206496D03*
X465087Y202559D03*
Y210433D03*
X465795Y244539D02*
Y244606D01*
X469024Y247835*
Y249803*
X466071Y220276D02*
Y221260D01*
X471189Y226378*
X479654*
X469024Y249803D02*
Y254516D01*
X469732Y255224*
X473748Y215157D02*
Y221260D01*
X477685Y211417D02*
X493012D01*
X493354Y211075*
X479575Y235539D02*
X493354D01*
X479575D02*
X465795D01*
X479575Y244539D02*
Y249803D01*
Y255224*
X493354Y211075D02*
Y216732D01*
Y250197D02*
Y244539D01*
X529555Y43031D02*
Y53031*
Y63031*
*
D15*
X101622Y245972D02*
X104063Y362598*
X108600D01*
X119024Y362804D02*
Y362598D01*
X113700*
X119024Y367904D02*
Y373828D01*
Y378928D02*
X113118D01*
X121316Y212272D02*
Y217323D01*
X124535Y373416D02*
X119435D01*
G75*
G02X119024Y373828J412*
G01*
X130047Y368316D02*
X124535D01*
X135953Y367904D02*
Y373828D01*
X130459*
G75*
G03X130047Y373416J-412*
G01*
X141071Y378928D02*
X135953D01*
X142064Y362598D02*
X136159D01*
G75*
G02X135953Y362804J206*
G01*
X152882D02*
X147370D01*
G75*
G03X147164Y362598J-206*
G01*
X152882Y367904D02*
X147782D01*
G75*
G02X147370Y368316J412*
G01*
X157213Y362598D02*
X147164D01*
X249614Y61799D02*
Y54322D01*
X295913Y79776D02*
Y87253D01*
X339142Y61799D02*
Y54322D01*
X493433Y201772D02*
X493354Y202075D01*
D02*
D16*
X212213Y277441D02*
Y264488D01*
X216071Y260630*
X254220*
X263886Y270295*
X259378Y265787D02*
X263886Y270295D01*
X269220Y275630*
X284406*
Y265787D02*
Y275630D01*
X293406Y265787D02*
Y255157D01*
X293524Y244646D02*
Y254961D01*
X293591Y236193D02*
Y244579D01*
X432311Y43031D02*
X426504D01*
X432311Y63031D02*
X424575D01*
X420205Y58661*
Y14567*
X425717Y9055*
X546189*
X551307Y14173*
Y23622*
X442213Y281299D02*
Y252520D01*
X438236Y248543*
Y244539*
X469732Y172547D02*
Y122323D01*
X472567Y119488*
Y108425*
X472213Y108071*
X469732Y264224D02*
Y268228D01*
X472961Y271457*
Y280551*
X472213Y281299*
X479575Y264224D02*
Y269555D01*
X482803Y272783*
Y280067*
X482213Y280657*
Y281299*
Y108071D02*
Y118110D01*
X485480Y121378*
Y172547*
X529555Y43031D02*
X535559D01*
X542134Y49606*
X542252*
X546268Y53622*
X551307*
X529555Y53031D02*
X533079D01*
X543039Y62992*
X550677*
X551307Y63622*
X529555Y63031D02*
X532843D01*
X543827Y74016*
X550913*
X551307Y73622*
X533748Y120866D02*
Y120472D01*
X539890*
X548000Y129921*
X553984*
X554299Y129606*
X555638*
X533748Y130866D02*
X535559D01*
Y130630*
X542646Y136929*
Y145197*
X546976Y149528*
X554772*
X554850Y149606*
X555638*
X551307Y43622D02*
X547528D01*
X547449Y43701*
X546976*
X539496Y36220*
Y29134*
X538315Y27953*
D02*
D17*
X13906Y307480D03*
Y327165D03*
Y338976D03*
Y386220D03*
Y398031D03*
Y417717D03*
X15402Y156850D03*
Y167087D03*
Y174961D03*
Y186772D03*
Y198583D03*
Y222205D03*
Y245827D03*
Y257638D03*
Y269449D03*
Y277323D03*
Y286772D03*
X15874Y437598D03*
Y457283D03*
Y469094D03*
Y516339D03*
Y528150D03*
Y547835D03*
X16189Y210394D03*
Y234016D03*
X17173Y25787D03*
Y33661D03*
Y45472D03*
Y57283D03*
Y69094D03*
Y80906D03*
Y92717D03*
Y104528D03*
Y116339D03*
Y128150D03*
Y136024D03*
X22882Y210000D03*
X23276Y234409D03*
X24417Y70551D03*
Y94173D03*
X25244Y156850D03*
Y165118D03*
Y186772D03*
Y198583D03*
Y245827D03*
Y257638D03*
Y277323D03*
Y286772D03*
X25717Y327165D03*
Y338976D03*
Y386220D03*
Y398031D03*
X27685Y457283D03*
Y469094D03*
Y516339D03*
Y528150D03*
X30953Y45472D03*
Y57283D03*
Y104528D03*
Y116339D03*
X32724Y204488D03*
X36661Y237953D03*
X37055Y156850D03*
Y198583D03*
Y245827D03*
Y255669D03*
Y286772D03*
X37528Y307480D03*
Y327165D03*
Y338976D03*
Y386220D03*
Y398031D03*
Y417717D03*
X38630Y188740D03*
X39496Y437598D03*
Y457283D03*
Y469094D03*
Y516339D03*
Y528150D03*
Y547835D03*
X42764Y45472D03*
Y57283D03*
Y104528D03*
Y116339D03*
X46504Y234016D03*
X46898Y210394D03*
X47370Y307480D03*
Y315354D03*
Y327165D03*
Y338976D03*
Y350787D03*
Y362598D03*
Y374409D03*
Y386220D03*
Y398031D03*
Y409843D03*
Y417717D03*
X48039Y70551D03*
Y94173D03*
X48866Y156850D03*
Y167087D03*
Y186772D03*
Y198583D03*
Y245827D03*
Y257638D03*
Y277323D03*
Y286772D03*
X49339Y437598D03*
Y445472D03*
Y457283D03*
Y469094D03*
Y480906D03*
Y492717D03*
Y504528D03*
Y516339D03*
Y528150D03*
Y539961D03*
Y547835D03*
X56543Y25787D03*
Y33661D03*
Y45472D03*
Y57283D03*
Y69094D03*
Y92717D03*
Y104528D03*
Y116339D03*
Y128150D03*
Y136024D03*
X58315Y204488D03*
Y237953D03*
Y245827D03*
Y253701D03*
Y261575D03*
X62252Y196614D03*
Y212362D03*
Y232047D03*
Y287165D03*
X67055Y307480D03*
Y315354D03*
Y327165D03*
Y338976D03*
Y350787D03*
Y362598D03*
Y374409D03*
Y386220D03*
Y398031D03*
Y409843D03*
Y417717D03*
X68157Y204488D03*
X68354Y57283D03*
Y69094D03*
Y92717D03*
Y104528D03*
X69024Y437598D03*
Y445472D03*
Y457283D03*
Y469094D03*
Y480906D03*
Y492717D03*
Y504528D03*
Y516339D03*
Y528150D03*
Y539961D03*
Y547835D03*
X69732Y261575D03*
X70126Y212362D03*
Y253701D03*
X72094Y232047D03*
Y237953D03*
X72488Y247795D03*
X74063Y196614D03*
Y287165D03*
X78000Y204488D03*
Y212362D03*
X80362Y237953D03*
X80835Y327165D03*
Y338976D03*
Y386220D03*
Y398031D03*
X82134Y57283D03*
Y69094D03*
Y92717D03*
Y104528D03*
X82803Y457283D03*
Y469094D03*
Y516339D03*
Y528150D03*
X83906Y196614D03*
X85874Y287165D03*
X87843Y204488D03*
Y212362D03*
Y232047D03*
X89811Y263543D03*
X91780Y196614D03*
X92646Y327165D03*
Y338976D03*
Y386220D03*
Y398031D03*
X93945Y57283D03*
Y69094D03*
Y92717D03*
Y104528D03*
X94614Y457283D03*
Y469094D03*
Y516339D03*
Y528150D03*
X95323Y230079D03*
X97685Y204094D03*
Y287165D03*
X101622Y196614D03*
X104378Y204094D03*
X105559Y234016D03*
X105756Y25787D03*
Y33661D03*
Y45472D03*
Y57283D03*
Y69094D03*
Y92717D03*
Y104528D03*
Y116339D03*
Y128150D03*
Y136024D03*
X106425Y307480D03*
Y315354D03*
Y327165D03*
Y338976D03*
Y350787D03*
Y374409D03*
Y386220D03*
Y398031D03*
Y409843D03*
Y417717D03*
X107528Y263543D03*
X108394Y437598D03*
Y445472D03*
Y457283D03*
Y469094D03*
Y480906D03*
Y504528D03*
Y516339D03*
Y528150D03*
Y539961D03*
Y547835D03*
X109496Y157244D03*
Y167087D03*
Y178898D03*
Y188740D03*
Y230079D03*
Y237953D03*
Y249764D03*
Y287165D03*
X113709Y69094D03*
X114496Y92717D03*
X117370Y259606D03*
X118236Y338976D03*
Y350787D03*
Y386220D03*
Y469094D03*
Y480906D03*
X119339Y287165D03*
X119535Y45472D03*
Y57283D03*
Y104528D03*
Y116339D03*
X120205Y504528D03*
Y516339D03*
X121307Y157244D03*
X123079Y195433D03*
X123276Y228110D03*
Y239921D03*
Y253701D03*
X127685Y359449D03*
X129181Y287165D03*
X131346Y45472D03*
Y57283D03*
Y104528D03*
Y116339D03*
X132016Y338976D03*
Y350787D03*
Y386220D03*
Y469094D03*
Y480906D03*
Y504528D03*
Y516339D03*
X133118Y157244D03*
X135087Y186772D03*
Y194646D03*
Y204488D03*
Y216299D03*
Y228110D03*
Y239921D03*
Y253701D03*
X137331Y69094D03*
Y92717D03*
X139024Y287165D03*
X143827Y338976D03*
Y350787D03*
X144929Y157244D03*
Y167087D03*
Y178898D03*
Y188740D03*
Y198583D03*
Y210394D03*
Y222205D03*
Y234016D03*
Y245827D03*
Y257638D03*
Y271417D03*
Y283228D03*
X145126Y25787D03*
Y33661D03*
Y45472D03*
Y57283D03*
Y69094D03*
Y80906D03*
Y92717D03*
Y104528D03*
Y116339D03*
Y128150D03*
Y136024D03*
X145795Y386220D03*
Y469094D03*
Y480906D03*
Y504528D03*
Y516339D03*
X147370Y377953D03*
X155638Y307480D03*
Y315354D03*
Y327165D03*
Y338976D03*
Y350787D03*
Y374409D03*
Y386220D03*
Y398031D03*
Y409843D03*
Y417717D03*
X157606Y437598D03*
Y445472D03*
Y457283D03*
Y469094D03*
Y480906D03*
Y504528D03*
Y516339D03*
Y528150D03*
Y539961D03*
Y547835D03*
X164929Y6614D03*
Y18425D03*
Y30236D03*
X167016Y157520D03*
Y169331D03*
Y181142D03*
Y261850D03*
Y273661D03*
Y285472D03*
X168866Y110945D03*
Y122756D03*
Y134567D03*
X169417Y327165D03*
Y338976D03*
Y386220D03*
Y398031D03*
X171386Y457283D03*
Y469094D03*
Y516339D03*
Y528150D03*
X174614Y6614D03*
X174732Y210630D03*
Y234252D03*
X174969Y58819D03*
Y82441D03*
X176701Y157520D03*
X180638Y285472D03*
X181228Y327165D03*
Y338976D03*
Y386220D03*
Y398031D03*
X183197Y457283D03*
Y469094D03*
Y516339D03*
Y528150D03*
X186425Y6614D03*
Y134567D03*
X188512Y157520D03*
X195008Y307480D03*
Y315354D03*
Y327165D03*
Y338976D03*
Y350787D03*
Y362598D03*
Y374409D03*
Y386220D03*
Y398031D03*
Y409843D03*
Y417717D03*
X196976Y437598D03*
Y445472D03*
Y457283D03*
Y469094D03*
Y480906D03*
Y492717D03*
Y504528D03*
Y516339D03*
Y528150D03*
Y539961D03*
Y547835D03*
X198354Y234252D03*
X198591Y58819D03*
Y82835D03*
X198748Y210630D03*
X200047Y6614D03*
Y18425D03*
Y30236D03*
X200323Y261850D03*
Y273661D03*
Y285472D03*
X202134Y157520D03*
Y169331D03*
Y181142D03*
X202173Y110945D03*
Y122756D03*
Y134567D03*
X214693Y307480D03*
Y315354D03*
Y327165D03*
Y338976D03*
Y350787D03*
Y362598D03*
Y374409D03*
Y386220D03*
Y398031D03*
Y409843D03*
Y417717D03*
X215953Y6614D03*
Y18425D03*
Y30236D03*
Y110945D03*
Y122756D03*
Y134567D03*
X216071Y285472D03*
X216661Y437598D03*
Y445472D03*
Y457283D03*
Y469094D03*
Y480906D03*
Y492717D03*
Y504528D03*
Y516339D03*
Y528150D03*
Y539961D03*
Y547835D03*
X218039Y157520D03*
X224535Y307480D03*
Y327165D03*
Y338976D03*
Y386220D03*
Y398031D03*
Y417717D03*
X226504Y437598D03*
Y457283D03*
Y469094D03*
Y516339D03*
Y528150D03*
Y547835D03*
X231701Y6614D03*
Y18425D03*
Y30236D03*
Y110945D03*
Y122756D03*
Y134567D03*
X231819Y285472D03*
X233787Y157520D03*
X236346Y327165D03*
Y338976D03*
Y386220D03*
Y398031D03*
X238315Y457283D03*
Y469094D03*
Y516339D03*
Y528150D03*
X247449Y6614D03*
Y18425D03*
Y30236D03*
Y110945D03*
Y122756D03*
Y134567D03*
X247567Y275630D03*
Y285472D03*
X248157Y307480D03*
Y327165D03*
Y338976D03*
Y386220D03*
Y398031D03*
Y417717D03*
X249535Y157520D03*
X250126Y437598D03*
Y457283D03*
Y469094D03*
Y516339D03*
Y528150D03*
Y547835D03*
X262921Y194882D03*
X263197Y6614D03*
Y18425D03*
Y30236D03*
Y110945D03*
Y122756D03*
Y134567D03*
X263315Y285472D03*
X265283Y157520D03*
X271976Y307480D03*
Y327165D03*
Y338976D03*
Y386220D03*
Y398031D03*
Y417717D03*
Y437598D03*
Y457283D03*
Y469094D03*
Y516339D03*
Y528150D03*
Y547835D03*
X275126Y263819D03*
X278945Y6614D03*
Y18425D03*
Y30236D03*
Y110945D03*
Y122756D03*
Y134567D03*
X279063Y285472D03*
X281031Y157520D03*
X283787Y327165D03*
Y338976D03*
Y386220D03*
Y398031D03*
Y457283D03*
Y469094D03*
Y516339D03*
Y528150D03*
X284575Y244488D03*
Y255118D03*
X293630Y275984D03*
X294693Y6614D03*
Y18425D03*
Y30236D03*
Y110945D03*
Y122756D03*
Y134567D03*
X294811Y285472D03*
X295598Y307480D03*
Y327165D03*
Y338976D03*
Y386220D03*
Y398031D03*
Y417717D03*
Y437598D03*
Y457283D03*
Y469094D03*
Y516339D03*
Y528150D03*
Y547835D03*
X296780Y157520D03*
X300717Y275630D03*
X305441Y307480D03*
Y315354D03*
Y327165D03*
Y338976D03*
Y350787D03*
Y362598D03*
Y374409D03*
Y386220D03*
Y398031D03*
Y409843D03*
Y417717D03*
Y437598D03*
Y445472D03*
Y457283D03*
Y469094D03*
Y480906D03*
Y492717D03*
Y504528D03*
Y516339D03*
Y528150D03*
Y539961D03*
Y547835D03*
X310441Y6614D03*
Y18425D03*
Y30236D03*
Y110945D03*
Y122756D03*
Y134567D03*
X310559Y261850D03*
Y273661D03*
Y285472D03*
X312528Y157520D03*
X320008Y213386D03*
X325126Y307480D03*
Y315354D03*
Y327165D03*
Y338976D03*
Y350787D03*
Y362598D03*
Y374409D03*
Y386220D03*
Y398031D03*
Y409843D03*
Y417717D03*
Y437598D03*
Y445472D03*
Y457283D03*
Y469094D03*
Y480906D03*
Y492717D03*
Y504528D03*
Y516339D03*
Y528150D03*
Y539961D03*
Y547835D03*
X326189Y6614D03*
Y18425D03*
Y30236D03*
Y110945D03*
Y122756D03*
Y134567D03*
X326307Y261850D03*
Y273661D03*
Y285472D03*
X328276Y157520D03*
X338906Y327165D03*
Y338976D03*
Y386220D03*
Y398031D03*
Y457283D03*
Y469094D03*
Y516339D03*
Y528150D03*
X341937Y6614D03*
Y18425D03*
Y30236D03*
Y110945D03*
Y122756D03*
Y134567D03*
X342055Y261850D03*
Y273661D03*
Y285472D03*
X344024Y157520D03*
X347961Y212992D03*
X350717Y327165D03*
Y338976D03*
Y386220D03*
Y398031D03*
Y457283D03*
Y469094D03*
Y516339D03*
Y528150D03*
X357685Y110945D03*
Y122756D03*
Y134567D03*
X357803Y261850D03*
Y273661D03*
Y285472D03*
X359654Y6614D03*
X359811Y18425D03*
Y30236D03*
X361740Y157520D03*
X361898Y169331D03*
Y181142D03*
X363709Y234252D03*
X363945Y58425D03*
Y82835D03*
X364102Y210630D03*
X364496Y307480D03*
Y315354D03*
Y327165D03*
Y338976D03*
Y350787D03*
Y374409D03*
Y386220D03*
Y398031D03*
Y409843D03*
Y417717D03*
Y437598D03*
Y445472D03*
Y457283D03*
Y469094D03*
Y480906D03*
Y504528D03*
Y516339D03*
Y528150D03*
Y539961D03*
Y547835D03*
X369496Y6614D03*
X371583Y157520D03*
X372370Y338976D03*
Y384252D03*
X373433Y134567D03*
X373551Y285472D03*
X374339Y469094D03*
Y480906D03*
X376307Y504528D03*
Y516339D03*
X378276Y350787D03*
Y374409D03*
X381307Y6614D03*
X383394Y157520D03*
X384181Y338976D03*
Y384252D03*
X387173Y58819D03*
Y82835D03*
X387331Y210630D03*
X387724Y234646D03*
X388118Y469094D03*
Y480906D03*
Y504528D03*
Y516339D03*
X389181Y134567D03*
X389299Y285472D03*
X390087Y350787D03*
Y374409D03*
X394929Y6614D03*
Y18425D03*
Y30236D03*
X395992Y338976D03*
Y384252D03*
X397016Y157520D03*
Y169331D03*
Y181142D03*
X397055Y110945D03*
Y122756D03*
X397173Y261850D03*
Y273661D03*
X401898Y350787D03*
Y374409D03*
Y469094D03*
Y480906D03*
Y504528D03*
Y516339D03*
X407803Y338976D03*
Y384252D03*
X413709Y350787D03*
Y374409D03*
Y437598D03*
Y445472D03*
Y457283D03*
Y469094D03*
Y480906D03*
Y504528D03*
Y516339D03*
Y528150D03*
Y539961D03*
Y547835D03*
X417843Y159252D03*
Y176969D03*
Y190748D03*
Y212402D03*
Y222244D03*
Y237992D03*
Y253740D03*
Y267520D03*
X419614Y338976D03*
Y384252D03*
X419811Y104134D03*
Y112008D03*
Y277362D03*
Y285236D03*
X425520Y350787D03*
Y374409D03*
X427488Y457283D03*
Y469094D03*
Y516339D03*
Y528150D03*
X427685Y119882D03*
Y135630D03*
Y151378D03*
X431425Y338976D03*
Y384252D03*
X437331Y350787D03*
Y374409D03*
X438315Y210039D03*
X439299Y457283D03*
Y469094D03*
Y516339D03*
Y528150D03*
X439496Y188386D03*
X443236Y338976D03*
Y384252D03*
X446189Y197441D03*
X447370Y222244D03*
Y230118D03*
X449142Y350787D03*
Y374409D03*
X450126Y189961D03*
X451307Y257677D03*
X452094Y249803D03*
X453079Y437598D03*
Y445472D03*
Y457283D03*
Y469094D03*
Y480906D03*
Y492717D03*
Y504528D03*
Y516339D03*
Y528150D03*
Y539961D03*
Y547835D03*
X455047Y338976D03*
Y384252D03*
X456425Y120276D03*
Y135630D03*
Y151378D03*
Y167126D03*
Y182874D03*
X457213Y265551D03*
X459181Y230118D03*
X461150Y223425D03*
Y257677D03*
X462921Y307480D03*
Y315354D03*
Y327165D03*
Y338976D03*
Y350787D03*
Y374409D03*
Y386220D03*
Y398031D03*
Y409843D03*
Y417717D03*
X463118Y189961D03*
X469024Y249803D03*
X470598Y350787D03*
Y374409D03*
X472764Y437598D03*
Y445472D03*
Y457283D03*
Y469094D03*
Y480906D03*
Y492717D03*
Y504528D03*
Y516339D03*
Y528150D03*
Y539961D03*
Y547835D03*
X472961Y191929D03*
X473748Y221260D03*
X476701Y327165D03*
Y338976D03*
Y386220D03*
Y398031D03*
X477291Y135630D03*
Y151378D03*
Y167126D03*
Y182874D03*
X478866Y123819D03*
X479575Y249803D03*
X479654Y226378D03*
X482606Y437598D03*
Y457283D03*
Y469094D03*
Y516339D03*
Y528150D03*
Y547835D03*
X488512Y327165D03*
Y338976D03*
Y386220D03*
Y398031D03*
X488709Y257677D03*
X492646Y112008D03*
Y127756D03*
Y143504D03*
Y159252D03*
Y175000D03*
Y190748D03*
Y265551D03*
X493354Y216732D03*
Y250197D03*
X494220Y374409D03*
X494417Y350984D03*
Y457283D03*
Y469094D03*
Y516339D03*
Y528150D03*
X494614Y104134D03*
Y277362D03*
Y285236D03*
X502291Y307480D03*
Y315354D03*
Y327165D03*
Y338976D03*
Y350787D03*
Y362598D03*
Y374409D03*
Y386220D03*
Y398031D03*
Y409843D03*
Y417717D03*
X506228Y437598D03*
Y457283D03*
Y469094D03*
Y516339D03*
Y528150D03*
Y547835D03*
D02*
D18*
X101622Y245972D03*
D03*
X121316Y217323D03*
X426504Y43031D03*
X432311Y33031D03*
Y43031D03*
Y53031D03*
Y63031D03*
X493433Y201772D03*
X529260Y33071D03*
X529555Y43031D03*
Y53031D03*
Y63031D03*
X538315Y27953D03*
D02*
D19*
X98551Y362598D02*
X104063D01*
X162724D02*
X157213D01*
X237894Y70787D02*
X249602D01*
X249614Y70799*
X262567Y213177D02*
Y203791D01*
X283248Y70787D02*
X295902D01*
X295913Y70776*
X319587Y222283D02*
X319575Y222295D01*
X347972Y222323D02*
X347961Y222335D01*
X347972Y222323D02*
X347961Y222335D01*
X352291Y222323D02*
X347972D01*
D02*
D70*
X105402Y212823D02*
X105953Y212272D01*
X109693D02*
Y205700D01*
X110087Y205306*
X268591Y222177D02*
X269299D01*
X275469D02*
X275598Y222047D01*
X275469Y222177D02*
X275598Y222047D01*
X275469Y222177D02*
X275598Y222047D01*
X275469Y222177D02*
X275598Y222047D01*
X283500Y227193D02*
X283472Y227165D01*
X283500Y227193D02*
X283472Y227165D01*
X293776Y227193D02*
X293906Y227323D01*
D02*
D71*
X207685Y70787D02*
X215056D01*
X220156D02*
X228894D01*
X249614Y70799D02*
X260202D01*
X260214Y70787*
X265314D02*
X274248D01*
X295913Y70776D02*
X305359D01*
X305371Y70787*
X310471D02*
X319327D01*
D02*
D20*
X54772Y222126D02*
X60114D01*
X60193Y222047*
X69193D02*
X78248D01*
X78472Y221823*
X87472*
X87528Y221878D02*
X96134D01*
X215205Y222244D02*
X220075D01*
X229075D02*
X241846D01*
X262567Y222177D02*
X250913D01*
X250846Y222244*
X293591Y227193D02*
X302504D01*
X302516Y227205*
X311516D02*
X314665D01*
X319575Y222295*
X328327Y70787D02*
X339130D01*
X328933Y222283D02*
X319587D01*
X345402Y70787D02*
X339154D01*
X339142Y70799*
X347961Y222335D02*
X337984D01*
X337933Y222283*
D02*
D21*
X96134Y221878D02*
G75*
G02X96189Y221823J-55D01*
G01*
D02*
D23*
X34772Y222126D03*
X36858Y80906D03*
X125441D03*
X186543Y70787D03*
X186701Y222244D03*
X375520Y70787D03*
X375598Y222323D03*
X482528Y362598D03*
D02*
D24*
X22961Y210315D03*
Y233937D03*
X25047Y69094D03*
Y92717D03*
X46583Y210315D03*
Y233937D03*
X48669Y69094D03*
Y92717D03*
X113630Y69094D03*
Y92717D03*
X137252Y69094D03*
Y92717D03*
X174732Y58976D03*
Y82598D03*
X174890Y210433D03*
Y234055D03*
X198354Y58976D03*
Y82598D03*
X198512Y210433D03*
Y234055D03*
X363709Y58976D03*
Y82598D03*
X363787Y210512D03*
Y234134D03*
X387331Y58976D03*
Y82598D03*
X387409Y210512D03*
Y234134D03*
X470717Y350787D03*
Y374409D03*
X494339Y350787D03*
Y374409D03*
D02*
D25*
X27606Y409921D03*
X27685Y315433D03*
X29575Y540039D03*
X29654Y445551D03*
X34693Y269449D03*
X34772Y174961D03*
X36780Y128228D03*
X36858Y33740D03*
X86661Y409921D03*
X86740Y315433D03*
X88630Y540039D03*
X88709Y445551D03*
X125362Y128228D03*
X125441Y33740D03*
X129181Y269291D03*
X129260Y174803D03*
X175323Y409764D03*
X175402Y315276D03*
X177213Y539961D03*
X177291Y445472D03*
X186465Y118110D03*
X186543Y23622D03*
X186622Y269567D03*
X186701Y175079D03*
X234378Y409764D03*
X234457Y315276D03*
X236268Y539961D03*
X236346Y445472D03*
X285677Y409921D03*
X285756Y315433D03*
X285874Y540039D03*
X285953Y445551D03*
X344732Y409921D03*
X344811Y315433D03*
X344929Y540039D03*
X345008Y445551D03*
X375520Y117953D03*
X375598Y23465D03*
Y269488D03*
X375677Y175000D03*
X433512Y540039D03*
X433591Y445551D03*
X482449Y409921D03*
X482528Y315433D03*
X492567Y540039D03*
X492646Y445551D03*
D02*
D26*
X15874Y350787D03*
Y374409D03*
X17843Y480906D03*
Y504528D03*
X27685Y362598D03*
X29654Y492717D03*
X39496Y350787D03*
Y374409D03*
X41465Y480906D03*
Y504528D03*
X74929Y350787D03*
Y374409D03*
X76898Y480906D03*
Y504528D03*
X86740Y362598D03*
X88709Y492717D03*
X98551Y350787D03*
Y374409D03*
X100520Y480906D03*
Y504528D03*
X163512Y350787D03*
Y374409D03*
X165402Y480984D03*
Y504606D03*
X175323Y362598D03*
X177213Y492795D03*
X187134Y350787D03*
Y374409D03*
X189024Y480984D03*
Y504606D03*
X222567Y350787D03*
Y374409D03*
X224457Y480984D03*
Y504606D03*
X234378Y362598D03*
X236268Y492795D03*
X246189Y350787D03*
Y374409D03*
X248079Y480984D03*
Y504606D03*
X273945Y350787D03*
Y374409D03*
X274142Y480906D03*
Y504528D03*
X285756Y362598D03*
X285953Y492717D03*
X297567Y350787D03*
Y374409D03*
X297764Y480906D03*
Y504528D03*
X333000Y350787D03*
Y374409D03*
X333197Y480906D03*
Y504528D03*
X344811Y362598D03*
X345008Y492717D03*
X356622Y350787D03*
Y374409D03*
X356819Y480906D03*
Y504528D03*
X421780Y480906D03*
Y504528D03*
X433591Y492717D03*
X445402Y480906D03*
Y504528D03*
X480835Y480906D03*
Y504528D03*
X492646Y492717D03*
X504457Y480906D03*
Y504528D03*
D02*
D27*
X110087Y200206D03*
Y205306D03*
X113118Y373828D03*
Y378928D03*
X119024Y362804D03*
Y367904D03*
Y373828D03*
Y378928D03*
X124535Y368316D03*
Y373416D03*
X130047Y368316D03*
Y373416D03*
X135953Y362804D03*
Y367904D03*
Y373828D03*
Y378928D03*
X141071Y373828D03*
Y378928D03*
X147370Y368316D03*
Y373416D03*
X152882Y362804D03*
Y367904D03*
X249614Y49222D03*
Y54322D03*
X295913Y87253D03*
Y92353D03*
X339142Y49222D03*
Y54322D03*
D02*
D28*
X108600Y362598D03*
X110293Y204791D03*
X113700Y362598D03*
X115393Y204791D03*
X121316Y212272D03*
X126416D03*
X142064Y362598D03*
X147164D03*
X215056Y70787D03*
X220156D03*
X260214D03*
X265314D03*
X305371D03*
X310471D03*
D02*
D29*
X78000Y245972D03*
Y254972D03*
X78472Y212823D03*
Y221823D03*
X87528Y221878D03*
Y230878D03*
X89811Y245972D03*
Y254972D03*
X96189Y212823D03*
Y221823D03*
X101622Y245972D03*
Y254972D03*
X123079Y195567D03*
Y204567D03*
X249614Y61799D03*
Y70799D03*
X262567Y194791D03*
Y203791D03*
Y213177D03*
Y222177D03*
X293591Y227193D03*
Y236193D03*
X295913Y70776D03*
Y79776D03*
X319575Y213295D03*
Y222295D03*
X339142Y61799D03*
Y70799D03*
X347961Y213335D03*
Y222335D03*
X438236Y235539D03*
Y244539D03*
X438315Y215776D03*
Y224776D03*
X452016Y235736D03*
Y244736D03*
X465795Y235539D03*
Y244539D03*
X469732Y172547D03*
Y181547D03*
Y255224D03*
Y264224D03*
X479575Y235539D03*
Y244539D03*
Y255224D03*
Y264224D03*
X485480Y172547D03*
Y181547D03*
X493354Y202075D03*
Y211075D03*
Y235539D03*
Y244539D03*
D02*
D72*
X60193Y222047D03*
X69193D03*
X220075Y222244D03*
X228894Y70787D03*
X229075Y222244D03*
X237894Y70787D03*
X241846Y222244D03*
X250846D03*
X274248Y70787D03*
X283248D03*
X284406Y265787D03*
Y275630D03*
X284524Y244646D03*
X284563Y255000D03*
X293406Y265787D03*
Y275630D03*
X293524Y244646D03*
X293563Y255000D03*
X302516Y227205D03*
X311516D03*
X319327Y70787D03*
X328327D03*
X328933Y222283D03*
X337933D03*
X417280Y204528D03*
X426280D03*
D02*
D73*
X60283Y277323D03*
X70283D03*
X80283D03*
X90283D03*
X100283D03*
X110283D03*
X432213Y108071D03*
Y281299D03*
X442213Y108071D03*
Y281299D03*
X452213Y108071D03*
Y281299D03*
X462213Y108071D03*
Y281299D03*
X472213Y108071D03*
Y281299D03*
X482213Y108071D03*
Y281299D03*
D02*
D74*
X439496Y192717D03*
Y204528D03*
D02*
D75*
X105953Y212272D03*
Y222508D03*
X109693Y212272D03*
Y222508D03*
X113433Y212272D03*
Y222508D03*
D02*
D76*
X451504Y199606D03*
Y201575D03*
Y203543D03*
Y205512D03*
Y207480D03*
Y209449D03*
Y211417D03*
Y213386D03*
X470795Y199606D03*
Y201575D03*
Y203543D03*
Y205512D03*
Y207480D03*
Y209449D03*
Y211417D03*
Y213386D03*
D02*
D77*
X454260Y196850D03*
Y216142D03*
X456228Y196850D03*
Y216142D03*
X458197Y196850D03*
Y216142D03*
X460165Y196850D03*
Y216142D03*
X462134Y196850D03*
Y216142D03*
X464102Y196850D03*
Y216142D03*
X466071Y196850D03*
Y216142D03*
X468039Y196850D03*
Y216142D03*
D02*
D78*
X461150Y206496D03*
D02*
D79*
X275598Y222047D03*
Y224606D03*
Y227165D03*
X283472Y222047D03*
Y224606D03*
Y227165D03*
D02*
D80*
X212213Y277441D03*
X222213D03*
X232213D03*
X523748Y120866D03*
Y130866D03*
Y140866D03*
Y150866D03*
Y160866D03*
Y170866D03*
Y180866D03*
Y190866D03*
X533748Y120866D03*
Y130866D03*
Y140866D03*
Y150866D03*
Y160866D03*
Y170866D03*
Y180866D03*
Y190866D03*
D02*
D81*
X432311Y33031D03*
Y43031D03*
Y53031D03*
Y63031D03*
X529555Y33031D03*
Y43031D03*
Y53031D03*
Y63031D03*
D02*
D82*
X551307Y23622D03*
Y33622D03*
Y43622D03*
Y53622D03*
Y63622D03*
Y73622D03*
X555638Y119606D03*
Y129606D03*
Y139606D03*
Y149606D03*
Y159606D03*
Y169606D03*
X0Y0D02*
M02*
